G04 #@! TF.GenerationSoftware,KiCad,Pcbnew,5.0.0*
G04 #@! TF.CreationDate,2018-10-21T13:39:10+10:00*
G04 #@! TF.ProjectId,controller,636F6E74726F6C6C65722E6B69636164,rev?*
G04 #@! TF.SameCoordinates,Original*
G04 #@! TF.FileFunction,Legend,Bot*
G04 #@! TF.FilePolarity,Positive*
%FSLAX46Y46*%
G04 Gerber Fmt 4.6, Leading zero omitted, Abs format (unit mm)*
G04 Created by KiCad (PCBNEW 5.0.0) date Sun Oct 21 13:39:10 2018*
%MOMM*%
%LPD*%
G01*
G04 APERTURE LIST*
%ADD10C,0.100000*%
%ADD11C,0.150000*%
%ADD12C,0.300000*%
%ADD13C,0.400000*%
%ADD14C,0.250000*%
%ADD15C,0.200000*%
%ADD16C,0.120000*%
G04 APERTURE END LIST*
D10*
D11*
X177002200Y-166007200D02*
X177002200Y-198007200D01*
X285002200Y-198007200D01*
X285002200Y-166007200D01*
X177002200Y-166007200D01*
D10*
D11*
X10000000Y-10000000D02*
X10000000Y-200007200D01*
X287002200Y-200007200D01*
X287002200Y-10000000D01*
X10000000Y-10000000D01*
D10*
D11*
X12000000Y-12000000D02*
X12000000Y-198007200D01*
X285002200Y-198007200D01*
X285002200Y-12000000D01*
X12000000Y-12000000D01*
D10*
D11*
X60000000Y-12000000D02*
X60000000Y-10000000D01*
D10*
D11*
X110000000Y-12000000D02*
X110000000Y-10000000D01*
D10*
D11*
X160000000Y-12000000D02*
X160000000Y-10000000D01*
D10*
D11*
X210000000Y-12000000D02*
X210000000Y-10000000D01*
D10*
D11*
X260000000Y-12000000D02*
X260000000Y-10000000D01*
D10*
D11*
X36065476Y-11588095D02*
X35322619Y-11588095D01*
X35694047Y-11588095D02*
X35694047Y-10288095D01*
X35570238Y-10473809D01*
X35446428Y-10597619D01*
X35322619Y-10659523D01*
D10*
D11*
X85322619Y-10411904D02*
X85384523Y-10350000D01*
X85508333Y-10288095D01*
X85817857Y-10288095D01*
X85941666Y-10350000D01*
X86003571Y-10411904D01*
X86065476Y-10535714D01*
X86065476Y-10659523D01*
X86003571Y-10845238D01*
X85260714Y-11588095D01*
X86065476Y-11588095D01*
D10*
D11*
X135260714Y-10288095D02*
X136065476Y-10288095D01*
X135632142Y-10783333D01*
X135817857Y-10783333D01*
X135941666Y-10845238D01*
X136003571Y-10907142D01*
X136065476Y-11030952D01*
X136065476Y-11340476D01*
X136003571Y-11464285D01*
X135941666Y-11526190D01*
X135817857Y-11588095D01*
X135446428Y-11588095D01*
X135322619Y-11526190D01*
X135260714Y-11464285D01*
D10*
D11*
X185941666Y-10721428D02*
X185941666Y-11588095D01*
X185632142Y-10226190D02*
X185322619Y-11154761D01*
X186127380Y-11154761D01*
D10*
D11*
X236003571Y-10288095D02*
X235384523Y-10288095D01*
X235322619Y-10907142D01*
X235384523Y-10845238D01*
X235508333Y-10783333D01*
X235817857Y-10783333D01*
X235941666Y-10845238D01*
X236003571Y-10907142D01*
X236065476Y-11030952D01*
X236065476Y-11340476D01*
X236003571Y-11464285D01*
X235941666Y-11526190D01*
X235817857Y-11588095D01*
X235508333Y-11588095D01*
X235384523Y-11526190D01*
X235322619Y-11464285D01*
D10*
D11*
X285941666Y-10288095D02*
X285694047Y-10288095D01*
X285570238Y-10350000D01*
X285508333Y-10411904D01*
X285384523Y-10597619D01*
X285322619Y-10845238D01*
X285322619Y-11340476D01*
X285384523Y-11464285D01*
X285446428Y-11526190D01*
X285570238Y-11588095D01*
X285817857Y-11588095D01*
X285941666Y-11526190D01*
X286003571Y-11464285D01*
X286065476Y-11340476D01*
X286065476Y-11030952D01*
X286003571Y-10907142D01*
X285941666Y-10845238D01*
X285817857Y-10783333D01*
X285570238Y-10783333D01*
X285446428Y-10845238D01*
X285384523Y-10907142D01*
X285322619Y-11030952D01*
D10*
D11*
X60000000Y-198007200D02*
X60000000Y-200007200D01*
D10*
D11*
X110000000Y-198007200D02*
X110000000Y-200007200D01*
D10*
D11*
X160000000Y-198007200D02*
X160000000Y-200007200D01*
D10*
D11*
X210000000Y-198007200D02*
X210000000Y-200007200D01*
D10*
D11*
X260000000Y-198007200D02*
X260000000Y-200007200D01*
D10*
D11*
X36065476Y-199595295D02*
X35322619Y-199595295D01*
X35694047Y-199595295D02*
X35694047Y-198295295D01*
X35570238Y-198481009D01*
X35446428Y-198604819D01*
X35322619Y-198666723D01*
D10*
D11*
X85322619Y-198419104D02*
X85384523Y-198357200D01*
X85508333Y-198295295D01*
X85817857Y-198295295D01*
X85941666Y-198357200D01*
X86003571Y-198419104D01*
X86065476Y-198542914D01*
X86065476Y-198666723D01*
X86003571Y-198852438D01*
X85260714Y-199595295D01*
X86065476Y-199595295D01*
D10*
D11*
X135260714Y-198295295D02*
X136065476Y-198295295D01*
X135632142Y-198790533D01*
X135817857Y-198790533D01*
X135941666Y-198852438D01*
X136003571Y-198914342D01*
X136065476Y-199038152D01*
X136065476Y-199347676D01*
X136003571Y-199471485D01*
X135941666Y-199533390D01*
X135817857Y-199595295D01*
X135446428Y-199595295D01*
X135322619Y-199533390D01*
X135260714Y-199471485D01*
D10*
D11*
X185941666Y-198728628D02*
X185941666Y-199595295D01*
X185632142Y-198233390D02*
X185322619Y-199161961D01*
X186127380Y-199161961D01*
D10*
D11*
X236003571Y-198295295D02*
X235384523Y-198295295D01*
X235322619Y-198914342D01*
X235384523Y-198852438D01*
X235508333Y-198790533D01*
X235817857Y-198790533D01*
X235941666Y-198852438D01*
X236003571Y-198914342D01*
X236065476Y-199038152D01*
X236065476Y-199347676D01*
X236003571Y-199471485D01*
X235941666Y-199533390D01*
X235817857Y-199595295D01*
X235508333Y-199595295D01*
X235384523Y-199533390D01*
X235322619Y-199471485D01*
D10*
D11*
X285941666Y-198295295D02*
X285694047Y-198295295D01*
X285570238Y-198357200D01*
X285508333Y-198419104D01*
X285384523Y-198604819D01*
X285322619Y-198852438D01*
X285322619Y-199347676D01*
X285384523Y-199471485D01*
X285446428Y-199533390D01*
X285570238Y-199595295D01*
X285817857Y-199595295D01*
X285941666Y-199533390D01*
X286003571Y-199471485D01*
X286065476Y-199347676D01*
X286065476Y-199038152D01*
X286003571Y-198914342D01*
X285941666Y-198852438D01*
X285817857Y-198790533D01*
X285570238Y-198790533D01*
X285446428Y-198852438D01*
X285384523Y-198914342D01*
X285322619Y-199038152D01*
D10*
D11*
X10000000Y-60000000D02*
X12000000Y-60000000D01*
D10*
D11*
X10000000Y-110000000D02*
X12000000Y-110000000D01*
D10*
D11*
X10000000Y-160000000D02*
X12000000Y-160000000D01*
D10*
D11*
X10690476Y-35216666D02*
X11309523Y-35216666D01*
X10566666Y-35588095D02*
X11000000Y-34288095D01*
X11433333Y-35588095D01*
D10*
D11*
X11092857Y-84907142D02*
X11278571Y-84969047D01*
X11340476Y-85030952D01*
X11402380Y-85154761D01*
X11402380Y-85340476D01*
X11340476Y-85464285D01*
X11278571Y-85526190D01*
X11154761Y-85588095D01*
X10659523Y-85588095D01*
X10659523Y-84288095D01*
X11092857Y-84288095D01*
X11216666Y-84350000D01*
X11278571Y-84411904D01*
X11340476Y-84535714D01*
X11340476Y-84659523D01*
X11278571Y-84783333D01*
X11216666Y-84845238D01*
X11092857Y-84907142D01*
X10659523Y-84907142D01*
D10*
D11*
X11402380Y-135464285D02*
X11340476Y-135526190D01*
X11154761Y-135588095D01*
X11030952Y-135588095D01*
X10845238Y-135526190D01*
X10721428Y-135402380D01*
X10659523Y-135278571D01*
X10597619Y-135030952D01*
X10597619Y-134845238D01*
X10659523Y-134597619D01*
X10721428Y-134473809D01*
X10845238Y-134350000D01*
X11030952Y-134288095D01*
X11154761Y-134288095D01*
X11340476Y-134350000D01*
X11402380Y-134411904D01*
D10*
D11*
X10659523Y-185588095D02*
X10659523Y-184288095D01*
X10969047Y-184288095D01*
X11154761Y-184350000D01*
X11278571Y-184473809D01*
X11340476Y-184597619D01*
X11402380Y-184845238D01*
X11402380Y-185030952D01*
X11340476Y-185278571D01*
X11278571Y-185402380D01*
X11154761Y-185526190D01*
X10969047Y-185588095D01*
X10659523Y-185588095D01*
D10*
D11*
X287002200Y-60000000D02*
X285002200Y-60000000D01*
D10*
D11*
X287002200Y-110000000D02*
X285002200Y-110000000D01*
D10*
D11*
X287002200Y-160000000D02*
X285002200Y-160000000D01*
D10*
D11*
X285692676Y-35216666D02*
X286311723Y-35216666D01*
X285568866Y-35588095D02*
X286002200Y-34288095D01*
X286435533Y-35588095D01*
D10*
D11*
X286095057Y-84907142D02*
X286280771Y-84969047D01*
X286342676Y-85030952D01*
X286404580Y-85154761D01*
X286404580Y-85340476D01*
X286342676Y-85464285D01*
X286280771Y-85526190D01*
X286156961Y-85588095D01*
X285661723Y-85588095D01*
X285661723Y-84288095D01*
X286095057Y-84288095D01*
X286218866Y-84350000D01*
X286280771Y-84411904D01*
X286342676Y-84535714D01*
X286342676Y-84659523D01*
X286280771Y-84783333D01*
X286218866Y-84845238D01*
X286095057Y-84907142D01*
X285661723Y-84907142D01*
D10*
D11*
X286404580Y-135464285D02*
X286342676Y-135526190D01*
X286156961Y-135588095D01*
X286033152Y-135588095D01*
X285847438Y-135526190D01*
X285723628Y-135402380D01*
X285661723Y-135278571D01*
X285599819Y-135030952D01*
X285599819Y-134845238D01*
X285661723Y-134597619D01*
X285723628Y-134473809D01*
X285847438Y-134350000D01*
X286033152Y-134288095D01*
X286156961Y-134288095D01*
X286342676Y-134350000D01*
X286404580Y-134411904D01*
D10*
D11*
X285661723Y-185588095D02*
X285661723Y-184288095D01*
X285971247Y-184288095D01*
X286156961Y-184350000D01*
X286280771Y-184473809D01*
X286342676Y-184597619D01*
X286404580Y-184845238D01*
X286404580Y-185030952D01*
X286342676Y-185278571D01*
X286280771Y-185402380D01*
X286156961Y-185526190D01*
X285971247Y-185588095D01*
X285661723Y-185588095D01*
D10*
D11*
X200434342Y-193785771D02*
X200434342Y-192285771D01*
X200791485Y-192285771D01*
X201005771Y-192357200D01*
X201148628Y-192500057D01*
X201220057Y-192642914D01*
X201291485Y-192928628D01*
X201291485Y-193142914D01*
X201220057Y-193428628D01*
X201148628Y-193571485D01*
X201005771Y-193714342D01*
X200791485Y-193785771D01*
X200434342Y-193785771D01*
X202577200Y-193785771D02*
X202577200Y-193000057D01*
X202505771Y-192857200D01*
X202362914Y-192785771D01*
X202077200Y-192785771D01*
X201934342Y-192857200D01*
X202577200Y-193714342D02*
X202434342Y-193785771D01*
X202077200Y-193785771D01*
X201934342Y-193714342D01*
X201862914Y-193571485D01*
X201862914Y-193428628D01*
X201934342Y-193285771D01*
X202077200Y-193214342D01*
X202434342Y-193214342D01*
X202577200Y-193142914D01*
X203077200Y-192785771D02*
X203648628Y-192785771D01*
X203291485Y-192285771D02*
X203291485Y-193571485D01*
X203362914Y-193714342D01*
X203505771Y-193785771D01*
X203648628Y-193785771D01*
X204720057Y-193714342D02*
X204577200Y-193785771D01*
X204291485Y-193785771D01*
X204148628Y-193714342D01*
X204077200Y-193571485D01*
X204077200Y-193000057D01*
X204148628Y-192857200D01*
X204291485Y-192785771D01*
X204577200Y-192785771D01*
X204720057Y-192857200D01*
X204791485Y-193000057D01*
X204791485Y-193142914D01*
X204077200Y-193285771D01*
X205434342Y-193642914D02*
X205505771Y-193714342D01*
X205434342Y-193785771D01*
X205362914Y-193714342D01*
X205434342Y-193642914D01*
X205434342Y-193785771D01*
X205434342Y-192857200D02*
X205505771Y-192928628D01*
X205434342Y-193000057D01*
X205362914Y-192928628D01*
X205434342Y-192857200D01*
X205434342Y-193000057D01*
D10*
D11*
X177002200Y-194507200D02*
X285002200Y-194507200D01*
D10*
D11*
X178434342Y-196585771D02*
X178434342Y-195085771D01*
X179291485Y-196585771D02*
X178648628Y-195728628D01*
X179291485Y-195085771D02*
X178434342Y-195942914D01*
X179934342Y-196585771D02*
X179934342Y-195585771D01*
X179934342Y-195085771D02*
X179862914Y-195157200D01*
X179934342Y-195228628D01*
X180005771Y-195157200D01*
X179934342Y-195085771D01*
X179934342Y-195228628D01*
X181505771Y-196442914D02*
X181434342Y-196514342D01*
X181220057Y-196585771D01*
X181077200Y-196585771D01*
X180862914Y-196514342D01*
X180720057Y-196371485D01*
X180648628Y-196228628D01*
X180577200Y-195942914D01*
X180577200Y-195728628D01*
X180648628Y-195442914D01*
X180720057Y-195300057D01*
X180862914Y-195157200D01*
X181077200Y-195085771D01*
X181220057Y-195085771D01*
X181434342Y-195157200D01*
X181505771Y-195228628D01*
X182791485Y-196585771D02*
X182791485Y-195800057D01*
X182720057Y-195657200D01*
X182577200Y-195585771D01*
X182291485Y-195585771D01*
X182148628Y-195657200D01*
X182791485Y-196514342D02*
X182648628Y-196585771D01*
X182291485Y-196585771D01*
X182148628Y-196514342D01*
X182077200Y-196371485D01*
X182077200Y-196228628D01*
X182148628Y-196085771D01*
X182291485Y-196014342D01*
X182648628Y-196014342D01*
X182791485Y-195942914D01*
X184148628Y-196585771D02*
X184148628Y-195085771D01*
X184148628Y-196514342D02*
X184005771Y-196585771D01*
X183720057Y-196585771D01*
X183577200Y-196514342D01*
X183505771Y-196442914D01*
X183434342Y-196300057D01*
X183434342Y-195871485D01*
X183505771Y-195728628D01*
X183577200Y-195657200D01*
X183720057Y-195585771D01*
X184005771Y-195585771D01*
X184148628Y-195657200D01*
X186005771Y-195800057D02*
X186505771Y-195800057D01*
X186720057Y-196585771D02*
X186005771Y-196585771D01*
X186005771Y-195085771D01*
X186720057Y-195085771D01*
X187362914Y-196442914D02*
X187434342Y-196514342D01*
X187362914Y-196585771D01*
X187291485Y-196514342D01*
X187362914Y-196442914D01*
X187362914Y-196585771D01*
X188077200Y-196585771D02*
X188077200Y-195085771D01*
X188434342Y-195085771D01*
X188648628Y-195157200D01*
X188791485Y-195300057D01*
X188862914Y-195442914D01*
X188934342Y-195728628D01*
X188934342Y-195942914D01*
X188862914Y-196228628D01*
X188791485Y-196371485D01*
X188648628Y-196514342D01*
X188434342Y-196585771D01*
X188077200Y-196585771D01*
X189577200Y-196442914D02*
X189648628Y-196514342D01*
X189577200Y-196585771D01*
X189505771Y-196514342D01*
X189577200Y-196442914D01*
X189577200Y-196585771D01*
X190220057Y-196157200D02*
X190934342Y-196157200D01*
X190077200Y-196585771D02*
X190577200Y-195085771D01*
X191077200Y-196585771D01*
X191577200Y-196442914D02*
X191648628Y-196514342D01*
X191577200Y-196585771D01*
X191505771Y-196514342D01*
X191577200Y-196442914D01*
X191577200Y-196585771D01*
X194577200Y-196585771D02*
X194577200Y-195085771D01*
X194720057Y-196014342D02*
X195148628Y-196585771D01*
X195148628Y-195585771D02*
X194577200Y-196157200D01*
X195791485Y-196585771D02*
X195791485Y-195585771D01*
X195791485Y-195085771D02*
X195720057Y-195157200D01*
X195791485Y-195228628D01*
X195862914Y-195157200D01*
X195791485Y-195085771D01*
X195791485Y-195228628D01*
X197148628Y-196514342D02*
X197005771Y-196585771D01*
X196720057Y-196585771D01*
X196577200Y-196514342D01*
X196505771Y-196442914D01*
X196434342Y-196300057D01*
X196434342Y-195871485D01*
X196505771Y-195728628D01*
X196577200Y-195657200D01*
X196720057Y-195585771D01*
X197005771Y-195585771D01*
X197148628Y-195657200D01*
X198434342Y-196585771D02*
X198434342Y-195800057D01*
X198362914Y-195657200D01*
X198220057Y-195585771D01*
X197934342Y-195585771D01*
X197791485Y-195657200D01*
X198434342Y-196514342D02*
X198291485Y-196585771D01*
X197934342Y-196585771D01*
X197791485Y-196514342D01*
X197720057Y-196371485D01*
X197720057Y-196228628D01*
X197791485Y-196085771D01*
X197934342Y-196014342D01*
X198291485Y-196014342D01*
X198434342Y-195942914D01*
X199791485Y-196585771D02*
X199791485Y-195085771D01*
X199791485Y-196514342D02*
X199648628Y-196585771D01*
X199362914Y-196585771D01*
X199220057Y-196514342D01*
X199148628Y-196442914D01*
X199077200Y-196300057D01*
X199077200Y-195871485D01*
X199148628Y-195728628D01*
X199220057Y-195657200D01*
X199362914Y-195585771D01*
X199648628Y-195585771D01*
X199791485Y-195657200D01*
X202362914Y-195085771D02*
X201648628Y-195085771D01*
X201577200Y-195800057D01*
X201648628Y-195728628D01*
X201791485Y-195657200D01*
X202148628Y-195657200D01*
X202291485Y-195728628D01*
X202362914Y-195800057D01*
X202434342Y-195942914D01*
X202434342Y-196300057D01*
X202362914Y-196442914D01*
X202291485Y-196514342D01*
X202148628Y-196585771D01*
X201791485Y-196585771D01*
X201648628Y-196514342D01*
X201577200Y-196442914D01*
X203077200Y-196442914D02*
X203148628Y-196514342D01*
X203077200Y-196585771D01*
X203005771Y-196514342D01*
X203077200Y-196442914D01*
X203077200Y-196585771D01*
X204077200Y-195085771D02*
X204220057Y-195085771D01*
X204362914Y-195157200D01*
X204434342Y-195228628D01*
X204505771Y-195371485D01*
X204577200Y-195657200D01*
X204577200Y-196014342D01*
X204505771Y-196300057D01*
X204434342Y-196442914D01*
X204362914Y-196514342D01*
X204220057Y-196585771D01*
X204077200Y-196585771D01*
X203934342Y-196514342D01*
X203862914Y-196442914D01*
X203791485Y-196300057D01*
X203720057Y-196014342D01*
X203720057Y-195657200D01*
X203791485Y-195371485D01*
X203862914Y-195228628D01*
X203934342Y-195157200D01*
X204077200Y-195085771D01*
X205220057Y-196442914D02*
X205291485Y-196514342D01*
X205220057Y-196585771D01*
X205148628Y-196514342D01*
X205220057Y-196442914D01*
X205220057Y-196585771D01*
X206220057Y-195085771D02*
X206362914Y-195085771D01*
X206505771Y-195157200D01*
X206577200Y-195228628D01*
X206648628Y-195371485D01*
X206720057Y-195657200D01*
X206720057Y-196014342D01*
X206648628Y-196300057D01*
X206577200Y-196442914D01*
X206505771Y-196514342D01*
X206362914Y-196585771D01*
X206220057Y-196585771D01*
X206077200Y-196514342D01*
X206005771Y-196442914D01*
X205934342Y-196300057D01*
X205862914Y-196014342D01*
X205862914Y-195657200D01*
X205934342Y-195371485D01*
X206005771Y-195228628D01*
X206077200Y-195157200D01*
X206220057Y-195085771D01*
D10*
D11*
X177002200Y-191507200D02*
X285002200Y-191507200D01*
D10*
D12*
X264411485Y-193785771D02*
X263911485Y-193071485D01*
X263554342Y-193785771D02*
X263554342Y-192285771D01*
X264125771Y-192285771D01*
X264268628Y-192357200D01*
X264340057Y-192428628D01*
X264411485Y-192571485D01*
X264411485Y-192785771D01*
X264340057Y-192928628D01*
X264268628Y-193000057D01*
X264125771Y-193071485D01*
X263554342Y-193071485D01*
X265625771Y-193714342D02*
X265482914Y-193785771D01*
X265197200Y-193785771D01*
X265054342Y-193714342D01*
X264982914Y-193571485D01*
X264982914Y-193000057D01*
X265054342Y-192857200D01*
X265197200Y-192785771D01*
X265482914Y-192785771D01*
X265625771Y-192857200D01*
X265697200Y-193000057D01*
X265697200Y-193142914D01*
X264982914Y-193285771D01*
X266197200Y-192785771D02*
X266554342Y-193785771D01*
X266911485Y-192785771D01*
X267482914Y-193642914D02*
X267554342Y-193714342D01*
X267482914Y-193785771D01*
X267411485Y-193714342D01*
X267482914Y-193642914D01*
X267482914Y-193785771D01*
X267482914Y-192857200D02*
X267554342Y-192928628D01*
X267482914Y-193000057D01*
X267411485Y-192928628D01*
X267482914Y-192857200D01*
X267482914Y-193000057D01*
D10*
D11*
X178362914Y-193714342D02*
X178577200Y-193785771D01*
X178934342Y-193785771D01*
X179077200Y-193714342D01*
X179148628Y-193642914D01*
X179220057Y-193500057D01*
X179220057Y-193357200D01*
X179148628Y-193214342D01*
X179077200Y-193142914D01*
X178934342Y-193071485D01*
X178648628Y-193000057D01*
X178505771Y-192928628D01*
X178434342Y-192857200D01*
X178362914Y-192714342D01*
X178362914Y-192571485D01*
X178434342Y-192428628D01*
X178505771Y-192357200D01*
X178648628Y-192285771D01*
X179005771Y-192285771D01*
X179220057Y-192357200D01*
X179862914Y-193785771D02*
X179862914Y-192785771D01*
X179862914Y-192285771D02*
X179791485Y-192357200D01*
X179862914Y-192428628D01*
X179934342Y-192357200D01*
X179862914Y-192285771D01*
X179862914Y-192428628D01*
X180434342Y-192785771D02*
X181220057Y-192785771D01*
X180434342Y-193785771D01*
X181220057Y-193785771D01*
X182362914Y-193714342D02*
X182220057Y-193785771D01*
X181934342Y-193785771D01*
X181791485Y-193714342D01*
X181720057Y-193571485D01*
X181720057Y-193000057D01*
X181791485Y-192857200D01*
X181934342Y-192785771D01*
X182220057Y-192785771D01*
X182362914Y-192857200D01*
X182434342Y-193000057D01*
X182434342Y-193142914D01*
X181720057Y-193285771D01*
X183077200Y-193642914D02*
X183148628Y-193714342D01*
X183077200Y-193785771D01*
X183005771Y-193714342D01*
X183077200Y-193642914D01*
X183077200Y-193785771D01*
X183077200Y-192857200D02*
X183148628Y-192928628D01*
X183077200Y-193000057D01*
X183005771Y-192928628D01*
X183077200Y-192857200D01*
X183077200Y-193000057D01*
X184862914Y-193357200D02*
X185577200Y-193357200D01*
X184720057Y-193785771D02*
X185220057Y-192285771D01*
X185720057Y-193785771D01*
X186862914Y-192785771D02*
X186862914Y-193785771D01*
X186505771Y-192214342D02*
X186148628Y-193285771D01*
X187077200Y-193285771D01*
D10*
D11*
X263434342Y-196585771D02*
X263434342Y-195085771D01*
X264791485Y-196585771D02*
X264791485Y-195085771D01*
X264791485Y-196514342D02*
X264648628Y-196585771D01*
X264362914Y-196585771D01*
X264220057Y-196514342D01*
X264148628Y-196442914D01*
X264077200Y-196300057D01*
X264077200Y-195871485D01*
X264148628Y-195728628D01*
X264220057Y-195657200D01*
X264362914Y-195585771D01*
X264648628Y-195585771D01*
X264791485Y-195657200D01*
X265505771Y-196442914D02*
X265577200Y-196514342D01*
X265505771Y-196585771D01*
X265434342Y-196514342D01*
X265505771Y-196442914D01*
X265505771Y-196585771D01*
X265505771Y-195657200D02*
X265577200Y-195728628D01*
X265505771Y-195800057D01*
X265434342Y-195728628D01*
X265505771Y-195657200D01*
X265505771Y-195800057D01*
X268148628Y-196585771D02*
X267291485Y-196585771D01*
X267720057Y-196585771D02*
X267720057Y-195085771D01*
X267577200Y-195300057D01*
X267434342Y-195442914D01*
X267291485Y-195514342D01*
X269862914Y-195014342D02*
X268577200Y-196942914D01*
X271148628Y-196585771D02*
X270291485Y-196585771D01*
X270720057Y-196585771D02*
X270720057Y-195085771D01*
X270577200Y-195300057D01*
X270434342Y-195442914D01*
X270291485Y-195514342D01*
D10*
D11*
X177002200Y-187507200D02*
X285002200Y-187507200D01*
D10*
D13*
X178714580Y-188211961D02*
X179857438Y-188211961D01*
X179036009Y-190211961D02*
X179286009Y-188211961D01*
X180274104Y-190211961D02*
X180440771Y-188878628D01*
X180524104Y-188211961D02*
X180416961Y-188307200D01*
X180500295Y-188402438D01*
X180607438Y-188307200D01*
X180524104Y-188211961D01*
X180500295Y-188402438D01*
X181107438Y-188878628D02*
X181869342Y-188878628D01*
X181476485Y-188211961D02*
X181262200Y-189926247D01*
X181333628Y-190116723D01*
X181512200Y-190211961D01*
X181702676Y-190211961D01*
X182655057Y-190211961D02*
X182476485Y-190116723D01*
X182405057Y-189926247D01*
X182619342Y-188211961D01*
X184190771Y-190116723D02*
X183988390Y-190211961D01*
X183607438Y-190211961D01*
X183428866Y-190116723D01*
X183357438Y-189926247D01*
X183452676Y-189164342D01*
X183571723Y-188973866D01*
X183774104Y-188878628D01*
X184155057Y-188878628D01*
X184333628Y-188973866D01*
X184405057Y-189164342D01*
X184381247Y-189354819D01*
X183405057Y-189545295D01*
X185155057Y-190021485D02*
X185238390Y-190116723D01*
X185131247Y-190211961D01*
X185047914Y-190116723D01*
X185155057Y-190021485D01*
X185131247Y-190211961D01*
X185286009Y-188973866D02*
X185369342Y-189069104D01*
X185262200Y-189164342D01*
X185178866Y-189069104D01*
X185286009Y-188973866D01*
X185262200Y-189164342D01*
D10*
D11*
X178934342Y-185600057D02*
X178434342Y-185600057D01*
X178434342Y-186385771D02*
X178434342Y-184885771D01*
X179148628Y-184885771D01*
X179720057Y-186385771D02*
X179720057Y-185385771D01*
X179720057Y-184885771D02*
X179648628Y-184957200D01*
X179720057Y-185028628D01*
X179791485Y-184957200D01*
X179720057Y-184885771D01*
X179720057Y-185028628D01*
X180648628Y-186385771D02*
X180505771Y-186314342D01*
X180434342Y-186171485D01*
X180434342Y-184885771D01*
X181791485Y-186314342D02*
X181648628Y-186385771D01*
X181362914Y-186385771D01*
X181220057Y-186314342D01*
X181148628Y-186171485D01*
X181148628Y-185600057D01*
X181220057Y-185457200D01*
X181362914Y-185385771D01*
X181648628Y-185385771D01*
X181791485Y-185457200D01*
X181862914Y-185600057D01*
X181862914Y-185742914D01*
X181148628Y-185885771D01*
X182505771Y-186242914D02*
X182577200Y-186314342D01*
X182505771Y-186385771D01*
X182434342Y-186314342D01*
X182505771Y-186242914D01*
X182505771Y-186385771D01*
X182505771Y-185457200D02*
X182577200Y-185528628D01*
X182505771Y-185600057D01*
X182434342Y-185528628D01*
X182505771Y-185457200D01*
X182505771Y-185600057D01*
X185005771Y-186314342D02*
X184862914Y-186385771D01*
X184577200Y-186385771D01*
X184434342Y-186314342D01*
X184362914Y-186242914D01*
X184291485Y-186100057D01*
X184291485Y-185671485D01*
X184362914Y-185528628D01*
X184434342Y-185457200D01*
X184577200Y-185385771D01*
X184862914Y-185385771D01*
X185005771Y-185457200D01*
X185862914Y-186385771D02*
X185720057Y-186314342D01*
X185648628Y-186242914D01*
X185577200Y-186100057D01*
X185577200Y-185671485D01*
X185648628Y-185528628D01*
X185720057Y-185457200D01*
X185862914Y-185385771D01*
X186077200Y-185385771D01*
X186220057Y-185457200D01*
X186291485Y-185528628D01*
X186362914Y-185671485D01*
X186362914Y-186100057D01*
X186291485Y-186242914D01*
X186220057Y-186314342D01*
X186077200Y-186385771D01*
X185862914Y-186385771D01*
X187005771Y-185385771D02*
X187005771Y-186385771D01*
X187005771Y-185528628D02*
X187077200Y-185457200D01*
X187220057Y-185385771D01*
X187434342Y-185385771D01*
X187577200Y-185457200D01*
X187648628Y-185600057D01*
X187648628Y-186385771D01*
X188148628Y-185385771D02*
X188720057Y-185385771D01*
X188362914Y-184885771D02*
X188362914Y-186171485D01*
X188434342Y-186314342D01*
X188577200Y-186385771D01*
X188720057Y-186385771D01*
X189220057Y-186385771D02*
X189220057Y-185385771D01*
X189220057Y-185671485D02*
X189291485Y-185528628D01*
X189362914Y-185457200D01*
X189505771Y-185385771D01*
X189648628Y-185385771D01*
X190362914Y-186385771D02*
X190220057Y-186314342D01*
X190148628Y-186242914D01*
X190077200Y-186100057D01*
X190077200Y-185671485D01*
X190148628Y-185528628D01*
X190220057Y-185457200D01*
X190362914Y-185385771D01*
X190577200Y-185385771D01*
X190720057Y-185457200D01*
X190791485Y-185528628D01*
X190862914Y-185671485D01*
X190862914Y-186100057D01*
X190791485Y-186242914D01*
X190720057Y-186314342D01*
X190577200Y-186385771D01*
X190362914Y-186385771D01*
X191720057Y-186385771D02*
X191577200Y-186314342D01*
X191505771Y-186171485D01*
X191505771Y-184885771D01*
X192505771Y-186385771D02*
X192362914Y-186314342D01*
X192291485Y-186171485D01*
X192291485Y-184885771D01*
X193648628Y-186314342D02*
X193505771Y-186385771D01*
X193220057Y-186385771D01*
X193077200Y-186314342D01*
X193005771Y-186171485D01*
X193005771Y-185600057D01*
X193077200Y-185457200D01*
X193220057Y-185385771D01*
X193505771Y-185385771D01*
X193648628Y-185457200D01*
X193720057Y-185600057D01*
X193720057Y-185742914D01*
X193005771Y-185885771D01*
X194362914Y-186385771D02*
X194362914Y-185385771D01*
X194362914Y-185671485D02*
X194434342Y-185528628D01*
X194505771Y-185457200D01*
X194648628Y-185385771D01*
X194791485Y-185385771D01*
X195291485Y-186242914D02*
X195362914Y-186314342D01*
X195291485Y-186385771D01*
X195220057Y-186314342D01*
X195291485Y-186242914D01*
X195291485Y-186385771D01*
X196005771Y-186385771D02*
X196005771Y-184885771D01*
X196148628Y-185814342D02*
X196577200Y-186385771D01*
X196577200Y-185385771D02*
X196005771Y-185957200D01*
X197220057Y-186385771D02*
X197220057Y-185385771D01*
X197220057Y-184885771D02*
X197148628Y-184957200D01*
X197220057Y-185028628D01*
X197291485Y-184957200D01*
X197220057Y-184885771D01*
X197220057Y-185028628D01*
X198577200Y-186314342D02*
X198434342Y-186385771D01*
X198148628Y-186385771D01*
X198005771Y-186314342D01*
X197934342Y-186242914D01*
X197862914Y-186100057D01*
X197862914Y-185671485D01*
X197934342Y-185528628D01*
X198005771Y-185457200D01*
X198148628Y-185385771D01*
X198434342Y-185385771D01*
X198577200Y-185457200D01*
X199862914Y-186385771D02*
X199862914Y-185600057D01*
X199791485Y-185457200D01*
X199648628Y-185385771D01*
X199362914Y-185385771D01*
X199220057Y-185457200D01*
X199862914Y-186314342D02*
X199720057Y-186385771D01*
X199362914Y-186385771D01*
X199220057Y-186314342D01*
X199148628Y-186171485D01*
X199148628Y-186028628D01*
X199220057Y-185885771D01*
X199362914Y-185814342D01*
X199720057Y-185814342D01*
X199862914Y-185742914D01*
X201220057Y-186385771D02*
X201220057Y-184885771D01*
X201220057Y-186314342D02*
X201077200Y-186385771D01*
X200791485Y-186385771D01*
X200648628Y-186314342D01*
X200577200Y-186242914D01*
X200505771Y-186100057D01*
X200505771Y-185671485D01*
X200577200Y-185528628D01*
X200648628Y-185457200D01*
X200791485Y-185385771D01*
X201077200Y-185385771D01*
X201220057Y-185457200D01*
X201577200Y-186528628D02*
X202720057Y-186528628D01*
X203077200Y-185385771D02*
X203077200Y-186885771D01*
X203077200Y-185457200D02*
X203220057Y-185385771D01*
X203505771Y-185385771D01*
X203648628Y-185457200D01*
X203720057Y-185528628D01*
X203791485Y-185671485D01*
X203791485Y-186100057D01*
X203720057Y-186242914D01*
X203648628Y-186314342D01*
X203505771Y-186385771D01*
X203220057Y-186385771D01*
X203077200Y-186314342D01*
X205077200Y-186314342D02*
X204934342Y-186385771D01*
X204648628Y-186385771D01*
X204505771Y-186314342D01*
X204434342Y-186242914D01*
X204362914Y-186100057D01*
X204362914Y-185671485D01*
X204434342Y-185528628D01*
X204505771Y-185457200D01*
X204648628Y-185385771D01*
X204934342Y-185385771D01*
X205077200Y-185457200D01*
X205720057Y-186385771D02*
X205720057Y-184885771D01*
X205720057Y-185457200D02*
X205862914Y-185385771D01*
X206148628Y-185385771D01*
X206291485Y-185457200D01*
X206362914Y-185528628D01*
X206434342Y-185671485D01*
X206434342Y-186100057D01*
X206362914Y-186242914D01*
X206291485Y-186314342D01*
X206148628Y-186385771D01*
X205862914Y-186385771D01*
X205720057Y-186314342D01*
D10*
D11*
X177002200Y-181507200D02*
X285002200Y-181507200D01*
D10*
D11*
X178362914Y-183614342D02*
X178577200Y-183685771D01*
X178934342Y-183685771D01*
X179077200Y-183614342D01*
X179148628Y-183542914D01*
X179220057Y-183400057D01*
X179220057Y-183257200D01*
X179148628Y-183114342D01*
X179077200Y-183042914D01*
X178934342Y-182971485D01*
X178648628Y-182900057D01*
X178505771Y-182828628D01*
X178434342Y-182757200D01*
X178362914Y-182614342D01*
X178362914Y-182471485D01*
X178434342Y-182328628D01*
X178505771Y-182257200D01*
X178648628Y-182185771D01*
X179005771Y-182185771D01*
X179220057Y-182257200D01*
X179862914Y-183685771D02*
X179862914Y-182185771D01*
X180505771Y-183685771D02*
X180505771Y-182900057D01*
X180434342Y-182757200D01*
X180291485Y-182685771D01*
X180077200Y-182685771D01*
X179934342Y-182757200D01*
X179862914Y-182828628D01*
X181791485Y-183614342D02*
X181648628Y-183685771D01*
X181362914Y-183685771D01*
X181220057Y-183614342D01*
X181148628Y-183471485D01*
X181148628Y-182900057D01*
X181220057Y-182757200D01*
X181362914Y-182685771D01*
X181648628Y-182685771D01*
X181791485Y-182757200D01*
X181862914Y-182900057D01*
X181862914Y-183042914D01*
X181148628Y-183185771D01*
X183077200Y-183614342D02*
X182934342Y-183685771D01*
X182648628Y-183685771D01*
X182505771Y-183614342D01*
X182434342Y-183471485D01*
X182434342Y-182900057D01*
X182505771Y-182757200D01*
X182648628Y-182685771D01*
X182934342Y-182685771D01*
X183077200Y-182757200D01*
X183148628Y-182900057D01*
X183148628Y-183042914D01*
X182434342Y-183185771D01*
X183577200Y-182685771D02*
X184148628Y-182685771D01*
X183791485Y-182185771D02*
X183791485Y-183471485D01*
X183862914Y-183614342D01*
X184005771Y-183685771D01*
X184148628Y-183685771D01*
X184648628Y-183542914D02*
X184720057Y-183614342D01*
X184648628Y-183685771D01*
X184577200Y-183614342D01*
X184648628Y-183542914D01*
X184648628Y-183685771D01*
X184648628Y-182757200D02*
X184720057Y-182828628D01*
X184648628Y-182900057D01*
X184577200Y-182828628D01*
X184648628Y-182757200D01*
X184648628Y-182900057D01*
D10*
D11*
X197002200Y-191507200D02*
X197002200Y-194507200D01*
D10*
D11*
X261002200Y-191507200D02*
X261002200Y-198007200D01*
D10*
X171874523Y-89764285D02*
X171112619Y-89764285D01*
X171493571Y-90373809D02*
X171493571Y-89154761D01*
X170160238Y-88773809D02*
X170636428Y-88773809D01*
X170684047Y-89535714D01*
X170636428Y-89459523D01*
X170541190Y-89383333D01*
X170303095Y-89383333D01*
X170207857Y-89459523D01*
X170160238Y-89535714D01*
X170112619Y-89688095D01*
X170112619Y-90069047D01*
X170160238Y-90221428D01*
X170207857Y-90297619D01*
X170303095Y-90373809D01*
X170541190Y-90373809D01*
X170636428Y-90297619D01*
X170684047Y-90221428D01*
X169826904Y-88773809D02*
X169493571Y-90373809D01*
X169160238Y-88773809D01*
X171398333Y-92873809D02*
X171398333Y-91273809D01*
X170207857Y-91197619D02*
X171065000Y-93254761D01*
X169684047Y-91273809D02*
X169493571Y-91273809D01*
X169398333Y-91350000D01*
X169303095Y-91502380D01*
X169255476Y-91807142D01*
X169255476Y-92340476D01*
X169303095Y-92645238D01*
X169398333Y-92797619D01*
X169493571Y-92873809D01*
X169684047Y-92873809D01*
X169779285Y-92797619D01*
X169874523Y-92645238D01*
X169922142Y-92340476D01*
X169922142Y-91807142D01*
X169874523Y-91502380D01*
X169779285Y-91350000D01*
X169684047Y-91273809D01*
X172112619Y-95373809D02*
X172112619Y-93773809D01*
X171731666Y-93773809D01*
X171636428Y-93850000D01*
X171588809Y-93926190D01*
X171541190Y-94078571D01*
X171541190Y-94307142D01*
X171588809Y-94459523D01*
X171636428Y-94535714D01*
X171731666Y-94611904D01*
X172112619Y-94611904D01*
X171207857Y-93773809D02*
X170969761Y-95373809D01*
X170779285Y-94230952D01*
X170588809Y-95373809D01*
X170350714Y-93773809D01*
X169969761Y-95373809D02*
X169969761Y-93773809D01*
X169636428Y-94916666D01*
X169303095Y-93773809D01*
X169303095Y-95373809D01*
X170445952Y-96273809D02*
X170350714Y-96273809D01*
X170255476Y-96350000D01*
X170207857Y-96426190D01*
X170160238Y-96578571D01*
X170112619Y-96883333D01*
X170112619Y-97264285D01*
X170160238Y-97569047D01*
X170207857Y-97721428D01*
X170255476Y-97797619D01*
X170350714Y-97873809D01*
X170445952Y-97873809D01*
X170541190Y-97797619D01*
X170588809Y-97721428D01*
X170636428Y-97569047D01*
X170684047Y-97264285D01*
X170684047Y-96883333D01*
X170636428Y-96578571D01*
X170588809Y-96426190D01*
X170541190Y-96350000D01*
X170445952Y-96273809D01*
X169826904Y-96273809D02*
X169493571Y-97873809D01*
X169160238Y-96273809D01*
X176655476Y-114635714D02*
X177265000Y-114635714D01*
X176960238Y-114026190D02*
X176960238Y-115245238D01*
X178026904Y-115626190D02*
X177645952Y-115626190D01*
X177607857Y-114864285D01*
X177645952Y-114940476D01*
X177722142Y-115016666D01*
X177912619Y-115016666D01*
X177988809Y-114940476D01*
X178026904Y-114864285D01*
X178065000Y-114711904D01*
X178065000Y-114330952D01*
X178026904Y-114178571D01*
X177988809Y-114102380D01*
X177912619Y-114026190D01*
X177722142Y-114026190D01*
X177645952Y-114102380D01*
X177607857Y-114178571D01*
X178293571Y-115626190D02*
X178560238Y-114026190D01*
X178826904Y-115626190D01*
X176807857Y-113126190D02*
X176884047Y-113126190D01*
X176960238Y-113050000D01*
X176998333Y-112973809D01*
X177036428Y-112821428D01*
X177074523Y-112516666D01*
X177074523Y-112135714D01*
X177036428Y-111830952D01*
X176998333Y-111678571D01*
X176960238Y-111602380D01*
X176884047Y-111526190D01*
X176807857Y-111526190D01*
X176731666Y-111602380D01*
X176693571Y-111678571D01*
X176655476Y-111830952D01*
X176617380Y-112135714D01*
X176617380Y-112516666D01*
X176655476Y-112821428D01*
X176693571Y-112973809D01*
X176731666Y-113050000D01*
X176807857Y-113126190D01*
X177303095Y-113126190D02*
X177569761Y-111526190D01*
X177836428Y-113126190D01*
X176617380Y-109102380D02*
X176731666Y-109026190D01*
X176922142Y-109026190D01*
X176998333Y-109102380D01*
X177036428Y-109178571D01*
X177074523Y-109330952D01*
X177074523Y-109483333D01*
X177036428Y-109635714D01*
X176998333Y-109711904D01*
X176922142Y-109788095D01*
X176769761Y-109864285D01*
X176693571Y-109940476D01*
X176655476Y-110016666D01*
X176617380Y-110169047D01*
X176617380Y-110321428D01*
X176655476Y-110473809D01*
X176693571Y-110550000D01*
X176769761Y-110626190D01*
X176960238Y-110626190D01*
X177074523Y-110550000D01*
X177417380Y-109026190D02*
X177417380Y-110626190D01*
X177607857Y-110626190D01*
X177722142Y-110550000D01*
X177798333Y-110397619D01*
X177836428Y-110245238D01*
X177874523Y-109940476D01*
X177874523Y-109711904D01*
X177836428Y-109407142D01*
X177798333Y-109254761D01*
X177722142Y-109102380D01*
X177607857Y-109026190D01*
X177417380Y-109026190D01*
X178179285Y-109483333D02*
X178560238Y-109483333D01*
X178103095Y-109026190D02*
X178369761Y-110626190D01*
X178636428Y-109026190D01*
X178903095Y-109635714D02*
X179512619Y-109635714D01*
X179207857Y-109026190D02*
X179207857Y-110245238D01*
X176617380Y-106602380D02*
X176731666Y-106526190D01*
X176922142Y-106526190D01*
X176998333Y-106602380D01*
X177036428Y-106678571D01*
X177074523Y-106830952D01*
X177074523Y-106983333D01*
X177036428Y-107135714D01*
X176998333Y-107211904D01*
X176922142Y-107288095D01*
X176769761Y-107364285D01*
X176693571Y-107440476D01*
X176655476Y-107516666D01*
X176617380Y-107669047D01*
X176617380Y-107821428D01*
X176655476Y-107973809D01*
X176693571Y-108050000D01*
X176769761Y-108126190D01*
X176960238Y-108126190D01*
X177074523Y-108050000D01*
X177417380Y-106526190D02*
X177417380Y-108126190D01*
X177607857Y-108126190D01*
X177722142Y-108050000D01*
X177798333Y-107897619D01*
X177836428Y-107745238D01*
X177874523Y-107440476D01*
X177874523Y-107211904D01*
X177836428Y-106907142D01*
X177798333Y-106754761D01*
X177722142Y-106602380D01*
X177607857Y-106526190D01*
X177417380Y-106526190D01*
X178179285Y-106983333D02*
X178560238Y-106983333D01*
X178103095Y-106526190D02*
X178369761Y-108126190D01*
X178636428Y-106526190D01*
X178903095Y-107135714D02*
X179512619Y-107135714D01*
X176617380Y-104102380D02*
X176731666Y-104026190D01*
X176922142Y-104026190D01*
X176998333Y-104102380D01*
X177036428Y-104178571D01*
X177074523Y-104330952D01*
X177074523Y-104483333D01*
X177036428Y-104635714D01*
X176998333Y-104711904D01*
X176922142Y-104788095D01*
X176769761Y-104864285D01*
X176693571Y-104940476D01*
X176655476Y-105016666D01*
X176617380Y-105169047D01*
X176617380Y-105321428D01*
X176655476Y-105473809D01*
X176693571Y-105550000D01*
X176769761Y-105626190D01*
X176960238Y-105626190D01*
X177074523Y-105550000D01*
X177874523Y-104178571D02*
X177836428Y-104102380D01*
X177722142Y-104026190D01*
X177645952Y-104026190D01*
X177531666Y-104102380D01*
X177455476Y-104254761D01*
X177417380Y-104407142D01*
X177379285Y-104711904D01*
X177379285Y-104940476D01*
X177417380Y-105245238D01*
X177455476Y-105397619D01*
X177531666Y-105550000D01*
X177645952Y-105626190D01*
X177722142Y-105626190D01*
X177836428Y-105550000D01*
X177874523Y-105473809D01*
X178598333Y-104026190D02*
X178217380Y-104026190D01*
X178217380Y-105626190D01*
X178865000Y-104635714D02*
X179474523Y-104635714D01*
X179169761Y-104026190D02*
X179169761Y-105245238D01*
X176617380Y-101602380D02*
X176731666Y-101526190D01*
X176922142Y-101526190D01*
X176998333Y-101602380D01*
X177036428Y-101678571D01*
X177074523Y-101830952D01*
X177074523Y-101983333D01*
X177036428Y-102135714D01*
X176998333Y-102211904D01*
X176922142Y-102288095D01*
X176769761Y-102364285D01*
X176693571Y-102440476D01*
X176655476Y-102516666D01*
X176617380Y-102669047D01*
X176617380Y-102821428D01*
X176655476Y-102973809D01*
X176693571Y-103050000D01*
X176769761Y-103126190D01*
X176960238Y-103126190D01*
X177074523Y-103050000D01*
X177874523Y-101678571D02*
X177836428Y-101602380D01*
X177722142Y-101526190D01*
X177645952Y-101526190D01*
X177531666Y-101602380D01*
X177455476Y-101754761D01*
X177417380Y-101907142D01*
X177379285Y-102211904D01*
X177379285Y-102440476D01*
X177417380Y-102745238D01*
X177455476Y-102897619D01*
X177531666Y-103050000D01*
X177645952Y-103126190D01*
X177722142Y-103126190D01*
X177836428Y-103050000D01*
X177874523Y-102973809D01*
X178598333Y-101526190D02*
X178217380Y-101526190D01*
X178217380Y-103126190D01*
X178865000Y-102135714D02*
X179474523Y-102135714D01*
X133144523Y-102464285D02*
X132535000Y-102464285D01*
X132839761Y-103073809D02*
X132839761Y-101854761D01*
X131773095Y-101473809D02*
X132154047Y-101473809D01*
X132192142Y-102235714D01*
X132154047Y-102159523D01*
X132077857Y-102083333D01*
X131887380Y-102083333D01*
X131811190Y-102159523D01*
X131773095Y-102235714D01*
X131735000Y-102388095D01*
X131735000Y-102769047D01*
X131773095Y-102921428D01*
X131811190Y-102997619D01*
X131887380Y-103073809D01*
X132077857Y-103073809D01*
X132154047Y-102997619D01*
X132192142Y-102921428D01*
X131506428Y-101473809D02*
X131239761Y-103073809D01*
X130973095Y-101473809D01*
X132992142Y-103973809D02*
X132915952Y-103973809D01*
X132839761Y-104050000D01*
X132801666Y-104126190D01*
X132763571Y-104278571D01*
X132725476Y-104583333D01*
X132725476Y-104964285D01*
X132763571Y-105269047D01*
X132801666Y-105421428D01*
X132839761Y-105497619D01*
X132915952Y-105573809D01*
X132992142Y-105573809D01*
X133068333Y-105497619D01*
X133106428Y-105421428D01*
X133144523Y-105269047D01*
X133182619Y-104964285D01*
X133182619Y-104583333D01*
X133144523Y-104278571D01*
X133106428Y-104126190D01*
X133068333Y-104050000D01*
X132992142Y-103973809D01*
X132496904Y-103973809D02*
X132230238Y-105573809D01*
X131963571Y-103973809D01*
X133182619Y-107997619D02*
X133068333Y-108073809D01*
X132877857Y-108073809D01*
X132801666Y-107997619D01*
X132763571Y-107921428D01*
X132725476Y-107769047D01*
X132725476Y-107616666D01*
X132763571Y-107464285D01*
X132801666Y-107388095D01*
X132877857Y-107311904D01*
X133030238Y-107235714D01*
X133106428Y-107159523D01*
X133144523Y-107083333D01*
X133182619Y-106930952D01*
X133182619Y-106778571D01*
X133144523Y-106626190D01*
X133106428Y-106550000D01*
X133030238Y-106473809D01*
X132839761Y-106473809D01*
X132725476Y-106550000D01*
X132382619Y-108073809D02*
X132382619Y-106473809D01*
X132192142Y-106473809D01*
X132077857Y-106550000D01*
X132001666Y-106702380D01*
X131963571Y-106854761D01*
X131925476Y-107159523D01*
X131925476Y-107388095D01*
X131963571Y-107692857D01*
X132001666Y-107845238D01*
X132077857Y-107997619D01*
X132192142Y-108073809D01*
X132382619Y-108073809D01*
X131620714Y-107616666D02*
X131239761Y-107616666D01*
X131696904Y-108073809D02*
X131430238Y-106473809D01*
X131163571Y-108073809D01*
X130896904Y-107464285D02*
X130287380Y-107464285D01*
X130592142Y-108073809D02*
X130592142Y-106854761D01*
X133182619Y-110497619D02*
X133068333Y-110573809D01*
X132877857Y-110573809D01*
X132801666Y-110497619D01*
X132763571Y-110421428D01*
X132725476Y-110269047D01*
X132725476Y-110116666D01*
X132763571Y-109964285D01*
X132801666Y-109888095D01*
X132877857Y-109811904D01*
X133030238Y-109735714D01*
X133106428Y-109659523D01*
X133144523Y-109583333D01*
X133182619Y-109430952D01*
X133182619Y-109278571D01*
X133144523Y-109126190D01*
X133106428Y-109050000D01*
X133030238Y-108973809D01*
X132839761Y-108973809D01*
X132725476Y-109050000D01*
X132382619Y-110573809D02*
X132382619Y-108973809D01*
X132192142Y-108973809D01*
X132077857Y-109050000D01*
X132001666Y-109202380D01*
X131963571Y-109354761D01*
X131925476Y-109659523D01*
X131925476Y-109888095D01*
X131963571Y-110192857D01*
X132001666Y-110345238D01*
X132077857Y-110497619D01*
X132192142Y-110573809D01*
X132382619Y-110573809D01*
X131620714Y-110116666D02*
X131239761Y-110116666D01*
X131696904Y-110573809D02*
X131430238Y-108973809D01*
X131163571Y-110573809D01*
X130896904Y-109964285D02*
X130287380Y-109964285D01*
X133182619Y-112997619D02*
X133068333Y-113073809D01*
X132877857Y-113073809D01*
X132801666Y-112997619D01*
X132763571Y-112921428D01*
X132725476Y-112769047D01*
X132725476Y-112616666D01*
X132763571Y-112464285D01*
X132801666Y-112388095D01*
X132877857Y-112311904D01*
X133030238Y-112235714D01*
X133106428Y-112159523D01*
X133144523Y-112083333D01*
X133182619Y-111930952D01*
X133182619Y-111778571D01*
X133144523Y-111626190D01*
X133106428Y-111550000D01*
X133030238Y-111473809D01*
X132839761Y-111473809D01*
X132725476Y-111550000D01*
X131925476Y-112921428D02*
X131963571Y-112997619D01*
X132077857Y-113073809D01*
X132154047Y-113073809D01*
X132268333Y-112997619D01*
X132344523Y-112845238D01*
X132382619Y-112692857D01*
X132420714Y-112388095D01*
X132420714Y-112159523D01*
X132382619Y-111854761D01*
X132344523Y-111702380D01*
X132268333Y-111550000D01*
X132154047Y-111473809D01*
X132077857Y-111473809D01*
X131963571Y-111550000D01*
X131925476Y-111626190D01*
X131201666Y-113073809D02*
X131582619Y-113073809D01*
X131582619Y-111473809D01*
X130935000Y-112464285D02*
X130325476Y-112464285D01*
X130630238Y-113073809D02*
X130630238Y-111854761D01*
X133182619Y-115497619D02*
X133068333Y-115573809D01*
X132877857Y-115573809D01*
X132801666Y-115497619D01*
X132763571Y-115421428D01*
X132725476Y-115269047D01*
X132725476Y-115116666D01*
X132763571Y-114964285D01*
X132801666Y-114888095D01*
X132877857Y-114811904D01*
X133030238Y-114735714D01*
X133106428Y-114659523D01*
X133144523Y-114583333D01*
X133182619Y-114430952D01*
X133182619Y-114278571D01*
X133144523Y-114126190D01*
X133106428Y-114050000D01*
X133030238Y-113973809D01*
X132839761Y-113973809D01*
X132725476Y-114050000D01*
X131925476Y-115421428D02*
X131963571Y-115497619D01*
X132077857Y-115573809D01*
X132154047Y-115573809D01*
X132268333Y-115497619D01*
X132344523Y-115345238D01*
X132382619Y-115192857D01*
X132420714Y-114888095D01*
X132420714Y-114659523D01*
X132382619Y-114354761D01*
X132344523Y-114202380D01*
X132268333Y-114050000D01*
X132154047Y-113973809D01*
X132077857Y-113973809D01*
X131963571Y-114050000D01*
X131925476Y-114126190D01*
X131201666Y-115573809D02*
X131582619Y-115573809D01*
X131582619Y-113973809D01*
X130935000Y-114964285D02*
X130325476Y-114964285D01*
X176803095Y-97135714D02*
X177565000Y-97135714D01*
X177184047Y-96526190D02*
X177184047Y-97745238D01*
X178517380Y-98126190D02*
X178041190Y-98126190D01*
X177993571Y-97364285D01*
X178041190Y-97440476D01*
X178136428Y-97516666D01*
X178374523Y-97516666D01*
X178469761Y-97440476D01*
X178517380Y-97364285D01*
X178565000Y-97211904D01*
X178565000Y-96830952D01*
X178517380Y-96678571D01*
X178469761Y-96602380D01*
X178374523Y-96526190D01*
X178136428Y-96526190D01*
X178041190Y-96602380D01*
X177993571Y-96678571D01*
X178850714Y-98126190D02*
X179184047Y-96526190D01*
X179517380Y-98126190D01*
X176993571Y-95626190D02*
X177088809Y-95626190D01*
X177184047Y-95550000D01*
X177231666Y-95473809D01*
X177279285Y-95321428D01*
X177326904Y-95016666D01*
X177326904Y-94635714D01*
X177279285Y-94330952D01*
X177231666Y-94178571D01*
X177184047Y-94102380D01*
X177088809Y-94026190D01*
X176993571Y-94026190D01*
X176898333Y-94102380D01*
X176850714Y-94178571D01*
X176803095Y-94330952D01*
X176755476Y-94635714D01*
X176755476Y-95016666D01*
X176803095Y-95321428D01*
X176850714Y-95473809D01*
X176898333Y-95550000D01*
X176993571Y-95626190D01*
X177612619Y-95626190D02*
X177945952Y-94026190D01*
X178279285Y-95626190D01*
X176803095Y-91526190D02*
X176803095Y-93126190D01*
X176803095Y-92364285D02*
X177374523Y-92364285D01*
X177374523Y-91526190D02*
X177374523Y-93126190D01*
X177850714Y-91526190D02*
X177850714Y-93126190D01*
X178326904Y-92135714D02*
X179088809Y-92135714D01*
X178707857Y-91526190D02*
X178707857Y-92745238D01*
X176803095Y-89026190D02*
X176803095Y-90626190D01*
X176803095Y-89864285D02*
X177374523Y-89864285D01*
X177374523Y-89026190D02*
X177374523Y-90626190D01*
X177850714Y-89026190D02*
X177850714Y-90626190D01*
X178326904Y-89635714D02*
X179088809Y-89635714D01*
X177279285Y-86526190D02*
X176803095Y-86526190D01*
X176803095Y-88126190D01*
X177803095Y-88126190D02*
X177993571Y-88126190D01*
X178088809Y-88050000D01*
X178184047Y-87897619D01*
X178231666Y-87592857D01*
X178231666Y-87059523D01*
X178184047Y-86754761D01*
X178088809Y-86602380D01*
X177993571Y-86526190D01*
X177803095Y-86526190D01*
X177707857Y-86602380D01*
X177612619Y-86754761D01*
X177565000Y-87059523D01*
X177565000Y-87592857D01*
X177612619Y-87897619D01*
X177707857Y-88050000D01*
X177803095Y-88126190D01*
X178660238Y-87135714D02*
X179422142Y-87135714D01*
X179041190Y-86526190D02*
X179041190Y-87745238D01*
X177279285Y-84026190D02*
X176803095Y-84026190D01*
X176803095Y-85626190D01*
X177803095Y-85626190D02*
X177993571Y-85626190D01*
X178088809Y-85550000D01*
X178184047Y-85397619D01*
X178231666Y-85092857D01*
X178231666Y-84559523D01*
X178184047Y-84254761D01*
X178088809Y-84102380D01*
X177993571Y-84026190D01*
X177803095Y-84026190D01*
X177707857Y-84102380D01*
X177612619Y-84254761D01*
X177565000Y-84559523D01*
X177565000Y-85092857D01*
X177612619Y-85397619D01*
X177707857Y-85550000D01*
X177803095Y-85626190D01*
X178660238Y-84635714D02*
X179422142Y-84635714D01*
X133296904Y-85164285D02*
X132535000Y-85164285D01*
X132915952Y-85773809D02*
X132915952Y-84554761D01*
X131582619Y-84173809D02*
X132058809Y-84173809D01*
X132106428Y-84935714D01*
X132058809Y-84859523D01*
X131963571Y-84783333D01*
X131725476Y-84783333D01*
X131630238Y-84859523D01*
X131582619Y-84935714D01*
X131535000Y-85088095D01*
X131535000Y-85469047D01*
X131582619Y-85621428D01*
X131630238Y-85697619D01*
X131725476Y-85773809D01*
X131963571Y-85773809D01*
X132058809Y-85697619D01*
X132106428Y-85621428D01*
X131249285Y-84173809D02*
X130915952Y-85773809D01*
X130582619Y-84173809D01*
X133106428Y-86673809D02*
X133011190Y-86673809D01*
X132915952Y-86750000D01*
X132868333Y-86826190D01*
X132820714Y-86978571D01*
X132773095Y-87283333D01*
X132773095Y-87664285D01*
X132820714Y-87969047D01*
X132868333Y-88121428D01*
X132915952Y-88197619D01*
X133011190Y-88273809D01*
X133106428Y-88273809D01*
X133201666Y-88197619D01*
X133249285Y-88121428D01*
X133296904Y-87969047D01*
X133344523Y-87664285D01*
X133344523Y-87283333D01*
X133296904Y-86978571D01*
X133249285Y-86826190D01*
X133201666Y-86750000D01*
X133106428Y-86673809D01*
X132487380Y-86673809D02*
X132154047Y-88273809D01*
X131820714Y-86673809D01*
X133296904Y-90773809D02*
X133296904Y-89173809D01*
X133296904Y-89935714D02*
X132725476Y-89935714D01*
X132725476Y-90773809D02*
X132725476Y-89173809D01*
X132249285Y-90773809D02*
X132249285Y-89173809D01*
X131773095Y-90164285D02*
X131011190Y-90164285D01*
X131392142Y-90773809D02*
X131392142Y-89554761D01*
X133296904Y-93273809D02*
X133296904Y-91673809D01*
X133296904Y-92435714D02*
X132725476Y-92435714D01*
X132725476Y-93273809D02*
X132725476Y-91673809D01*
X132249285Y-93273809D02*
X132249285Y-91673809D01*
X131773095Y-92664285D02*
X131011190Y-92664285D01*
X132820714Y-95773809D02*
X133296904Y-95773809D01*
X133296904Y-94173809D01*
X132296904Y-94173809D02*
X132106428Y-94173809D01*
X132011190Y-94250000D01*
X131915952Y-94402380D01*
X131868333Y-94707142D01*
X131868333Y-95240476D01*
X131915952Y-95545238D01*
X132011190Y-95697619D01*
X132106428Y-95773809D01*
X132296904Y-95773809D01*
X132392142Y-95697619D01*
X132487380Y-95545238D01*
X132535000Y-95240476D01*
X132535000Y-94707142D01*
X132487380Y-94402380D01*
X132392142Y-94250000D01*
X132296904Y-94173809D01*
X131439761Y-95164285D02*
X130677857Y-95164285D01*
X131058809Y-95773809D02*
X131058809Y-94554761D01*
X132820714Y-98273809D02*
X133296904Y-98273809D01*
X133296904Y-96673809D01*
X132296904Y-96673809D02*
X132106428Y-96673809D01*
X132011190Y-96750000D01*
X131915952Y-96902380D01*
X131868333Y-97207142D01*
X131868333Y-97740476D01*
X131915952Y-98045238D01*
X132011190Y-98197619D01*
X132106428Y-98273809D01*
X132296904Y-98273809D01*
X132392142Y-98197619D01*
X132487380Y-98045238D01*
X132535000Y-97740476D01*
X132535000Y-97207142D01*
X132487380Y-96902380D01*
X132392142Y-96750000D01*
X132296904Y-96673809D01*
X131439761Y-97664285D02*
X130677857Y-97664285D01*
D14*
X168947023Y-76062761D02*
X168804166Y-76110380D01*
X168566071Y-76110380D01*
X168470833Y-76062761D01*
X168423214Y-76015142D01*
X168375595Y-75919904D01*
X168375595Y-75824666D01*
X168423214Y-75729428D01*
X168470833Y-75681809D01*
X168566071Y-75634190D01*
X168756547Y-75586571D01*
X168851785Y-75538952D01*
X168899404Y-75491333D01*
X168947023Y-75396095D01*
X168947023Y-75300857D01*
X168899404Y-75205619D01*
X168851785Y-75158000D01*
X168756547Y-75110380D01*
X168518452Y-75110380D01*
X168375595Y-75158000D01*
X167947023Y-76110380D02*
X167947023Y-75443714D01*
X167947023Y-75538952D02*
X167899404Y-75491333D01*
X167804166Y-75443714D01*
X167661309Y-75443714D01*
X167566071Y-75491333D01*
X167518452Y-75586571D01*
X167518452Y-76110380D01*
X167518452Y-75586571D02*
X167470833Y-75491333D01*
X167375595Y-75443714D01*
X167232738Y-75443714D01*
X167137500Y-75491333D01*
X167089880Y-75586571D01*
X167089880Y-76110380D01*
X166185119Y-76110380D02*
X166185119Y-75586571D01*
X166232738Y-75491333D01*
X166327976Y-75443714D01*
X166518452Y-75443714D01*
X166613690Y-75491333D01*
X166185119Y-76062761D02*
X166280357Y-76110380D01*
X166518452Y-76110380D01*
X166613690Y-76062761D01*
X166661309Y-75967523D01*
X166661309Y-75872285D01*
X166613690Y-75777047D01*
X166518452Y-75729428D01*
X166280357Y-75729428D01*
X166185119Y-75681809D01*
X165708928Y-76110380D02*
X165708928Y-75443714D01*
X165708928Y-75634190D02*
X165661309Y-75538952D01*
X165613690Y-75491333D01*
X165518452Y-75443714D01*
X165423214Y-75443714D01*
X165232738Y-75443714D02*
X164851785Y-75443714D01*
X165089880Y-75110380D02*
X165089880Y-75967523D01*
X165042261Y-76062761D01*
X164947023Y-76110380D01*
X164851785Y-76110380D01*
X163804166Y-76062761D02*
X163661309Y-76110380D01*
X163423214Y-76110380D01*
X163327976Y-76062761D01*
X163280357Y-76015142D01*
X163232738Y-75919904D01*
X163232738Y-75824666D01*
X163280357Y-75729428D01*
X163327976Y-75681809D01*
X163423214Y-75634190D01*
X163613690Y-75586571D01*
X163708928Y-75538952D01*
X163756547Y-75491333D01*
X163804166Y-75396095D01*
X163804166Y-75300857D01*
X163756547Y-75205619D01*
X163708928Y-75158000D01*
X163613690Y-75110380D01*
X163375595Y-75110380D01*
X163232738Y-75158000D01*
X162899404Y-75443714D02*
X162708928Y-76110380D01*
X162518452Y-75634190D01*
X162327976Y-76110380D01*
X162137500Y-75443714D01*
X161756547Y-76110380D02*
X161756547Y-75443714D01*
X161756547Y-75110380D02*
X161804166Y-75158000D01*
X161756547Y-75205619D01*
X161708928Y-75158000D01*
X161756547Y-75110380D01*
X161756547Y-75205619D01*
X161423214Y-75443714D02*
X161042261Y-75443714D01*
X161280357Y-75110380D02*
X161280357Y-75967523D01*
X161232738Y-76062761D01*
X161137500Y-76110380D01*
X161042261Y-76110380D01*
X160280357Y-76062761D02*
X160375595Y-76110380D01*
X160566071Y-76110380D01*
X160661309Y-76062761D01*
X160708928Y-76015142D01*
X160756547Y-75919904D01*
X160756547Y-75634190D01*
X160708928Y-75538952D01*
X160661309Y-75491333D01*
X160566071Y-75443714D01*
X160375595Y-75443714D01*
X160280357Y-75491333D01*
X159851785Y-76110380D02*
X159851785Y-75110380D01*
X159423214Y-76110380D02*
X159423214Y-75586571D01*
X159470833Y-75491333D01*
X159566071Y-75443714D01*
X159708928Y-75443714D01*
X159804166Y-75491333D01*
X159851785Y-75538952D01*
X158947023Y-75729428D02*
X158185119Y-75729428D01*
X157708928Y-76110380D02*
X157708928Y-75110380D01*
X157375595Y-75824666D01*
X157042261Y-75110380D01*
X157042261Y-76110380D01*
X156423214Y-76110380D02*
X156518452Y-76062761D01*
X156566071Y-76015142D01*
X156613690Y-75919904D01*
X156613690Y-75634190D01*
X156566071Y-75538952D01*
X156518452Y-75491333D01*
X156423214Y-75443714D01*
X156280357Y-75443714D01*
X156185119Y-75491333D01*
X156137500Y-75538952D01*
X156089880Y-75634190D01*
X156089880Y-75919904D01*
X156137500Y-76015142D01*
X156185119Y-76062761D01*
X156280357Y-76110380D01*
X156423214Y-76110380D01*
X155232738Y-76110380D02*
X155232738Y-75110380D01*
X155232738Y-76062761D02*
X155327976Y-76110380D01*
X155518452Y-76110380D01*
X155613690Y-76062761D01*
X155661309Y-76015142D01*
X155708928Y-75919904D01*
X155708928Y-75634190D01*
X155661309Y-75538952D01*
X155613690Y-75491333D01*
X155518452Y-75443714D01*
X155327976Y-75443714D01*
X155232738Y-75491333D01*
X154375595Y-76062761D02*
X154470833Y-76110380D01*
X154661309Y-76110380D01*
X154756547Y-76062761D01*
X154804166Y-75967523D01*
X154804166Y-75586571D01*
X154756547Y-75491333D01*
X154661309Y-75443714D01*
X154470833Y-75443714D01*
X154375595Y-75491333D01*
X154327976Y-75586571D01*
X154327976Y-75681809D01*
X154804166Y-75777047D01*
X153137500Y-76110380D02*
X153137500Y-75110380D01*
X152756547Y-75110380D01*
X152661309Y-75158000D01*
X152613690Y-75205619D01*
X152566071Y-75300857D01*
X152566071Y-75443714D01*
X152613690Y-75538952D01*
X152661309Y-75586571D01*
X152756547Y-75634190D01*
X153137500Y-75634190D01*
X152185119Y-76062761D02*
X152042261Y-76110380D01*
X151804166Y-76110380D01*
X151708928Y-76062761D01*
X151661309Y-76015142D01*
X151613690Y-75919904D01*
X151613690Y-75824666D01*
X151661309Y-75729428D01*
X151708928Y-75681809D01*
X151804166Y-75634190D01*
X151994642Y-75586571D01*
X152089880Y-75538952D01*
X152137500Y-75491333D01*
X152185119Y-75396095D01*
X152185119Y-75300857D01*
X152137500Y-75205619D01*
X152089880Y-75158000D01*
X151994642Y-75110380D01*
X151756547Y-75110380D01*
X151613690Y-75158000D01*
X151185119Y-75110380D02*
X151185119Y-75919904D01*
X151137500Y-76015142D01*
X151089880Y-76062761D01*
X150994642Y-76110380D01*
X150804166Y-76110380D01*
X150708928Y-76062761D01*
X150661309Y-76015142D01*
X150613690Y-75919904D01*
X150613690Y-75110380D01*
X148804166Y-76015142D02*
X148851785Y-76062761D01*
X148994642Y-76110380D01*
X149089880Y-76110380D01*
X149232738Y-76062761D01*
X149327976Y-75967523D01*
X149375595Y-75872285D01*
X149423214Y-75681809D01*
X149423214Y-75538952D01*
X149375595Y-75348476D01*
X149327976Y-75253238D01*
X149232738Y-75158000D01*
X149089880Y-75110380D01*
X148994642Y-75110380D01*
X148851785Y-75158000D01*
X148804166Y-75205619D01*
X148232738Y-76110380D02*
X148327976Y-76062761D01*
X148375595Y-76015142D01*
X148423214Y-75919904D01*
X148423214Y-75634190D01*
X148375595Y-75538952D01*
X148327976Y-75491333D01*
X148232738Y-75443714D01*
X148089880Y-75443714D01*
X147994642Y-75491333D01*
X147947023Y-75538952D01*
X147899404Y-75634190D01*
X147899404Y-75919904D01*
X147947023Y-76015142D01*
X147994642Y-76062761D01*
X148089880Y-76110380D01*
X148232738Y-76110380D01*
X147470833Y-75443714D02*
X147470833Y-76110380D01*
X147470833Y-75538952D02*
X147423214Y-75491333D01*
X147327976Y-75443714D01*
X147185119Y-75443714D01*
X147089880Y-75491333D01*
X147042261Y-75586571D01*
X147042261Y-76110380D01*
X146708928Y-75443714D02*
X146327976Y-75443714D01*
X146566071Y-75110380D02*
X146566071Y-75967523D01*
X146518452Y-76062761D01*
X146423214Y-76110380D01*
X146327976Y-76110380D01*
X145994642Y-76110380D02*
X145994642Y-75443714D01*
X145994642Y-75634190D02*
X145947023Y-75538952D01*
X145899404Y-75491333D01*
X145804166Y-75443714D01*
X145708928Y-75443714D01*
X145232738Y-76110380D02*
X145327976Y-76062761D01*
X145375595Y-76015142D01*
X145423214Y-75919904D01*
X145423214Y-75634190D01*
X145375595Y-75538952D01*
X145327976Y-75491333D01*
X145232738Y-75443714D01*
X145089880Y-75443714D01*
X144994642Y-75491333D01*
X144947023Y-75538952D01*
X144899404Y-75634190D01*
X144899404Y-75919904D01*
X144947023Y-76015142D01*
X144994642Y-76062761D01*
X145089880Y-76110380D01*
X145232738Y-76110380D01*
X144327976Y-76110380D02*
X144423214Y-76062761D01*
X144470833Y-75967523D01*
X144470833Y-75110380D01*
X143804166Y-76110380D02*
X143899404Y-76062761D01*
X143947023Y-75967523D01*
X143947023Y-75110380D01*
X143042261Y-76062761D02*
X143137500Y-76110380D01*
X143327976Y-76110380D01*
X143423214Y-76062761D01*
X143470833Y-75967523D01*
X143470833Y-75586571D01*
X143423214Y-75491333D01*
X143327976Y-75443714D01*
X143137500Y-75443714D01*
X143042261Y-75491333D01*
X142994642Y-75586571D01*
X142994642Y-75681809D01*
X143470833Y-75777047D01*
X142566071Y-76110380D02*
X142566071Y-75443714D01*
X142566071Y-75634190D02*
X142518452Y-75538952D01*
X142470833Y-75491333D01*
X142375595Y-75443714D01*
X142280357Y-75443714D01*
X168899404Y-77860380D02*
X168899404Y-76860380D01*
X168470833Y-77860380D02*
X168470833Y-77336571D01*
X168518452Y-77241333D01*
X168613690Y-77193714D01*
X168756547Y-77193714D01*
X168851785Y-77241333D01*
X168899404Y-77288952D01*
X168137500Y-77193714D02*
X167756547Y-77193714D01*
X167994642Y-76860380D02*
X167994642Y-77717523D01*
X167947023Y-77812761D01*
X167851785Y-77860380D01*
X167756547Y-77860380D01*
X167566071Y-77193714D02*
X167185119Y-77193714D01*
X167423214Y-76860380D02*
X167423214Y-77717523D01*
X167375595Y-77812761D01*
X167280357Y-77860380D01*
X167185119Y-77860380D01*
X166851785Y-77193714D02*
X166851785Y-78193714D01*
X166851785Y-77241333D02*
X166756547Y-77193714D01*
X166566071Y-77193714D01*
X166470833Y-77241333D01*
X166423214Y-77288952D01*
X166375595Y-77384190D01*
X166375595Y-77669904D01*
X166423214Y-77765142D01*
X166470833Y-77812761D01*
X166566071Y-77860380D01*
X166756547Y-77860380D01*
X166851785Y-77812761D01*
X165994642Y-77812761D02*
X165899404Y-77860380D01*
X165708928Y-77860380D01*
X165613690Y-77812761D01*
X165566071Y-77717523D01*
X165566071Y-77669904D01*
X165613690Y-77574666D01*
X165708928Y-77527047D01*
X165851785Y-77527047D01*
X165947023Y-77479428D01*
X165994642Y-77384190D01*
X165994642Y-77336571D01*
X165947023Y-77241333D01*
X165851785Y-77193714D01*
X165708928Y-77193714D01*
X165613690Y-77241333D01*
X165137500Y-77765142D02*
X165089880Y-77812761D01*
X165137500Y-77860380D01*
X165185119Y-77812761D01*
X165137500Y-77765142D01*
X165137500Y-77860380D01*
X165137500Y-77241333D02*
X165089880Y-77288952D01*
X165137500Y-77336571D01*
X165185119Y-77288952D01*
X165137500Y-77241333D01*
X165137500Y-77336571D01*
X163947023Y-76812761D02*
X164804166Y-78098476D01*
X162899404Y-76812761D02*
X163756547Y-78098476D01*
X162566071Y-77860380D02*
X162566071Y-76860380D01*
X162137500Y-77860380D02*
X162137500Y-77336571D01*
X162185119Y-77241333D01*
X162280357Y-77193714D01*
X162423214Y-77193714D01*
X162518452Y-77241333D01*
X162566071Y-77288952D01*
X161232738Y-77860380D02*
X161232738Y-77336571D01*
X161280357Y-77241333D01*
X161375595Y-77193714D01*
X161566071Y-77193714D01*
X161661309Y-77241333D01*
X161232738Y-77812761D02*
X161327976Y-77860380D01*
X161566071Y-77860380D01*
X161661309Y-77812761D01*
X161708928Y-77717523D01*
X161708928Y-77622285D01*
X161661309Y-77527047D01*
X161566071Y-77479428D01*
X161327976Y-77479428D01*
X161232738Y-77431809D01*
X160327976Y-77812761D02*
X160423214Y-77860380D01*
X160613690Y-77860380D01*
X160708928Y-77812761D01*
X160756547Y-77765142D01*
X160804166Y-77669904D01*
X160804166Y-77384190D01*
X160756547Y-77288952D01*
X160708928Y-77241333D01*
X160613690Y-77193714D01*
X160423214Y-77193714D01*
X160327976Y-77241333D01*
X159899404Y-77860380D02*
X159899404Y-76860380D01*
X159804166Y-77479428D02*
X159518452Y-77860380D01*
X159518452Y-77193714D02*
X159899404Y-77574666D01*
X158661309Y-77860380D02*
X158661309Y-77336571D01*
X158708928Y-77241333D01*
X158804166Y-77193714D01*
X158994642Y-77193714D01*
X159089880Y-77241333D01*
X158661309Y-77812761D02*
X158756547Y-77860380D01*
X158994642Y-77860380D01*
X159089880Y-77812761D01*
X159137500Y-77717523D01*
X159137500Y-77622285D01*
X159089880Y-77527047D01*
X158994642Y-77479428D01*
X158756547Y-77479428D01*
X158661309Y-77431809D01*
X157756547Y-77860380D02*
X157756547Y-76860380D01*
X157756547Y-77812761D02*
X157851785Y-77860380D01*
X158042261Y-77860380D01*
X158137500Y-77812761D01*
X158185119Y-77765142D01*
X158232738Y-77669904D01*
X158232738Y-77384190D01*
X158185119Y-77288952D01*
X158137500Y-77241333D01*
X158042261Y-77193714D01*
X157851785Y-77193714D01*
X157756547Y-77241333D01*
X156851785Y-77860380D02*
X156851785Y-77336571D01*
X156899404Y-77241333D01*
X156994642Y-77193714D01*
X157185119Y-77193714D01*
X157280357Y-77241333D01*
X156851785Y-77812761D02*
X156947023Y-77860380D01*
X157185119Y-77860380D01*
X157280357Y-77812761D01*
X157327976Y-77717523D01*
X157327976Y-77622285D01*
X157280357Y-77527047D01*
X157185119Y-77479428D01*
X156947023Y-77479428D01*
X156851785Y-77431809D01*
X156470833Y-77193714D02*
X156232738Y-77860380D01*
X155994642Y-77193714D02*
X156232738Y-77860380D01*
X156327976Y-78098476D01*
X156375595Y-78146095D01*
X156470833Y-78193714D01*
X155613690Y-77765142D02*
X155566071Y-77812761D01*
X155613690Y-77860380D01*
X155661309Y-77812761D01*
X155613690Y-77765142D01*
X155613690Y-77860380D01*
X155137500Y-77860380D02*
X155137500Y-77193714D01*
X155137500Y-76860380D02*
X155185119Y-76908000D01*
X155137500Y-76955619D01*
X155089880Y-76908000D01*
X155137500Y-76860380D01*
X155137500Y-76955619D01*
X154518452Y-77860380D02*
X154613690Y-77812761D01*
X154661309Y-77765142D01*
X154708928Y-77669904D01*
X154708928Y-77384190D01*
X154661309Y-77288952D01*
X154613690Y-77241333D01*
X154518452Y-77193714D01*
X154375595Y-77193714D01*
X154280357Y-77241333D01*
X154232738Y-77288952D01*
X154185119Y-77384190D01*
X154185119Y-77669904D01*
X154232738Y-77765142D01*
X154280357Y-77812761D01*
X154375595Y-77860380D01*
X154518452Y-77860380D01*
X153042261Y-76812761D02*
X153899404Y-78098476D01*
X152708928Y-77193714D02*
X152708928Y-78193714D01*
X152708928Y-77241333D02*
X152613690Y-77193714D01*
X152423214Y-77193714D01*
X152327976Y-77241333D01*
X152280357Y-77288952D01*
X152232738Y-77384190D01*
X152232738Y-77669904D01*
X152280357Y-77765142D01*
X152327976Y-77812761D01*
X152423214Y-77860380D01*
X152613690Y-77860380D01*
X152708928Y-77812761D01*
X151804166Y-77860380D02*
X151804166Y-77193714D01*
X151804166Y-77384190D02*
X151756547Y-77288952D01*
X151708928Y-77241333D01*
X151613690Y-77193714D01*
X151518452Y-77193714D01*
X151042261Y-77860380D02*
X151137500Y-77812761D01*
X151185119Y-77765142D01*
X151232738Y-77669904D01*
X151232738Y-77384190D01*
X151185119Y-77288952D01*
X151137500Y-77241333D01*
X151042261Y-77193714D01*
X150899404Y-77193714D01*
X150804166Y-77241333D01*
X150756547Y-77288952D01*
X150708928Y-77384190D01*
X150708928Y-77669904D01*
X150756547Y-77765142D01*
X150804166Y-77812761D01*
X150899404Y-77860380D01*
X151042261Y-77860380D01*
X150280357Y-77193714D02*
X150280357Y-78050857D01*
X150327976Y-78146095D01*
X150423214Y-78193714D01*
X150470833Y-78193714D01*
X150280357Y-76860380D02*
X150327976Y-76908000D01*
X150280357Y-76955619D01*
X150232738Y-76908000D01*
X150280357Y-76860380D01*
X150280357Y-76955619D01*
X149423214Y-77812761D02*
X149518452Y-77860380D01*
X149708928Y-77860380D01*
X149804166Y-77812761D01*
X149851785Y-77717523D01*
X149851785Y-77336571D01*
X149804166Y-77241333D01*
X149708928Y-77193714D01*
X149518452Y-77193714D01*
X149423214Y-77241333D01*
X149375595Y-77336571D01*
X149375595Y-77431809D01*
X149851785Y-77527047D01*
X148518452Y-77812761D02*
X148613690Y-77860380D01*
X148804166Y-77860380D01*
X148899404Y-77812761D01*
X148947023Y-77765142D01*
X148994642Y-77669904D01*
X148994642Y-77384190D01*
X148947023Y-77288952D01*
X148899404Y-77241333D01*
X148804166Y-77193714D01*
X148613690Y-77193714D01*
X148518452Y-77241333D01*
X148232738Y-77193714D02*
X147851785Y-77193714D01*
X148089880Y-76860380D02*
X148089880Y-77717523D01*
X148042261Y-77812761D01*
X147947023Y-77860380D01*
X147851785Y-77860380D01*
X146804166Y-76812761D02*
X147661309Y-78098476D01*
X145947023Y-77860380D02*
X146518452Y-77860380D01*
X146232738Y-77860380D02*
X146232738Y-76860380D01*
X146327976Y-77003238D01*
X146423214Y-77098476D01*
X146518452Y-77146095D01*
X145089880Y-76860380D02*
X145280357Y-76860380D01*
X145375595Y-76908000D01*
X145423214Y-76955619D01*
X145518452Y-77098476D01*
X145566071Y-77288952D01*
X145566071Y-77669904D01*
X145518452Y-77765142D01*
X145470833Y-77812761D01*
X145375595Y-77860380D01*
X145185119Y-77860380D01*
X145089880Y-77812761D01*
X145042261Y-77765142D01*
X144994642Y-77669904D01*
X144994642Y-77431809D01*
X145042261Y-77336571D01*
X145089880Y-77288952D01*
X145185119Y-77241333D01*
X145375595Y-77241333D01*
X145470833Y-77288952D01*
X145518452Y-77336571D01*
X145566071Y-77431809D01*
X144042261Y-77860380D02*
X144613690Y-77860380D01*
X144327976Y-77860380D02*
X144327976Y-76860380D01*
X144423214Y-77003238D01*
X144518452Y-77098476D01*
X144613690Y-77146095D01*
X143137500Y-76860380D02*
X143613690Y-76860380D01*
X143661309Y-77336571D01*
X143613690Y-77288952D01*
X143518452Y-77241333D01*
X143280357Y-77241333D01*
X143185119Y-77288952D01*
X143137500Y-77336571D01*
X143089880Y-77431809D01*
X143089880Y-77669904D01*
X143137500Y-77765142D01*
X143185119Y-77812761D01*
X143280357Y-77860380D01*
X143518452Y-77860380D01*
X143613690Y-77812761D01*
X143661309Y-77765142D01*
X142470833Y-76860380D02*
X142375595Y-76860380D01*
X142280357Y-76908000D01*
X142232738Y-76955619D01*
X142185119Y-77050857D01*
X142137500Y-77241333D01*
X142137500Y-77479428D01*
X142185119Y-77669904D01*
X142232738Y-77765142D01*
X142280357Y-77812761D01*
X142375595Y-77860380D01*
X142470833Y-77860380D01*
X142566071Y-77812761D01*
X142613690Y-77765142D01*
X142661309Y-77669904D01*
X142708928Y-77479428D01*
X142708928Y-77241333D01*
X142661309Y-77050857D01*
X142613690Y-76955619D01*
X142566071Y-76908000D01*
X142470833Y-76860380D01*
X141756547Y-76955619D02*
X141708928Y-76908000D01*
X141613690Y-76860380D01*
X141375595Y-76860380D01*
X141280357Y-76908000D01*
X141232738Y-76955619D01*
X141185119Y-77050857D01*
X141185119Y-77146095D01*
X141232738Y-77288952D01*
X141804166Y-77860380D01*
X141185119Y-77860380D01*
X168089880Y-78848476D02*
X168185119Y-78800857D01*
X168375595Y-78800857D01*
X168470833Y-78848476D01*
X168566071Y-78943714D01*
X168613690Y-79038952D01*
X168613690Y-79229428D01*
X168566071Y-79324666D01*
X168470833Y-79419904D01*
X168375595Y-79467523D01*
X168185119Y-79467523D01*
X168089880Y-79419904D01*
X168280357Y-78467523D02*
X168518452Y-78515142D01*
X168756547Y-78658000D01*
X168899404Y-78896095D01*
X168947023Y-79134190D01*
X168899404Y-79372285D01*
X168756547Y-79610380D01*
X168518452Y-79753238D01*
X168280357Y-79800857D01*
X168042261Y-79753238D01*
X167804166Y-79610380D01*
X167661309Y-79372285D01*
X167613690Y-79134190D01*
X167661309Y-78896095D01*
X167804166Y-78658000D01*
X168042261Y-78515142D01*
X168280357Y-78467523D01*
X166470833Y-78705619D02*
X166423214Y-78658000D01*
X166327976Y-78610380D01*
X166089880Y-78610380D01*
X165994642Y-78658000D01*
X165947023Y-78705619D01*
X165899404Y-78800857D01*
X165899404Y-78896095D01*
X165947023Y-79038952D01*
X166518452Y-79610380D01*
X165899404Y-79610380D01*
X165280357Y-78610380D02*
X165185119Y-78610380D01*
X165089880Y-78658000D01*
X165042261Y-78705619D01*
X164994642Y-78800857D01*
X164947023Y-78991333D01*
X164947023Y-79229428D01*
X164994642Y-79419904D01*
X165042261Y-79515142D01*
X165089880Y-79562761D01*
X165185119Y-79610380D01*
X165280357Y-79610380D01*
X165375595Y-79562761D01*
X165423214Y-79515142D01*
X165470833Y-79419904D01*
X165518452Y-79229428D01*
X165518452Y-78991333D01*
X165470833Y-78800857D01*
X165423214Y-78705619D01*
X165375595Y-78658000D01*
X165280357Y-78610380D01*
X163994642Y-79610380D02*
X164566071Y-79610380D01*
X164280357Y-79610380D02*
X164280357Y-78610380D01*
X164375595Y-78753238D01*
X164470833Y-78848476D01*
X164566071Y-78896095D01*
X163423214Y-79038952D02*
X163518452Y-78991333D01*
X163566071Y-78943714D01*
X163613690Y-78848476D01*
X163613690Y-78800857D01*
X163566071Y-78705619D01*
X163518452Y-78658000D01*
X163423214Y-78610380D01*
X163232738Y-78610380D01*
X163137500Y-78658000D01*
X163089880Y-78705619D01*
X163042261Y-78800857D01*
X163042261Y-78848476D01*
X163089880Y-78943714D01*
X163137500Y-78991333D01*
X163232738Y-79038952D01*
X163423214Y-79038952D01*
X163518452Y-79086571D01*
X163566071Y-79134190D01*
X163613690Y-79229428D01*
X163613690Y-79419904D01*
X163566071Y-79515142D01*
X163518452Y-79562761D01*
X163423214Y-79610380D01*
X163232738Y-79610380D01*
X163137500Y-79562761D01*
X163089880Y-79515142D01*
X163042261Y-79419904D01*
X163042261Y-79229428D01*
X163089880Y-79134190D01*
X163137500Y-79086571D01*
X163232738Y-79038952D01*
X161899404Y-79562761D02*
X161756547Y-79610380D01*
X161518452Y-79610380D01*
X161423214Y-79562761D01*
X161375595Y-79515142D01*
X161327976Y-79419904D01*
X161327976Y-79324666D01*
X161375595Y-79229428D01*
X161423214Y-79181809D01*
X161518452Y-79134190D01*
X161708928Y-79086571D01*
X161804166Y-79038952D01*
X161851785Y-78991333D01*
X161899404Y-78896095D01*
X161899404Y-78800857D01*
X161851785Y-78705619D01*
X161804166Y-78658000D01*
X161708928Y-78610380D01*
X161470833Y-78610380D01*
X161327976Y-78658000D01*
X161042261Y-78943714D02*
X160661309Y-78943714D01*
X160899404Y-78610380D02*
X160899404Y-79467523D01*
X160851785Y-79562761D01*
X160756547Y-79610380D01*
X160661309Y-79610380D01*
X159899404Y-78943714D02*
X159899404Y-79610380D01*
X160327976Y-78943714D02*
X160327976Y-79467523D01*
X160280357Y-79562761D01*
X160185119Y-79610380D01*
X160042261Y-79610380D01*
X159947023Y-79562761D01*
X159899404Y-79515142D01*
X158994642Y-79610380D02*
X158994642Y-79086571D01*
X159042261Y-78991333D01*
X159137500Y-78943714D01*
X159327976Y-78943714D01*
X159423214Y-78991333D01*
X158994642Y-79562761D02*
X159089880Y-79610380D01*
X159327976Y-79610380D01*
X159423214Y-79562761D01*
X159470833Y-79467523D01*
X159470833Y-79372285D01*
X159423214Y-79277047D01*
X159327976Y-79229428D01*
X159089880Y-79229428D01*
X158994642Y-79181809D01*
X158518452Y-79610380D02*
X158518452Y-78943714D01*
X158518452Y-79134190D02*
X158470833Y-79038952D01*
X158423214Y-78991333D01*
X158327976Y-78943714D01*
X158232738Y-78943714D01*
X158042261Y-78943714D02*
X157661309Y-78943714D01*
X157899404Y-78610380D02*
X157899404Y-79467523D01*
X157851785Y-79562761D01*
X157756547Y-79610380D01*
X157661309Y-79610380D01*
X156089880Y-79610380D02*
X156566071Y-79610380D01*
X156566071Y-78610380D01*
X155613690Y-79610380D02*
X155708928Y-79562761D01*
X155756547Y-79515142D01*
X155804166Y-79419904D01*
X155804166Y-79134190D01*
X155756547Y-79038952D01*
X155708928Y-78991333D01*
X155613690Y-78943714D01*
X155470833Y-78943714D01*
X155375595Y-78991333D01*
X155327976Y-79038952D01*
X155280357Y-79134190D01*
X155280357Y-79419904D01*
X155327976Y-79515142D01*
X155375595Y-79562761D01*
X155470833Y-79610380D01*
X155613690Y-79610380D01*
X154851785Y-78943714D02*
X154851785Y-79610380D01*
X154851785Y-79038952D02*
X154804166Y-78991333D01*
X154708928Y-78943714D01*
X154566071Y-78943714D01*
X154470833Y-78991333D01*
X154423214Y-79086571D01*
X154423214Y-79610380D01*
X153518452Y-78943714D02*
X153518452Y-79753238D01*
X153566071Y-79848476D01*
X153613690Y-79896095D01*
X153708928Y-79943714D01*
X153851785Y-79943714D01*
X153947023Y-79896095D01*
X153518452Y-79562761D02*
X153613690Y-79610380D01*
X153804166Y-79610380D01*
X153899404Y-79562761D01*
X153947023Y-79515142D01*
X153994642Y-79419904D01*
X153994642Y-79134190D01*
X153947023Y-79038952D01*
X153899404Y-78991333D01*
X153804166Y-78943714D01*
X153613690Y-78943714D01*
X153518452Y-78991333D01*
X152899404Y-79610380D02*
X152994642Y-79562761D01*
X153042261Y-79467523D01*
X153042261Y-78610380D01*
X152089880Y-79610380D02*
X152089880Y-79086571D01*
X152137500Y-78991333D01*
X152232738Y-78943714D01*
X152423214Y-78943714D01*
X152518452Y-78991333D01*
X152089880Y-79562761D02*
X152185119Y-79610380D01*
X152423214Y-79610380D01*
X152518452Y-79562761D01*
X152566071Y-79467523D01*
X152566071Y-79372285D01*
X152518452Y-79277047D01*
X152423214Y-79229428D01*
X152185119Y-79229428D01*
X152089880Y-79181809D01*
X151613690Y-78943714D02*
X151613690Y-79610380D01*
X151613690Y-79038952D02*
X151566071Y-78991333D01*
X151470833Y-78943714D01*
X151327976Y-78943714D01*
X151232738Y-78991333D01*
X151185119Y-79086571D01*
X151185119Y-79610380D01*
X150280357Y-79610380D02*
X150280357Y-78610380D01*
X150280357Y-79562761D02*
X150375595Y-79610380D01*
X150566071Y-79610380D01*
X150661309Y-79562761D01*
X150708928Y-79515142D01*
X150756547Y-79419904D01*
X150756547Y-79134190D01*
X150708928Y-79038952D01*
X150661309Y-78991333D01*
X150566071Y-78943714D01*
X150375595Y-78943714D01*
X150280357Y-78991333D01*
D10*
X142976190Y-122052380D02*
X142880952Y-122052380D01*
X142785714Y-122100000D01*
X142738095Y-122147619D01*
X142690476Y-122242857D01*
X142642857Y-122433333D01*
X142642857Y-122671428D01*
X142690476Y-122861904D01*
X142738095Y-122957142D01*
X142785714Y-123004761D01*
X142880952Y-123052380D01*
X142976190Y-123052380D01*
X143071428Y-123004761D01*
X143119047Y-122957142D01*
X143166666Y-122861904D01*
X143214285Y-122671428D01*
X143214285Y-122433333D01*
X143166666Y-122242857D01*
X143119047Y-122147619D01*
X143071428Y-122100000D01*
X142976190Y-122052380D01*
X142357142Y-122052380D02*
X142023809Y-123052380D01*
X141690476Y-122052380D01*
D15*
X163300000Y-118000000D02*
X165200000Y-118900000D01*
X161500000Y-118000000D02*
X162600000Y-118800000D01*
X159600000Y-118000000D02*
X160100000Y-118800000D01*
X157700000Y-118100000D02*
X157500000Y-118900000D01*
X155800000Y-118100000D02*
X155000000Y-118900000D01*
X153900000Y-118000000D02*
X152500000Y-118800000D01*
X152000000Y-118000000D02*
X150000000Y-118800000D01*
X150100000Y-118000000D02*
X147400000Y-118800000D01*
X148300000Y-118000000D02*
X144800000Y-118800000D01*
D10*
X163314285Y-117796904D02*
X163314285Y-117035000D01*
X162857142Y-117415952D02*
X163771428Y-117415952D01*
X164057142Y-116082619D02*
X164057142Y-116558809D01*
X163485714Y-116606428D01*
X163542857Y-116558809D01*
X163600000Y-116463571D01*
X163600000Y-116225476D01*
X163542857Y-116130238D01*
X163485714Y-116082619D01*
X163371428Y-116035000D01*
X163085714Y-116035000D01*
X162971428Y-116082619D01*
X162914285Y-116130238D01*
X162857142Y-116225476D01*
X162857142Y-116463571D01*
X162914285Y-116558809D01*
X162971428Y-116606428D01*
X164057142Y-115749285D02*
X162857142Y-115415952D01*
X164057142Y-115082619D01*
X160957142Y-117796904D02*
X162157142Y-117796904D01*
X161300000Y-117463571D01*
X162157142Y-117130238D01*
X160957142Y-117130238D01*
X162157142Y-116463571D02*
X162157142Y-116273095D01*
X162100000Y-116177857D01*
X161985714Y-116082619D01*
X161757142Y-116035000D01*
X161357142Y-116035000D01*
X161128571Y-116082619D01*
X161014285Y-116177857D01*
X160957142Y-116273095D01*
X160957142Y-116463571D01*
X161014285Y-116558809D01*
X161128571Y-116654047D01*
X161357142Y-116701666D01*
X161757142Y-116701666D01*
X161985714Y-116654047D01*
X162100000Y-116558809D01*
X162157142Y-116463571D01*
X161014285Y-115654047D02*
X160957142Y-115511190D01*
X160957142Y-115273095D01*
X161014285Y-115177857D01*
X161071428Y-115130238D01*
X161185714Y-115082619D01*
X161300000Y-115082619D01*
X161414285Y-115130238D01*
X161471428Y-115177857D01*
X161528571Y-115273095D01*
X161585714Y-115463571D01*
X161642857Y-115558809D01*
X161700000Y-115606428D01*
X161814285Y-115654047D01*
X161928571Y-115654047D01*
X162042857Y-115606428D01*
X162100000Y-115558809D01*
X162157142Y-115463571D01*
X162157142Y-115225476D01*
X162100000Y-115082619D01*
X160957142Y-114654047D02*
X162157142Y-114654047D01*
X159057142Y-117796904D02*
X160257142Y-117796904D01*
X159400000Y-117463571D01*
X160257142Y-117130238D01*
X159057142Y-117130238D01*
X159057142Y-116654047D02*
X160257142Y-116654047D01*
X159114285Y-116225476D02*
X159057142Y-116082619D01*
X159057142Y-115844523D01*
X159114285Y-115749285D01*
X159171428Y-115701666D01*
X159285714Y-115654047D01*
X159400000Y-115654047D01*
X159514285Y-115701666D01*
X159571428Y-115749285D01*
X159628571Y-115844523D01*
X159685714Y-116035000D01*
X159742857Y-116130238D01*
X159800000Y-116177857D01*
X159914285Y-116225476D01*
X160028571Y-116225476D01*
X160142857Y-116177857D01*
X160200000Y-116130238D01*
X160257142Y-116035000D01*
X160257142Y-115796904D01*
X160200000Y-115654047D01*
X160257142Y-115035000D02*
X160257142Y-114844523D01*
X160200000Y-114749285D01*
X160085714Y-114654047D01*
X159857142Y-114606428D01*
X159457142Y-114606428D01*
X159228571Y-114654047D01*
X159114285Y-114749285D01*
X159057142Y-114844523D01*
X159057142Y-115035000D01*
X159114285Y-115130238D01*
X159228571Y-115225476D01*
X159457142Y-115273095D01*
X159857142Y-115273095D01*
X160085714Y-115225476D01*
X160200000Y-115130238D01*
X160257142Y-115035000D01*
X157214285Y-117844523D02*
X157157142Y-117701666D01*
X157157142Y-117463571D01*
X157214285Y-117368333D01*
X157271428Y-117320714D01*
X157385714Y-117273095D01*
X157500000Y-117273095D01*
X157614285Y-117320714D01*
X157671428Y-117368333D01*
X157728571Y-117463571D01*
X157785714Y-117654047D01*
X157842857Y-117749285D01*
X157900000Y-117796904D01*
X158014285Y-117844523D01*
X158128571Y-117844523D01*
X158242857Y-117796904D01*
X158300000Y-117749285D01*
X158357142Y-117654047D01*
X158357142Y-117415952D01*
X158300000Y-117273095D01*
X157271428Y-116273095D02*
X157214285Y-116320714D01*
X157157142Y-116463571D01*
X157157142Y-116558809D01*
X157214285Y-116701666D01*
X157328571Y-116796904D01*
X157442857Y-116844523D01*
X157671428Y-116892142D01*
X157842857Y-116892142D01*
X158071428Y-116844523D01*
X158185714Y-116796904D01*
X158300000Y-116701666D01*
X158357142Y-116558809D01*
X158357142Y-116463571D01*
X158300000Y-116320714D01*
X158242857Y-116273095D01*
X157157142Y-115844523D02*
X158357142Y-115844523D01*
X157157142Y-115273095D02*
X157842857Y-115701666D01*
X158357142Y-115273095D02*
X157671428Y-115844523D01*
X156794000Y-118035000D02*
X156794000Y-117035000D01*
X155371428Y-117225476D02*
X155314285Y-117273095D01*
X155257142Y-117415952D01*
X155257142Y-117511190D01*
X155314285Y-117654047D01*
X155428571Y-117749285D01*
X155542857Y-117796904D01*
X155771428Y-117844523D01*
X155942857Y-117844523D01*
X156171428Y-117796904D01*
X156285714Y-117749285D01*
X156400000Y-117654047D01*
X156457142Y-117511190D01*
X156457142Y-117415952D01*
X156400000Y-117273095D01*
X156342857Y-117225476D01*
X156794000Y-117035000D02*
X156794000Y-116082619D01*
X155314285Y-116844523D02*
X155257142Y-116701666D01*
X155257142Y-116463571D01*
X155314285Y-116368333D01*
X155371428Y-116320714D01*
X155485714Y-116273095D01*
X155600000Y-116273095D01*
X155714285Y-116320714D01*
X155771428Y-116368333D01*
X155828571Y-116463571D01*
X155885714Y-116654047D01*
X155942857Y-116749285D01*
X156000000Y-116796904D01*
X156114285Y-116844523D01*
X156228571Y-116844523D01*
X156342857Y-116796904D01*
X156400000Y-116749285D01*
X156457142Y-116654047D01*
X156457142Y-116415952D01*
X156400000Y-116273095D01*
X154894000Y-118035000D02*
X154894000Y-117558809D01*
X153357142Y-117796904D02*
X154557142Y-117796904D01*
X154894000Y-117558809D02*
X154894000Y-116511190D01*
X153357142Y-117320714D02*
X154557142Y-117320714D01*
X153357142Y-116749285D01*
X154557142Y-116749285D01*
X154894000Y-116511190D02*
X154894000Y-115749285D01*
X154557142Y-116415952D02*
X154557142Y-115844523D01*
X153357142Y-116130238D02*
X154557142Y-116130238D01*
X152994000Y-118035000D02*
X152994000Y-117035000D01*
X151457142Y-117225476D02*
X152028571Y-117558809D01*
X151457142Y-117796904D02*
X152657142Y-117796904D01*
X152657142Y-117415952D01*
X152600000Y-117320714D01*
X152542857Y-117273095D01*
X152428571Y-117225476D01*
X152257142Y-117225476D01*
X152142857Y-117273095D01*
X152085714Y-117320714D01*
X152028571Y-117415952D01*
X152028571Y-117796904D01*
X152994000Y-117035000D02*
X152994000Y-116082619D01*
X151514285Y-116844523D02*
X151457142Y-116701666D01*
X151457142Y-116463571D01*
X151514285Y-116368333D01*
X151571428Y-116320714D01*
X151685714Y-116273095D01*
X151800000Y-116273095D01*
X151914285Y-116320714D01*
X151971428Y-116368333D01*
X152028571Y-116463571D01*
X152085714Y-116654047D01*
X152142857Y-116749285D01*
X152200000Y-116796904D01*
X152314285Y-116844523D01*
X152428571Y-116844523D01*
X152542857Y-116796904D01*
X152600000Y-116749285D01*
X152657142Y-116654047D01*
X152657142Y-116415952D01*
X152600000Y-116273095D01*
X152994000Y-116082619D02*
X152994000Y-115320714D01*
X152657142Y-115987380D02*
X152657142Y-115415952D01*
X151457142Y-115701666D02*
X152657142Y-115701666D01*
X149557142Y-117796904D02*
X150757142Y-117796904D01*
X150757142Y-117130238D02*
X150757142Y-116939761D01*
X150700000Y-116844523D01*
X150585714Y-116749285D01*
X150357142Y-116701666D01*
X149957142Y-116701666D01*
X149728571Y-116749285D01*
X149614285Y-116844523D01*
X149557142Y-116939761D01*
X149557142Y-117130238D01*
X149614285Y-117225476D01*
X149728571Y-117320714D01*
X149957142Y-117368333D01*
X150357142Y-117368333D01*
X150585714Y-117320714D01*
X150700000Y-117225476D01*
X150757142Y-117130238D01*
X150757142Y-116082619D02*
X150757142Y-115987380D01*
X150700000Y-115892142D01*
X150642857Y-115844523D01*
X150528571Y-115796904D01*
X150300000Y-115749285D01*
X150014285Y-115749285D01*
X149785714Y-115796904D01*
X149671428Y-115844523D01*
X149614285Y-115892142D01*
X149557142Y-115987380D01*
X149557142Y-116082619D01*
X149614285Y-116177857D01*
X149671428Y-116225476D01*
X149785714Y-116273095D01*
X150014285Y-116320714D01*
X150300000Y-116320714D01*
X150528571Y-116273095D01*
X150642857Y-116225476D01*
X150700000Y-116177857D01*
X150757142Y-116082619D01*
X147657142Y-117796904D02*
X148857142Y-117796904D01*
X148857142Y-117130238D02*
X148857142Y-116939761D01*
X148800000Y-116844523D01*
X148685714Y-116749285D01*
X148457142Y-116701666D01*
X148057142Y-116701666D01*
X147828571Y-116749285D01*
X147714285Y-116844523D01*
X147657142Y-116939761D01*
X147657142Y-117130238D01*
X147714285Y-117225476D01*
X147828571Y-117320714D01*
X148057142Y-117368333D01*
X148457142Y-117368333D01*
X148685714Y-117320714D01*
X148800000Y-117225476D01*
X148857142Y-117130238D01*
X147657142Y-115749285D02*
X147657142Y-116320714D01*
X147657142Y-116035000D02*
X148857142Y-116035000D01*
X148685714Y-116130238D01*
X148571428Y-116225476D01*
X148514285Y-116320714D01*
X146671428Y-108271428D02*
X146214285Y-108271428D01*
X145500000Y-108604761D02*
X145414285Y-108652380D01*
X145271428Y-108652380D01*
X145214285Y-108604761D01*
X145185714Y-108557142D01*
X145157142Y-108461904D01*
X145157142Y-108366666D01*
X145185714Y-108271428D01*
X145214285Y-108223809D01*
X145271428Y-108176190D01*
X145385714Y-108128571D01*
X145442857Y-108080952D01*
X145471428Y-108033333D01*
X145500000Y-107938095D01*
X145500000Y-107842857D01*
X145471428Y-107747619D01*
X145442857Y-107700000D01*
X145385714Y-107652380D01*
X145242857Y-107652380D01*
X145157142Y-107700000D01*
X144557142Y-108557142D02*
X144585714Y-108604761D01*
X144671428Y-108652380D01*
X144728571Y-108652380D01*
X144814285Y-108604761D01*
X144871428Y-108509523D01*
X144900000Y-108414285D01*
X144928571Y-108223809D01*
X144928571Y-108080952D01*
X144900000Y-107890476D01*
X144871428Y-107795238D01*
X144814285Y-107700000D01*
X144728571Y-107652380D01*
X144671428Y-107652380D01*
X144585714Y-107700000D01*
X144557142Y-107747619D01*
X144014285Y-108652380D02*
X144300000Y-108652380D01*
X144300000Y-107652380D01*
X143357142Y-108271428D02*
X142900000Y-108271428D01*
X143128571Y-108652380D02*
X143128571Y-107890476D01*
X142014285Y-108985714D02*
X142014285Y-107557142D01*
X141128571Y-108271428D02*
X140671428Y-108271428D01*
X140900000Y-108652380D02*
X140900000Y-107890476D01*
X139957142Y-108604761D02*
X139871428Y-108652380D01*
X139728571Y-108652380D01*
X139671428Y-108604761D01*
X139642857Y-108557142D01*
X139614285Y-108461904D01*
X139614285Y-108366666D01*
X139642857Y-108271428D01*
X139671428Y-108223809D01*
X139728571Y-108176190D01*
X139842857Y-108128571D01*
X139900000Y-108080952D01*
X139928571Y-108033333D01*
X139957142Y-107938095D01*
X139957142Y-107842857D01*
X139928571Y-107747619D01*
X139900000Y-107700000D01*
X139842857Y-107652380D01*
X139700000Y-107652380D01*
X139614285Y-107700000D01*
X139357142Y-108652380D02*
X139357142Y-107652380D01*
X139214285Y-107652380D01*
X139128571Y-107700000D01*
X139071428Y-107795238D01*
X139042857Y-107890476D01*
X139014285Y-108080952D01*
X139014285Y-108223809D01*
X139042857Y-108414285D01*
X139071428Y-108509523D01*
X139128571Y-108604761D01*
X139214285Y-108652380D01*
X139357142Y-108652380D01*
X138785714Y-108366666D02*
X138500000Y-108366666D01*
X138842857Y-108652380D02*
X138642857Y-107652380D01*
X138442857Y-108652380D01*
X137785714Y-108271428D02*
X137328571Y-108271428D01*
D15*
X149300000Y-114600000D02*
X146200000Y-116500000D01*
X149200000Y-113000000D02*
X145900000Y-113500000D01*
X149300000Y-111400000D02*
X146200000Y-110600000D01*
D10*
X162036428Y-109252380D02*
X161693571Y-109252380D01*
X161865000Y-110252380D02*
X161865000Y-109252380D01*
X161265000Y-110204761D02*
X161322142Y-110252380D01*
X161436428Y-110252380D01*
X161493571Y-110204761D01*
X161522142Y-110109523D01*
X161522142Y-109728571D01*
X161493571Y-109633333D01*
X161436428Y-109585714D01*
X161322142Y-109585714D01*
X161265000Y-109633333D01*
X161236428Y-109728571D01*
X161236428Y-109823809D01*
X161522142Y-109919047D01*
X160979285Y-110252380D02*
X160979285Y-109585714D01*
X160979285Y-109776190D02*
X160950714Y-109680952D01*
X160922142Y-109633333D01*
X160865000Y-109585714D01*
X160807857Y-109585714D01*
X160607857Y-110252380D02*
X160607857Y-109585714D01*
X160607857Y-109680952D02*
X160579285Y-109633333D01*
X160522142Y-109585714D01*
X160436428Y-109585714D01*
X160379285Y-109633333D01*
X160350714Y-109728571D01*
X160350714Y-110252380D01*
X160350714Y-109728571D02*
X160322142Y-109633333D01*
X160265000Y-109585714D01*
X160179285Y-109585714D01*
X160122142Y-109633333D01*
X160093571Y-109728571D01*
X160093571Y-110252380D01*
X159807857Y-110252380D02*
X159807857Y-109585714D01*
X159807857Y-109252380D02*
X159836428Y-109300000D01*
X159807857Y-109347619D01*
X159779285Y-109300000D01*
X159807857Y-109252380D01*
X159807857Y-109347619D01*
X159522142Y-109585714D02*
X159522142Y-110252380D01*
X159522142Y-109680952D02*
X159493571Y-109633333D01*
X159436428Y-109585714D01*
X159350714Y-109585714D01*
X159293571Y-109633333D01*
X159265000Y-109728571D01*
X159265000Y-110252380D01*
X158722142Y-110252380D02*
X158722142Y-109728571D01*
X158750714Y-109633333D01*
X158807857Y-109585714D01*
X158922142Y-109585714D01*
X158979285Y-109633333D01*
X158722142Y-110204761D02*
X158779285Y-110252380D01*
X158922142Y-110252380D01*
X158979285Y-110204761D01*
X159007857Y-110109523D01*
X159007857Y-110014285D01*
X158979285Y-109919047D01*
X158922142Y-109871428D01*
X158779285Y-109871428D01*
X158722142Y-109823809D01*
X158522142Y-109585714D02*
X158293571Y-109585714D01*
X158436428Y-109252380D02*
X158436428Y-110109523D01*
X158407857Y-110204761D01*
X158350714Y-110252380D01*
X158293571Y-110252380D01*
X158093571Y-110252380D02*
X158093571Y-109585714D01*
X158093571Y-109252380D02*
X158122142Y-109300000D01*
X158093571Y-109347619D01*
X158065000Y-109300000D01*
X158093571Y-109252380D01*
X158093571Y-109347619D01*
X157722142Y-110252380D02*
X157779285Y-110204761D01*
X157807857Y-110157142D01*
X157836428Y-110061904D01*
X157836428Y-109776190D01*
X157807857Y-109680952D01*
X157779285Y-109633333D01*
X157722142Y-109585714D01*
X157636428Y-109585714D01*
X157579285Y-109633333D01*
X157550714Y-109680952D01*
X157522142Y-109776190D01*
X157522142Y-110061904D01*
X157550714Y-110157142D01*
X157579285Y-110204761D01*
X157636428Y-110252380D01*
X157722142Y-110252380D01*
X157265000Y-109585714D02*
X157265000Y-110252380D01*
X157265000Y-109680952D02*
X157236428Y-109633333D01*
X157179285Y-109585714D01*
X157093571Y-109585714D01*
X157036428Y-109633333D01*
X157007857Y-109728571D01*
X157007857Y-110252380D01*
X156293571Y-109204761D02*
X156807857Y-110490476D01*
X155893571Y-109728571D02*
X155807857Y-109776190D01*
X155779285Y-109823809D01*
X155750714Y-109919047D01*
X155750714Y-110061904D01*
X155779285Y-110157142D01*
X155807857Y-110204761D01*
X155865000Y-110252380D01*
X156093571Y-110252380D01*
X156093571Y-109252380D01*
X155893571Y-109252380D01*
X155836428Y-109300000D01*
X155807857Y-109347619D01*
X155779285Y-109442857D01*
X155779285Y-109538095D01*
X155807857Y-109633333D01*
X155836428Y-109680952D01*
X155893571Y-109728571D01*
X156093571Y-109728571D01*
X155493571Y-110252380D02*
X155493571Y-109585714D01*
X155493571Y-109252380D02*
X155522142Y-109300000D01*
X155493571Y-109347619D01*
X155465000Y-109300000D01*
X155493571Y-109252380D01*
X155493571Y-109347619D01*
X154950714Y-110252380D02*
X154950714Y-109728571D01*
X154979285Y-109633333D01*
X155036428Y-109585714D01*
X155150714Y-109585714D01*
X155207857Y-109633333D01*
X154950714Y-110204761D02*
X155007857Y-110252380D01*
X155150714Y-110252380D01*
X155207857Y-110204761D01*
X155236428Y-110109523D01*
X155236428Y-110014285D01*
X155207857Y-109919047D01*
X155150714Y-109871428D01*
X155007857Y-109871428D01*
X154950714Y-109823809D01*
X154693571Y-110204761D02*
X154636428Y-110252380D01*
X154522142Y-110252380D01*
X154465000Y-110204761D01*
X154436428Y-110109523D01*
X154436428Y-110061904D01*
X154465000Y-109966666D01*
X154522142Y-109919047D01*
X154607857Y-109919047D01*
X154665000Y-109871428D01*
X154693571Y-109776190D01*
X154693571Y-109728571D01*
X154665000Y-109633333D01*
X154607857Y-109585714D01*
X154522142Y-109585714D01*
X154465000Y-109633333D01*
X153379285Y-110252380D02*
X153579285Y-109776190D01*
X153722142Y-110252380D02*
X153722142Y-109252380D01*
X153493571Y-109252380D01*
X153436428Y-109300000D01*
X153407857Y-109347619D01*
X153379285Y-109442857D01*
X153379285Y-109585714D01*
X153407857Y-109680952D01*
X153436428Y-109728571D01*
X153493571Y-109776190D01*
X153722142Y-109776190D01*
X152893571Y-110204761D02*
X152950714Y-110252380D01*
X153065000Y-110252380D01*
X153122142Y-110204761D01*
X153150714Y-110109523D01*
X153150714Y-109728571D01*
X153122142Y-109633333D01*
X153065000Y-109585714D01*
X152950714Y-109585714D01*
X152893571Y-109633333D01*
X152865000Y-109728571D01*
X152865000Y-109823809D01*
X153150714Y-109919047D01*
X152636428Y-110204761D02*
X152579285Y-110252380D01*
X152465000Y-110252380D01*
X152407857Y-110204761D01*
X152379285Y-110109523D01*
X152379285Y-110061904D01*
X152407857Y-109966666D01*
X152465000Y-109919047D01*
X152550714Y-109919047D01*
X152607857Y-109871428D01*
X152636428Y-109776190D01*
X152636428Y-109728571D01*
X152607857Y-109633333D01*
X152550714Y-109585714D01*
X152465000Y-109585714D01*
X152407857Y-109633333D01*
X152122142Y-110252380D02*
X152122142Y-109585714D01*
X152122142Y-109252380D02*
X152150714Y-109300000D01*
X152122142Y-109347619D01*
X152093571Y-109300000D01*
X152122142Y-109252380D01*
X152122142Y-109347619D01*
X151865000Y-110204761D02*
X151807857Y-110252380D01*
X151693571Y-110252380D01*
X151636428Y-110204761D01*
X151607857Y-110109523D01*
X151607857Y-110061904D01*
X151636428Y-109966666D01*
X151693571Y-109919047D01*
X151779285Y-109919047D01*
X151836428Y-109871428D01*
X151865000Y-109776190D01*
X151865000Y-109728571D01*
X151836428Y-109633333D01*
X151779285Y-109585714D01*
X151693571Y-109585714D01*
X151636428Y-109633333D01*
X151436428Y-109585714D02*
X151207857Y-109585714D01*
X151350714Y-109252380D02*
X151350714Y-110109523D01*
X151322142Y-110204761D01*
X151265000Y-110252380D01*
X151207857Y-110252380D01*
X150922142Y-110252380D02*
X150979285Y-110204761D01*
X151007857Y-110157142D01*
X151036428Y-110061904D01*
X151036428Y-109776190D01*
X151007857Y-109680952D01*
X150979285Y-109633333D01*
X150922142Y-109585714D01*
X150836428Y-109585714D01*
X150779285Y-109633333D01*
X150750714Y-109680952D01*
X150722142Y-109776190D01*
X150722142Y-110061904D01*
X150750714Y-110157142D01*
X150779285Y-110204761D01*
X150836428Y-110252380D01*
X150922142Y-110252380D01*
X150465000Y-110252380D02*
X150465000Y-109585714D01*
X150465000Y-109776190D02*
X150436428Y-109680952D01*
X150407857Y-109633333D01*
X150350714Y-109585714D01*
X150293571Y-109585714D01*
X150122142Y-110204761D02*
X150065000Y-110252380D01*
X149950714Y-110252380D01*
X149893571Y-110204761D01*
X149865000Y-110109523D01*
X149865000Y-110061904D01*
X149893571Y-109966666D01*
X149950714Y-109919047D01*
X150036428Y-109919047D01*
X150093571Y-109871428D01*
X150122142Y-109776190D01*
X150122142Y-109728571D01*
X150093571Y-109633333D01*
X150036428Y-109585714D01*
X149950714Y-109585714D01*
X149893571Y-109633333D01*
X149607857Y-110157142D02*
X149579285Y-110204761D01*
X149607857Y-110252380D01*
X149636428Y-110204761D01*
X149607857Y-110157142D01*
X149607857Y-110252380D01*
X155293571Y-111852380D02*
X155293571Y-110852380D01*
X155065000Y-110852380D01*
X155007857Y-110900000D01*
X154979285Y-110947619D01*
X154950714Y-111042857D01*
X154950714Y-111185714D01*
X154979285Y-111280952D01*
X155007857Y-111328571D01*
X155065000Y-111376190D01*
X155293571Y-111376190D01*
X154436428Y-111185714D02*
X154436428Y-111852380D01*
X154693571Y-111185714D02*
X154693571Y-111709523D01*
X154665000Y-111804761D01*
X154607857Y-111852380D01*
X154522142Y-111852380D01*
X154465000Y-111804761D01*
X154436428Y-111757142D01*
X154065000Y-111852380D02*
X154122142Y-111804761D01*
X154150714Y-111709523D01*
X154150714Y-110852380D01*
X153750714Y-111852380D02*
X153807857Y-111804761D01*
X153836428Y-111709523D01*
X153836428Y-110852380D01*
X153522142Y-111471428D02*
X153065000Y-111471428D01*
X152522142Y-111185714D02*
X152522142Y-111852380D01*
X152779285Y-111185714D02*
X152779285Y-111709523D01*
X152750714Y-111804761D01*
X152693571Y-111852380D01*
X152607857Y-111852380D01*
X152550714Y-111804761D01*
X152522142Y-111757142D01*
X152236428Y-111185714D02*
X152236428Y-112185714D01*
X152236428Y-111233333D02*
X152179285Y-111185714D01*
X152065000Y-111185714D01*
X152007857Y-111233333D01*
X151979285Y-111280952D01*
X151950714Y-111376190D01*
X151950714Y-111661904D01*
X151979285Y-111757142D01*
X152007857Y-111804761D01*
X152065000Y-111852380D01*
X152179285Y-111852380D01*
X152236428Y-111804761D01*
X151693571Y-111757142D02*
X151665000Y-111804761D01*
X151693571Y-111852380D01*
X151722142Y-111804761D01*
X151693571Y-111757142D01*
X151693571Y-111852380D01*
X151693571Y-111233333D02*
X151665000Y-111280952D01*
X151693571Y-111328571D01*
X151722142Y-111280952D01*
X151693571Y-111233333D01*
X151693571Y-111328571D01*
X150979285Y-110947619D02*
X150950714Y-110900000D01*
X150893571Y-110852380D01*
X150750714Y-110852380D01*
X150693571Y-110900000D01*
X150665000Y-110947619D01*
X150636428Y-111042857D01*
X150636428Y-111138095D01*
X150665000Y-111280952D01*
X151007857Y-111852380D01*
X150636428Y-111852380D01*
X150379285Y-111852380D02*
X150379285Y-110852380D01*
X150322142Y-111471428D02*
X150150714Y-111852380D01*
X150150714Y-111185714D02*
X150379285Y-111566666D01*
X149922142Y-110947619D02*
X149893571Y-110900000D01*
X149836428Y-110852380D01*
X149693571Y-110852380D01*
X149636428Y-110900000D01*
X149607857Y-110947619D01*
X149579285Y-111042857D01*
X149579285Y-111138095D01*
X149607857Y-111280952D01*
X149950714Y-111852380D01*
X149579285Y-111852380D01*
X157693571Y-112452380D02*
X157350714Y-112452380D01*
X157522142Y-113452380D02*
X157522142Y-112452380D01*
X156922142Y-113404761D02*
X156979285Y-113452380D01*
X157093571Y-113452380D01*
X157150714Y-113404761D01*
X157179285Y-113309523D01*
X157179285Y-112928571D01*
X157150714Y-112833333D01*
X157093571Y-112785714D01*
X156979285Y-112785714D01*
X156922142Y-112833333D01*
X156893571Y-112928571D01*
X156893571Y-113023809D01*
X157179285Y-113119047D01*
X156636428Y-113452380D02*
X156636428Y-112785714D01*
X156636428Y-112976190D02*
X156607857Y-112880952D01*
X156579285Y-112833333D01*
X156522142Y-112785714D01*
X156465000Y-112785714D01*
X156265000Y-113452380D02*
X156265000Y-112785714D01*
X156265000Y-112880952D02*
X156236428Y-112833333D01*
X156179285Y-112785714D01*
X156093571Y-112785714D01*
X156036428Y-112833333D01*
X156007857Y-112928571D01*
X156007857Y-113452380D01*
X156007857Y-112928571D02*
X155979285Y-112833333D01*
X155922142Y-112785714D01*
X155836428Y-112785714D01*
X155779285Y-112833333D01*
X155750714Y-112928571D01*
X155750714Y-113452380D01*
X155465000Y-113452380D02*
X155465000Y-112785714D01*
X155465000Y-112452380D02*
X155493571Y-112500000D01*
X155465000Y-112547619D01*
X155436428Y-112500000D01*
X155465000Y-112452380D01*
X155465000Y-112547619D01*
X155179285Y-112785714D02*
X155179285Y-113452380D01*
X155179285Y-112880952D02*
X155150714Y-112833333D01*
X155093571Y-112785714D01*
X155007857Y-112785714D01*
X154950714Y-112833333D01*
X154922142Y-112928571D01*
X154922142Y-113452380D01*
X154379285Y-113452380D02*
X154379285Y-112928571D01*
X154407857Y-112833333D01*
X154465000Y-112785714D01*
X154579285Y-112785714D01*
X154636428Y-112833333D01*
X154379285Y-113404761D02*
X154436428Y-113452380D01*
X154579285Y-113452380D01*
X154636428Y-113404761D01*
X154665000Y-113309523D01*
X154665000Y-113214285D01*
X154636428Y-113119047D01*
X154579285Y-113071428D01*
X154436428Y-113071428D01*
X154379285Y-113023809D01*
X154179285Y-112785714D02*
X153950714Y-112785714D01*
X154093571Y-112452380D02*
X154093571Y-113309523D01*
X154065000Y-113404761D01*
X154007857Y-113452380D01*
X153950714Y-113452380D01*
X153750714Y-113452380D02*
X153750714Y-112785714D01*
X153750714Y-112452380D02*
X153779285Y-112500000D01*
X153750714Y-112547619D01*
X153722142Y-112500000D01*
X153750714Y-112452380D01*
X153750714Y-112547619D01*
X153379285Y-113452380D02*
X153436428Y-113404761D01*
X153465000Y-113357142D01*
X153493571Y-113261904D01*
X153493571Y-112976190D01*
X153465000Y-112880952D01*
X153436428Y-112833333D01*
X153379285Y-112785714D01*
X153293571Y-112785714D01*
X153236428Y-112833333D01*
X153207857Y-112880952D01*
X153179285Y-112976190D01*
X153179285Y-113261904D01*
X153207857Y-113357142D01*
X153236428Y-113404761D01*
X153293571Y-113452380D01*
X153379285Y-113452380D01*
X152922142Y-112785714D02*
X152922142Y-113452380D01*
X152922142Y-112880952D02*
X152893571Y-112833333D01*
X152836428Y-112785714D01*
X152750714Y-112785714D01*
X152693571Y-112833333D01*
X152665000Y-112928571D01*
X152665000Y-113452380D01*
X152379285Y-113357142D02*
X152350714Y-113404761D01*
X152379285Y-113452380D01*
X152407857Y-113404761D01*
X152379285Y-113357142D01*
X152379285Y-113452380D01*
X152379285Y-112833333D02*
X152350714Y-112880952D01*
X152379285Y-112928571D01*
X152407857Y-112880952D01*
X152379285Y-112833333D01*
X152379285Y-112928571D01*
X151322142Y-113452380D02*
X151665000Y-113452380D01*
X151493571Y-113452380D02*
X151493571Y-112452380D01*
X151550714Y-112595238D01*
X151607857Y-112690476D01*
X151665000Y-112738095D01*
X150950714Y-112452380D02*
X150893571Y-112452380D01*
X150836428Y-112500000D01*
X150807857Y-112547619D01*
X150779285Y-112642857D01*
X150750714Y-112833333D01*
X150750714Y-113071428D01*
X150779285Y-113261904D01*
X150807857Y-113357142D01*
X150836428Y-113404761D01*
X150893571Y-113452380D01*
X150950714Y-113452380D01*
X151007857Y-113404761D01*
X151036428Y-113357142D01*
X151065000Y-113261904D01*
X151093571Y-113071428D01*
X151093571Y-112833333D01*
X151065000Y-112642857D01*
X151036428Y-112547619D01*
X151007857Y-112500000D01*
X150950714Y-112452380D01*
X150379285Y-112452380D02*
X150322142Y-112452380D01*
X150265000Y-112500000D01*
X150236428Y-112547619D01*
X150207857Y-112642857D01*
X150179285Y-112833333D01*
X150179285Y-113071428D01*
X150207857Y-113261904D01*
X150236428Y-113357142D01*
X150265000Y-113404761D01*
X150322142Y-113452380D01*
X150379285Y-113452380D01*
X150436428Y-113404761D01*
X150465000Y-113357142D01*
X150493571Y-113261904D01*
X150522142Y-113071428D01*
X150522142Y-112833333D01*
X150493571Y-112642857D01*
X150465000Y-112547619D01*
X150436428Y-112500000D01*
X150379285Y-112452380D01*
X149579285Y-113452380D02*
X149779285Y-112976190D01*
X149922142Y-113452380D02*
X149922142Y-112452380D01*
X149693571Y-112452380D01*
X149636428Y-112500000D01*
X149607857Y-112547619D01*
X149579285Y-112642857D01*
X149579285Y-112785714D01*
X149607857Y-112880952D01*
X149636428Y-112928571D01*
X149693571Y-112976190D01*
X149922142Y-112976190D01*
X156465000Y-115052380D02*
X156465000Y-114052380D01*
X156236428Y-114052380D01*
X156179285Y-114100000D01*
X156150714Y-114147619D01*
X156122142Y-114242857D01*
X156122142Y-114385714D01*
X156150714Y-114480952D01*
X156179285Y-114528571D01*
X156236428Y-114576190D01*
X156465000Y-114576190D01*
X155607857Y-114385714D02*
X155607857Y-115052380D01*
X155865000Y-114385714D02*
X155865000Y-114909523D01*
X155836428Y-115004761D01*
X155779285Y-115052380D01*
X155693571Y-115052380D01*
X155636428Y-115004761D01*
X155607857Y-114957142D01*
X155236428Y-115052380D02*
X155293571Y-115004761D01*
X155322142Y-114909523D01*
X155322142Y-114052380D01*
X154922142Y-115052380D02*
X154979285Y-115004761D01*
X155007857Y-114909523D01*
X155007857Y-114052380D01*
X154693571Y-114671428D02*
X154236428Y-114671428D01*
X153693571Y-115052380D02*
X153693571Y-114052380D01*
X153693571Y-115004761D02*
X153750714Y-115052380D01*
X153865000Y-115052380D01*
X153922142Y-115004761D01*
X153950714Y-114957142D01*
X153979285Y-114861904D01*
X153979285Y-114576190D01*
X153950714Y-114480952D01*
X153922142Y-114433333D01*
X153865000Y-114385714D01*
X153750714Y-114385714D01*
X153693571Y-114433333D01*
X153322142Y-115052380D02*
X153379285Y-115004761D01*
X153407857Y-114957142D01*
X153436428Y-114861904D01*
X153436428Y-114576190D01*
X153407857Y-114480952D01*
X153379285Y-114433333D01*
X153322142Y-114385714D01*
X153236428Y-114385714D01*
X153179285Y-114433333D01*
X153150714Y-114480952D01*
X153122142Y-114576190D01*
X153122142Y-114861904D01*
X153150714Y-114957142D01*
X153179285Y-115004761D01*
X153236428Y-115052380D01*
X153322142Y-115052380D01*
X152922142Y-114385714D02*
X152807857Y-115052380D01*
X152693571Y-114576190D01*
X152579285Y-115052380D01*
X152465000Y-114385714D01*
X152236428Y-114385714D02*
X152236428Y-115052380D01*
X152236428Y-114480952D02*
X152207857Y-114433333D01*
X152150714Y-114385714D01*
X152065000Y-114385714D01*
X152007857Y-114433333D01*
X151979285Y-114528571D01*
X151979285Y-115052380D01*
X151693571Y-114957142D02*
X151665000Y-115004761D01*
X151693571Y-115052380D01*
X151722142Y-115004761D01*
X151693571Y-114957142D01*
X151693571Y-115052380D01*
X151693571Y-114433333D02*
X151665000Y-114480952D01*
X151693571Y-114528571D01*
X151722142Y-114480952D01*
X151693571Y-114433333D01*
X151693571Y-114528571D01*
X150979285Y-114147619D02*
X150950714Y-114100000D01*
X150893571Y-114052380D01*
X150750714Y-114052380D01*
X150693571Y-114100000D01*
X150665000Y-114147619D01*
X150636428Y-114242857D01*
X150636428Y-114338095D01*
X150665000Y-114480952D01*
X151007857Y-115052380D01*
X150636428Y-115052380D01*
X150379285Y-115052380D02*
X150379285Y-114052380D01*
X150322142Y-114671428D02*
X150150714Y-115052380D01*
X150150714Y-114385714D02*
X150379285Y-114766666D01*
X149922142Y-114147619D02*
X149893571Y-114100000D01*
X149836428Y-114052380D01*
X149693571Y-114052380D01*
X149636428Y-114100000D01*
X149607857Y-114147619D01*
X149579285Y-114242857D01*
X149579285Y-114338095D01*
X149607857Y-114480952D01*
X149950714Y-115052380D01*
X149579285Y-115052380D01*
D16*
G04 #@! TO.C,R18*
X137540000Y-91521252D02*
X137540000Y-90998748D01*
X138960000Y-91521252D02*
X138960000Y-90998748D01*
G04 #@! TO.C,R19*
X137540000Y-96323748D02*
X137540000Y-96846252D01*
X138960000Y-96323748D02*
X138960000Y-96846252D01*
G04 #@! TO.C,R23*
X140230000Y-86798748D02*
X140230000Y-87321252D01*
X138810000Y-86798748D02*
X138810000Y-87321252D01*
G04 #@! TO.C,R24*
X163194000Y-81718748D02*
X163194000Y-82241252D01*
X164614000Y-81718748D02*
X164614000Y-82241252D01*
G04 #@! TO.C,R25*
X164614000Y-85782748D02*
X164614000Y-86305252D01*
X163194000Y-85782748D02*
X163194000Y-86305252D01*
G04 #@! TO.C,R26*
X140842000Y-82734748D02*
X140842000Y-83257252D01*
X142262000Y-82734748D02*
X142262000Y-83257252D01*
G04 #@! TO.C,R27*
X142262000Y-86798748D02*
X142262000Y-87321252D01*
X140842000Y-86798748D02*
X140842000Y-87321252D01*
G04 #@! TO.C,R28*
X165226000Y-81718748D02*
X165226000Y-82241252D01*
X166646000Y-81718748D02*
X166646000Y-82241252D01*
G04 #@! TO.C,R29*
X166646000Y-85782748D02*
X166646000Y-86305252D01*
X165226000Y-85782748D02*
X165226000Y-86305252D01*
G04 #@! TO.C,R30*
X142874000Y-82734748D02*
X142874000Y-83257252D01*
X144294000Y-82734748D02*
X144294000Y-83257252D01*
G04 #@! TO.C,R32*
X168678000Y-81718748D02*
X168678000Y-82241252D01*
X167258000Y-81718748D02*
X167258000Y-82241252D01*
G04 #@! TO.C,R33*
X167258000Y-85782748D02*
X167258000Y-86305252D01*
X168678000Y-85782748D02*
X168678000Y-86305252D01*
G04 #@! TO.C,R34*
X146326000Y-82734748D02*
X146326000Y-83257252D01*
X144906000Y-82734748D02*
X144906000Y-83257252D01*
G04 #@! TO.C,R35*
X144906000Y-86798748D02*
X144906000Y-87321252D01*
X146326000Y-86798748D02*
X146326000Y-87321252D01*
G04 #@! TO.C,R36*
X170710000Y-81718748D02*
X170710000Y-82241252D01*
X169290000Y-81718748D02*
X169290000Y-82241252D01*
G04 #@! TO.C,R37*
X169290000Y-85782748D02*
X169290000Y-86305252D01*
X170710000Y-85782748D02*
X170710000Y-86305252D01*
G04 #@! TO.C,R22*
X140230000Y-82734748D02*
X140230000Y-83257252D01*
X138810000Y-82734748D02*
X138810000Y-83257252D01*
G04 #@! TO.C,R21*
X171830000Y-85782748D02*
X171830000Y-86305252D01*
X173250000Y-85782748D02*
X173250000Y-86305252D01*
G04 #@! TO.C,R20*
X173250000Y-90871748D02*
X173250000Y-91394252D01*
X171830000Y-90871748D02*
X171830000Y-91394252D01*
G04 #@! TO.C,R31*
X142874000Y-86798748D02*
X142874000Y-87321252D01*
X144294000Y-86798748D02*
X144294000Y-87321252D01*
G04 #@! TO.C,R13*
X139710000Y-116238748D02*
X139710000Y-116761252D01*
X138290000Y-116238748D02*
X138290000Y-116761252D01*
G04 #@! TO.C,R14*
X142290000Y-116213748D02*
X142290000Y-116736252D01*
X143710000Y-116213748D02*
X143710000Y-116736252D01*
G04 #@! TO.C,R15*
X145710000Y-116213748D02*
X145710000Y-116736252D01*
X144290000Y-116213748D02*
X144290000Y-116736252D01*
G04 #@! TO.C,R16*
X140336252Y-112890000D02*
X139813748Y-112890000D01*
X140336252Y-114310000D02*
X139813748Y-114310000D01*
G04 #@! TO.C,R17*
X144161252Y-114310000D02*
X143638748Y-114310000D01*
X144161252Y-112890000D02*
X143638748Y-112890000D01*
G04 #@! TO.C,R12*
X140290000Y-116238748D02*
X140290000Y-116761252D01*
X141710000Y-116238748D02*
X141710000Y-116761252D01*
G04 #@! TO.C,R8*
X140290000Y-110438748D02*
X140290000Y-110961252D01*
X141710000Y-110438748D02*
X141710000Y-110961252D01*
G04 #@! TO.C,R9*
X139710000Y-110438748D02*
X139710000Y-110961252D01*
X138290000Y-110438748D02*
X138290000Y-110961252D01*
G04 #@! TO.C,R10*
X142290000Y-110438748D02*
X142290000Y-110961252D01*
X143710000Y-110438748D02*
X143710000Y-110961252D01*
G04 #@! TO.C,R11*
X145710000Y-110438748D02*
X145710000Y-110961252D01*
X144290000Y-110438748D02*
X144290000Y-110961252D01*
G04 #@! TD*
M02*
