M48
;DRILL file {KiCad 5.0.0} date Sun Oct 21 13:39:15 2018
;FORMAT={-:-/ absolute / metric / decimal}
FMAT,2
METRIC,TZ
T1C0.400
T2C0.500
T3C1.000
T4C1.200
T5C3.000
%
G90
G05
M71
T1
X139.Y-117.525
X139.05Y-113.6
X139.408Y-77.889
X139.408Y-121.994
X139.52Y-86.035
X139.535Y-100.25
X141.Y-117.525
X141.1Y-113.6
X141.44Y-103.425
X141.552Y-86.035
X142.875Y-113.6
X143.Y-117.5
X143.075Y-107.4
X143.584Y-86.035
X143.853Y-92.37
X143.853Y-97.97
X144.733Y-104.06
X144.925Y-113.6
X145.Y-117.5
X145.125Y-107.4
X145.616Y-86.035
X146.75Y-106.798
X146.783Y-104.06
X147.028Y-108.124
X147.917Y-88.829
X149.037Y-105.23
X149.06Y-98.345
X149.06Y-114.483
X149.083Y-104.16
X149.441Y-80.302
X150.205Y-84.725
X150.965Y-97.075
X151.346Y-114.483
X151.375Y-82.125
X152.645Y-84.725
X152.645Y-94.125
X153.915Y-84.725
X155.029Y-112.306
X155.105Y-82.125
X155.185Y-84.725
X155.274Y-96.694
X155.288Y-93.688
X156.167Y-94.413
X156.455Y-84.725
X156.555Y-82.125
X157.725Y-84.725
X157.95Y-91.36
X159.034Y-94.129
X159.173Y-105.477
X160.178Y-105.31
X160.265Y-82.125
X160.265Y-84.725
X160.265Y-94.125
X160.296Y-103.761
X161.506Y-96.939
X161.535Y-94.125
X161.628Y-105.164
X163.538Y-96.939
X163.632Y-100.504
X163.904Y-83.005
X163.904Y-87.069
X165.316Y-113.975
X165.428Y-85.536
X167.348Y-113.975
X167.673Y-104.363
X167.968Y-85.019
X168.809Y-101.998
X169.032Y-100.504
X170.Y-80.955
X170.Y-85.019
X170.36Y-121.95
X170.508Y-76.392
T2
X172.75Y-80.
X173.409Y-78.409
X173.409Y-81.591
X175.Y-77.75
X175.Y-82.25
X176.591Y-78.409
X176.591Y-81.591
X177.25Y-80.
X132.75Y-80.
X133.409Y-78.409
X133.409Y-81.591
X135.Y-77.75
X135.Y-82.25
X136.591Y-78.409
X136.591Y-81.591
X137.25Y-80.
X172.75Y-120.
X173.409Y-118.409
X173.409Y-121.591
X175.Y-117.75
X175.Y-122.25
X176.591Y-118.409
X176.591Y-121.591
X177.25Y-120.
X132.75Y-120.
X133.409Y-118.409
X133.409Y-121.591
X135.Y-117.75
X135.Y-122.25
X136.591Y-118.409
X136.591Y-121.591
X137.25Y-120.
T3
X144.84Y-120.
X144.84Y-122.54
X147.38Y-120.
X147.38Y-122.54
X149.92Y-120.
X149.92Y-122.54
X152.46Y-120.
X152.46Y-122.54
X155.Y-120.
X155.Y-122.54
X157.54Y-120.
X157.54Y-122.54
X160.08Y-120.
X160.08Y-122.54
X162.62Y-120.
X162.62Y-122.54
X165.16Y-120.
X165.16Y-122.54
T4
X167.46Y-89.6
X167.46Y-92.14
X167.46Y-94.68
X167.46Y-97.22
X135.Y-85.
X135.Y-87.54
X135.Y-90.08
X135.Y-92.62
X135.Y-95.16
X135.Y-97.7
X135.Y-102.3
X135.Y-104.84
X135.Y-107.38
X135.Y-109.92
X135.Y-112.46
X135.Y-115.
X175.Y-84.8
X175.Y-87.34
X175.Y-89.88
X175.Y-92.42
X175.Y-94.96
X175.Y-97.5
X175.Y-102.3
X175.Y-104.84
X175.Y-107.38
X175.Y-109.92
X175.Y-112.46
X175.Y-115.
T5
X175.Y-80.
X135.Y-80.
X175.Y-120.
X135.Y-120.
T0
M30
