G04 #@! TF.GenerationSoftware,KiCad,Pcbnew,5.0.0*
G04 #@! TF.CreationDate,2018-10-21T13:39:10+10:00*
G04 #@! TF.ProjectId,controller,636F6E74726F6C6C65722E6B69636164,rev?*
G04 #@! TF.SameCoordinates,Original*
G04 #@! TF.FileFunction,Copper,L4,Bot,Signal*
G04 #@! TF.FilePolarity,Positive*
%FSLAX46Y46*%
G04 Gerber Fmt 4.6, Leading zero omitted, Abs format (unit mm)*
G04 Created by KiCad (PCBNEW 5.0.0) date Sun Oct 21 13:39:10 2018*
%MOMM*%
%LPD*%
G01*
G04 APERTURE LIST*
%ADD10C,0.100000*%
%ADD11C,0.150000*%
%ADD12C,0.300000*%
%ADD13C,0.400000*%
G04 #@! TA.AperFunction,Conductor*
%ADD14C,0.100000*%
G04 #@! TD*
G04 #@! TA.AperFunction,SMDPad,CuDef*
%ADD15C,1.150000*%
G04 #@! TD*
G04 #@! TA.AperFunction,ComponentPad*
%ADD16R,2.200000X1.740000*%
G04 #@! TD*
G04 #@! TA.AperFunction,ComponentPad*
%ADD17O,2.200000X1.740000*%
G04 #@! TD*
G04 #@! TA.AperFunction,ComponentPad*
%ADD18R,1.700000X1.700000*%
G04 #@! TD*
G04 #@! TA.AperFunction,ComponentPad*
%ADD19O,1.700000X1.700000*%
G04 #@! TD*
G04 #@! TA.AperFunction,ComponentPad*
%ADD20C,0.800000*%
G04 #@! TD*
G04 #@! TA.AperFunction,ComponentPad*
%ADD21C,6.000000*%
G04 #@! TD*
G04 #@! TA.AperFunction,ViaPad*
%ADD22C,0.800000*%
G04 #@! TD*
G04 #@! TA.AperFunction,Conductor*
%ADD23C,0.250000*%
G04 #@! TD*
G04 #@! TA.AperFunction,Conductor*
%ADD24C,0.200000*%
G04 #@! TD*
G04 #@! TA.AperFunction,Conductor*
%ADD25C,0.254000*%
G04 #@! TD*
G04 APERTURE END LIST*
D10*
D11*
X177002200Y-166007200D02*
X177002200Y-198007200D01*
X285002200Y-198007200D01*
X285002200Y-166007200D01*
X177002200Y-166007200D01*
D10*
D11*
X10000000Y-10000000D02*
X10000000Y-200007200D01*
X287002200Y-200007200D01*
X287002200Y-10000000D01*
X10000000Y-10000000D01*
D10*
D11*
X12000000Y-12000000D02*
X12000000Y-198007200D01*
X285002200Y-198007200D01*
X285002200Y-12000000D01*
X12000000Y-12000000D01*
D10*
D11*
X60000000Y-12000000D02*
X60000000Y-10000000D01*
D10*
D11*
X110000000Y-12000000D02*
X110000000Y-10000000D01*
D10*
D11*
X160000000Y-12000000D02*
X160000000Y-10000000D01*
D10*
D11*
X210000000Y-12000000D02*
X210000000Y-10000000D01*
D10*
D11*
X260000000Y-12000000D02*
X260000000Y-10000000D01*
D10*
D11*
X36065476Y-11588095D02*
X35322619Y-11588095D01*
X35694047Y-11588095D02*
X35694047Y-10288095D01*
X35570238Y-10473809D01*
X35446428Y-10597619D01*
X35322619Y-10659523D01*
D10*
D11*
X85322619Y-10411904D02*
X85384523Y-10350000D01*
X85508333Y-10288095D01*
X85817857Y-10288095D01*
X85941666Y-10350000D01*
X86003571Y-10411904D01*
X86065476Y-10535714D01*
X86065476Y-10659523D01*
X86003571Y-10845238D01*
X85260714Y-11588095D01*
X86065476Y-11588095D01*
D10*
D11*
X135260714Y-10288095D02*
X136065476Y-10288095D01*
X135632142Y-10783333D01*
X135817857Y-10783333D01*
X135941666Y-10845238D01*
X136003571Y-10907142D01*
X136065476Y-11030952D01*
X136065476Y-11340476D01*
X136003571Y-11464285D01*
X135941666Y-11526190D01*
X135817857Y-11588095D01*
X135446428Y-11588095D01*
X135322619Y-11526190D01*
X135260714Y-11464285D01*
D10*
D11*
X185941666Y-10721428D02*
X185941666Y-11588095D01*
X185632142Y-10226190D02*
X185322619Y-11154761D01*
X186127380Y-11154761D01*
D10*
D11*
X236003571Y-10288095D02*
X235384523Y-10288095D01*
X235322619Y-10907142D01*
X235384523Y-10845238D01*
X235508333Y-10783333D01*
X235817857Y-10783333D01*
X235941666Y-10845238D01*
X236003571Y-10907142D01*
X236065476Y-11030952D01*
X236065476Y-11340476D01*
X236003571Y-11464285D01*
X235941666Y-11526190D01*
X235817857Y-11588095D01*
X235508333Y-11588095D01*
X235384523Y-11526190D01*
X235322619Y-11464285D01*
D10*
D11*
X285941666Y-10288095D02*
X285694047Y-10288095D01*
X285570238Y-10350000D01*
X285508333Y-10411904D01*
X285384523Y-10597619D01*
X285322619Y-10845238D01*
X285322619Y-11340476D01*
X285384523Y-11464285D01*
X285446428Y-11526190D01*
X285570238Y-11588095D01*
X285817857Y-11588095D01*
X285941666Y-11526190D01*
X286003571Y-11464285D01*
X286065476Y-11340476D01*
X286065476Y-11030952D01*
X286003571Y-10907142D01*
X285941666Y-10845238D01*
X285817857Y-10783333D01*
X285570238Y-10783333D01*
X285446428Y-10845238D01*
X285384523Y-10907142D01*
X285322619Y-11030952D01*
D10*
D11*
X60000000Y-198007200D02*
X60000000Y-200007200D01*
D10*
D11*
X110000000Y-198007200D02*
X110000000Y-200007200D01*
D10*
D11*
X160000000Y-198007200D02*
X160000000Y-200007200D01*
D10*
D11*
X210000000Y-198007200D02*
X210000000Y-200007200D01*
D10*
D11*
X260000000Y-198007200D02*
X260000000Y-200007200D01*
D10*
D11*
X36065476Y-199595295D02*
X35322619Y-199595295D01*
X35694047Y-199595295D02*
X35694047Y-198295295D01*
X35570238Y-198481009D01*
X35446428Y-198604819D01*
X35322619Y-198666723D01*
D10*
D11*
X85322619Y-198419104D02*
X85384523Y-198357200D01*
X85508333Y-198295295D01*
X85817857Y-198295295D01*
X85941666Y-198357200D01*
X86003571Y-198419104D01*
X86065476Y-198542914D01*
X86065476Y-198666723D01*
X86003571Y-198852438D01*
X85260714Y-199595295D01*
X86065476Y-199595295D01*
D10*
D11*
X135260714Y-198295295D02*
X136065476Y-198295295D01*
X135632142Y-198790533D01*
X135817857Y-198790533D01*
X135941666Y-198852438D01*
X136003571Y-198914342D01*
X136065476Y-199038152D01*
X136065476Y-199347676D01*
X136003571Y-199471485D01*
X135941666Y-199533390D01*
X135817857Y-199595295D01*
X135446428Y-199595295D01*
X135322619Y-199533390D01*
X135260714Y-199471485D01*
D10*
D11*
X185941666Y-198728628D02*
X185941666Y-199595295D01*
X185632142Y-198233390D02*
X185322619Y-199161961D01*
X186127380Y-199161961D01*
D10*
D11*
X236003571Y-198295295D02*
X235384523Y-198295295D01*
X235322619Y-198914342D01*
X235384523Y-198852438D01*
X235508333Y-198790533D01*
X235817857Y-198790533D01*
X235941666Y-198852438D01*
X236003571Y-198914342D01*
X236065476Y-199038152D01*
X236065476Y-199347676D01*
X236003571Y-199471485D01*
X235941666Y-199533390D01*
X235817857Y-199595295D01*
X235508333Y-199595295D01*
X235384523Y-199533390D01*
X235322619Y-199471485D01*
D10*
D11*
X285941666Y-198295295D02*
X285694047Y-198295295D01*
X285570238Y-198357200D01*
X285508333Y-198419104D01*
X285384523Y-198604819D01*
X285322619Y-198852438D01*
X285322619Y-199347676D01*
X285384523Y-199471485D01*
X285446428Y-199533390D01*
X285570238Y-199595295D01*
X285817857Y-199595295D01*
X285941666Y-199533390D01*
X286003571Y-199471485D01*
X286065476Y-199347676D01*
X286065476Y-199038152D01*
X286003571Y-198914342D01*
X285941666Y-198852438D01*
X285817857Y-198790533D01*
X285570238Y-198790533D01*
X285446428Y-198852438D01*
X285384523Y-198914342D01*
X285322619Y-199038152D01*
D10*
D11*
X10000000Y-60000000D02*
X12000000Y-60000000D01*
D10*
D11*
X10000000Y-110000000D02*
X12000000Y-110000000D01*
D10*
D11*
X10000000Y-160000000D02*
X12000000Y-160000000D01*
D10*
D11*
X10690476Y-35216666D02*
X11309523Y-35216666D01*
X10566666Y-35588095D02*
X11000000Y-34288095D01*
X11433333Y-35588095D01*
D10*
D11*
X11092857Y-84907142D02*
X11278571Y-84969047D01*
X11340476Y-85030952D01*
X11402380Y-85154761D01*
X11402380Y-85340476D01*
X11340476Y-85464285D01*
X11278571Y-85526190D01*
X11154761Y-85588095D01*
X10659523Y-85588095D01*
X10659523Y-84288095D01*
X11092857Y-84288095D01*
X11216666Y-84350000D01*
X11278571Y-84411904D01*
X11340476Y-84535714D01*
X11340476Y-84659523D01*
X11278571Y-84783333D01*
X11216666Y-84845238D01*
X11092857Y-84907142D01*
X10659523Y-84907142D01*
D10*
D11*
X11402380Y-135464285D02*
X11340476Y-135526190D01*
X11154761Y-135588095D01*
X11030952Y-135588095D01*
X10845238Y-135526190D01*
X10721428Y-135402380D01*
X10659523Y-135278571D01*
X10597619Y-135030952D01*
X10597619Y-134845238D01*
X10659523Y-134597619D01*
X10721428Y-134473809D01*
X10845238Y-134350000D01*
X11030952Y-134288095D01*
X11154761Y-134288095D01*
X11340476Y-134350000D01*
X11402380Y-134411904D01*
D10*
D11*
X10659523Y-185588095D02*
X10659523Y-184288095D01*
X10969047Y-184288095D01*
X11154761Y-184350000D01*
X11278571Y-184473809D01*
X11340476Y-184597619D01*
X11402380Y-184845238D01*
X11402380Y-185030952D01*
X11340476Y-185278571D01*
X11278571Y-185402380D01*
X11154761Y-185526190D01*
X10969047Y-185588095D01*
X10659523Y-185588095D01*
D10*
D11*
X287002200Y-60000000D02*
X285002200Y-60000000D01*
D10*
D11*
X287002200Y-110000000D02*
X285002200Y-110000000D01*
D10*
D11*
X287002200Y-160000000D02*
X285002200Y-160000000D01*
D10*
D11*
X285692676Y-35216666D02*
X286311723Y-35216666D01*
X285568866Y-35588095D02*
X286002200Y-34288095D01*
X286435533Y-35588095D01*
D10*
D11*
X286095057Y-84907142D02*
X286280771Y-84969047D01*
X286342676Y-85030952D01*
X286404580Y-85154761D01*
X286404580Y-85340476D01*
X286342676Y-85464285D01*
X286280771Y-85526190D01*
X286156961Y-85588095D01*
X285661723Y-85588095D01*
X285661723Y-84288095D01*
X286095057Y-84288095D01*
X286218866Y-84350000D01*
X286280771Y-84411904D01*
X286342676Y-84535714D01*
X286342676Y-84659523D01*
X286280771Y-84783333D01*
X286218866Y-84845238D01*
X286095057Y-84907142D01*
X285661723Y-84907142D01*
D10*
D11*
X286404580Y-135464285D02*
X286342676Y-135526190D01*
X286156961Y-135588095D01*
X286033152Y-135588095D01*
X285847438Y-135526190D01*
X285723628Y-135402380D01*
X285661723Y-135278571D01*
X285599819Y-135030952D01*
X285599819Y-134845238D01*
X285661723Y-134597619D01*
X285723628Y-134473809D01*
X285847438Y-134350000D01*
X286033152Y-134288095D01*
X286156961Y-134288095D01*
X286342676Y-134350000D01*
X286404580Y-134411904D01*
D10*
D11*
X285661723Y-185588095D02*
X285661723Y-184288095D01*
X285971247Y-184288095D01*
X286156961Y-184350000D01*
X286280771Y-184473809D01*
X286342676Y-184597619D01*
X286404580Y-184845238D01*
X286404580Y-185030952D01*
X286342676Y-185278571D01*
X286280771Y-185402380D01*
X286156961Y-185526190D01*
X285971247Y-185588095D01*
X285661723Y-185588095D01*
D10*
D11*
X200434342Y-193785771D02*
X200434342Y-192285771D01*
X200791485Y-192285771D01*
X201005771Y-192357200D01*
X201148628Y-192500057D01*
X201220057Y-192642914D01*
X201291485Y-192928628D01*
X201291485Y-193142914D01*
X201220057Y-193428628D01*
X201148628Y-193571485D01*
X201005771Y-193714342D01*
X200791485Y-193785771D01*
X200434342Y-193785771D01*
X202577200Y-193785771D02*
X202577200Y-193000057D01*
X202505771Y-192857200D01*
X202362914Y-192785771D01*
X202077200Y-192785771D01*
X201934342Y-192857200D01*
X202577200Y-193714342D02*
X202434342Y-193785771D01*
X202077200Y-193785771D01*
X201934342Y-193714342D01*
X201862914Y-193571485D01*
X201862914Y-193428628D01*
X201934342Y-193285771D01*
X202077200Y-193214342D01*
X202434342Y-193214342D01*
X202577200Y-193142914D01*
X203077200Y-192785771D02*
X203648628Y-192785771D01*
X203291485Y-192285771D02*
X203291485Y-193571485D01*
X203362914Y-193714342D01*
X203505771Y-193785771D01*
X203648628Y-193785771D01*
X204720057Y-193714342D02*
X204577200Y-193785771D01*
X204291485Y-193785771D01*
X204148628Y-193714342D01*
X204077200Y-193571485D01*
X204077200Y-193000057D01*
X204148628Y-192857200D01*
X204291485Y-192785771D01*
X204577200Y-192785771D01*
X204720057Y-192857200D01*
X204791485Y-193000057D01*
X204791485Y-193142914D01*
X204077200Y-193285771D01*
X205434342Y-193642914D02*
X205505771Y-193714342D01*
X205434342Y-193785771D01*
X205362914Y-193714342D01*
X205434342Y-193642914D01*
X205434342Y-193785771D01*
X205434342Y-192857200D02*
X205505771Y-192928628D01*
X205434342Y-193000057D01*
X205362914Y-192928628D01*
X205434342Y-192857200D01*
X205434342Y-193000057D01*
D10*
D11*
X177002200Y-194507200D02*
X285002200Y-194507200D01*
D10*
D11*
X178434342Y-196585771D02*
X178434342Y-195085771D01*
X179291485Y-196585771D02*
X178648628Y-195728628D01*
X179291485Y-195085771D02*
X178434342Y-195942914D01*
X179934342Y-196585771D02*
X179934342Y-195585771D01*
X179934342Y-195085771D02*
X179862914Y-195157200D01*
X179934342Y-195228628D01*
X180005771Y-195157200D01*
X179934342Y-195085771D01*
X179934342Y-195228628D01*
X181505771Y-196442914D02*
X181434342Y-196514342D01*
X181220057Y-196585771D01*
X181077200Y-196585771D01*
X180862914Y-196514342D01*
X180720057Y-196371485D01*
X180648628Y-196228628D01*
X180577200Y-195942914D01*
X180577200Y-195728628D01*
X180648628Y-195442914D01*
X180720057Y-195300057D01*
X180862914Y-195157200D01*
X181077200Y-195085771D01*
X181220057Y-195085771D01*
X181434342Y-195157200D01*
X181505771Y-195228628D01*
X182791485Y-196585771D02*
X182791485Y-195800057D01*
X182720057Y-195657200D01*
X182577200Y-195585771D01*
X182291485Y-195585771D01*
X182148628Y-195657200D01*
X182791485Y-196514342D02*
X182648628Y-196585771D01*
X182291485Y-196585771D01*
X182148628Y-196514342D01*
X182077200Y-196371485D01*
X182077200Y-196228628D01*
X182148628Y-196085771D01*
X182291485Y-196014342D01*
X182648628Y-196014342D01*
X182791485Y-195942914D01*
X184148628Y-196585771D02*
X184148628Y-195085771D01*
X184148628Y-196514342D02*
X184005771Y-196585771D01*
X183720057Y-196585771D01*
X183577200Y-196514342D01*
X183505771Y-196442914D01*
X183434342Y-196300057D01*
X183434342Y-195871485D01*
X183505771Y-195728628D01*
X183577200Y-195657200D01*
X183720057Y-195585771D01*
X184005771Y-195585771D01*
X184148628Y-195657200D01*
X186005771Y-195800057D02*
X186505771Y-195800057D01*
X186720057Y-196585771D02*
X186005771Y-196585771D01*
X186005771Y-195085771D01*
X186720057Y-195085771D01*
X187362914Y-196442914D02*
X187434342Y-196514342D01*
X187362914Y-196585771D01*
X187291485Y-196514342D01*
X187362914Y-196442914D01*
X187362914Y-196585771D01*
X188077200Y-196585771D02*
X188077200Y-195085771D01*
X188434342Y-195085771D01*
X188648628Y-195157200D01*
X188791485Y-195300057D01*
X188862914Y-195442914D01*
X188934342Y-195728628D01*
X188934342Y-195942914D01*
X188862914Y-196228628D01*
X188791485Y-196371485D01*
X188648628Y-196514342D01*
X188434342Y-196585771D01*
X188077200Y-196585771D01*
X189577200Y-196442914D02*
X189648628Y-196514342D01*
X189577200Y-196585771D01*
X189505771Y-196514342D01*
X189577200Y-196442914D01*
X189577200Y-196585771D01*
X190220057Y-196157200D02*
X190934342Y-196157200D01*
X190077200Y-196585771D02*
X190577200Y-195085771D01*
X191077200Y-196585771D01*
X191577200Y-196442914D02*
X191648628Y-196514342D01*
X191577200Y-196585771D01*
X191505771Y-196514342D01*
X191577200Y-196442914D01*
X191577200Y-196585771D01*
X194577200Y-196585771D02*
X194577200Y-195085771D01*
X194720057Y-196014342D02*
X195148628Y-196585771D01*
X195148628Y-195585771D02*
X194577200Y-196157200D01*
X195791485Y-196585771D02*
X195791485Y-195585771D01*
X195791485Y-195085771D02*
X195720057Y-195157200D01*
X195791485Y-195228628D01*
X195862914Y-195157200D01*
X195791485Y-195085771D01*
X195791485Y-195228628D01*
X197148628Y-196514342D02*
X197005771Y-196585771D01*
X196720057Y-196585771D01*
X196577200Y-196514342D01*
X196505771Y-196442914D01*
X196434342Y-196300057D01*
X196434342Y-195871485D01*
X196505771Y-195728628D01*
X196577200Y-195657200D01*
X196720057Y-195585771D01*
X197005771Y-195585771D01*
X197148628Y-195657200D01*
X198434342Y-196585771D02*
X198434342Y-195800057D01*
X198362914Y-195657200D01*
X198220057Y-195585771D01*
X197934342Y-195585771D01*
X197791485Y-195657200D01*
X198434342Y-196514342D02*
X198291485Y-196585771D01*
X197934342Y-196585771D01*
X197791485Y-196514342D01*
X197720057Y-196371485D01*
X197720057Y-196228628D01*
X197791485Y-196085771D01*
X197934342Y-196014342D01*
X198291485Y-196014342D01*
X198434342Y-195942914D01*
X199791485Y-196585771D02*
X199791485Y-195085771D01*
X199791485Y-196514342D02*
X199648628Y-196585771D01*
X199362914Y-196585771D01*
X199220057Y-196514342D01*
X199148628Y-196442914D01*
X199077200Y-196300057D01*
X199077200Y-195871485D01*
X199148628Y-195728628D01*
X199220057Y-195657200D01*
X199362914Y-195585771D01*
X199648628Y-195585771D01*
X199791485Y-195657200D01*
X202362914Y-195085771D02*
X201648628Y-195085771D01*
X201577200Y-195800057D01*
X201648628Y-195728628D01*
X201791485Y-195657200D01*
X202148628Y-195657200D01*
X202291485Y-195728628D01*
X202362914Y-195800057D01*
X202434342Y-195942914D01*
X202434342Y-196300057D01*
X202362914Y-196442914D01*
X202291485Y-196514342D01*
X202148628Y-196585771D01*
X201791485Y-196585771D01*
X201648628Y-196514342D01*
X201577200Y-196442914D01*
X203077200Y-196442914D02*
X203148628Y-196514342D01*
X203077200Y-196585771D01*
X203005771Y-196514342D01*
X203077200Y-196442914D01*
X203077200Y-196585771D01*
X204077200Y-195085771D02*
X204220057Y-195085771D01*
X204362914Y-195157200D01*
X204434342Y-195228628D01*
X204505771Y-195371485D01*
X204577200Y-195657200D01*
X204577200Y-196014342D01*
X204505771Y-196300057D01*
X204434342Y-196442914D01*
X204362914Y-196514342D01*
X204220057Y-196585771D01*
X204077200Y-196585771D01*
X203934342Y-196514342D01*
X203862914Y-196442914D01*
X203791485Y-196300057D01*
X203720057Y-196014342D01*
X203720057Y-195657200D01*
X203791485Y-195371485D01*
X203862914Y-195228628D01*
X203934342Y-195157200D01*
X204077200Y-195085771D01*
X205220057Y-196442914D02*
X205291485Y-196514342D01*
X205220057Y-196585771D01*
X205148628Y-196514342D01*
X205220057Y-196442914D01*
X205220057Y-196585771D01*
X206220057Y-195085771D02*
X206362914Y-195085771D01*
X206505771Y-195157200D01*
X206577200Y-195228628D01*
X206648628Y-195371485D01*
X206720057Y-195657200D01*
X206720057Y-196014342D01*
X206648628Y-196300057D01*
X206577200Y-196442914D01*
X206505771Y-196514342D01*
X206362914Y-196585771D01*
X206220057Y-196585771D01*
X206077200Y-196514342D01*
X206005771Y-196442914D01*
X205934342Y-196300057D01*
X205862914Y-196014342D01*
X205862914Y-195657200D01*
X205934342Y-195371485D01*
X206005771Y-195228628D01*
X206077200Y-195157200D01*
X206220057Y-195085771D01*
D10*
D11*
X177002200Y-191507200D02*
X285002200Y-191507200D01*
D10*
D12*
X264411485Y-193785771D02*
X263911485Y-193071485D01*
X263554342Y-193785771D02*
X263554342Y-192285771D01*
X264125771Y-192285771D01*
X264268628Y-192357200D01*
X264340057Y-192428628D01*
X264411485Y-192571485D01*
X264411485Y-192785771D01*
X264340057Y-192928628D01*
X264268628Y-193000057D01*
X264125771Y-193071485D01*
X263554342Y-193071485D01*
X265625771Y-193714342D02*
X265482914Y-193785771D01*
X265197200Y-193785771D01*
X265054342Y-193714342D01*
X264982914Y-193571485D01*
X264982914Y-193000057D01*
X265054342Y-192857200D01*
X265197200Y-192785771D01*
X265482914Y-192785771D01*
X265625771Y-192857200D01*
X265697200Y-193000057D01*
X265697200Y-193142914D01*
X264982914Y-193285771D01*
X266197200Y-192785771D02*
X266554342Y-193785771D01*
X266911485Y-192785771D01*
X267482914Y-193642914D02*
X267554342Y-193714342D01*
X267482914Y-193785771D01*
X267411485Y-193714342D01*
X267482914Y-193642914D01*
X267482914Y-193785771D01*
X267482914Y-192857200D02*
X267554342Y-192928628D01*
X267482914Y-193000057D01*
X267411485Y-192928628D01*
X267482914Y-192857200D01*
X267482914Y-193000057D01*
D10*
D11*
X178362914Y-193714342D02*
X178577200Y-193785771D01*
X178934342Y-193785771D01*
X179077200Y-193714342D01*
X179148628Y-193642914D01*
X179220057Y-193500057D01*
X179220057Y-193357200D01*
X179148628Y-193214342D01*
X179077200Y-193142914D01*
X178934342Y-193071485D01*
X178648628Y-193000057D01*
X178505771Y-192928628D01*
X178434342Y-192857200D01*
X178362914Y-192714342D01*
X178362914Y-192571485D01*
X178434342Y-192428628D01*
X178505771Y-192357200D01*
X178648628Y-192285771D01*
X179005771Y-192285771D01*
X179220057Y-192357200D01*
X179862914Y-193785771D02*
X179862914Y-192785771D01*
X179862914Y-192285771D02*
X179791485Y-192357200D01*
X179862914Y-192428628D01*
X179934342Y-192357200D01*
X179862914Y-192285771D01*
X179862914Y-192428628D01*
X180434342Y-192785771D02*
X181220057Y-192785771D01*
X180434342Y-193785771D01*
X181220057Y-193785771D01*
X182362914Y-193714342D02*
X182220057Y-193785771D01*
X181934342Y-193785771D01*
X181791485Y-193714342D01*
X181720057Y-193571485D01*
X181720057Y-193000057D01*
X181791485Y-192857200D01*
X181934342Y-192785771D01*
X182220057Y-192785771D01*
X182362914Y-192857200D01*
X182434342Y-193000057D01*
X182434342Y-193142914D01*
X181720057Y-193285771D01*
X183077200Y-193642914D02*
X183148628Y-193714342D01*
X183077200Y-193785771D01*
X183005771Y-193714342D01*
X183077200Y-193642914D01*
X183077200Y-193785771D01*
X183077200Y-192857200D02*
X183148628Y-192928628D01*
X183077200Y-193000057D01*
X183005771Y-192928628D01*
X183077200Y-192857200D01*
X183077200Y-193000057D01*
X184862914Y-193357200D02*
X185577200Y-193357200D01*
X184720057Y-193785771D02*
X185220057Y-192285771D01*
X185720057Y-193785771D01*
X186862914Y-192785771D02*
X186862914Y-193785771D01*
X186505771Y-192214342D02*
X186148628Y-193285771D01*
X187077200Y-193285771D01*
D10*
D11*
X263434342Y-196585771D02*
X263434342Y-195085771D01*
X264791485Y-196585771D02*
X264791485Y-195085771D01*
X264791485Y-196514342D02*
X264648628Y-196585771D01*
X264362914Y-196585771D01*
X264220057Y-196514342D01*
X264148628Y-196442914D01*
X264077200Y-196300057D01*
X264077200Y-195871485D01*
X264148628Y-195728628D01*
X264220057Y-195657200D01*
X264362914Y-195585771D01*
X264648628Y-195585771D01*
X264791485Y-195657200D01*
X265505771Y-196442914D02*
X265577200Y-196514342D01*
X265505771Y-196585771D01*
X265434342Y-196514342D01*
X265505771Y-196442914D01*
X265505771Y-196585771D01*
X265505771Y-195657200D02*
X265577200Y-195728628D01*
X265505771Y-195800057D01*
X265434342Y-195728628D01*
X265505771Y-195657200D01*
X265505771Y-195800057D01*
X268148628Y-196585771D02*
X267291485Y-196585771D01*
X267720057Y-196585771D02*
X267720057Y-195085771D01*
X267577200Y-195300057D01*
X267434342Y-195442914D01*
X267291485Y-195514342D01*
X269862914Y-195014342D02*
X268577200Y-196942914D01*
X271148628Y-196585771D02*
X270291485Y-196585771D01*
X270720057Y-196585771D02*
X270720057Y-195085771D01*
X270577200Y-195300057D01*
X270434342Y-195442914D01*
X270291485Y-195514342D01*
D10*
D11*
X177002200Y-187507200D02*
X285002200Y-187507200D01*
D10*
D13*
X178714580Y-188211961D02*
X179857438Y-188211961D01*
X179036009Y-190211961D02*
X179286009Y-188211961D01*
X180274104Y-190211961D02*
X180440771Y-188878628D01*
X180524104Y-188211961D02*
X180416961Y-188307200D01*
X180500295Y-188402438D01*
X180607438Y-188307200D01*
X180524104Y-188211961D01*
X180500295Y-188402438D01*
X181107438Y-188878628D02*
X181869342Y-188878628D01*
X181476485Y-188211961D02*
X181262200Y-189926247D01*
X181333628Y-190116723D01*
X181512200Y-190211961D01*
X181702676Y-190211961D01*
X182655057Y-190211961D02*
X182476485Y-190116723D01*
X182405057Y-189926247D01*
X182619342Y-188211961D01*
X184190771Y-190116723D02*
X183988390Y-190211961D01*
X183607438Y-190211961D01*
X183428866Y-190116723D01*
X183357438Y-189926247D01*
X183452676Y-189164342D01*
X183571723Y-188973866D01*
X183774104Y-188878628D01*
X184155057Y-188878628D01*
X184333628Y-188973866D01*
X184405057Y-189164342D01*
X184381247Y-189354819D01*
X183405057Y-189545295D01*
X185155057Y-190021485D02*
X185238390Y-190116723D01*
X185131247Y-190211961D01*
X185047914Y-190116723D01*
X185155057Y-190021485D01*
X185131247Y-190211961D01*
X185286009Y-188973866D02*
X185369342Y-189069104D01*
X185262200Y-189164342D01*
X185178866Y-189069104D01*
X185286009Y-188973866D01*
X185262200Y-189164342D01*
D10*
D11*
X178934342Y-185600057D02*
X178434342Y-185600057D01*
X178434342Y-186385771D02*
X178434342Y-184885771D01*
X179148628Y-184885771D01*
X179720057Y-186385771D02*
X179720057Y-185385771D01*
X179720057Y-184885771D02*
X179648628Y-184957200D01*
X179720057Y-185028628D01*
X179791485Y-184957200D01*
X179720057Y-184885771D01*
X179720057Y-185028628D01*
X180648628Y-186385771D02*
X180505771Y-186314342D01*
X180434342Y-186171485D01*
X180434342Y-184885771D01*
X181791485Y-186314342D02*
X181648628Y-186385771D01*
X181362914Y-186385771D01*
X181220057Y-186314342D01*
X181148628Y-186171485D01*
X181148628Y-185600057D01*
X181220057Y-185457200D01*
X181362914Y-185385771D01*
X181648628Y-185385771D01*
X181791485Y-185457200D01*
X181862914Y-185600057D01*
X181862914Y-185742914D01*
X181148628Y-185885771D01*
X182505771Y-186242914D02*
X182577200Y-186314342D01*
X182505771Y-186385771D01*
X182434342Y-186314342D01*
X182505771Y-186242914D01*
X182505771Y-186385771D01*
X182505771Y-185457200D02*
X182577200Y-185528628D01*
X182505771Y-185600057D01*
X182434342Y-185528628D01*
X182505771Y-185457200D01*
X182505771Y-185600057D01*
X185005771Y-186314342D02*
X184862914Y-186385771D01*
X184577200Y-186385771D01*
X184434342Y-186314342D01*
X184362914Y-186242914D01*
X184291485Y-186100057D01*
X184291485Y-185671485D01*
X184362914Y-185528628D01*
X184434342Y-185457200D01*
X184577200Y-185385771D01*
X184862914Y-185385771D01*
X185005771Y-185457200D01*
X185862914Y-186385771D02*
X185720057Y-186314342D01*
X185648628Y-186242914D01*
X185577200Y-186100057D01*
X185577200Y-185671485D01*
X185648628Y-185528628D01*
X185720057Y-185457200D01*
X185862914Y-185385771D01*
X186077200Y-185385771D01*
X186220057Y-185457200D01*
X186291485Y-185528628D01*
X186362914Y-185671485D01*
X186362914Y-186100057D01*
X186291485Y-186242914D01*
X186220057Y-186314342D01*
X186077200Y-186385771D01*
X185862914Y-186385771D01*
X187005771Y-185385771D02*
X187005771Y-186385771D01*
X187005771Y-185528628D02*
X187077200Y-185457200D01*
X187220057Y-185385771D01*
X187434342Y-185385771D01*
X187577200Y-185457200D01*
X187648628Y-185600057D01*
X187648628Y-186385771D01*
X188148628Y-185385771D02*
X188720057Y-185385771D01*
X188362914Y-184885771D02*
X188362914Y-186171485D01*
X188434342Y-186314342D01*
X188577200Y-186385771D01*
X188720057Y-186385771D01*
X189220057Y-186385771D02*
X189220057Y-185385771D01*
X189220057Y-185671485D02*
X189291485Y-185528628D01*
X189362914Y-185457200D01*
X189505771Y-185385771D01*
X189648628Y-185385771D01*
X190362914Y-186385771D02*
X190220057Y-186314342D01*
X190148628Y-186242914D01*
X190077200Y-186100057D01*
X190077200Y-185671485D01*
X190148628Y-185528628D01*
X190220057Y-185457200D01*
X190362914Y-185385771D01*
X190577200Y-185385771D01*
X190720057Y-185457200D01*
X190791485Y-185528628D01*
X190862914Y-185671485D01*
X190862914Y-186100057D01*
X190791485Y-186242914D01*
X190720057Y-186314342D01*
X190577200Y-186385771D01*
X190362914Y-186385771D01*
X191720057Y-186385771D02*
X191577200Y-186314342D01*
X191505771Y-186171485D01*
X191505771Y-184885771D01*
X192505771Y-186385771D02*
X192362914Y-186314342D01*
X192291485Y-186171485D01*
X192291485Y-184885771D01*
X193648628Y-186314342D02*
X193505771Y-186385771D01*
X193220057Y-186385771D01*
X193077200Y-186314342D01*
X193005771Y-186171485D01*
X193005771Y-185600057D01*
X193077200Y-185457200D01*
X193220057Y-185385771D01*
X193505771Y-185385771D01*
X193648628Y-185457200D01*
X193720057Y-185600057D01*
X193720057Y-185742914D01*
X193005771Y-185885771D01*
X194362914Y-186385771D02*
X194362914Y-185385771D01*
X194362914Y-185671485D02*
X194434342Y-185528628D01*
X194505771Y-185457200D01*
X194648628Y-185385771D01*
X194791485Y-185385771D01*
X195291485Y-186242914D02*
X195362914Y-186314342D01*
X195291485Y-186385771D01*
X195220057Y-186314342D01*
X195291485Y-186242914D01*
X195291485Y-186385771D01*
X196005771Y-186385771D02*
X196005771Y-184885771D01*
X196148628Y-185814342D02*
X196577200Y-186385771D01*
X196577200Y-185385771D02*
X196005771Y-185957200D01*
X197220057Y-186385771D02*
X197220057Y-185385771D01*
X197220057Y-184885771D02*
X197148628Y-184957200D01*
X197220057Y-185028628D01*
X197291485Y-184957200D01*
X197220057Y-184885771D01*
X197220057Y-185028628D01*
X198577200Y-186314342D02*
X198434342Y-186385771D01*
X198148628Y-186385771D01*
X198005771Y-186314342D01*
X197934342Y-186242914D01*
X197862914Y-186100057D01*
X197862914Y-185671485D01*
X197934342Y-185528628D01*
X198005771Y-185457200D01*
X198148628Y-185385771D01*
X198434342Y-185385771D01*
X198577200Y-185457200D01*
X199862914Y-186385771D02*
X199862914Y-185600057D01*
X199791485Y-185457200D01*
X199648628Y-185385771D01*
X199362914Y-185385771D01*
X199220057Y-185457200D01*
X199862914Y-186314342D02*
X199720057Y-186385771D01*
X199362914Y-186385771D01*
X199220057Y-186314342D01*
X199148628Y-186171485D01*
X199148628Y-186028628D01*
X199220057Y-185885771D01*
X199362914Y-185814342D01*
X199720057Y-185814342D01*
X199862914Y-185742914D01*
X201220057Y-186385771D02*
X201220057Y-184885771D01*
X201220057Y-186314342D02*
X201077200Y-186385771D01*
X200791485Y-186385771D01*
X200648628Y-186314342D01*
X200577200Y-186242914D01*
X200505771Y-186100057D01*
X200505771Y-185671485D01*
X200577200Y-185528628D01*
X200648628Y-185457200D01*
X200791485Y-185385771D01*
X201077200Y-185385771D01*
X201220057Y-185457200D01*
X201577200Y-186528628D02*
X202720057Y-186528628D01*
X203077200Y-185385771D02*
X203077200Y-186885771D01*
X203077200Y-185457200D02*
X203220057Y-185385771D01*
X203505771Y-185385771D01*
X203648628Y-185457200D01*
X203720057Y-185528628D01*
X203791485Y-185671485D01*
X203791485Y-186100057D01*
X203720057Y-186242914D01*
X203648628Y-186314342D01*
X203505771Y-186385771D01*
X203220057Y-186385771D01*
X203077200Y-186314342D01*
X205077200Y-186314342D02*
X204934342Y-186385771D01*
X204648628Y-186385771D01*
X204505771Y-186314342D01*
X204434342Y-186242914D01*
X204362914Y-186100057D01*
X204362914Y-185671485D01*
X204434342Y-185528628D01*
X204505771Y-185457200D01*
X204648628Y-185385771D01*
X204934342Y-185385771D01*
X205077200Y-185457200D01*
X205720057Y-186385771D02*
X205720057Y-184885771D01*
X205720057Y-185457200D02*
X205862914Y-185385771D01*
X206148628Y-185385771D01*
X206291485Y-185457200D01*
X206362914Y-185528628D01*
X206434342Y-185671485D01*
X206434342Y-186100057D01*
X206362914Y-186242914D01*
X206291485Y-186314342D01*
X206148628Y-186385771D01*
X205862914Y-186385771D01*
X205720057Y-186314342D01*
D10*
D11*
X177002200Y-181507200D02*
X285002200Y-181507200D01*
D10*
D11*
X178362914Y-183614342D02*
X178577200Y-183685771D01*
X178934342Y-183685771D01*
X179077200Y-183614342D01*
X179148628Y-183542914D01*
X179220057Y-183400057D01*
X179220057Y-183257200D01*
X179148628Y-183114342D01*
X179077200Y-183042914D01*
X178934342Y-182971485D01*
X178648628Y-182900057D01*
X178505771Y-182828628D01*
X178434342Y-182757200D01*
X178362914Y-182614342D01*
X178362914Y-182471485D01*
X178434342Y-182328628D01*
X178505771Y-182257200D01*
X178648628Y-182185771D01*
X179005771Y-182185771D01*
X179220057Y-182257200D01*
X179862914Y-183685771D02*
X179862914Y-182185771D01*
X180505771Y-183685771D02*
X180505771Y-182900057D01*
X180434342Y-182757200D01*
X180291485Y-182685771D01*
X180077200Y-182685771D01*
X179934342Y-182757200D01*
X179862914Y-182828628D01*
X181791485Y-183614342D02*
X181648628Y-183685771D01*
X181362914Y-183685771D01*
X181220057Y-183614342D01*
X181148628Y-183471485D01*
X181148628Y-182900057D01*
X181220057Y-182757200D01*
X181362914Y-182685771D01*
X181648628Y-182685771D01*
X181791485Y-182757200D01*
X181862914Y-182900057D01*
X181862914Y-183042914D01*
X181148628Y-183185771D01*
X183077200Y-183614342D02*
X182934342Y-183685771D01*
X182648628Y-183685771D01*
X182505771Y-183614342D01*
X182434342Y-183471485D01*
X182434342Y-182900057D01*
X182505771Y-182757200D01*
X182648628Y-182685771D01*
X182934342Y-182685771D01*
X183077200Y-182757200D01*
X183148628Y-182900057D01*
X183148628Y-183042914D01*
X182434342Y-183185771D01*
X183577200Y-182685771D02*
X184148628Y-182685771D01*
X183791485Y-182185771D02*
X183791485Y-183471485D01*
X183862914Y-183614342D01*
X184005771Y-183685771D01*
X184148628Y-183685771D01*
X184648628Y-183542914D02*
X184720057Y-183614342D01*
X184648628Y-183685771D01*
X184577200Y-183614342D01*
X184648628Y-183542914D01*
X184648628Y-183685771D01*
X184648628Y-182757200D02*
X184720057Y-182828628D01*
X184648628Y-182900057D01*
X184577200Y-182828628D01*
X184648628Y-182757200D01*
X184648628Y-182900057D01*
D10*
D11*
X197002200Y-191507200D02*
X197002200Y-194507200D01*
D10*
D11*
X261002200Y-191507200D02*
X261002200Y-198007200D01*
D14*
G04 #@! TO.N,/BUCK_HI+*
G04 #@! TO.C,R18*
G36*
X138724505Y-89661204D02*
X138748773Y-89664804D01*
X138772572Y-89670765D01*
X138795671Y-89679030D01*
X138817850Y-89689520D01*
X138838893Y-89702132D01*
X138858599Y-89716747D01*
X138876777Y-89733223D01*
X138893253Y-89751401D01*
X138907868Y-89771107D01*
X138920480Y-89792150D01*
X138930970Y-89814329D01*
X138939235Y-89837428D01*
X138945196Y-89861227D01*
X138948796Y-89885495D01*
X138950000Y-89909999D01*
X138950000Y-90560001D01*
X138948796Y-90584505D01*
X138945196Y-90608773D01*
X138939235Y-90632572D01*
X138930970Y-90655671D01*
X138920480Y-90677850D01*
X138907868Y-90698893D01*
X138893253Y-90718599D01*
X138876777Y-90736777D01*
X138858599Y-90753253D01*
X138838893Y-90767868D01*
X138817850Y-90780480D01*
X138795671Y-90790970D01*
X138772572Y-90799235D01*
X138748773Y-90805196D01*
X138724505Y-90808796D01*
X138700001Y-90810000D01*
X137799999Y-90810000D01*
X137775495Y-90808796D01*
X137751227Y-90805196D01*
X137727428Y-90799235D01*
X137704329Y-90790970D01*
X137682150Y-90780480D01*
X137661107Y-90767868D01*
X137641401Y-90753253D01*
X137623223Y-90736777D01*
X137606747Y-90718599D01*
X137592132Y-90698893D01*
X137579520Y-90677850D01*
X137569030Y-90655671D01*
X137560765Y-90632572D01*
X137554804Y-90608773D01*
X137551204Y-90584505D01*
X137550000Y-90560001D01*
X137550000Y-89909999D01*
X137551204Y-89885495D01*
X137554804Y-89861227D01*
X137560765Y-89837428D01*
X137569030Y-89814329D01*
X137579520Y-89792150D01*
X137592132Y-89771107D01*
X137606747Y-89751401D01*
X137623223Y-89733223D01*
X137641401Y-89716747D01*
X137661107Y-89702132D01*
X137682150Y-89689520D01*
X137704329Y-89679030D01*
X137727428Y-89670765D01*
X137751227Y-89664804D01*
X137775495Y-89661204D01*
X137799999Y-89660000D01*
X138700001Y-89660000D01*
X138724505Y-89661204D01*
X138724505Y-89661204D01*
G37*
D15*
G04 #@! TD*
G04 #@! TO.P,R18,2*
G04 #@! TO.N,/BUCK_HI+*
X138250000Y-90235000D03*
D14*
G04 #@! TO.N,/BUCK_HI-*
G04 #@! TO.C,R18*
G36*
X138724505Y-91711204D02*
X138748773Y-91714804D01*
X138772572Y-91720765D01*
X138795671Y-91729030D01*
X138817850Y-91739520D01*
X138838893Y-91752132D01*
X138858599Y-91766747D01*
X138876777Y-91783223D01*
X138893253Y-91801401D01*
X138907868Y-91821107D01*
X138920480Y-91842150D01*
X138930970Y-91864329D01*
X138939235Y-91887428D01*
X138945196Y-91911227D01*
X138948796Y-91935495D01*
X138950000Y-91959999D01*
X138950000Y-92610001D01*
X138948796Y-92634505D01*
X138945196Y-92658773D01*
X138939235Y-92682572D01*
X138930970Y-92705671D01*
X138920480Y-92727850D01*
X138907868Y-92748893D01*
X138893253Y-92768599D01*
X138876777Y-92786777D01*
X138858599Y-92803253D01*
X138838893Y-92817868D01*
X138817850Y-92830480D01*
X138795671Y-92840970D01*
X138772572Y-92849235D01*
X138748773Y-92855196D01*
X138724505Y-92858796D01*
X138700001Y-92860000D01*
X137799999Y-92860000D01*
X137775495Y-92858796D01*
X137751227Y-92855196D01*
X137727428Y-92849235D01*
X137704329Y-92840970D01*
X137682150Y-92830480D01*
X137661107Y-92817868D01*
X137641401Y-92803253D01*
X137623223Y-92786777D01*
X137606747Y-92768599D01*
X137592132Y-92748893D01*
X137579520Y-92727850D01*
X137569030Y-92705671D01*
X137560765Y-92682572D01*
X137554804Y-92658773D01*
X137551204Y-92634505D01*
X137550000Y-92610001D01*
X137550000Y-91959999D01*
X137551204Y-91935495D01*
X137554804Y-91911227D01*
X137560765Y-91887428D01*
X137569030Y-91864329D01*
X137579520Y-91842150D01*
X137592132Y-91821107D01*
X137606747Y-91801401D01*
X137623223Y-91783223D01*
X137641401Y-91766747D01*
X137661107Y-91752132D01*
X137682150Y-91739520D01*
X137704329Y-91729030D01*
X137727428Y-91720765D01*
X137751227Y-91714804D01*
X137775495Y-91711204D01*
X137799999Y-91710000D01*
X138700001Y-91710000D01*
X138724505Y-91711204D01*
X138724505Y-91711204D01*
G37*
D15*
G04 #@! TD*
G04 #@! TO.P,R18,1*
G04 #@! TO.N,/BUCK_HI-*
X138250000Y-92285000D03*
D14*
G04 #@! TO.N,/BUCK_LO+*
G04 #@! TO.C,R19*
G36*
X138724505Y-94986204D02*
X138748773Y-94989804D01*
X138772572Y-94995765D01*
X138795671Y-95004030D01*
X138817850Y-95014520D01*
X138838893Y-95027132D01*
X138858599Y-95041747D01*
X138876777Y-95058223D01*
X138893253Y-95076401D01*
X138907868Y-95096107D01*
X138920480Y-95117150D01*
X138930970Y-95139329D01*
X138939235Y-95162428D01*
X138945196Y-95186227D01*
X138948796Y-95210495D01*
X138950000Y-95234999D01*
X138950000Y-95885001D01*
X138948796Y-95909505D01*
X138945196Y-95933773D01*
X138939235Y-95957572D01*
X138930970Y-95980671D01*
X138920480Y-96002850D01*
X138907868Y-96023893D01*
X138893253Y-96043599D01*
X138876777Y-96061777D01*
X138858599Y-96078253D01*
X138838893Y-96092868D01*
X138817850Y-96105480D01*
X138795671Y-96115970D01*
X138772572Y-96124235D01*
X138748773Y-96130196D01*
X138724505Y-96133796D01*
X138700001Y-96135000D01*
X137799999Y-96135000D01*
X137775495Y-96133796D01*
X137751227Y-96130196D01*
X137727428Y-96124235D01*
X137704329Y-96115970D01*
X137682150Y-96105480D01*
X137661107Y-96092868D01*
X137641401Y-96078253D01*
X137623223Y-96061777D01*
X137606747Y-96043599D01*
X137592132Y-96023893D01*
X137579520Y-96002850D01*
X137569030Y-95980671D01*
X137560765Y-95957572D01*
X137554804Y-95933773D01*
X137551204Y-95909505D01*
X137550000Y-95885001D01*
X137550000Y-95234999D01*
X137551204Y-95210495D01*
X137554804Y-95186227D01*
X137560765Y-95162428D01*
X137569030Y-95139329D01*
X137579520Y-95117150D01*
X137592132Y-95096107D01*
X137606747Y-95076401D01*
X137623223Y-95058223D01*
X137641401Y-95041747D01*
X137661107Y-95027132D01*
X137682150Y-95014520D01*
X137704329Y-95004030D01*
X137727428Y-94995765D01*
X137751227Y-94989804D01*
X137775495Y-94986204D01*
X137799999Y-94985000D01*
X138700001Y-94985000D01*
X138724505Y-94986204D01*
X138724505Y-94986204D01*
G37*
D15*
G04 #@! TD*
G04 #@! TO.P,R19,1*
G04 #@! TO.N,/BUCK_LO+*
X138250000Y-95560000D03*
D14*
G04 #@! TO.N,/BUCK_LO-*
G04 #@! TO.C,R19*
G36*
X138724505Y-97036204D02*
X138748773Y-97039804D01*
X138772572Y-97045765D01*
X138795671Y-97054030D01*
X138817850Y-97064520D01*
X138838893Y-97077132D01*
X138858599Y-97091747D01*
X138876777Y-97108223D01*
X138893253Y-97126401D01*
X138907868Y-97146107D01*
X138920480Y-97167150D01*
X138930970Y-97189329D01*
X138939235Y-97212428D01*
X138945196Y-97236227D01*
X138948796Y-97260495D01*
X138950000Y-97284999D01*
X138950000Y-97935001D01*
X138948796Y-97959505D01*
X138945196Y-97983773D01*
X138939235Y-98007572D01*
X138930970Y-98030671D01*
X138920480Y-98052850D01*
X138907868Y-98073893D01*
X138893253Y-98093599D01*
X138876777Y-98111777D01*
X138858599Y-98128253D01*
X138838893Y-98142868D01*
X138817850Y-98155480D01*
X138795671Y-98165970D01*
X138772572Y-98174235D01*
X138748773Y-98180196D01*
X138724505Y-98183796D01*
X138700001Y-98185000D01*
X137799999Y-98185000D01*
X137775495Y-98183796D01*
X137751227Y-98180196D01*
X137727428Y-98174235D01*
X137704329Y-98165970D01*
X137682150Y-98155480D01*
X137661107Y-98142868D01*
X137641401Y-98128253D01*
X137623223Y-98111777D01*
X137606747Y-98093599D01*
X137592132Y-98073893D01*
X137579520Y-98052850D01*
X137569030Y-98030671D01*
X137560765Y-98007572D01*
X137554804Y-97983773D01*
X137551204Y-97959505D01*
X137550000Y-97935001D01*
X137550000Y-97284999D01*
X137551204Y-97260495D01*
X137554804Y-97236227D01*
X137560765Y-97212428D01*
X137569030Y-97189329D01*
X137579520Y-97167150D01*
X137592132Y-97146107D01*
X137606747Y-97126401D01*
X137623223Y-97108223D01*
X137641401Y-97091747D01*
X137661107Y-97077132D01*
X137682150Y-97064520D01*
X137704329Y-97054030D01*
X137727428Y-97045765D01*
X137751227Y-97039804D01*
X137775495Y-97036204D01*
X137799999Y-97035000D01*
X138700001Y-97035000D01*
X138724505Y-97036204D01*
X138724505Y-97036204D01*
G37*
D15*
G04 #@! TD*
G04 #@! TO.P,R19,2*
G04 #@! TO.N,/BUCK_LO-*
X138250000Y-97610000D03*
D14*
G04 #@! TO.N,GND*
G04 #@! TO.C,R23*
G36*
X139994505Y-87511204D02*
X140018773Y-87514804D01*
X140042572Y-87520765D01*
X140065671Y-87529030D01*
X140087850Y-87539520D01*
X140108893Y-87552132D01*
X140128599Y-87566747D01*
X140146777Y-87583223D01*
X140163253Y-87601401D01*
X140177868Y-87621107D01*
X140190480Y-87642150D01*
X140200970Y-87664329D01*
X140209235Y-87687428D01*
X140215196Y-87711227D01*
X140218796Y-87735495D01*
X140220000Y-87759999D01*
X140220000Y-88410001D01*
X140218796Y-88434505D01*
X140215196Y-88458773D01*
X140209235Y-88482572D01*
X140200970Y-88505671D01*
X140190480Y-88527850D01*
X140177868Y-88548893D01*
X140163253Y-88568599D01*
X140146777Y-88586777D01*
X140128599Y-88603253D01*
X140108893Y-88617868D01*
X140087850Y-88630480D01*
X140065671Y-88640970D01*
X140042572Y-88649235D01*
X140018773Y-88655196D01*
X139994505Y-88658796D01*
X139970001Y-88660000D01*
X139069999Y-88660000D01*
X139045495Y-88658796D01*
X139021227Y-88655196D01*
X138997428Y-88649235D01*
X138974329Y-88640970D01*
X138952150Y-88630480D01*
X138931107Y-88617868D01*
X138911401Y-88603253D01*
X138893223Y-88586777D01*
X138876747Y-88568599D01*
X138862132Y-88548893D01*
X138849520Y-88527850D01*
X138839030Y-88505671D01*
X138830765Y-88482572D01*
X138824804Y-88458773D01*
X138821204Y-88434505D01*
X138820000Y-88410001D01*
X138820000Y-87759999D01*
X138821204Y-87735495D01*
X138824804Y-87711227D01*
X138830765Y-87687428D01*
X138839030Y-87664329D01*
X138849520Y-87642150D01*
X138862132Y-87621107D01*
X138876747Y-87601401D01*
X138893223Y-87583223D01*
X138911401Y-87566747D01*
X138931107Y-87552132D01*
X138952150Y-87539520D01*
X138974329Y-87529030D01*
X138997428Y-87520765D01*
X139021227Y-87514804D01*
X139045495Y-87511204D01*
X139069999Y-87510000D01*
X139970001Y-87510000D01*
X139994505Y-87511204D01*
X139994505Y-87511204D01*
G37*
D15*
G04 #@! TD*
G04 #@! TO.P,R23,2*
G04 #@! TO.N,GND*
X139520000Y-88085000D03*
D14*
G04 #@! TO.N,/BUCK_HI+*
G04 #@! TO.C,R23*
G36*
X139994505Y-85461204D02*
X140018773Y-85464804D01*
X140042572Y-85470765D01*
X140065671Y-85479030D01*
X140087850Y-85489520D01*
X140108893Y-85502132D01*
X140128599Y-85516747D01*
X140146777Y-85533223D01*
X140163253Y-85551401D01*
X140177868Y-85571107D01*
X140190480Y-85592150D01*
X140200970Y-85614329D01*
X140209235Y-85637428D01*
X140215196Y-85661227D01*
X140218796Y-85685495D01*
X140220000Y-85709999D01*
X140220000Y-86360001D01*
X140218796Y-86384505D01*
X140215196Y-86408773D01*
X140209235Y-86432572D01*
X140200970Y-86455671D01*
X140190480Y-86477850D01*
X140177868Y-86498893D01*
X140163253Y-86518599D01*
X140146777Y-86536777D01*
X140128599Y-86553253D01*
X140108893Y-86567868D01*
X140087850Y-86580480D01*
X140065671Y-86590970D01*
X140042572Y-86599235D01*
X140018773Y-86605196D01*
X139994505Y-86608796D01*
X139970001Y-86610000D01*
X139069999Y-86610000D01*
X139045495Y-86608796D01*
X139021227Y-86605196D01*
X138997428Y-86599235D01*
X138974329Y-86590970D01*
X138952150Y-86580480D01*
X138931107Y-86567868D01*
X138911401Y-86553253D01*
X138893223Y-86536777D01*
X138876747Y-86518599D01*
X138862132Y-86498893D01*
X138849520Y-86477850D01*
X138839030Y-86455671D01*
X138830765Y-86432572D01*
X138824804Y-86408773D01*
X138821204Y-86384505D01*
X138820000Y-86360001D01*
X138820000Y-85709999D01*
X138821204Y-85685495D01*
X138824804Y-85661227D01*
X138830765Y-85637428D01*
X138839030Y-85614329D01*
X138849520Y-85592150D01*
X138862132Y-85571107D01*
X138876747Y-85551401D01*
X138893223Y-85533223D01*
X138911401Y-85516747D01*
X138931107Y-85502132D01*
X138952150Y-85489520D01*
X138974329Y-85479030D01*
X138997428Y-85470765D01*
X139021227Y-85464804D01*
X139045495Y-85461204D01*
X139069999Y-85460000D01*
X139970001Y-85460000D01*
X139994505Y-85461204D01*
X139994505Y-85461204D01*
G37*
D15*
G04 #@! TD*
G04 #@! TO.P,R23,1*
G04 #@! TO.N,/BUCK_HI+*
X139520000Y-86035000D03*
D14*
G04 #@! TO.N,VCC*
G04 #@! TO.C,R24*
G36*
X164378505Y-80381204D02*
X164402773Y-80384804D01*
X164426572Y-80390765D01*
X164449671Y-80399030D01*
X164471850Y-80409520D01*
X164492893Y-80422132D01*
X164512599Y-80436747D01*
X164530777Y-80453223D01*
X164547253Y-80471401D01*
X164561868Y-80491107D01*
X164574480Y-80512150D01*
X164584970Y-80534329D01*
X164593235Y-80557428D01*
X164599196Y-80581227D01*
X164602796Y-80605495D01*
X164604000Y-80629999D01*
X164604000Y-81280001D01*
X164602796Y-81304505D01*
X164599196Y-81328773D01*
X164593235Y-81352572D01*
X164584970Y-81375671D01*
X164574480Y-81397850D01*
X164561868Y-81418893D01*
X164547253Y-81438599D01*
X164530777Y-81456777D01*
X164512599Y-81473253D01*
X164492893Y-81487868D01*
X164471850Y-81500480D01*
X164449671Y-81510970D01*
X164426572Y-81519235D01*
X164402773Y-81525196D01*
X164378505Y-81528796D01*
X164354001Y-81530000D01*
X163453999Y-81530000D01*
X163429495Y-81528796D01*
X163405227Y-81525196D01*
X163381428Y-81519235D01*
X163358329Y-81510970D01*
X163336150Y-81500480D01*
X163315107Y-81487868D01*
X163295401Y-81473253D01*
X163277223Y-81456777D01*
X163260747Y-81438599D01*
X163246132Y-81418893D01*
X163233520Y-81397850D01*
X163223030Y-81375671D01*
X163214765Y-81352572D01*
X163208804Y-81328773D01*
X163205204Y-81304505D01*
X163204000Y-81280001D01*
X163204000Y-80629999D01*
X163205204Y-80605495D01*
X163208804Y-80581227D01*
X163214765Y-80557428D01*
X163223030Y-80534329D01*
X163233520Y-80512150D01*
X163246132Y-80491107D01*
X163260747Y-80471401D01*
X163277223Y-80453223D01*
X163295401Y-80436747D01*
X163315107Y-80422132D01*
X163336150Y-80409520D01*
X163358329Y-80399030D01*
X163381428Y-80390765D01*
X163405227Y-80384804D01*
X163429495Y-80381204D01*
X163453999Y-80380000D01*
X164354001Y-80380000D01*
X164378505Y-80381204D01*
X164378505Y-80381204D01*
G37*
D15*
G04 #@! TD*
G04 #@! TO.P,R24,1*
G04 #@! TO.N,VCC*
X163904000Y-80955000D03*
D14*
G04 #@! TO.N,/BOOST_HI+*
G04 #@! TO.C,R24*
G36*
X164378505Y-82431204D02*
X164402773Y-82434804D01*
X164426572Y-82440765D01*
X164449671Y-82449030D01*
X164471850Y-82459520D01*
X164492893Y-82472132D01*
X164512599Y-82486747D01*
X164530777Y-82503223D01*
X164547253Y-82521401D01*
X164561868Y-82541107D01*
X164574480Y-82562150D01*
X164584970Y-82584329D01*
X164593235Y-82607428D01*
X164599196Y-82631227D01*
X164602796Y-82655495D01*
X164604000Y-82679999D01*
X164604000Y-83330001D01*
X164602796Y-83354505D01*
X164599196Y-83378773D01*
X164593235Y-83402572D01*
X164584970Y-83425671D01*
X164574480Y-83447850D01*
X164561868Y-83468893D01*
X164547253Y-83488599D01*
X164530777Y-83506777D01*
X164512599Y-83523253D01*
X164492893Y-83537868D01*
X164471850Y-83550480D01*
X164449671Y-83560970D01*
X164426572Y-83569235D01*
X164402773Y-83575196D01*
X164378505Y-83578796D01*
X164354001Y-83580000D01*
X163453999Y-83580000D01*
X163429495Y-83578796D01*
X163405227Y-83575196D01*
X163381428Y-83569235D01*
X163358329Y-83560970D01*
X163336150Y-83550480D01*
X163315107Y-83537868D01*
X163295401Y-83523253D01*
X163277223Y-83506777D01*
X163260747Y-83488599D01*
X163246132Y-83468893D01*
X163233520Y-83447850D01*
X163223030Y-83425671D01*
X163214765Y-83402572D01*
X163208804Y-83378773D01*
X163205204Y-83354505D01*
X163204000Y-83330001D01*
X163204000Y-82679999D01*
X163205204Y-82655495D01*
X163208804Y-82631227D01*
X163214765Y-82607428D01*
X163223030Y-82584329D01*
X163233520Y-82562150D01*
X163246132Y-82541107D01*
X163260747Y-82521401D01*
X163277223Y-82503223D01*
X163295401Y-82486747D01*
X163315107Y-82472132D01*
X163336150Y-82459520D01*
X163358329Y-82449030D01*
X163381428Y-82440765D01*
X163405227Y-82434804D01*
X163429495Y-82431204D01*
X163453999Y-82430000D01*
X164354001Y-82430000D01*
X164378505Y-82431204D01*
X164378505Y-82431204D01*
G37*
D15*
G04 #@! TD*
G04 #@! TO.P,R24,2*
G04 #@! TO.N,/BOOST_HI+*
X163904000Y-83005000D03*
D14*
G04 #@! TO.N,GND*
G04 #@! TO.C,R25*
G36*
X164378505Y-86495204D02*
X164402773Y-86498804D01*
X164426572Y-86504765D01*
X164449671Y-86513030D01*
X164471850Y-86523520D01*
X164492893Y-86536132D01*
X164512599Y-86550747D01*
X164530777Y-86567223D01*
X164547253Y-86585401D01*
X164561868Y-86605107D01*
X164574480Y-86626150D01*
X164584970Y-86648329D01*
X164593235Y-86671428D01*
X164599196Y-86695227D01*
X164602796Y-86719495D01*
X164604000Y-86743999D01*
X164604000Y-87394001D01*
X164602796Y-87418505D01*
X164599196Y-87442773D01*
X164593235Y-87466572D01*
X164584970Y-87489671D01*
X164574480Y-87511850D01*
X164561868Y-87532893D01*
X164547253Y-87552599D01*
X164530777Y-87570777D01*
X164512599Y-87587253D01*
X164492893Y-87601868D01*
X164471850Y-87614480D01*
X164449671Y-87624970D01*
X164426572Y-87633235D01*
X164402773Y-87639196D01*
X164378505Y-87642796D01*
X164354001Y-87644000D01*
X163453999Y-87644000D01*
X163429495Y-87642796D01*
X163405227Y-87639196D01*
X163381428Y-87633235D01*
X163358329Y-87624970D01*
X163336150Y-87614480D01*
X163315107Y-87601868D01*
X163295401Y-87587253D01*
X163277223Y-87570777D01*
X163260747Y-87552599D01*
X163246132Y-87532893D01*
X163233520Y-87511850D01*
X163223030Y-87489671D01*
X163214765Y-87466572D01*
X163208804Y-87442773D01*
X163205204Y-87418505D01*
X163204000Y-87394001D01*
X163204000Y-86743999D01*
X163205204Y-86719495D01*
X163208804Y-86695227D01*
X163214765Y-86671428D01*
X163223030Y-86648329D01*
X163233520Y-86626150D01*
X163246132Y-86605107D01*
X163260747Y-86585401D01*
X163277223Y-86567223D01*
X163295401Y-86550747D01*
X163315107Y-86536132D01*
X163336150Y-86523520D01*
X163358329Y-86513030D01*
X163381428Y-86504765D01*
X163405227Y-86498804D01*
X163429495Y-86495204D01*
X163453999Y-86494000D01*
X164354001Y-86494000D01*
X164378505Y-86495204D01*
X164378505Y-86495204D01*
G37*
D15*
G04 #@! TD*
G04 #@! TO.P,R25,2*
G04 #@! TO.N,GND*
X163904000Y-87069000D03*
D14*
G04 #@! TO.N,/BOOST_HI+*
G04 #@! TO.C,R25*
G36*
X164378505Y-84445204D02*
X164402773Y-84448804D01*
X164426572Y-84454765D01*
X164449671Y-84463030D01*
X164471850Y-84473520D01*
X164492893Y-84486132D01*
X164512599Y-84500747D01*
X164530777Y-84517223D01*
X164547253Y-84535401D01*
X164561868Y-84555107D01*
X164574480Y-84576150D01*
X164584970Y-84598329D01*
X164593235Y-84621428D01*
X164599196Y-84645227D01*
X164602796Y-84669495D01*
X164604000Y-84693999D01*
X164604000Y-85344001D01*
X164602796Y-85368505D01*
X164599196Y-85392773D01*
X164593235Y-85416572D01*
X164584970Y-85439671D01*
X164574480Y-85461850D01*
X164561868Y-85482893D01*
X164547253Y-85502599D01*
X164530777Y-85520777D01*
X164512599Y-85537253D01*
X164492893Y-85551868D01*
X164471850Y-85564480D01*
X164449671Y-85574970D01*
X164426572Y-85583235D01*
X164402773Y-85589196D01*
X164378505Y-85592796D01*
X164354001Y-85594000D01*
X163453999Y-85594000D01*
X163429495Y-85592796D01*
X163405227Y-85589196D01*
X163381428Y-85583235D01*
X163358329Y-85574970D01*
X163336150Y-85564480D01*
X163315107Y-85551868D01*
X163295401Y-85537253D01*
X163277223Y-85520777D01*
X163260747Y-85502599D01*
X163246132Y-85482893D01*
X163233520Y-85461850D01*
X163223030Y-85439671D01*
X163214765Y-85416572D01*
X163208804Y-85392773D01*
X163205204Y-85368505D01*
X163204000Y-85344001D01*
X163204000Y-84693999D01*
X163205204Y-84669495D01*
X163208804Y-84645227D01*
X163214765Y-84621428D01*
X163223030Y-84598329D01*
X163233520Y-84576150D01*
X163246132Y-84555107D01*
X163260747Y-84535401D01*
X163277223Y-84517223D01*
X163295401Y-84500747D01*
X163315107Y-84486132D01*
X163336150Y-84473520D01*
X163358329Y-84463030D01*
X163381428Y-84454765D01*
X163405227Y-84448804D01*
X163429495Y-84445204D01*
X163453999Y-84444000D01*
X164354001Y-84444000D01*
X164378505Y-84445204D01*
X164378505Y-84445204D01*
G37*
D15*
G04 #@! TD*
G04 #@! TO.P,R25,1*
G04 #@! TO.N,/BOOST_HI+*
X163904000Y-85019000D03*
D14*
G04 #@! TO.N,VCC*
G04 #@! TO.C,R26*
G36*
X142026505Y-81397204D02*
X142050773Y-81400804D01*
X142074572Y-81406765D01*
X142097671Y-81415030D01*
X142119850Y-81425520D01*
X142140893Y-81438132D01*
X142160599Y-81452747D01*
X142178777Y-81469223D01*
X142195253Y-81487401D01*
X142209868Y-81507107D01*
X142222480Y-81528150D01*
X142232970Y-81550329D01*
X142241235Y-81573428D01*
X142247196Y-81597227D01*
X142250796Y-81621495D01*
X142252000Y-81645999D01*
X142252000Y-82296001D01*
X142250796Y-82320505D01*
X142247196Y-82344773D01*
X142241235Y-82368572D01*
X142232970Y-82391671D01*
X142222480Y-82413850D01*
X142209868Y-82434893D01*
X142195253Y-82454599D01*
X142178777Y-82472777D01*
X142160599Y-82489253D01*
X142140893Y-82503868D01*
X142119850Y-82516480D01*
X142097671Y-82526970D01*
X142074572Y-82535235D01*
X142050773Y-82541196D01*
X142026505Y-82544796D01*
X142002001Y-82546000D01*
X141101999Y-82546000D01*
X141077495Y-82544796D01*
X141053227Y-82541196D01*
X141029428Y-82535235D01*
X141006329Y-82526970D01*
X140984150Y-82516480D01*
X140963107Y-82503868D01*
X140943401Y-82489253D01*
X140925223Y-82472777D01*
X140908747Y-82454599D01*
X140894132Y-82434893D01*
X140881520Y-82413850D01*
X140871030Y-82391671D01*
X140862765Y-82368572D01*
X140856804Y-82344773D01*
X140853204Y-82320505D01*
X140852000Y-82296001D01*
X140852000Y-81645999D01*
X140853204Y-81621495D01*
X140856804Y-81597227D01*
X140862765Y-81573428D01*
X140871030Y-81550329D01*
X140881520Y-81528150D01*
X140894132Y-81507107D01*
X140908747Y-81487401D01*
X140925223Y-81469223D01*
X140943401Y-81452747D01*
X140963107Y-81438132D01*
X140984150Y-81425520D01*
X141006329Y-81415030D01*
X141029428Y-81406765D01*
X141053227Y-81400804D01*
X141077495Y-81397204D01*
X141101999Y-81396000D01*
X142002001Y-81396000D01*
X142026505Y-81397204D01*
X142026505Y-81397204D01*
G37*
D15*
G04 #@! TD*
G04 #@! TO.P,R26,1*
G04 #@! TO.N,VCC*
X141552000Y-81971000D03*
D14*
G04 #@! TO.N,/BUCK_HI-*
G04 #@! TO.C,R26*
G36*
X142026505Y-83447204D02*
X142050773Y-83450804D01*
X142074572Y-83456765D01*
X142097671Y-83465030D01*
X142119850Y-83475520D01*
X142140893Y-83488132D01*
X142160599Y-83502747D01*
X142178777Y-83519223D01*
X142195253Y-83537401D01*
X142209868Y-83557107D01*
X142222480Y-83578150D01*
X142232970Y-83600329D01*
X142241235Y-83623428D01*
X142247196Y-83647227D01*
X142250796Y-83671495D01*
X142252000Y-83695999D01*
X142252000Y-84346001D01*
X142250796Y-84370505D01*
X142247196Y-84394773D01*
X142241235Y-84418572D01*
X142232970Y-84441671D01*
X142222480Y-84463850D01*
X142209868Y-84484893D01*
X142195253Y-84504599D01*
X142178777Y-84522777D01*
X142160599Y-84539253D01*
X142140893Y-84553868D01*
X142119850Y-84566480D01*
X142097671Y-84576970D01*
X142074572Y-84585235D01*
X142050773Y-84591196D01*
X142026505Y-84594796D01*
X142002001Y-84596000D01*
X141101999Y-84596000D01*
X141077495Y-84594796D01*
X141053227Y-84591196D01*
X141029428Y-84585235D01*
X141006329Y-84576970D01*
X140984150Y-84566480D01*
X140963107Y-84553868D01*
X140943401Y-84539253D01*
X140925223Y-84522777D01*
X140908747Y-84504599D01*
X140894132Y-84484893D01*
X140881520Y-84463850D01*
X140871030Y-84441671D01*
X140862765Y-84418572D01*
X140856804Y-84394773D01*
X140853204Y-84370505D01*
X140852000Y-84346001D01*
X140852000Y-83695999D01*
X140853204Y-83671495D01*
X140856804Y-83647227D01*
X140862765Y-83623428D01*
X140871030Y-83600329D01*
X140881520Y-83578150D01*
X140894132Y-83557107D01*
X140908747Y-83537401D01*
X140925223Y-83519223D01*
X140943401Y-83502747D01*
X140963107Y-83488132D01*
X140984150Y-83475520D01*
X141006329Y-83465030D01*
X141029428Y-83456765D01*
X141053227Y-83450804D01*
X141077495Y-83447204D01*
X141101999Y-83446000D01*
X142002001Y-83446000D01*
X142026505Y-83447204D01*
X142026505Y-83447204D01*
G37*
D15*
G04 #@! TD*
G04 #@! TO.P,R26,2*
G04 #@! TO.N,/BUCK_HI-*
X141552000Y-84021000D03*
D14*
G04 #@! TO.N,GND*
G04 #@! TO.C,R27*
G36*
X142026505Y-87511204D02*
X142050773Y-87514804D01*
X142074572Y-87520765D01*
X142097671Y-87529030D01*
X142119850Y-87539520D01*
X142140893Y-87552132D01*
X142160599Y-87566747D01*
X142178777Y-87583223D01*
X142195253Y-87601401D01*
X142209868Y-87621107D01*
X142222480Y-87642150D01*
X142232970Y-87664329D01*
X142241235Y-87687428D01*
X142247196Y-87711227D01*
X142250796Y-87735495D01*
X142252000Y-87759999D01*
X142252000Y-88410001D01*
X142250796Y-88434505D01*
X142247196Y-88458773D01*
X142241235Y-88482572D01*
X142232970Y-88505671D01*
X142222480Y-88527850D01*
X142209868Y-88548893D01*
X142195253Y-88568599D01*
X142178777Y-88586777D01*
X142160599Y-88603253D01*
X142140893Y-88617868D01*
X142119850Y-88630480D01*
X142097671Y-88640970D01*
X142074572Y-88649235D01*
X142050773Y-88655196D01*
X142026505Y-88658796D01*
X142002001Y-88660000D01*
X141101999Y-88660000D01*
X141077495Y-88658796D01*
X141053227Y-88655196D01*
X141029428Y-88649235D01*
X141006329Y-88640970D01*
X140984150Y-88630480D01*
X140963107Y-88617868D01*
X140943401Y-88603253D01*
X140925223Y-88586777D01*
X140908747Y-88568599D01*
X140894132Y-88548893D01*
X140881520Y-88527850D01*
X140871030Y-88505671D01*
X140862765Y-88482572D01*
X140856804Y-88458773D01*
X140853204Y-88434505D01*
X140852000Y-88410001D01*
X140852000Y-87759999D01*
X140853204Y-87735495D01*
X140856804Y-87711227D01*
X140862765Y-87687428D01*
X140871030Y-87664329D01*
X140881520Y-87642150D01*
X140894132Y-87621107D01*
X140908747Y-87601401D01*
X140925223Y-87583223D01*
X140943401Y-87566747D01*
X140963107Y-87552132D01*
X140984150Y-87539520D01*
X141006329Y-87529030D01*
X141029428Y-87520765D01*
X141053227Y-87514804D01*
X141077495Y-87511204D01*
X141101999Y-87510000D01*
X142002001Y-87510000D01*
X142026505Y-87511204D01*
X142026505Y-87511204D01*
G37*
D15*
G04 #@! TD*
G04 #@! TO.P,R27,2*
G04 #@! TO.N,GND*
X141552000Y-88085000D03*
D14*
G04 #@! TO.N,/BUCK_HI-*
G04 #@! TO.C,R27*
G36*
X142026505Y-85461204D02*
X142050773Y-85464804D01*
X142074572Y-85470765D01*
X142097671Y-85479030D01*
X142119850Y-85489520D01*
X142140893Y-85502132D01*
X142160599Y-85516747D01*
X142178777Y-85533223D01*
X142195253Y-85551401D01*
X142209868Y-85571107D01*
X142222480Y-85592150D01*
X142232970Y-85614329D01*
X142241235Y-85637428D01*
X142247196Y-85661227D01*
X142250796Y-85685495D01*
X142252000Y-85709999D01*
X142252000Y-86360001D01*
X142250796Y-86384505D01*
X142247196Y-86408773D01*
X142241235Y-86432572D01*
X142232970Y-86455671D01*
X142222480Y-86477850D01*
X142209868Y-86498893D01*
X142195253Y-86518599D01*
X142178777Y-86536777D01*
X142160599Y-86553253D01*
X142140893Y-86567868D01*
X142119850Y-86580480D01*
X142097671Y-86590970D01*
X142074572Y-86599235D01*
X142050773Y-86605196D01*
X142026505Y-86608796D01*
X142002001Y-86610000D01*
X141101999Y-86610000D01*
X141077495Y-86608796D01*
X141053227Y-86605196D01*
X141029428Y-86599235D01*
X141006329Y-86590970D01*
X140984150Y-86580480D01*
X140963107Y-86567868D01*
X140943401Y-86553253D01*
X140925223Y-86536777D01*
X140908747Y-86518599D01*
X140894132Y-86498893D01*
X140881520Y-86477850D01*
X140871030Y-86455671D01*
X140862765Y-86432572D01*
X140856804Y-86408773D01*
X140853204Y-86384505D01*
X140852000Y-86360001D01*
X140852000Y-85709999D01*
X140853204Y-85685495D01*
X140856804Y-85661227D01*
X140862765Y-85637428D01*
X140871030Y-85614329D01*
X140881520Y-85592150D01*
X140894132Y-85571107D01*
X140908747Y-85551401D01*
X140925223Y-85533223D01*
X140943401Y-85516747D01*
X140963107Y-85502132D01*
X140984150Y-85489520D01*
X141006329Y-85479030D01*
X141029428Y-85470765D01*
X141053227Y-85464804D01*
X141077495Y-85461204D01*
X141101999Y-85460000D01*
X142002001Y-85460000D01*
X142026505Y-85461204D01*
X142026505Y-85461204D01*
G37*
D15*
G04 #@! TD*
G04 #@! TO.P,R27,1*
G04 #@! TO.N,/BUCK_HI-*
X141552000Y-86035000D03*
D14*
G04 #@! TO.N,VCC*
G04 #@! TO.C,R28*
G36*
X166410505Y-80381204D02*
X166434773Y-80384804D01*
X166458572Y-80390765D01*
X166481671Y-80399030D01*
X166503850Y-80409520D01*
X166524893Y-80422132D01*
X166544599Y-80436747D01*
X166562777Y-80453223D01*
X166579253Y-80471401D01*
X166593868Y-80491107D01*
X166606480Y-80512150D01*
X166616970Y-80534329D01*
X166625235Y-80557428D01*
X166631196Y-80581227D01*
X166634796Y-80605495D01*
X166636000Y-80629999D01*
X166636000Y-81280001D01*
X166634796Y-81304505D01*
X166631196Y-81328773D01*
X166625235Y-81352572D01*
X166616970Y-81375671D01*
X166606480Y-81397850D01*
X166593868Y-81418893D01*
X166579253Y-81438599D01*
X166562777Y-81456777D01*
X166544599Y-81473253D01*
X166524893Y-81487868D01*
X166503850Y-81500480D01*
X166481671Y-81510970D01*
X166458572Y-81519235D01*
X166434773Y-81525196D01*
X166410505Y-81528796D01*
X166386001Y-81530000D01*
X165485999Y-81530000D01*
X165461495Y-81528796D01*
X165437227Y-81525196D01*
X165413428Y-81519235D01*
X165390329Y-81510970D01*
X165368150Y-81500480D01*
X165347107Y-81487868D01*
X165327401Y-81473253D01*
X165309223Y-81456777D01*
X165292747Y-81438599D01*
X165278132Y-81418893D01*
X165265520Y-81397850D01*
X165255030Y-81375671D01*
X165246765Y-81352572D01*
X165240804Y-81328773D01*
X165237204Y-81304505D01*
X165236000Y-81280001D01*
X165236000Y-80629999D01*
X165237204Y-80605495D01*
X165240804Y-80581227D01*
X165246765Y-80557428D01*
X165255030Y-80534329D01*
X165265520Y-80512150D01*
X165278132Y-80491107D01*
X165292747Y-80471401D01*
X165309223Y-80453223D01*
X165327401Y-80436747D01*
X165347107Y-80422132D01*
X165368150Y-80409520D01*
X165390329Y-80399030D01*
X165413428Y-80390765D01*
X165437227Y-80384804D01*
X165461495Y-80381204D01*
X165485999Y-80380000D01*
X166386001Y-80380000D01*
X166410505Y-80381204D01*
X166410505Y-80381204D01*
G37*
D15*
G04 #@! TD*
G04 #@! TO.P,R28,1*
G04 #@! TO.N,VCC*
X165936000Y-80955000D03*
D14*
G04 #@! TO.N,/BOOST_HI-*
G04 #@! TO.C,R28*
G36*
X166410505Y-82431204D02*
X166434773Y-82434804D01*
X166458572Y-82440765D01*
X166481671Y-82449030D01*
X166503850Y-82459520D01*
X166524893Y-82472132D01*
X166544599Y-82486747D01*
X166562777Y-82503223D01*
X166579253Y-82521401D01*
X166593868Y-82541107D01*
X166606480Y-82562150D01*
X166616970Y-82584329D01*
X166625235Y-82607428D01*
X166631196Y-82631227D01*
X166634796Y-82655495D01*
X166636000Y-82679999D01*
X166636000Y-83330001D01*
X166634796Y-83354505D01*
X166631196Y-83378773D01*
X166625235Y-83402572D01*
X166616970Y-83425671D01*
X166606480Y-83447850D01*
X166593868Y-83468893D01*
X166579253Y-83488599D01*
X166562777Y-83506777D01*
X166544599Y-83523253D01*
X166524893Y-83537868D01*
X166503850Y-83550480D01*
X166481671Y-83560970D01*
X166458572Y-83569235D01*
X166434773Y-83575196D01*
X166410505Y-83578796D01*
X166386001Y-83580000D01*
X165485999Y-83580000D01*
X165461495Y-83578796D01*
X165437227Y-83575196D01*
X165413428Y-83569235D01*
X165390329Y-83560970D01*
X165368150Y-83550480D01*
X165347107Y-83537868D01*
X165327401Y-83523253D01*
X165309223Y-83506777D01*
X165292747Y-83488599D01*
X165278132Y-83468893D01*
X165265520Y-83447850D01*
X165255030Y-83425671D01*
X165246765Y-83402572D01*
X165240804Y-83378773D01*
X165237204Y-83354505D01*
X165236000Y-83330001D01*
X165236000Y-82679999D01*
X165237204Y-82655495D01*
X165240804Y-82631227D01*
X165246765Y-82607428D01*
X165255030Y-82584329D01*
X165265520Y-82562150D01*
X165278132Y-82541107D01*
X165292747Y-82521401D01*
X165309223Y-82503223D01*
X165327401Y-82486747D01*
X165347107Y-82472132D01*
X165368150Y-82459520D01*
X165390329Y-82449030D01*
X165413428Y-82440765D01*
X165437227Y-82434804D01*
X165461495Y-82431204D01*
X165485999Y-82430000D01*
X166386001Y-82430000D01*
X166410505Y-82431204D01*
X166410505Y-82431204D01*
G37*
D15*
G04 #@! TD*
G04 #@! TO.P,R28,2*
G04 #@! TO.N,/BOOST_HI-*
X165936000Y-83005000D03*
D14*
G04 #@! TO.N,GND*
G04 #@! TO.C,R29*
G36*
X166410505Y-86495204D02*
X166434773Y-86498804D01*
X166458572Y-86504765D01*
X166481671Y-86513030D01*
X166503850Y-86523520D01*
X166524893Y-86536132D01*
X166544599Y-86550747D01*
X166562777Y-86567223D01*
X166579253Y-86585401D01*
X166593868Y-86605107D01*
X166606480Y-86626150D01*
X166616970Y-86648329D01*
X166625235Y-86671428D01*
X166631196Y-86695227D01*
X166634796Y-86719495D01*
X166636000Y-86743999D01*
X166636000Y-87394001D01*
X166634796Y-87418505D01*
X166631196Y-87442773D01*
X166625235Y-87466572D01*
X166616970Y-87489671D01*
X166606480Y-87511850D01*
X166593868Y-87532893D01*
X166579253Y-87552599D01*
X166562777Y-87570777D01*
X166544599Y-87587253D01*
X166524893Y-87601868D01*
X166503850Y-87614480D01*
X166481671Y-87624970D01*
X166458572Y-87633235D01*
X166434773Y-87639196D01*
X166410505Y-87642796D01*
X166386001Y-87644000D01*
X165485999Y-87644000D01*
X165461495Y-87642796D01*
X165437227Y-87639196D01*
X165413428Y-87633235D01*
X165390329Y-87624970D01*
X165368150Y-87614480D01*
X165347107Y-87601868D01*
X165327401Y-87587253D01*
X165309223Y-87570777D01*
X165292747Y-87552599D01*
X165278132Y-87532893D01*
X165265520Y-87511850D01*
X165255030Y-87489671D01*
X165246765Y-87466572D01*
X165240804Y-87442773D01*
X165237204Y-87418505D01*
X165236000Y-87394001D01*
X165236000Y-86743999D01*
X165237204Y-86719495D01*
X165240804Y-86695227D01*
X165246765Y-86671428D01*
X165255030Y-86648329D01*
X165265520Y-86626150D01*
X165278132Y-86605107D01*
X165292747Y-86585401D01*
X165309223Y-86567223D01*
X165327401Y-86550747D01*
X165347107Y-86536132D01*
X165368150Y-86523520D01*
X165390329Y-86513030D01*
X165413428Y-86504765D01*
X165437227Y-86498804D01*
X165461495Y-86495204D01*
X165485999Y-86494000D01*
X166386001Y-86494000D01*
X166410505Y-86495204D01*
X166410505Y-86495204D01*
G37*
D15*
G04 #@! TD*
G04 #@! TO.P,R29,2*
G04 #@! TO.N,GND*
X165936000Y-87069000D03*
D14*
G04 #@! TO.N,/BOOST_HI-*
G04 #@! TO.C,R29*
G36*
X166410505Y-84445204D02*
X166434773Y-84448804D01*
X166458572Y-84454765D01*
X166481671Y-84463030D01*
X166503850Y-84473520D01*
X166524893Y-84486132D01*
X166544599Y-84500747D01*
X166562777Y-84517223D01*
X166579253Y-84535401D01*
X166593868Y-84555107D01*
X166606480Y-84576150D01*
X166616970Y-84598329D01*
X166625235Y-84621428D01*
X166631196Y-84645227D01*
X166634796Y-84669495D01*
X166636000Y-84693999D01*
X166636000Y-85344001D01*
X166634796Y-85368505D01*
X166631196Y-85392773D01*
X166625235Y-85416572D01*
X166616970Y-85439671D01*
X166606480Y-85461850D01*
X166593868Y-85482893D01*
X166579253Y-85502599D01*
X166562777Y-85520777D01*
X166544599Y-85537253D01*
X166524893Y-85551868D01*
X166503850Y-85564480D01*
X166481671Y-85574970D01*
X166458572Y-85583235D01*
X166434773Y-85589196D01*
X166410505Y-85592796D01*
X166386001Y-85594000D01*
X165485999Y-85594000D01*
X165461495Y-85592796D01*
X165437227Y-85589196D01*
X165413428Y-85583235D01*
X165390329Y-85574970D01*
X165368150Y-85564480D01*
X165347107Y-85551868D01*
X165327401Y-85537253D01*
X165309223Y-85520777D01*
X165292747Y-85502599D01*
X165278132Y-85482893D01*
X165265520Y-85461850D01*
X165255030Y-85439671D01*
X165246765Y-85416572D01*
X165240804Y-85392773D01*
X165237204Y-85368505D01*
X165236000Y-85344001D01*
X165236000Y-84693999D01*
X165237204Y-84669495D01*
X165240804Y-84645227D01*
X165246765Y-84621428D01*
X165255030Y-84598329D01*
X165265520Y-84576150D01*
X165278132Y-84555107D01*
X165292747Y-84535401D01*
X165309223Y-84517223D01*
X165327401Y-84500747D01*
X165347107Y-84486132D01*
X165368150Y-84473520D01*
X165390329Y-84463030D01*
X165413428Y-84454765D01*
X165437227Y-84448804D01*
X165461495Y-84445204D01*
X165485999Y-84444000D01*
X166386001Y-84444000D01*
X166410505Y-84445204D01*
X166410505Y-84445204D01*
G37*
D15*
G04 #@! TD*
G04 #@! TO.P,R29,1*
G04 #@! TO.N,/BOOST_HI-*
X165936000Y-85019000D03*
D14*
G04 #@! TO.N,VCC*
G04 #@! TO.C,R30*
G36*
X144058505Y-81397204D02*
X144082773Y-81400804D01*
X144106572Y-81406765D01*
X144129671Y-81415030D01*
X144151850Y-81425520D01*
X144172893Y-81438132D01*
X144192599Y-81452747D01*
X144210777Y-81469223D01*
X144227253Y-81487401D01*
X144241868Y-81507107D01*
X144254480Y-81528150D01*
X144264970Y-81550329D01*
X144273235Y-81573428D01*
X144279196Y-81597227D01*
X144282796Y-81621495D01*
X144284000Y-81645999D01*
X144284000Y-82296001D01*
X144282796Y-82320505D01*
X144279196Y-82344773D01*
X144273235Y-82368572D01*
X144264970Y-82391671D01*
X144254480Y-82413850D01*
X144241868Y-82434893D01*
X144227253Y-82454599D01*
X144210777Y-82472777D01*
X144192599Y-82489253D01*
X144172893Y-82503868D01*
X144151850Y-82516480D01*
X144129671Y-82526970D01*
X144106572Y-82535235D01*
X144082773Y-82541196D01*
X144058505Y-82544796D01*
X144034001Y-82546000D01*
X143133999Y-82546000D01*
X143109495Y-82544796D01*
X143085227Y-82541196D01*
X143061428Y-82535235D01*
X143038329Y-82526970D01*
X143016150Y-82516480D01*
X142995107Y-82503868D01*
X142975401Y-82489253D01*
X142957223Y-82472777D01*
X142940747Y-82454599D01*
X142926132Y-82434893D01*
X142913520Y-82413850D01*
X142903030Y-82391671D01*
X142894765Y-82368572D01*
X142888804Y-82344773D01*
X142885204Y-82320505D01*
X142884000Y-82296001D01*
X142884000Y-81645999D01*
X142885204Y-81621495D01*
X142888804Y-81597227D01*
X142894765Y-81573428D01*
X142903030Y-81550329D01*
X142913520Y-81528150D01*
X142926132Y-81507107D01*
X142940747Y-81487401D01*
X142957223Y-81469223D01*
X142975401Y-81452747D01*
X142995107Y-81438132D01*
X143016150Y-81425520D01*
X143038329Y-81415030D01*
X143061428Y-81406765D01*
X143085227Y-81400804D01*
X143109495Y-81397204D01*
X143133999Y-81396000D01*
X144034001Y-81396000D01*
X144058505Y-81397204D01*
X144058505Y-81397204D01*
G37*
D15*
G04 #@! TD*
G04 #@! TO.P,R30,1*
G04 #@! TO.N,VCC*
X143584000Y-81971000D03*
D14*
G04 #@! TO.N,/BUCK_LO+*
G04 #@! TO.C,R30*
G36*
X144058505Y-83447204D02*
X144082773Y-83450804D01*
X144106572Y-83456765D01*
X144129671Y-83465030D01*
X144151850Y-83475520D01*
X144172893Y-83488132D01*
X144192599Y-83502747D01*
X144210777Y-83519223D01*
X144227253Y-83537401D01*
X144241868Y-83557107D01*
X144254480Y-83578150D01*
X144264970Y-83600329D01*
X144273235Y-83623428D01*
X144279196Y-83647227D01*
X144282796Y-83671495D01*
X144284000Y-83695999D01*
X144284000Y-84346001D01*
X144282796Y-84370505D01*
X144279196Y-84394773D01*
X144273235Y-84418572D01*
X144264970Y-84441671D01*
X144254480Y-84463850D01*
X144241868Y-84484893D01*
X144227253Y-84504599D01*
X144210777Y-84522777D01*
X144192599Y-84539253D01*
X144172893Y-84553868D01*
X144151850Y-84566480D01*
X144129671Y-84576970D01*
X144106572Y-84585235D01*
X144082773Y-84591196D01*
X144058505Y-84594796D01*
X144034001Y-84596000D01*
X143133999Y-84596000D01*
X143109495Y-84594796D01*
X143085227Y-84591196D01*
X143061428Y-84585235D01*
X143038329Y-84576970D01*
X143016150Y-84566480D01*
X142995107Y-84553868D01*
X142975401Y-84539253D01*
X142957223Y-84522777D01*
X142940747Y-84504599D01*
X142926132Y-84484893D01*
X142913520Y-84463850D01*
X142903030Y-84441671D01*
X142894765Y-84418572D01*
X142888804Y-84394773D01*
X142885204Y-84370505D01*
X142884000Y-84346001D01*
X142884000Y-83695999D01*
X142885204Y-83671495D01*
X142888804Y-83647227D01*
X142894765Y-83623428D01*
X142903030Y-83600329D01*
X142913520Y-83578150D01*
X142926132Y-83557107D01*
X142940747Y-83537401D01*
X142957223Y-83519223D01*
X142975401Y-83502747D01*
X142995107Y-83488132D01*
X143016150Y-83475520D01*
X143038329Y-83465030D01*
X143061428Y-83456765D01*
X143085227Y-83450804D01*
X143109495Y-83447204D01*
X143133999Y-83446000D01*
X144034001Y-83446000D01*
X144058505Y-83447204D01*
X144058505Y-83447204D01*
G37*
D15*
G04 #@! TD*
G04 #@! TO.P,R30,2*
G04 #@! TO.N,/BUCK_LO+*
X143584000Y-84021000D03*
D14*
G04 #@! TO.N,/BOOST_LO+*
G04 #@! TO.C,R32*
G36*
X168442505Y-82431204D02*
X168466773Y-82434804D01*
X168490572Y-82440765D01*
X168513671Y-82449030D01*
X168535850Y-82459520D01*
X168556893Y-82472132D01*
X168576599Y-82486747D01*
X168594777Y-82503223D01*
X168611253Y-82521401D01*
X168625868Y-82541107D01*
X168638480Y-82562150D01*
X168648970Y-82584329D01*
X168657235Y-82607428D01*
X168663196Y-82631227D01*
X168666796Y-82655495D01*
X168668000Y-82679999D01*
X168668000Y-83330001D01*
X168666796Y-83354505D01*
X168663196Y-83378773D01*
X168657235Y-83402572D01*
X168648970Y-83425671D01*
X168638480Y-83447850D01*
X168625868Y-83468893D01*
X168611253Y-83488599D01*
X168594777Y-83506777D01*
X168576599Y-83523253D01*
X168556893Y-83537868D01*
X168535850Y-83550480D01*
X168513671Y-83560970D01*
X168490572Y-83569235D01*
X168466773Y-83575196D01*
X168442505Y-83578796D01*
X168418001Y-83580000D01*
X167517999Y-83580000D01*
X167493495Y-83578796D01*
X167469227Y-83575196D01*
X167445428Y-83569235D01*
X167422329Y-83560970D01*
X167400150Y-83550480D01*
X167379107Y-83537868D01*
X167359401Y-83523253D01*
X167341223Y-83506777D01*
X167324747Y-83488599D01*
X167310132Y-83468893D01*
X167297520Y-83447850D01*
X167287030Y-83425671D01*
X167278765Y-83402572D01*
X167272804Y-83378773D01*
X167269204Y-83354505D01*
X167268000Y-83330001D01*
X167268000Y-82679999D01*
X167269204Y-82655495D01*
X167272804Y-82631227D01*
X167278765Y-82607428D01*
X167287030Y-82584329D01*
X167297520Y-82562150D01*
X167310132Y-82541107D01*
X167324747Y-82521401D01*
X167341223Y-82503223D01*
X167359401Y-82486747D01*
X167379107Y-82472132D01*
X167400150Y-82459520D01*
X167422329Y-82449030D01*
X167445428Y-82440765D01*
X167469227Y-82434804D01*
X167493495Y-82431204D01*
X167517999Y-82430000D01*
X168418001Y-82430000D01*
X168442505Y-82431204D01*
X168442505Y-82431204D01*
G37*
D15*
G04 #@! TD*
G04 #@! TO.P,R32,2*
G04 #@! TO.N,/BOOST_LO+*
X167968000Y-83005000D03*
D14*
G04 #@! TO.N,VCC*
G04 #@! TO.C,R32*
G36*
X168442505Y-80381204D02*
X168466773Y-80384804D01*
X168490572Y-80390765D01*
X168513671Y-80399030D01*
X168535850Y-80409520D01*
X168556893Y-80422132D01*
X168576599Y-80436747D01*
X168594777Y-80453223D01*
X168611253Y-80471401D01*
X168625868Y-80491107D01*
X168638480Y-80512150D01*
X168648970Y-80534329D01*
X168657235Y-80557428D01*
X168663196Y-80581227D01*
X168666796Y-80605495D01*
X168668000Y-80629999D01*
X168668000Y-81280001D01*
X168666796Y-81304505D01*
X168663196Y-81328773D01*
X168657235Y-81352572D01*
X168648970Y-81375671D01*
X168638480Y-81397850D01*
X168625868Y-81418893D01*
X168611253Y-81438599D01*
X168594777Y-81456777D01*
X168576599Y-81473253D01*
X168556893Y-81487868D01*
X168535850Y-81500480D01*
X168513671Y-81510970D01*
X168490572Y-81519235D01*
X168466773Y-81525196D01*
X168442505Y-81528796D01*
X168418001Y-81530000D01*
X167517999Y-81530000D01*
X167493495Y-81528796D01*
X167469227Y-81525196D01*
X167445428Y-81519235D01*
X167422329Y-81510970D01*
X167400150Y-81500480D01*
X167379107Y-81487868D01*
X167359401Y-81473253D01*
X167341223Y-81456777D01*
X167324747Y-81438599D01*
X167310132Y-81418893D01*
X167297520Y-81397850D01*
X167287030Y-81375671D01*
X167278765Y-81352572D01*
X167272804Y-81328773D01*
X167269204Y-81304505D01*
X167268000Y-81280001D01*
X167268000Y-80629999D01*
X167269204Y-80605495D01*
X167272804Y-80581227D01*
X167278765Y-80557428D01*
X167287030Y-80534329D01*
X167297520Y-80512150D01*
X167310132Y-80491107D01*
X167324747Y-80471401D01*
X167341223Y-80453223D01*
X167359401Y-80436747D01*
X167379107Y-80422132D01*
X167400150Y-80409520D01*
X167422329Y-80399030D01*
X167445428Y-80390765D01*
X167469227Y-80384804D01*
X167493495Y-80381204D01*
X167517999Y-80380000D01*
X168418001Y-80380000D01*
X168442505Y-80381204D01*
X168442505Y-80381204D01*
G37*
D15*
G04 #@! TD*
G04 #@! TO.P,R32,1*
G04 #@! TO.N,VCC*
X167968000Y-80955000D03*
D14*
G04 #@! TO.N,/BOOST_LO+*
G04 #@! TO.C,R33*
G36*
X168442505Y-84445204D02*
X168466773Y-84448804D01*
X168490572Y-84454765D01*
X168513671Y-84463030D01*
X168535850Y-84473520D01*
X168556893Y-84486132D01*
X168576599Y-84500747D01*
X168594777Y-84517223D01*
X168611253Y-84535401D01*
X168625868Y-84555107D01*
X168638480Y-84576150D01*
X168648970Y-84598329D01*
X168657235Y-84621428D01*
X168663196Y-84645227D01*
X168666796Y-84669495D01*
X168668000Y-84693999D01*
X168668000Y-85344001D01*
X168666796Y-85368505D01*
X168663196Y-85392773D01*
X168657235Y-85416572D01*
X168648970Y-85439671D01*
X168638480Y-85461850D01*
X168625868Y-85482893D01*
X168611253Y-85502599D01*
X168594777Y-85520777D01*
X168576599Y-85537253D01*
X168556893Y-85551868D01*
X168535850Y-85564480D01*
X168513671Y-85574970D01*
X168490572Y-85583235D01*
X168466773Y-85589196D01*
X168442505Y-85592796D01*
X168418001Y-85594000D01*
X167517999Y-85594000D01*
X167493495Y-85592796D01*
X167469227Y-85589196D01*
X167445428Y-85583235D01*
X167422329Y-85574970D01*
X167400150Y-85564480D01*
X167379107Y-85551868D01*
X167359401Y-85537253D01*
X167341223Y-85520777D01*
X167324747Y-85502599D01*
X167310132Y-85482893D01*
X167297520Y-85461850D01*
X167287030Y-85439671D01*
X167278765Y-85416572D01*
X167272804Y-85392773D01*
X167269204Y-85368505D01*
X167268000Y-85344001D01*
X167268000Y-84693999D01*
X167269204Y-84669495D01*
X167272804Y-84645227D01*
X167278765Y-84621428D01*
X167287030Y-84598329D01*
X167297520Y-84576150D01*
X167310132Y-84555107D01*
X167324747Y-84535401D01*
X167341223Y-84517223D01*
X167359401Y-84500747D01*
X167379107Y-84486132D01*
X167400150Y-84473520D01*
X167422329Y-84463030D01*
X167445428Y-84454765D01*
X167469227Y-84448804D01*
X167493495Y-84445204D01*
X167517999Y-84444000D01*
X168418001Y-84444000D01*
X168442505Y-84445204D01*
X168442505Y-84445204D01*
G37*
D15*
G04 #@! TD*
G04 #@! TO.P,R33,1*
G04 #@! TO.N,/BOOST_LO+*
X167968000Y-85019000D03*
D14*
G04 #@! TO.N,GND*
G04 #@! TO.C,R33*
G36*
X168442505Y-86495204D02*
X168466773Y-86498804D01*
X168490572Y-86504765D01*
X168513671Y-86513030D01*
X168535850Y-86523520D01*
X168556893Y-86536132D01*
X168576599Y-86550747D01*
X168594777Y-86567223D01*
X168611253Y-86585401D01*
X168625868Y-86605107D01*
X168638480Y-86626150D01*
X168648970Y-86648329D01*
X168657235Y-86671428D01*
X168663196Y-86695227D01*
X168666796Y-86719495D01*
X168668000Y-86743999D01*
X168668000Y-87394001D01*
X168666796Y-87418505D01*
X168663196Y-87442773D01*
X168657235Y-87466572D01*
X168648970Y-87489671D01*
X168638480Y-87511850D01*
X168625868Y-87532893D01*
X168611253Y-87552599D01*
X168594777Y-87570777D01*
X168576599Y-87587253D01*
X168556893Y-87601868D01*
X168535850Y-87614480D01*
X168513671Y-87624970D01*
X168490572Y-87633235D01*
X168466773Y-87639196D01*
X168442505Y-87642796D01*
X168418001Y-87644000D01*
X167517999Y-87644000D01*
X167493495Y-87642796D01*
X167469227Y-87639196D01*
X167445428Y-87633235D01*
X167422329Y-87624970D01*
X167400150Y-87614480D01*
X167379107Y-87601868D01*
X167359401Y-87587253D01*
X167341223Y-87570777D01*
X167324747Y-87552599D01*
X167310132Y-87532893D01*
X167297520Y-87511850D01*
X167287030Y-87489671D01*
X167278765Y-87466572D01*
X167272804Y-87442773D01*
X167269204Y-87418505D01*
X167268000Y-87394001D01*
X167268000Y-86743999D01*
X167269204Y-86719495D01*
X167272804Y-86695227D01*
X167278765Y-86671428D01*
X167287030Y-86648329D01*
X167297520Y-86626150D01*
X167310132Y-86605107D01*
X167324747Y-86585401D01*
X167341223Y-86567223D01*
X167359401Y-86550747D01*
X167379107Y-86536132D01*
X167400150Y-86523520D01*
X167422329Y-86513030D01*
X167445428Y-86504765D01*
X167469227Y-86498804D01*
X167493495Y-86495204D01*
X167517999Y-86494000D01*
X168418001Y-86494000D01*
X168442505Y-86495204D01*
X168442505Y-86495204D01*
G37*
D15*
G04 #@! TD*
G04 #@! TO.P,R33,2*
G04 #@! TO.N,GND*
X167968000Y-87069000D03*
D14*
G04 #@! TO.N,/BUCK_LO-*
G04 #@! TO.C,R34*
G36*
X146090505Y-83447204D02*
X146114773Y-83450804D01*
X146138572Y-83456765D01*
X146161671Y-83465030D01*
X146183850Y-83475520D01*
X146204893Y-83488132D01*
X146224599Y-83502747D01*
X146242777Y-83519223D01*
X146259253Y-83537401D01*
X146273868Y-83557107D01*
X146286480Y-83578150D01*
X146296970Y-83600329D01*
X146305235Y-83623428D01*
X146311196Y-83647227D01*
X146314796Y-83671495D01*
X146316000Y-83695999D01*
X146316000Y-84346001D01*
X146314796Y-84370505D01*
X146311196Y-84394773D01*
X146305235Y-84418572D01*
X146296970Y-84441671D01*
X146286480Y-84463850D01*
X146273868Y-84484893D01*
X146259253Y-84504599D01*
X146242777Y-84522777D01*
X146224599Y-84539253D01*
X146204893Y-84553868D01*
X146183850Y-84566480D01*
X146161671Y-84576970D01*
X146138572Y-84585235D01*
X146114773Y-84591196D01*
X146090505Y-84594796D01*
X146066001Y-84596000D01*
X145165999Y-84596000D01*
X145141495Y-84594796D01*
X145117227Y-84591196D01*
X145093428Y-84585235D01*
X145070329Y-84576970D01*
X145048150Y-84566480D01*
X145027107Y-84553868D01*
X145007401Y-84539253D01*
X144989223Y-84522777D01*
X144972747Y-84504599D01*
X144958132Y-84484893D01*
X144945520Y-84463850D01*
X144935030Y-84441671D01*
X144926765Y-84418572D01*
X144920804Y-84394773D01*
X144917204Y-84370505D01*
X144916000Y-84346001D01*
X144916000Y-83695999D01*
X144917204Y-83671495D01*
X144920804Y-83647227D01*
X144926765Y-83623428D01*
X144935030Y-83600329D01*
X144945520Y-83578150D01*
X144958132Y-83557107D01*
X144972747Y-83537401D01*
X144989223Y-83519223D01*
X145007401Y-83502747D01*
X145027107Y-83488132D01*
X145048150Y-83475520D01*
X145070329Y-83465030D01*
X145093428Y-83456765D01*
X145117227Y-83450804D01*
X145141495Y-83447204D01*
X145165999Y-83446000D01*
X146066001Y-83446000D01*
X146090505Y-83447204D01*
X146090505Y-83447204D01*
G37*
D15*
G04 #@! TD*
G04 #@! TO.P,R34,2*
G04 #@! TO.N,/BUCK_LO-*
X145616000Y-84021000D03*
D14*
G04 #@! TO.N,VCC*
G04 #@! TO.C,R34*
G36*
X146090505Y-81397204D02*
X146114773Y-81400804D01*
X146138572Y-81406765D01*
X146161671Y-81415030D01*
X146183850Y-81425520D01*
X146204893Y-81438132D01*
X146224599Y-81452747D01*
X146242777Y-81469223D01*
X146259253Y-81487401D01*
X146273868Y-81507107D01*
X146286480Y-81528150D01*
X146296970Y-81550329D01*
X146305235Y-81573428D01*
X146311196Y-81597227D01*
X146314796Y-81621495D01*
X146316000Y-81645999D01*
X146316000Y-82296001D01*
X146314796Y-82320505D01*
X146311196Y-82344773D01*
X146305235Y-82368572D01*
X146296970Y-82391671D01*
X146286480Y-82413850D01*
X146273868Y-82434893D01*
X146259253Y-82454599D01*
X146242777Y-82472777D01*
X146224599Y-82489253D01*
X146204893Y-82503868D01*
X146183850Y-82516480D01*
X146161671Y-82526970D01*
X146138572Y-82535235D01*
X146114773Y-82541196D01*
X146090505Y-82544796D01*
X146066001Y-82546000D01*
X145165999Y-82546000D01*
X145141495Y-82544796D01*
X145117227Y-82541196D01*
X145093428Y-82535235D01*
X145070329Y-82526970D01*
X145048150Y-82516480D01*
X145027107Y-82503868D01*
X145007401Y-82489253D01*
X144989223Y-82472777D01*
X144972747Y-82454599D01*
X144958132Y-82434893D01*
X144945520Y-82413850D01*
X144935030Y-82391671D01*
X144926765Y-82368572D01*
X144920804Y-82344773D01*
X144917204Y-82320505D01*
X144916000Y-82296001D01*
X144916000Y-81645999D01*
X144917204Y-81621495D01*
X144920804Y-81597227D01*
X144926765Y-81573428D01*
X144935030Y-81550329D01*
X144945520Y-81528150D01*
X144958132Y-81507107D01*
X144972747Y-81487401D01*
X144989223Y-81469223D01*
X145007401Y-81452747D01*
X145027107Y-81438132D01*
X145048150Y-81425520D01*
X145070329Y-81415030D01*
X145093428Y-81406765D01*
X145117227Y-81400804D01*
X145141495Y-81397204D01*
X145165999Y-81396000D01*
X146066001Y-81396000D01*
X146090505Y-81397204D01*
X146090505Y-81397204D01*
G37*
D15*
G04 #@! TD*
G04 #@! TO.P,R34,1*
G04 #@! TO.N,VCC*
X145616000Y-81971000D03*
D14*
G04 #@! TO.N,/BUCK_LO-*
G04 #@! TO.C,R35*
G36*
X146090505Y-85461204D02*
X146114773Y-85464804D01*
X146138572Y-85470765D01*
X146161671Y-85479030D01*
X146183850Y-85489520D01*
X146204893Y-85502132D01*
X146224599Y-85516747D01*
X146242777Y-85533223D01*
X146259253Y-85551401D01*
X146273868Y-85571107D01*
X146286480Y-85592150D01*
X146296970Y-85614329D01*
X146305235Y-85637428D01*
X146311196Y-85661227D01*
X146314796Y-85685495D01*
X146316000Y-85709999D01*
X146316000Y-86360001D01*
X146314796Y-86384505D01*
X146311196Y-86408773D01*
X146305235Y-86432572D01*
X146296970Y-86455671D01*
X146286480Y-86477850D01*
X146273868Y-86498893D01*
X146259253Y-86518599D01*
X146242777Y-86536777D01*
X146224599Y-86553253D01*
X146204893Y-86567868D01*
X146183850Y-86580480D01*
X146161671Y-86590970D01*
X146138572Y-86599235D01*
X146114773Y-86605196D01*
X146090505Y-86608796D01*
X146066001Y-86610000D01*
X145165999Y-86610000D01*
X145141495Y-86608796D01*
X145117227Y-86605196D01*
X145093428Y-86599235D01*
X145070329Y-86590970D01*
X145048150Y-86580480D01*
X145027107Y-86567868D01*
X145007401Y-86553253D01*
X144989223Y-86536777D01*
X144972747Y-86518599D01*
X144958132Y-86498893D01*
X144945520Y-86477850D01*
X144935030Y-86455671D01*
X144926765Y-86432572D01*
X144920804Y-86408773D01*
X144917204Y-86384505D01*
X144916000Y-86360001D01*
X144916000Y-85709999D01*
X144917204Y-85685495D01*
X144920804Y-85661227D01*
X144926765Y-85637428D01*
X144935030Y-85614329D01*
X144945520Y-85592150D01*
X144958132Y-85571107D01*
X144972747Y-85551401D01*
X144989223Y-85533223D01*
X145007401Y-85516747D01*
X145027107Y-85502132D01*
X145048150Y-85489520D01*
X145070329Y-85479030D01*
X145093428Y-85470765D01*
X145117227Y-85464804D01*
X145141495Y-85461204D01*
X145165999Y-85460000D01*
X146066001Y-85460000D01*
X146090505Y-85461204D01*
X146090505Y-85461204D01*
G37*
D15*
G04 #@! TD*
G04 #@! TO.P,R35,1*
G04 #@! TO.N,/BUCK_LO-*
X145616000Y-86035000D03*
D14*
G04 #@! TO.N,GND*
G04 #@! TO.C,R35*
G36*
X146090505Y-87511204D02*
X146114773Y-87514804D01*
X146138572Y-87520765D01*
X146161671Y-87529030D01*
X146183850Y-87539520D01*
X146204893Y-87552132D01*
X146224599Y-87566747D01*
X146242777Y-87583223D01*
X146259253Y-87601401D01*
X146273868Y-87621107D01*
X146286480Y-87642150D01*
X146296970Y-87664329D01*
X146305235Y-87687428D01*
X146311196Y-87711227D01*
X146314796Y-87735495D01*
X146316000Y-87759999D01*
X146316000Y-88410001D01*
X146314796Y-88434505D01*
X146311196Y-88458773D01*
X146305235Y-88482572D01*
X146296970Y-88505671D01*
X146286480Y-88527850D01*
X146273868Y-88548893D01*
X146259253Y-88568599D01*
X146242777Y-88586777D01*
X146224599Y-88603253D01*
X146204893Y-88617868D01*
X146183850Y-88630480D01*
X146161671Y-88640970D01*
X146138572Y-88649235D01*
X146114773Y-88655196D01*
X146090505Y-88658796D01*
X146066001Y-88660000D01*
X145165999Y-88660000D01*
X145141495Y-88658796D01*
X145117227Y-88655196D01*
X145093428Y-88649235D01*
X145070329Y-88640970D01*
X145048150Y-88630480D01*
X145027107Y-88617868D01*
X145007401Y-88603253D01*
X144989223Y-88586777D01*
X144972747Y-88568599D01*
X144958132Y-88548893D01*
X144945520Y-88527850D01*
X144935030Y-88505671D01*
X144926765Y-88482572D01*
X144920804Y-88458773D01*
X144917204Y-88434505D01*
X144916000Y-88410001D01*
X144916000Y-87759999D01*
X144917204Y-87735495D01*
X144920804Y-87711227D01*
X144926765Y-87687428D01*
X144935030Y-87664329D01*
X144945520Y-87642150D01*
X144958132Y-87621107D01*
X144972747Y-87601401D01*
X144989223Y-87583223D01*
X145007401Y-87566747D01*
X145027107Y-87552132D01*
X145048150Y-87539520D01*
X145070329Y-87529030D01*
X145093428Y-87520765D01*
X145117227Y-87514804D01*
X145141495Y-87511204D01*
X145165999Y-87510000D01*
X146066001Y-87510000D01*
X146090505Y-87511204D01*
X146090505Y-87511204D01*
G37*
D15*
G04 #@! TD*
G04 #@! TO.P,R35,2*
G04 #@! TO.N,GND*
X145616000Y-88085000D03*
D14*
G04 #@! TO.N,/BOOST_LO-*
G04 #@! TO.C,R36*
G36*
X170474505Y-82431204D02*
X170498773Y-82434804D01*
X170522572Y-82440765D01*
X170545671Y-82449030D01*
X170567850Y-82459520D01*
X170588893Y-82472132D01*
X170608599Y-82486747D01*
X170626777Y-82503223D01*
X170643253Y-82521401D01*
X170657868Y-82541107D01*
X170670480Y-82562150D01*
X170680970Y-82584329D01*
X170689235Y-82607428D01*
X170695196Y-82631227D01*
X170698796Y-82655495D01*
X170700000Y-82679999D01*
X170700000Y-83330001D01*
X170698796Y-83354505D01*
X170695196Y-83378773D01*
X170689235Y-83402572D01*
X170680970Y-83425671D01*
X170670480Y-83447850D01*
X170657868Y-83468893D01*
X170643253Y-83488599D01*
X170626777Y-83506777D01*
X170608599Y-83523253D01*
X170588893Y-83537868D01*
X170567850Y-83550480D01*
X170545671Y-83560970D01*
X170522572Y-83569235D01*
X170498773Y-83575196D01*
X170474505Y-83578796D01*
X170450001Y-83580000D01*
X169549999Y-83580000D01*
X169525495Y-83578796D01*
X169501227Y-83575196D01*
X169477428Y-83569235D01*
X169454329Y-83560970D01*
X169432150Y-83550480D01*
X169411107Y-83537868D01*
X169391401Y-83523253D01*
X169373223Y-83506777D01*
X169356747Y-83488599D01*
X169342132Y-83468893D01*
X169329520Y-83447850D01*
X169319030Y-83425671D01*
X169310765Y-83402572D01*
X169304804Y-83378773D01*
X169301204Y-83354505D01*
X169300000Y-83330001D01*
X169300000Y-82679999D01*
X169301204Y-82655495D01*
X169304804Y-82631227D01*
X169310765Y-82607428D01*
X169319030Y-82584329D01*
X169329520Y-82562150D01*
X169342132Y-82541107D01*
X169356747Y-82521401D01*
X169373223Y-82503223D01*
X169391401Y-82486747D01*
X169411107Y-82472132D01*
X169432150Y-82459520D01*
X169454329Y-82449030D01*
X169477428Y-82440765D01*
X169501227Y-82434804D01*
X169525495Y-82431204D01*
X169549999Y-82430000D01*
X170450001Y-82430000D01*
X170474505Y-82431204D01*
X170474505Y-82431204D01*
G37*
D15*
G04 #@! TD*
G04 #@! TO.P,R36,2*
G04 #@! TO.N,/BOOST_LO-*
X170000000Y-83005000D03*
D14*
G04 #@! TO.N,VCC*
G04 #@! TO.C,R36*
G36*
X170474505Y-80381204D02*
X170498773Y-80384804D01*
X170522572Y-80390765D01*
X170545671Y-80399030D01*
X170567850Y-80409520D01*
X170588893Y-80422132D01*
X170608599Y-80436747D01*
X170626777Y-80453223D01*
X170643253Y-80471401D01*
X170657868Y-80491107D01*
X170670480Y-80512150D01*
X170680970Y-80534329D01*
X170689235Y-80557428D01*
X170695196Y-80581227D01*
X170698796Y-80605495D01*
X170700000Y-80629999D01*
X170700000Y-81280001D01*
X170698796Y-81304505D01*
X170695196Y-81328773D01*
X170689235Y-81352572D01*
X170680970Y-81375671D01*
X170670480Y-81397850D01*
X170657868Y-81418893D01*
X170643253Y-81438599D01*
X170626777Y-81456777D01*
X170608599Y-81473253D01*
X170588893Y-81487868D01*
X170567850Y-81500480D01*
X170545671Y-81510970D01*
X170522572Y-81519235D01*
X170498773Y-81525196D01*
X170474505Y-81528796D01*
X170450001Y-81530000D01*
X169549999Y-81530000D01*
X169525495Y-81528796D01*
X169501227Y-81525196D01*
X169477428Y-81519235D01*
X169454329Y-81510970D01*
X169432150Y-81500480D01*
X169411107Y-81487868D01*
X169391401Y-81473253D01*
X169373223Y-81456777D01*
X169356747Y-81438599D01*
X169342132Y-81418893D01*
X169329520Y-81397850D01*
X169319030Y-81375671D01*
X169310765Y-81352572D01*
X169304804Y-81328773D01*
X169301204Y-81304505D01*
X169300000Y-81280001D01*
X169300000Y-80629999D01*
X169301204Y-80605495D01*
X169304804Y-80581227D01*
X169310765Y-80557428D01*
X169319030Y-80534329D01*
X169329520Y-80512150D01*
X169342132Y-80491107D01*
X169356747Y-80471401D01*
X169373223Y-80453223D01*
X169391401Y-80436747D01*
X169411107Y-80422132D01*
X169432150Y-80409520D01*
X169454329Y-80399030D01*
X169477428Y-80390765D01*
X169501227Y-80384804D01*
X169525495Y-80381204D01*
X169549999Y-80380000D01*
X170450001Y-80380000D01*
X170474505Y-80381204D01*
X170474505Y-80381204D01*
G37*
D15*
G04 #@! TD*
G04 #@! TO.P,R36,1*
G04 #@! TO.N,VCC*
X170000000Y-80955000D03*
D14*
G04 #@! TO.N,/BOOST_LO-*
G04 #@! TO.C,R37*
G36*
X170474505Y-84445204D02*
X170498773Y-84448804D01*
X170522572Y-84454765D01*
X170545671Y-84463030D01*
X170567850Y-84473520D01*
X170588893Y-84486132D01*
X170608599Y-84500747D01*
X170626777Y-84517223D01*
X170643253Y-84535401D01*
X170657868Y-84555107D01*
X170670480Y-84576150D01*
X170680970Y-84598329D01*
X170689235Y-84621428D01*
X170695196Y-84645227D01*
X170698796Y-84669495D01*
X170700000Y-84693999D01*
X170700000Y-85344001D01*
X170698796Y-85368505D01*
X170695196Y-85392773D01*
X170689235Y-85416572D01*
X170680970Y-85439671D01*
X170670480Y-85461850D01*
X170657868Y-85482893D01*
X170643253Y-85502599D01*
X170626777Y-85520777D01*
X170608599Y-85537253D01*
X170588893Y-85551868D01*
X170567850Y-85564480D01*
X170545671Y-85574970D01*
X170522572Y-85583235D01*
X170498773Y-85589196D01*
X170474505Y-85592796D01*
X170450001Y-85594000D01*
X169549999Y-85594000D01*
X169525495Y-85592796D01*
X169501227Y-85589196D01*
X169477428Y-85583235D01*
X169454329Y-85574970D01*
X169432150Y-85564480D01*
X169411107Y-85551868D01*
X169391401Y-85537253D01*
X169373223Y-85520777D01*
X169356747Y-85502599D01*
X169342132Y-85482893D01*
X169329520Y-85461850D01*
X169319030Y-85439671D01*
X169310765Y-85416572D01*
X169304804Y-85392773D01*
X169301204Y-85368505D01*
X169300000Y-85344001D01*
X169300000Y-84693999D01*
X169301204Y-84669495D01*
X169304804Y-84645227D01*
X169310765Y-84621428D01*
X169319030Y-84598329D01*
X169329520Y-84576150D01*
X169342132Y-84555107D01*
X169356747Y-84535401D01*
X169373223Y-84517223D01*
X169391401Y-84500747D01*
X169411107Y-84486132D01*
X169432150Y-84473520D01*
X169454329Y-84463030D01*
X169477428Y-84454765D01*
X169501227Y-84448804D01*
X169525495Y-84445204D01*
X169549999Y-84444000D01*
X170450001Y-84444000D01*
X170474505Y-84445204D01*
X170474505Y-84445204D01*
G37*
D15*
G04 #@! TD*
G04 #@! TO.P,R37,1*
G04 #@! TO.N,/BOOST_LO-*
X170000000Y-85019000D03*
D14*
G04 #@! TO.N,GND*
G04 #@! TO.C,R37*
G36*
X170474505Y-86495204D02*
X170498773Y-86498804D01*
X170522572Y-86504765D01*
X170545671Y-86513030D01*
X170567850Y-86523520D01*
X170588893Y-86536132D01*
X170608599Y-86550747D01*
X170626777Y-86567223D01*
X170643253Y-86585401D01*
X170657868Y-86605107D01*
X170670480Y-86626150D01*
X170680970Y-86648329D01*
X170689235Y-86671428D01*
X170695196Y-86695227D01*
X170698796Y-86719495D01*
X170700000Y-86743999D01*
X170700000Y-87394001D01*
X170698796Y-87418505D01*
X170695196Y-87442773D01*
X170689235Y-87466572D01*
X170680970Y-87489671D01*
X170670480Y-87511850D01*
X170657868Y-87532893D01*
X170643253Y-87552599D01*
X170626777Y-87570777D01*
X170608599Y-87587253D01*
X170588893Y-87601868D01*
X170567850Y-87614480D01*
X170545671Y-87624970D01*
X170522572Y-87633235D01*
X170498773Y-87639196D01*
X170474505Y-87642796D01*
X170450001Y-87644000D01*
X169549999Y-87644000D01*
X169525495Y-87642796D01*
X169501227Y-87639196D01*
X169477428Y-87633235D01*
X169454329Y-87624970D01*
X169432150Y-87614480D01*
X169411107Y-87601868D01*
X169391401Y-87587253D01*
X169373223Y-87570777D01*
X169356747Y-87552599D01*
X169342132Y-87532893D01*
X169329520Y-87511850D01*
X169319030Y-87489671D01*
X169310765Y-87466572D01*
X169304804Y-87442773D01*
X169301204Y-87418505D01*
X169300000Y-87394001D01*
X169300000Y-86743999D01*
X169301204Y-86719495D01*
X169304804Y-86695227D01*
X169310765Y-86671428D01*
X169319030Y-86648329D01*
X169329520Y-86626150D01*
X169342132Y-86605107D01*
X169356747Y-86585401D01*
X169373223Y-86567223D01*
X169391401Y-86550747D01*
X169411107Y-86536132D01*
X169432150Y-86523520D01*
X169454329Y-86513030D01*
X169477428Y-86504765D01*
X169501227Y-86498804D01*
X169525495Y-86495204D01*
X169549999Y-86494000D01*
X170450001Y-86494000D01*
X170474505Y-86495204D01*
X170474505Y-86495204D01*
G37*
D15*
G04 #@! TD*
G04 #@! TO.P,R37,2*
G04 #@! TO.N,GND*
X170000000Y-87069000D03*
D14*
G04 #@! TO.N,/BUCK_HI+*
G04 #@! TO.C,R22*
G36*
X139994505Y-83447204D02*
X140018773Y-83450804D01*
X140042572Y-83456765D01*
X140065671Y-83465030D01*
X140087850Y-83475520D01*
X140108893Y-83488132D01*
X140128599Y-83502747D01*
X140146777Y-83519223D01*
X140163253Y-83537401D01*
X140177868Y-83557107D01*
X140190480Y-83578150D01*
X140200970Y-83600329D01*
X140209235Y-83623428D01*
X140215196Y-83647227D01*
X140218796Y-83671495D01*
X140220000Y-83695999D01*
X140220000Y-84346001D01*
X140218796Y-84370505D01*
X140215196Y-84394773D01*
X140209235Y-84418572D01*
X140200970Y-84441671D01*
X140190480Y-84463850D01*
X140177868Y-84484893D01*
X140163253Y-84504599D01*
X140146777Y-84522777D01*
X140128599Y-84539253D01*
X140108893Y-84553868D01*
X140087850Y-84566480D01*
X140065671Y-84576970D01*
X140042572Y-84585235D01*
X140018773Y-84591196D01*
X139994505Y-84594796D01*
X139970001Y-84596000D01*
X139069999Y-84596000D01*
X139045495Y-84594796D01*
X139021227Y-84591196D01*
X138997428Y-84585235D01*
X138974329Y-84576970D01*
X138952150Y-84566480D01*
X138931107Y-84553868D01*
X138911401Y-84539253D01*
X138893223Y-84522777D01*
X138876747Y-84504599D01*
X138862132Y-84484893D01*
X138849520Y-84463850D01*
X138839030Y-84441671D01*
X138830765Y-84418572D01*
X138824804Y-84394773D01*
X138821204Y-84370505D01*
X138820000Y-84346001D01*
X138820000Y-83695999D01*
X138821204Y-83671495D01*
X138824804Y-83647227D01*
X138830765Y-83623428D01*
X138839030Y-83600329D01*
X138849520Y-83578150D01*
X138862132Y-83557107D01*
X138876747Y-83537401D01*
X138893223Y-83519223D01*
X138911401Y-83502747D01*
X138931107Y-83488132D01*
X138952150Y-83475520D01*
X138974329Y-83465030D01*
X138997428Y-83456765D01*
X139021227Y-83450804D01*
X139045495Y-83447204D01*
X139069999Y-83446000D01*
X139970001Y-83446000D01*
X139994505Y-83447204D01*
X139994505Y-83447204D01*
G37*
D15*
G04 #@! TD*
G04 #@! TO.P,R22,2*
G04 #@! TO.N,/BUCK_HI+*
X139520000Y-84021000D03*
D14*
G04 #@! TO.N,VCC*
G04 #@! TO.C,R22*
G36*
X139994505Y-81397204D02*
X140018773Y-81400804D01*
X140042572Y-81406765D01*
X140065671Y-81415030D01*
X140087850Y-81425520D01*
X140108893Y-81438132D01*
X140128599Y-81452747D01*
X140146777Y-81469223D01*
X140163253Y-81487401D01*
X140177868Y-81507107D01*
X140190480Y-81528150D01*
X140200970Y-81550329D01*
X140209235Y-81573428D01*
X140215196Y-81597227D01*
X140218796Y-81621495D01*
X140220000Y-81645999D01*
X140220000Y-82296001D01*
X140218796Y-82320505D01*
X140215196Y-82344773D01*
X140209235Y-82368572D01*
X140200970Y-82391671D01*
X140190480Y-82413850D01*
X140177868Y-82434893D01*
X140163253Y-82454599D01*
X140146777Y-82472777D01*
X140128599Y-82489253D01*
X140108893Y-82503868D01*
X140087850Y-82516480D01*
X140065671Y-82526970D01*
X140042572Y-82535235D01*
X140018773Y-82541196D01*
X139994505Y-82544796D01*
X139970001Y-82546000D01*
X139069999Y-82546000D01*
X139045495Y-82544796D01*
X139021227Y-82541196D01*
X138997428Y-82535235D01*
X138974329Y-82526970D01*
X138952150Y-82516480D01*
X138931107Y-82503868D01*
X138911401Y-82489253D01*
X138893223Y-82472777D01*
X138876747Y-82454599D01*
X138862132Y-82434893D01*
X138849520Y-82413850D01*
X138839030Y-82391671D01*
X138830765Y-82368572D01*
X138824804Y-82344773D01*
X138821204Y-82320505D01*
X138820000Y-82296001D01*
X138820000Y-81645999D01*
X138821204Y-81621495D01*
X138824804Y-81597227D01*
X138830765Y-81573428D01*
X138839030Y-81550329D01*
X138849520Y-81528150D01*
X138862132Y-81507107D01*
X138876747Y-81487401D01*
X138893223Y-81469223D01*
X138911401Y-81452747D01*
X138931107Y-81438132D01*
X138952150Y-81425520D01*
X138974329Y-81415030D01*
X138997428Y-81406765D01*
X139021227Y-81400804D01*
X139045495Y-81397204D01*
X139069999Y-81396000D01*
X139970001Y-81396000D01*
X139994505Y-81397204D01*
X139994505Y-81397204D01*
G37*
D15*
G04 #@! TD*
G04 #@! TO.P,R22,1*
G04 #@! TO.N,VCC*
X139520000Y-81971000D03*
D14*
G04 #@! TO.N,/BOOST_LO-*
G04 #@! TO.C,R21*
G36*
X173014505Y-84445204D02*
X173038773Y-84448804D01*
X173062572Y-84454765D01*
X173085671Y-84463030D01*
X173107850Y-84473520D01*
X173128893Y-84486132D01*
X173148599Y-84500747D01*
X173166777Y-84517223D01*
X173183253Y-84535401D01*
X173197868Y-84555107D01*
X173210480Y-84576150D01*
X173220970Y-84598329D01*
X173229235Y-84621428D01*
X173235196Y-84645227D01*
X173238796Y-84669495D01*
X173240000Y-84693999D01*
X173240000Y-85344001D01*
X173238796Y-85368505D01*
X173235196Y-85392773D01*
X173229235Y-85416572D01*
X173220970Y-85439671D01*
X173210480Y-85461850D01*
X173197868Y-85482893D01*
X173183253Y-85502599D01*
X173166777Y-85520777D01*
X173148599Y-85537253D01*
X173128893Y-85551868D01*
X173107850Y-85564480D01*
X173085671Y-85574970D01*
X173062572Y-85583235D01*
X173038773Y-85589196D01*
X173014505Y-85592796D01*
X172990001Y-85594000D01*
X172089999Y-85594000D01*
X172065495Y-85592796D01*
X172041227Y-85589196D01*
X172017428Y-85583235D01*
X171994329Y-85574970D01*
X171972150Y-85564480D01*
X171951107Y-85551868D01*
X171931401Y-85537253D01*
X171913223Y-85520777D01*
X171896747Y-85502599D01*
X171882132Y-85482893D01*
X171869520Y-85461850D01*
X171859030Y-85439671D01*
X171850765Y-85416572D01*
X171844804Y-85392773D01*
X171841204Y-85368505D01*
X171840000Y-85344001D01*
X171840000Y-84693999D01*
X171841204Y-84669495D01*
X171844804Y-84645227D01*
X171850765Y-84621428D01*
X171859030Y-84598329D01*
X171869520Y-84576150D01*
X171882132Y-84555107D01*
X171896747Y-84535401D01*
X171913223Y-84517223D01*
X171931401Y-84500747D01*
X171951107Y-84486132D01*
X171972150Y-84473520D01*
X171994329Y-84463030D01*
X172017428Y-84454765D01*
X172041227Y-84448804D01*
X172065495Y-84445204D01*
X172089999Y-84444000D01*
X172990001Y-84444000D01*
X173014505Y-84445204D01*
X173014505Y-84445204D01*
G37*
D15*
G04 #@! TD*
G04 #@! TO.P,R21,1*
G04 #@! TO.N,/BOOST_LO-*
X172540000Y-85019000D03*
D14*
G04 #@! TO.N,/BOOST_LO+*
G04 #@! TO.C,R21*
G36*
X173014505Y-86495204D02*
X173038773Y-86498804D01*
X173062572Y-86504765D01*
X173085671Y-86513030D01*
X173107850Y-86523520D01*
X173128893Y-86536132D01*
X173148599Y-86550747D01*
X173166777Y-86567223D01*
X173183253Y-86585401D01*
X173197868Y-86605107D01*
X173210480Y-86626150D01*
X173220970Y-86648329D01*
X173229235Y-86671428D01*
X173235196Y-86695227D01*
X173238796Y-86719495D01*
X173240000Y-86743999D01*
X173240000Y-87394001D01*
X173238796Y-87418505D01*
X173235196Y-87442773D01*
X173229235Y-87466572D01*
X173220970Y-87489671D01*
X173210480Y-87511850D01*
X173197868Y-87532893D01*
X173183253Y-87552599D01*
X173166777Y-87570777D01*
X173148599Y-87587253D01*
X173128893Y-87601868D01*
X173107850Y-87614480D01*
X173085671Y-87624970D01*
X173062572Y-87633235D01*
X173038773Y-87639196D01*
X173014505Y-87642796D01*
X172990001Y-87644000D01*
X172089999Y-87644000D01*
X172065495Y-87642796D01*
X172041227Y-87639196D01*
X172017428Y-87633235D01*
X171994329Y-87624970D01*
X171972150Y-87614480D01*
X171951107Y-87601868D01*
X171931401Y-87587253D01*
X171913223Y-87570777D01*
X171896747Y-87552599D01*
X171882132Y-87532893D01*
X171869520Y-87511850D01*
X171859030Y-87489671D01*
X171850765Y-87466572D01*
X171844804Y-87442773D01*
X171841204Y-87418505D01*
X171840000Y-87394001D01*
X171840000Y-86743999D01*
X171841204Y-86719495D01*
X171844804Y-86695227D01*
X171850765Y-86671428D01*
X171859030Y-86648329D01*
X171869520Y-86626150D01*
X171882132Y-86605107D01*
X171896747Y-86585401D01*
X171913223Y-86567223D01*
X171931401Y-86550747D01*
X171951107Y-86536132D01*
X171972150Y-86523520D01*
X171994329Y-86513030D01*
X172017428Y-86504765D01*
X172041227Y-86498804D01*
X172065495Y-86495204D01*
X172089999Y-86494000D01*
X172990001Y-86494000D01*
X173014505Y-86495204D01*
X173014505Y-86495204D01*
G37*
D15*
G04 #@! TD*
G04 #@! TO.P,R21,2*
G04 #@! TO.N,/BOOST_LO+*
X172540000Y-87069000D03*
D14*
G04 #@! TO.N,/BOOST_HI+*
G04 #@! TO.C,R20*
G36*
X173014505Y-91584204D02*
X173038773Y-91587804D01*
X173062572Y-91593765D01*
X173085671Y-91602030D01*
X173107850Y-91612520D01*
X173128893Y-91625132D01*
X173148599Y-91639747D01*
X173166777Y-91656223D01*
X173183253Y-91674401D01*
X173197868Y-91694107D01*
X173210480Y-91715150D01*
X173220970Y-91737329D01*
X173229235Y-91760428D01*
X173235196Y-91784227D01*
X173238796Y-91808495D01*
X173240000Y-91832999D01*
X173240000Y-92483001D01*
X173238796Y-92507505D01*
X173235196Y-92531773D01*
X173229235Y-92555572D01*
X173220970Y-92578671D01*
X173210480Y-92600850D01*
X173197868Y-92621893D01*
X173183253Y-92641599D01*
X173166777Y-92659777D01*
X173148599Y-92676253D01*
X173128893Y-92690868D01*
X173107850Y-92703480D01*
X173085671Y-92713970D01*
X173062572Y-92722235D01*
X173038773Y-92728196D01*
X173014505Y-92731796D01*
X172990001Y-92733000D01*
X172089999Y-92733000D01*
X172065495Y-92731796D01*
X172041227Y-92728196D01*
X172017428Y-92722235D01*
X171994329Y-92713970D01*
X171972150Y-92703480D01*
X171951107Y-92690868D01*
X171931401Y-92676253D01*
X171913223Y-92659777D01*
X171896747Y-92641599D01*
X171882132Y-92621893D01*
X171869520Y-92600850D01*
X171859030Y-92578671D01*
X171850765Y-92555572D01*
X171844804Y-92531773D01*
X171841204Y-92507505D01*
X171840000Y-92483001D01*
X171840000Y-91832999D01*
X171841204Y-91808495D01*
X171844804Y-91784227D01*
X171850765Y-91760428D01*
X171859030Y-91737329D01*
X171869520Y-91715150D01*
X171882132Y-91694107D01*
X171896747Y-91674401D01*
X171913223Y-91656223D01*
X171931401Y-91639747D01*
X171951107Y-91625132D01*
X171972150Y-91612520D01*
X171994329Y-91602030D01*
X172017428Y-91593765D01*
X172041227Y-91587804D01*
X172065495Y-91584204D01*
X172089999Y-91583000D01*
X172990001Y-91583000D01*
X173014505Y-91584204D01*
X173014505Y-91584204D01*
G37*
D15*
G04 #@! TD*
G04 #@! TO.P,R20,2*
G04 #@! TO.N,/BOOST_HI+*
X172540000Y-92158000D03*
D14*
G04 #@! TO.N,/BOOST_HI-*
G04 #@! TO.C,R20*
G36*
X173014505Y-89534204D02*
X173038773Y-89537804D01*
X173062572Y-89543765D01*
X173085671Y-89552030D01*
X173107850Y-89562520D01*
X173128893Y-89575132D01*
X173148599Y-89589747D01*
X173166777Y-89606223D01*
X173183253Y-89624401D01*
X173197868Y-89644107D01*
X173210480Y-89665150D01*
X173220970Y-89687329D01*
X173229235Y-89710428D01*
X173235196Y-89734227D01*
X173238796Y-89758495D01*
X173240000Y-89782999D01*
X173240000Y-90433001D01*
X173238796Y-90457505D01*
X173235196Y-90481773D01*
X173229235Y-90505572D01*
X173220970Y-90528671D01*
X173210480Y-90550850D01*
X173197868Y-90571893D01*
X173183253Y-90591599D01*
X173166777Y-90609777D01*
X173148599Y-90626253D01*
X173128893Y-90640868D01*
X173107850Y-90653480D01*
X173085671Y-90663970D01*
X173062572Y-90672235D01*
X173038773Y-90678196D01*
X173014505Y-90681796D01*
X172990001Y-90683000D01*
X172089999Y-90683000D01*
X172065495Y-90681796D01*
X172041227Y-90678196D01*
X172017428Y-90672235D01*
X171994329Y-90663970D01*
X171972150Y-90653480D01*
X171951107Y-90640868D01*
X171931401Y-90626253D01*
X171913223Y-90609777D01*
X171896747Y-90591599D01*
X171882132Y-90571893D01*
X171869520Y-90550850D01*
X171859030Y-90528671D01*
X171850765Y-90505572D01*
X171844804Y-90481773D01*
X171841204Y-90457505D01*
X171840000Y-90433001D01*
X171840000Y-89782999D01*
X171841204Y-89758495D01*
X171844804Y-89734227D01*
X171850765Y-89710428D01*
X171859030Y-89687329D01*
X171869520Y-89665150D01*
X171882132Y-89644107D01*
X171896747Y-89624401D01*
X171913223Y-89606223D01*
X171931401Y-89589747D01*
X171951107Y-89575132D01*
X171972150Y-89562520D01*
X171994329Y-89552030D01*
X172017428Y-89543765D01*
X172041227Y-89537804D01*
X172065495Y-89534204D01*
X172089999Y-89533000D01*
X172990001Y-89533000D01*
X173014505Y-89534204D01*
X173014505Y-89534204D01*
G37*
D15*
G04 #@! TD*
G04 #@! TO.P,R20,1*
G04 #@! TO.N,/BOOST_HI-*
X172540000Y-90108000D03*
D14*
G04 #@! TO.N,/BUCK_LO+*
G04 #@! TO.C,R31*
G36*
X144058505Y-85461204D02*
X144082773Y-85464804D01*
X144106572Y-85470765D01*
X144129671Y-85479030D01*
X144151850Y-85489520D01*
X144172893Y-85502132D01*
X144192599Y-85516747D01*
X144210777Y-85533223D01*
X144227253Y-85551401D01*
X144241868Y-85571107D01*
X144254480Y-85592150D01*
X144264970Y-85614329D01*
X144273235Y-85637428D01*
X144279196Y-85661227D01*
X144282796Y-85685495D01*
X144284000Y-85709999D01*
X144284000Y-86360001D01*
X144282796Y-86384505D01*
X144279196Y-86408773D01*
X144273235Y-86432572D01*
X144264970Y-86455671D01*
X144254480Y-86477850D01*
X144241868Y-86498893D01*
X144227253Y-86518599D01*
X144210777Y-86536777D01*
X144192599Y-86553253D01*
X144172893Y-86567868D01*
X144151850Y-86580480D01*
X144129671Y-86590970D01*
X144106572Y-86599235D01*
X144082773Y-86605196D01*
X144058505Y-86608796D01*
X144034001Y-86610000D01*
X143133999Y-86610000D01*
X143109495Y-86608796D01*
X143085227Y-86605196D01*
X143061428Y-86599235D01*
X143038329Y-86590970D01*
X143016150Y-86580480D01*
X142995107Y-86567868D01*
X142975401Y-86553253D01*
X142957223Y-86536777D01*
X142940747Y-86518599D01*
X142926132Y-86498893D01*
X142913520Y-86477850D01*
X142903030Y-86455671D01*
X142894765Y-86432572D01*
X142888804Y-86408773D01*
X142885204Y-86384505D01*
X142884000Y-86360001D01*
X142884000Y-85709999D01*
X142885204Y-85685495D01*
X142888804Y-85661227D01*
X142894765Y-85637428D01*
X142903030Y-85614329D01*
X142913520Y-85592150D01*
X142926132Y-85571107D01*
X142940747Y-85551401D01*
X142957223Y-85533223D01*
X142975401Y-85516747D01*
X142995107Y-85502132D01*
X143016150Y-85489520D01*
X143038329Y-85479030D01*
X143061428Y-85470765D01*
X143085227Y-85464804D01*
X143109495Y-85461204D01*
X143133999Y-85460000D01*
X144034001Y-85460000D01*
X144058505Y-85461204D01*
X144058505Y-85461204D01*
G37*
D15*
G04 #@! TD*
G04 #@! TO.P,R31,1*
G04 #@! TO.N,/BUCK_LO+*
X143584000Y-86035000D03*
D14*
G04 #@! TO.N,GND*
G04 #@! TO.C,R31*
G36*
X144058505Y-87511204D02*
X144082773Y-87514804D01*
X144106572Y-87520765D01*
X144129671Y-87529030D01*
X144151850Y-87539520D01*
X144172893Y-87552132D01*
X144192599Y-87566747D01*
X144210777Y-87583223D01*
X144227253Y-87601401D01*
X144241868Y-87621107D01*
X144254480Y-87642150D01*
X144264970Y-87664329D01*
X144273235Y-87687428D01*
X144279196Y-87711227D01*
X144282796Y-87735495D01*
X144284000Y-87759999D01*
X144284000Y-88410001D01*
X144282796Y-88434505D01*
X144279196Y-88458773D01*
X144273235Y-88482572D01*
X144264970Y-88505671D01*
X144254480Y-88527850D01*
X144241868Y-88548893D01*
X144227253Y-88568599D01*
X144210777Y-88586777D01*
X144192599Y-88603253D01*
X144172893Y-88617868D01*
X144151850Y-88630480D01*
X144129671Y-88640970D01*
X144106572Y-88649235D01*
X144082773Y-88655196D01*
X144058505Y-88658796D01*
X144034001Y-88660000D01*
X143133999Y-88660000D01*
X143109495Y-88658796D01*
X143085227Y-88655196D01*
X143061428Y-88649235D01*
X143038329Y-88640970D01*
X143016150Y-88630480D01*
X142995107Y-88617868D01*
X142975401Y-88603253D01*
X142957223Y-88586777D01*
X142940747Y-88568599D01*
X142926132Y-88548893D01*
X142913520Y-88527850D01*
X142903030Y-88505671D01*
X142894765Y-88482572D01*
X142888804Y-88458773D01*
X142885204Y-88434505D01*
X142884000Y-88410001D01*
X142884000Y-87759999D01*
X142885204Y-87735495D01*
X142888804Y-87711227D01*
X142894765Y-87687428D01*
X142903030Y-87664329D01*
X142913520Y-87642150D01*
X142926132Y-87621107D01*
X142940747Y-87601401D01*
X142957223Y-87583223D01*
X142975401Y-87566747D01*
X142995107Y-87552132D01*
X143016150Y-87539520D01*
X143038329Y-87529030D01*
X143061428Y-87520765D01*
X143085227Y-87514804D01*
X143109495Y-87511204D01*
X143133999Y-87510000D01*
X144034001Y-87510000D01*
X144058505Y-87511204D01*
X144058505Y-87511204D01*
G37*
D15*
G04 #@! TD*
G04 #@! TO.P,R31,2*
G04 #@! TO.N,GND*
X143584000Y-88085000D03*
D16*
G04 #@! TO.P,J2,1*
G04 #@! TO.N,VCC*
X167460000Y-89600000D03*
D17*
G04 #@! TO.P,J2,2*
G04 #@! TO.N,/T24_IO*
X167460000Y-92140000D03*
G04 #@! TO.P,J2,3*
G04 #@! TO.N,/T24_PWM*
X167460000Y-94680000D03*
G04 #@! TO.P,J2,4*
G04 #@! TO.N,GND*
X167460000Y-97220000D03*
G04 #@! TD*
D14*
G04 #@! TO.N,GND*
G04 #@! TO.C,R13*
G36*
X139474505Y-116951204D02*
X139498773Y-116954804D01*
X139522572Y-116960765D01*
X139545671Y-116969030D01*
X139567850Y-116979520D01*
X139588893Y-116992132D01*
X139608599Y-117006747D01*
X139626777Y-117023223D01*
X139643253Y-117041401D01*
X139657868Y-117061107D01*
X139670480Y-117082150D01*
X139680970Y-117104329D01*
X139689235Y-117127428D01*
X139695196Y-117151227D01*
X139698796Y-117175495D01*
X139700000Y-117199999D01*
X139700000Y-117850001D01*
X139698796Y-117874505D01*
X139695196Y-117898773D01*
X139689235Y-117922572D01*
X139680970Y-117945671D01*
X139670480Y-117967850D01*
X139657868Y-117988893D01*
X139643253Y-118008599D01*
X139626777Y-118026777D01*
X139608599Y-118043253D01*
X139588893Y-118057868D01*
X139567850Y-118070480D01*
X139545671Y-118080970D01*
X139522572Y-118089235D01*
X139498773Y-118095196D01*
X139474505Y-118098796D01*
X139450001Y-118100000D01*
X138549999Y-118100000D01*
X138525495Y-118098796D01*
X138501227Y-118095196D01*
X138477428Y-118089235D01*
X138454329Y-118080970D01*
X138432150Y-118070480D01*
X138411107Y-118057868D01*
X138391401Y-118043253D01*
X138373223Y-118026777D01*
X138356747Y-118008599D01*
X138342132Y-117988893D01*
X138329520Y-117967850D01*
X138319030Y-117945671D01*
X138310765Y-117922572D01*
X138304804Y-117898773D01*
X138301204Y-117874505D01*
X138300000Y-117850001D01*
X138300000Y-117199999D01*
X138301204Y-117175495D01*
X138304804Y-117151227D01*
X138310765Y-117127428D01*
X138319030Y-117104329D01*
X138329520Y-117082150D01*
X138342132Y-117061107D01*
X138356747Y-117041401D01*
X138373223Y-117023223D01*
X138391401Y-117006747D01*
X138411107Y-116992132D01*
X138432150Y-116979520D01*
X138454329Y-116969030D01*
X138477428Y-116960765D01*
X138501227Y-116954804D01*
X138525495Y-116951204D01*
X138549999Y-116950000D01*
X139450001Y-116950000D01*
X139474505Y-116951204D01*
X139474505Y-116951204D01*
G37*
D15*
G04 #@! TD*
G04 #@! TO.P,R13,2*
G04 #@! TO.N,GND*
X139000000Y-117525000D03*
D14*
G04 #@! TO.N,/SDA-*
G04 #@! TO.C,R13*
G36*
X139474505Y-114901204D02*
X139498773Y-114904804D01*
X139522572Y-114910765D01*
X139545671Y-114919030D01*
X139567850Y-114929520D01*
X139588893Y-114942132D01*
X139608599Y-114956747D01*
X139626777Y-114973223D01*
X139643253Y-114991401D01*
X139657868Y-115011107D01*
X139670480Y-115032150D01*
X139680970Y-115054329D01*
X139689235Y-115077428D01*
X139695196Y-115101227D01*
X139698796Y-115125495D01*
X139700000Y-115149999D01*
X139700000Y-115800001D01*
X139698796Y-115824505D01*
X139695196Y-115848773D01*
X139689235Y-115872572D01*
X139680970Y-115895671D01*
X139670480Y-115917850D01*
X139657868Y-115938893D01*
X139643253Y-115958599D01*
X139626777Y-115976777D01*
X139608599Y-115993253D01*
X139588893Y-116007868D01*
X139567850Y-116020480D01*
X139545671Y-116030970D01*
X139522572Y-116039235D01*
X139498773Y-116045196D01*
X139474505Y-116048796D01*
X139450001Y-116050000D01*
X138549999Y-116050000D01*
X138525495Y-116048796D01*
X138501227Y-116045196D01*
X138477428Y-116039235D01*
X138454329Y-116030970D01*
X138432150Y-116020480D01*
X138411107Y-116007868D01*
X138391401Y-115993253D01*
X138373223Y-115976777D01*
X138356747Y-115958599D01*
X138342132Y-115938893D01*
X138329520Y-115917850D01*
X138319030Y-115895671D01*
X138310765Y-115872572D01*
X138304804Y-115848773D01*
X138301204Y-115824505D01*
X138300000Y-115800001D01*
X138300000Y-115149999D01*
X138301204Y-115125495D01*
X138304804Y-115101227D01*
X138310765Y-115077428D01*
X138319030Y-115054329D01*
X138329520Y-115032150D01*
X138342132Y-115011107D01*
X138356747Y-114991401D01*
X138373223Y-114973223D01*
X138391401Y-114956747D01*
X138411107Y-114942132D01*
X138432150Y-114929520D01*
X138454329Y-114919030D01*
X138477428Y-114910765D01*
X138501227Y-114904804D01*
X138525495Y-114901204D01*
X138549999Y-114900000D01*
X139450001Y-114900000D01*
X139474505Y-114901204D01*
X139474505Y-114901204D01*
G37*
D15*
G04 #@! TD*
G04 #@! TO.P,R13,1*
G04 #@! TO.N,/SDA-*
X139000000Y-115475000D03*
D14*
G04 #@! TO.N,/SCL+*
G04 #@! TO.C,R14*
G36*
X143474505Y-114876204D02*
X143498773Y-114879804D01*
X143522572Y-114885765D01*
X143545671Y-114894030D01*
X143567850Y-114904520D01*
X143588893Y-114917132D01*
X143608599Y-114931747D01*
X143626777Y-114948223D01*
X143643253Y-114966401D01*
X143657868Y-114986107D01*
X143670480Y-115007150D01*
X143680970Y-115029329D01*
X143689235Y-115052428D01*
X143695196Y-115076227D01*
X143698796Y-115100495D01*
X143700000Y-115124999D01*
X143700000Y-115775001D01*
X143698796Y-115799505D01*
X143695196Y-115823773D01*
X143689235Y-115847572D01*
X143680970Y-115870671D01*
X143670480Y-115892850D01*
X143657868Y-115913893D01*
X143643253Y-115933599D01*
X143626777Y-115951777D01*
X143608599Y-115968253D01*
X143588893Y-115982868D01*
X143567850Y-115995480D01*
X143545671Y-116005970D01*
X143522572Y-116014235D01*
X143498773Y-116020196D01*
X143474505Y-116023796D01*
X143450001Y-116025000D01*
X142549999Y-116025000D01*
X142525495Y-116023796D01*
X142501227Y-116020196D01*
X142477428Y-116014235D01*
X142454329Y-116005970D01*
X142432150Y-115995480D01*
X142411107Y-115982868D01*
X142391401Y-115968253D01*
X142373223Y-115951777D01*
X142356747Y-115933599D01*
X142342132Y-115913893D01*
X142329520Y-115892850D01*
X142319030Y-115870671D01*
X142310765Y-115847572D01*
X142304804Y-115823773D01*
X142301204Y-115799505D01*
X142300000Y-115775001D01*
X142300000Y-115124999D01*
X142301204Y-115100495D01*
X142304804Y-115076227D01*
X142310765Y-115052428D01*
X142319030Y-115029329D01*
X142329520Y-115007150D01*
X142342132Y-114986107D01*
X142356747Y-114966401D01*
X142373223Y-114948223D01*
X142391401Y-114931747D01*
X142411107Y-114917132D01*
X142432150Y-114904520D01*
X142454329Y-114894030D01*
X142477428Y-114885765D01*
X142501227Y-114879804D01*
X142525495Y-114876204D01*
X142549999Y-114875000D01*
X143450001Y-114875000D01*
X143474505Y-114876204D01*
X143474505Y-114876204D01*
G37*
D15*
G04 #@! TD*
G04 #@! TO.P,R14,1*
G04 #@! TO.N,/SCL+*
X143000000Y-115450000D03*
D14*
G04 #@! TO.N,GND*
G04 #@! TO.C,R14*
G36*
X143474505Y-116926204D02*
X143498773Y-116929804D01*
X143522572Y-116935765D01*
X143545671Y-116944030D01*
X143567850Y-116954520D01*
X143588893Y-116967132D01*
X143608599Y-116981747D01*
X143626777Y-116998223D01*
X143643253Y-117016401D01*
X143657868Y-117036107D01*
X143670480Y-117057150D01*
X143680970Y-117079329D01*
X143689235Y-117102428D01*
X143695196Y-117126227D01*
X143698796Y-117150495D01*
X143700000Y-117174999D01*
X143700000Y-117825001D01*
X143698796Y-117849505D01*
X143695196Y-117873773D01*
X143689235Y-117897572D01*
X143680970Y-117920671D01*
X143670480Y-117942850D01*
X143657868Y-117963893D01*
X143643253Y-117983599D01*
X143626777Y-118001777D01*
X143608599Y-118018253D01*
X143588893Y-118032868D01*
X143567850Y-118045480D01*
X143545671Y-118055970D01*
X143522572Y-118064235D01*
X143498773Y-118070196D01*
X143474505Y-118073796D01*
X143450001Y-118075000D01*
X142549999Y-118075000D01*
X142525495Y-118073796D01*
X142501227Y-118070196D01*
X142477428Y-118064235D01*
X142454329Y-118055970D01*
X142432150Y-118045480D01*
X142411107Y-118032868D01*
X142391401Y-118018253D01*
X142373223Y-118001777D01*
X142356747Y-117983599D01*
X142342132Y-117963893D01*
X142329520Y-117942850D01*
X142319030Y-117920671D01*
X142310765Y-117897572D01*
X142304804Y-117873773D01*
X142301204Y-117849505D01*
X142300000Y-117825001D01*
X142300000Y-117174999D01*
X142301204Y-117150495D01*
X142304804Y-117126227D01*
X142310765Y-117102428D01*
X142319030Y-117079329D01*
X142329520Y-117057150D01*
X142342132Y-117036107D01*
X142356747Y-117016401D01*
X142373223Y-116998223D01*
X142391401Y-116981747D01*
X142411107Y-116967132D01*
X142432150Y-116954520D01*
X142454329Y-116944030D01*
X142477428Y-116935765D01*
X142501227Y-116929804D01*
X142525495Y-116926204D01*
X142549999Y-116925000D01*
X143450001Y-116925000D01*
X143474505Y-116926204D01*
X143474505Y-116926204D01*
G37*
D15*
G04 #@! TD*
G04 #@! TO.P,R14,2*
G04 #@! TO.N,GND*
X143000000Y-117500000D03*
D14*
G04 #@! TO.N,GND*
G04 #@! TO.C,R15*
G36*
X145474505Y-116926204D02*
X145498773Y-116929804D01*
X145522572Y-116935765D01*
X145545671Y-116944030D01*
X145567850Y-116954520D01*
X145588893Y-116967132D01*
X145608599Y-116981747D01*
X145626777Y-116998223D01*
X145643253Y-117016401D01*
X145657868Y-117036107D01*
X145670480Y-117057150D01*
X145680970Y-117079329D01*
X145689235Y-117102428D01*
X145695196Y-117126227D01*
X145698796Y-117150495D01*
X145700000Y-117174999D01*
X145700000Y-117825001D01*
X145698796Y-117849505D01*
X145695196Y-117873773D01*
X145689235Y-117897572D01*
X145680970Y-117920671D01*
X145670480Y-117942850D01*
X145657868Y-117963893D01*
X145643253Y-117983599D01*
X145626777Y-118001777D01*
X145608599Y-118018253D01*
X145588893Y-118032868D01*
X145567850Y-118045480D01*
X145545671Y-118055970D01*
X145522572Y-118064235D01*
X145498773Y-118070196D01*
X145474505Y-118073796D01*
X145450001Y-118075000D01*
X144549999Y-118075000D01*
X144525495Y-118073796D01*
X144501227Y-118070196D01*
X144477428Y-118064235D01*
X144454329Y-118055970D01*
X144432150Y-118045480D01*
X144411107Y-118032868D01*
X144391401Y-118018253D01*
X144373223Y-118001777D01*
X144356747Y-117983599D01*
X144342132Y-117963893D01*
X144329520Y-117942850D01*
X144319030Y-117920671D01*
X144310765Y-117897572D01*
X144304804Y-117873773D01*
X144301204Y-117849505D01*
X144300000Y-117825001D01*
X144300000Y-117174999D01*
X144301204Y-117150495D01*
X144304804Y-117126227D01*
X144310765Y-117102428D01*
X144319030Y-117079329D01*
X144329520Y-117057150D01*
X144342132Y-117036107D01*
X144356747Y-117016401D01*
X144373223Y-116998223D01*
X144391401Y-116981747D01*
X144411107Y-116967132D01*
X144432150Y-116954520D01*
X144454329Y-116944030D01*
X144477428Y-116935765D01*
X144501227Y-116929804D01*
X144525495Y-116926204D01*
X144549999Y-116925000D01*
X145450001Y-116925000D01*
X145474505Y-116926204D01*
X145474505Y-116926204D01*
G37*
D15*
G04 #@! TD*
G04 #@! TO.P,R15,2*
G04 #@! TO.N,GND*
X145000000Y-117500000D03*
D14*
G04 #@! TO.N,/SCL-*
G04 #@! TO.C,R15*
G36*
X145474505Y-114876204D02*
X145498773Y-114879804D01*
X145522572Y-114885765D01*
X145545671Y-114894030D01*
X145567850Y-114904520D01*
X145588893Y-114917132D01*
X145608599Y-114931747D01*
X145626777Y-114948223D01*
X145643253Y-114966401D01*
X145657868Y-114986107D01*
X145670480Y-115007150D01*
X145680970Y-115029329D01*
X145689235Y-115052428D01*
X145695196Y-115076227D01*
X145698796Y-115100495D01*
X145700000Y-115124999D01*
X145700000Y-115775001D01*
X145698796Y-115799505D01*
X145695196Y-115823773D01*
X145689235Y-115847572D01*
X145680970Y-115870671D01*
X145670480Y-115892850D01*
X145657868Y-115913893D01*
X145643253Y-115933599D01*
X145626777Y-115951777D01*
X145608599Y-115968253D01*
X145588893Y-115982868D01*
X145567850Y-115995480D01*
X145545671Y-116005970D01*
X145522572Y-116014235D01*
X145498773Y-116020196D01*
X145474505Y-116023796D01*
X145450001Y-116025000D01*
X144549999Y-116025000D01*
X144525495Y-116023796D01*
X144501227Y-116020196D01*
X144477428Y-116014235D01*
X144454329Y-116005970D01*
X144432150Y-115995480D01*
X144411107Y-115982868D01*
X144391401Y-115968253D01*
X144373223Y-115951777D01*
X144356747Y-115933599D01*
X144342132Y-115913893D01*
X144329520Y-115892850D01*
X144319030Y-115870671D01*
X144310765Y-115847572D01*
X144304804Y-115823773D01*
X144301204Y-115799505D01*
X144300000Y-115775001D01*
X144300000Y-115124999D01*
X144301204Y-115100495D01*
X144304804Y-115076227D01*
X144310765Y-115052428D01*
X144319030Y-115029329D01*
X144329520Y-115007150D01*
X144342132Y-114986107D01*
X144356747Y-114966401D01*
X144373223Y-114948223D01*
X144391401Y-114931747D01*
X144411107Y-114917132D01*
X144432150Y-114904520D01*
X144454329Y-114894030D01*
X144477428Y-114885765D01*
X144501227Y-114879804D01*
X144525495Y-114876204D01*
X144549999Y-114875000D01*
X145450001Y-114875000D01*
X145474505Y-114876204D01*
X145474505Y-114876204D01*
G37*
D15*
G04 #@! TD*
G04 #@! TO.P,R15,1*
G04 #@! TO.N,/SCL-*
X145000000Y-115450000D03*
D14*
G04 #@! TO.N,/SDA+*
G04 #@! TO.C,R16*
G36*
X141449505Y-112901204D02*
X141473773Y-112904804D01*
X141497572Y-112910765D01*
X141520671Y-112919030D01*
X141542850Y-112929520D01*
X141563893Y-112942132D01*
X141583599Y-112956747D01*
X141601777Y-112973223D01*
X141618253Y-112991401D01*
X141632868Y-113011107D01*
X141645480Y-113032150D01*
X141655970Y-113054329D01*
X141664235Y-113077428D01*
X141670196Y-113101227D01*
X141673796Y-113125495D01*
X141675000Y-113149999D01*
X141675000Y-114050001D01*
X141673796Y-114074505D01*
X141670196Y-114098773D01*
X141664235Y-114122572D01*
X141655970Y-114145671D01*
X141645480Y-114167850D01*
X141632868Y-114188893D01*
X141618253Y-114208599D01*
X141601777Y-114226777D01*
X141583599Y-114243253D01*
X141563893Y-114257868D01*
X141542850Y-114270480D01*
X141520671Y-114280970D01*
X141497572Y-114289235D01*
X141473773Y-114295196D01*
X141449505Y-114298796D01*
X141425001Y-114300000D01*
X140774999Y-114300000D01*
X140750495Y-114298796D01*
X140726227Y-114295196D01*
X140702428Y-114289235D01*
X140679329Y-114280970D01*
X140657150Y-114270480D01*
X140636107Y-114257868D01*
X140616401Y-114243253D01*
X140598223Y-114226777D01*
X140581747Y-114208599D01*
X140567132Y-114188893D01*
X140554520Y-114167850D01*
X140544030Y-114145671D01*
X140535765Y-114122572D01*
X140529804Y-114098773D01*
X140526204Y-114074505D01*
X140525000Y-114050001D01*
X140525000Y-113149999D01*
X140526204Y-113125495D01*
X140529804Y-113101227D01*
X140535765Y-113077428D01*
X140544030Y-113054329D01*
X140554520Y-113032150D01*
X140567132Y-113011107D01*
X140581747Y-112991401D01*
X140598223Y-112973223D01*
X140616401Y-112956747D01*
X140636107Y-112942132D01*
X140657150Y-112929520D01*
X140679329Y-112919030D01*
X140702428Y-112910765D01*
X140726227Y-112904804D01*
X140750495Y-112901204D01*
X140774999Y-112900000D01*
X141425001Y-112900000D01*
X141449505Y-112901204D01*
X141449505Y-112901204D01*
G37*
D15*
G04 #@! TD*
G04 #@! TO.P,R16,1*
G04 #@! TO.N,/SDA+*
X141100000Y-113600000D03*
D14*
G04 #@! TO.N,/SDA-*
G04 #@! TO.C,R16*
G36*
X139399505Y-112901204D02*
X139423773Y-112904804D01*
X139447572Y-112910765D01*
X139470671Y-112919030D01*
X139492850Y-112929520D01*
X139513893Y-112942132D01*
X139533599Y-112956747D01*
X139551777Y-112973223D01*
X139568253Y-112991401D01*
X139582868Y-113011107D01*
X139595480Y-113032150D01*
X139605970Y-113054329D01*
X139614235Y-113077428D01*
X139620196Y-113101227D01*
X139623796Y-113125495D01*
X139625000Y-113149999D01*
X139625000Y-114050001D01*
X139623796Y-114074505D01*
X139620196Y-114098773D01*
X139614235Y-114122572D01*
X139605970Y-114145671D01*
X139595480Y-114167850D01*
X139582868Y-114188893D01*
X139568253Y-114208599D01*
X139551777Y-114226777D01*
X139533599Y-114243253D01*
X139513893Y-114257868D01*
X139492850Y-114270480D01*
X139470671Y-114280970D01*
X139447572Y-114289235D01*
X139423773Y-114295196D01*
X139399505Y-114298796D01*
X139375001Y-114300000D01*
X138724999Y-114300000D01*
X138700495Y-114298796D01*
X138676227Y-114295196D01*
X138652428Y-114289235D01*
X138629329Y-114280970D01*
X138607150Y-114270480D01*
X138586107Y-114257868D01*
X138566401Y-114243253D01*
X138548223Y-114226777D01*
X138531747Y-114208599D01*
X138517132Y-114188893D01*
X138504520Y-114167850D01*
X138494030Y-114145671D01*
X138485765Y-114122572D01*
X138479804Y-114098773D01*
X138476204Y-114074505D01*
X138475000Y-114050001D01*
X138475000Y-113149999D01*
X138476204Y-113125495D01*
X138479804Y-113101227D01*
X138485765Y-113077428D01*
X138494030Y-113054329D01*
X138504520Y-113032150D01*
X138517132Y-113011107D01*
X138531747Y-112991401D01*
X138548223Y-112973223D01*
X138566401Y-112956747D01*
X138586107Y-112942132D01*
X138607150Y-112929520D01*
X138629329Y-112919030D01*
X138652428Y-112910765D01*
X138676227Y-112904804D01*
X138700495Y-112901204D01*
X138724999Y-112900000D01*
X139375001Y-112900000D01*
X139399505Y-112901204D01*
X139399505Y-112901204D01*
G37*
D15*
G04 #@! TD*
G04 #@! TO.P,R16,2*
G04 #@! TO.N,/SDA-*
X139050000Y-113600000D03*
D14*
G04 #@! TO.N,/SCL+*
G04 #@! TO.C,R17*
G36*
X143224505Y-112901204D02*
X143248773Y-112904804D01*
X143272572Y-112910765D01*
X143295671Y-112919030D01*
X143317850Y-112929520D01*
X143338893Y-112942132D01*
X143358599Y-112956747D01*
X143376777Y-112973223D01*
X143393253Y-112991401D01*
X143407868Y-113011107D01*
X143420480Y-113032150D01*
X143430970Y-113054329D01*
X143439235Y-113077428D01*
X143445196Y-113101227D01*
X143448796Y-113125495D01*
X143450000Y-113149999D01*
X143450000Y-114050001D01*
X143448796Y-114074505D01*
X143445196Y-114098773D01*
X143439235Y-114122572D01*
X143430970Y-114145671D01*
X143420480Y-114167850D01*
X143407868Y-114188893D01*
X143393253Y-114208599D01*
X143376777Y-114226777D01*
X143358599Y-114243253D01*
X143338893Y-114257868D01*
X143317850Y-114270480D01*
X143295671Y-114280970D01*
X143272572Y-114289235D01*
X143248773Y-114295196D01*
X143224505Y-114298796D01*
X143200001Y-114300000D01*
X142549999Y-114300000D01*
X142525495Y-114298796D01*
X142501227Y-114295196D01*
X142477428Y-114289235D01*
X142454329Y-114280970D01*
X142432150Y-114270480D01*
X142411107Y-114257868D01*
X142391401Y-114243253D01*
X142373223Y-114226777D01*
X142356747Y-114208599D01*
X142342132Y-114188893D01*
X142329520Y-114167850D01*
X142319030Y-114145671D01*
X142310765Y-114122572D01*
X142304804Y-114098773D01*
X142301204Y-114074505D01*
X142300000Y-114050001D01*
X142300000Y-113149999D01*
X142301204Y-113125495D01*
X142304804Y-113101227D01*
X142310765Y-113077428D01*
X142319030Y-113054329D01*
X142329520Y-113032150D01*
X142342132Y-113011107D01*
X142356747Y-112991401D01*
X142373223Y-112973223D01*
X142391401Y-112956747D01*
X142411107Y-112942132D01*
X142432150Y-112929520D01*
X142454329Y-112919030D01*
X142477428Y-112910765D01*
X142501227Y-112904804D01*
X142525495Y-112901204D01*
X142549999Y-112900000D01*
X143200001Y-112900000D01*
X143224505Y-112901204D01*
X143224505Y-112901204D01*
G37*
D15*
G04 #@! TD*
G04 #@! TO.P,R17,2*
G04 #@! TO.N,/SCL+*
X142875000Y-113600000D03*
D14*
G04 #@! TO.N,/SCL-*
G04 #@! TO.C,R17*
G36*
X145274505Y-112901204D02*
X145298773Y-112904804D01*
X145322572Y-112910765D01*
X145345671Y-112919030D01*
X145367850Y-112929520D01*
X145388893Y-112942132D01*
X145408599Y-112956747D01*
X145426777Y-112973223D01*
X145443253Y-112991401D01*
X145457868Y-113011107D01*
X145470480Y-113032150D01*
X145480970Y-113054329D01*
X145489235Y-113077428D01*
X145495196Y-113101227D01*
X145498796Y-113125495D01*
X145500000Y-113149999D01*
X145500000Y-114050001D01*
X145498796Y-114074505D01*
X145495196Y-114098773D01*
X145489235Y-114122572D01*
X145480970Y-114145671D01*
X145470480Y-114167850D01*
X145457868Y-114188893D01*
X145443253Y-114208599D01*
X145426777Y-114226777D01*
X145408599Y-114243253D01*
X145388893Y-114257868D01*
X145367850Y-114270480D01*
X145345671Y-114280970D01*
X145322572Y-114289235D01*
X145298773Y-114295196D01*
X145274505Y-114298796D01*
X145250001Y-114300000D01*
X144599999Y-114300000D01*
X144575495Y-114298796D01*
X144551227Y-114295196D01*
X144527428Y-114289235D01*
X144504329Y-114280970D01*
X144482150Y-114270480D01*
X144461107Y-114257868D01*
X144441401Y-114243253D01*
X144423223Y-114226777D01*
X144406747Y-114208599D01*
X144392132Y-114188893D01*
X144379520Y-114167850D01*
X144369030Y-114145671D01*
X144360765Y-114122572D01*
X144354804Y-114098773D01*
X144351204Y-114074505D01*
X144350000Y-114050001D01*
X144350000Y-113149999D01*
X144351204Y-113125495D01*
X144354804Y-113101227D01*
X144360765Y-113077428D01*
X144369030Y-113054329D01*
X144379520Y-113032150D01*
X144392132Y-113011107D01*
X144406747Y-112991401D01*
X144423223Y-112973223D01*
X144441401Y-112956747D01*
X144461107Y-112942132D01*
X144482150Y-112929520D01*
X144504329Y-112919030D01*
X144527428Y-112910765D01*
X144551227Y-112904804D01*
X144575495Y-112901204D01*
X144599999Y-112900000D01*
X145250001Y-112900000D01*
X145274505Y-112901204D01*
X145274505Y-112901204D01*
G37*
D15*
G04 #@! TD*
G04 #@! TO.P,R17,1*
G04 #@! TO.N,/SCL-*
X144925000Y-113600000D03*
D14*
G04 #@! TO.N,/SDA+*
G04 #@! TO.C,R12*
G36*
X141474505Y-114901204D02*
X141498773Y-114904804D01*
X141522572Y-114910765D01*
X141545671Y-114919030D01*
X141567850Y-114929520D01*
X141588893Y-114942132D01*
X141608599Y-114956747D01*
X141626777Y-114973223D01*
X141643253Y-114991401D01*
X141657868Y-115011107D01*
X141670480Y-115032150D01*
X141680970Y-115054329D01*
X141689235Y-115077428D01*
X141695196Y-115101227D01*
X141698796Y-115125495D01*
X141700000Y-115149999D01*
X141700000Y-115800001D01*
X141698796Y-115824505D01*
X141695196Y-115848773D01*
X141689235Y-115872572D01*
X141680970Y-115895671D01*
X141670480Y-115917850D01*
X141657868Y-115938893D01*
X141643253Y-115958599D01*
X141626777Y-115976777D01*
X141608599Y-115993253D01*
X141588893Y-116007868D01*
X141567850Y-116020480D01*
X141545671Y-116030970D01*
X141522572Y-116039235D01*
X141498773Y-116045196D01*
X141474505Y-116048796D01*
X141450001Y-116050000D01*
X140549999Y-116050000D01*
X140525495Y-116048796D01*
X140501227Y-116045196D01*
X140477428Y-116039235D01*
X140454329Y-116030970D01*
X140432150Y-116020480D01*
X140411107Y-116007868D01*
X140391401Y-115993253D01*
X140373223Y-115976777D01*
X140356747Y-115958599D01*
X140342132Y-115938893D01*
X140329520Y-115917850D01*
X140319030Y-115895671D01*
X140310765Y-115872572D01*
X140304804Y-115848773D01*
X140301204Y-115824505D01*
X140300000Y-115800001D01*
X140300000Y-115149999D01*
X140301204Y-115125495D01*
X140304804Y-115101227D01*
X140310765Y-115077428D01*
X140319030Y-115054329D01*
X140329520Y-115032150D01*
X140342132Y-115011107D01*
X140356747Y-114991401D01*
X140373223Y-114973223D01*
X140391401Y-114956747D01*
X140411107Y-114942132D01*
X140432150Y-114929520D01*
X140454329Y-114919030D01*
X140477428Y-114910765D01*
X140501227Y-114904804D01*
X140525495Y-114901204D01*
X140549999Y-114900000D01*
X141450001Y-114900000D01*
X141474505Y-114901204D01*
X141474505Y-114901204D01*
G37*
D15*
G04 #@! TD*
G04 #@! TO.P,R12,1*
G04 #@! TO.N,/SDA+*
X141000000Y-115475000D03*
D14*
G04 #@! TO.N,GND*
G04 #@! TO.C,R12*
G36*
X141474505Y-116951204D02*
X141498773Y-116954804D01*
X141522572Y-116960765D01*
X141545671Y-116969030D01*
X141567850Y-116979520D01*
X141588893Y-116992132D01*
X141608599Y-117006747D01*
X141626777Y-117023223D01*
X141643253Y-117041401D01*
X141657868Y-117061107D01*
X141670480Y-117082150D01*
X141680970Y-117104329D01*
X141689235Y-117127428D01*
X141695196Y-117151227D01*
X141698796Y-117175495D01*
X141700000Y-117199999D01*
X141700000Y-117850001D01*
X141698796Y-117874505D01*
X141695196Y-117898773D01*
X141689235Y-117922572D01*
X141680970Y-117945671D01*
X141670480Y-117967850D01*
X141657868Y-117988893D01*
X141643253Y-118008599D01*
X141626777Y-118026777D01*
X141608599Y-118043253D01*
X141588893Y-118057868D01*
X141567850Y-118070480D01*
X141545671Y-118080970D01*
X141522572Y-118089235D01*
X141498773Y-118095196D01*
X141474505Y-118098796D01*
X141450001Y-118100000D01*
X140549999Y-118100000D01*
X140525495Y-118098796D01*
X140501227Y-118095196D01*
X140477428Y-118089235D01*
X140454329Y-118080970D01*
X140432150Y-118070480D01*
X140411107Y-118057868D01*
X140391401Y-118043253D01*
X140373223Y-118026777D01*
X140356747Y-118008599D01*
X140342132Y-117988893D01*
X140329520Y-117967850D01*
X140319030Y-117945671D01*
X140310765Y-117922572D01*
X140304804Y-117898773D01*
X140301204Y-117874505D01*
X140300000Y-117850001D01*
X140300000Y-117199999D01*
X140301204Y-117175495D01*
X140304804Y-117151227D01*
X140310765Y-117127428D01*
X140319030Y-117104329D01*
X140329520Y-117082150D01*
X140342132Y-117061107D01*
X140356747Y-117041401D01*
X140373223Y-117023223D01*
X140391401Y-117006747D01*
X140411107Y-116992132D01*
X140432150Y-116979520D01*
X140454329Y-116969030D01*
X140477428Y-116960765D01*
X140501227Y-116954804D01*
X140525495Y-116951204D01*
X140549999Y-116950000D01*
X141450001Y-116950000D01*
X141474505Y-116951204D01*
X141474505Y-116951204D01*
G37*
D15*
G04 #@! TD*
G04 #@! TO.P,R12,2*
G04 #@! TO.N,GND*
X141000000Y-117525000D03*
D18*
G04 #@! TO.P,J1,1*
G04 #@! TO.N,VCC*
X165160000Y-120000000D03*
D19*
G04 #@! TO.P,J1,2*
G04 #@! TO.N,GND*
X165160000Y-122540000D03*
G04 #@! TO.P,J1,3*
G04 #@! TO.N,/MOSI*
X162620000Y-120000000D03*
G04 #@! TO.P,J1,4*
G04 #@! TO.N,GND*
X162620000Y-122540000D03*
G04 #@! TO.P,J1,5*
G04 #@! TO.N,/MISO*
X160080000Y-120000000D03*
G04 #@! TO.P,J1,6*
G04 #@! TO.N,GND*
X160080000Y-122540000D03*
G04 #@! TO.P,J1,7*
G04 #@! TO.N,/SCK*
X157540000Y-120000000D03*
G04 #@! TO.P,J1,8*
G04 #@! TO.N,GND*
X157540000Y-122540000D03*
G04 #@! TO.P,J1,9*
G04 #@! TO.N,/~CS~*
X155000000Y-120000000D03*
G04 #@! TO.P,J1,10*
G04 #@! TO.N,GND*
X155000000Y-122540000D03*
G04 #@! TO.P,J1,11*
G04 #@! TO.N,/~INT~*
X152460000Y-120000000D03*
G04 #@! TO.P,J1,12*
G04 #@! TO.N,GND*
X152460000Y-122540000D03*
G04 #@! TO.P,J1,13*
G04 #@! TO.N,/~RESET~*
X149920000Y-120000000D03*
G04 #@! TO.P,J1,14*
G04 #@! TO.N,GND*
X149920000Y-122540000D03*
G04 #@! TO.P,J1,15*
G04 #@! TO.N,/GPIO1*
X147380000Y-120000000D03*
G04 #@! TO.P,J1,16*
G04 #@! TO.N,GND*
X147380000Y-122540000D03*
G04 #@! TO.P,J1,17*
G04 #@! TO.N,/GPIO0*
X144840000Y-120000000D03*
G04 #@! TO.P,J1,18*
G04 #@! TO.N,GND*
X144840000Y-122540000D03*
G04 #@! TD*
D17*
G04 #@! TO.P,J3,6*
G04 #@! TO.N,/SCL-*
X135000000Y-115000000D03*
G04 #@! TO.P,J3,5*
G04 #@! TO.N,/SCL+*
X135000000Y-112460000D03*
G04 #@! TO.P,J3,4*
G04 #@! TO.N,/SDA-*
X135000000Y-109920000D03*
G04 #@! TO.P,J3,3*
G04 #@! TO.N,/SDA+*
X135000000Y-107380000D03*
G04 #@! TO.P,J3,2*
G04 #@! TO.N,GND*
X135000000Y-104840000D03*
D16*
G04 #@! TO.P,J3,1*
G04 #@! TO.N,VCC*
X135000000Y-102300000D03*
G04 #@! TD*
G04 #@! TO.P,J4,1*
G04 #@! TO.N,VCC*
X175000000Y-115000000D03*
D17*
G04 #@! TO.P,J4,2*
G04 #@! TO.N,GND*
X175000000Y-112460000D03*
G04 #@! TO.P,J4,3*
G04 #@! TO.N,/SDA+*
X175000000Y-109920000D03*
G04 #@! TO.P,J4,4*
G04 #@! TO.N,/SDA-*
X175000000Y-107380000D03*
G04 #@! TO.P,J4,5*
G04 #@! TO.N,/SCL+*
X175000000Y-104840000D03*
G04 #@! TO.P,J4,6*
G04 #@! TO.N,/SCL-*
X175000000Y-102300000D03*
G04 #@! TD*
G04 #@! TO.P,J5,6*
G04 #@! TO.N,/BUCK_LO-*
X135000000Y-97700000D03*
G04 #@! TO.P,J5,5*
G04 #@! TO.N,/BUCK_LO+*
X135000000Y-95160000D03*
G04 #@! TO.P,J5,4*
G04 #@! TO.N,/BUCK_HI-*
X135000000Y-92620000D03*
G04 #@! TO.P,J5,3*
G04 #@! TO.N,/BUCK_HI+*
X135000000Y-90080000D03*
G04 #@! TO.P,J5,2*
G04 #@! TO.N,GND*
X135000000Y-87540000D03*
D16*
G04 #@! TO.P,J5,1*
G04 #@! TO.N,VCC*
X135000000Y-85000000D03*
G04 #@! TD*
G04 #@! TO.P,J6,1*
G04 #@! TO.N,VCC*
X175000000Y-97500000D03*
D17*
G04 #@! TO.P,J6,2*
G04 #@! TO.N,GND*
X175000000Y-94960000D03*
G04 #@! TO.P,J6,3*
G04 #@! TO.N,/BOOST_HI+*
X175000000Y-92420000D03*
G04 #@! TO.P,J6,4*
G04 #@! TO.N,/BOOST_HI-*
X175000000Y-89880000D03*
G04 #@! TO.P,J6,5*
G04 #@! TO.N,/BOOST_LO+*
X175000000Y-87340000D03*
G04 #@! TO.P,J6,6*
G04 #@! TO.N,/BOOST_LO-*
X175000000Y-84800000D03*
G04 #@! TD*
D20*
G04 #@! TO.P,MH1,1*
G04 #@! TO.N,Net-(C7-Pad1)*
X176590990Y-118409010D03*
X175000000Y-117750000D03*
X173409010Y-118409010D03*
X172750000Y-120000000D03*
X173409010Y-121590990D03*
X175000000Y-122250000D03*
X176590990Y-121590990D03*
X177250000Y-120000000D03*
D21*
X175000000Y-120000000D03*
G04 #@! TD*
G04 #@! TO.P,MH2,1*
G04 #@! TO.N,Net-(C8-Pad1)*
X135000000Y-120000000D03*
D20*
X137250000Y-120000000D03*
X136590990Y-121590990D03*
X135000000Y-122250000D03*
X133409010Y-121590990D03*
X132750000Y-120000000D03*
X133409010Y-118409010D03*
X135000000Y-117750000D03*
X136590990Y-118409010D03*
G04 #@! TD*
G04 #@! TO.P,MH3,1*
G04 #@! TO.N,Net-(C9-Pad1)*
X136590990Y-78409010D03*
X135000000Y-77750000D03*
X133409010Y-78409010D03*
X132750000Y-80000000D03*
X133409010Y-81590990D03*
X135000000Y-82250000D03*
X136590990Y-81590990D03*
X137250000Y-80000000D03*
D21*
X135000000Y-80000000D03*
G04 #@! TD*
G04 #@! TO.P,MH4,1*
G04 #@! TO.N,Net-(C10-Pad1)*
X175000000Y-80000000D03*
D20*
X177250000Y-80000000D03*
X176590990Y-81590990D03*
X175000000Y-82250000D03*
X173409010Y-81590990D03*
X172750000Y-80000000D03*
X173409010Y-78409010D03*
X175000000Y-77750000D03*
X176590990Y-78409010D03*
G04 #@! TD*
D14*
G04 #@! TO.N,VCC*
G04 #@! TO.C,R8*
G36*
X141474505Y-109101204D02*
X141498773Y-109104804D01*
X141522572Y-109110765D01*
X141545671Y-109119030D01*
X141567850Y-109129520D01*
X141588893Y-109142132D01*
X141608599Y-109156747D01*
X141626777Y-109173223D01*
X141643253Y-109191401D01*
X141657868Y-109211107D01*
X141670480Y-109232150D01*
X141680970Y-109254329D01*
X141689235Y-109277428D01*
X141695196Y-109301227D01*
X141698796Y-109325495D01*
X141700000Y-109349999D01*
X141700000Y-110000001D01*
X141698796Y-110024505D01*
X141695196Y-110048773D01*
X141689235Y-110072572D01*
X141680970Y-110095671D01*
X141670480Y-110117850D01*
X141657868Y-110138893D01*
X141643253Y-110158599D01*
X141626777Y-110176777D01*
X141608599Y-110193253D01*
X141588893Y-110207868D01*
X141567850Y-110220480D01*
X141545671Y-110230970D01*
X141522572Y-110239235D01*
X141498773Y-110245196D01*
X141474505Y-110248796D01*
X141450001Y-110250000D01*
X140549999Y-110250000D01*
X140525495Y-110248796D01*
X140501227Y-110245196D01*
X140477428Y-110239235D01*
X140454329Y-110230970D01*
X140432150Y-110220480D01*
X140411107Y-110207868D01*
X140391401Y-110193253D01*
X140373223Y-110176777D01*
X140356747Y-110158599D01*
X140342132Y-110138893D01*
X140329520Y-110117850D01*
X140319030Y-110095671D01*
X140310765Y-110072572D01*
X140304804Y-110048773D01*
X140301204Y-110024505D01*
X140300000Y-110000001D01*
X140300000Y-109349999D01*
X140301204Y-109325495D01*
X140304804Y-109301227D01*
X140310765Y-109277428D01*
X140319030Y-109254329D01*
X140329520Y-109232150D01*
X140342132Y-109211107D01*
X140356747Y-109191401D01*
X140373223Y-109173223D01*
X140391401Y-109156747D01*
X140411107Y-109142132D01*
X140432150Y-109129520D01*
X140454329Y-109119030D01*
X140477428Y-109110765D01*
X140501227Y-109104804D01*
X140525495Y-109101204D01*
X140549999Y-109100000D01*
X141450001Y-109100000D01*
X141474505Y-109101204D01*
X141474505Y-109101204D01*
G37*
D15*
G04 #@! TD*
G04 #@! TO.P,R8,1*
G04 #@! TO.N,VCC*
X141000000Y-109675000D03*
D14*
G04 #@! TO.N,/SDA+*
G04 #@! TO.C,R8*
G36*
X141474505Y-111151204D02*
X141498773Y-111154804D01*
X141522572Y-111160765D01*
X141545671Y-111169030D01*
X141567850Y-111179520D01*
X141588893Y-111192132D01*
X141608599Y-111206747D01*
X141626777Y-111223223D01*
X141643253Y-111241401D01*
X141657868Y-111261107D01*
X141670480Y-111282150D01*
X141680970Y-111304329D01*
X141689235Y-111327428D01*
X141695196Y-111351227D01*
X141698796Y-111375495D01*
X141700000Y-111399999D01*
X141700000Y-112050001D01*
X141698796Y-112074505D01*
X141695196Y-112098773D01*
X141689235Y-112122572D01*
X141680970Y-112145671D01*
X141670480Y-112167850D01*
X141657868Y-112188893D01*
X141643253Y-112208599D01*
X141626777Y-112226777D01*
X141608599Y-112243253D01*
X141588893Y-112257868D01*
X141567850Y-112270480D01*
X141545671Y-112280970D01*
X141522572Y-112289235D01*
X141498773Y-112295196D01*
X141474505Y-112298796D01*
X141450001Y-112300000D01*
X140549999Y-112300000D01*
X140525495Y-112298796D01*
X140501227Y-112295196D01*
X140477428Y-112289235D01*
X140454329Y-112280970D01*
X140432150Y-112270480D01*
X140411107Y-112257868D01*
X140391401Y-112243253D01*
X140373223Y-112226777D01*
X140356747Y-112208599D01*
X140342132Y-112188893D01*
X140329520Y-112167850D01*
X140319030Y-112145671D01*
X140310765Y-112122572D01*
X140304804Y-112098773D01*
X140301204Y-112074505D01*
X140300000Y-112050001D01*
X140300000Y-111399999D01*
X140301204Y-111375495D01*
X140304804Y-111351227D01*
X140310765Y-111327428D01*
X140319030Y-111304329D01*
X140329520Y-111282150D01*
X140342132Y-111261107D01*
X140356747Y-111241401D01*
X140373223Y-111223223D01*
X140391401Y-111206747D01*
X140411107Y-111192132D01*
X140432150Y-111179520D01*
X140454329Y-111169030D01*
X140477428Y-111160765D01*
X140501227Y-111154804D01*
X140525495Y-111151204D01*
X140549999Y-111150000D01*
X141450001Y-111150000D01*
X141474505Y-111151204D01*
X141474505Y-111151204D01*
G37*
D15*
G04 #@! TD*
G04 #@! TO.P,R8,2*
G04 #@! TO.N,/SDA+*
X141000000Y-111725000D03*
D14*
G04 #@! TO.N,/SDA-*
G04 #@! TO.C,R9*
G36*
X139474505Y-111151204D02*
X139498773Y-111154804D01*
X139522572Y-111160765D01*
X139545671Y-111169030D01*
X139567850Y-111179520D01*
X139588893Y-111192132D01*
X139608599Y-111206747D01*
X139626777Y-111223223D01*
X139643253Y-111241401D01*
X139657868Y-111261107D01*
X139670480Y-111282150D01*
X139680970Y-111304329D01*
X139689235Y-111327428D01*
X139695196Y-111351227D01*
X139698796Y-111375495D01*
X139700000Y-111399999D01*
X139700000Y-112050001D01*
X139698796Y-112074505D01*
X139695196Y-112098773D01*
X139689235Y-112122572D01*
X139680970Y-112145671D01*
X139670480Y-112167850D01*
X139657868Y-112188893D01*
X139643253Y-112208599D01*
X139626777Y-112226777D01*
X139608599Y-112243253D01*
X139588893Y-112257868D01*
X139567850Y-112270480D01*
X139545671Y-112280970D01*
X139522572Y-112289235D01*
X139498773Y-112295196D01*
X139474505Y-112298796D01*
X139450001Y-112300000D01*
X138549999Y-112300000D01*
X138525495Y-112298796D01*
X138501227Y-112295196D01*
X138477428Y-112289235D01*
X138454329Y-112280970D01*
X138432150Y-112270480D01*
X138411107Y-112257868D01*
X138391401Y-112243253D01*
X138373223Y-112226777D01*
X138356747Y-112208599D01*
X138342132Y-112188893D01*
X138329520Y-112167850D01*
X138319030Y-112145671D01*
X138310765Y-112122572D01*
X138304804Y-112098773D01*
X138301204Y-112074505D01*
X138300000Y-112050001D01*
X138300000Y-111399999D01*
X138301204Y-111375495D01*
X138304804Y-111351227D01*
X138310765Y-111327428D01*
X138319030Y-111304329D01*
X138329520Y-111282150D01*
X138342132Y-111261107D01*
X138356747Y-111241401D01*
X138373223Y-111223223D01*
X138391401Y-111206747D01*
X138411107Y-111192132D01*
X138432150Y-111179520D01*
X138454329Y-111169030D01*
X138477428Y-111160765D01*
X138501227Y-111154804D01*
X138525495Y-111151204D01*
X138549999Y-111150000D01*
X139450001Y-111150000D01*
X139474505Y-111151204D01*
X139474505Y-111151204D01*
G37*
D15*
G04 #@! TD*
G04 #@! TO.P,R9,2*
G04 #@! TO.N,/SDA-*
X139000000Y-111725000D03*
D14*
G04 #@! TO.N,VCC*
G04 #@! TO.C,R9*
G36*
X139474505Y-109101204D02*
X139498773Y-109104804D01*
X139522572Y-109110765D01*
X139545671Y-109119030D01*
X139567850Y-109129520D01*
X139588893Y-109142132D01*
X139608599Y-109156747D01*
X139626777Y-109173223D01*
X139643253Y-109191401D01*
X139657868Y-109211107D01*
X139670480Y-109232150D01*
X139680970Y-109254329D01*
X139689235Y-109277428D01*
X139695196Y-109301227D01*
X139698796Y-109325495D01*
X139700000Y-109349999D01*
X139700000Y-110000001D01*
X139698796Y-110024505D01*
X139695196Y-110048773D01*
X139689235Y-110072572D01*
X139680970Y-110095671D01*
X139670480Y-110117850D01*
X139657868Y-110138893D01*
X139643253Y-110158599D01*
X139626777Y-110176777D01*
X139608599Y-110193253D01*
X139588893Y-110207868D01*
X139567850Y-110220480D01*
X139545671Y-110230970D01*
X139522572Y-110239235D01*
X139498773Y-110245196D01*
X139474505Y-110248796D01*
X139450001Y-110250000D01*
X138549999Y-110250000D01*
X138525495Y-110248796D01*
X138501227Y-110245196D01*
X138477428Y-110239235D01*
X138454329Y-110230970D01*
X138432150Y-110220480D01*
X138411107Y-110207868D01*
X138391401Y-110193253D01*
X138373223Y-110176777D01*
X138356747Y-110158599D01*
X138342132Y-110138893D01*
X138329520Y-110117850D01*
X138319030Y-110095671D01*
X138310765Y-110072572D01*
X138304804Y-110048773D01*
X138301204Y-110024505D01*
X138300000Y-110000001D01*
X138300000Y-109349999D01*
X138301204Y-109325495D01*
X138304804Y-109301227D01*
X138310765Y-109277428D01*
X138319030Y-109254329D01*
X138329520Y-109232150D01*
X138342132Y-109211107D01*
X138356747Y-109191401D01*
X138373223Y-109173223D01*
X138391401Y-109156747D01*
X138411107Y-109142132D01*
X138432150Y-109129520D01*
X138454329Y-109119030D01*
X138477428Y-109110765D01*
X138501227Y-109104804D01*
X138525495Y-109101204D01*
X138549999Y-109100000D01*
X139450001Y-109100000D01*
X139474505Y-109101204D01*
X139474505Y-109101204D01*
G37*
D15*
G04 #@! TD*
G04 #@! TO.P,R9,1*
G04 #@! TO.N,VCC*
X139000000Y-109675000D03*
D14*
G04 #@! TO.N,VCC*
G04 #@! TO.C,R10*
G36*
X143474505Y-109101204D02*
X143498773Y-109104804D01*
X143522572Y-109110765D01*
X143545671Y-109119030D01*
X143567850Y-109129520D01*
X143588893Y-109142132D01*
X143608599Y-109156747D01*
X143626777Y-109173223D01*
X143643253Y-109191401D01*
X143657868Y-109211107D01*
X143670480Y-109232150D01*
X143680970Y-109254329D01*
X143689235Y-109277428D01*
X143695196Y-109301227D01*
X143698796Y-109325495D01*
X143700000Y-109349999D01*
X143700000Y-110000001D01*
X143698796Y-110024505D01*
X143695196Y-110048773D01*
X143689235Y-110072572D01*
X143680970Y-110095671D01*
X143670480Y-110117850D01*
X143657868Y-110138893D01*
X143643253Y-110158599D01*
X143626777Y-110176777D01*
X143608599Y-110193253D01*
X143588893Y-110207868D01*
X143567850Y-110220480D01*
X143545671Y-110230970D01*
X143522572Y-110239235D01*
X143498773Y-110245196D01*
X143474505Y-110248796D01*
X143450001Y-110250000D01*
X142549999Y-110250000D01*
X142525495Y-110248796D01*
X142501227Y-110245196D01*
X142477428Y-110239235D01*
X142454329Y-110230970D01*
X142432150Y-110220480D01*
X142411107Y-110207868D01*
X142391401Y-110193253D01*
X142373223Y-110176777D01*
X142356747Y-110158599D01*
X142342132Y-110138893D01*
X142329520Y-110117850D01*
X142319030Y-110095671D01*
X142310765Y-110072572D01*
X142304804Y-110048773D01*
X142301204Y-110024505D01*
X142300000Y-110000001D01*
X142300000Y-109349999D01*
X142301204Y-109325495D01*
X142304804Y-109301227D01*
X142310765Y-109277428D01*
X142319030Y-109254329D01*
X142329520Y-109232150D01*
X142342132Y-109211107D01*
X142356747Y-109191401D01*
X142373223Y-109173223D01*
X142391401Y-109156747D01*
X142411107Y-109142132D01*
X142432150Y-109129520D01*
X142454329Y-109119030D01*
X142477428Y-109110765D01*
X142501227Y-109104804D01*
X142525495Y-109101204D01*
X142549999Y-109100000D01*
X143450001Y-109100000D01*
X143474505Y-109101204D01*
X143474505Y-109101204D01*
G37*
D15*
G04 #@! TD*
G04 #@! TO.P,R10,1*
G04 #@! TO.N,VCC*
X143000000Y-109675000D03*
D14*
G04 #@! TO.N,/SCL+*
G04 #@! TO.C,R10*
G36*
X143474505Y-111151204D02*
X143498773Y-111154804D01*
X143522572Y-111160765D01*
X143545671Y-111169030D01*
X143567850Y-111179520D01*
X143588893Y-111192132D01*
X143608599Y-111206747D01*
X143626777Y-111223223D01*
X143643253Y-111241401D01*
X143657868Y-111261107D01*
X143670480Y-111282150D01*
X143680970Y-111304329D01*
X143689235Y-111327428D01*
X143695196Y-111351227D01*
X143698796Y-111375495D01*
X143700000Y-111399999D01*
X143700000Y-112050001D01*
X143698796Y-112074505D01*
X143695196Y-112098773D01*
X143689235Y-112122572D01*
X143680970Y-112145671D01*
X143670480Y-112167850D01*
X143657868Y-112188893D01*
X143643253Y-112208599D01*
X143626777Y-112226777D01*
X143608599Y-112243253D01*
X143588893Y-112257868D01*
X143567850Y-112270480D01*
X143545671Y-112280970D01*
X143522572Y-112289235D01*
X143498773Y-112295196D01*
X143474505Y-112298796D01*
X143450001Y-112300000D01*
X142549999Y-112300000D01*
X142525495Y-112298796D01*
X142501227Y-112295196D01*
X142477428Y-112289235D01*
X142454329Y-112280970D01*
X142432150Y-112270480D01*
X142411107Y-112257868D01*
X142391401Y-112243253D01*
X142373223Y-112226777D01*
X142356747Y-112208599D01*
X142342132Y-112188893D01*
X142329520Y-112167850D01*
X142319030Y-112145671D01*
X142310765Y-112122572D01*
X142304804Y-112098773D01*
X142301204Y-112074505D01*
X142300000Y-112050001D01*
X142300000Y-111399999D01*
X142301204Y-111375495D01*
X142304804Y-111351227D01*
X142310765Y-111327428D01*
X142319030Y-111304329D01*
X142329520Y-111282150D01*
X142342132Y-111261107D01*
X142356747Y-111241401D01*
X142373223Y-111223223D01*
X142391401Y-111206747D01*
X142411107Y-111192132D01*
X142432150Y-111179520D01*
X142454329Y-111169030D01*
X142477428Y-111160765D01*
X142501227Y-111154804D01*
X142525495Y-111151204D01*
X142549999Y-111150000D01*
X143450001Y-111150000D01*
X143474505Y-111151204D01*
X143474505Y-111151204D01*
G37*
D15*
G04 #@! TD*
G04 #@! TO.P,R10,2*
G04 #@! TO.N,/SCL+*
X143000000Y-111725000D03*
D14*
G04 #@! TO.N,/SCL-*
G04 #@! TO.C,R11*
G36*
X145474505Y-111151204D02*
X145498773Y-111154804D01*
X145522572Y-111160765D01*
X145545671Y-111169030D01*
X145567850Y-111179520D01*
X145588893Y-111192132D01*
X145608599Y-111206747D01*
X145626777Y-111223223D01*
X145643253Y-111241401D01*
X145657868Y-111261107D01*
X145670480Y-111282150D01*
X145680970Y-111304329D01*
X145689235Y-111327428D01*
X145695196Y-111351227D01*
X145698796Y-111375495D01*
X145700000Y-111399999D01*
X145700000Y-112050001D01*
X145698796Y-112074505D01*
X145695196Y-112098773D01*
X145689235Y-112122572D01*
X145680970Y-112145671D01*
X145670480Y-112167850D01*
X145657868Y-112188893D01*
X145643253Y-112208599D01*
X145626777Y-112226777D01*
X145608599Y-112243253D01*
X145588893Y-112257868D01*
X145567850Y-112270480D01*
X145545671Y-112280970D01*
X145522572Y-112289235D01*
X145498773Y-112295196D01*
X145474505Y-112298796D01*
X145450001Y-112300000D01*
X144549999Y-112300000D01*
X144525495Y-112298796D01*
X144501227Y-112295196D01*
X144477428Y-112289235D01*
X144454329Y-112280970D01*
X144432150Y-112270480D01*
X144411107Y-112257868D01*
X144391401Y-112243253D01*
X144373223Y-112226777D01*
X144356747Y-112208599D01*
X144342132Y-112188893D01*
X144329520Y-112167850D01*
X144319030Y-112145671D01*
X144310765Y-112122572D01*
X144304804Y-112098773D01*
X144301204Y-112074505D01*
X144300000Y-112050001D01*
X144300000Y-111399999D01*
X144301204Y-111375495D01*
X144304804Y-111351227D01*
X144310765Y-111327428D01*
X144319030Y-111304329D01*
X144329520Y-111282150D01*
X144342132Y-111261107D01*
X144356747Y-111241401D01*
X144373223Y-111223223D01*
X144391401Y-111206747D01*
X144411107Y-111192132D01*
X144432150Y-111179520D01*
X144454329Y-111169030D01*
X144477428Y-111160765D01*
X144501227Y-111154804D01*
X144525495Y-111151204D01*
X144549999Y-111150000D01*
X145450001Y-111150000D01*
X145474505Y-111151204D01*
X145474505Y-111151204D01*
G37*
D15*
G04 #@! TD*
G04 #@! TO.P,R11,2*
G04 #@! TO.N,/SCL-*
X145000000Y-111725000D03*
D14*
G04 #@! TO.N,VCC*
G04 #@! TO.C,R11*
G36*
X145474505Y-109101204D02*
X145498773Y-109104804D01*
X145522572Y-109110765D01*
X145545671Y-109119030D01*
X145567850Y-109129520D01*
X145588893Y-109142132D01*
X145608599Y-109156747D01*
X145626777Y-109173223D01*
X145643253Y-109191401D01*
X145657868Y-109211107D01*
X145670480Y-109232150D01*
X145680970Y-109254329D01*
X145689235Y-109277428D01*
X145695196Y-109301227D01*
X145698796Y-109325495D01*
X145700000Y-109349999D01*
X145700000Y-110000001D01*
X145698796Y-110024505D01*
X145695196Y-110048773D01*
X145689235Y-110072572D01*
X145680970Y-110095671D01*
X145670480Y-110117850D01*
X145657868Y-110138893D01*
X145643253Y-110158599D01*
X145626777Y-110176777D01*
X145608599Y-110193253D01*
X145588893Y-110207868D01*
X145567850Y-110220480D01*
X145545671Y-110230970D01*
X145522572Y-110239235D01*
X145498773Y-110245196D01*
X145474505Y-110248796D01*
X145450001Y-110250000D01*
X144549999Y-110250000D01*
X144525495Y-110248796D01*
X144501227Y-110245196D01*
X144477428Y-110239235D01*
X144454329Y-110230970D01*
X144432150Y-110220480D01*
X144411107Y-110207868D01*
X144391401Y-110193253D01*
X144373223Y-110176777D01*
X144356747Y-110158599D01*
X144342132Y-110138893D01*
X144329520Y-110117850D01*
X144319030Y-110095671D01*
X144310765Y-110072572D01*
X144304804Y-110048773D01*
X144301204Y-110024505D01*
X144300000Y-110000001D01*
X144300000Y-109349999D01*
X144301204Y-109325495D01*
X144304804Y-109301227D01*
X144310765Y-109277428D01*
X144319030Y-109254329D01*
X144329520Y-109232150D01*
X144342132Y-109211107D01*
X144356747Y-109191401D01*
X144373223Y-109173223D01*
X144391401Y-109156747D01*
X144411107Y-109142132D01*
X144432150Y-109129520D01*
X144454329Y-109119030D01*
X144477428Y-109110765D01*
X144501227Y-109104804D01*
X144525495Y-109101204D01*
X144549999Y-109100000D01*
X145450001Y-109100000D01*
X145474505Y-109101204D01*
X145474505Y-109101204D01*
G37*
D15*
G04 #@! TD*
G04 #@! TO.P,R11,1*
G04 #@! TO.N,VCC*
X145000000Y-109675000D03*
D22*
G04 #@! TO.N,GND*
X161535000Y-94125000D03*
X156555009Y-82125000D03*
X139535000Y-100250000D03*
X149036598Y-105229991D03*
X143853000Y-92370000D03*
X144733000Y-104060000D03*
X163538000Y-96939000D03*
X147917000Y-88829000D03*
X149441000Y-80302000D03*
X139408000Y-77889000D03*
X170508000Y-76392000D03*
X160265000Y-82125000D03*
X145125000Y-107400000D03*
X139408000Y-121994000D03*
X170360000Y-121950000D03*
X145000000Y-117500000D03*
X143000000Y-117500000D03*
X141000000Y-117525000D03*
X139000000Y-117525000D03*
X160296318Y-103760783D03*
X169032000Y-100504000D03*
X163904000Y-87069000D03*
G04 #@! TO.N,VCC*
X151375000Y-82125000D03*
X155104989Y-82125000D03*
X150205011Y-84725000D03*
X141440000Y-103425000D03*
X149083402Y-104160009D03*
X163632000Y-100504000D03*
X159172824Y-105476580D03*
X143853000Y-97970000D03*
X146783000Y-104060000D03*
X149060000Y-114483000D03*
X151346000Y-114483000D03*
X165316000Y-113975000D03*
X155029000Y-112306000D03*
X161506000Y-96939000D03*
X155274000Y-96694000D03*
X167348000Y-113975000D03*
X143075000Y-107400000D03*
X170000000Y-80955000D03*
G04 #@! TO.N,/~CS~*
X161627574Y-105164261D03*
X160177562Y-105310272D03*
G04 #@! TO.N,/BUCK_LO-*
X145616000Y-86035000D03*
G04 #@! TO.N,/BUCK_LO+*
X143584000Y-86035000D03*
G04 #@! TO.N,/BUCK_HI-*
X141552000Y-86035000D03*
G04 #@! TO.N,/BUCK_HI+*
X139520000Y-86035000D03*
G04 #@! TO.N,/BOOST_HI+*
X163904000Y-83005000D03*
G04 #@! TO.N,/BOOST_HI-*
X165428000Y-85536000D03*
G04 #@! TO.N,/BOOST_LO+*
X167968000Y-85019000D03*
G04 #@! TO.N,/BOOST_LO-*
X170000000Y-85019000D03*
G04 #@! TO.N,/SDA*
X147028000Y-108124000D03*
X168809423Y-101997904D03*
G04 #@! TO.N,/SCL*
X146750020Y-106798331D03*
X167673306Y-104362658D03*
G04 #@! TO.N,/LO_DRV*
X156455000Y-84725000D03*
X159034293Y-94129224D03*
X149060000Y-98345000D03*
G04 #@! TO.N,/HI_DRV*
X153915000Y-84725000D03*
X156167340Y-94412660D03*
X150965000Y-97075000D03*
G04 #@! TO.N,/BUCK_HI*
X152645000Y-84725000D03*
X152645000Y-94125000D03*
G04 #@! TO.N,/BUCK_LO*
X155185000Y-84725000D03*
X155287660Y-93687650D03*
G04 #@! TO.N,/BOOST_HI*
X157725000Y-84725000D03*
X157950000Y-91360000D03*
G04 #@! TO.N,/BOOST_LO*
X160265000Y-94125000D03*
X160265000Y-84725000D03*
G04 #@! TO.N,/SDA+*
X141100000Y-113600000D03*
G04 #@! TO.N,/SDA-*
X139050000Y-113600000D03*
G04 #@! TO.N,/SCL+*
X142875000Y-113600000D03*
G04 #@! TO.N,/SCL-*
X144925000Y-113600000D03*
G04 #@! TD*
D23*
G04 #@! TO.N,GND*
X145616000Y-88085000D02*
X139520000Y-88085000D01*
X147173000Y-88085000D02*
X147917000Y-88829000D01*
X145616000Y-88085000D02*
X147173000Y-88085000D01*
X163904000Y-87069000D02*
X170000000Y-87069000D01*
G04 #@! TO.N,VCC*
X143075000Y-109600000D02*
X143000000Y-109675000D01*
X143075000Y-107400000D02*
X143075000Y-109600000D01*
X145616000Y-81971000D02*
X139520000Y-81971000D01*
X135230000Y-85000000D02*
X135000000Y-85000000D01*
X136350000Y-83880000D02*
X135230000Y-85000000D01*
X136350000Y-83650000D02*
X136350000Y-83880000D01*
X138029000Y-81971000D02*
X136350000Y-83650000D01*
X139520000Y-81971000D02*
X138029000Y-81971000D01*
X163904000Y-80955000D02*
X170000000Y-80955000D01*
G04 #@! TO.N,/~CS~*
X161627574Y-105164261D02*
X160323573Y-105164261D01*
X160323573Y-105164261D02*
X160177562Y-105310272D01*
G04 #@! TO.N,/BUCK_LO-*
X135090000Y-97610000D02*
X135000000Y-97700000D01*
X138250000Y-97610000D02*
X135090000Y-97610000D01*
X145616000Y-86035000D02*
X145616000Y-84021000D01*
G04 #@! TO.N,/BUCK_LO+*
X135235000Y-94925000D02*
X135000000Y-95160000D01*
X135400000Y-95560000D02*
X135000000Y-95160000D01*
X138250000Y-95560000D02*
X135400000Y-95560000D01*
X143584000Y-86035000D02*
X143584000Y-84021000D01*
G04 #@! TO.N,/BUCK_HI-*
X137915000Y-92620000D02*
X138250000Y-92285000D01*
X135000000Y-92620000D02*
X137915000Y-92620000D01*
X141552000Y-84021000D02*
X141552000Y-86035000D01*
G04 #@! TO.N,/BUCK_HI+*
X138095000Y-90080000D02*
X138250000Y-90235000D01*
X135000000Y-90080000D02*
X138095000Y-90080000D01*
X139520000Y-84021000D02*
X139520000Y-86035000D01*
G04 #@! TO.N,/BOOST_HI+*
X172802000Y-92420000D02*
X172540000Y-92158000D01*
X175000000Y-92420000D02*
X172802000Y-92420000D01*
X163904000Y-83005000D02*
X163904000Y-85019000D01*
G04 #@! TO.N,/BOOST_HI-*
X172768000Y-89880000D02*
X172540000Y-90108000D01*
X175000000Y-89880000D02*
X172768000Y-89880000D01*
X165936000Y-83005000D02*
X165936000Y-85019000D01*
X165936000Y-85028000D02*
X165428000Y-85536000D01*
X165936000Y-85019000D02*
X165936000Y-85028000D01*
G04 #@! TO.N,/BOOST_LO+*
X174729000Y-87069000D02*
X175000000Y-87340000D01*
X172540000Y-87069000D02*
X174729000Y-87069000D01*
X167968000Y-83005000D02*
X167968000Y-85019000D01*
G04 #@! TO.N,/BOOST_LO-*
X174781000Y-85019000D02*
X175000000Y-84800000D01*
X172540000Y-85019000D02*
X174781000Y-85019000D01*
X170000000Y-83005000D02*
X170000000Y-85019000D01*
G04 #@! TO.N,/SDA*
X162464081Y-108523999D02*
X168409424Y-102578656D01*
X168409424Y-102578656D02*
X168409424Y-102397903D01*
X168409424Y-102397903D02*
X168809423Y-101997904D01*
X147028000Y-108124000D02*
X147427999Y-108523999D01*
X147427999Y-108523999D02*
X162464081Y-108523999D01*
G04 #@! TO.N,/SCL*
X146180956Y-108800956D02*
X146774000Y-109394000D01*
X146180956Y-107367395D02*
X146180956Y-108800956D01*
X146774000Y-109394000D02*
X162641964Y-109394000D01*
X146750020Y-106798331D02*
X146180956Y-107367395D01*
X162641964Y-109394000D02*
X167273307Y-104762657D01*
X167273307Y-104762657D02*
X167673306Y-104362658D01*
G04 #@! TO.N,/LO_DRV*
X156455000Y-85400000D02*
X156455000Y-84725000D01*
X149060000Y-98345000D02*
X156045000Y-98345000D01*
X159034293Y-95355707D02*
X159034293Y-94129224D01*
X156045000Y-98345000D02*
X159034293Y-95355707D01*
X156455000Y-91549931D02*
X156455000Y-84725000D01*
X159034293Y-94129224D02*
X156455000Y-91549931D01*
G04 #@! TO.N,/HI_DRV*
X153915000Y-93675000D02*
X154652660Y-94412660D01*
X153915000Y-84725000D02*
X153915000Y-93675000D01*
X152112660Y-97075000D02*
X154775000Y-94412660D01*
X150965000Y-97075000D02*
X152112660Y-97075000D01*
X154775000Y-94412660D02*
X156167340Y-94412660D01*
X154652660Y-94412660D02*
X154775000Y-94412660D01*
G04 #@! TO.N,/BUCK_HI*
X152645000Y-94125000D02*
X152645000Y-84725000D01*
G04 #@! TO.N,/BUCK_LO*
X155185000Y-93584990D02*
X155287660Y-93687650D01*
X155185000Y-84725000D02*
X155185000Y-93584990D01*
G04 #@! TO.N,/BOOST_HI*
X157950000Y-84950000D02*
X157725000Y-84725000D01*
X157950000Y-91360000D02*
X157950000Y-84950000D01*
G04 #@! TO.N,/BOOST_LO*
X160265000Y-84725000D02*
X160265000Y-94125000D01*
D24*
G04 #@! TO.N,/SDA+*
X140535011Y-102074989D02*
X165222898Y-102074989D01*
X165222898Y-102074989D02*
X168343910Y-98953977D01*
X175172188Y-98953977D02*
X178725011Y-102506800D01*
X178725011Y-102506800D02*
X178725011Y-106424989D01*
X168343910Y-98953977D02*
X175172188Y-98953977D01*
X178725011Y-106424989D02*
X175230000Y-109920000D01*
X135000000Y-107380000D02*
X135230000Y-107380000D01*
X135230000Y-107380000D02*
X140535011Y-102074989D01*
X175230000Y-109920000D02*
X175000000Y-109920000D01*
D23*
X141000000Y-111725000D02*
X141000000Y-115475000D01*
D24*
G04 #@! TO.N,/SDA-*
X136300000Y-108850000D02*
X136300000Y-108620000D01*
X136300000Y-108620000D02*
X140195000Y-104725000D01*
X168530310Y-99403988D02*
X174985788Y-99403988D01*
X165409298Y-102525000D02*
X168530310Y-99403988D01*
X178275000Y-104335000D02*
X175230000Y-107380000D01*
X175230000Y-107380000D02*
X175000000Y-107380000D01*
X174985788Y-99403988D02*
X178275000Y-102693200D01*
X135000000Y-109920000D02*
X135230000Y-109920000D01*
X144593200Y-102525000D02*
X165409298Y-102525000D01*
X135230000Y-109920000D02*
X136300000Y-108850000D01*
X142393200Y-104725000D02*
X144593200Y-102525000D01*
X140195000Y-104725000D02*
X142393200Y-104725000D01*
X178275000Y-102693200D02*
X178275000Y-104335000D01*
D23*
X139000000Y-111725000D02*
X139000000Y-115475000D01*
G04 #@! TO.N,/SCL+*
X143000000Y-111725000D02*
X143000000Y-115450000D01*
D24*
X168695999Y-99803999D02*
X174783999Y-99803999D01*
X161124998Y-107375000D02*
X168695999Y-99803999D01*
X174783999Y-99803999D02*
X177525000Y-102545000D01*
X177525000Y-103615000D02*
X176300000Y-104840000D01*
X176300000Y-104840000D02*
X175000000Y-104840000D01*
X140210700Y-105275000D02*
X147493200Y-105275000D01*
X137075000Y-110615000D02*
X137075000Y-108410700D01*
X149593200Y-107375000D02*
X161124998Y-107375000D01*
X177525000Y-102545000D02*
X177525000Y-103615000D01*
X135230000Y-112460000D02*
X137075000Y-110615000D01*
X135000000Y-112460000D02*
X135230000Y-112460000D01*
X137075000Y-108410700D02*
X140210700Y-105275000D01*
X147493200Y-105275000D02*
X149593200Y-107375000D01*
D23*
G04 #@! TO.N,/SCL-*
X145000000Y-111725000D02*
X145000000Y-115450000D01*
D24*
X137525011Y-108597099D02*
X140397099Y-105725011D01*
X173700000Y-101230000D02*
X174770000Y-102300000D01*
X147306801Y-105725011D02*
X149406800Y-107825011D01*
X149406800Y-107825011D02*
X161795300Y-107825011D01*
X140397099Y-105725011D02*
X147306801Y-105725011D01*
X135230000Y-115000000D02*
X137525011Y-112704989D01*
X135000000Y-115000000D02*
X135230000Y-115000000D01*
X161795300Y-107825011D02*
X168390311Y-101230000D01*
X168390311Y-101230000D02*
X173700000Y-101230000D01*
X137525011Y-112704989D02*
X137525011Y-108597099D01*
X174770000Y-102300000D02*
X175000000Y-102300000D01*
G04 #@! TD*
D25*
G04 #@! TO.N,VCC*
G36*
X139127000Y-109548000D02*
X140873000Y-109548000D01*
X140873000Y-109528000D01*
X141127000Y-109528000D01*
X141127000Y-109548000D01*
X142873000Y-109548000D01*
X142873000Y-109528000D01*
X143127000Y-109528000D01*
X143127000Y-109548000D01*
X144873000Y-109548000D01*
X144873000Y-109528000D01*
X145127000Y-109528000D01*
X145127000Y-109548000D01*
X145147000Y-109548000D01*
X145147000Y-109802000D01*
X145127000Y-109802000D01*
X145127000Y-109822000D01*
X144873000Y-109822000D01*
X144873000Y-109802000D01*
X143127000Y-109802000D01*
X143127000Y-109822000D01*
X142873000Y-109822000D01*
X142873000Y-109802000D01*
X141127000Y-109802000D01*
X141127000Y-109822000D01*
X140873000Y-109822000D01*
X140873000Y-109802000D01*
X139127000Y-109802000D01*
X139127000Y-109822000D01*
X138873000Y-109822000D01*
X138873000Y-109802000D01*
X138853000Y-109802000D01*
X138853000Y-109548000D01*
X138873000Y-109548000D01*
X138873000Y-109528000D01*
X139127000Y-109528000D01*
X139127000Y-109548000D01*
X139127000Y-109548000D01*
G37*
X139127000Y-109548000D02*
X140873000Y-109548000D01*
X140873000Y-109528000D01*
X141127000Y-109528000D01*
X141127000Y-109548000D01*
X142873000Y-109548000D01*
X142873000Y-109528000D01*
X143127000Y-109528000D01*
X143127000Y-109548000D01*
X144873000Y-109548000D01*
X144873000Y-109528000D01*
X145127000Y-109528000D01*
X145127000Y-109548000D01*
X145147000Y-109548000D01*
X145147000Y-109802000D01*
X145127000Y-109802000D01*
X145127000Y-109822000D01*
X144873000Y-109822000D01*
X144873000Y-109802000D01*
X143127000Y-109802000D01*
X143127000Y-109822000D01*
X142873000Y-109822000D01*
X142873000Y-109802000D01*
X141127000Y-109802000D01*
X141127000Y-109822000D01*
X140873000Y-109822000D01*
X140873000Y-109802000D01*
X139127000Y-109802000D01*
X139127000Y-109822000D01*
X138873000Y-109822000D01*
X138873000Y-109802000D01*
X138853000Y-109802000D01*
X138853000Y-109548000D01*
X138873000Y-109548000D01*
X138873000Y-109528000D01*
X139127000Y-109528000D01*
X139127000Y-109548000D01*
G04 #@! TO.N,GND*
G36*
X143127000Y-117373000D02*
X144873000Y-117373000D01*
X144873000Y-117353000D01*
X145127000Y-117353000D01*
X145127000Y-117373000D01*
X145147000Y-117373000D01*
X145147000Y-117627000D01*
X145127000Y-117627000D01*
X145127000Y-117647000D01*
X144873000Y-117647000D01*
X144873000Y-117627000D01*
X143127000Y-117627000D01*
X143127000Y-117647000D01*
X142873000Y-117647000D01*
X142873000Y-117627000D01*
X141823750Y-117627000D01*
X141798750Y-117652000D01*
X141127000Y-117652000D01*
X141127000Y-117672000D01*
X140873000Y-117672000D01*
X140873000Y-117652000D01*
X139127000Y-117652000D01*
X139127000Y-117672000D01*
X138873000Y-117672000D01*
X138873000Y-117652000D01*
X138853000Y-117652000D01*
X138853000Y-117398000D01*
X138873000Y-117398000D01*
X138873000Y-117378000D01*
X139127000Y-117378000D01*
X139127000Y-117398000D01*
X140873000Y-117398000D01*
X140873000Y-117378000D01*
X141127000Y-117378000D01*
X141127000Y-117398000D01*
X142176250Y-117398000D01*
X142201250Y-117373000D01*
X142873000Y-117373000D01*
X142873000Y-117353000D01*
X143127000Y-117353000D01*
X143127000Y-117373000D01*
X143127000Y-117373000D01*
G37*
X143127000Y-117373000D02*
X144873000Y-117373000D01*
X144873000Y-117353000D01*
X145127000Y-117353000D01*
X145127000Y-117373000D01*
X145147000Y-117373000D01*
X145147000Y-117627000D01*
X145127000Y-117627000D01*
X145127000Y-117647000D01*
X144873000Y-117647000D01*
X144873000Y-117627000D01*
X143127000Y-117627000D01*
X143127000Y-117647000D01*
X142873000Y-117647000D01*
X142873000Y-117627000D01*
X141823750Y-117627000D01*
X141798750Y-117652000D01*
X141127000Y-117652000D01*
X141127000Y-117672000D01*
X140873000Y-117672000D01*
X140873000Y-117652000D01*
X139127000Y-117652000D01*
X139127000Y-117672000D01*
X138873000Y-117672000D01*
X138873000Y-117652000D01*
X138853000Y-117652000D01*
X138853000Y-117398000D01*
X138873000Y-117398000D01*
X138873000Y-117378000D01*
X139127000Y-117378000D01*
X139127000Y-117398000D01*
X140873000Y-117398000D01*
X140873000Y-117378000D01*
X141127000Y-117378000D01*
X141127000Y-117398000D01*
X142176250Y-117398000D01*
X142201250Y-117373000D01*
X142873000Y-117373000D01*
X142873000Y-117353000D01*
X143127000Y-117353000D01*
X143127000Y-117373000D01*
G04 #@! TD*
M02*
