G04 #@! TF.GenerationSoftware,KiCad,Pcbnew,5.0.0*
G04 #@! TF.CreationDate,2018-10-21T13:39:10+10:00*
G04 #@! TF.ProjectId,controller,636F6E74726F6C6C65722E6B69636164,rev?*
G04 #@! TF.SameCoordinates,Original*
G04 #@! TF.FileFunction,Copper,L1,Top,Signal*
G04 #@! TF.FilePolarity,Positive*
%FSLAX46Y46*%
G04 Gerber Fmt 4.6, Leading zero omitted, Abs format (unit mm)*
G04 Created by KiCad (PCBNEW 5.0.0) date Sun Oct 21 13:39:10 2018*
%MOMM*%
%LPD*%
G01*
G04 APERTURE LIST*
%ADD10C,0.100000*%
%ADD11C,0.150000*%
%ADD12C,0.300000*%
%ADD13C,0.400000*%
G04 #@! TA.AperFunction,ComponentPad*
%ADD14R,2.200000X1.740000*%
G04 #@! TD*
G04 #@! TA.AperFunction,ComponentPad*
%ADD15O,2.200000X1.740000*%
G04 #@! TD*
G04 #@! TA.AperFunction,ComponentPad*
%ADD16R,1.700000X1.700000*%
G04 #@! TD*
G04 #@! TA.AperFunction,ComponentPad*
%ADD17O,1.700000X1.700000*%
G04 #@! TD*
G04 #@! TA.AperFunction,SMDPad,CuDef*
%ADD18R,0.250000X1.100000*%
G04 #@! TD*
G04 #@! TA.AperFunction,SMDPad,CuDef*
%ADD19R,0.600000X1.950000*%
G04 #@! TD*
G04 #@! TA.AperFunction,Conductor*
%ADD20C,0.100000*%
G04 #@! TD*
G04 #@! TA.AperFunction,SMDPad,CuDef*
%ADD21C,1.150000*%
G04 #@! TD*
G04 #@! TA.AperFunction,SMDPad,CuDef*
%ADD22R,1.600000X3.500000*%
G04 #@! TD*
G04 #@! TA.AperFunction,ComponentPad*
%ADD23C,0.800000*%
G04 #@! TD*
G04 #@! TA.AperFunction,ComponentPad*
%ADD24C,6.000000*%
G04 #@! TD*
G04 #@! TA.AperFunction,SMDPad,CuDef*
%ADD25R,1.950000X0.600000*%
G04 #@! TD*
G04 #@! TA.AperFunction,SMDPad,CuDef*
%ADD26R,1.500000X0.600000*%
G04 #@! TD*
G04 #@! TA.AperFunction,SMDPad,CuDef*
%ADD27R,0.600000X1.500000*%
G04 #@! TD*
G04 #@! TA.AperFunction,ViaPad*
%ADD28C,0.800000*%
G04 #@! TD*
G04 #@! TA.AperFunction,Conductor*
%ADD29C,0.250000*%
G04 #@! TD*
G04 #@! TA.AperFunction,Conductor*
%ADD30C,0.200000*%
G04 #@! TD*
G04 APERTURE END LIST*
D10*
D11*
X177002200Y-166007200D02*
X177002200Y-198007200D01*
X285002200Y-198007200D01*
X285002200Y-166007200D01*
X177002200Y-166007200D01*
D10*
D11*
X10000000Y-10000000D02*
X10000000Y-200007200D01*
X287002200Y-200007200D01*
X287002200Y-10000000D01*
X10000000Y-10000000D01*
D10*
D11*
X12000000Y-12000000D02*
X12000000Y-198007200D01*
X285002200Y-198007200D01*
X285002200Y-12000000D01*
X12000000Y-12000000D01*
D10*
D11*
X60000000Y-12000000D02*
X60000000Y-10000000D01*
D10*
D11*
X110000000Y-12000000D02*
X110000000Y-10000000D01*
D10*
D11*
X160000000Y-12000000D02*
X160000000Y-10000000D01*
D10*
D11*
X210000000Y-12000000D02*
X210000000Y-10000000D01*
D10*
D11*
X260000000Y-12000000D02*
X260000000Y-10000000D01*
D10*
D11*
X36065476Y-11588095D02*
X35322619Y-11588095D01*
X35694047Y-11588095D02*
X35694047Y-10288095D01*
X35570238Y-10473809D01*
X35446428Y-10597619D01*
X35322619Y-10659523D01*
D10*
D11*
X85322619Y-10411904D02*
X85384523Y-10350000D01*
X85508333Y-10288095D01*
X85817857Y-10288095D01*
X85941666Y-10350000D01*
X86003571Y-10411904D01*
X86065476Y-10535714D01*
X86065476Y-10659523D01*
X86003571Y-10845238D01*
X85260714Y-11588095D01*
X86065476Y-11588095D01*
D10*
D11*
X135260714Y-10288095D02*
X136065476Y-10288095D01*
X135632142Y-10783333D01*
X135817857Y-10783333D01*
X135941666Y-10845238D01*
X136003571Y-10907142D01*
X136065476Y-11030952D01*
X136065476Y-11340476D01*
X136003571Y-11464285D01*
X135941666Y-11526190D01*
X135817857Y-11588095D01*
X135446428Y-11588095D01*
X135322619Y-11526190D01*
X135260714Y-11464285D01*
D10*
D11*
X185941666Y-10721428D02*
X185941666Y-11588095D01*
X185632142Y-10226190D02*
X185322619Y-11154761D01*
X186127380Y-11154761D01*
D10*
D11*
X236003571Y-10288095D02*
X235384523Y-10288095D01*
X235322619Y-10907142D01*
X235384523Y-10845238D01*
X235508333Y-10783333D01*
X235817857Y-10783333D01*
X235941666Y-10845238D01*
X236003571Y-10907142D01*
X236065476Y-11030952D01*
X236065476Y-11340476D01*
X236003571Y-11464285D01*
X235941666Y-11526190D01*
X235817857Y-11588095D01*
X235508333Y-11588095D01*
X235384523Y-11526190D01*
X235322619Y-11464285D01*
D10*
D11*
X285941666Y-10288095D02*
X285694047Y-10288095D01*
X285570238Y-10350000D01*
X285508333Y-10411904D01*
X285384523Y-10597619D01*
X285322619Y-10845238D01*
X285322619Y-11340476D01*
X285384523Y-11464285D01*
X285446428Y-11526190D01*
X285570238Y-11588095D01*
X285817857Y-11588095D01*
X285941666Y-11526190D01*
X286003571Y-11464285D01*
X286065476Y-11340476D01*
X286065476Y-11030952D01*
X286003571Y-10907142D01*
X285941666Y-10845238D01*
X285817857Y-10783333D01*
X285570238Y-10783333D01*
X285446428Y-10845238D01*
X285384523Y-10907142D01*
X285322619Y-11030952D01*
D10*
D11*
X60000000Y-198007200D02*
X60000000Y-200007200D01*
D10*
D11*
X110000000Y-198007200D02*
X110000000Y-200007200D01*
D10*
D11*
X160000000Y-198007200D02*
X160000000Y-200007200D01*
D10*
D11*
X210000000Y-198007200D02*
X210000000Y-200007200D01*
D10*
D11*
X260000000Y-198007200D02*
X260000000Y-200007200D01*
D10*
D11*
X36065476Y-199595295D02*
X35322619Y-199595295D01*
X35694047Y-199595295D02*
X35694047Y-198295295D01*
X35570238Y-198481009D01*
X35446428Y-198604819D01*
X35322619Y-198666723D01*
D10*
D11*
X85322619Y-198419104D02*
X85384523Y-198357200D01*
X85508333Y-198295295D01*
X85817857Y-198295295D01*
X85941666Y-198357200D01*
X86003571Y-198419104D01*
X86065476Y-198542914D01*
X86065476Y-198666723D01*
X86003571Y-198852438D01*
X85260714Y-199595295D01*
X86065476Y-199595295D01*
D10*
D11*
X135260714Y-198295295D02*
X136065476Y-198295295D01*
X135632142Y-198790533D01*
X135817857Y-198790533D01*
X135941666Y-198852438D01*
X136003571Y-198914342D01*
X136065476Y-199038152D01*
X136065476Y-199347676D01*
X136003571Y-199471485D01*
X135941666Y-199533390D01*
X135817857Y-199595295D01*
X135446428Y-199595295D01*
X135322619Y-199533390D01*
X135260714Y-199471485D01*
D10*
D11*
X185941666Y-198728628D02*
X185941666Y-199595295D01*
X185632142Y-198233390D02*
X185322619Y-199161961D01*
X186127380Y-199161961D01*
D10*
D11*
X236003571Y-198295295D02*
X235384523Y-198295295D01*
X235322619Y-198914342D01*
X235384523Y-198852438D01*
X235508333Y-198790533D01*
X235817857Y-198790533D01*
X235941666Y-198852438D01*
X236003571Y-198914342D01*
X236065476Y-199038152D01*
X236065476Y-199347676D01*
X236003571Y-199471485D01*
X235941666Y-199533390D01*
X235817857Y-199595295D01*
X235508333Y-199595295D01*
X235384523Y-199533390D01*
X235322619Y-199471485D01*
D10*
D11*
X285941666Y-198295295D02*
X285694047Y-198295295D01*
X285570238Y-198357200D01*
X285508333Y-198419104D01*
X285384523Y-198604819D01*
X285322619Y-198852438D01*
X285322619Y-199347676D01*
X285384523Y-199471485D01*
X285446428Y-199533390D01*
X285570238Y-199595295D01*
X285817857Y-199595295D01*
X285941666Y-199533390D01*
X286003571Y-199471485D01*
X286065476Y-199347676D01*
X286065476Y-199038152D01*
X286003571Y-198914342D01*
X285941666Y-198852438D01*
X285817857Y-198790533D01*
X285570238Y-198790533D01*
X285446428Y-198852438D01*
X285384523Y-198914342D01*
X285322619Y-199038152D01*
D10*
D11*
X10000000Y-60000000D02*
X12000000Y-60000000D01*
D10*
D11*
X10000000Y-110000000D02*
X12000000Y-110000000D01*
D10*
D11*
X10000000Y-160000000D02*
X12000000Y-160000000D01*
D10*
D11*
X10690476Y-35216666D02*
X11309523Y-35216666D01*
X10566666Y-35588095D02*
X11000000Y-34288095D01*
X11433333Y-35588095D01*
D10*
D11*
X11092857Y-84907142D02*
X11278571Y-84969047D01*
X11340476Y-85030952D01*
X11402380Y-85154761D01*
X11402380Y-85340476D01*
X11340476Y-85464285D01*
X11278571Y-85526190D01*
X11154761Y-85588095D01*
X10659523Y-85588095D01*
X10659523Y-84288095D01*
X11092857Y-84288095D01*
X11216666Y-84350000D01*
X11278571Y-84411904D01*
X11340476Y-84535714D01*
X11340476Y-84659523D01*
X11278571Y-84783333D01*
X11216666Y-84845238D01*
X11092857Y-84907142D01*
X10659523Y-84907142D01*
D10*
D11*
X11402380Y-135464285D02*
X11340476Y-135526190D01*
X11154761Y-135588095D01*
X11030952Y-135588095D01*
X10845238Y-135526190D01*
X10721428Y-135402380D01*
X10659523Y-135278571D01*
X10597619Y-135030952D01*
X10597619Y-134845238D01*
X10659523Y-134597619D01*
X10721428Y-134473809D01*
X10845238Y-134350000D01*
X11030952Y-134288095D01*
X11154761Y-134288095D01*
X11340476Y-134350000D01*
X11402380Y-134411904D01*
D10*
D11*
X10659523Y-185588095D02*
X10659523Y-184288095D01*
X10969047Y-184288095D01*
X11154761Y-184350000D01*
X11278571Y-184473809D01*
X11340476Y-184597619D01*
X11402380Y-184845238D01*
X11402380Y-185030952D01*
X11340476Y-185278571D01*
X11278571Y-185402380D01*
X11154761Y-185526190D01*
X10969047Y-185588095D01*
X10659523Y-185588095D01*
D10*
D11*
X287002200Y-60000000D02*
X285002200Y-60000000D01*
D10*
D11*
X287002200Y-110000000D02*
X285002200Y-110000000D01*
D10*
D11*
X287002200Y-160000000D02*
X285002200Y-160000000D01*
D10*
D11*
X285692676Y-35216666D02*
X286311723Y-35216666D01*
X285568866Y-35588095D02*
X286002200Y-34288095D01*
X286435533Y-35588095D01*
D10*
D11*
X286095057Y-84907142D02*
X286280771Y-84969047D01*
X286342676Y-85030952D01*
X286404580Y-85154761D01*
X286404580Y-85340476D01*
X286342676Y-85464285D01*
X286280771Y-85526190D01*
X286156961Y-85588095D01*
X285661723Y-85588095D01*
X285661723Y-84288095D01*
X286095057Y-84288095D01*
X286218866Y-84350000D01*
X286280771Y-84411904D01*
X286342676Y-84535714D01*
X286342676Y-84659523D01*
X286280771Y-84783333D01*
X286218866Y-84845238D01*
X286095057Y-84907142D01*
X285661723Y-84907142D01*
D10*
D11*
X286404580Y-135464285D02*
X286342676Y-135526190D01*
X286156961Y-135588095D01*
X286033152Y-135588095D01*
X285847438Y-135526190D01*
X285723628Y-135402380D01*
X285661723Y-135278571D01*
X285599819Y-135030952D01*
X285599819Y-134845238D01*
X285661723Y-134597619D01*
X285723628Y-134473809D01*
X285847438Y-134350000D01*
X286033152Y-134288095D01*
X286156961Y-134288095D01*
X286342676Y-134350000D01*
X286404580Y-134411904D01*
D10*
D11*
X285661723Y-185588095D02*
X285661723Y-184288095D01*
X285971247Y-184288095D01*
X286156961Y-184350000D01*
X286280771Y-184473809D01*
X286342676Y-184597619D01*
X286404580Y-184845238D01*
X286404580Y-185030952D01*
X286342676Y-185278571D01*
X286280771Y-185402380D01*
X286156961Y-185526190D01*
X285971247Y-185588095D01*
X285661723Y-185588095D01*
D10*
D11*
X200434342Y-193785771D02*
X200434342Y-192285771D01*
X200791485Y-192285771D01*
X201005771Y-192357200D01*
X201148628Y-192500057D01*
X201220057Y-192642914D01*
X201291485Y-192928628D01*
X201291485Y-193142914D01*
X201220057Y-193428628D01*
X201148628Y-193571485D01*
X201005771Y-193714342D01*
X200791485Y-193785771D01*
X200434342Y-193785771D01*
X202577200Y-193785771D02*
X202577200Y-193000057D01*
X202505771Y-192857200D01*
X202362914Y-192785771D01*
X202077200Y-192785771D01*
X201934342Y-192857200D01*
X202577200Y-193714342D02*
X202434342Y-193785771D01*
X202077200Y-193785771D01*
X201934342Y-193714342D01*
X201862914Y-193571485D01*
X201862914Y-193428628D01*
X201934342Y-193285771D01*
X202077200Y-193214342D01*
X202434342Y-193214342D01*
X202577200Y-193142914D01*
X203077200Y-192785771D02*
X203648628Y-192785771D01*
X203291485Y-192285771D02*
X203291485Y-193571485D01*
X203362914Y-193714342D01*
X203505771Y-193785771D01*
X203648628Y-193785771D01*
X204720057Y-193714342D02*
X204577200Y-193785771D01*
X204291485Y-193785771D01*
X204148628Y-193714342D01*
X204077200Y-193571485D01*
X204077200Y-193000057D01*
X204148628Y-192857200D01*
X204291485Y-192785771D01*
X204577200Y-192785771D01*
X204720057Y-192857200D01*
X204791485Y-193000057D01*
X204791485Y-193142914D01*
X204077200Y-193285771D01*
X205434342Y-193642914D02*
X205505771Y-193714342D01*
X205434342Y-193785771D01*
X205362914Y-193714342D01*
X205434342Y-193642914D01*
X205434342Y-193785771D01*
X205434342Y-192857200D02*
X205505771Y-192928628D01*
X205434342Y-193000057D01*
X205362914Y-192928628D01*
X205434342Y-192857200D01*
X205434342Y-193000057D01*
D10*
D11*
X177002200Y-194507200D02*
X285002200Y-194507200D01*
D10*
D11*
X178434342Y-196585771D02*
X178434342Y-195085771D01*
X179291485Y-196585771D02*
X178648628Y-195728628D01*
X179291485Y-195085771D02*
X178434342Y-195942914D01*
X179934342Y-196585771D02*
X179934342Y-195585771D01*
X179934342Y-195085771D02*
X179862914Y-195157200D01*
X179934342Y-195228628D01*
X180005771Y-195157200D01*
X179934342Y-195085771D01*
X179934342Y-195228628D01*
X181505771Y-196442914D02*
X181434342Y-196514342D01*
X181220057Y-196585771D01*
X181077200Y-196585771D01*
X180862914Y-196514342D01*
X180720057Y-196371485D01*
X180648628Y-196228628D01*
X180577200Y-195942914D01*
X180577200Y-195728628D01*
X180648628Y-195442914D01*
X180720057Y-195300057D01*
X180862914Y-195157200D01*
X181077200Y-195085771D01*
X181220057Y-195085771D01*
X181434342Y-195157200D01*
X181505771Y-195228628D01*
X182791485Y-196585771D02*
X182791485Y-195800057D01*
X182720057Y-195657200D01*
X182577200Y-195585771D01*
X182291485Y-195585771D01*
X182148628Y-195657200D01*
X182791485Y-196514342D02*
X182648628Y-196585771D01*
X182291485Y-196585771D01*
X182148628Y-196514342D01*
X182077200Y-196371485D01*
X182077200Y-196228628D01*
X182148628Y-196085771D01*
X182291485Y-196014342D01*
X182648628Y-196014342D01*
X182791485Y-195942914D01*
X184148628Y-196585771D02*
X184148628Y-195085771D01*
X184148628Y-196514342D02*
X184005771Y-196585771D01*
X183720057Y-196585771D01*
X183577200Y-196514342D01*
X183505771Y-196442914D01*
X183434342Y-196300057D01*
X183434342Y-195871485D01*
X183505771Y-195728628D01*
X183577200Y-195657200D01*
X183720057Y-195585771D01*
X184005771Y-195585771D01*
X184148628Y-195657200D01*
X186005771Y-195800057D02*
X186505771Y-195800057D01*
X186720057Y-196585771D02*
X186005771Y-196585771D01*
X186005771Y-195085771D01*
X186720057Y-195085771D01*
X187362914Y-196442914D02*
X187434342Y-196514342D01*
X187362914Y-196585771D01*
X187291485Y-196514342D01*
X187362914Y-196442914D01*
X187362914Y-196585771D01*
X188077200Y-196585771D02*
X188077200Y-195085771D01*
X188434342Y-195085771D01*
X188648628Y-195157200D01*
X188791485Y-195300057D01*
X188862914Y-195442914D01*
X188934342Y-195728628D01*
X188934342Y-195942914D01*
X188862914Y-196228628D01*
X188791485Y-196371485D01*
X188648628Y-196514342D01*
X188434342Y-196585771D01*
X188077200Y-196585771D01*
X189577200Y-196442914D02*
X189648628Y-196514342D01*
X189577200Y-196585771D01*
X189505771Y-196514342D01*
X189577200Y-196442914D01*
X189577200Y-196585771D01*
X190220057Y-196157200D02*
X190934342Y-196157200D01*
X190077200Y-196585771D02*
X190577200Y-195085771D01*
X191077200Y-196585771D01*
X191577200Y-196442914D02*
X191648628Y-196514342D01*
X191577200Y-196585771D01*
X191505771Y-196514342D01*
X191577200Y-196442914D01*
X191577200Y-196585771D01*
X194577200Y-196585771D02*
X194577200Y-195085771D01*
X194720057Y-196014342D02*
X195148628Y-196585771D01*
X195148628Y-195585771D02*
X194577200Y-196157200D01*
X195791485Y-196585771D02*
X195791485Y-195585771D01*
X195791485Y-195085771D02*
X195720057Y-195157200D01*
X195791485Y-195228628D01*
X195862914Y-195157200D01*
X195791485Y-195085771D01*
X195791485Y-195228628D01*
X197148628Y-196514342D02*
X197005771Y-196585771D01*
X196720057Y-196585771D01*
X196577200Y-196514342D01*
X196505771Y-196442914D01*
X196434342Y-196300057D01*
X196434342Y-195871485D01*
X196505771Y-195728628D01*
X196577200Y-195657200D01*
X196720057Y-195585771D01*
X197005771Y-195585771D01*
X197148628Y-195657200D01*
X198434342Y-196585771D02*
X198434342Y-195800057D01*
X198362914Y-195657200D01*
X198220057Y-195585771D01*
X197934342Y-195585771D01*
X197791485Y-195657200D01*
X198434342Y-196514342D02*
X198291485Y-196585771D01*
X197934342Y-196585771D01*
X197791485Y-196514342D01*
X197720057Y-196371485D01*
X197720057Y-196228628D01*
X197791485Y-196085771D01*
X197934342Y-196014342D01*
X198291485Y-196014342D01*
X198434342Y-195942914D01*
X199791485Y-196585771D02*
X199791485Y-195085771D01*
X199791485Y-196514342D02*
X199648628Y-196585771D01*
X199362914Y-196585771D01*
X199220057Y-196514342D01*
X199148628Y-196442914D01*
X199077200Y-196300057D01*
X199077200Y-195871485D01*
X199148628Y-195728628D01*
X199220057Y-195657200D01*
X199362914Y-195585771D01*
X199648628Y-195585771D01*
X199791485Y-195657200D01*
X202362914Y-195085771D02*
X201648628Y-195085771D01*
X201577200Y-195800057D01*
X201648628Y-195728628D01*
X201791485Y-195657200D01*
X202148628Y-195657200D01*
X202291485Y-195728628D01*
X202362914Y-195800057D01*
X202434342Y-195942914D01*
X202434342Y-196300057D01*
X202362914Y-196442914D01*
X202291485Y-196514342D01*
X202148628Y-196585771D01*
X201791485Y-196585771D01*
X201648628Y-196514342D01*
X201577200Y-196442914D01*
X203077200Y-196442914D02*
X203148628Y-196514342D01*
X203077200Y-196585771D01*
X203005771Y-196514342D01*
X203077200Y-196442914D01*
X203077200Y-196585771D01*
X204077200Y-195085771D02*
X204220057Y-195085771D01*
X204362914Y-195157200D01*
X204434342Y-195228628D01*
X204505771Y-195371485D01*
X204577200Y-195657200D01*
X204577200Y-196014342D01*
X204505771Y-196300057D01*
X204434342Y-196442914D01*
X204362914Y-196514342D01*
X204220057Y-196585771D01*
X204077200Y-196585771D01*
X203934342Y-196514342D01*
X203862914Y-196442914D01*
X203791485Y-196300057D01*
X203720057Y-196014342D01*
X203720057Y-195657200D01*
X203791485Y-195371485D01*
X203862914Y-195228628D01*
X203934342Y-195157200D01*
X204077200Y-195085771D01*
X205220057Y-196442914D02*
X205291485Y-196514342D01*
X205220057Y-196585771D01*
X205148628Y-196514342D01*
X205220057Y-196442914D01*
X205220057Y-196585771D01*
X206220057Y-195085771D02*
X206362914Y-195085771D01*
X206505771Y-195157200D01*
X206577200Y-195228628D01*
X206648628Y-195371485D01*
X206720057Y-195657200D01*
X206720057Y-196014342D01*
X206648628Y-196300057D01*
X206577200Y-196442914D01*
X206505771Y-196514342D01*
X206362914Y-196585771D01*
X206220057Y-196585771D01*
X206077200Y-196514342D01*
X206005771Y-196442914D01*
X205934342Y-196300057D01*
X205862914Y-196014342D01*
X205862914Y-195657200D01*
X205934342Y-195371485D01*
X206005771Y-195228628D01*
X206077200Y-195157200D01*
X206220057Y-195085771D01*
D10*
D11*
X177002200Y-191507200D02*
X285002200Y-191507200D01*
D10*
D12*
X264411485Y-193785771D02*
X263911485Y-193071485D01*
X263554342Y-193785771D02*
X263554342Y-192285771D01*
X264125771Y-192285771D01*
X264268628Y-192357200D01*
X264340057Y-192428628D01*
X264411485Y-192571485D01*
X264411485Y-192785771D01*
X264340057Y-192928628D01*
X264268628Y-193000057D01*
X264125771Y-193071485D01*
X263554342Y-193071485D01*
X265625771Y-193714342D02*
X265482914Y-193785771D01*
X265197200Y-193785771D01*
X265054342Y-193714342D01*
X264982914Y-193571485D01*
X264982914Y-193000057D01*
X265054342Y-192857200D01*
X265197200Y-192785771D01*
X265482914Y-192785771D01*
X265625771Y-192857200D01*
X265697200Y-193000057D01*
X265697200Y-193142914D01*
X264982914Y-193285771D01*
X266197200Y-192785771D02*
X266554342Y-193785771D01*
X266911485Y-192785771D01*
X267482914Y-193642914D02*
X267554342Y-193714342D01*
X267482914Y-193785771D01*
X267411485Y-193714342D01*
X267482914Y-193642914D01*
X267482914Y-193785771D01*
X267482914Y-192857200D02*
X267554342Y-192928628D01*
X267482914Y-193000057D01*
X267411485Y-192928628D01*
X267482914Y-192857200D01*
X267482914Y-193000057D01*
D10*
D11*
X178362914Y-193714342D02*
X178577200Y-193785771D01*
X178934342Y-193785771D01*
X179077200Y-193714342D01*
X179148628Y-193642914D01*
X179220057Y-193500057D01*
X179220057Y-193357200D01*
X179148628Y-193214342D01*
X179077200Y-193142914D01*
X178934342Y-193071485D01*
X178648628Y-193000057D01*
X178505771Y-192928628D01*
X178434342Y-192857200D01*
X178362914Y-192714342D01*
X178362914Y-192571485D01*
X178434342Y-192428628D01*
X178505771Y-192357200D01*
X178648628Y-192285771D01*
X179005771Y-192285771D01*
X179220057Y-192357200D01*
X179862914Y-193785771D02*
X179862914Y-192785771D01*
X179862914Y-192285771D02*
X179791485Y-192357200D01*
X179862914Y-192428628D01*
X179934342Y-192357200D01*
X179862914Y-192285771D01*
X179862914Y-192428628D01*
X180434342Y-192785771D02*
X181220057Y-192785771D01*
X180434342Y-193785771D01*
X181220057Y-193785771D01*
X182362914Y-193714342D02*
X182220057Y-193785771D01*
X181934342Y-193785771D01*
X181791485Y-193714342D01*
X181720057Y-193571485D01*
X181720057Y-193000057D01*
X181791485Y-192857200D01*
X181934342Y-192785771D01*
X182220057Y-192785771D01*
X182362914Y-192857200D01*
X182434342Y-193000057D01*
X182434342Y-193142914D01*
X181720057Y-193285771D01*
X183077200Y-193642914D02*
X183148628Y-193714342D01*
X183077200Y-193785771D01*
X183005771Y-193714342D01*
X183077200Y-193642914D01*
X183077200Y-193785771D01*
X183077200Y-192857200D02*
X183148628Y-192928628D01*
X183077200Y-193000057D01*
X183005771Y-192928628D01*
X183077200Y-192857200D01*
X183077200Y-193000057D01*
X184862914Y-193357200D02*
X185577200Y-193357200D01*
X184720057Y-193785771D02*
X185220057Y-192285771D01*
X185720057Y-193785771D01*
X186862914Y-192785771D02*
X186862914Y-193785771D01*
X186505771Y-192214342D02*
X186148628Y-193285771D01*
X187077200Y-193285771D01*
D10*
D11*
X263434342Y-196585771D02*
X263434342Y-195085771D01*
X264791485Y-196585771D02*
X264791485Y-195085771D01*
X264791485Y-196514342D02*
X264648628Y-196585771D01*
X264362914Y-196585771D01*
X264220057Y-196514342D01*
X264148628Y-196442914D01*
X264077200Y-196300057D01*
X264077200Y-195871485D01*
X264148628Y-195728628D01*
X264220057Y-195657200D01*
X264362914Y-195585771D01*
X264648628Y-195585771D01*
X264791485Y-195657200D01*
X265505771Y-196442914D02*
X265577200Y-196514342D01*
X265505771Y-196585771D01*
X265434342Y-196514342D01*
X265505771Y-196442914D01*
X265505771Y-196585771D01*
X265505771Y-195657200D02*
X265577200Y-195728628D01*
X265505771Y-195800057D01*
X265434342Y-195728628D01*
X265505771Y-195657200D01*
X265505771Y-195800057D01*
X268148628Y-196585771D02*
X267291485Y-196585771D01*
X267720057Y-196585771D02*
X267720057Y-195085771D01*
X267577200Y-195300057D01*
X267434342Y-195442914D01*
X267291485Y-195514342D01*
X269862914Y-195014342D02*
X268577200Y-196942914D01*
X271148628Y-196585771D02*
X270291485Y-196585771D01*
X270720057Y-196585771D02*
X270720057Y-195085771D01*
X270577200Y-195300057D01*
X270434342Y-195442914D01*
X270291485Y-195514342D01*
D10*
D11*
X177002200Y-187507200D02*
X285002200Y-187507200D01*
D10*
D13*
X178714580Y-188211961D02*
X179857438Y-188211961D01*
X179036009Y-190211961D02*
X179286009Y-188211961D01*
X180274104Y-190211961D02*
X180440771Y-188878628D01*
X180524104Y-188211961D02*
X180416961Y-188307200D01*
X180500295Y-188402438D01*
X180607438Y-188307200D01*
X180524104Y-188211961D01*
X180500295Y-188402438D01*
X181107438Y-188878628D02*
X181869342Y-188878628D01*
X181476485Y-188211961D02*
X181262200Y-189926247D01*
X181333628Y-190116723D01*
X181512200Y-190211961D01*
X181702676Y-190211961D01*
X182655057Y-190211961D02*
X182476485Y-190116723D01*
X182405057Y-189926247D01*
X182619342Y-188211961D01*
X184190771Y-190116723D02*
X183988390Y-190211961D01*
X183607438Y-190211961D01*
X183428866Y-190116723D01*
X183357438Y-189926247D01*
X183452676Y-189164342D01*
X183571723Y-188973866D01*
X183774104Y-188878628D01*
X184155057Y-188878628D01*
X184333628Y-188973866D01*
X184405057Y-189164342D01*
X184381247Y-189354819D01*
X183405057Y-189545295D01*
X185155057Y-190021485D02*
X185238390Y-190116723D01*
X185131247Y-190211961D01*
X185047914Y-190116723D01*
X185155057Y-190021485D01*
X185131247Y-190211961D01*
X185286009Y-188973866D02*
X185369342Y-189069104D01*
X185262200Y-189164342D01*
X185178866Y-189069104D01*
X185286009Y-188973866D01*
X185262200Y-189164342D01*
D10*
D11*
X178934342Y-185600057D02*
X178434342Y-185600057D01*
X178434342Y-186385771D02*
X178434342Y-184885771D01*
X179148628Y-184885771D01*
X179720057Y-186385771D02*
X179720057Y-185385771D01*
X179720057Y-184885771D02*
X179648628Y-184957200D01*
X179720057Y-185028628D01*
X179791485Y-184957200D01*
X179720057Y-184885771D01*
X179720057Y-185028628D01*
X180648628Y-186385771D02*
X180505771Y-186314342D01*
X180434342Y-186171485D01*
X180434342Y-184885771D01*
X181791485Y-186314342D02*
X181648628Y-186385771D01*
X181362914Y-186385771D01*
X181220057Y-186314342D01*
X181148628Y-186171485D01*
X181148628Y-185600057D01*
X181220057Y-185457200D01*
X181362914Y-185385771D01*
X181648628Y-185385771D01*
X181791485Y-185457200D01*
X181862914Y-185600057D01*
X181862914Y-185742914D01*
X181148628Y-185885771D01*
X182505771Y-186242914D02*
X182577200Y-186314342D01*
X182505771Y-186385771D01*
X182434342Y-186314342D01*
X182505771Y-186242914D01*
X182505771Y-186385771D01*
X182505771Y-185457200D02*
X182577200Y-185528628D01*
X182505771Y-185600057D01*
X182434342Y-185528628D01*
X182505771Y-185457200D01*
X182505771Y-185600057D01*
X185005771Y-186314342D02*
X184862914Y-186385771D01*
X184577200Y-186385771D01*
X184434342Y-186314342D01*
X184362914Y-186242914D01*
X184291485Y-186100057D01*
X184291485Y-185671485D01*
X184362914Y-185528628D01*
X184434342Y-185457200D01*
X184577200Y-185385771D01*
X184862914Y-185385771D01*
X185005771Y-185457200D01*
X185862914Y-186385771D02*
X185720057Y-186314342D01*
X185648628Y-186242914D01*
X185577200Y-186100057D01*
X185577200Y-185671485D01*
X185648628Y-185528628D01*
X185720057Y-185457200D01*
X185862914Y-185385771D01*
X186077200Y-185385771D01*
X186220057Y-185457200D01*
X186291485Y-185528628D01*
X186362914Y-185671485D01*
X186362914Y-186100057D01*
X186291485Y-186242914D01*
X186220057Y-186314342D01*
X186077200Y-186385771D01*
X185862914Y-186385771D01*
X187005771Y-185385771D02*
X187005771Y-186385771D01*
X187005771Y-185528628D02*
X187077200Y-185457200D01*
X187220057Y-185385771D01*
X187434342Y-185385771D01*
X187577200Y-185457200D01*
X187648628Y-185600057D01*
X187648628Y-186385771D01*
X188148628Y-185385771D02*
X188720057Y-185385771D01*
X188362914Y-184885771D02*
X188362914Y-186171485D01*
X188434342Y-186314342D01*
X188577200Y-186385771D01*
X188720057Y-186385771D01*
X189220057Y-186385771D02*
X189220057Y-185385771D01*
X189220057Y-185671485D02*
X189291485Y-185528628D01*
X189362914Y-185457200D01*
X189505771Y-185385771D01*
X189648628Y-185385771D01*
X190362914Y-186385771D02*
X190220057Y-186314342D01*
X190148628Y-186242914D01*
X190077200Y-186100057D01*
X190077200Y-185671485D01*
X190148628Y-185528628D01*
X190220057Y-185457200D01*
X190362914Y-185385771D01*
X190577200Y-185385771D01*
X190720057Y-185457200D01*
X190791485Y-185528628D01*
X190862914Y-185671485D01*
X190862914Y-186100057D01*
X190791485Y-186242914D01*
X190720057Y-186314342D01*
X190577200Y-186385771D01*
X190362914Y-186385771D01*
X191720057Y-186385771D02*
X191577200Y-186314342D01*
X191505771Y-186171485D01*
X191505771Y-184885771D01*
X192505771Y-186385771D02*
X192362914Y-186314342D01*
X192291485Y-186171485D01*
X192291485Y-184885771D01*
X193648628Y-186314342D02*
X193505771Y-186385771D01*
X193220057Y-186385771D01*
X193077200Y-186314342D01*
X193005771Y-186171485D01*
X193005771Y-185600057D01*
X193077200Y-185457200D01*
X193220057Y-185385771D01*
X193505771Y-185385771D01*
X193648628Y-185457200D01*
X193720057Y-185600057D01*
X193720057Y-185742914D01*
X193005771Y-185885771D01*
X194362914Y-186385771D02*
X194362914Y-185385771D01*
X194362914Y-185671485D02*
X194434342Y-185528628D01*
X194505771Y-185457200D01*
X194648628Y-185385771D01*
X194791485Y-185385771D01*
X195291485Y-186242914D02*
X195362914Y-186314342D01*
X195291485Y-186385771D01*
X195220057Y-186314342D01*
X195291485Y-186242914D01*
X195291485Y-186385771D01*
X196005771Y-186385771D02*
X196005771Y-184885771D01*
X196148628Y-185814342D02*
X196577200Y-186385771D01*
X196577200Y-185385771D02*
X196005771Y-185957200D01*
X197220057Y-186385771D02*
X197220057Y-185385771D01*
X197220057Y-184885771D02*
X197148628Y-184957200D01*
X197220057Y-185028628D01*
X197291485Y-184957200D01*
X197220057Y-184885771D01*
X197220057Y-185028628D01*
X198577200Y-186314342D02*
X198434342Y-186385771D01*
X198148628Y-186385771D01*
X198005771Y-186314342D01*
X197934342Y-186242914D01*
X197862914Y-186100057D01*
X197862914Y-185671485D01*
X197934342Y-185528628D01*
X198005771Y-185457200D01*
X198148628Y-185385771D01*
X198434342Y-185385771D01*
X198577200Y-185457200D01*
X199862914Y-186385771D02*
X199862914Y-185600057D01*
X199791485Y-185457200D01*
X199648628Y-185385771D01*
X199362914Y-185385771D01*
X199220057Y-185457200D01*
X199862914Y-186314342D02*
X199720057Y-186385771D01*
X199362914Y-186385771D01*
X199220057Y-186314342D01*
X199148628Y-186171485D01*
X199148628Y-186028628D01*
X199220057Y-185885771D01*
X199362914Y-185814342D01*
X199720057Y-185814342D01*
X199862914Y-185742914D01*
X201220057Y-186385771D02*
X201220057Y-184885771D01*
X201220057Y-186314342D02*
X201077200Y-186385771D01*
X200791485Y-186385771D01*
X200648628Y-186314342D01*
X200577200Y-186242914D01*
X200505771Y-186100057D01*
X200505771Y-185671485D01*
X200577200Y-185528628D01*
X200648628Y-185457200D01*
X200791485Y-185385771D01*
X201077200Y-185385771D01*
X201220057Y-185457200D01*
X201577200Y-186528628D02*
X202720057Y-186528628D01*
X203077200Y-185385771D02*
X203077200Y-186885771D01*
X203077200Y-185457200D02*
X203220057Y-185385771D01*
X203505771Y-185385771D01*
X203648628Y-185457200D01*
X203720057Y-185528628D01*
X203791485Y-185671485D01*
X203791485Y-186100057D01*
X203720057Y-186242914D01*
X203648628Y-186314342D01*
X203505771Y-186385771D01*
X203220057Y-186385771D01*
X203077200Y-186314342D01*
X205077200Y-186314342D02*
X204934342Y-186385771D01*
X204648628Y-186385771D01*
X204505771Y-186314342D01*
X204434342Y-186242914D01*
X204362914Y-186100057D01*
X204362914Y-185671485D01*
X204434342Y-185528628D01*
X204505771Y-185457200D01*
X204648628Y-185385771D01*
X204934342Y-185385771D01*
X205077200Y-185457200D01*
X205720057Y-186385771D02*
X205720057Y-184885771D01*
X205720057Y-185457200D02*
X205862914Y-185385771D01*
X206148628Y-185385771D01*
X206291485Y-185457200D01*
X206362914Y-185528628D01*
X206434342Y-185671485D01*
X206434342Y-186100057D01*
X206362914Y-186242914D01*
X206291485Y-186314342D01*
X206148628Y-186385771D01*
X205862914Y-186385771D01*
X205720057Y-186314342D01*
D10*
D11*
X177002200Y-181507200D02*
X285002200Y-181507200D01*
D10*
D11*
X178362914Y-183614342D02*
X178577200Y-183685771D01*
X178934342Y-183685771D01*
X179077200Y-183614342D01*
X179148628Y-183542914D01*
X179220057Y-183400057D01*
X179220057Y-183257200D01*
X179148628Y-183114342D01*
X179077200Y-183042914D01*
X178934342Y-182971485D01*
X178648628Y-182900057D01*
X178505771Y-182828628D01*
X178434342Y-182757200D01*
X178362914Y-182614342D01*
X178362914Y-182471485D01*
X178434342Y-182328628D01*
X178505771Y-182257200D01*
X178648628Y-182185771D01*
X179005771Y-182185771D01*
X179220057Y-182257200D01*
X179862914Y-183685771D02*
X179862914Y-182185771D01*
X180505771Y-183685771D02*
X180505771Y-182900057D01*
X180434342Y-182757200D01*
X180291485Y-182685771D01*
X180077200Y-182685771D01*
X179934342Y-182757200D01*
X179862914Y-182828628D01*
X181791485Y-183614342D02*
X181648628Y-183685771D01*
X181362914Y-183685771D01*
X181220057Y-183614342D01*
X181148628Y-183471485D01*
X181148628Y-182900057D01*
X181220057Y-182757200D01*
X181362914Y-182685771D01*
X181648628Y-182685771D01*
X181791485Y-182757200D01*
X181862914Y-182900057D01*
X181862914Y-183042914D01*
X181148628Y-183185771D01*
X183077200Y-183614342D02*
X182934342Y-183685771D01*
X182648628Y-183685771D01*
X182505771Y-183614342D01*
X182434342Y-183471485D01*
X182434342Y-182900057D01*
X182505771Y-182757200D01*
X182648628Y-182685771D01*
X182934342Y-182685771D01*
X183077200Y-182757200D01*
X183148628Y-182900057D01*
X183148628Y-183042914D01*
X182434342Y-183185771D01*
X183577200Y-182685771D02*
X184148628Y-182685771D01*
X183791485Y-182185771D02*
X183791485Y-183471485D01*
X183862914Y-183614342D01*
X184005771Y-183685771D01*
X184148628Y-183685771D01*
X184648628Y-183542914D02*
X184720057Y-183614342D01*
X184648628Y-183685771D01*
X184577200Y-183614342D01*
X184648628Y-183542914D01*
X184648628Y-183685771D01*
X184648628Y-182757200D02*
X184720057Y-182828628D01*
X184648628Y-182900057D01*
X184577200Y-182828628D01*
X184648628Y-182757200D01*
X184648628Y-182900057D01*
D10*
D11*
X197002200Y-191507200D02*
X197002200Y-194507200D01*
D10*
D11*
X261002200Y-191507200D02*
X261002200Y-198007200D01*
D14*
G04 #@! TO.P,J2,1*
G04 #@! TO.N,VCC*
X167460000Y-89600000D03*
D15*
G04 #@! TO.P,J2,2*
G04 #@! TO.N,/T24_IO*
X167460000Y-92140000D03*
G04 #@! TO.P,J2,3*
G04 #@! TO.N,/T24_PWM*
X167460000Y-94680000D03*
G04 #@! TO.P,J2,4*
G04 #@! TO.N,GND*
X167460000Y-97220000D03*
G04 #@! TD*
D16*
G04 #@! TO.P,J1,1*
G04 #@! TO.N,VCC*
X165160000Y-120000000D03*
D17*
G04 #@! TO.P,J1,2*
G04 #@! TO.N,GND*
X165160000Y-122540000D03*
G04 #@! TO.P,J1,3*
G04 #@! TO.N,/MOSI*
X162620000Y-120000000D03*
G04 #@! TO.P,J1,4*
G04 #@! TO.N,GND*
X162620000Y-122540000D03*
G04 #@! TO.P,J1,5*
G04 #@! TO.N,/MISO*
X160080000Y-120000000D03*
G04 #@! TO.P,J1,6*
G04 #@! TO.N,GND*
X160080000Y-122540000D03*
G04 #@! TO.P,J1,7*
G04 #@! TO.N,/SCK*
X157540000Y-120000000D03*
G04 #@! TO.P,J1,8*
G04 #@! TO.N,GND*
X157540000Y-122540000D03*
G04 #@! TO.P,J1,9*
G04 #@! TO.N,/~CS~*
X155000000Y-120000000D03*
G04 #@! TO.P,J1,10*
G04 #@! TO.N,GND*
X155000000Y-122540000D03*
G04 #@! TO.P,J1,11*
G04 #@! TO.N,/~INT~*
X152460000Y-120000000D03*
G04 #@! TO.P,J1,12*
G04 #@! TO.N,GND*
X152460000Y-122540000D03*
G04 #@! TO.P,J1,13*
G04 #@! TO.N,/~RESET~*
X149920000Y-120000000D03*
G04 #@! TO.P,J1,14*
G04 #@! TO.N,GND*
X149920000Y-122540000D03*
G04 #@! TO.P,J1,15*
G04 #@! TO.N,/GPIO1*
X147380000Y-120000000D03*
G04 #@! TO.P,J1,16*
G04 #@! TO.N,GND*
X147380000Y-122540000D03*
G04 #@! TO.P,J1,17*
G04 #@! TO.N,/GPIO0*
X144840000Y-120000000D03*
G04 #@! TO.P,J1,18*
G04 #@! TO.N,GND*
X144840000Y-122540000D03*
G04 #@! TD*
D18*
G04 #@! TO.P,U4,1*
G04 #@! TO.N,VCC*
X141805000Y-101275000D03*
G04 #@! TO.P,U4,2*
G04 #@! TO.N,/SDA*
X141305000Y-101275000D03*
G04 #@! TO.P,U4,3*
G04 #@! TO.N,VCC*
X140805000Y-101275000D03*
G04 #@! TO.P,U4,4*
G04 #@! TO.N,/SCL*
X140305000Y-101275000D03*
G04 #@! TO.P,U4,5*
G04 #@! TO.N,GND*
X139805000Y-101275000D03*
G04 #@! TO.P,U4,6*
G04 #@! TO.N,/SDA-*
X139805000Y-105575000D03*
G04 #@! TO.P,U4,7*
G04 #@! TO.N,/SDA+*
X140305000Y-105575000D03*
G04 #@! TO.P,U4,8*
G04 #@! TO.N,/SCL+*
X140805000Y-105575000D03*
G04 #@! TO.P,U4,9*
G04 #@! TO.N,/SCL-*
X141305000Y-105575000D03*
G04 #@! TO.P,U4,10*
G04 #@! TO.N,VCC*
X141805000Y-105575000D03*
G04 #@! TD*
D19*
G04 #@! TO.P,U3,1*
G04 #@! TO.N,/~BUCK_PWM_EN~*
X150105000Y-94125000D03*
G04 #@! TO.P,U3,2*
G04 #@! TO.N,/~PWM~*
X151375000Y-94125000D03*
G04 #@! TO.P,U3,3*
G04 #@! TO.N,/BUCK_HI*
X152645000Y-94125000D03*
G04 #@! TO.P,U3,4*
G04 #@! TO.N,/PWM*
X153915000Y-94125000D03*
G04 #@! TO.P,U3,5*
G04 #@! TO.N,/BUCK_LO*
X155185000Y-94125000D03*
G04 #@! TO.P,U3,6*
G04 #@! TO.N,/HI_DRV*
X156455000Y-94125000D03*
G04 #@! TO.P,U3,7*
G04 #@! TO.N,/BOOST_HI*
X157725000Y-94125000D03*
G04 #@! TO.P,U3,8*
G04 #@! TO.N,/LO_DRV*
X158995000Y-94125000D03*
G04 #@! TO.P,U3,9*
G04 #@! TO.N,/BOOST_LO*
X160265000Y-94125000D03*
G04 #@! TO.P,U3,10*
G04 #@! TO.N,GND*
X161535000Y-94125000D03*
G04 #@! TO.P,U3,11*
G04 #@! TO.N,/PWM*
X161535000Y-84725000D03*
G04 #@! TO.P,U3,12*
G04 #@! TO.N,/BOOST_LO*
X160265000Y-84725000D03*
G04 #@! TO.P,U3,13*
G04 #@! TO.N,/~PWM~*
X158995000Y-84725000D03*
G04 #@! TO.P,U3,14*
G04 #@! TO.N,/BOOST_HI*
X157725000Y-84725000D03*
G04 #@! TO.P,U3,15*
G04 #@! TO.N,/LO_DRV*
X156455000Y-84725000D03*
G04 #@! TO.P,U3,16*
G04 #@! TO.N,/BUCK_LO*
X155185000Y-84725000D03*
G04 #@! TO.P,U3,17*
G04 #@! TO.N,/HI_DRV*
X153915000Y-84725000D03*
G04 #@! TO.P,U3,18*
G04 #@! TO.N,/BUCK_HI*
X152645000Y-84725000D03*
G04 #@! TO.P,U3,19*
G04 #@! TO.N,/~BOOST_PWM_EN~*
X151375000Y-84725000D03*
G04 #@! TO.P,U3,20*
G04 #@! TO.N,VCC*
X150105000Y-84725000D03*
G04 #@! TD*
D15*
G04 #@! TO.P,J3,6*
G04 #@! TO.N,/SCL-*
X135000000Y-115000000D03*
G04 #@! TO.P,J3,5*
G04 #@! TO.N,/SCL+*
X135000000Y-112460000D03*
G04 #@! TO.P,J3,4*
G04 #@! TO.N,/SDA-*
X135000000Y-109920000D03*
G04 #@! TO.P,J3,3*
G04 #@! TO.N,/SDA+*
X135000000Y-107380000D03*
G04 #@! TO.P,J3,2*
G04 #@! TO.N,GND*
X135000000Y-104840000D03*
D14*
G04 #@! TO.P,J3,1*
G04 #@! TO.N,VCC*
X135000000Y-102300000D03*
G04 #@! TD*
G04 #@! TO.P,J4,1*
G04 #@! TO.N,VCC*
X175000000Y-115000000D03*
D15*
G04 #@! TO.P,J4,2*
G04 #@! TO.N,GND*
X175000000Y-112460000D03*
G04 #@! TO.P,J4,3*
G04 #@! TO.N,/SDA+*
X175000000Y-109920000D03*
G04 #@! TO.P,J4,4*
G04 #@! TO.N,/SDA-*
X175000000Y-107380000D03*
G04 #@! TO.P,J4,5*
G04 #@! TO.N,/SCL+*
X175000000Y-104840000D03*
G04 #@! TO.P,J4,6*
G04 #@! TO.N,/SCL-*
X175000000Y-102300000D03*
G04 #@! TD*
G04 #@! TO.P,J5,6*
G04 #@! TO.N,/BUCK_LO-*
X135000000Y-97700000D03*
G04 #@! TO.P,J5,5*
G04 #@! TO.N,/BUCK_LO+*
X135000000Y-95160000D03*
G04 #@! TO.P,J5,4*
G04 #@! TO.N,/BUCK_HI-*
X135000000Y-92620000D03*
G04 #@! TO.P,J5,3*
G04 #@! TO.N,/BUCK_HI+*
X135000000Y-90080000D03*
G04 #@! TO.P,J5,2*
G04 #@! TO.N,GND*
X135000000Y-87540000D03*
D14*
G04 #@! TO.P,J5,1*
G04 #@! TO.N,VCC*
X135000000Y-85000000D03*
G04 #@! TD*
G04 #@! TO.P,J6,1*
G04 #@! TO.N,VCC*
X175000000Y-97500000D03*
D15*
G04 #@! TO.P,J6,2*
G04 #@! TO.N,GND*
X175000000Y-94960000D03*
G04 #@! TO.P,J6,3*
G04 #@! TO.N,/BOOST_HI+*
X175000000Y-92420000D03*
G04 #@! TO.P,J6,4*
G04 #@! TO.N,/BOOST_HI-*
X175000000Y-89880000D03*
G04 #@! TO.P,J6,5*
G04 #@! TO.N,/BOOST_LO+*
X175000000Y-87340000D03*
G04 #@! TO.P,J6,6*
G04 #@! TO.N,/BOOST_LO-*
X175000000Y-84800000D03*
G04 #@! TD*
D20*
G04 #@! TO.N,VCC*
G04 #@! TO.C,R2*
G36*
X151820505Y-113909204D02*
X151844773Y-113912804D01*
X151868572Y-113918765D01*
X151891671Y-113927030D01*
X151913850Y-113937520D01*
X151934893Y-113950132D01*
X151954599Y-113964747D01*
X151972777Y-113981223D01*
X151989253Y-113999401D01*
X152003868Y-114019107D01*
X152016480Y-114040150D01*
X152026970Y-114062329D01*
X152035235Y-114085428D01*
X152041196Y-114109227D01*
X152044796Y-114133495D01*
X152046000Y-114157999D01*
X152046000Y-114808001D01*
X152044796Y-114832505D01*
X152041196Y-114856773D01*
X152035235Y-114880572D01*
X152026970Y-114903671D01*
X152016480Y-114925850D01*
X152003868Y-114946893D01*
X151989253Y-114966599D01*
X151972777Y-114984777D01*
X151954599Y-115001253D01*
X151934893Y-115015868D01*
X151913850Y-115028480D01*
X151891671Y-115038970D01*
X151868572Y-115047235D01*
X151844773Y-115053196D01*
X151820505Y-115056796D01*
X151796001Y-115058000D01*
X150895999Y-115058000D01*
X150871495Y-115056796D01*
X150847227Y-115053196D01*
X150823428Y-115047235D01*
X150800329Y-115038970D01*
X150778150Y-115028480D01*
X150757107Y-115015868D01*
X150737401Y-115001253D01*
X150719223Y-114984777D01*
X150702747Y-114966599D01*
X150688132Y-114946893D01*
X150675520Y-114925850D01*
X150665030Y-114903671D01*
X150656765Y-114880572D01*
X150650804Y-114856773D01*
X150647204Y-114832505D01*
X150646000Y-114808001D01*
X150646000Y-114157999D01*
X150647204Y-114133495D01*
X150650804Y-114109227D01*
X150656765Y-114085428D01*
X150665030Y-114062329D01*
X150675520Y-114040150D01*
X150688132Y-114019107D01*
X150702747Y-113999401D01*
X150719223Y-113981223D01*
X150737401Y-113964747D01*
X150757107Y-113950132D01*
X150778150Y-113937520D01*
X150800329Y-113927030D01*
X150823428Y-113918765D01*
X150847227Y-113912804D01*
X150871495Y-113909204D01*
X150895999Y-113908000D01*
X151796001Y-113908000D01*
X151820505Y-113909204D01*
X151820505Y-113909204D01*
G37*
D21*
G04 #@! TD*
G04 #@! TO.P,R2,1*
G04 #@! TO.N,VCC*
X151346000Y-114483000D03*
D20*
G04 #@! TO.N,/SCL*
G04 #@! TO.C,R2*
G36*
X151820505Y-111859204D02*
X151844773Y-111862804D01*
X151868572Y-111868765D01*
X151891671Y-111877030D01*
X151913850Y-111887520D01*
X151934893Y-111900132D01*
X151954599Y-111914747D01*
X151972777Y-111931223D01*
X151989253Y-111949401D01*
X152003868Y-111969107D01*
X152016480Y-111990150D01*
X152026970Y-112012329D01*
X152035235Y-112035428D01*
X152041196Y-112059227D01*
X152044796Y-112083495D01*
X152046000Y-112107999D01*
X152046000Y-112758001D01*
X152044796Y-112782505D01*
X152041196Y-112806773D01*
X152035235Y-112830572D01*
X152026970Y-112853671D01*
X152016480Y-112875850D01*
X152003868Y-112896893D01*
X151989253Y-112916599D01*
X151972777Y-112934777D01*
X151954599Y-112951253D01*
X151934893Y-112965868D01*
X151913850Y-112978480D01*
X151891671Y-112988970D01*
X151868572Y-112997235D01*
X151844773Y-113003196D01*
X151820505Y-113006796D01*
X151796001Y-113008000D01*
X150895999Y-113008000D01*
X150871495Y-113006796D01*
X150847227Y-113003196D01*
X150823428Y-112997235D01*
X150800329Y-112988970D01*
X150778150Y-112978480D01*
X150757107Y-112965868D01*
X150737401Y-112951253D01*
X150719223Y-112934777D01*
X150702747Y-112916599D01*
X150688132Y-112896893D01*
X150675520Y-112875850D01*
X150665030Y-112853671D01*
X150656765Y-112830572D01*
X150650804Y-112806773D01*
X150647204Y-112782505D01*
X150646000Y-112758001D01*
X150646000Y-112107999D01*
X150647204Y-112083495D01*
X150650804Y-112059227D01*
X150656765Y-112035428D01*
X150665030Y-112012329D01*
X150675520Y-111990150D01*
X150688132Y-111969107D01*
X150702747Y-111949401D01*
X150719223Y-111931223D01*
X150737401Y-111914747D01*
X150757107Y-111900132D01*
X150778150Y-111887520D01*
X150800329Y-111877030D01*
X150823428Y-111868765D01*
X150847227Y-111862804D01*
X150871495Y-111859204D01*
X150895999Y-111858000D01*
X151796001Y-111858000D01*
X151820505Y-111859204D01*
X151820505Y-111859204D01*
G37*
D21*
G04 #@! TD*
G04 #@! TO.P,R2,2*
G04 #@! TO.N,/SCL*
X151346000Y-112433000D03*
D20*
G04 #@! TO.N,/~RESET~*
G04 #@! TO.C,R7*
G36*
X157673505Y-95995204D02*
X157697773Y-95998804D01*
X157721572Y-96004765D01*
X157744671Y-96013030D01*
X157766850Y-96023520D01*
X157787893Y-96036132D01*
X157807599Y-96050747D01*
X157825777Y-96067223D01*
X157842253Y-96085401D01*
X157856868Y-96105107D01*
X157869480Y-96126150D01*
X157879970Y-96148329D01*
X157888235Y-96171428D01*
X157894196Y-96195227D01*
X157897796Y-96219495D01*
X157899000Y-96243999D01*
X157899000Y-97144001D01*
X157897796Y-97168505D01*
X157894196Y-97192773D01*
X157888235Y-97216572D01*
X157879970Y-97239671D01*
X157869480Y-97261850D01*
X157856868Y-97282893D01*
X157842253Y-97302599D01*
X157825777Y-97320777D01*
X157807599Y-97337253D01*
X157787893Y-97351868D01*
X157766850Y-97364480D01*
X157744671Y-97374970D01*
X157721572Y-97383235D01*
X157697773Y-97389196D01*
X157673505Y-97392796D01*
X157649001Y-97394000D01*
X156998999Y-97394000D01*
X156974495Y-97392796D01*
X156950227Y-97389196D01*
X156926428Y-97383235D01*
X156903329Y-97374970D01*
X156881150Y-97364480D01*
X156860107Y-97351868D01*
X156840401Y-97337253D01*
X156822223Y-97320777D01*
X156805747Y-97302599D01*
X156791132Y-97282893D01*
X156778520Y-97261850D01*
X156768030Y-97239671D01*
X156759765Y-97216572D01*
X156753804Y-97192773D01*
X156750204Y-97168505D01*
X156749000Y-97144001D01*
X156749000Y-96243999D01*
X156750204Y-96219495D01*
X156753804Y-96195227D01*
X156759765Y-96171428D01*
X156768030Y-96148329D01*
X156778520Y-96126150D01*
X156791132Y-96105107D01*
X156805747Y-96085401D01*
X156822223Y-96067223D01*
X156840401Y-96050747D01*
X156860107Y-96036132D01*
X156881150Y-96023520D01*
X156903329Y-96013030D01*
X156926428Y-96004765D01*
X156950227Y-95998804D01*
X156974495Y-95995204D01*
X156998999Y-95994000D01*
X157649001Y-95994000D01*
X157673505Y-95995204D01*
X157673505Y-95995204D01*
G37*
D21*
G04 #@! TD*
G04 #@! TO.P,R7,2*
G04 #@! TO.N,/~RESET~*
X157324000Y-96694000D03*
D20*
G04 #@! TO.N,VCC*
G04 #@! TO.C,R7*
G36*
X155623505Y-95995204D02*
X155647773Y-95998804D01*
X155671572Y-96004765D01*
X155694671Y-96013030D01*
X155716850Y-96023520D01*
X155737893Y-96036132D01*
X155757599Y-96050747D01*
X155775777Y-96067223D01*
X155792253Y-96085401D01*
X155806868Y-96105107D01*
X155819480Y-96126150D01*
X155829970Y-96148329D01*
X155838235Y-96171428D01*
X155844196Y-96195227D01*
X155847796Y-96219495D01*
X155849000Y-96243999D01*
X155849000Y-97144001D01*
X155847796Y-97168505D01*
X155844196Y-97192773D01*
X155838235Y-97216572D01*
X155829970Y-97239671D01*
X155819480Y-97261850D01*
X155806868Y-97282893D01*
X155792253Y-97302599D01*
X155775777Y-97320777D01*
X155757599Y-97337253D01*
X155737893Y-97351868D01*
X155716850Y-97364480D01*
X155694671Y-97374970D01*
X155671572Y-97383235D01*
X155647773Y-97389196D01*
X155623505Y-97392796D01*
X155599001Y-97394000D01*
X154948999Y-97394000D01*
X154924495Y-97392796D01*
X154900227Y-97389196D01*
X154876428Y-97383235D01*
X154853329Y-97374970D01*
X154831150Y-97364480D01*
X154810107Y-97351868D01*
X154790401Y-97337253D01*
X154772223Y-97320777D01*
X154755747Y-97302599D01*
X154741132Y-97282893D01*
X154728520Y-97261850D01*
X154718030Y-97239671D01*
X154709765Y-97216572D01*
X154703804Y-97192773D01*
X154700204Y-97168505D01*
X154699000Y-97144001D01*
X154699000Y-96243999D01*
X154700204Y-96219495D01*
X154703804Y-96195227D01*
X154709765Y-96171428D01*
X154718030Y-96148329D01*
X154728520Y-96126150D01*
X154741132Y-96105107D01*
X154755747Y-96085401D01*
X154772223Y-96067223D01*
X154790401Y-96050747D01*
X154810107Y-96036132D01*
X154831150Y-96023520D01*
X154853329Y-96013030D01*
X154876428Y-96004765D01*
X154900227Y-95998804D01*
X154924495Y-95995204D01*
X154948999Y-95994000D01*
X155599001Y-95994000D01*
X155623505Y-95995204D01*
X155623505Y-95995204D01*
G37*
D21*
G04 #@! TD*
G04 #@! TO.P,R7,1*
G04 #@! TO.N,VCC*
X155274000Y-96694000D03*
D20*
G04 #@! TO.N,VCC*
G04 #@! TO.C,R6*
G36*
X161980505Y-96365204D02*
X162004773Y-96368804D01*
X162028572Y-96374765D01*
X162051671Y-96383030D01*
X162073850Y-96393520D01*
X162094893Y-96406132D01*
X162114599Y-96420747D01*
X162132777Y-96437223D01*
X162149253Y-96455401D01*
X162163868Y-96475107D01*
X162176480Y-96496150D01*
X162186970Y-96518329D01*
X162195235Y-96541428D01*
X162201196Y-96565227D01*
X162204796Y-96589495D01*
X162206000Y-96613999D01*
X162206000Y-97264001D01*
X162204796Y-97288505D01*
X162201196Y-97312773D01*
X162195235Y-97336572D01*
X162186970Y-97359671D01*
X162176480Y-97381850D01*
X162163868Y-97402893D01*
X162149253Y-97422599D01*
X162132777Y-97440777D01*
X162114599Y-97457253D01*
X162094893Y-97471868D01*
X162073850Y-97484480D01*
X162051671Y-97494970D01*
X162028572Y-97503235D01*
X162004773Y-97509196D01*
X161980505Y-97512796D01*
X161956001Y-97514000D01*
X161055999Y-97514000D01*
X161031495Y-97512796D01*
X161007227Y-97509196D01*
X160983428Y-97503235D01*
X160960329Y-97494970D01*
X160938150Y-97484480D01*
X160917107Y-97471868D01*
X160897401Y-97457253D01*
X160879223Y-97440777D01*
X160862747Y-97422599D01*
X160848132Y-97402893D01*
X160835520Y-97381850D01*
X160825030Y-97359671D01*
X160816765Y-97336572D01*
X160810804Y-97312773D01*
X160807204Y-97288505D01*
X160806000Y-97264001D01*
X160806000Y-96613999D01*
X160807204Y-96589495D01*
X160810804Y-96565227D01*
X160816765Y-96541428D01*
X160825030Y-96518329D01*
X160835520Y-96496150D01*
X160848132Y-96475107D01*
X160862747Y-96455401D01*
X160879223Y-96437223D01*
X160897401Y-96420747D01*
X160917107Y-96406132D01*
X160938150Y-96393520D01*
X160960329Y-96383030D01*
X160983428Y-96374765D01*
X161007227Y-96368804D01*
X161031495Y-96365204D01*
X161055999Y-96364000D01*
X161956001Y-96364000D01*
X161980505Y-96365204D01*
X161980505Y-96365204D01*
G37*
D21*
G04 #@! TD*
G04 #@! TO.P,R6,1*
G04 #@! TO.N,VCC*
X161506000Y-96939000D03*
D20*
G04 #@! TO.N,/~INT~*
G04 #@! TO.C,R6*
G36*
X161980505Y-98415204D02*
X162004773Y-98418804D01*
X162028572Y-98424765D01*
X162051671Y-98433030D01*
X162073850Y-98443520D01*
X162094893Y-98456132D01*
X162114599Y-98470747D01*
X162132777Y-98487223D01*
X162149253Y-98505401D01*
X162163868Y-98525107D01*
X162176480Y-98546150D01*
X162186970Y-98568329D01*
X162195235Y-98591428D01*
X162201196Y-98615227D01*
X162204796Y-98639495D01*
X162206000Y-98663999D01*
X162206000Y-99314001D01*
X162204796Y-99338505D01*
X162201196Y-99362773D01*
X162195235Y-99386572D01*
X162186970Y-99409671D01*
X162176480Y-99431850D01*
X162163868Y-99452893D01*
X162149253Y-99472599D01*
X162132777Y-99490777D01*
X162114599Y-99507253D01*
X162094893Y-99521868D01*
X162073850Y-99534480D01*
X162051671Y-99544970D01*
X162028572Y-99553235D01*
X162004773Y-99559196D01*
X161980505Y-99562796D01*
X161956001Y-99564000D01*
X161055999Y-99564000D01*
X161031495Y-99562796D01*
X161007227Y-99559196D01*
X160983428Y-99553235D01*
X160960329Y-99544970D01*
X160938150Y-99534480D01*
X160917107Y-99521868D01*
X160897401Y-99507253D01*
X160879223Y-99490777D01*
X160862747Y-99472599D01*
X160848132Y-99452893D01*
X160835520Y-99431850D01*
X160825030Y-99409671D01*
X160816765Y-99386572D01*
X160810804Y-99362773D01*
X160807204Y-99338505D01*
X160806000Y-99314001D01*
X160806000Y-98663999D01*
X160807204Y-98639495D01*
X160810804Y-98615227D01*
X160816765Y-98591428D01*
X160825030Y-98568329D01*
X160835520Y-98546150D01*
X160848132Y-98525107D01*
X160862747Y-98505401D01*
X160879223Y-98487223D01*
X160897401Y-98470747D01*
X160917107Y-98456132D01*
X160938150Y-98443520D01*
X160960329Y-98433030D01*
X160983428Y-98424765D01*
X161007227Y-98418804D01*
X161031495Y-98415204D01*
X161055999Y-98414000D01*
X161956001Y-98414000D01*
X161980505Y-98415204D01*
X161980505Y-98415204D01*
G37*
D21*
G04 #@! TD*
G04 #@! TO.P,R6,2*
G04 #@! TO.N,/~INT~*
X161506000Y-98989000D03*
D20*
G04 #@! TO.N,/~CS~*
G04 #@! TO.C,R5*
G36*
X155503505Y-113782204D02*
X155527773Y-113785804D01*
X155551572Y-113791765D01*
X155574671Y-113800030D01*
X155596850Y-113810520D01*
X155617893Y-113823132D01*
X155637599Y-113837747D01*
X155655777Y-113854223D01*
X155672253Y-113872401D01*
X155686868Y-113892107D01*
X155699480Y-113913150D01*
X155709970Y-113935329D01*
X155718235Y-113958428D01*
X155724196Y-113982227D01*
X155727796Y-114006495D01*
X155729000Y-114030999D01*
X155729000Y-114681001D01*
X155727796Y-114705505D01*
X155724196Y-114729773D01*
X155718235Y-114753572D01*
X155709970Y-114776671D01*
X155699480Y-114798850D01*
X155686868Y-114819893D01*
X155672253Y-114839599D01*
X155655777Y-114857777D01*
X155637599Y-114874253D01*
X155617893Y-114888868D01*
X155596850Y-114901480D01*
X155574671Y-114911970D01*
X155551572Y-114920235D01*
X155527773Y-114926196D01*
X155503505Y-114929796D01*
X155479001Y-114931000D01*
X154578999Y-114931000D01*
X154554495Y-114929796D01*
X154530227Y-114926196D01*
X154506428Y-114920235D01*
X154483329Y-114911970D01*
X154461150Y-114901480D01*
X154440107Y-114888868D01*
X154420401Y-114874253D01*
X154402223Y-114857777D01*
X154385747Y-114839599D01*
X154371132Y-114819893D01*
X154358520Y-114798850D01*
X154348030Y-114776671D01*
X154339765Y-114753572D01*
X154333804Y-114729773D01*
X154330204Y-114705505D01*
X154329000Y-114681001D01*
X154329000Y-114030999D01*
X154330204Y-114006495D01*
X154333804Y-113982227D01*
X154339765Y-113958428D01*
X154348030Y-113935329D01*
X154358520Y-113913150D01*
X154371132Y-113892107D01*
X154385747Y-113872401D01*
X154402223Y-113854223D01*
X154420401Y-113837747D01*
X154440107Y-113823132D01*
X154461150Y-113810520D01*
X154483329Y-113800030D01*
X154506428Y-113791765D01*
X154530227Y-113785804D01*
X154554495Y-113782204D01*
X154578999Y-113781000D01*
X155479001Y-113781000D01*
X155503505Y-113782204D01*
X155503505Y-113782204D01*
G37*
D21*
G04 #@! TD*
G04 #@! TO.P,R5,2*
G04 #@! TO.N,/~CS~*
X155029000Y-114356000D03*
D20*
G04 #@! TO.N,VCC*
G04 #@! TO.C,R5*
G36*
X155503505Y-111732204D02*
X155527773Y-111735804D01*
X155551572Y-111741765D01*
X155574671Y-111750030D01*
X155596850Y-111760520D01*
X155617893Y-111773132D01*
X155637599Y-111787747D01*
X155655777Y-111804223D01*
X155672253Y-111822401D01*
X155686868Y-111842107D01*
X155699480Y-111863150D01*
X155709970Y-111885329D01*
X155718235Y-111908428D01*
X155724196Y-111932227D01*
X155727796Y-111956495D01*
X155729000Y-111980999D01*
X155729000Y-112631001D01*
X155727796Y-112655505D01*
X155724196Y-112679773D01*
X155718235Y-112703572D01*
X155709970Y-112726671D01*
X155699480Y-112748850D01*
X155686868Y-112769893D01*
X155672253Y-112789599D01*
X155655777Y-112807777D01*
X155637599Y-112824253D01*
X155617893Y-112838868D01*
X155596850Y-112851480D01*
X155574671Y-112861970D01*
X155551572Y-112870235D01*
X155527773Y-112876196D01*
X155503505Y-112879796D01*
X155479001Y-112881000D01*
X154578999Y-112881000D01*
X154554495Y-112879796D01*
X154530227Y-112876196D01*
X154506428Y-112870235D01*
X154483329Y-112861970D01*
X154461150Y-112851480D01*
X154440107Y-112838868D01*
X154420401Y-112824253D01*
X154402223Y-112807777D01*
X154385747Y-112789599D01*
X154371132Y-112769893D01*
X154358520Y-112748850D01*
X154348030Y-112726671D01*
X154339765Y-112703572D01*
X154333804Y-112679773D01*
X154330204Y-112655505D01*
X154329000Y-112631001D01*
X154329000Y-111980999D01*
X154330204Y-111956495D01*
X154333804Y-111932227D01*
X154339765Y-111908428D01*
X154348030Y-111885329D01*
X154358520Y-111863150D01*
X154371132Y-111842107D01*
X154385747Y-111822401D01*
X154402223Y-111804223D01*
X154420401Y-111787747D01*
X154440107Y-111773132D01*
X154461150Y-111760520D01*
X154483329Y-111750030D01*
X154506428Y-111741765D01*
X154530227Y-111735804D01*
X154554495Y-111732204D01*
X154578999Y-111731000D01*
X155479001Y-111731000D01*
X155503505Y-111732204D01*
X155503505Y-111732204D01*
G37*
D21*
G04 #@! TD*
G04 #@! TO.P,R5,1*
G04 #@! TO.N,VCC*
X155029000Y-112306000D03*
D20*
G04 #@! TO.N,VCC*
G04 #@! TO.C,R3*
G36*
X167822505Y-113401204D02*
X167846773Y-113404804D01*
X167870572Y-113410765D01*
X167893671Y-113419030D01*
X167915850Y-113429520D01*
X167936893Y-113442132D01*
X167956599Y-113456747D01*
X167974777Y-113473223D01*
X167991253Y-113491401D01*
X168005868Y-113511107D01*
X168018480Y-113532150D01*
X168028970Y-113554329D01*
X168037235Y-113577428D01*
X168043196Y-113601227D01*
X168046796Y-113625495D01*
X168048000Y-113649999D01*
X168048000Y-114300001D01*
X168046796Y-114324505D01*
X168043196Y-114348773D01*
X168037235Y-114372572D01*
X168028970Y-114395671D01*
X168018480Y-114417850D01*
X168005868Y-114438893D01*
X167991253Y-114458599D01*
X167974777Y-114476777D01*
X167956599Y-114493253D01*
X167936893Y-114507868D01*
X167915850Y-114520480D01*
X167893671Y-114530970D01*
X167870572Y-114539235D01*
X167846773Y-114545196D01*
X167822505Y-114548796D01*
X167798001Y-114550000D01*
X166897999Y-114550000D01*
X166873495Y-114548796D01*
X166849227Y-114545196D01*
X166825428Y-114539235D01*
X166802329Y-114530970D01*
X166780150Y-114520480D01*
X166759107Y-114507868D01*
X166739401Y-114493253D01*
X166721223Y-114476777D01*
X166704747Y-114458599D01*
X166690132Y-114438893D01*
X166677520Y-114417850D01*
X166667030Y-114395671D01*
X166658765Y-114372572D01*
X166652804Y-114348773D01*
X166649204Y-114324505D01*
X166648000Y-114300001D01*
X166648000Y-113649999D01*
X166649204Y-113625495D01*
X166652804Y-113601227D01*
X166658765Y-113577428D01*
X166667030Y-113554329D01*
X166677520Y-113532150D01*
X166690132Y-113511107D01*
X166704747Y-113491401D01*
X166721223Y-113473223D01*
X166739401Y-113456747D01*
X166759107Y-113442132D01*
X166780150Y-113429520D01*
X166802329Y-113419030D01*
X166825428Y-113410765D01*
X166849227Y-113404804D01*
X166873495Y-113401204D01*
X166897999Y-113400000D01*
X167798001Y-113400000D01*
X167822505Y-113401204D01*
X167822505Y-113401204D01*
G37*
D21*
G04 #@! TD*
G04 #@! TO.P,R3,1*
G04 #@! TO.N,VCC*
X167348000Y-113975000D03*
D20*
G04 #@! TO.N,/GPIO0*
G04 #@! TO.C,R3*
G36*
X167822505Y-115451204D02*
X167846773Y-115454804D01*
X167870572Y-115460765D01*
X167893671Y-115469030D01*
X167915850Y-115479520D01*
X167936893Y-115492132D01*
X167956599Y-115506747D01*
X167974777Y-115523223D01*
X167991253Y-115541401D01*
X168005868Y-115561107D01*
X168018480Y-115582150D01*
X168028970Y-115604329D01*
X168037235Y-115627428D01*
X168043196Y-115651227D01*
X168046796Y-115675495D01*
X168048000Y-115699999D01*
X168048000Y-116350001D01*
X168046796Y-116374505D01*
X168043196Y-116398773D01*
X168037235Y-116422572D01*
X168028970Y-116445671D01*
X168018480Y-116467850D01*
X168005868Y-116488893D01*
X167991253Y-116508599D01*
X167974777Y-116526777D01*
X167956599Y-116543253D01*
X167936893Y-116557868D01*
X167915850Y-116570480D01*
X167893671Y-116580970D01*
X167870572Y-116589235D01*
X167846773Y-116595196D01*
X167822505Y-116598796D01*
X167798001Y-116600000D01*
X166897999Y-116600000D01*
X166873495Y-116598796D01*
X166849227Y-116595196D01*
X166825428Y-116589235D01*
X166802329Y-116580970D01*
X166780150Y-116570480D01*
X166759107Y-116557868D01*
X166739401Y-116543253D01*
X166721223Y-116526777D01*
X166704747Y-116508599D01*
X166690132Y-116488893D01*
X166677520Y-116467850D01*
X166667030Y-116445671D01*
X166658765Y-116422572D01*
X166652804Y-116398773D01*
X166649204Y-116374505D01*
X166648000Y-116350001D01*
X166648000Y-115699999D01*
X166649204Y-115675495D01*
X166652804Y-115651227D01*
X166658765Y-115627428D01*
X166667030Y-115604329D01*
X166677520Y-115582150D01*
X166690132Y-115561107D01*
X166704747Y-115541401D01*
X166721223Y-115523223D01*
X166739401Y-115506747D01*
X166759107Y-115492132D01*
X166780150Y-115479520D01*
X166802329Y-115469030D01*
X166825428Y-115460765D01*
X166849227Y-115454804D01*
X166873495Y-115451204D01*
X166897999Y-115450000D01*
X167798001Y-115450000D01*
X167822505Y-115451204D01*
X167822505Y-115451204D01*
G37*
D21*
G04 #@! TD*
G04 #@! TO.P,R3,2*
G04 #@! TO.N,/GPIO0*
X167348000Y-116025000D03*
D20*
G04 #@! TO.N,/SDA*
G04 #@! TO.C,R1*
G36*
X149534505Y-111859204D02*
X149558773Y-111862804D01*
X149582572Y-111868765D01*
X149605671Y-111877030D01*
X149627850Y-111887520D01*
X149648893Y-111900132D01*
X149668599Y-111914747D01*
X149686777Y-111931223D01*
X149703253Y-111949401D01*
X149717868Y-111969107D01*
X149730480Y-111990150D01*
X149740970Y-112012329D01*
X149749235Y-112035428D01*
X149755196Y-112059227D01*
X149758796Y-112083495D01*
X149760000Y-112107999D01*
X149760000Y-112758001D01*
X149758796Y-112782505D01*
X149755196Y-112806773D01*
X149749235Y-112830572D01*
X149740970Y-112853671D01*
X149730480Y-112875850D01*
X149717868Y-112896893D01*
X149703253Y-112916599D01*
X149686777Y-112934777D01*
X149668599Y-112951253D01*
X149648893Y-112965868D01*
X149627850Y-112978480D01*
X149605671Y-112988970D01*
X149582572Y-112997235D01*
X149558773Y-113003196D01*
X149534505Y-113006796D01*
X149510001Y-113008000D01*
X148609999Y-113008000D01*
X148585495Y-113006796D01*
X148561227Y-113003196D01*
X148537428Y-112997235D01*
X148514329Y-112988970D01*
X148492150Y-112978480D01*
X148471107Y-112965868D01*
X148451401Y-112951253D01*
X148433223Y-112934777D01*
X148416747Y-112916599D01*
X148402132Y-112896893D01*
X148389520Y-112875850D01*
X148379030Y-112853671D01*
X148370765Y-112830572D01*
X148364804Y-112806773D01*
X148361204Y-112782505D01*
X148360000Y-112758001D01*
X148360000Y-112107999D01*
X148361204Y-112083495D01*
X148364804Y-112059227D01*
X148370765Y-112035428D01*
X148379030Y-112012329D01*
X148389520Y-111990150D01*
X148402132Y-111969107D01*
X148416747Y-111949401D01*
X148433223Y-111931223D01*
X148451401Y-111914747D01*
X148471107Y-111900132D01*
X148492150Y-111887520D01*
X148514329Y-111877030D01*
X148537428Y-111868765D01*
X148561227Y-111862804D01*
X148585495Y-111859204D01*
X148609999Y-111858000D01*
X149510001Y-111858000D01*
X149534505Y-111859204D01*
X149534505Y-111859204D01*
G37*
D21*
G04 #@! TD*
G04 #@! TO.P,R1,2*
G04 #@! TO.N,/SDA*
X149060000Y-112433000D03*
D20*
G04 #@! TO.N,VCC*
G04 #@! TO.C,R1*
G36*
X149534505Y-113909204D02*
X149558773Y-113912804D01*
X149582572Y-113918765D01*
X149605671Y-113927030D01*
X149627850Y-113937520D01*
X149648893Y-113950132D01*
X149668599Y-113964747D01*
X149686777Y-113981223D01*
X149703253Y-113999401D01*
X149717868Y-114019107D01*
X149730480Y-114040150D01*
X149740970Y-114062329D01*
X149749235Y-114085428D01*
X149755196Y-114109227D01*
X149758796Y-114133495D01*
X149760000Y-114157999D01*
X149760000Y-114808001D01*
X149758796Y-114832505D01*
X149755196Y-114856773D01*
X149749235Y-114880572D01*
X149740970Y-114903671D01*
X149730480Y-114925850D01*
X149717868Y-114946893D01*
X149703253Y-114966599D01*
X149686777Y-114984777D01*
X149668599Y-115001253D01*
X149648893Y-115015868D01*
X149627850Y-115028480D01*
X149605671Y-115038970D01*
X149582572Y-115047235D01*
X149558773Y-115053196D01*
X149534505Y-115056796D01*
X149510001Y-115058000D01*
X148609999Y-115058000D01*
X148585495Y-115056796D01*
X148561227Y-115053196D01*
X148537428Y-115047235D01*
X148514329Y-115038970D01*
X148492150Y-115028480D01*
X148471107Y-115015868D01*
X148451401Y-115001253D01*
X148433223Y-114984777D01*
X148416747Y-114966599D01*
X148402132Y-114946893D01*
X148389520Y-114925850D01*
X148379030Y-114903671D01*
X148370765Y-114880572D01*
X148364804Y-114856773D01*
X148361204Y-114832505D01*
X148360000Y-114808001D01*
X148360000Y-114157999D01*
X148361204Y-114133495D01*
X148364804Y-114109227D01*
X148370765Y-114085428D01*
X148379030Y-114062329D01*
X148389520Y-114040150D01*
X148402132Y-114019107D01*
X148416747Y-113999401D01*
X148433223Y-113981223D01*
X148451401Y-113964747D01*
X148471107Y-113950132D01*
X148492150Y-113937520D01*
X148514329Y-113927030D01*
X148537428Y-113918765D01*
X148561227Y-113912804D01*
X148585495Y-113909204D01*
X148609999Y-113908000D01*
X149510001Y-113908000D01*
X149534505Y-113909204D01*
X149534505Y-113909204D01*
G37*
D21*
G04 #@! TD*
G04 #@! TO.P,R1,1*
G04 #@! TO.N,VCC*
X149060000Y-114483000D03*
D20*
G04 #@! TO.N,VCC*
G04 #@! TO.C,R4*
G36*
X165790505Y-113401204D02*
X165814773Y-113404804D01*
X165838572Y-113410765D01*
X165861671Y-113419030D01*
X165883850Y-113429520D01*
X165904893Y-113442132D01*
X165924599Y-113456747D01*
X165942777Y-113473223D01*
X165959253Y-113491401D01*
X165973868Y-113511107D01*
X165986480Y-113532150D01*
X165996970Y-113554329D01*
X166005235Y-113577428D01*
X166011196Y-113601227D01*
X166014796Y-113625495D01*
X166016000Y-113649999D01*
X166016000Y-114300001D01*
X166014796Y-114324505D01*
X166011196Y-114348773D01*
X166005235Y-114372572D01*
X165996970Y-114395671D01*
X165986480Y-114417850D01*
X165973868Y-114438893D01*
X165959253Y-114458599D01*
X165942777Y-114476777D01*
X165924599Y-114493253D01*
X165904893Y-114507868D01*
X165883850Y-114520480D01*
X165861671Y-114530970D01*
X165838572Y-114539235D01*
X165814773Y-114545196D01*
X165790505Y-114548796D01*
X165766001Y-114550000D01*
X164865999Y-114550000D01*
X164841495Y-114548796D01*
X164817227Y-114545196D01*
X164793428Y-114539235D01*
X164770329Y-114530970D01*
X164748150Y-114520480D01*
X164727107Y-114507868D01*
X164707401Y-114493253D01*
X164689223Y-114476777D01*
X164672747Y-114458599D01*
X164658132Y-114438893D01*
X164645520Y-114417850D01*
X164635030Y-114395671D01*
X164626765Y-114372572D01*
X164620804Y-114348773D01*
X164617204Y-114324505D01*
X164616000Y-114300001D01*
X164616000Y-113649999D01*
X164617204Y-113625495D01*
X164620804Y-113601227D01*
X164626765Y-113577428D01*
X164635030Y-113554329D01*
X164645520Y-113532150D01*
X164658132Y-113511107D01*
X164672747Y-113491401D01*
X164689223Y-113473223D01*
X164707401Y-113456747D01*
X164727107Y-113442132D01*
X164748150Y-113429520D01*
X164770329Y-113419030D01*
X164793428Y-113410765D01*
X164817227Y-113404804D01*
X164841495Y-113401204D01*
X164865999Y-113400000D01*
X165766001Y-113400000D01*
X165790505Y-113401204D01*
X165790505Y-113401204D01*
G37*
D21*
G04 #@! TD*
G04 #@! TO.P,R4,1*
G04 #@! TO.N,VCC*
X165316000Y-113975000D03*
D20*
G04 #@! TO.N,/GPIO1*
G04 #@! TO.C,R4*
G36*
X165790505Y-115451204D02*
X165814773Y-115454804D01*
X165838572Y-115460765D01*
X165861671Y-115469030D01*
X165883850Y-115479520D01*
X165904893Y-115492132D01*
X165924599Y-115506747D01*
X165942777Y-115523223D01*
X165959253Y-115541401D01*
X165973868Y-115561107D01*
X165986480Y-115582150D01*
X165996970Y-115604329D01*
X166005235Y-115627428D01*
X166011196Y-115651227D01*
X166014796Y-115675495D01*
X166016000Y-115699999D01*
X166016000Y-116350001D01*
X166014796Y-116374505D01*
X166011196Y-116398773D01*
X166005235Y-116422572D01*
X165996970Y-116445671D01*
X165986480Y-116467850D01*
X165973868Y-116488893D01*
X165959253Y-116508599D01*
X165942777Y-116526777D01*
X165924599Y-116543253D01*
X165904893Y-116557868D01*
X165883850Y-116570480D01*
X165861671Y-116580970D01*
X165838572Y-116589235D01*
X165814773Y-116595196D01*
X165790505Y-116598796D01*
X165766001Y-116600000D01*
X164865999Y-116600000D01*
X164841495Y-116598796D01*
X164817227Y-116595196D01*
X164793428Y-116589235D01*
X164770329Y-116580970D01*
X164748150Y-116570480D01*
X164727107Y-116557868D01*
X164707401Y-116543253D01*
X164689223Y-116526777D01*
X164672747Y-116508599D01*
X164658132Y-116488893D01*
X164645520Y-116467850D01*
X164635030Y-116445671D01*
X164626765Y-116422572D01*
X164620804Y-116398773D01*
X164617204Y-116374505D01*
X164616000Y-116350001D01*
X164616000Y-115699999D01*
X164617204Y-115675495D01*
X164620804Y-115651227D01*
X164626765Y-115627428D01*
X164635030Y-115604329D01*
X164645520Y-115582150D01*
X164658132Y-115561107D01*
X164672747Y-115541401D01*
X164689223Y-115523223D01*
X164707401Y-115506747D01*
X164727107Y-115492132D01*
X164748150Y-115479520D01*
X164770329Y-115469030D01*
X164793428Y-115460765D01*
X164817227Y-115454804D01*
X164841495Y-115451204D01*
X164865999Y-115450000D01*
X165766001Y-115450000D01*
X165790505Y-115451204D01*
X165790505Y-115451204D01*
G37*
D21*
G04 #@! TD*
G04 #@! TO.P,R4,2*
G04 #@! TO.N,/GPIO1*
X165316000Y-116025000D03*
D20*
G04 #@! TO.N,GND*
G04 #@! TO.C,C1*
G36*
X145082505Y-103361204D02*
X145106773Y-103364804D01*
X145130572Y-103370765D01*
X145153671Y-103379030D01*
X145175850Y-103389520D01*
X145196893Y-103402132D01*
X145216599Y-103416747D01*
X145234777Y-103433223D01*
X145251253Y-103451401D01*
X145265868Y-103471107D01*
X145278480Y-103492150D01*
X145288970Y-103514329D01*
X145297235Y-103537428D01*
X145303196Y-103561227D01*
X145306796Y-103585495D01*
X145308000Y-103609999D01*
X145308000Y-104510001D01*
X145306796Y-104534505D01*
X145303196Y-104558773D01*
X145297235Y-104582572D01*
X145288970Y-104605671D01*
X145278480Y-104627850D01*
X145265868Y-104648893D01*
X145251253Y-104668599D01*
X145234777Y-104686777D01*
X145216599Y-104703253D01*
X145196893Y-104717868D01*
X145175850Y-104730480D01*
X145153671Y-104740970D01*
X145130572Y-104749235D01*
X145106773Y-104755196D01*
X145082505Y-104758796D01*
X145058001Y-104760000D01*
X144407999Y-104760000D01*
X144383495Y-104758796D01*
X144359227Y-104755196D01*
X144335428Y-104749235D01*
X144312329Y-104740970D01*
X144290150Y-104730480D01*
X144269107Y-104717868D01*
X144249401Y-104703253D01*
X144231223Y-104686777D01*
X144214747Y-104668599D01*
X144200132Y-104648893D01*
X144187520Y-104627850D01*
X144177030Y-104605671D01*
X144168765Y-104582572D01*
X144162804Y-104558773D01*
X144159204Y-104534505D01*
X144158000Y-104510001D01*
X144158000Y-103609999D01*
X144159204Y-103585495D01*
X144162804Y-103561227D01*
X144168765Y-103537428D01*
X144177030Y-103514329D01*
X144187520Y-103492150D01*
X144200132Y-103471107D01*
X144214747Y-103451401D01*
X144231223Y-103433223D01*
X144249401Y-103416747D01*
X144269107Y-103402132D01*
X144290150Y-103389520D01*
X144312329Y-103379030D01*
X144335428Y-103370765D01*
X144359227Y-103364804D01*
X144383495Y-103361204D01*
X144407999Y-103360000D01*
X145058001Y-103360000D01*
X145082505Y-103361204D01*
X145082505Y-103361204D01*
G37*
D21*
G04 #@! TD*
G04 #@! TO.P,C1,2*
G04 #@! TO.N,GND*
X144733000Y-104060000D03*
D20*
G04 #@! TO.N,VCC*
G04 #@! TO.C,C1*
G36*
X147132505Y-103361204D02*
X147156773Y-103364804D01*
X147180572Y-103370765D01*
X147203671Y-103379030D01*
X147225850Y-103389520D01*
X147246893Y-103402132D01*
X147266599Y-103416747D01*
X147284777Y-103433223D01*
X147301253Y-103451401D01*
X147315868Y-103471107D01*
X147328480Y-103492150D01*
X147338970Y-103514329D01*
X147347235Y-103537428D01*
X147353196Y-103561227D01*
X147356796Y-103585495D01*
X147358000Y-103609999D01*
X147358000Y-104510001D01*
X147356796Y-104534505D01*
X147353196Y-104558773D01*
X147347235Y-104582572D01*
X147338970Y-104605671D01*
X147328480Y-104627850D01*
X147315868Y-104648893D01*
X147301253Y-104668599D01*
X147284777Y-104686777D01*
X147266599Y-104703253D01*
X147246893Y-104717868D01*
X147225850Y-104730480D01*
X147203671Y-104740970D01*
X147180572Y-104749235D01*
X147156773Y-104755196D01*
X147132505Y-104758796D01*
X147108001Y-104760000D01*
X146457999Y-104760000D01*
X146433495Y-104758796D01*
X146409227Y-104755196D01*
X146385428Y-104749235D01*
X146362329Y-104740970D01*
X146340150Y-104730480D01*
X146319107Y-104717868D01*
X146299401Y-104703253D01*
X146281223Y-104686777D01*
X146264747Y-104668599D01*
X146250132Y-104648893D01*
X146237520Y-104627850D01*
X146227030Y-104605671D01*
X146218765Y-104582572D01*
X146212804Y-104558773D01*
X146209204Y-104534505D01*
X146208000Y-104510001D01*
X146208000Y-103609999D01*
X146209204Y-103585495D01*
X146212804Y-103561227D01*
X146218765Y-103537428D01*
X146227030Y-103514329D01*
X146237520Y-103492150D01*
X146250132Y-103471107D01*
X146264747Y-103451401D01*
X146281223Y-103433223D01*
X146299401Y-103416747D01*
X146319107Y-103402132D01*
X146340150Y-103389520D01*
X146362329Y-103379030D01*
X146385428Y-103370765D01*
X146409227Y-103364804D01*
X146433495Y-103361204D01*
X146457999Y-103360000D01*
X147108001Y-103360000D01*
X147132505Y-103361204D01*
X147132505Y-103361204D01*
G37*
D21*
G04 #@! TD*
G04 #@! TO.P,C1,1*
G04 #@! TO.N,VCC*
X146783000Y-104060000D03*
D20*
G04 #@! TO.N,VCC*
G04 #@! TO.C,C2*
G36*
X164012505Y-98415204D02*
X164036773Y-98418804D01*
X164060572Y-98424765D01*
X164083671Y-98433030D01*
X164105850Y-98443520D01*
X164126893Y-98456132D01*
X164146599Y-98470747D01*
X164164777Y-98487223D01*
X164181253Y-98505401D01*
X164195868Y-98525107D01*
X164208480Y-98546150D01*
X164218970Y-98568329D01*
X164227235Y-98591428D01*
X164233196Y-98615227D01*
X164236796Y-98639495D01*
X164238000Y-98663999D01*
X164238000Y-99314001D01*
X164236796Y-99338505D01*
X164233196Y-99362773D01*
X164227235Y-99386572D01*
X164218970Y-99409671D01*
X164208480Y-99431850D01*
X164195868Y-99452893D01*
X164181253Y-99472599D01*
X164164777Y-99490777D01*
X164146599Y-99507253D01*
X164126893Y-99521868D01*
X164105850Y-99534480D01*
X164083671Y-99544970D01*
X164060572Y-99553235D01*
X164036773Y-99559196D01*
X164012505Y-99562796D01*
X163988001Y-99564000D01*
X163087999Y-99564000D01*
X163063495Y-99562796D01*
X163039227Y-99559196D01*
X163015428Y-99553235D01*
X162992329Y-99544970D01*
X162970150Y-99534480D01*
X162949107Y-99521868D01*
X162929401Y-99507253D01*
X162911223Y-99490777D01*
X162894747Y-99472599D01*
X162880132Y-99452893D01*
X162867520Y-99431850D01*
X162857030Y-99409671D01*
X162848765Y-99386572D01*
X162842804Y-99362773D01*
X162839204Y-99338505D01*
X162838000Y-99314001D01*
X162838000Y-98663999D01*
X162839204Y-98639495D01*
X162842804Y-98615227D01*
X162848765Y-98591428D01*
X162857030Y-98568329D01*
X162867520Y-98546150D01*
X162880132Y-98525107D01*
X162894747Y-98505401D01*
X162911223Y-98487223D01*
X162929401Y-98470747D01*
X162949107Y-98456132D01*
X162970150Y-98443520D01*
X162992329Y-98433030D01*
X163015428Y-98424765D01*
X163039227Y-98418804D01*
X163063495Y-98415204D01*
X163087999Y-98414000D01*
X163988001Y-98414000D01*
X164012505Y-98415204D01*
X164012505Y-98415204D01*
G37*
D21*
G04 #@! TD*
G04 #@! TO.P,C2,1*
G04 #@! TO.N,VCC*
X163538000Y-98989000D03*
D20*
G04 #@! TO.N,GND*
G04 #@! TO.C,C2*
G36*
X164012505Y-96365204D02*
X164036773Y-96368804D01*
X164060572Y-96374765D01*
X164083671Y-96383030D01*
X164105850Y-96393520D01*
X164126893Y-96406132D01*
X164146599Y-96420747D01*
X164164777Y-96437223D01*
X164181253Y-96455401D01*
X164195868Y-96475107D01*
X164208480Y-96496150D01*
X164218970Y-96518329D01*
X164227235Y-96541428D01*
X164233196Y-96565227D01*
X164236796Y-96589495D01*
X164238000Y-96613999D01*
X164238000Y-97264001D01*
X164236796Y-97288505D01*
X164233196Y-97312773D01*
X164227235Y-97336572D01*
X164218970Y-97359671D01*
X164208480Y-97381850D01*
X164195868Y-97402893D01*
X164181253Y-97422599D01*
X164164777Y-97440777D01*
X164146599Y-97457253D01*
X164126893Y-97471868D01*
X164105850Y-97484480D01*
X164083671Y-97494970D01*
X164060572Y-97503235D01*
X164036773Y-97509196D01*
X164012505Y-97512796D01*
X163988001Y-97514000D01*
X163087999Y-97514000D01*
X163063495Y-97512796D01*
X163039227Y-97509196D01*
X163015428Y-97503235D01*
X162992329Y-97494970D01*
X162970150Y-97484480D01*
X162949107Y-97471868D01*
X162929401Y-97457253D01*
X162911223Y-97440777D01*
X162894747Y-97422599D01*
X162880132Y-97402893D01*
X162867520Y-97381850D01*
X162857030Y-97359671D01*
X162848765Y-97336572D01*
X162842804Y-97312773D01*
X162839204Y-97288505D01*
X162838000Y-97264001D01*
X162838000Y-96613999D01*
X162839204Y-96589495D01*
X162842804Y-96565227D01*
X162848765Y-96541428D01*
X162857030Y-96518329D01*
X162867520Y-96496150D01*
X162880132Y-96475107D01*
X162894747Y-96455401D01*
X162911223Y-96437223D01*
X162929401Y-96420747D01*
X162949107Y-96406132D01*
X162970150Y-96393520D01*
X162992329Y-96383030D01*
X163015428Y-96374765D01*
X163039227Y-96368804D01*
X163063495Y-96365204D01*
X163087999Y-96364000D01*
X163988001Y-96364000D01*
X164012505Y-96365204D01*
X164012505Y-96365204D01*
G37*
D21*
G04 #@! TD*
G04 #@! TO.P,C2,2*
G04 #@! TO.N,GND*
X163538000Y-96939000D03*
D20*
G04 #@! TO.N,GND*
G04 #@! TO.C,C3*
G36*
X145474505Y-106701204D02*
X145498773Y-106704804D01*
X145522572Y-106710765D01*
X145545671Y-106719030D01*
X145567850Y-106729520D01*
X145588893Y-106742132D01*
X145608599Y-106756747D01*
X145626777Y-106773223D01*
X145643253Y-106791401D01*
X145657868Y-106811107D01*
X145670480Y-106832150D01*
X145680970Y-106854329D01*
X145689235Y-106877428D01*
X145695196Y-106901227D01*
X145698796Y-106925495D01*
X145700000Y-106949999D01*
X145700000Y-107850001D01*
X145698796Y-107874505D01*
X145695196Y-107898773D01*
X145689235Y-107922572D01*
X145680970Y-107945671D01*
X145670480Y-107967850D01*
X145657868Y-107988893D01*
X145643253Y-108008599D01*
X145626777Y-108026777D01*
X145608599Y-108043253D01*
X145588893Y-108057868D01*
X145567850Y-108070480D01*
X145545671Y-108080970D01*
X145522572Y-108089235D01*
X145498773Y-108095196D01*
X145474505Y-108098796D01*
X145450001Y-108100000D01*
X144799999Y-108100000D01*
X144775495Y-108098796D01*
X144751227Y-108095196D01*
X144727428Y-108089235D01*
X144704329Y-108080970D01*
X144682150Y-108070480D01*
X144661107Y-108057868D01*
X144641401Y-108043253D01*
X144623223Y-108026777D01*
X144606747Y-108008599D01*
X144592132Y-107988893D01*
X144579520Y-107967850D01*
X144569030Y-107945671D01*
X144560765Y-107922572D01*
X144554804Y-107898773D01*
X144551204Y-107874505D01*
X144550000Y-107850001D01*
X144550000Y-106949999D01*
X144551204Y-106925495D01*
X144554804Y-106901227D01*
X144560765Y-106877428D01*
X144569030Y-106854329D01*
X144579520Y-106832150D01*
X144592132Y-106811107D01*
X144606747Y-106791401D01*
X144623223Y-106773223D01*
X144641401Y-106756747D01*
X144661107Y-106742132D01*
X144682150Y-106729520D01*
X144704329Y-106719030D01*
X144727428Y-106710765D01*
X144751227Y-106704804D01*
X144775495Y-106701204D01*
X144799999Y-106700000D01*
X145450001Y-106700000D01*
X145474505Y-106701204D01*
X145474505Y-106701204D01*
G37*
D21*
G04 #@! TD*
G04 #@! TO.P,C3,2*
G04 #@! TO.N,GND*
X145125000Y-107400000D03*
D20*
G04 #@! TO.N,VCC*
G04 #@! TO.C,C3*
G36*
X143424505Y-106701204D02*
X143448773Y-106704804D01*
X143472572Y-106710765D01*
X143495671Y-106719030D01*
X143517850Y-106729520D01*
X143538893Y-106742132D01*
X143558599Y-106756747D01*
X143576777Y-106773223D01*
X143593253Y-106791401D01*
X143607868Y-106811107D01*
X143620480Y-106832150D01*
X143630970Y-106854329D01*
X143639235Y-106877428D01*
X143645196Y-106901227D01*
X143648796Y-106925495D01*
X143650000Y-106949999D01*
X143650000Y-107850001D01*
X143648796Y-107874505D01*
X143645196Y-107898773D01*
X143639235Y-107922572D01*
X143630970Y-107945671D01*
X143620480Y-107967850D01*
X143607868Y-107988893D01*
X143593253Y-108008599D01*
X143576777Y-108026777D01*
X143558599Y-108043253D01*
X143538893Y-108057868D01*
X143517850Y-108070480D01*
X143495671Y-108080970D01*
X143472572Y-108089235D01*
X143448773Y-108095196D01*
X143424505Y-108098796D01*
X143400001Y-108100000D01*
X142749999Y-108100000D01*
X142725495Y-108098796D01*
X142701227Y-108095196D01*
X142677428Y-108089235D01*
X142654329Y-108080970D01*
X142632150Y-108070480D01*
X142611107Y-108057868D01*
X142591401Y-108043253D01*
X142573223Y-108026777D01*
X142556747Y-108008599D01*
X142542132Y-107988893D01*
X142529520Y-107967850D01*
X142519030Y-107945671D01*
X142510765Y-107922572D01*
X142504804Y-107898773D01*
X142501204Y-107874505D01*
X142500000Y-107850001D01*
X142500000Y-106949999D01*
X142501204Y-106925495D01*
X142504804Y-106901227D01*
X142510765Y-106877428D01*
X142519030Y-106854329D01*
X142529520Y-106832150D01*
X142542132Y-106811107D01*
X142556747Y-106791401D01*
X142573223Y-106773223D01*
X142591401Y-106756747D01*
X142611107Y-106742132D01*
X142632150Y-106729520D01*
X142654329Y-106719030D01*
X142677428Y-106710765D01*
X142701227Y-106704804D01*
X142725495Y-106701204D01*
X142749999Y-106700000D01*
X143400001Y-106700000D01*
X143424505Y-106701204D01*
X143424505Y-106701204D01*
G37*
D21*
G04 #@! TD*
G04 #@! TO.P,C3,1*
G04 #@! TO.N,VCC*
X143075000Y-107400000D03*
D20*
G04 #@! TO.N,VCC*
G04 #@! TO.C,C4*
G36*
X148391505Y-86205204D02*
X148415773Y-86208804D01*
X148439572Y-86214765D01*
X148462671Y-86223030D01*
X148484850Y-86233520D01*
X148505893Y-86246132D01*
X148525599Y-86260747D01*
X148543777Y-86277223D01*
X148560253Y-86295401D01*
X148574868Y-86315107D01*
X148587480Y-86336150D01*
X148597970Y-86358329D01*
X148606235Y-86381428D01*
X148612196Y-86405227D01*
X148615796Y-86429495D01*
X148617000Y-86453999D01*
X148617000Y-87104001D01*
X148615796Y-87128505D01*
X148612196Y-87152773D01*
X148606235Y-87176572D01*
X148597970Y-87199671D01*
X148587480Y-87221850D01*
X148574868Y-87242893D01*
X148560253Y-87262599D01*
X148543777Y-87280777D01*
X148525599Y-87297253D01*
X148505893Y-87311868D01*
X148484850Y-87324480D01*
X148462671Y-87334970D01*
X148439572Y-87343235D01*
X148415773Y-87349196D01*
X148391505Y-87352796D01*
X148367001Y-87354000D01*
X147466999Y-87354000D01*
X147442495Y-87352796D01*
X147418227Y-87349196D01*
X147394428Y-87343235D01*
X147371329Y-87334970D01*
X147349150Y-87324480D01*
X147328107Y-87311868D01*
X147308401Y-87297253D01*
X147290223Y-87280777D01*
X147273747Y-87262599D01*
X147259132Y-87242893D01*
X147246520Y-87221850D01*
X147236030Y-87199671D01*
X147227765Y-87176572D01*
X147221804Y-87152773D01*
X147218204Y-87128505D01*
X147217000Y-87104001D01*
X147217000Y-86453999D01*
X147218204Y-86429495D01*
X147221804Y-86405227D01*
X147227765Y-86381428D01*
X147236030Y-86358329D01*
X147246520Y-86336150D01*
X147259132Y-86315107D01*
X147273747Y-86295401D01*
X147290223Y-86277223D01*
X147308401Y-86260747D01*
X147328107Y-86246132D01*
X147349150Y-86233520D01*
X147371329Y-86223030D01*
X147394428Y-86214765D01*
X147418227Y-86208804D01*
X147442495Y-86205204D01*
X147466999Y-86204000D01*
X148367001Y-86204000D01*
X148391505Y-86205204D01*
X148391505Y-86205204D01*
G37*
D21*
G04 #@! TD*
G04 #@! TO.P,C4,2*
G04 #@! TO.N,VCC*
X147917000Y-86779000D03*
D20*
G04 #@! TO.N,GND*
G04 #@! TO.C,C4*
G36*
X148391505Y-88255204D02*
X148415773Y-88258804D01*
X148439572Y-88264765D01*
X148462671Y-88273030D01*
X148484850Y-88283520D01*
X148505893Y-88296132D01*
X148525599Y-88310747D01*
X148543777Y-88327223D01*
X148560253Y-88345401D01*
X148574868Y-88365107D01*
X148587480Y-88386150D01*
X148597970Y-88408329D01*
X148606235Y-88431428D01*
X148612196Y-88455227D01*
X148615796Y-88479495D01*
X148617000Y-88503999D01*
X148617000Y-89154001D01*
X148615796Y-89178505D01*
X148612196Y-89202773D01*
X148606235Y-89226572D01*
X148597970Y-89249671D01*
X148587480Y-89271850D01*
X148574868Y-89292893D01*
X148560253Y-89312599D01*
X148543777Y-89330777D01*
X148525599Y-89347253D01*
X148505893Y-89361868D01*
X148484850Y-89374480D01*
X148462671Y-89384970D01*
X148439572Y-89393235D01*
X148415773Y-89399196D01*
X148391505Y-89402796D01*
X148367001Y-89404000D01*
X147466999Y-89404000D01*
X147442495Y-89402796D01*
X147418227Y-89399196D01*
X147394428Y-89393235D01*
X147371329Y-89384970D01*
X147349150Y-89374480D01*
X147328107Y-89361868D01*
X147308401Y-89347253D01*
X147290223Y-89330777D01*
X147273747Y-89312599D01*
X147259132Y-89292893D01*
X147246520Y-89271850D01*
X147236030Y-89249671D01*
X147227765Y-89226572D01*
X147221804Y-89202773D01*
X147218204Y-89178505D01*
X147217000Y-89154001D01*
X147217000Y-88503999D01*
X147218204Y-88479495D01*
X147221804Y-88455227D01*
X147227765Y-88431428D01*
X147236030Y-88408329D01*
X147246520Y-88386150D01*
X147259132Y-88365107D01*
X147273747Y-88345401D01*
X147290223Y-88327223D01*
X147308401Y-88310747D01*
X147328107Y-88296132D01*
X147349150Y-88283520D01*
X147371329Y-88273030D01*
X147394428Y-88264765D01*
X147418227Y-88258804D01*
X147442495Y-88255204D01*
X147466999Y-88254000D01*
X148367001Y-88254000D01*
X148391505Y-88255204D01*
X148391505Y-88255204D01*
G37*
D21*
G04 #@! TD*
G04 #@! TO.P,C4,1*
G04 #@! TO.N,GND*
X147917000Y-88829000D03*
D22*
G04 #@! TO.P,C5,1*
G04 #@! TO.N,VCC*
X143853000Y-97970000D03*
G04 #@! TO.P,C5,2*
G04 #@! TO.N,GND*
X143853000Y-92370000D03*
G04 #@! TD*
D20*
G04 #@! TO.N,VCC*
G04 #@! TO.C,C6*
G36*
X149915505Y-81778204D02*
X149939773Y-81781804D01*
X149963572Y-81787765D01*
X149986671Y-81796030D01*
X150008850Y-81806520D01*
X150029893Y-81819132D01*
X150049599Y-81833747D01*
X150067777Y-81850223D01*
X150084253Y-81868401D01*
X150098868Y-81888107D01*
X150111480Y-81909150D01*
X150121970Y-81931329D01*
X150130235Y-81954428D01*
X150136196Y-81978227D01*
X150139796Y-82002495D01*
X150141000Y-82026999D01*
X150141000Y-82677001D01*
X150139796Y-82701505D01*
X150136196Y-82725773D01*
X150130235Y-82749572D01*
X150121970Y-82772671D01*
X150111480Y-82794850D01*
X150098868Y-82815893D01*
X150084253Y-82835599D01*
X150067777Y-82853777D01*
X150049599Y-82870253D01*
X150029893Y-82884868D01*
X150008850Y-82897480D01*
X149986671Y-82907970D01*
X149963572Y-82916235D01*
X149939773Y-82922196D01*
X149915505Y-82925796D01*
X149891001Y-82927000D01*
X148990999Y-82927000D01*
X148966495Y-82925796D01*
X148942227Y-82922196D01*
X148918428Y-82916235D01*
X148895329Y-82907970D01*
X148873150Y-82897480D01*
X148852107Y-82884868D01*
X148832401Y-82870253D01*
X148814223Y-82853777D01*
X148797747Y-82835599D01*
X148783132Y-82815893D01*
X148770520Y-82794850D01*
X148760030Y-82772671D01*
X148751765Y-82749572D01*
X148745804Y-82725773D01*
X148742204Y-82701505D01*
X148741000Y-82677001D01*
X148741000Y-82026999D01*
X148742204Y-82002495D01*
X148745804Y-81978227D01*
X148751765Y-81954428D01*
X148760030Y-81931329D01*
X148770520Y-81909150D01*
X148783132Y-81888107D01*
X148797747Y-81868401D01*
X148814223Y-81850223D01*
X148832401Y-81833747D01*
X148852107Y-81819132D01*
X148873150Y-81806520D01*
X148895329Y-81796030D01*
X148918428Y-81787765D01*
X148942227Y-81781804D01*
X148966495Y-81778204D01*
X148990999Y-81777000D01*
X149891001Y-81777000D01*
X149915505Y-81778204D01*
X149915505Y-81778204D01*
G37*
D21*
G04 #@! TD*
G04 #@! TO.P,C6,2*
G04 #@! TO.N,VCC*
X149441000Y-82352000D03*
D20*
G04 #@! TO.N,GND*
G04 #@! TO.C,C6*
G36*
X149915505Y-79728204D02*
X149939773Y-79731804D01*
X149963572Y-79737765D01*
X149986671Y-79746030D01*
X150008850Y-79756520D01*
X150029893Y-79769132D01*
X150049599Y-79783747D01*
X150067777Y-79800223D01*
X150084253Y-79818401D01*
X150098868Y-79838107D01*
X150111480Y-79859150D01*
X150121970Y-79881329D01*
X150130235Y-79904428D01*
X150136196Y-79928227D01*
X150139796Y-79952495D01*
X150141000Y-79976999D01*
X150141000Y-80627001D01*
X150139796Y-80651505D01*
X150136196Y-80675773D01*
X150130235Y-80699572D01*
X150121970Y-80722671D01*
X150111480Y-80744850D01*
X150098868Y-80765893D01*
X150084253Y-80785599D01*
X150067777Y-80803777D01*
X150049599Y-80820253D01*
X150029893Y-80834868D01*
X150008850Y-80847480D01*
X149986671Y-80857970D01*
X149963572Y-80866235D01*
X149939773Y-80872196D01*
X149915505Y-80875796D01*
X149891001Y-80877000D01*
X148990999Y-80877000D01*
X148966495Y-80875796D01*
X148942227Y-80872196D01*
X148918428Y-80866235D01*
X148895329Y-80857970D01*
X148873150Y-80847480D01*
X148852107Y-80834868D01*
X148832401Y-80820253D01*
X148814223Y-80803777D01*
X148797747Y-80785599D01*
X148783132Y-80765893D01*
X148770520Y-80744850D01*
X148760030Y-80722671D01*
X148751765Y-80699572D01*
X148745804Y-80675773D01*
X148742204Y-80651505D01*
X148741000Y-80627001D01*
X148741000Y-79976999D01*
X148742204Y-79952495D01*
X148745804Y-79928227D01*
X148751765Y-79904428D01*
X148760030Y-79881329D01*
X148770520Y-79859150D01*
X148783132Y-79838107D01*
X148797747Y-79818401D01*
X148814223Y-79800223D01*
X148832401Y-79783747D01*
X148852107Y-79769132D01*
X148873150Y-79756520D01*
X148895329Y-79746030D01*
X148918428Y-79737765D01*
X148942227Y-79731804D01*
X148966495Y-79728204D01*
X148990999Y-79727000D01*
X149891001Y-79727000D01*
X149915505Y-79728204D01*
X149915505Y-79728204D01*
G37*
D21*
G04 #@! TD*
G04 #@! TO.P,C6,1*
G04 #@! TO.N,GND*
X149441000Y-80302000D03*
D20*
G04 #@! TO.N,Net-(C7-Pad1)*
G04 #@! TO.C,C7*
G36*
X170834505Y-119326204D02*
X170858773Y-119329804D01*
X170882572Y-119335765D01*
X170905671Y-119344030D01*
X170927850Y-119354520D01*
X170948893Y-119367132D01*
X170968599Y-119381747D01*
X170986777Y-119398223D01*
X171003253Y-119416401D01*
X171017868Y-119436107D01*
X171030480Y-119457150D01*
X171040970Y-119479329D01*
X171049235Y-119502428D01*
X171055196Y-119526227D01*
X171058796Y-119550495D01*
X171060000Y-119574999D01*
X171060000Y-120225001D01*
X171058796Y-120249505D01*
X171055196Y-120273773D01*
X171049235Y-120297572D01*
X171040970Y-120320671D01*
X171030480Y-120342850D01*
X171017868Y-120363893D01*
X171003253Y-120383599D01*
X170986777Y-120401777D01*
X170968599Y-120418253D01*
X170948893Y-120432868D01*
X170927850Y-120445480D01*
X170905671Y-120455970D01*
X170882572Y-120464235D01*
X170858773Y-120470196D01*
X170834505Y-120473796D01*
X170810001Y-120475000D01*
X169909999Y-120475000D01*
X169885495Y-120473796D01*
X169861227Y-120470196D01*
X169837428Y-120464235D01*
X169814329Y-120455970D01*
X169792150Y-120445480D01*
X169771107Y-120432868D01*
X169751401Y-120418253D01*
X169733223Y-120401777D01*
X169716747Y-120383599D01*
X169702132Y-120363893D01*
X169689520Y-120342850D01*
X169679030Y-120320671D01*
X169670765Y-120297572D01*
X169664804Y-120273773D01*
X169661204Y-120249505D01*
X169660000Y-120225001D01*
X169660000Y-119574999D01*
X169661204Y-119550495D01*
X169664804Y-119526227D01*
X169670765Y-119502428D01*
X169679030Y-119479329D01*
X169689520Y-119457150D01*
X169702132Y-119436107D01*
X169716747Y-119416401D01*
X169733223Y-119398223D01*
X169751401Y-119381747D01*
X169771107Y-119367132D01*
X169792150Y-119354520D01*
X169814329Y-119344030D01*
X169837428Y-119335765D01*
X169861227Y-119329804D01*
X169885495Y-119326204D01*
X169909999Y-119325000D01*
X170810001Y-119325000D01*
X170834505Y-119326204D01*
X170834505Y-119326204D01*
G37*
D21*
G04 #@! TD*
G04 #@! TO.P,C7,1*
G04 #@! TO.N,Net-(C7-Pad1)*
X170360000Y-119900000D03*
D20*
G04 #@! TO.N,GND*
G04 #@! TO.C,C7*
G36*
X170834505Y-121376204D02*
X170858773Y-121379804D01*
X170882572Y-121385765D01*
X170905671Y-121394030D01*
X170927850Y-121404520D01*
X170948893Y-121417132D01*
X170968599Y-121431747D01*
X170986777Y-121448223D01*
X171003253Y-121466401D01*
X171017868Y-121486107D01*
X171030480Y-121507150D01*
X171040970Y-121529329D01*
X171049235Y-121552428D01*
X171055196Y-121576227D01*
X171058796Y-121600495D01*
X171060000Y-121624999D01*
X171060000Y-122275001D01*
X171058796Y-122299505D01*
X171055196Y-122323773D01*
X171049235Y-122347572D01*
X171040970Y-122370671D01*
X171030480Y-122392850D01*
X171017868Y-122413893D01*
X171003253Y-122433599D01*
X170986777Y-122451777D01*
X170968599Y-122468253D01*
X170948893Y-122482868D01*
X170927850Y-122495480D01*
X170905671Y-122505970D01*
X170882572Y-122514235D01*
X170858773Y-122520196D01*
X170834505Y-122523796D01*
X170810001Y-122525000D01*
X169909999Y-122525000D01*
X169885495Y-122523796D01*
X169861227Y-122520196D01*
X169837428Y-122514235D01*
X169814329Y-122505970D01*
X169792150Y-122495480D01*
X169771107Y-122482868D01*
X169751401Y-122468253D01*
X169733223Y-122451777D01*
X169716747Y-122433599D01*
X169702132Y-122413893D01*
X169689520Y-122392850D01*
X169679030Y-122370671D01*
X169670765Y-122347572D01*
X169664804Y-122323773D01*
X169661204Y-122299505D01*
X169660000Y-122275001D01*
X169660000Y-121624999D01*
X169661204Y-121600495D01*
X169664804Y-121576227D01*
X169670765Y-121552428D01*
X169679030Y-121529329D01*
X169689520Y-121507150D01*
X169702132Y-121486107D01*
X169716747Y-121466401D01*
X169733223Y-121448223D01*
X169751401Y-121431747D01*
X169771107Y-121417132D01*
X169792150Y-121404520D01*
X169814329Y-121394030D01*
X169837428Y-121385765D01*
X169861227Y-121379804D01*
X169885495Y-121376204D01*
X169909999Y-121375000D01*
X170810001Y-121375000D01*
X170834505Y-121376204D01*
X170834505Y-121376204D01*
G37*
D21*
G04 #@! TD*
G04 #@! TO.P,C7,2*
G04 #@! TO.N,GND*
X170360000Y-121950000D03*
D20*
G04 #@! TO.N,Net-(C8-Pad1)*
G04 #@! TO.C,C8*
G36*
X139882505Y-119370204D02*
X139906773Y-119373804D01*
X139930572Y-119379765D01*
X139953671Y-119388030D01*
X139975850Y-119398520D01*
X139996893Y-119411132D01*
X140016599Y-119425747D01*
X140034777Y-119442223D01*
X140051253Y-119460401D01*
X140065868Y-119480107D01*
X140078480Y-119501150D01*
X140088970Y-119523329D01*
X140097235Y-119546428D01*
X140103196Y-119570227D01*
X140106796Y-119594495D01*
X140108000Y-119618999D01*
X140108000Y-120269001D01*
X140106796Y-120293505D01*
X140103196Y-120317773D01*
X140097235Y-120341572D01*
X140088970Y-120364671D01*
X140078480Y-120386850D01*
X140065868Y-120407893D01*
X140051253Y-120427599D01*
X140034777Y-120445777D01*
X140016599Y-120462253D01*
X139996893Y-120476868D01*
X139975850Y-120489480D01*
X139953671Y-120499970D01*
X139930572Y-120508235D01*
X139906773Y-120514196D01*
X139882505Y-120517796D01*
X139858001Y-120519000D01*
X138957999Y-120519000D01*
X138933495Y-120517796D01*
X138909227Y-120514196D01*
X138885428Y-120508235D01*
X138862329Y-120499970D01*
X138840150Y-120489480D01*
X138819107Y-120476868D01*
X138799401Y-120462253D01*
X138781223Y-120445777D01*
X138764747Y-120427599D01*
X138750132Y-120407893D01*
X138737520Y-120386850D01*
X138727030Y-120364671D01*
X138718765Y-120341572D01*
X138712804Y-120317773D01*
X138709204Y-120293505D01*
X138708000Y-120269001D01*
X138708000Y-119618999D01*
X138709204Y-119594495D01*
X138712804Y-119570227D01*
X138718765Y-119546428D01*
X138727030Y-119523329D01*
X138737520Y-119501150D01*
X138750132Y-119480107D01*
X138764747Y-119460401D01*
X138781223Y-119442223D01*
X138799401Y-119425747D01*
X138819107Y-119411132D01*
X138840150Y-119398520D01*
X138862329Y-119388030D01*
X138885428Y-119379765D01*
X138909227Y-119373804D01*
X138933495Y-119370204D01*
X138957999Y-119369000D01*
X139858001Y-119369000D01*
X139882505Y-119370204D01*
X139882505Y-119370204D01*
G37*
D21*
G04 #@! TD*
G04 #@! TO.P,C8,1*
G04 #@! TO.N,Net-(C8-Pad1)*
X139408000Y-119944000D03*
D20*
G04 #@! TO.N,GND*
G04 #@! TO.C,C8*
G36*
X139882505Y-121420204D02*
X139906773Y-121423804D01*
X139930572Y-121429765D01*
X139953671Y-121438030D01*
X139975850Y-121448520D01*
X139996893Y-121461132D01*
X140016599Y-121475747D01*
X140034777Y-121492223D01*
X140051253Y-121510401D01*
X140065868Y-121530107D01*
X140078480Y-121551150D01*
X140088970Y-121573329D01*
X140097235Y-121596428D01*
X140103196Y-121620227D01*
X140106796Y-121644495D01*
X140108000Y-121668999D01*
X140108000Y-122319001D01*
X140106796Y-122343505D01*
X140103196Y-122367773D01*
X140097235Y-122391572D01*
X140088970Y-122414671D01*
X140078480Y-122436850D01*
X140065868Y-122457893D01*
X140051253Y-122477599D01*
X140034777Y-122495777D01*
X140016599Y-122512253D01*
X139996893Y-122526868D01*
X139975850Y-122539480D01*
X139953671Y-122549970D01*
X139930572Y-122558235D01*
X139906773Y-122564196D01*
X139882505Y-122567796D01*
X139858001Y-122569000D01*
X138957999Y-122569000D01*
X138933495Y-122567796D01*
X138909227Y-122564196D01*
X138885428Y-122558235D01*
X138862329Y-122549970D01*
X138840150Y-122539480D01*
X138819107Y-122526868D01*
X138799401Y-122512253D01*
X138781223Y-122495777D01*
X138764747Y-122477599D01*
X138750132Y-122457893D01*
X138737520Y-122436850D01*
X138727030Y-122414671D01*
X138718765Y-122391572D01*
X138712804Y-122367773D01*
X138709204Y-122343505D01*
X138708000Y-122319001D01*
X138708000Y-121668999D01*
X138709204Y-121644495D01*
X138712804Y-121620227D01*
X138718765Y-121596428D01*
X138727030Y-121573329D01*
X138737520Y-121551150D01*
X138750132Y-121530107D01*
X138764747Y-121510401D01*
X138781223Y-121492223D01*
X138799401Y-121475747D01*
X138819107Y-121461132D01*
X138840150Y-121448520D01*
X138862329Y-121438030D01*
X138885428Y-121429765D01*
X138909227Y-121423804D01*
X138933495Y-121420204D01*
X138957999Y-121419000D01*
X139858001Y-121419000D01*
X139882505Y-121420204D01*
X139882505Y-121420204D01*
G37*
D21*
G04 #@! TD*
G04 #@! TO.P,C8,2*
G04 #@! TO.N,GND*
X139408000Y-121994000D03*
D20*
G04 #@! TO.N,Net-(C9-Pad1)*
G04 #@! TO.C,C9*
G36*
X139882505Y-79365204D02*
X139906773Y-79368804D01*
X139930572Y-79374765D01*
X139953671Y-79383030D01*
X139975850Y-79393520D01*
X139996893Y-79406132D01*
X140016599Y-79420747D01*
X140034777Y-79437223D01*
X140051253Y-79455401D01*
X140065868Y-79475107D01*
X140078480Y-79496150D01*
X140088970Y-79518329D01*
X140097235Y-79541428D01*
X140103196Y-79565227D01*
X140106796Y-79589495D01*
X140108000Y-79613999D01*
X140108000Y-80264001D01*
X140106796Y-80288505D01*
X140103196Y-80312773D01*
X140097235Y-80336572D01*
X140088970Y-80359671D01*
X140078480Y-80381850D01*
X140065868Y-80402893D01*
X140051253Y-80422599D01*
X140034777Y-80440777D01*
X140016599Y-80457253D01*
X139996893Y-80471868D01*
X139975850Y-80484480D01*
X139953671Y-80494970D01*
X139930572Y-80503235D01*
X139906773Y-80509196D01*
X139882505Y-80512796D01*
X139858001Y-80514000D01*
X138957999Y-80514000D01*
X138933495Y-80512796D01*
X138909227Y-80509196D01*
X138885428Y-80503235D01*
X138862329Y-80494970D01*
X138840150Y-80484480D01*
X138819107Y-80471868D01*
X138799401Y-80457253D01*
X138781223Y-80440777D01*
X138764747Y-80422599D01*
X138750132Y-80402893D01*
X138737520Y-80381850D01*
X138727030Y-80359671D01*
X138718765Y-80336572D01*
X138712804Y-80312773D01*
X138709204Y-80288505D01*
X138708000Y-80264001D01*
X138708000Y-79613999D01*
X138709204Y-79589495D01*
X138712804Y-79565227D01*
X138718765Y-79541428D01*
X138727030Y-79518329D01*
X138737520Y-79496150D01*
X138750132Y-79475107D01*
X138764747Y-79455401D01*
X138781223Y-79437223D01*
X138799401Y-79420747D01*
X138819107Y-79406132D01*
X138840150Y-79393520D01*
X138862329Y-79383030D01*
X138885428Y-79374765D01*
X138909227Y-79368804D01*
X138933495Y-79365204D01*
X138957999Y-79364000D01*
X139858001Y-79364000D01*
X139882505Y-79365204D01*
X139882505Y-79365204D01*
G37*
D21*
G04 #@! TD*
G04 #@! TO.P,C9,1*
G04 #@! TO.N,Net-(C9-Pad1)*
X139408000Y-79939000D03*
D20*
G04 #@! TO.N,GND*
G04 #@! TO.C,C9*
G36*
X139882505Y-77315204D02*
X139906773Y-77318804D01*
X139930572Y-77324765D01*
X139953671Y-77333030D01*
X139975850Y-77343520D01*
X139996893Y-77356132D01*
X140016599Y-77370747D01*
X140034777Y-77387223D01*
X140051253Y-77405401D01*
X140065868Y-77425107D01*
X140078480Y-77446150D01*
X140088970Y-77468329D01*
X140097235Y-77491428D01*
X140103196Y-77515227D01*
X140106796Y-77539495D01*
X140108000Y-77563999D01*
X140108000Y-78214001D01*
X140106796Y-78238505D01*
X140103196Y-78262773D01*
X140097235Y-78286572D01*
X140088970Y-78309671D01*
X140078480Y-78331850D01*
X140065868Y-78352893D01*
X140051253Y-78372599D01*
X140034777Y-78390777D01*
X140016599Y-78407253D01*
X139996893Y-78421868D01*
X139975850Y-78434480D01*
X139953671Y-78444970D01*
X139930572Y-78453235D01*
X139906773Y-78459196D01*
X139882505Y-78462796D01*
X139858001Y-78464000D01*
X138957999Y-78464000D01*
X138933495Y-78462796D01*
X138909227Y-78459196D01*
X138885428Y-78453235D01*
X138862329Y-78444970D01*
X138840150Y-78434480D01*
X138819107Y-78421868D01*
X138799401Y-78407253D01*
X138781223Y-78390777D01*
X138764747Y-78372599D01*
X138750132Y-78352893D01*
X138737520Y-78331850D01*
X138727030Y-78309671D01*
X138718765Y-78286572D01*
X138712804Y-78262773D01*
X138709204Y-78238505D01*
X138708000Y-78214001D01*
X138708000Y-77563999D01*
X138709204Y-77539495D01*
X138712804Y-77515227D01*
X138718765Y-77491428D01*
X138727030Y-77468329D01*
X138737520Y-77446150D01*
X138750132Y-77425107D01*
X138764747Y-77405401D01*
X138781223Y-77387223D01*
X138799401Y-77370747D01*
X138819107Y-77356132D01*
X138840150Y-77343520D01*
X138862329Y-77333030D01*
X138885428Y-77324765D01*
X138909227Y-77318804D01*
X138933495Y-77315204D01*
X138957999Y-77314000D01*
X139858001Y-77314000D01*
X139882505Y-77315204D01*
X139882505Y-77315204D01*
G37*
D21*
G04 #@! TD*
G04 #@! TO.P,C9,2*
G04 #@! TO.N,GND*
X139408000Y-77889000D03*
D20*
G04 #@! TO.N,Net-(C10-Pad1)*
G04 #@! TO.C,C10*
G36*
X170997505Y-77868204D02*
X171021773Y-77871804D01*
X171045572Y-77877765D01*
X171068671Y-77886030D01*
X171090850Y-77896520D01*
X171111893Y-77909132D01*
X171131599Y-77923747D01*
X171149777Y-77940223D01*
X171166253Y-77958401D01*
X171180868Y-77978107D01*
X171193480Y-77999150D01*
X171203970Y-78021329D01*
X171212235Y-78044428D01*
X171218196Y-78068227D01*
X171221796Y-78092495D01*
X171223000Y-78116999D01*
X171223000Y-78767001D01*
X171221796Y-78791505D01*
X171218196Y-78815773D01*
X171212235Y-78839572D01*
X171203970Y-78862671D01*
X171193480Y-78884850D01*
X171180868Y-78905893D01*
X171166253Y-78925599D01*
X171149777Y-78943777D01*
X171131599Y-78960253D01*
X171111893Y-78974868D01*
X171090850Y-78987480D01*
X171068671Y-78997970D01*
X171045572Y-79006235D01*
X171021773Y-79012196D01*
X170997505Y-79015796D01*
X170973001Y-79017000D01*
X170072999Y-79017000D01*
X170048495Y-79015796D01*
X170024227Y-79012196D01*
X170000428Y-79006235D01*
X169977329Y-78997970D01*
X169955150Y-78987480D01*
X169934107Y-78974868D01*
X169914401Y-78960253D01*
X169896223Y-78943777D01*
X169879747Y-78925599D01*
X169865132Y-78905893D01*
X169852520Y-78884850D01*
X169842030Y-78862671D01*
X169833765Y-78839572D01*
X169827804Y-78815773D01*
X169824204Y-78791505D01*
X169823000Y-78767001D01*
X169823000Y-78116999D01*
X169824204Y-78092495D01*
X169827804Y-78068227D01*
X169833765Y-78044428D01*
X169842030Y-78021329D01*
X169852520Y-77999150D01*
X169865132Y-77978107D01*
X169879747Y-77958401D01*
X169896223Y-77940223D01*
X169914401Y-77923747D01*
X169934107Y-77909132D01*
X169955150Y-77896520D01*
X169977329Y-77886030D01*
X170000428Y-77877765D01*
X170024227Y-77871804D01*
X170048495Y-77868204D01*
X170072999Y-77867000D01*
X170973001Y-77867000D01*
X170997505Y-77868204D01*
X170997505Y-77868204D01*
G37*
D21*
G04 #@! TD*
G04 #@! TO.P,C10,1*
G04 #@! TO.N,Net-(C10-Pad1)*
X170523000Y-78442000D03*
D20*
G04 #@! TO.N,GND*
G04 #@! TO.C,C10*
G36*
X170997505Y-75818204D02*
X171021773Y-75821804D01*
X171045572Y-75827765D01*
X171068671Y-75836030D01*
X171090850Y-75846520D01*
X171111893Y-75859132D01*
X171131599Y-75873747D01*
X171149777Y-75890223D01*
X171166253Y-75908401D01*
X171180868Y-75928107D01*
X171193480Y-75949150D01*
X171203970Y-75971329D01*
X171212235Y-75994428D01*
X171218196Y-76018227D01*
X171221796Y-76042495D01*
X171223000Y-76066999D01*
X171223000Y-76717001D01*
X171221796Y-76741505D01*
X171218196Y-76765773D01*
X171212235Y-76789572D01*
X171203970Y-76812671D01*
X171193480Y-76834850D01*
X171180868Y-76855893D01*
X171166253Y-76875599D01*
X171149777Y-76893777D01*
X171131599Y-76910253D01*
X171111893Y-76924868D01*
X171090850Y-76937480D01*
X171068671Y-76947970D01*
X171045572Y-76956235D01*
X171021773Y-76962196D01*
X170997505Y-76965796D01*
X170973001Y-76967000D01*
X170072999Y-76967000D01*
X170048495Y-76965796D01*
X170024227Y-76962196D01*
X170000428Y-76956235D01*
X169977329Y-76947970D01*
X169955150Y-76937480D01*
X169934107Y-76924868D01*
X169914401Y-76910253D01*
X169896223Y-76893777D01*
X169879747Y-76875599D01*
X169865132Y-76855893D01*
X169852520Y-76834850D01*
X169842030Y-76812671D01*
X169833765Y-76789572D01*
X169827804Y-76765773D01*
X169824204Y-76741505D01*
X169823000Y-76717001D01*
X169823000Y-76066999D01*
X169824204Y-76042495D01*
X169827804Y-76018227D01*
X169833765Y-75994428D01*
X169842030Y-75971329D01*
X169852520Y-75949150D01*
X169865132Y-75928107D01*
X169879747Y-75908401D01*
X169896223Y-75890223D01*
X169914401Y-75873747D01*
X169934107Y-75859132D01*
X169955150Y-75846520D01*
X169977329Y-75836030D01*
X170000428Y-75827765D01*
X170024227Y-75821804D01*
X170048495Y-75818204D01*
X170072999Y-75817000D01*
X170973001Y-75817000D01*
X170997505Y-75818204D01*
X170997505Y-75818204D01*
G37*
D21*
G04 #@! TD*
G04 #@! TO.P,C10,2*
G04 #@! TO.N,GND*
X170523000Y-76392000D03*
D23*
G04 #@! TO.P,MH1,1*
G04 #@! TO.N,Net-(C7-Pad1)*
X176590990Y-118409010D03*
X175000000Y-117750000D03*
X173409010Y-118409010D03*
X172750000Y-120000000D03*
X173409010Y-121590990D03*
X175000000Y-122250000D03*
X176590990Y-121590990D03*
X177250000Y-120000000D03*
D24*
X175000000Y-120000000D03*
G04 #@! TD*
G04 #@! TO.P,MH2,1*
G04 #@! TO.N,Net-(C8-Pad1)*
X135000000Y-120000000D03*
D23*
X137250000Y-120000000D03*
X136590990Y-121590990D03*
X135000000Y-122250000D03*
X133409010Y-121590990D03*
X132750000Y-120000000D03*
X133409010Y-118409010D03*
X135000000Y-117750000D03*
X136590990Y-118409010D03*
G04 #@! TD*
G04 #@! TO.P,MH3,1*
G04 #@! TO.N,Net-(C9-Pad1)*
X136590990Y-78409010D03*
X135000000Y-77750000D03*
X133409010Y-78409010D03*
X132750000Y-80000000D03*
X133409010Y-81590990D03*
X135000000Y-82250000D03*
X136590990Y-81590990D03*
X137250000Y-80000000D03*
D24*
X135000000Y-80000000D03*
G04 #@! TD*
G04 #@! TO.P,MH4,1*
G04 #@! TO.N,Net-(C10-Pad1)*
X175000000Y-80000000D03*
D23*
X177250000Y-80000000D03*
X176590990Y-81590990D03*
X175000000Y-82250000D03*
X173409010Y-81590990D03*
X172750000Y-80000000D03*
X173409010Y-78409010D03*
X175000000Y-77750000D03*
X176590990Y-78409010D03*
G04 #@! TD*
D25*
G04 #@! TO.P,U1,1*
G04 #@! TO.N,/MOSI*
X158460000Y-110410000D03*
G04 #@! TO.P,U1,2*
G04 #@! TO.N,/MISO*
X158460000Y-109140000D03*
G04 #@! TO.P,U1,3*
G04 #@! TO.N,/SCK*
X158460000Y-107870000D03*
G04 #@! TO.P,U1,4*
G04 #@! TO.N,/~CS~*
X158460000Y-106600000D03*
G04 #@! TO.P,U1,5*
G04 #@! TO.N,VCC*
X158460000Y-105330000D03*
G04 #@! TO.P,U1,6*
G04 #@! TO.N,GND*
X158460000Y-104060000D03*
G04 #@! TO.P,U1,7*
G04 #@! TO.N,/~PWM~*
X158460000Y-102790000D03*
G04 #@! TO.P,U1,8*
G04 #@! TO.N,/PWM*
X158460000Y-101520000D03*
G04 #@! TO.P,U1,9*
G04 #@! TO.N,/~INT~*
X158460000Y-100250000D03*
G04 #@! TO.P,U1,10*
G04 #@! TO.N,/~RESET~*
X158460000Y-98980000D03*
G04 #@! TO.P,U1,11*
G04 #@! TO.N,/LO_DRV*
X149060000Y-98980000D03*
G04 #@! TO.P,U1,12*
G04 #@! TO.N,/HI_DRV*
X149060000Y-100250000D03*
G04 #@! TO.P,U1,13*
G04 #@! TO.N,/~BOOST_PWM_EN~*
X149060000Y-101520000D03*
G04 #@! TO.P,U1,14*
G04 #@! TO.N,/~BUCK_PWM_EN~*
X149060000Y-102790000D03*
G04 #@! TO.P,U1,15*
G04 #@! TO.N,VCC*
X149060000Y-104060000D03*
G04 #@! TO.P,U1,16*
G04 #@! TO.N,GND*
X149060000Y-105330000D03*
G04 #@! TO.P,U1,17*
G04 #@! TO.N,/GPIO1*
X149060000Y-106600000D03*
G04 #@! TO.P,U1,18*
G04 #@! TO.N,/SCL*
X149060000Y-107870000D03*
G04 #@! TO.P,U1,19*
G04 #@! TO.N,/GPIO0*
X149060000Y-109140000D03*
G04 #@! TO.P,U1,20*
G04 #@! TO.N,/SDA*
X149060000Y-110410000D03*
G04 #@! TD*
D26*
G04 #@! TO.P,U2,1*
G04 #@! TO.N,VCC*
X163632000Y-100504000D03*
G04 #@! TO.P,U2,2*
G04 #@! TO.N,/~INT~*
X163632000Y-101774000D03*
G04 #@! TO.P,U2,3*
G04 #@! TO.N,/T24_IO*
X163632000Y-103044000D03*
G04 #@! TO.P,U2,4*
G04 #@! TO.N,/~RESET~*
X163632000Y-104314000D03*
G04 #@! TO.P,U2,5*
G04 #@! TO.N,/T24_PWM*
X163632000Y-105584000D03*
G04 #@! TO.P,U2,6*
G04 #@! TO.N,/~CS~*
X163632000Y-106854000D03*
G04 #@! TO.P,U2,7*
G04 #@! TO.N,/MOSI*
X163632000Y-108124000D03*
G04 #@! TO.P,U2,8*
G04 #@! TO.N,/MISO*
X169032000Y-108124000D03*
G04 #@! TO.P,U2,9*
G04 #@! TO.N,/SCK*
X169032000Y-106854000D03*
G04 #@! TO.P,U2,10*
G04 #@! TO.N,/GPIO1*
X169032000Y-105584000D03*
G04 #@! TO.P,U2,11*
G04 #@! TO.N,/SCL*
X169032000Y-104314000D03*
G04 #@! TO.P,U2,12*
G04 #@! TO.N,/GPIO0*
X169032000Y-103044000D03*
G04 #@! TO.P,U2,13*
G04 #@! TO.N,/SDA*
X169032000Y-101774000D03*
G04 #@! TO.P,U2,14*
G04 #@! TO.N,GND*
X169032000Y-100504000D03*
G04 #@! TD*
D27*
G04 #@! TO.P,U5,1*
G04 #@! TO.N,VCC*
X151375000Y-82125000D03*
G04 #@! TO.P,U5,2*
G04 #@! TO.N,/BUCK_HI*
X152645000Y-82125000D03*
G04 #@! TO.P,U5,3*
G04 #@! TO.N,/BUCK_LO*
X153915000Y-82125000D03*
G04 #@! TO.P,U5,4*
G04 #@! TO.N,VCC*
X155185000Y-82125000D03*
G04 #@! TO.P,U5,5*
G04 #@! TO.N,GND*
X156455000Y-82125000D03*
G04 #@! TO.P,U5,6*
G04 #@! TO.N,/BOOST_HI*
X157725000Y-82125000D03*
G04 #@! TO.P,U5,7*
G04 #@! TO.N,/BOOST_LO*
X158995000Y-82125000D03*
G04 #@! TO.P,U5,8*
G04 #@! TO.N,GND*
X160265000Y-82125000D03*
G04 #@! TO.P,U5,9*
G04 #@! TO.N,/BOOST_LO-*
X160265000Y-76725000D03*
G04 #@! TO.P,U5,10*
G04 #@! TO.N,/BOOST_LO+*
X158995000Y-76725000D03*
G04 #@! TO.P,U5,11*
G04 #@! TO.N,/BOOST_HI+*
X157725000Y-76725000D03*
G04 #@! TO.P,U5,12*
G04 #@! TO.N,/BOOST_HI-*
X156455000Y-76725000D03*
G04 #@! TO.P,U5,13*
G04 #@! TO.N,/BUCK_LO-*
X155185000Y-76725000D03*
G04 #@! TO.P,U5,14*
G04 #@! TO.N,/BUCK_LO+*
X153915000Y-76725000D03*
G04 #@! TO.P,U5,15*
G04 #@! TO.N,/BUCK_HI+*
X152645000Y-76725000D03*
G04 #@! TO.P,U5,16*
G04 #@! TO.N,/BUCK_HI-*
X151375000Y-76725000D03*
G04 #@! TD*
D28*
G04 #@! TO.N,GND*
X161535000Y-94125000D03*
X156555009Y-82125000D03*
X139535000Y-100250000D03*
X149036598Y-105229991D03*
X143853000Y-92370000D03*
X144733000Y-104060000D03*
X163538000Y-96939000D03*
X147917000Y-88829000D03*
X149441000Y-80302000D03*
X139408000Y-77889000D03*
X170508000Y-76392000D03*
X160265000Y-82125000D03*
X145125000Y-107400000D03*
X139408000Y-121994000D03*
X170360000Y-121950000D03*
X145000000Y-117500000D03*
X143000000Y-117500000D03*
X141000000Y-117525000D03*
X139000000Y-117525000D03*
X160296318Y-103760783D03*
X169032000Y-100504000D03*
X163904000Y-87069000D03*
G04 #@! TO.N,VCC*
X151375000Y-82125000D03*
X155104989Y-82125000D03*
X150205011Y-84725000D03*
X141440000Y-103425000D03*
X149083402Y-104160009D03*
X163632000Y-100504000D03*
X159172824Y-105476580D03*
X143853000Y-97970000D03*
X146783000Y-104060000D03*
X149060000Y-114483000D03*
X151346000Y-114483000D03*
X165316000Y-113975000D03*
X155029000Y-112306000D03*
X161506000Y-96939000D03*
X155274000Y-96694000D03*
X167348000Y-113975000D03*
X143075000Y-107400000D03*
X170000000Y-80955000D03*
G04 #@! TO.N,/~CS~*
X161627574Y-105164261D03*
X160177562Y-105310272D03*
G04 #@! TO.N,/BUCK_LO-*
X145616000Y-86035000D03*
G04 #@! TO.N,/BUCK_LO+*
X143584000Y-86035000D03*
G04 #@! TO.N,/BUCK_HI-*
X141552000Y-86035000D03*
G04 #@! TO.N,/BUCK_HI+*
X139520000Y-86035000D03*
G04 #@! TO.N,/BOOST_HI+*
X163904000Y-83005000D03*
G04 #@! TO.N,/BOOST_HI-*
X165428000Y-85536000D03*
G04 #@! TO.N,/BOOST_LO+*
X167968000Y-85019000D03*
G04 #@! TO.N,/BOOST_LO-*
X170000000Y-85019000D03*
G04 #@! TO.N,/SDA*
X147028000Y-108124000D03*
X168809423Y-101997904D03*
G04 #@! TO.N,/SCL*
X146750020Y-106798331D03*
X167673306Y-104362658D03*
G04 #@! TO.N,/LO_DRV*
X156455000Y-84725000D03*
X159034293Y-94129224D03*
X149060000Y-98345000D03*
G04 #@! TO.N,/HI_DRV*
X153915000Y-84725000D03*
X156167340Y-94412660D03*
X150965000Y-97075000D03*
G04 #@! TO.N,/BUCK_HI*
X152645000Y-84725000D03*
X152645000Y-94125000D03*
G04 #@! TO.N,/BUCK_LO*
X155185000Y-84725000D03*
X155287660Y-93687650D03*
G04 #@! TO.N,/BOOST_HI*
X157725000Y-84725000D03*
X157950000Y-91360000D03*
G04 #@! TO.N,/BOOST_LO*
X160265000Y-94125000D03*
X160265000Y-84725000D03*
G04 #@! TO.N,/SDA+*
X141100000Y-113600000D03*
G04 #@! TO.N,/SDA-*
X139050000Y-113600000D03*
G04 #@! TO.N,/SCL+*
X142875000Y-113600000D03*
G04 #@! TO.N,/SCL-*
X144925000Y-113600000D03*
G04 #@! TD*
D29*
G04 #@! TO.N,GND*
X139805000Y-100520000D02*
X139535000Y-100250000D01*
X139805000Y-101275000D02*
X139805000Y-100520000D01*
X158460000Y-104060000D02*
X159997101Y-104060000D01*
X159997101Y-104060000D02*
X160296318Y-103760783D01*
G04 #@! TO.N,VCC*
X141805000Y-102075000D02*
X141805000Y-101275000D01*
X141729999Y-102150001D02*
X141805000Y-102075000D01*
X140805000Y-102075000D02*
X140880001Y-102150001D01*
X140805000Y-101275000D02*
X140805000Y-102075000D01*
X140880001Y-102150001D02*
X141440000Y-102150001D01*
X141440000Y-102150001D02*
X141729999Y-102150001D01*
X141440000Y-103425000D02*
X141440000Y-102150001D01*
X158606580Y-105476580D02*
X158607139Y-105476580D01*
X158607139Y-105476580D02*
X159172824Y-105476580D01*
X158460000Y-105330000D02*
X158606580Y-105476580D01*
X146783000Y-104060000D02*
X149060000Y-104060000D01*
X163538000Y-100410000D02*
X163632000Y-100504000D01*
X163538000Y-98989000D02*
X163538000Y-100410000D01*
X149971000Y-84725000D02*
X150205011Y-84725000D01*
X147917000Y-86779000D02*
X149971000Y-84725000D01*
X151148000Y-82352000D02*
X151375000Y-82125000D01*
X149441000Y-82352000D02*
X151148000Y-82352000D01*
X150205011Y-83116011D02*
X149441000Y-82352000D01*
X150205011Y-84725000D02*
X150205011Y-83116011D01*
X141805000Y-103790000D02*
X141440000Y-103425000D01*
X141805000Y-105575000D02*
X141805000Y-103790000D01*
X142200000Y-106525000D02*
X143075000Y-107400000D01*
X141805000Y-106130000D02*
X143075000Y-107400000D01*
X141805000Y-105575000D02*
X141805000Y-106130000D01*
G04 #@! TO.N,Net-(C7-Pad1)*
X172676000Y-119926000D02*
X172750000Y-120000000D01*
X170396000Y-119926000D02*
X172676000Y-119926000D01*
G04 #@! TO.N,Net-(C8-Pad1)*
X135056000Y-119944000D02*
X135000000Y-120000000D01*
X139408000Y-119944000D02*
X135056000Y-119944000D01*
G04 #@! TO.N,Net-(C9-Pad1)*
X135061000Y-79939000D02*
X135000000Y-80000000D01*
X139408000Y-79939000D02*
X135061000Y-79939000D01*
G04 #@! TO.N,Net-(C10-Pad1)*
X174934000Y-80066000D02*
X175000000Y-80000000D01*
X175000000Y-80000000D02*
X174948000Y-79948000D01*
X172029000Y-79948000D02*
X170523000Y-78442000D01*
X174948000Y-79948000D02*
X172029000Y-79948000D01*
G04 #@! TO.N,/MOSI*
X163632000Y-108124000D02*
X163632000Y-108674000D01*
X161896000Y-110410000D02*
X158460000Y-110410000D01*
X163632000Y-108674000D02*
X161896000Y-110410000D01*
X159135000Y-110410000D02*
X158460000Y-110410000D01*
X162620000Y-113895000D02*
X159135000Y-110410000D01*
X162620000Y-120000000D02*
X162620000Y-113895000D01*
G04 #@! TO.N,/MISO*
X159135000Y-109140000D02*
X158460000Y-109140000D01*
X168032000Y-108124000D02*
X167406999Y-107498999D01*
X159764999Y-108283999D02*
X159764999Y-108510001D01*
X169032000Y-108124000D02*
X168032000Y-108124000D01*
X160549999Y-107498999D02*
X159764999Y-108283999D01*
X167406999Y-107498999D02*
X160549999Y-107498999D01*
X159764999Y-108510001D02*
X159135000Y-109140000D01*
X157785000Y-109140000D02*
X158460000Y-109140000D01*
X157159999Y-109765001D02*
X157785000Y-109140000D01*
X157159999Y-117079999D02*
X157159999Y-109765001D01*
X160080000Y-120000000D02*
X157159999Y-117079999D01*
G04 #@! TO.N,/SCK*
X157785000Y-107870000D02*
X158460000Y-107870000D01*
X156690001Y-108964999D02*
X157785000Y-107870000D01*
X157540000Y-120000000D02*
X156690001Y-119150001D01*
X156690001Y-119150001D02*
X156690001Y-108964999D01*
X160902572Y-104816259D02*
X160902572Y-106102428D01*
X167406999Y-106228999D02*
X162690113Y-106228999D01*
X161975576Y-104439259D02*
X161279572Y-104439259D01*
X161279572Y-104439259D02*
X160902572Y-104816259D01*
X160902572Y-106102428D02*
X159135000Y-107870000D01*
X162359358Y-104823041D02*
X161975576Y-104439259D01*
X169032000Y-106854000D02*
X168032000Y-106854000D01*
X162690113Y-106228999D02*
X162359358Y-105898244D01*
X162359358Y-105898244D02*
X162359358Y-104823041D01*
X168032000Y-106854000D02*
X167406999Y-106228999D01*
X159135000Y-107870000D02*
X158460000Y-107870000D01*
G04 #@! TO.N,/~CS~*
X155029000Y-115206000D02*
X153839032Y-116395968D01*
X156426000Y-106600000D02*
X158460000Y-106600000D01*
X153839032Y-109186968D02*
X156426000Y-106600000D01*
X155029000Y-114356000D02*
X155029000Y-115206000D01*
X153839032Y-117636951D02*
X153839032Y-116170000D01*
X155000000Y-118797919D02*
X153839032Y-117636951D01*
X155000000Y-120000000D02*
X155000000Y-118797919D01*
X153839032Y-116395968D02*
X153839032Y-116170000D01*
X153839032Y-116170000D02*
X153839032Y-109186968D01*
X162632000Y-106854000D02*
X161627574Y-105849574D01*
X159135000Y-106600000D02*
X160177562Y-105557438D01*
X163632000Y-106854000D02*
X162632000Y-106854000D01*
X160177562Y-105557438D02*
X160177562Y-105310272D01*
X161627574Y-105729946D02*
X161627574Y-105164261D01*
X161627574Y-105849574D02*
X161627574Y-105729946D01*
X158460000Y-106600000D02*
X159135000Y-106600000D01*
G04 #@! TO.N,/~INT~*
X161108000Y-100250000D02*
X158460000Y-100250000D01*
X162632000Y-101774000D02*
X161108000Y-100250000D01*
X161108000Y-100062000D02*
X161108000Y-100250000D01*
X161506000Y-99664000D02*
X161108000Y-100062000D01*
X161506000Y-98989000D02*
X161506000Y-99664000D01*
X162632000Y-101774000D02*
X163632000Y-101774000D01*
X162630587Y-101774000D02*
X162632000Y-101774000D01*
X153309999Y-119150001D02*
X153309999Y-107790001D01*
X153309999Y-107790001D02*
X156414999Y-104685001D01*
X156414999Y-104685001D02*
X159735511Y-104685001D01*
X162106988Y-102975432D02*
X162106988Y-102297599D01*
X162106988Y-102297599D02*
X162630587Y-101774000D01*
X152460000Y-120000000D02*
X153309999Y-119150001D01*
X159735511Y-104685001D02*
X159835241Y-104585271D01*
X160497149Y-104585271D02*
X162106988Y-102975432D01*
X159835241Y-104585271D02*
X160497149Y-104585271D01*
G04 #@! TO.N,/~RESET~*
X157235000Y-98430000D02*
X157785000Y-98980000D01*
X157235000Y-97933000D02*
X157235000Y-98430000D01*
X157324000Y-97844000D02*
X157235000Y-97933000D01*
X157324000Y-96694000D02*
X157324000Y-97844000D01*
X164622003Y-102418999D02*
X164707001Y-102334001D01*
X164551990Y-98088990D02*
X160576010Y-98088990D01*
X164707001Y-99943999D02*
X164563010Y-99800008D01*
X162556999Y-103688999D02*
X162556999Y-102483999D01*
X164707001Y-102334001D02*
X164707001Y-99943999D01*
X163182000Y-104314000D02*
X162556999Y-103688999D01*
X162556999Y-102483999D02*
X162621999Y-102418999D01*
X164563010Y-98100010D02*
X164551990Y-98088990D01*
X163632000Y-104314000D02*
X163182000Y-104314000D01*
X164563010Y-99800008D02*
X164563010Y-98100010D01*
X159685000Y-98980000D02*
X158460000Y-98980000D01*
X160576010Y-98088990D02*
X159685000Y-98980000D01*
X162621999Y-102418999D02*
X164622003Y-102418999D01*
X149920000Y-120000000D02*
X152821021Y-117098979D01*
X152821021Y-117098979D02*
X152821021Y-105068979D01*
X154474999Y-103415001D02*
X159582660Y-103415001D01*
X159760001Y-100930001D02*
X159705001Y-100875001D01*
X157159999Y-99605001D02*
X157785000Y-98980000D01*
X152821021Y-105068979D02*
X154474999Y-103415001D01*
X157785000Y-98980000D02*
X158460000Y-98980000D01*
X157159999Y-100810001D02*
X157159999Y-99605001D01*
X157224999Y-100875001D02*
X157159999Y-100810001D01*
X159705001Y-100875001D02*
X157224999Y-100875001D01*
X159760001Y-103237660D02*
X159760001Y-100930001D01*
X159582660Y-103415001D02*
X159760001Y-103237660D01*
G04 #@! TO.N,/PWM*
X153915000Y-93450000D02*
X153915000Y-94125000D01*
X161535000Y-85830000D02*
X153915000Y-93450000D01*
X161535000Y-84725000D02*
X161535000Y-85830000D01*
X158460000Y-101520000D02*
X157233587Y-101520000D01*
X153915000Y-98201413D02*
X153915000Y-94125000D01*
X157233587Y-101520000D02*
X153915000Y-98201413D01*
D30*
G04 #@! TO.N,/BUCK_LO-*
X155185000Y-76725000D02*
X155185000Y-77175000D01*
X148184978Y-79567555D02*
X148184978Y-84745022D01*
X155185000Y-77175000D02*
X153305022Y-79054978D01*
X148697555Y-79054978D02*
X148184978Y-79567555D01*
X135230000Y-97700000D02*
X135000000Y-97700000D01*
X153305022Y-79054978D02*
X148697555Y-79054978D01*
D29*
X145616000Y-86035000D02*
X145616000Y-86044000D01*
X145616000Y-86044000D02*
X146124000Y-86552000D01*
X146239372Y-86658372D02*
X145616000Y-86035000D01*
X146271628Y-86658372D02*
X146239372Y-86658372D01*
D30*
X148184978Y-84745022D02*
X146632000Y-86298000D01*
D29*
X146632000Y-86298000D02*
X146271628Y-86658372D01*
D30*
X146632000Y-86298000D02*
X135230000Y-97700000D01*
G04 #@! TO.N,/BUCK_LO+*
X148511155Y-78604967D02*
X147734967Y-79381155D01*
X153915000Y-76725000D02*
X153915000Y-77175000D01*
X147734967Y-79381155D02*
X147734967Y-82655033D01*
X152485033Y-78604967D02*
X148511155Y-78604967D01*
X135230000Y-95160000D02*
X135000000Y-95160000D01*
X153915000Y-77175000D02*
X152485033Y-78604967D01*
D29*
X143829000Y-86035000D02*
X144092000Y-86298000D01*
X143584000Y-86035000D02*
X143829000Y-86035000D01*
D30*
X144092000Y-86298000D02*
X135230000Y-95160000D01*
X147734967Y-82655033D02*
X144092000Y-86298000D01*
G04 #@! TO.N,/BUCK_HI-*
X135230000Y-92620000D02*
X135000000Y-92620000D01*
X151375000Y-76725000D02*
X149825422Y-76725000D01*
X147334956Y-79215466D02*
X147334956Y-80515044D01*
X149825422Y-76725000D02*
X147334956Y-79215466D01*
D29*
X141552000Y-86298000D02*
X141298000Y-86552000D01*
D30*
X141298000Y-86552000D02*
X135230000Y-92620000D01*
D29*
X141552000Y-86035000D02*
X141552000Y-86298000D01*
D30*
X147334956Y-80515044D02*
X141298000Y-86552000D01*
G04 #@! TO.N,/BUCK_HI+*
X152645000Y-76275000D02*
X151994999Y-75624999D01*
X135230000Y-90080000D02*
X135000000Y-90080000D01*
X152645000Y-76725000D02*
X152645000Y-76275000D01*
X151994999Y-75624999D02*
X149685001Y-75624999D01*
D29*
X139275000Y-86035000D02*
X139012000Y-86298000D01*
X139520000Y-86035000D02*
X139275000Y-86035000D01*
D30*
X139012000Y-86298000D02*
X135230000Y-90080000D01*
X149685001Y-75624999D02*
X139012000Y-86298000D01*
G04 #@! TO.N,/BOOST_HI+*
X157725000Y-76725000D02*
X157725000Y-77175000D01*
D29*
X163555000Y-83005000D02*
X163396000Y-82846000D01*
X163904000Y-83005000D02*
X163555000Y-83005000D01*
D30*
X157725000Y-77175000D02*
X163396000Y-82846000D01*
X163396000Y-82846000D02*
X163848002Y-82846000D01*
X163848002Y-82846000D02*
X168277002Y-87275000D01*
X173700000Y-90881800D02*
X173700000Y-91350000D01*
X173700000Y-91350000D02*
X174770000Y-92420000D01*
X170093201Y-87275000D02*
X173700000Y-90881800D01*
X174770000Y-92420000D02*
X175000000Y-92420000D01*
X168277002Y-87275000D02*
X170093201Y-87275000D01*
G04 #@! TO.N,/BOOST_HI-*
X173406800Y-99525011D02*
X176593200Y-99525011D01*
X176593200Y-99525011D02*
X177625011Y-98493200D01*
X177625011Y-98493200D02*
X177625011Y-92275011D01*
X177625011Y-92275011D02*
X175230000Y-89880000D01*
X172174989Y-98293200D02*
X173406800Y-99525011D01*
X156455000Y-76725000D02*
X156455000Y-77175000D01*
X157554988Y-77825001D02*
X163998986Y-84268999D01*
X166895598Y-87725011D02*
X169906801Y-87725011D01*
X172174989Y-89993199D02*
X172174989Y-98293200D01*
X157105001Y-77825001D02*
X157554988Y-77825001D01*
X169906801Y-87725011D02*
X172174989Y-89993199D01*
X175230000Y-89880000D02*
X175000000Y-89880000D01*
X164735988Y-84740986D02*
X164735988Y-85565401D01*
X164264001Y-84268999D02*
X164735988Y-84740986D01*
X163998986Y-84268999D02*
X164264001Y-84268999D01*
X156455000Y-77175000D02*
X157105001Y-77825001D01*
D29*
X165214587Y-85749413D02*
X165428000Y-85536000D01*
X165214587Y-86044000D02*
X165214587Y-85749413D01*
D30*
X164735988Y-85565401D02*
X165214587Y-86044000D01*
X165214587Y-86044000D02*
X166895598Y-87725011D01*
D29*
G04 #@! TO.N,/BOOST_LO+*
X167968000Y-85019000D02*
X167968000Y-85028000D01*
X167968000Y-85028000D02*
X167460000Y-85536000D01*
D30*
X159628002Y-77675000D02*
X168273013Y-86320011D01*
X173700000Y-87340000D02*
X175000000Y-87340000D01*
X158995000Y-77175000D02*
X159495000Y-77675000D01*
X158995000Y-76725000D02*
X158995000Y-77175000D01*
X159495000Y-77675000D02*
X159628002Y-77675000D01*
X172680011Y-86320011D02*
X173700000Y-87340000D01*
X168273013Y-86320011D02*
X172680011Y-86320011D01*
G04 #@! TO.N,/BOOST_LO-*
X172855000Y-85845000D02*
X173900000Y-84800000D01*
X173900000Y-84800000D02*
X175000000Y-84800000D01*
D29*
X170000000Y-85019000D02*
X170000000Y-85845000D01*
D30*
X170000000Y-85845000D02*
X172855000Y-85845000D01*
X160880000Y-76725000D02*
X161513603Y-77358603D01*
X160265000Y-76725000D02*
X160880000Y-76725000D01*
X161513603Y-77358603D02*
X170000000Y-85845000D01*
D29*
G04 #@! TO.N,/SDA*
X149060000Y-110410000D02*
X148385000Y-110410000D01*
X146628001Y-108523999D02*
X146498999Y-108523999D01*
X147028000Y-108124000D02*
X146628001Y-108523999D01*
X149060000Y-112433000D02*
X149060000Y-110410000D01*
X146785000Y-108810000D02*
X148385000Y-110410000D01*
X146498999Y-108523999D02*
X146785000Y-108810000D01*
X141380001Y-100399999D02*
X142190001Y-100399999D01*
X146025010Y-106711820D02*
X146025010Y-107567782D01*
X142190001Y-100399999D02*
X142255010Y-100465008D01*
X144349990Y-106374990D02*
X145688180Y-106374990D01*
X141305000Y-101275000D02*
X141305000Y-100475000D01*
X141305000Y-100475000D02*
X141380001Y-100399999D01*
X142255010Y-104280010D02*
X144349990Y-106374990D01*
X146025010Y-107567782D02*
X146785000Y-108810000D01*
X142255010Y-100465008D02*
X142255010Y-104280010D01*
X145688180Y-106374990D02*
X146025010Y-106711820D01*
X168818838Y-101997904D02*
X168809423Y-101997904D01*
X169032000Y-101784742D02*
X168818838Y-101997904D01*
X169032000Y-101774000D02*
X169032000Y-101784742D01*
G04 #@! TO.N,/SCL*
X148805000Y-107870000D02*
X149480000Y-107870000D01*
X140305000Y-100475000D02*
X140305000Y-101275000D01*
X142376401Y-99949988D02*
X140830012Y-99949988D01*
X142705021Y-100278608D02*
X142376401Y-99949988D01*
X149060000Y-107870000D02*
X148385000Y-107870000D01*
X142710000Y-102195000D02*
X142705021Y-102195000D01*
X140830012Y-99949988D02*
X140305000Y-100475000D01*
X146665999Y-106150999D02*
X148385000Y-107870000D01*
X142705021Y-101774000D02*
X142705021Y-100278608D01*
X142705021Y-102195000D02*
X142705021Y-101774000D01*
X144169820Y-105085010D02*
X143832990Y-104748180D01*
X143832990Y-104748180D02*
X143832990Y-102901969D01*
X146665999Y-106150999D02*
X145600010Y-105085010D01*
X145600010Y-105085010D02*
X144169820Y-105085010D01*
X143832990Y-102901969D02*
X142705021Y-101774000D01*
X149704999Y-108514999D02*
X149060000Y-107870000D01*
X150895990Y-109115988D02*
X150295001Y-108514999D01*
X150895990Y-111455400D02*
X150895990Y-109115988D01*
X151092000Y-111651410D02*
X150895990Y-111455400D01*
X150295001Y-108514999D02*
X149704999Y-108514999D01*
X151092000Y-112179000D02*
X151346000Y-112433000D01*
X151092000Y-111651410D02*
X151092000Y-112179000D01*
X146665999Y-106150999D02*
X146668373Y-106150999D01*
X146668373Y-106150999D02*
X146750020Y-106232646D01*
X146750020Y-106232646D02*
X146750020Y-106798331D01*
X167721964Y-104314000D02*
X167673306Y-104362658D01*
X169032000Y-104314000D02*
X167721964Y-104314000D01*
G04 #@! TO.N,/GPIO0*
X150295001Y-111035001D02*
X150360001Y-110970001D01*
X168823021Y-115349979D02*
X168823021Y-114656979D01*
X167348000Y-116025000D02*
X168148000Y-116025000D01*
X168148000Y-116025000D02*
X168823021Y-115349979D01*
X168823021Y-114656979D02*
X170790000Y-112690000D01*
X169482000Y-103044000D02*
X169032000Y-103044000D01*
X170790000Y-104352000D02*
X169482000Y-103044000D01*
X170790000Y-112690000D02*
X170790000Y-104352000D01*
X165910401Y-124165012D02*
X147266010Y-124165012D01*
X167348000Y-122727413D02*
X165910401Y-124165012D01*
X145689999Y-120849999D02*
X144840000Y-120000000D01*
X167348000Y-116025000D02*
X167348000Y-122727413D01*
X146204999Y-121364999D02*
X145689999Y-120849999D01*
X147266010Y-124165012D02*
X146204999Y-123104001D01*
X146204999Y-123104001D02*
X146204999Y-121364999D01*
X149735000Y-109140000D02*
X149060000Y-109140000D01*
X150360001Y-109765001D02*
X149735000Y-109140000D01*
X150320990Y-114810200D02*
X150320990Y-111009012D01*
X145981189Y-119150001D02*
X150320990Y-114810200D01*
X145689999Y-119150001D02*
X145981189Y-119150001D01*
X150360001Y-110970001D02*
X150360001Y-109765001D01*
X150320990Y-111009012D02*
X150360001Y-110970001D01*
X144840000Y-120000000D02*
X145689999Y-119150001D01*
G04 #@! TO.N,/GPIO1*
X168036180Y-114875010D02*
X168373010Y-114538180D01*
X165316000Y-116025000D02*
X166465990Y-114875010D01*
X168373010Y-114538180D02*
X168373010Y-114470580D01*
X169482000Y-105584000D02*
X169032000Y-105584000D01*
X170339989Y-106441989D02*
X169482000Y-105584000D01*
X168373010Y-114470580D02*
X170339989Y-112503601D01*
X166465990Y-114875010D02*
X168036180Y-114875010D01*
X170339989Y-112503601D02*
X170339989Y-106441989D01*
X165316000Y-116700000D02*
X166580000Y-117964000D01*
X165316000Y-116025000D02*
X165316000Y-116700000D01*
X148555001Y-121175001D02*
X148229999Y-120849999D01*
X148555001Y-122914003D02*
X148555001Y-121175001D01*
X149355999Y-123715001D02*
X148555001Y-122914003D01*
X148229999Y-120849999D02*
X147380000Y-120000000D01*
X166335001Y-123104001D02*
X165724001Y-123715001D01*
X166335001Y-118208999D02*
X166335001Y-123104001D01*
X166580000Y-117964000D02*
X166335001Y-118208999D01*
X165724001Y-123715001D02*
X149355999Y-123715001D01*
X149735000Y-106600000D02*
X149060000Y-106600000D01*
X152371010Y-109236010D02*
X149735000Y-106600000D01*
X148267189Y-119150001D02*
X152371010Y-115046180D01*
X152371010Y-115046180D02*
X152371010Y-109236010D01*
X148229999Y-119150001D02*
X148267189Y-119150001D01*
X147380000Y-120000000D02*
X148229999Y-119150001D01*
G04 #@! TO.N,/~PWM~*
X158995000Y-85830000D02*
X151375000Y-93450000D01*
X151375000Y-93450000D02*
X151375000Y-94125000D01*
X158995000Y-84725000D02*
X158995000Y-85830000D01*
X151375000Y-96340589D02*
X151375000Y-94125000D01*
X154717011Y-100272011D02*
X154717011Y-99682600D01*
X154717011Y-99682600D02*
X151375000Y-96340589D01*
X158460000Y-102790000D02*
X157235000Y-102790000D01*
X157235000Y-102790000D02*
X154717011Y-100272011D01*
G04 #@! TO.N,/LO_DRV*
X156455000Y-84050000D02*
X156455000Y-84725000D01*
X158995000Y-94800000D02*
X158995000Y-94125000D01*
X149060000Y-98980000D02*
X149060000Y-98345000D01*
G04 #@! TO.N,/HI_DRV*
X153915000Y-84050000D02*
X153915000Y-84725000D01*
X149060000Y-100250000D02*
X148385000Y-100250000D01*
X150965000Y-99020000D02*
X150965000Y-97075000D01*
X149735000Y-100250000D02*
X150965000Y-99020000D01*
X149060000Y-100250000D02*
X149735000Y-100250000D01*
G04 #@! TO.N,/~BOOST_PWM_EN~*
X148385000Y-101520000D02*
X147759999Y-100894999D01*
X149060000Y-101520000D02*
X148385000Y-101520000D01*
X150749999Y-95429999D02*
X150749999Y-92210001D01*
X147759999Y-98419999D02*
X150749999Y-95429999D01*
X147759999Y-100894999D02*
X147759999Y-98419999D01*
X150749999Y-92210001D02*
X151375000Y-91585000D01*
X151375000Y-91585000D02*
X151375000Y-84725000D01*
G04 #@! TO.N,/~BUCK_PWM_EN~*
X149060000Y-102790000D02*
X149735000Y-102790000D01*
X149060000Y-102790000D02*
X147155000Y-102790000D01*
X147155000Y-102790000D02*
X147155000Y-97710000D01*
X150105000Y-94800000D02*
X150105000Y-94125000D01*
X147195000Y-97710000D02*
X150105000Y-94800000D01*
X147155000Y-97710000D02*
X147195000Y-97710000D01*
G04 #@! TO.N,/BUCK_HI*
X152645000Y-84725000D02*
X152645000Y-82125000D01*
G04 #@! TO.N,/BUCK_LO*
X153915000Y-82575000D02*
X153915000Y-82125000D01*
X155185000Y-83845000D02*
X153915000Y-82575000D01*
X155185000Y-84725000D02*
X155185000Y-83845000D01*
G04 #@! TO.N,/BOOST_HI*
X157725000Y-84725000D02*
X157725000Y-82125000D01*
X157725000Y-91585000D02*
X157950000Y-91360000D01*
X157725000Y-94125000D02*
X157725000Y-91585000D01*
G04 #@! TO.N,/BOOST_LO*
X158995000Y-82575000D02*
X158995000Y-82125000D01*
X160265000Y-83845000D02*
X158995000Y-82575000D01*
X160265000Y-84725000D02*
X160265000Y-83845000D01*
G04 #@! TO.N,/T24_IO*
X167230000Y-92140000D02*
X165400000Y-93970000D01*
X167460000Y-92140000D02*
X167230000Y-92140000D01*
X165400000Y-93970000D02*
X165400000Y-102400000D01*
X164756000Y-103044000D02*
X163632000Y-103044000D01*
X165400000Y-102400000D02*
X164756000Y-103044000D01*
G04 #@! TO.N,/T24_PWM*
X164082000Y-105584000D02*
X166900000Y-102766000D01*
X163632000Y-105584000D02*
X164082000Y-105584000D01*
X166900000Y-102766000D02*
X166900000Y-100600000D01*
X166900000Y-100600000D02*
X169700000Y-97800000D01*
X169700000Y-96690000D02*
X167690000Y-94680000D01*
X167690000Y-94680000D02*
X167460000Y-94680000D01*
X169700000Y-97800000D02*
X169700000Y-96690000D01*
D30*
G04 #@! TO.N,/SDA+*
X140305000Y-105575000D02*
X140280001Y-105599999D01*
X139500000Y-112000000D02*
X141100000Y-113600000D01*
X139500000Y-110818200D02*
X139500000Y-112000000D01*
X140305000Y-105575000D02*
X140305000Y-106400001D01*
X140280000Y-106425001D02*
X140280000Y-110038200D01*
X140280000Y-110038200D02*
X139500000Y-110818200D01*
X140305000Y-106400001D02*
X140280000Y-106425001D01*
X137659000Y-104982800D02*
X137659000Y-106624603D01*
X138298800Y-104343000D02*
X137659000Y-104982800D01*
X139882200Y-104343000D02*
X138298800Y-104343000D01*
X140280000Y-104740800D02*
X139882200Y-104343000D01*
X140305000Y-105150000D02*
X140280000Y-105125000D01*
X140280000Y-105125000D02*
X140280000Y-104740800D01*
X137659000Y-106624603D02*
X136903603Y-107380000D01*
X136903603Y-107380000D02*
X135000000Y-107380000D01*
X140305000Y-105575000D02*
X140305000Y-105150000D01*
G04 #@! TO.N,/SDA-*
X139050000Y-110631800D02*
X139050000Y-112000000D01*
X139830000Y-105600000D02*
X139830000Y-105651800D01*
X139805000Y-105575000D02*
X139830000Y-105600000D01*
X139830000Y-109851800D02*
X139050000Y-110631800D01*
X139805000Y-106400001D02*
X139830000Y-106425001D01*
X139050000Y-112000000D02*
X139050000Y-113600000D01*
X139830000Y-106425001D02*
X139830000Y-109851800D01*
X139805000Y-105575000D02*
X139805000Y-106400001D01*
X139805000Y-105575000D02*
X139805000Y-105150000D01*
X138109000Y-106811000D02*
X135000000Y-109920000D01*
X138109000Y-105169200D02*
X138109000Y-106811000D01*
X139830000Y-104927200D02*
X139695800Y-104793000D01*
X139830000Y-105125000D02*
X139830000Y-104927200D01*
X139805000Y-105150000D02*
X139830000Y-105125000D01*
X138485200Y-104793000D02*
X138109000Y-105169200D01*
X139695800Y-104793000D02*
X138485200Y-104793000D01*
G04 #@! TO.N,/SCL+*
X140830000Y-104724999D02*
X140830000Y-104530200D01*
X140805000Y-104749999D02*
X140830000Y-104724999D01*
X140805000Y-105575000D02*
X140805000Y-104749999D01*
X140830000Y-104530200D02*
X137155800Y-100856000D01*
X137155800Y-100856000D02*
X133532200Y-100856000D01*
X133532200Y-100856000D02*
X133029000Y-101359200D01*
X133029000Y-112392603D02*
X133096397Y-112460000D01*
X133029000Y-101359200D02*
X133029000Y-112392603D01*
X140805000Y-106400001D02*
X140830000Y-106425001D01*
X140830000Y-107848200D02*
X143675000Y-110693200D01*
X140830000Y-106425001D02*
X140830000Y-107848200D01*
X140805000Y-105575000D02*
X140805000Y-106400001D01*
X143675000Y-110693200D02*
X143675000Y-112800000D01*
X143675000Y-112800000D02*
X142875000Y-113600000D01*
X133096397Y-112460000D02*
X135000000Y-112460000D01*
G04 #@! TO.N,/SCL-*
X141305000Y-104749999D02*
X141280000Y-104724999D01*
X141280000Y-104724999D02*
X141280000Y-104343800D01*
X132579000Y-101172800D02*
X132579000Y-112579000D01*
X133345800Y-100406000D02*
X132579000Y-101172800D01*
X137342200Y-100406000D02*
X133345800Y-100406000D01*
X141280000Y-104343800D02*
X137342200Y-100406000D01*
X141305000Y-105575000D02*
X141305000Y-104749999D01*
X141280000Y-107661800D02*
X144125000Y-110506800D01*
X141305000Y-106400001D02*
X141280000Y-106425001D01*
X141280000Y-106425001D02*
X141280000Y-107661800D01*
X144125000Y-110506800D02*
X144125000Y-112800000D01*
X141305000Y-105575000D02*
X141305000Y-106400001D01*
X144125000Y-112800000D02*
X144925000Y-113600000D01*
X132579000Y-112579000D02*
X135000000Y-115000000D01*
G04 #@! TD*
M02*
