G04 #@! TF.GenerationSoftware,KiCad,Pcbnew,5.0.0*
G04 #@! TF.CreationDate,2018-10-21T13:39:10+10:00*
G04 #@! TF.ProjectId,controller,636F6E74726F6C6C65722E6B69636164,rev?*
G04 #@! TF.SameCoordinates,Original*
G04 #@! TF.FileFunction,Soldermask,Top*
G04 #@! TF.FilePolarity,Negative*
%FSLAX46Y46*%
G04 Gerber Fmt 4.6, Leading zero omitted, Abs format (unit mm)*
G04 Created by KiCad (PCBNEW 5.0.0) date Sun Oct 21 13:39:10 2018*
%MOMM*%
%LPD*%
G01*
G04 APERTURE LIST*
%ADD10C,0.100000*%
%ADD11C,0.150000*%
%ADD12C,0.300000*%
%ADD13C,0.400000*%
%ADD14R,2.600000X2.140000*%
%ADD15O,2.600000X2.140000*%
%ADD16R,2.100000X2.100000*%
%ADD17O,2.100000X2.100000*%
%ADD18R,0.650000X1.500000*%
%ADD19R,1.000000X2.350000*%
%ADD20C,1.550000*%
%ADD21R,2.000000X3.900000*%
%ADD22C,1.200000*%
%ADD23C,6.400000*%
%ADD24R,2.350000X1.000000*%
%ADD25R,1.900000X1.000000*%
%ADD26R,1.000000X1.900000*%
G04 APERTURE END LIST*
D10*
D11*
X177002200Y-166007200D02*
X177002200Y-198007200D01*
X285002200Y-198007200D01*
X285002200Y-166007200D01*
X177002200Y-166007200D01*
D10*
D11*
X10000000Y-10000000D02*
X10000000Y-200007200D01*
X287002200Y-200007200D01*
X287002200Y-10000000D01*
X10000000Y-10000000D01*
D10*
D11*
X12000000Y-12000000D02*
X12000000Y-198007200D01*
X285002200Y-198007200D01*
X285002200Y-12000000D01*
X12000000Y-12000000D01*
D10*
D11*
X60000000Y-12000000D02*
X60000000Y-10000000D01*
D10*
D11*
X110000000Y-12000000D02*
X110000000Y-10000000D01*
D10*
D11*
X160000000Y-12000000D02*
X160000000Y-10000000D01*
D10*
D11*
X210000000Y-12000000D02*
X210000000Y-10000000D01*
D10*
D11*
X260000000Y-12000000D02*
X260000000Y-10000000D01*
D10*
D11*
X36065476Y-11588095D02*
X35322619Y-11588095D01*
X35694047Y-11588095D02*
X35694047Y-10288095D01*
X35570238Y-10473809D01*
X35446428Y-10597619D01*
X35322619Y-10659523D01*
D10*
D11*
X85322619Y-10411904D02*
X85384523Y-10350000D01*
X85508333Y-10288095D01*
X85817857Y-10288095D01*
X85941666Y-10350000D01*
X86003571Y-10411904D01*
X86065476Y-10535714D01*
X86065476Y-10659523D01*
X86003571Y-10845238D01*
X85260714Y-11588095D01*
X86065476Y-11588095D01*
D10*
D11*
X135260714Y-10288095D02*
X136065476Y-10288095D01*
X135632142Y-10783333D01*
X135817857Y-10783333D01*
X135941666Y-10845238D01*
X136003571Y-10907142D01*
X136065476Y-11030952D01*
X136065476Y-11340476D01*
X136003571Y-11464285D01*
X135941666Y-11526190D01*
X135817857Y-11588095D01*
X135446428Y-11588095D01*
X135322619Y-11526190D01*
X135260714Y-11464285D01*
D10*
D11*
X185941666Y-10721428D02*
X185941666Y-11588095D01*
X185632142Y-10226190D02*
X185322619Y-11154761D01*
X186127380Y-11154761D01*
D10*
D11*
X236003571Y-10288095D02*
X235384523Y-10288095D01*
X235322619Y-10907142D01*
X235384523Y-10845238D01*
X235508333Y-10783333D01*
X235817857Y-10783333D01*
X235941666Y-10845238D01*
X236003571Y-10907142D01*
X236065476Y-11030952D01*
X236065476Y-11340476D01*
X236003571Y-11464285D01*
X235941666Y-11526190D01*
X235817857Y-11588095D01*
X235508333Y-11588095D01*
X235384523Y-11526190D01*
X235322619Y-11464285D01*
D10*
D11*
X285941666Y-10288095D02*
X285694047Y-10288095D01*
X285570238Y-10350000D01*
X285508333Y-10411904D01*
X285384523Y-10597619D01*
X285322619Y-10845238D01*
X285322619Y-11340476D01*
X285384523Y-11464285D01*
X285446428Y-11526190D01*
X285570238Y-11588095D01*
X285817857Y-11588095D01*
X285941666Y-11526190D01*
X286003571Y-11464285D01*
X286065476Y-11340476D01*
X286065476Y-11030952D01*
X286003571Y-10907142D01*
X285941666Y-10845238D01*
X285817857Y-10783333D01*
X285570238Y-10783333D01*
X285446428Y-10845238D01*
X285384523Y-10907142D01*
X285322619Y-11030952D01*
D10*
D11*
X60000000Y-198007200D02*
X60000000Y-200007200D01*
D10*
D11*
X110000000Y-198007200D02*
X110000000Y-200007200D01*
D10*
D11*
X160000000Y-198007200D02*
X160000000Y-200007200D01*
D10*
D11*
X210000000Y-198007200D02*
X210000000Y-200007200D01*
D10*
D11*
X260000000Y-198007200D02*
X260000000Y-200007200D01*
D10*
D11*
X36065476Y-199595295D02*
X35322619Y-199595295D01*
X35694047Y-199595295D02*
X35694047Y-198295295D01*
X35570238Y-198481009D01*
X35446428Y-198604819D01*
X35322619Y-198666723D01*
D10*
D11*
X85322619Y-198419104D02*
X85384523Y-198357200D01*
X85508333Y-198295295D01*
X85817857Y-198295295D01*
X85941666Y-198357200D01*
X86003571Y-198419104D01*
X86065476Y-198542914D01*
X86065476Y-198666723D01*
X86003571Y-198852438D01*
X85260714Y-199595295D01*
X86065476Y-199595295D01*
D10*
D11*
X135260714Y-198295295D02*
X136065476Y-198295295D01*
X135632142Y-198790533D01*
X135817857Y-198790533D01*
X135941666Y-198852438D01*
X136003571Y-198914342D01*
X136065476Y-199038152D01*
X136065476Y-199347676D01*
X136003571Y-199471485D01*
X135941666Y-199533390D01*
X135817857Y-199595295D01*
X135446428Y-199595295D01*
X135322619Y-199533390D01*
X135260714Y-199471485D01*
D10*
D11*
X185941666Y-198728628D02*
X185941666Y-199595295D01*
X185632142Y-198233390D02*
X185322619Y-199161961D01*
X186127380Y-199161961D01*
D10*
D11*
X236003571Y-198295295D02*
X235384523Y-198295295D01*
X235322619Y-198914342D01*
X235384523Y-198852438D01*
X235508333Y-198790533D01*
X235817857Y-198790533D01*
X235941666Y-198852438D01*
X236003571Y-198914342D01*
X236065476Y-199038152D01*
X236065476Y-199347676D01*
X236003571Y-199471485D01*
X235941666Y-199533390D01*
X235817857Y-199595295D01*
X235508333Y-199595295D01*
X235384523Y-199533390D01*
X235322619Y-199471485D01*
D10*
D11*
X285941666Y-198295295D02*
X285694047Y-198295295D01*
X285570238Y-198357200D01*
X285508333Y-198419104D01*
X285384523Y-198604819D01*
X285322619Y-198852438D01*
X285322619Y-199347676D01*
X285384523Y-199471485D01*
X285446428Y-199533390D01*
X285570238Y-199595295D01*
X285817857Y-199595295D01*
X285941666Y-199533390D01*
X286003571Y-199471485D01*
X286065476Y-199347676D01*
X286065476Y-199038152D01*
X286003571Y-198914342D01*
X285941666Y-198852438D01*
X285817857Y-198790533D01*
X285570238Y-198790533D01*
X285446428Y-198852438D01*
X285384523Y-198914342D01*
X285322619Y-199038152D01*
D10*
D11*
X10000000Y-60000000D02*
X12000000Y-60000000D01*
D10*
D11*
X10000000Y-110000000D02*
X12000000Y-110000000D01*
D10*
D11*
X10000000Y-160000000D02*
X12000000Y-160000000D01*
D10*
D11*
X10690476Y-35216666D02*
X11309523Y-35216666D01*
X10566666Y-35588095D02*
X11000000Y-34288095D01*
X11433333Y-35588095D01*
D10*
D11*
X11092857Y-84907142D02*
X11278571Y-84969047D01*
X11340476Y-85030952D01*
X11402380Y-85154761D01*
X11402380Y-85340476D01*
X11340476Y-85464285D01*
X11278571Y-85526190D01*
X11154761Y-85588095D01*
X10659523Y-85588095D01*
X10659523Y-84288095D01*
X11092857Y-84288095D01*
X11216666Y-84350000D01*
X11278571Y-84411904D01*
X11340476Y-84535714D01*
X11340476Y-84659523D01*
X11278571Y-84783333D01*
X11216666Y-84845238D01*
X11092857Y-84907142D01*
X10659523Y-84907142D01*
D10*
D11*
X11402380Y-135464285D02*
X11340476Y-135526190D01*
X11154761Y-135588095D01*
X11030952Y-135588095D01*
X10845238Y-135526190D01*
X10721428Y-135402380D01*
X10659523Y-135278571D01*
X10597619Y-135030952D01*
X10597619Y-134845238D01*
X10659523Y-134597619D01*
X10721428Y-134473809D01*
X10845238Y-134350000D01*
X11030952Y-134288095D01*
X11154761Y-134288095D01*
X11340476Y-134350000D01*
X11402380Y-134411904D01*
D10*
D11*
X10659523Y-185588095D02*
X10659523Y-184288095D01*
X10969047Y-184288095D01*
X11154761Y-184350000D01*
X11278571Y-184473809D01*
X11340476Y-184597619D01*
X11402380Y-184845238D01*
X11402380Y-185030952D01*
X11340476Y-185278571D01*
X11278571Y-185402380D01*
X11154761Y-185526190D01*
X10969047Y-185588095D01*
X10659523Y-185588095D01*
D10*
D11*
X287002200Y-60000000D02*
X285002200Y-60000000D01*
D10*
D11*
X287002200Y-110000000D02*
X285002200Y-110000000D01*
D10*
D11*
X287002200Y-160000000D02*
X285002200Y-160000000D01*
D10*
D11*
X285692676Y-35216666D02*
X286311723Y-35216666D01*
X285568866Y-35588095D02*
X286002200Y-34288095D01*
X286435533Y-35588095D01*
D10*
D11*
X286095057Y-84907142D02*
X286280771Y-84969047D01*
X286342676Y-85030952D01*
X286404580Y-85154761D01*
X286404580Y-85340476D01*
X286342676Y-85464285D01*
X286280771Y-85526190D01*
X286156961Y-85588095D01*
X285661723Y-85588095D01*
X285661723Y-84288095D01*
X286095057Y-84288095D01*
X286218866Y-84350000D01*
X286280771Y-84411904D01*
X286342676Y-84535714D01*
X286342676Y-84659523D01*
X286280771Y-84783333D01*
X286218866Y-84845238D01*
X286095057Y-84907142D01*
X285661723Y-84907142D01*
D10*
D11*
X286404580Y-135464285D02*
X286342676Y-135526190D01*
X286156961Y-135588095D01*
X286033152Y-135588095D01*
X285847438Y-135526190D01*
X285723628Y-135402380D01*
X285661723Y-135278571D01*
X285599819Y-135030952D01*
X285599819Y-134845238D01*
X285661723Y-134597619D01*
X285723628Y-134473809D01*
X285847438Y-134350000D01*
X286033152Y-134288095D01*
X286156961Y-134288095D01*
X286342676Y-134350000D01*
X286404580Y-134411904D01*
D10*
D11*
X285661723Y-185588095D02*
X285661723Y-184288095D01*
X285971247Y-184288095D01*
X286156961Y-184350000D01*
X286280771Y-184473809D01*
X286342676Y-184597619D01*
X286404580Y-184845238D01*
X286404580Y-185030952D01*
X286342676Y-185278571D01*
X286280771Y-185402380D01*
X286156961Y-185526190D01*
X285971247Y-185588095D01*
X285661723Y-185588095D01*
D10*
D11*
X200434342Y-193785771D02*
X200434342Y-192285771D01*
X200791485Y-192285771D01*
X201005771Y-192357200D01*
X201148628Y-192500057D01*
X201220057Y-192642914D01*
X201291485Y-192928628D01*
X201291485Y-193142914D01*
X201220057Y-193428628D01*
X201148628Y-193571485D01*
X201005771Y-193714342D01*
X200791485Y-193785771D01*
X200434342Y-193785771D01*
X202577200Y-193785771D02*
X202577200Y-193000057D01*
X202505771Y-192857200D01*
X202362914Y-192785771D01*
X202077200Y-192785771D01*
X201934342Y-192857200D01*
X202577200Y-193714342D02*
X202434342Y-193785771D01*
X202077200Y-193785771D01*
X201934342Y-193714342D01*
X201862914Y-193571485D01*
X201862914Y-193428628D01*
X201934342Y-193285771D01*
X202077200Y-193214342D01*
X202434342Y-193214342D01*
X202577200Y-193142914D01*
X203077200Y-192785771D02*
X203648628Y-192785771D01*
X203291485Y-192285771D02*
X203291485Y-193571485D01*
X203362914Y-193714342D01*
X203505771Y-193785771D01*
X203648628Y-193785771D01*
X204720057Y-193714342D02*
X204577200Y-193785771D01*
X204291485Y-193785771D01*
X204148628Y-193714342D01*
X204077200Y-193571485D01*
X204077200Y-193000057D01*
X204148628Y-192857200D01*
X204291485Y-192785771D01*
X204577200Y-192785771D01*
X204720057Y-192857200D01*
X204791485Y-193000057D01*
X204791485Y-193142914D01*
X204077200Y-193285771D01*
X205434342Y-193642914D02*
X205505771Y-193714342D01*
X205434342Y-193785771D01*
X205362914Y-193714342D01*
X205434342Y-193642914D01*
X205434342Y-193785771D01*
X205434342Y-192857200D02*
X205505771Y-192928628D01*
X205434342Y-193000057D01*
X205362914Y-192928628D01*
X205434342Y-192857200D01*
X205434342Y-193000057D01*
D10*
D11*
X177002200Y-194507200D02*
X285002200Y-194507200D01*
D10*
D11*
X178434342Y-196585771D02*
X178434342Y-195085771D01*
X179291485Y-196585771D02*
X178648628Y-195728628D01*
X179291485Y-195085771D02*
X178434342Y-195942914D01*
X179934342Y-196585771D02*
X179934342Y-195585771D01*
X179934342Y-195085771D02*
X179862914Y-195157200D01*
X179934342Y-195228628D01*
X180005771Y-195157200D01*
X179934342Y-195085771D01*
X179934342Y-195228628D01*
X181505771Y-196442914D02*
X181434342Y-196514342D01*
X181220057Y-196585771D01*
X181077200Y-196585771D01*
X180862914Y-196514342D01*
X180720057Y-196371485D01*
X180648628Y-196228628D01*
X180577200Y-195942914D01*
X180577200Y-195728628D01*
X180648628Y-195442914D01*
X180720057Y-195300057D01*
X180862914Y-195157200D01*
X181077200Y-195085771D01*
X181220057Y-195085771D01*
X181434342Y-195157200D01*
X181505771Y-195228628D01*
X182791485Y-196585771D02*
X182791485Y-195800057D01*
X182720057Y-195657200D01*
X182577200Y-195585771D01*
X182291485Y-195585771D01*
X182148628Y-195657200D01*
X182791485Y-196514342D02*
X182648628Y-196585771D01*
X182291485Y-196585771D01*
X182148628Y-196514342D01*
X182077200Y-196371485D01*
X182077200Y-196228628D01*
X182148628Y-196085771D01*
X182291485Y-196014342D01*
X182648628Y-196014342D01*
X182791485Y-195942914D01*
X184148628Y-196585771D02*
X184148628Y-195085771D01*
X184148628Y-196514342D02*
X184005771Y-196585771D01*
X183720057Y-196585771D01*
X183577200Y-196514342D01*
X183505771Y-196442914D01*
X183434342Y-196300057D01*
X183434342Y-195871485D01*
X183505771Y-195728628D01*
X183577200Y-195657200D01*
X183720057Y-195585771D01*
X184005771Y-195585771D01*
X184148628Y-195657200D01*
X186005771Y-195800057D02*
X186505771Y-195800057D01*
X186720057Y-196585771D02*
X186005771Y-196585771D01*
X186005771Y-195085771D01*
X186720057Y-195085771D01*
X187362914Y-196442914D02*
X187434342Y-196514342D01*
X187362914Y-196585771D01*
X187291485Y-196514342D01*
X187362914Y-196442914D01*
X187362914Y-196585771D01*
X188077200Y-196585771D02*
X188077200Y-195085771D01*
X188434342Y-195085771D01*
X188648628Y-195157200D01*
X188791485Y-195300057D01*
X188862914Y-195442914D01*
X188934342Y-195728628D01*
X188934342Y-195942914D01*
X188862914Y-196228628D01*
X188791485Y-196371485D01*
X188648628Y-196514342D01*
X188434342Y-196585771D01*
X188077200Y-196585771D01*
X189577200Y-196442914D02*
X189648628Y-196514342D01*
X189577200Y-196585771D01*
X189505771Y-196514342D01*
X189577200Y-196442914D01*
X189577200Y-196585771D01*
X190220057Y-196157200D02*
X190934342Y-196157200D01*
X190077200Y-196585771D02*
X190577200Y-195085771D01*
X191077200Y-196585771D01*
X191577200Y-196442914D02*
X191648628Y-196514342D01*
X191577200Y-196585771D01*
X191505771Y-196514342D01*
X191577200Y-196442914D01*
X191577200Y-196585771D01*
X194577200Y-196585771D02*
X194577200Y-195085771D01*
X194720057Y-196014342D02*
X195148628Y-196585771D01*
X195148628Y-195585771D02*
X194577200Y-196157200D01*
X195791485Y-196585771D02*
X195791485Y-195585771D01*
X195791485Y-195085771D02*
X195720057Y-195157200D01*
X195791485Y-195228628D01*
X195862914Y-195157200D01*
X195791485Y-195085771D01*
X195791485Y-195228628D01*
X197148628Y-196514342D02*
X197005771Y-196585771D01*
X196720057Y-196585771D01*
X196577200Y-196514342D01*
X196505771Y-196442914D01*
X196434342Y-196300057D01*
X196434342Y-195871485D01*
X196505771Y-195728628D01*
X196577200Y-195657200D01*
X196720057Y-195585771D01*
X197005771Y-195585771D01*
X197148628Y-195657200D01*
X198434342Y-196585771D02*
X198434342Y-195800057D01*
X198362914Y-195657200D01*
X198220057Y-195585771D01*
X197934342Y-195585771D01*
X197791485Y-195657200D01*
X198434342Y-196514342D02*
X198291485Y-196585771D01*
X197934342Y-196585771D01*
X197791485Y-196514342D01*
X197720057Y-196371485D01*
X197720057Y-196228628D01*
X197791485Y-196085771D01*
X197934342Y-196014342D01*
X198291485Y-196014342D01*
X198434342Y-195942914D01*
X199791485Y-196585771D02*
X199791485Y-195085771D01*
X199791485Y-196514342D02*
X199648628Y-196585771D01*
X199362914Y-196585771D01*
X199220057Y-196514342D01*
X199148628Y-196442914D01*
X199077200Y-196300057D01*
X199077200Y-195871485D01*
X199148628Y-195728628D01*
X199220057Y-195657200D01*
X199362914Y-195585771D01*
X199648628Y-195585771D01*
X199791485Y-195657200D01*
X202362914Y-195085771D02*
X201648628Y-195085771D01*
X201577200Y-195800057D01*
X201648628Y-195728628D01*
X201791485Y-195657200D01*
X202148628Y-195657200D01*
X202291485Y-195728628D01*
X202362914Y-195800057D01*
X202434342Y-195942914D01*
X202434342Y-196300057D01*
X202362914Y-196442914D01*
X202291485Y-196514342D01*
X202148628Y-196585771D01*
X201791485Y-196585771D01*
X201648628Y-196514342D01*
X201577200Y-196442914D01*
X203077200Y-196442914D02*
X203148628Y-196514342D01*
X203077200Y-196585771D01*
X203005771Y-196514342D01*
X203077200Y-196442914D01*
X203077200Y-196585771D01*
X204077200Y-195085771D02*
X204220057Y-195085771D01*
X204362914Y-195157200D01*
X204434342Y-195228628D01*
X204505771Y-195371485D01*
X204577200Y-195657200D01*
X204577200Y-196014342D01*
X204505771Y-196300057D01*
X204434342Y-196442914D01*
X204362914Y-196514342D01*
X204220057Y-196585771D01*
X204077200Y-196585771D01*
X203934342Y-196514342D01*
X203862914Y-196442914D01*
X203791485Y-196300057D01*
X203720057Y-196014342D01*
X203720057Y-195657200D01*
X203791485Y-195371485D01*
X203862914Y-195228628D01*
X203934342Y-195157200D01*
X204077200Y-195085771D01*
X205220057Y-196442914D02*
X205291485Y-196514342D01*
X205220057Y-196585771D01*
X205148628Y-196514342D01*
X205220057Y-196442914D01*
X205220057Y-196585771D01*
X206220057Y-195085771D02*
X206362914Y-195085771D01*
X206505771Y-195157200D01*
X206577200Y-195228628D01*
X206648628Y-195371485D01*
X206720057Y-195657200D01*
X206720057Y-196014342D01*
X206648628Y-196300057D01*
X206577200Y-196442914D01*
X206505771Y-196514342D01*
X206362914Y-196585771D01*
X206220057Y-196585771D01*
X206077200Y-196514342D01*
X206005771Y-196442914D01*
X205934342Y-196300057D01*
X205862914Y-196014342D01*
X205862914Y-195657200D01*
X205934342Y-195371485D01*
X206005771Y-195228628D01*
X206077200Y-195157200D01*
X206220057Y-195085771D01*
D10*
D11*
X177002200Y-191507200D02*
X285002200Y-191507200D01*
D10*
D12*
X264411485Y-193785771D02*
X263911485Y-193071485D01*
X263554342Y-193785771D02*
X263554342Y-192285771D01*
X264125771Y-192285771D01*
X264268628Y-192357200D01*
X264340057Y-192428628D01*
X264411485Y-192571485D01*
X264411485Y-192785771D01*
X264340057Y-192928628D01*
X264268628Y-193000057D01*
X264125771Y-193071485D01*
X263554342Y-193071485D01*
X265625771Y-193714342D02*
X265482914Y-193785771D01*
X265197200Y-193785771D01*
X265054342Y-193714342D01*
X264982914Y-193571485D01*
X264982914Y-193000057D01*
X265054342Y-192857200D01*
X265197200Y-192785771D01*
X265482914Y-192785771D01*
X265625771Y-192857200D01*
X265697200Y-193000057D01*
X265697200Y-193142914D01*
X264982914Y-193285771D01*
X266197200Y-192785771D02*
X266554342Y-193785771D01*
X266911485Y-192785771D01*
X267482914Y-193642914D02*
X267554342Y-193714342D01*
X267482914Y-193785771D01*
X267411485Y-193714342D01*
X267482914Y-193642914D01*
X267482914Y-193785771D01*
X267482914Y-192857200D02*
X267554342Y-192928628D01*
X267482914Y-193000057D01*
X267411485Y-192928628D01*
X267482914Y-192857200D01*
X267482914Y-193000057D01*
D10*
D11*
X178362914Y-193714342D02*
X178577200Y-193785771D01*
X178934342Y-193785771D01*
X179077200Y-193714342D01*
X179148628Y-193642914D01*
X179220057Y-193500057D01*
X179220057Y-193357200D01*
X179148628Y-193214342D01*
X179077200Y-193142914D01*
X178934342Y-193071485D01*
X178648628Y-193000057D01*
X178505771Y-192928628D01*
X178434342Y-192857200D01*
X178362914Y-192714342D01*
X178362914Y-192571485D01*
X178434342Y-192428628D01*
X178505771Y-192357200D01*
X178648628Y-192285771D01*
X179005771Y-192285771D01*
X179220057Y-192357200D01*
X179862914Y-193785771D02*
X179862914Y-192785771D01*
X179862914Y-192285771D02*
X179791485Y-192357200D01*
X179862914Y-192428628D01*
X179934342Y-192357200D01*
X179862914Y-192285771D01*
X179862914Y-192428628D01*
X180434342Y-192785771D02*
X181220057Y-192785771D01*
X180434342Y-193785771D01*
X181220057Y-193785771D01*
X182362914Y-193714342D02*
X182220057Y-193785771D01*
X181934342Y-193785771D01*
X181791485Y-193714342D01*
X181720057Y-193571485D01*
X181720057Y-193000057D01*
X181791485Y-192857200D01*
X181934342Y-192785771D01*
X182220057Y-192785771D01*
X182362914Y-192857200D01*
X182434342Y-193000057D01*
X182434342Y-193142914D01*
X181720057Y-193285771D01*
X183077200Y-193642914D02*
X183148628Y-193714342D01*
X183077200Y-193785771D01*
X183005771Y-193714342D01*
X183077200Y-193642914D01*
X183077200Y-193785771D01*
X183077200Y-192857200D02*
X183148628Y-192928628D01*
X183077200Y-193000057D01*
X183005771Y-192928628D01*
X183077200Y-192857200D01*
X183077200Y-193000057D01*
X184862914Y-193357200D02*
X185577200Y-193357200D01*
X184720057Y-193785771D02*
X185220057Y-192285771D01*
X185720057Y-193785771D01*
X186862914Y-192785771D02*
X186862914Y-193785771D01*
X186505771Y-192214342D02*
X186148628Y-193285771D01*
X187077200Y-193285771D01*
D10*
D11*
X263434342Y-196585771D02*
X263434342Y-195085771D01*
X264791485Y-196585771D02*
X264791485Y-195085771D01*
X264791485Y-196514342D02*
X264648628Y-196585771D01*
X264362914Y-196585771D01*
X264220057Y-196514342D01*
X264148628Y-196442914D01*
X264077200Y-196300057D01*
X264077200Y-195871485D01*
X264148628Y-195728628D01*
X264220057Y-195657200D01*
X264362914Y-195585771D01*
X264648628Y-195585771D01*
X264791485Y-195657200D01*
X265505771Y-196442914D02*
X265577200Y-196514342D01*
X265505771Y-196585771D01*
X265434342Y-196514342D01*
X265505771Y-196442914D01*
X265505771Y-196585771D01*
X265505771Y-195657200D02*
X265577200Y-195728628D01*
X265505771Y-195800057D01*
X265434342Y-195728628D01*
X265505771Y-195657200D01*
X265505771Y-195800057D01*
X268148628Y-196585771D02*
X267291485Y-196585771D01*
X267720057Y-196585771D02*
X267720057Y-195085771D01*
X267577200Y-195300057D01*
X267434342Y-195442914D01*
X267291485Y-195514342D01*
X269862914Y-195014342D02*
X268577200Y-196942914D01*
X271148628Y-196585771D02*
X270291485Y-196585771D01*
X270720057Y-196585771D02*
X270720057Y-195085771D01*
X270577200Y-195300057D01*
X270434342Y-195442914D01*
X270291485Y-195514342D01*
D10*
D11*
X177002200Y-187507200D02*
X285002200Y-187507200D01*
D10*
D13*
X178714580Y-188211961D02*
X179857438Y-188211961D01*
X179036009Y-190211961D02*
X179286009Y-188211961D01*
X180274104Y-190211961D02*
X180440771Y-188878628D01*
X180524104Y-188211961D02*
X180416961Y-188307200D01*
X180500295Y-188402438D01*
X180607438Y-188307200D01*
X180524104Y-188211961D01*
X180500295Y-188402438D01*
X181107438Y-188878628D02*
X181869342Y-188878628D01*
X181476485Y-188211961D02*
X181262200Y-189926247D01*
X181333628Y-190116723D01*
X181512200Y-190211961D01*
X181702676Y-190211961D01*
X182655057Y-190211961D02*
X182476485Y-190116723D01*
X182405057Y-189926247D01*
X182619342Y-188211961D01*
X184190771Y-190116723D02*
X183988390Y-190211961D01*
X183607438Y-190211961D01*
X183428866Y-190116723D01*
X183357438Y-189926247D01*
X183452676Y-189164342D01*
X183571723Y-188973866D01*
X183774104Y-188878628D01*
X184155057Y-188878628D01*
X184333628Y-188973866D01*
X184405057Y-189164342D01*
X184381247Y-189354819D01*
X183405057Y-189545295D01*
X185155057Y-190021485D02*
X185238390Y-190116723D01*
X185131247Y-190211961D01*
X185047914Y-190116723D01*
X185155057Y-190021485D01*
X185131247Y-190211961D01*
X185286009Y-188973866D02*
X185369342Y-189069104D01*
X185262200Y-189164342D01*
X185178866Y-189069104D01*
X185286009Y-188973866D01*
X185262200Y-189164342D01*
D10*
D11*
X178934342Y-185600057D02*
X178434342Y-185600057D01*
X178434342Y-186385771D02*
X178434342Y-184885771D01*
X179148628Y-184885771D01*
X179720057Y-186385771D02*
X179720057Y-185385771D01*
X179720057Y-184885771D02*
X179648628Y-184957200D01*
X179720057Y-185028628D01*
X179791485Y-184957200D01*
X179720057Y-184885771D01*
X179720057Y-185028628D01*
X180648628Y-186385771D02*
X180505771Y-186314342D01*
X180434342Y-186171485D01*
X180434342Y-184885771D01*
X181791485Y-186314342D02*
X181648628Y-186385771D01*
X181362914Y-186385771D01*
X181220057Y-186314342D01*
X181148628Y-186171485D01*
X181148628Y-185600057D01*
X181220057Y-185457200D01*
X181362914Y-185385771D01*
X181648628Y-185385771D01*
X181791485Y-185457200D01*
X181862914Y-185600057D01*
X181862914Y-185742914D01*
X181148628Y-185885771D01*
X182505771Y-186242914D02*
X182577200Y-186314342D01*
X182505771Y-186385771D01*
X182434342Y-186314342D01*
X182505771Y-186242914D01*
X182505771Y-186385771D01*
X182505771Y-185457200D02*
X182577200Y-185528628D01*
X182505771Y-185600057D01*
X182434342Y-185528628D01*
X182505771Y-185457200D01*
X182505771Y-185600057D01*
X185005771Y-186314342D02*
X184862914Y-186385771D01*
X184577200Y-186385771D01*
X184434342Y-186314342D01*
X184362914Y-186242914D01*
X184291485Y-186100057D01*
X184291485Y-185671485D01*
X184362914Y-185528628D01*
X184434342Y-185457200D01*
X184577200Y-185385771D01*
X184862914Y-185385771D01*
X185005771Y-185457200D01*
X185862914Y-186385771D02*
X185720057Y-186314342D01*
X185648628Y-186242914D01*
X185577200Y-186100057D01*
X185577200Y-185671485D01*
X185648628Y-185528628D01*
X185720057Y-185457200D01*
X185862914Y-185385771D01*
X186077200Y-185385771D01*
X186220057Y-185457200D01*
X186291485Y-185528628D01*
X186362914Y-185671485D01*
X186362914Y-186100057D01*
X186291485Y-186242914D01*
X186220057Y-186314342D01*
X186077200Y-186385771D01*
X185862914Y-186385771D01*
X187005771Y-185385771D02*
X187005771Y-186385771D01*
X187005771Y-185528628D02*
X187077200Y-185457200D01*
X187220057Y-185385771D01*
X187434342Y-185385771D01*
X187577200Y-185457200D01*
X187648628Y-185600057D01*
X187648628Y-186385771D01*
X188148628Y-185385771D02*
X188720057Y-185385771D01*
X188362914Y-184885771D02*
X188362914Y-186171485D01*
X188434342Y-186314342D01*
X188577200Y-186385771D01*
X188720057Y-186385771D01*
X189220057Y-186385771D02*
X189220057Y-185385771D01*
X189220057Y-185671485D02*
X189291485Y-185528628D01*
X189362914Y-185457200D01*
X189505771Y-185385771D01*
X189648628Y-185385771D01*
X190362914Y-186385771D02*
X190220057Y-186314342D01*
X190148628Y-186242914D01*
X190077200Y-186100057D01*
X190077200Y-185671485D01*
X190148628Y-185528628D01*
X190220057Y-185457200D01*
X190362914Y-185385771D01*
X190577200Y-185385771D01*
X190720057Y-185457200D01*
X190791485Y-185528628D01*
X190862914Y-185671485D01*
X190862914Y-186100057D01*
X190791485Y-186242914D01*
X190720057Y-186314342D01*
X190577200Y-186385771D01*
X190362914Y-186385771D01*
X191720057Y-186385771D02*
X191577200Y-186314342D01*
X191505771Y-186171485D01*
X191505771Y-184885771D01*
X192505771Y-186385771D02*
X192362914Y-186314342D01*
X192291485Y-186171485D01*
X192291485Y-184885771D01*
X193648628Y-186314342D02*
X193505771Y-186385771D01*
X193220057Y-186385771D01*
X193077200Y-186314342D01*
X193005771Y-186171485D01*
X193005771Y-185600057D01*
X193077200Y-185457200D01*
X193220057Y-185385771D01*
X193505771Y-185385771D01*
X193648628Y-185457200D01*
X193720057Y-185600057D01*
X193720057Y-185742914D01*
X193005771Y-185885771D01*
X194362914Y-186385771D02*
X194362914Y-185385771D01*
X194362914Y-185671485D02*
X194434342Y-185528628D01*
X194505771Y-185457200D01*
X194648628Y-185385771D01*
X194791485Y-185385771D01*
X195291485Y-186242914D02*
X195362914Y-186314342D01*
X195291485Y-186385771D01*
X195220057Y-186314342D01*
X195291485Y-186242914D01*
X195291485Y-186385771D01*
X196005771Y-186385771D02*
X196005771Y-184885771D01*
X196148628Y-185814342D02*
X196577200Y-186385771D01*
X196577200Y-185385771D02*
X196005771Y-185957200D01*
X197220057Y-186385771D02*
X197220057Y-185385771D01*
X197220057Y-184885771D02*
X197148628Y-184957200D01*
X197220057Y-185028628D01*
X197291485Y-184957200D01*
X197220057Y-184885771D01*
X197220057Y-185028628D01*
X198577200Y-186314342D02*
X198434342Y-186385771D01*
X198148628Y-186385771D01*
X198005771Y-186314342D01*
X197934342Y-186242914D01*
X197862914Y-186100057D01*
X197862914Y-185671485D01*
X197934342Y-185528628D01*
X198005771Y-185457200D01*
X198148628Y-185385771D01*
X198434342Y-185385771D01*
X198577200Y-185457200D01*
X199862914Y-186385771D02*
X199862914Y-185600057D01*
X199791485Y-185457200D01*
X199648628Y-185385771D01*
X199362914Y-185385771D01*
X199220057Y-185457200D01*
X199862914Y-186314342D02*
X199720057Y-186385771D01*
X199362914Y-186385771D01*
X199220057Y-186314342D01*
X199148628Y-186171485D01*
X199148628Y-186028628D01*
X199220057Y-185885771D01*
X199362914Y-185814342D01*
X199720057Y-185814342D01*
X199862914Y-185742914D01*
X201220057Y-186385771D02*
X201220057Y-184885771D01*
X201220057Y-186314342D02*
X201077200Y-186385771D01*
X200791485Y-186385771D01*
X200648628Y-186314342D01*
X200577200Y-186242914D01*
X200505771Y-186100057D01*
X200505771Y-185671485D01*
X200577200Y-185528628D01*
X200648628Y-185457200D01*
X200791485Y-185385771D01*
X201077200Y-185385771D01*
X201220057Y-185457200D01*
X201577200Y-186528628D02*
X202720057Y-186528628D01*
X203077200Y-185385771D02*
X203077200Y-186885771D01*
X203077200Y-185457200D02*
X203220057Y-185385771D01*
X203505771Y-185385771D01*
X203648628Y-185457200D01*
X203720057Y-185528628D01*
X203791485Y-185671485D01*
X203791485Y-186100057D01*
X203720057Y-186242914D01*
X203648628Y-186314342D01*
X203505771Y-186385771D01*
X203220057Y-186385771D01*
X203077200Y-186314342D01*
X205077200Y-186314342D02*
X204934342Y-186385771D01*
X204648628Y-186385771D01*
X204505771Y-186314342D01*
X204434342Y-186242914D01*
X204362914Y-186100057D01*
X204362914Y-185671485D01*
X204434342Y-185528628D01*
X204505771Y-185457200D01*
X204648628Y-185385771D01*
X204934342Y-185385771D01*
X205077200Y-185457200D01*
X205720057Y-186385771D02*
X205720057Y-184885771D01*
X205720057Y-185457200D02*
X205862914Y-185385771D01*
X206148628Y-185385771D01*
X206291485Y-185457200D01*
X206362914Y-185528628D01*
X206434342Y-185671485D01*
X206434342Y-186100057D01*
X206362914Y-186242914D01*
X206291485Y-186314342D01*
X206148628Y-186385771D01*
X205862914Y-186385771D01*
X205720057Y-186314342D01*
D10*
D11*
X177002200Y-181507200D02*
X285002200Y-181507200D01*
D10*
D11*
X178362914Y-183614342D02*
X178577200Y-183685771D01*
X178934342Y-183685771D01*
X179077200Y-183614342D01*
X179148628Y-183542914D01*
X179220057Y-183400057D01*
X179220057Y-183257200D01*
X179148628Y-183114342D01*
X179077200Y-183042914D01*
X178934342Y-182971485D01*
X178648628Y-182900057D01*
X178505771Y-182828628D01*
X178434342Y-182757200D01*
X178362914Y-182614342D01*
X178362914Y-182471485D01*
X178434342Y-182328628D01*
X178505771Y-182257200D01*
X178648628Y-182185771D01*
X179005771Y-182185771D01*
X179220057Y-182257200D01*
X179862914Y-183685771D02*
X179862914Y-182185771D01*
X180505771Y-183685771D02*
X180505771Y-182900057D01*
X180434342Y-182757200D01*
X180291485Y-182685771D01*
X180077200Y-182685771D01*
X179934342Y-182757200D01*
X179862914Y-182828628D01*
X181791485Y-183614342D02*
X181648628Y-183685771D01*
X181362914Y-183685771D01*
X181220057Y-183614342D01*
X181148628Y-183471485D01*
X181148628Y-182900057D01*
X181220057Y-182757200D01*
X181362914Y-182685771D01*
X181648628Y-182685771D01*
X181791485Y-182757200D01*
X181862914Y-182900057D01*
X181862914Y-183042914D01*
X181148628Y-183185771D01*
X183077200Y-183614342D02*
X182934342Y-183685771D01*
X182648628Y-183685771D01*
X182505771Y-183614342D01*
X182434342Y-183471485D01*
X182434342Y-182900057D01*
X182505771Y-182757200D01*
X182648628Y-182685771D01*
X182934342Y-182685771D01*
X183077200Y-182757200D01*
X183148628Y-182900057D01*
X183148628Y-183042914D01*
X182434342Y-183185771D01*
X183577200Y-182685771D02*
X184148628Y-182685771D01*
X183791485Y-182185771D02*
X183791485Y-183471485D01*
X183862914Y-183614342D01*
X184005771Y-183685771D01*
X184148628Y-183685771D01*
X184648628Y-183542914D02*
X184720057Y-183614342D01*
X184648628Y-183685771D01*
X184577200Y-183614342D01*
X184648628Y-183542914D01*
X184648628Y-183685771D01*
X184648628Y-182757200D02*
X184720057Y-182828628D01*
X184648628Y-182900057D01*
X184577200Y-182828628D01*
X184648628Y-182757200D01*
X184648628Y-182900057D01*
D10*
D11*
X197002200Y-191507200D02*
X197002200Y-194507200D01*
D10*
D11*
X261002200Y-191507200D02*
X261002200Y-198007200D01*
D14*
G04 #@! TO.C,J2*
X167460000Y-89600000D03*
D15*
X167460000Y-92140000D03*
X167460000Y-94680000D03*
X167460000Y-97220000D03*
G04 #@! TD*
D16*
G04 #@! TO.C,J1*
X165160000Y-120000000D03*
D17*
X165160000Y-122540000D03*
X162620000Y-120000000D03*
X162620000Y-122540000D03*
X160080000Y-120000000D03*
X160080000Y-122540000D03*
X157540000Y-120000000D03*
X157540000Y-122540000D03*
X155000000Y-120000000D03*
X155000000Y-122540000D03*
X152460000Y-120000000D03*
X152460000Y-122540000D03*
X149920000Y-120000000D03*
X149920000Y-122540000D03*
X147380000Y-120000000D03*
X147380000Y-122540000D03*
X144840000Y-120000000D03*
X144840000Y-122540000D03*
G04 #@! TD*
D18*
G04 #@! TO.C,U4*
X141805000Y-101275000D03*
X141305000Y-101275000D03*
X140805000Y-101275000D03*
X140305000Y-101275000D03*
X139805000Y-101275000D03*
X139805000Y-105575000D03*
X140305000Y-105575000D03*
X140805000Y-105575000D03*
X141305000Y-105575000D03*
X141805000Y-105575000D03*
G04 #@! TD*
D19*
G04 #@! TO.C,U3*
X150105000Y-94125000D03*
X151375000Y-94125000D03*
X152645000Y-94125000D03*
X153915000Y-94125000D03*
X155185000Y-94125000D03*
X156455000Y-94125000D03*
X157725000Y-94125000D03*
X158995000Y-94125000D03*
X160265000Y-94125000D03*
X161535000Y-94125000D03*
X161535000Y-84725000D03*
X160265000Y-84725000D03*
X158995000Y-84725000D03*
X157725000Y-84725000D03*
X156455000Y-84725000D03*
X155185000Y-84725000D03*
X153915000Y-84725000D03*
X152645000Y-84725000D03*
X151375000Y-84725000D03*
X150105000Y-84725000D03*
G04 #@! TD*
D15*
G04 #@! TO.C,J3*
X135000000Y-115000000D03*
X135000000Y-112460000D03*
X135000000Y-109920000D03*
X135000000Y-107380000D03*
X135000000Y-104840000D03*
D14*
X135000000Y-102300000D03*
G04 #@! TD*
G04 #@! TO.C,J4*
X175000000Y-115000000D03*
D15*
X175000000Y-112460000D03*
X175000000Y-109920000D03*
X175000000Y-107380000D03*
X175000000Y-104840000D03*
X175000000Y-102300000D03*
G04 #@! TD*
G04 #@! TO.C,J5*
X135000000Y-97700000D03*
X135000000Y-95160000D03*
X135000000Y-92620000D03*
X135000000Y-90080000D03*
X135000000Y-87540000D03*
D14*
X135000000Y-85000000D03*
G04 #@! TD*
G04 #@! TO.C,J6*
X175000000Y-97500000D03*
D15*
X175000000Y-94960000D03*
X175000000Y-92420000D03*
X175000000Y-89880000D03*
X175000000Y-87340000D03*
X175000000Y-84800000D03*
G04 #@! TD*
D10*
G04 #@! TO.C,R2*
G36*
X151942071Y-113709623D02*
X151974781Y-113714475D01*
X152006857Y-113722509D01*
X152037991Y-113733649D01*
X152067884Y-113747787D01*
X152096247Y-113764787D01*
X152122807Y-113784485D01*
X152147308Y-113806692D01*
X152169515Y-113831193D01*
X152189213Y-113857753D01*
X152206213Y-113886116D01*
X152220351Y-113916009D01*
X152231491Y-113947143D01*
X152239525Y-113979219D01*
X152244377Y-114011929D01*
X152246000Y-114044956D01*
X152246000Y-114921044D01*
X152244377Y-114954071D01*
X152239525Y-114986781D01*
X152231491Y-115018857D01*
X152220351Y-115049991D01*
X152206213Y-115079884D01*
X152189213Y-115108247D01*
X152169515Y-115134807D01*
X152147308Y-115159308D01*
X152122807Y-115181515D01*
X152096247Y-115201213D01*
X152067884Y-115218213D01*
X152037991Y-115232351D01*
X152006857Y-115243491D01*
X151974781Y-115251525D01*
X151942071Y-115256377D01*
X151909044Y-115258000D01*
X150782956Y-115258000D01*
X150749929Y-115256377D01*
X150717219Y-115251525D01*
X150685143Y-115243491D01*
X150654009Y-115232351D01*
X150624116Y-115218213D01*
X150595753Y-115201213D01*
X150569193Y-115181515D01*
X150544692Y-115159308D01*
X150522485Y-115134807D01*
X150502787Y-115108247D01*
X150485787Y-115079884D01*
X150471649Y-115049991D01*
X150460509Y-115018857D01*
X150452475Y-114986781D01*
X150447623Y-114954071D01*
X150446000Y-114921044D01*
X150446000Y-114044956D01*
X150447623Y-114011929D01*
X150452475Y-113979219D01*
X150460509Y-113947143D01*
X150471649Y-113916009D01*
X150485787Y-113886116D01*
X150502787Y-113857753D01*
X150522485Y-113831193D01*
X150544692Y-113806692D01*
X150569193Y-113784485D01*
X150595753Y-113764787D01*
X150624116Y-113747787D01*
X150654009Y-113733649D01*
X150685143Y-113722509D01*
X150717219Y-113714475D01*
X150749929Y-113709623D01*
X150782956Y-113708000D01*
X151909044Y-113708000D01*
X151942071Y-113709623D01*
X151942071Y-113709623D01*
G37*
D20*
X151346000Y-114483000D03*
D10*
G36*
X151942071Y-111659623D02*
X151974781Y-111664475D01*
X152006857Y-111672509D01*
X152037991Y-111683649D01*
X152067884Y-111697787D01*
X152096247Y-111714787D01*
X152122807Y-111734485D01*
X152147308Y-111756692D01*
X152169515Y-111781193D01*
X152189213Y-111807753D01*
X152206213Y-111836116D01*
X152220351Y-111866009D01*
X152231491Y-111897143D01*
X152239525Y-111929219D01*
X152244377Y-111961929D01*
X152246000Y-111994956D01*
X152246000Y-112871044D01*
X152244377Y-112904071D01*
X152239525Y-112936781D01*
X152231491Y-112968857D01*
X152220351Y-112999991D01*
X152206213Y-113029884D01*
X152189213Y-113058247D01*
X152169515Y-113084807D01*
X152147308Y-113109308D01*
X152122807Y-113131515D01*
X152096247Y-113151213D01*
X152067884Y-113168213D01*
X152037991Y-113182351D01*
X152006857Y-113193491D01*
X151974781Y-113201525D01*
X151942071Y-113206377D01*
X151909044Y-113208000D01*
X150782956Y-113208000D01*
X150749929Y-113206377D01*
X150717219Y-113201525D01*
X150685143Y-113193491D01*
X150654009Y-113182351D01*
X150624116Y-113168213D01*
X150595753Y-113151213D01*
X150569193Y-113131515D01*
X150544692Y-113109308D01*
X150522485Y-113084807D01*
X150502787Y-113058247D01*
X150485787Y-113029884D01*
X150471649Y-112999991D01*
X150460509Y-112968857D01*
X150452475Y-112936781D01*
X150447623Y-112904071D01*
X150446000Y-112871044D01*
X150446000Y-111994956D01*
X150447623Y-111961929D01*
X150452475Y-111929219D01*
X150460509Y-111897143D01*
X150471649Y-111866009D01*
X150485787Y-111836116D01*
X150502787Y-111807753D01*
X150522485Y-111781193D01*
X150544692Y-111756692D01*
X150569193Y-111734485D01*
X150595753Y-111714787D01*
X150624116Y-111697787D01*
X150654009Y-111683649D01*
X150685143Y-111672509D01*
X150717219Y-111664475D01*
X150749929Y-111659623D01*
X150782956Y-111658000D01*
X151909044Y-111658000D01*
X151942071Y-111659623D01*
X151942071Y-111659623D01*
G37*
D20*
X151346000Y-112433000D03*
G04 #@! TD*
D10*
G04 #@! TO.C,R7*
G36*
X157795071Y-95795623D02*
X157827781Y-95800475D01*
X157859857Y-95808509D01*
X157890991Y-95819649D01*
X157920884Y-95833787D01*
X157949247Y-95850787D01*
X157975807Y-95870485D01*
X158000308Y-95892692D01*
X158022515Y-95917193D01*
X158042213Y-95943753D01*
X158059213Y-95972116D01*
X158073351Y-96002009D01*
X158084491Y-96033143D01*
X158092525Y-96065219D01*
X158097377Y-96097929D01*
X158099000Y-96130956D01*
X158099000Y-97257044D01*
X158097377Y-97290071D01*
X158092525Y-97322781D01*
X158084491Y-97354857D01*
X158073351Y-97385991D01*
X158059213Y-97415884D01*
X158042213Y-97444247D01*
X158022515Y-97470807D01*
X158000308Y-97495308D01*
X157975807Y-97517515D01*
X157949247Y-97537213D01*
X157920884Y-97554213D01*
X157890991Y-97568351D01*
X157859857Y-97579491D01*
X157827781Y-97587525D01*
X157795071Y-97592377D01*
X157762044Y-97594000D01*
X156885956Y-97594000D01*
X156852929Y-97592377D01*
X156820219Y-97587525D01*
X156788143Y-97579491D01*
X156757009Y-97568351D01*
X156727116Y-97554213D01*
X156698753Y-97537213D01*
X156672193Y-97517515D01*
X156647692Y-97495308D01*
X156625485Y-97470807D01*
X156605787Y-97444247D01*
X156588787Y-97415884D01*
X156574649Y-97385991D01*
X156563509Y-97354857D01*
X156555475Y-97322781D01*
X156550623Y-97290071D01*
X156549000Y-97257044D01*
X156549000Y-96130956D01*
X156550623Y-96097929D01*
X156555475Y-96065219D01*
X156563509Y-96033143D01*
X156574649Y-96002009D01*
X156588787Y-95972116D01*
X156605787Y-95943753D01*
X156625485Y-95917193D01*
X156647692Y-95892692D01*
X156672193Y-95870485D01*
X156698753Y-95850787D01*
X156727116Y-95833787D01*
X156757009Y-95819649D01*
X156788143Y-95808509D01*
X156820219Y-95800475D01*
X156852929Y-95795623D01*
X156885956Y-95794000D01*
X157762044Y-95794000D01*
X157795071Y-95795623D01*
X157795071Y-95795623D01*
G37*
D20*
X157324000Y-96694000D03*
D10*
G36*
X155745071Y-95795623D02*
X155777781Y-95800475D01*
X155809857Y-95808509D01*
X155840991Y-95819649D01*
X155870884Y-95833787D01*
X155899247Y-95850787D01*
X155925807Y-95870485D01*
X155950308Y-95892692D01*
X155972515Y-95917193D01*
X155992213Y-95943753D01*
X156009213Y-95972116D01*
X156023351Y-96002009D01*
X156034491Y-96033143D01*
X156042525Y-96065219D01*
X156047377Y-96097929D01*
X156049000Y-96130956D01*
X156049000Y-97257044D01*
X156047377Y-97290071D01*
X156042525Y-97322781D01*
X156034491Y-97354857D01*
X156023351Y-97385991D01*
X156009213Y-97415884D01*
X155992213Y-97444247D01*
X155972515Y-97470807D01*
X155950308Y-97495308D01*
X155925807Y-97517515D01*
X155899247Y-97537213D01*
X155870884Y-97554213D01*
X155840991Y-97568351D01*
X155809857Y-97579491D01*
X155777781Y-97587525D01*
X155745071Y-97592377D01*
X155712044Y-97594000D01*
X154835956Y-97594000D01*
X154802929Y-97592377D01*
X154770219Y-97587525D01*
X154738143Y-97579491D01*
X154707009Y-97568351D01*
X154677116Y-97554213D01*
X154648753Y-97537213D01*
X154622193Y-97517515D01*
X154597692Y-97495308D01*
X154575485Y-97470807D01*
X154555787Y-97444247D01*
X154538787Y-97415884D01*
X154524649Y-97385991D01*
X154513509Y-97354857D01*
X154505475Y-97322781D01*
X154500623Y-97290071D01*
X154499000Y-97257044D01*
X154499000Y-96130956D01*
X154500623Y-96097929D01*
X154505475Y-96065219D01*
X154513509Y-96033143D01*
X154524649Y-96002009D01*
X154538787Y-95972116D01*
X154555787Y-95943753D01*
X154575485Y-95917193D01*
X154597692Y-95892692D01*
X154622193Y-95870485D01*
X154648753Y-95850787D01*
X154677116Y-95833787D01*
X154707009Y-95819649D01*
X154738143Y-95808509D01*
X154770219Y-95800475D01*
X154802929Y-95795623D01*
X154835956Y-95794000D01*
X155712044Y-95794000D01*
X155745071Y-95795623D01*
X155745071Y-95795623D01*
G37*
D20*
X155274000Y-96694000D03*
G04 #@! TD*
D10*
G04 #@! TO.C,R6*
G36*
X162102071Y-96165623D02*
X162134781Y-96170475D01*
X162166857Y-96178509D01*
X162197991Y-96189649D01*
X162227884Y-96203787D01*
X162256247Y-96220787D01*
X162282807Y-96240485D01*
X162307308Y-96262692D01*
X162329515Y-96287193D01*
X162349213Y-96313753D01*
X162366213Y-96342116D01*
X162380351Y-96372009D01*
X162391491Y-96403143D01*
X162399525Y-96435219D01*
X162404377Y-96467929D01*
X162406000Y-96500956D01*
X162406000Y-97377044D01*
X162404377Y-97410071D01*
X162399525Y-97442781D01*
X162391491Y-97474857D01*
X162380351Y-97505991D01*
X162366213Y-97535884D01*
X162349213Y-97564247D01*
X162329515Y-97590807D01*
X162307308Y-97615308D01*
X162282807Y-97637515D01*
X162256247Y-97657213D01*
X162227884Y-97674213D01*
X162197991Y-97688351D01*
X162166857Y-97699491D01*
X162134781Y-97707525D01*
X162102071Y-97712377D01*
X162069044Y-97714000D01*
X160942956Y-97714000D01*
X160909929Y-97712377D01*
X160877219Y-97707525D01*
X160845143Y-97699491D01*
X160814009Y-97688351D01*
X160784116Y-97674213D01*
X160755753Y-97657213D01*
X160729193Y-97637515D01*
X160704692Y-97615308D01*
X160682485Y-97590807D01*
X160662787Y-97564247D01*
X160645787Y-97535884D01*
X160631649Y-97505991D01*
X160620509Y-97474857D01*
X160612475Y-97442781D01*
X160607623Y-97410071D01*
X160606000Y-97377044D01*
X160606000Y-96500956D01*
X160607623Y-96467929D01*
X160612475Y-96435219D01*
X160620509Y-96403143D01*
X160631649Y-96372009D01*
X160645787Y-96342116D01*
X160662787Y-96313753D01*
X160682485Y-96287193D01*
X160704692Y-96262692D01*
X160729193Y-96240485D01*
X160755753Y-96220787D01*
X160784116Y-96203787D01*
X160814009Y-96189649D01*
X160845143Y-96178509D01*
X160877219Y-96170475D01*
X160909929Y-96165623D01*
X160942956Y-96164000D01*
X162069044Y-96164000D01*
X162102071Y-96165623D01*
X162102071Y-96165623D01*
G37*
D20*
X161506000Y-96939000D03*
D10*
G36*
X162102071Y-98215623D02*
X162134781Y-98220475D01*
X162166857Y-98228509D01*
X162197991Y-98239649D01*
X162227884Y-98253787D01*
X162256247Y-98270787D01*
X162282807Y-98290485D01*
X162307308Y-98312692D01*
X162329515Y-98337193D01*
X162349213Y-98363753D01*
X162366213Y-98392116D01*
X162380351Y-98422009D01*
X162391491Y-98453143D01*
X162399525Y-98485219D01*
X162404377Y-98517929D01*
X162406000Y-98550956D01*
X162406000Y-99427044D01*
X162404377Y-99460071D01*
X162399525Y-99492781D01*
X162391491Y-99524857D01*
X162380351Y-99555991D01*
X162366213Y-99585884D01*
X162349213Y-99614247D01*
X162329515Y-99640807D01*
X162307308Y-99665308D01*
X162282807Y-99687515D01*
X162256247Y-99707213D01*
X162227884Y-99724213D01*
X162197991Y-99738351D01*
X162166857Y-99749491D01*
X162134781Y-99757525D01*
X162102071Y-99762377D01*
X162069044Y-99764000D01*
X160942956Y-99764000D01*
X160909929Y-99762377D01*
X160877219Y-99757525D01*
X160845143Y-99749491D01*
X160814009Y-99738351D01*
X160784116Y-99724213D01*
X160755753Y-99707213D01*
X160729193Y-99687515D01*
X160704692Y-99665308D01*
X160682485Y-99640807D01*
X160662787Y-99614247D01*
X160645787Y-99585884D01*
X160631649Y-99555991D01*
X160620509Y-99524857D01*
X160612475Y-99492781D01*
X160607623Y-99460071D01*
X160606000Y-99427044D01*
X160606000Y-98550956D01*
X160607623Y-98517929D01*
X160612475Y-98485219D01*
X160620509Y-98453143D01*
X160631649Y-98422009D01*
X160645787Y-98392116D01*
X160662787Y-98363753D01*
X160682485Y-98337193D01*
X160704692Y-98312692D01*
X160729193Y-98290485D01*
X160755753Y-98270787D01*
X160784116Y-98253787D01*
X160814009Y-98239649D01*
X160845143Y-98228509D01*
X160877219Y-98220475D01*
X160909929Y-98215623D01*
X160942956Y-98214000D01*
X162069044Y-98214000D01*
X162102071Y-98215623D01*
X162102071Y-98215623D01*
G37*
D20*
X161506000Y-98989000D03*
G04 #@! TD*
D10*
G04 #@! TO.C,R5*
G36*
X155625071Y-113582623D02*
X155657781Y-113587475D01*
X155689857Y-113595509D01*
X155720991Y-113606649D01*
X155750884Y-113620787D01*
X155779247Y-113637787D01*
X155805807Y-113657485D01*
X155830308Y-113679692D01*
X155852515Y-113704193D01*
X155872213Y-113730753D01*
X155889213Y-113759116D01*
X155903351Y-113789009D01*
X155914491Y-113820143D01*
X155922525Y-113852219D01*
X155927377Y-113884929D01*
X155929000Y-113917956D01*
X155929000Y-114794044D01*
X155927377Y-114827071D01*
X155922525Y-114859781D01*
X155914491Y-114891857D01*
X155903351Y-114922991D01*
X155889213Y-114952884D01*
X155872213Y-114981247D01*
X155852515Y-115007807D01*
X155830308Y-115032308D01*
X155805807Y-115054515D01*
X155779247Y-115074213D01*
X155750884Y-115091213D01*
X155720991Y-115105351D01*
X155689857Y-115116491D01*
X155657781Y-115124525D01*
X155625071Y-115129377D01*
X155592044Y-115131000D01*
X154465956Y-115131000D01*
X154432929Y-115129377D01*
X154400219Y-115124525D01*
X154368143Y-115116491D01*
X154337009Y-115105351D01*
X154307116Y-115091213D01*
X154278753Y-115074213D01*
X154252193Y-115054515D01*
X154227692Y-115032308D01*
X154205485Y-115007807D01*
X154185787Y-114981247D01*
X154168787Y-114952884D01*
X154154649Y-114922991D01*
X154143509Y-114891857D01*
X154135475Y-114859781D01*
X154130623Y-114827071D01*
X154129000Y-114794044D01*
X154129000Y-113917956D01*
X154130623Y-113884929D01*
X154135475Y-113852219D01*
X154143509Y-113820143D01*
X154154649Y-113789009D01*
X154168787Y-113759116D01*
X154185787Y-113730753D01*
X154205485Y-113704193D01*
X154227692Y-113679692D01*
X154252193Y-113657485D01*
X154278753Y-113637787D01*
X154307116Y-113620787D01*
X154337009Y-113606649D01*
X154368143Y-113595509D01*
X154400219Y-113587475D01*
X154432929Y-113582623D01*
X154465956Y-113581000D01*
X155592044Y-113581000D01*
X155625071Y-113582623D01*
X155625071Y-113582623D01*
G37*
D20*
X155029000Y-114356000D03*
D10*
G36*
X155625071Y-111532623D02*
X155657781Y-111537475D01*
X155689857Y-111545509D01*
X155720991Y-111556649D01*
X155750884Y-111570787D01*
X155779247Y-111587787D01*
X155805807Y-111607485D01*
X155830308Y-111629692D01*
X155852515Y-111654193D01*
X155872213Y-111680753D01*
X155889213Y-111709116D01*
X155903351Y-111739009D01*
X155914491Y-111770143D01*
X155922525Y-111802219D01*
X155927377Y-111834929D01*
X155929000Y-111867956D01*
X155929000Y-112744044D01*
X155927377Y-112777071D01*
X155922525Y-112809781D01*
X155914491Y-112841857D01*
X155903351Y-112872991D01*
X155889213Y-112902884D01*
X155872213Y-112931247D01*
X155852515Y-112957807D01*
X155830308Y-112982308D01*
X155805807Y-113004515D01*
X155779247Y-113024213D01*
X155750884Y-113041213D01*
X155720991Y-113055351D01*
X155689857Y-113066491D01*
X155657781Y-113074525D01*
X155625071Y-113079377D01*
X155592044Y-113081000D01*
X154465956Y-113081000D01*
X154432929Y-113079377D01*
X154400219Y-113074525D01*
X154368143Y-113066491D01*
X154337009Y-113055351D01*
X154307116Y-113041213D01*
X154278753Y-113024213D01*
X154252193Y-113004515D01*
X154227692Y-112982308D01*
X154205485Y-112957807D01*
X154185787Y-112931247D01*
X154168787Y-112902884D01*
X154154649Y-112872991D01*
X154143509Y-112841857D01*
X154135475Y-112809781D01*
X154130623Y-112777071D01*
X154129000Y-112744044D01*
X154129000Y-111867956D01*
X154130623Y-111834929D01*
X154135475Y-111802219D01*
X154143509Y-111770143D01*
X154154649Y-111739009D01*
X154168787Y-111709116D01*
X154185787Y-111680753D01*
X154205485Y-111654193D01*
X154227692Y-111629692D01*
X154252193Y-111607485D01*
X154278753Y-111587787D01*
X154307116Y-111570787D01*
X154337009Y-111556649D01*
X154368143Y-111545509D01*
X154400219Y-111537475D01*
X154432929Y-111532623D01*
X154465956Y-111531000D01*
X155592044Y-111531000D01*
X155625071Y-111532623D01*
X155625071Y-111532623D01*
G37*
D20*
X155029000Y-112306000D03*
G04 #@! TD*
D10*
G04 #@! TO.C,R3*
G36*
X167944071Y-113201623D02*
X167976781Y-113206475D01*
X168008857Y-113214509D01*
X168039991Y-113225649D01*
X168069884Y-113239787D01*
X168098247Y-113256787D01*
X168124807Y-113276485D01*
X168149308Y-113298692D01*
X168171515Y-113323193D01*
X168191213Y-113349753D01*
X168208213Y-113378116D01*
X168222351Y-113408009D01*
X168233491Y-113439143D01*
X168241525Y-113471219D01*
X168246377Y-113503929D01*
X168248000Y-113536956D01*
X168248000Y-114413044D01*
X168246377Y-114446071D01*
X168241525Y-114478781D01*
X168233491Y-114510857D01*
X168222351Y-114541991D01*
X168208213Y-114571884D01*
X168191213Y-114600247D01*
X168171515Y-114626807D01*
X168149308Y-114651308D01*
X168124807Y-114673515D01*
X168098247Y-114693213D01*
X168069884Y-114710213D01*
X168039991Y-114724351D01*
X168008857Y-114735491D01*
X167976781Y-114743525D01*
X167944071Y-114748377D01*
X167911044Y-114750000D01*
X166784956Y-114750000D01*
X166751929Y-114748377D01*
X166719219Y-114743525D01*
X166687143Y-114735491D01*
X166656009Y-114724351D01*
X166626116Y-114710213D01*
X166597753Y-114693213D01*
X166571193Y-114673515D01*
X166546692Y-114651308D01*
X166524485Y-114626807D01*
X166504787Y-114600247D01*
X166487787Y-114571884D01*
X166473649Y-114541991D01*
X166462509Y-114510857D01*
X166454475Y-114478781D01*
X166449623Y-114446071D01*
X166448000Y-114413044D01*
X166448000Y-113536956D01*
X166449623Y-113503929D01*
X166454475Y-113471219D01*
X166462509Y-113439143D01*
X166473649Y-113408009D01*
X166487787Y-113378116D01*
X166504787Y-113349753D01*
X166524485Y-113323193D01*
X166546692Y-113298692D01*
X166571193Y-113276485D01*
X166597753Y-113256787D01*
X166626116Y-113239787D01*
X166656009Y-113225649D01*
X166687143Y-113214509D01*
X166719219Y-113206475D01*
X166751929Y-113201623D01*
X166784956Y-113200000D01*
X167911044Y-113200000D01*
X167944071Y-113201623D01*
X167944071Y-113201623D01*
G37*
D20*
X167348000Y-113975000D03*
D10*
G36*
X167944071Y-115251623D02*
X167976781Y-115256475D01*
X168008857Y-115264509D01*
X168039991Y-115275649D01*
X168069884Y-115289787D01*
X168098247Y-115306787D01*
X168124807Y-115326485D01*
X168149308Y-115348692D01*
X168171515Y-115373193D01*
X168191213Y-115399753D01*
X168208213Y-115428116D01*
X168222351Y-115458009D01*
X168233491Y-115489143D01*
X168241525Y-115521219D01*
X168246377Y-115553929D01*
X168248000Y-115586956D01*
X168248000Y-116463044D01*
X168246377Y-116496071D01*
X168241525Y-116528781D01*
X168233491Y-116560857D01*
X168222351Y-116591991D01*
X168208213Y-116621884D01*
X168191213Y-116650247D01*
X168171515Y-116676807D01*
X168149308Y-116701308D01*
X168124807Y-116723515D01*
X168098247Y-116743213D01*
X168069884Y-116760213D01*
X168039991Y-116774351D01*
X168008857Y-116785491D01*
X167976781Y-116793525D01*
X167944071Y-116798377D01*
X167911044Y-116800000D01*
X166784956Y-116800000D01*
X166751929Y-116798377D01*
X166719219Y-116793525D01*
X166687143Y-116785491D01*
X166656009Y-116774351D01*
X166626116Y-116760213D01*
X166597753Y-116743213D01*
X166571193Y-116723515D01*
X166546692Y-116701308D01*
X166524485Y-116676807D01*
X166504787Y-116650247D01*
X166487787Y-116621884D01*
X166473649Y-116591991D01*
X166462509Y-116560857D01*
X166454475Y-116528781D01*
X166449623Y-116496071D01*
X166448000Y-116463044D01*
X166448000Y-115586956D01*
X166449623Y-115553929D01*
X166454475Y-115521219D01*
X166462509Y-115489143D01*
X166473649Y-115458009D01*
X166487787Y-115428116D01*
X166504787Y-115399753D01*
X166524485Y-115373193D01*
X166546692Y-115348692D01*
X166571193Y-115326485D01*
X166597753Y-115306787D01*
X166626116Y-115289787D01*
X166656009Y-115275649D01*
X166687143Y-115264509D01*
X166719219Y-115256475D01*
X166751929Y-115251623D01*
X166784956Y-115250000D01*
X167911044Y-115250000D01*
X167944071Y-115251623D01*
X167944071Y-115251623D01*
G37*
D20*
X167348000Y-116025000D03*
G04 #@! TD*
D10*
G04 #@! TO.C,R1*
G36*
X149656071Y-111659623D02*
X149688781Y-111664475D01*
X149720857Y-111672509D01*
X149751991Y-111683649D01*
X149781884Y-111697787D01*
X149810247Y-111714787D01*
X149836807Y-111734485D01*
X149861308Y-111756692D01*
X149883515Y-111781193D01*
X149903213Y-111807753D01*
X149920213Y-111836116D01*
X149934351Y-111866009D01*
X149945491Y-111897143D01*
X149953525Y-111929219D01*
X149958377Y-111961929D01*
X149960000Y-111994956D01*
X149960000Y-112871044D01*
X149958377Y-112904071D01*
X149953525Y-112936781D01*
X149945491Y-112968857D01*
X149934351Y-112999991D01*
X149920213Y-113029884D01*
X149903213Y-113058247D01*
X149883515Y-113084807D01*
X149861308Y-113109308D01*
X149836807Y-113131515D01*
X149810247Y-113151213D01*
X149781884Y-113168213D01*
X149751991Y-113182351D01*
X149720857Y-113193491D01*
X149688781Y-113201525D01*
X149656071Y-113206377D01*
X149623044Y-113208000D01*
X148496956Y-113208000D01*
X148463929Y-113206377D01*
X148431219Y-113201525D01*
X148399143Y-113193491D01*
X148368009Y-113182351D01*
X148338116Y-113168213D01*
X148309753Y-113151213D01*
X148283193Y-113131515D01*
X148258692Y-113109308D01*
X148236485Y-113084807D01*
X148216787Y-113058247D01*
X148199787Y-113029884D01*
X148185649Y-112999991D01*
X148174509Y-112968857D01*
X148166475Y-112936781D01*
X148161623Y-112904071D01*
X148160000Y-112871044D01*
X148160000Y-111994956D01*
X148161623Y-111961929D01*
X148166475Y-111929219D01*
X148174509Y-111897143D01*
X148185649Y-111866009D01*
X148199787Y-111836116D01*
X148216787Y-111807753D01*
X148236485Y-111781193D01*
X148258692Y-111756692D01*
X148283193Y-111734485D01*
X148309753Y-111714787D01*
X148338116Y-111697787D01*
X148368009Y-111683649D01*
X148399143Y-111672509D01*
X148431219Y-111664475D01*
X148463929Y-111659623D01*
X148496956Y-111658000D01*
X149623044Y-111658000D01*
X149656071Y-111659623D01*
X149656071Y-111659623D01*
G37*
D20*
X149060000Y-112433000D03*
D10*
G36*
X149656071Y-113709623D02*
X149688781Y-113714475D01*
X149720857Y-113722509D01*
X149751991Y-113733649D01*
X149781884Y-113747787D01*
X149810247Y-113764787D01*
X149836807Y-113784485D01*
X149861308Y-113806692D01*
X149883515Y-113831193D01*
X149903213Y-113857753D01*
X149920213Y-113886116D01*
X149934351Y-113916009D01*
X149945491Y-113947143D01*
X149953525Y-113979219D01*
X149958377Y-114011929D01*
X149960000Y-114044956D01*
X149960000Y-114921044D01*
X149958377Y-114954071D01*
X149953525Y-114986781D01*
X149945491Y-115018857D01*
X149934351Y-115049991D01*
X149920213Y-115079884D01*
X149903213Y-115108247D01*
X149883515Y-115134807D01*
X149861308Y-115159308D01*
X149836807Y-115181515D01*
X149810247Y-115201213D01*
X149781884Y-115218213D01*
X149751991Y-115232351D01*
X149720857Y-115243491D01*
X149688781Y-115251525D01*
X149656071Y-115256377D01*
X149623044Y-115258000D01*
X148496956Y-115258000D01*
X148463929Y-115256377D01*
X148431219Y-115251525D01*
X148399143Y-115243491D01*
X148368009Y-115232351D01*
X148338116Y-115218213D01*
X148309753Y-115201213D01*
X148283193Y-115181515D01*
X148258692Y-115159308D01*
X148236485Y-115134807D01*
X148216787Y-115108247D01*
X148199787Y-115079884D01*
X148185649Y-115049991D01*
X148174509Y-115018857D01*
X148166475Y-114986781D01*
X148161623Y-114954071D01*
X148160000Y-114921044D01*
X148160000Y-114044956D01*
X148161623Y-114011929D01*
X148166475Y-113979219D01*
X148174509Y-113947143D01*
X148185649Y-113916009D01*
X148199787Y-113886116D01*
X148216787Y-113857753D01*
X148236485Y-113831193D01*
X148258692Y-113806692D01*
X148283193Y-113784485D01*
X148309753Y-113764787D01*
X148338116Y-113747787D01*
X148368009Y-113733649D01*
X148399143Y-113722509D01*
X148431219Y-113714475D01*
X148463929Y-113709623D01*
X148496956Y-113708000D01*
X149623044Y-113708000D01*
X149656071Y-113709623D01*
X149656071Y-113709623D01*
G37*
D20*
X149060000Y-114483000D03*
G04 #@! TD*
D10*
G04 #@! TO.C,R4*
G36*
X165912071Y-113201623D02*
X165944781Y-113206475D01*
X165976857Y-113214509D01*
X166007991Y-113225649D01*
X166037884Y-113239787D01*
X166066247Y-113256787D01*
X166092807Y-113276485D01*
X166117308Y-113298692D01*
X166139515Y-113323193D01*
X166159213Y-113349753D01*
X166176213Y-113378116D01*
X166190351Y-113408009D01*
X166201491Y-113439143D01*
X166209525Y-113471219D01*
X166214377Y-113503929D01*
X166216000Y-113536956D01*
X166216000Y-114413044D01*
X166214377Y-114446071D01*
X166209525Y-114478781D01*
X166201491Y-114510857D01*
X166190351Y-114541991D01*
X166176213Y-114571884D01*
X166159213Y-114600247D01*
X166139515Y-114626807D01*
X166117308Y-114651308D01*
X166092807Y-114673515D01*
X166066247Y-114693213D01*
X166037884Y-114710213D01*
X166007991Y-114724351D01*
X165976857Y-114735491D01*
X165944781Y-114743525D01*
X165912071Y-114748377D01*
X165879044Y-114750000D01*
X164752956Y-114750000D01*
X164719929Y-114748377D01*
X164687219Y-114743525D01*
X164655143Y-114735491D01*
X164624009Y-114724351D01*
X164594116Y-114710213D01*
X164565753Y-114693213D01*
X164539193Y-114673515D01*
X164514692Y-114651308D01*
X164492485Y-114626807D01*
X164472787Y-114600247D01*
X164455787Y-114571884D01*
X164441649Y-114541991D01*
X164430509Y-114510857D01*
X164422475Y-114478781D01*
X164417623Y-114446071D01*
X164416000Y-114413044D01*
X164416000Y-113536956D01*
X164417623Y-113503929D01*
X164422475Y-113471219D01*
X164430509Y-113439143D01*
X164441649Y-113408009D01*
X164455787Y-113378116D01*
X164472787Y-113349753D01*
X164492485Y-113323193D01*
X164514692Y-113298692D01*
X164539193Y-113276485D01*
X164565753Y-113256787D01*
X164594116Y-113239787D01*
X164624009Y-113225649D01*
X164655143Y-113214509D01*
X164687219Y-113206475D01*
X164719929Y-113201623D01*
X164752956Y-113200000D01*
X165879044Y-113200000D01*
X165912071Y-113201623D01*
X165912071Y-113201623D01*
G37*
D20*
X165316000Y-113975000D03*
D10*
G36*
X165912071Y-115251623D02*
X165944781Y-115256475D01*
X165976857Y-115264509D01*
X166007991Y-115275649D01*
X166037884Y-115289787D01*
X166066247Y-115306787D01*
X166092807Y-115326485D01*
X166117308Y-115348692D01*
X166139515Y-115373193D01*
X166159213Y-115399753D01*
X166176213Y-115428116D01*
X166190351Y-115458009D01*
X166201491Y-115489143D01*
X166209525Y-115521219D01*
X166214377Y-115553929D01*
X166216000Y-115586956D01*
X166216000Y-116463044D01*
X166214377Y-116496071D01*
X166209525Y-116528781D01*
X166201491Y-116560857D01*
X166190351Y-116591991D01*
X166176213Y-116621884D01*
X166159213Y-116650247D01*
X166139515Y-116676807D01*
X166117308Y-116701308D01*
X166092807Y-116723515D01*
X166066247Y-116743213D01*
X166037884Y-116760213D01*
X166007991Y-116774351D01*
X165976857Y-116785491D01*
X165944781Y-116793525D01*
X165912071Y-116798377D01*
X165879044Y-116800000D01*
X164752956Y-116800000D01*
X164719929Y-116798377D01*
X164687219Y-116793525D01*
X164655143Y-116785491D01*
X164624009Y-116774351D01*
X164594116Y-116760213D01*
X164565753Y-116743213D01*
X164539193Y-116723515D01*
X164514692Y-116701308D01*
X164492485Y-116676807D01*
X164472787Y-116650247D01*
X164455787Y-116621884D01*
X164441649Y-116591991D01*
X164430509Y-116560857D01*
X164422475Y-116528781D01*
X164417623Y-116496071D01*
X164416000Y-116463044D01*
X164416000Y-115586956D01*
X164417623Y-115553929D01*
X164422475Y-115521219D01*
X164430509Y-115489143D01*
X164441649Y-115458009D01*
X164455787Y-115428116D01*
X164472787Y-115399753D01*
X164492485Y-115373193D01*
X164514692Y-115348692D01*
X164539193Y-115326485D01*
X164565753Y-115306787D01*
X164594116Y-115289787D01*
X164624009Y-115275649D01*
X164655143Y-115264509D01*
X164687219Y-115256475D01*
X164719929Y-115251623D01*
X164752956Y-115250000D01*
X165879044Y-115250000D01*
X165912071Y-115251623D01*
X165912071Y-115251623D01*
G37*
D20*
X165316000Y-116025000D03*
G04 #@! TD*
D10*
G04 #@! TO.C,C1*
G36*
X145204071Y-103161623D02*
X145236781Y-103166475D01*
X145268857Y-103174509D01*
X145299991Y-103185649D01*
X145329884Y-103199787D01*
X145358247Y-103216787D01*
X145384807Y-103236485D01*
X145409308Y-103258692D01*
X145431515Y-103283193D01*
X145451213Y-103309753D01*
X145468213Y-103338116D01*
X145482351Y-103368009D01*
X145493491Y-103399143D01*
X145501525Y-103431219D01*
X145506377Y-103463929D01*
X145508000Y-103496956D01*
X145508000Y-104623044D01*
X145506377Y-104656071D01*
X145501525Y-104688781D01*
X145493491Y-104720857D01*
X145482351Y-104751991D01*
X145468213Y-104781884D01*
X145451213Y-104810247D01*
X145431515Y-104836807D01*
X145409308Y-104861308D01*
X145384807Y-104883515D01*
X145358247Y-104903213D01*
X145329884Y-104920213D01*
X145299991Y-104934351D01*
X145268857Y-104945491D01*
X145236781Y-104953525D01*
X145204071Y-104958377D01*
X145171044Y-104960000D01*
X144294956Y-104960000D01*
X144261929Y-104958377D01*
X144229219Y-104953525D01*
X144197143Y-104945491D01*
X144166009Y-104934351D01*
X144136116Y-104920213D01*
X144107753Y-104903213D01*
X144081193Y-104883515D01*
X144056692Y-104861308D01*
X144034485Y-104836807D01*
X144014787Y-104810247D01*
X143997787Y-104781884D01*
X143983649Y-104751991D01*
X143972509Y-104720857D01*
X143964475Y-104688781D01*
X143959623Y-104656071D01*
X143958000Y-104623044D01*
X143958000Y-103496956D01*
X143959623Y-103463929D01*
X143964475Y-103431219D01*
X143972509Y-103399143D01*
X143983649Y-103368009D01*
X143997787Y-103338116D01*
X144014787Y-103309753D01*
X144034485Y-103283193D01*
X144056692Y-103258692D01*
X144081193Y-103236485D01*
X144107753Y-103216787D01*
X144136116Y-103199787D01*
X144166009Y-103185649D01*
X144197143Y-103174509D01*
X144229219Y-103166475D01*
X144261929Y-103161623D01*
X144294956Y-103160000D01*
X145171044Y-103160000D01*
X145204071Y-103161623D01*
X145204071Y-103161623D01*
G37*
D20*
X144733000Y-104060000D03*
D10*
G36*
X147254071Y-103161623D02*
X147286781Y-103166475D01*
X147318857Y-103174509D01*
X147349991Y-103185649D01*
X147379884Y-103199787D01*
X147408247Y-103216787D01*
X147434807Y-103236485D01*
X147459308Y-103258692D01*
X147481515Y-103283193D01*
X147501213Y-103309753D01*
X147518213Y-103338116D01*
X147532351Y-103368009D01*
X147543491Y-103399143D01*
X147551525Y-103431219D01*
X147556377Y-103463929D01*
X147558000Y-103496956D01*
X147558000Y-104623044D01*
X147556377Y-104656071D01*
X147551525Y-104688781D01*
X147543491Y-104720857D01*
X147532351Y-104751991D01*
X147518213Y-104781884D01*
X147501213Y-104810247D01*
X147481515Y-104836807D01*
X147459308Y-104861308D01*
X147434807Y-104883515D01*
X147408247Y-104903213D01*
X147379884Y-104920213D01*
X147349991Y-104934351D01*
X147318857Y-104945491D01*
X147286781Y-104953525D01*
X147254071Y-104958377D01*
X147221044Y-104960000D01*
X146344956Y-104960000D01*
X146311929Y-104958377D01*
X146279219Y-104953525D01*
X146247143Y-104945491D01*
X146216009Y-104934351D01*
X146186116Y-104920213D01*
X146157753Y-104903213D01*
X146131193Y-104883515D01*
X146106692Y-104861308D01*
X146084485Y-104836807D01*
X146064787Y-104810247D01*
X146047787Y-104781884D01*
X146033649Y-104751991D01*
X146022509Y-104720857D01*
X146014475Y-104688781D01*
X146009623Y-104656071D01*
X146008000Y-104623044D01*
X146008000Y-103496956D01*
X146009623Y-103463929D01*
X146014475Y-103431219D01*
X146022509Y-103399143D01*
X146033649Y-103368009D01*
X146047787Y-103338116D01*
X146064787Y-103309753D01*
X146084485Y-103283193D01*
X146106692Y-103258692D01*
X146131193Y-103236485D01*
X146157753Y-103216787D01*
X146186116Y-103199787D01*
X146216009Y-103185649D01*
X146247143Y-103174509D01*
X146279219Y-103166475D01*
X146311929Y-103161623D01*
X146344956Y-103160000D01*
X147221044Y-103160000D01*
X147254071Y-103161623D01*
X147254071Y-103161623D01*
G37*
D20*
X146783000Y-104060000D03*
G04 #@! TD*
D10*
G04 #@! TO.C,C2*
G36*
X164134071Y-98215623D02*
X164166781Y-98220475D01*
X164198857Y-98228509D01*
X164229991Y-98239649D01*
X164259884Y-98253787D01*
X164288247Y-98270787D01*
X164314807Y-98290485D01*
X164339308Y-98312692D01*
X164361515Y-98337193D01*
X164381213Y-98363753D01*
X164398213Y-98392116D01*
X164412351Y-98422009D01*
X164423491Y-98453143D01*
X164431525Y-98485219D01*
X164436377Y-98517929D01*
X164438000Y-98550956D01*
X164438000Y-99427044D01*
X164436377Y-99460071D01*
X164431525Y-99492781D01*
X164423491Y-99524857D01*
X164412351Y-99555991D01*
X164398213Y-99585884D01*
X164381213Y-99614247D01*
X164361515Y-99640807D01*
X164339308Y-99665308D01*
X164314807Y-99687515D01*
X164288247Y-99707213D01*
X164259884Y-99724213D01*
X164229991Y-99738351D01*
X164198857Y-99749491D01*
X164166781Y-99757525D01*
X164134071Y-99762377D01*
X164101044Y-99764000D01*
X162974956Y-99764000D01*
X162941929Y-99762377D01*
X162909219Y-99757525D01*
X162877143Y-99749491D01*
X162846009Y-99738351D01*
X162816116Y-99724213D01*
X162787753Y-99707213D01*
X162761193Y-99687515D01*
X162736692Y-99665308D01*
X162714485Y-99640807D01*
X162694787Y-99614247D01*
X162677787Y-99585884D01*
X162663649Y-99555991D01*
X162652509Y-99524857D01*
X162644475Y-99492781D01*
X162639623Y-99460071D01*
X162638000Y-99427044D01*
X162638000Y-98550956D01*
X162639623Y-98517929D01*
X162644475Y-98485219D01*
X162652509Y-98453143D01*
X162663649Y-98422009D01*
X162677787Y-98392116D01*
X162694787Y-98363753D01*
X162714485Y-98337193D01*
X162736692Y-98312692D01*
X162761193Y-98290485D01*
X162787753Y-98270787D01*
X162816116Y-98253787D01*
X162846009Y-98239649D01*
X162877143Y-98228509D01*
X162909219Y-98220475D01*
X162941929Y-98215623D01*
X162974956Y-98214000D01*
X164101044Y-98214000D01*
X164134071Y-98215623D01*
X164134071Y-98215623D01*
G37*
D20*
X163538000Y-98989000D03*
D10*
G36*
X164134071Y-96165623D02*
X164166781Y-96170475D01*
X164198857Y-96178509D01*
X164229991Y-96189649D01*
X164259884Y-96203787D01*
X164288247Y-96220787D01*
X164314807Y-96240485D01*
X164339308Y-96262692D01*
X164361515Y-96287193D01*
X164381213Y-96313753D01*
X164398213Y-96342116D01*
X164412351Y-96372009D01*
X164423491Y-96403143D01*
X164431525Y-96435219D01*
X164436377Y-96467929D01*
X164438000Y-96500956D01*
X164438000Y-97377044D01*
X164436377Y-97410071D01*
X164431525Y-97442781D01*
X164423491Y-97474857D01*
X164412351Y-97505991D01*
X164398213Y-97535884D01*
X164381213Y-97564247D01*
X164361515Y-97590807D01*
X164339308Y-97615308D01*
X164314807Y-97637515D01*
X164288247Y-97657213D01*
X164259884Y-97674213D01*
X164229991Y-97688351D01*
X164198857Y-97699491D01*
X164166781Y-97707525D01*
X164134071Y-97712377D01*
X164101044Y-97714000D01*
X162974956Y-97714000D01*
X162941929Y-97712377D01*
X162909219Y-97707525D01*
X162877143Y-97699491D01*
X162846009Y-97688351D01*
X162816116Y-97674213D01*
X162787753Y-97657213D01*
X162761193Y-97637515D01*
X162736692Y-97615308D01*
X162714485Y-97590807D01*
X162694787Y-97564247D01*
X162677787Y-97535884D01*
X162663649Y-97505991D01*
X162652509Y-97474857D01*
X162644475Y-97442781D01*
X162639623Y-97410071D01*
X162638000Y-97377044D01*
X162638000Y-96500956D01*
X162639623Y-96467929D01*
X162644475Y-96435219D01*
X162652509Y-96403143D01*
X162663649Y-96372009D01*
X162677787Y-96342116D01*
X162694787Y-96313753D01*
X162714485Y-96287193D01*
X162736692Y-96262692D01*
X162761193Y-96240485D01*
X162787753Y-96220787D01*
X162816116Y-96203787D01*
X162846009Y-96189649D01*
X162877143Y-96178509D01*
X162909219Y-96170475D01*
X162941929Y-96165623D01*
X162974956Y-96164000D01*
X164101044Y-96164000D01*
X164134071Y-96165623D01*
X164134071Y-96165623D01*
G37*
D20*
X163538000Y-96939000D03*
G04 #@! TD*
D10*
G04 #@! TO.C,C3*
G36*
X145596071Y-106501623D02*
X145628781Y-106506475D01*
X145660857Y-106514509D01*
X145691991Y-106525649D01*
X145721884Y-106539787D01*
X145750247Y-106556787D01*
X145776807Y-106576485D01*
X145801308Y-106598692D01*
X145823515Y-106623193D01*
X145843213Y-106649753D01*
X145860213Y-106678116D01*
X145874351Y-106708009D01*
X145885491Y-106739143D01*
X145893525Y-106771219D01*
X145898377Y-106803929D01*
X145900000Y-106836956D01*
X145900000Y-107963044D01*
X145898377Y-107996071D01*
X145893525Y-108028781D01*
X145885491Y-108060857D01*
X145874351Y-108091991D01*
X145860213Y-108121884D01*
X145843213Y-108150247D01*
X145823515Y-108176807D01*
X145801308Y-108201308D01*
X145776807Y-108223515D01*
X145750247Y-108243213D01*
X145721884Y-108260213D01*
X145691991Y-108274351D01*
X145660857Y-108285491D01*
X145628781Y-108293525D01*
X145596071Y-108298377D01*
X145563044Y-108300000D01*
X144686956Y-108300000D01*
X144653929Y-108298377D01*
X144621219Y-108293525D01*
X144589143Y-108285491D01*
X144558009Y-108274351D01*
X144528116Y-108260213D01*
X144499753Y-108243213D01*
X144473193Y-108223515D01*
X144448692Y-108201308D01*
X144426485Y-108176807D01*
X144406787Y-108150247D01*
X144389787Y-108121884D01*
X144375649Y-108091991D01*
X144364509Y-108060857D01*
X144356475Y-108028781D01*
X144351623Y-107996071D01*
X144350000Y-107963044D01*
X144350000Y-106836956D01*
X144351623Y-106803929D01*
X144356475Y-106771219D01*
X144364509Y-106739143D01*
X144375649Y-106708009D01*
X144389787Y-106678116D01*
X144406787Y-106649753D01*
X144426485Y-106623193D01*
X144448692Y-106598692D01*
X144473193Y-106576485D01*
X144499753Y-106556787D01*
X144528116Y-106539787D01*
X144558009Y-106525649D01*
X144589143Y-106514509D01*
X144621219Y-106506475D01*
X144653929Y-106501623D01*
X144686956Y-106500000D01*
X145563044Y-106500000D01*
X145596071Y-106501623D01*
X145596071Y-106501623D01*
G37*
D20*
X145125000Y-107400000D03*
D10*
G36*
X143546071Y-106501623D02*
X143578781Y-106506475D01*
X143610857Y-106514509D01*
X143641991Y-106525649D01*
X143671884Y-106539787D01*
X143700247Y-106556787D01*
X143726807Y-106576485D01*
X143751308Y-106598692D01*
X143773515Y-106623193D01*
X143793213Y-106649753D01*
X143810213Y-106678116D01*
X143824351Y-106708009D01*
X143835491Y-106739143D01*
X143843525Y-106771219D01*
X143848377Y-106803929D01*
X143850000Y-106836956D01*
X143850000Y-107963044D01*
X143848377Y-107996071D01*
X143843525Y-108028781D01*
X143835491Y-108060857D01*
X143824351Y-108091991D01*
X143810213Y-108121884D01*
X143793213Y-108150247D01*
X143773515Y-108176807D01*
X143751308Y-108201308D01*
X143726807Y-108223515D01*
X143700247Y-108243213D01*
X143671884Y-108260213D01*
X143641991Y-108274351D01*
X143610857Y-108285491D01*
X143578781Y-108293525D01*
X143546071Y-108298377D01*
X143513044Y-108300000D01*
X142636956Y-108300000D01*
X142603929Y-108298377D01*
X142571219Y-108293525D01*
X142539143Y-108285491D01*
X142508009Y-108274351D01*
X142478116Y-108260213D01*
X142449753Y-108243213D01*
X142423193Y-108223515D01*
X142398692Y-108201308D01*
X142376485Y-108176807D01*
X142356787Y-108150247D01*
X142339787Y-108121884D01*
X142325649Y-108091991D01*
X142314509Y-108060857D01*
X142306475Y-108028781D01*
X142301623Y-107996071D01*
X142300000Y-107963044D01*
X142300000Y-106836956D01*
X142301623Y-106803929D01*
X142306475Y-106771219D01*
X142314509Y-106739143D01*
X142325649Y-106708009D01*
X142339787Y-106678116D01*
X142356787Y-106649753D01*
X142376485Y-106623193D01*
X142398692Y-106598692D01*
X142423193Y-106576485D01*
X142449753Y-106556787D01*
X142478116Y-106539787D01*
X142508009Y-106525649D01*
X142539143Y-106514509D01*
X142571219Y-106506475D01*
X142603929Y-106501623D01*
X142636956Y-106500000D01*
X143513044Y-106500000D01*
X143546071Y-106501623D01*
X143546071Y-106501623D01*
G37*
D20*
X143075000Y-107400000D03*
G04 #@! TD*
D10*
G04 #@! TO.C,C4*
G36*
X148513071Y-86005623D02*
X148545781Y-86010475D01*
X148577857Y-86018509D01*
X148608991Y-86029649D01*
X148638884Y-86043787D01*
X148667247Y-86060787D01*
X148693807Y-86080485D01*
X148718308Y-86102692D01*
X148740515Y-86127193D01*
X148760213Y-86153753D01*
X148777213Y-86182116D01*
X148791351Y-86212009D01*
X148802491Y-86243143D01*
X148810525Y-86275219D01*
X148815377Y-86307929D01*
X148817000Y-86340956D01*
X148817000Y-87217044D01*
X148815377Y-87250071D01*
X148810525Y-87282781D01*
X148802491Y-87314857D01*
X148791351Y-87345991D01*
X148777213Y-87375884D01*
X148760213Y-87404247D01*
X148740515Y-87430807D01*
X148718308Y-87455308D01*
X148693807Y-87477515D01*
X148667247Y-87497213D01*
X148638884Y-87514213D01*
X148608991Y-87528351D01*
X148577857Y-87539491D01*
X148545781Y-87547525D01*
X148513071Y-87552377D01*
X148480044Y-87554000D01*
X147353956Y-87554000D01*
X147320929Y-87552377D01*
X147288219Y-87547525D01*
X147256143Y-87539491D01*
X147225009Y-87528351D01*
X147195116Y-87514213D01*
X147166753Y-87497213D01*
X147140193Y-87477515D01*
X147115692Y-87455308D01*
X147093485Y-87430807D01*
X147073787Y-87404247D01*
X147056787Y-87375884D01*
X147042649Y-87345991D01*
X147031509Y-87314857D01*
X147023475Y-87282781D01*
X147018623Y-87250071D01*
X147017000Y-87217044D01*
X147017000Y-86340956D01*
X147018623Y-86307929D01*
X147023475Y-86275219D01*
X147031509Y-86243143D01*
X147042649Y-86212009D01*
X147056787Y-86182116D01*
X147073787Y-86153753D01*
X147093485Y-86127193D01*
X147115692Y-86102692D01*
X147140193Y-86080485D01*
X147166753Y-86060787D01*
X147195116Y-86043787D01*
X147225009Y-86029649D01*
X147256143Y-86018509D01*
X147288219Y-86010475D01*
X147320929Y-86005623D01*
X147353956Y-86004000D01*
X148480044Y-86004000D01*
X148513071Y-86005623D01*
X148513071Y-86005623D01*
G37*
D20*
X147917000Y-86779000D03*
D10*
G36*
X148513071Y-88055623D02*
X148545781Y-88060475D01*
X148577857Y-88068509D01*
X148608991Y-88079649D01*
X148638884Y-88093787D01*
X148667247Y-88110787D01*
X148693807Y-88130485D01*
X148718308Y-88152692D01*
X148740515Y-88177193D01*
X148760213Y-88203753D01*
X148777213Y-88232116D01*
X148791351Y-88262009D01*
X148802491Y-88293143D01*
X148810525Y-88325219D01*
X148815377Y-88357929D01*
X148817000Y-88390956D01*
X148817000Y-89267044D01*
X148815377Y-89300071D01*
X148810525Y-89332781D01*
X148802491Y-89364857D01*
X148791351Y-89395991D01*
X148777213Y-89425884D01*
X148760213Y-89454247D01*
X148740515Y-89480807D01*
X148718308Y-89505308D01*
X148693807Y-89527515D01*
X148667247Y-89547213D01*
X148638884Y-89564213D01*
X148608991Y-89578351D01*
X148577857Y-89589491D01*
X148545781Y-89597525D01*
X148513071Y-89602377D01*
X148480044Y-89604000D01*
X147353956Y-89604000D01*
X147320929Y-89602377D01*
X147288219Y-89597525D01*
X147256143Y-89589491D01*
X147225009Y-89578351D01*
X147195116Y-89564213D01*
X147166753Y-89547213D01*
X147140193Y-89527515D01*
X147115692Y-89505308D01*
X147093485Y-89480807D01*
X147073787Y-89454247D01*
X147056787Y-89425884D01*
X147042649Y-89395991D01*
X147031509Y-89364857D01*
X147023475Y-89332781D01*
X147018623Y-89300071D01*
X147017000Y-89267044D01*
X147017000Y-88390956D01*
X147018623Y-88357929D01*
X147023475Y-88325219D01*
X147031509Y-88293143D01*
X147042649Y-88262009D01*
X147056787Y-88232116D01*
X147073787Y-88203753D01*
X147093485Y-88177193D01*
X147115692Y-88152692D01*
X147140193Y-88130485D01*
X147166753Y-88110787D01*
X147195116Y-88093787D01*
X147225009Y-88079649D01*
X147256143Y-88068509D01*
X147288219Y-88060475D01*
X147320929Y-88055623D01*
X147353956Y-88054000D01*
X148480044Y-88054000D01*
X148513071Y-88055623D01*
X148513071Y-88055623D01*
G37*
D20*
X147917000Y-88829000D03*
G04 #@! TD*
D21*
G04 #@! TO.C,C5*
X143853000Y-97970000D03*
X143853000Y-92370000D03*
G04 #@! TD*
D10*
G04 #@! TO.C,C6*
G36*
X150037071Y-81578623D02*
X150069781Y-81583475D01*
X150101857Y-81591509D01*
X150132991Y-81602649D01*
X150162884Y-81616787D01*
X150191247Y-81633787D01*
X150217807Y-81653485D01*
X150242308Y-81675692D01*
X150264515Y-81700193D01*
X150284213Y-81726753D01*
X150301213Y-81755116D01*
X150315351Y-81785009D01*
X150326491Y-81816143D01*
X150334525Y-81848219D01*
X150339377Y-81880929D01*
X150341000Y-81913956D01*
X150341000Y-82790044D01*
X150339377Y-82823071D01*
X150334525Y-82855781D01*
X150326491Y-82887857D01*
X150315351Y-82918991D01*
X150301213Y-82948884D01*
X150284213Y-82977247D01*
X150264515Y-83003807D01*
X150242308Y-83028308D01*
X150217807Y-83050515D01*
X150191247Y-83070213D01*
X150162884Y-83087213D01*
X150132991Y-83101351D01*
X150101857Y-83112491D01*
X150069781Y-83120525D01*
X150037071Y-83125377D01*
X150004044Y-83127000D01*
X148877956Y-83127000D01*
X148844929Y-83125377D01*
X148812219Y-83120525D01*
X148780143Y-83112491D01*
X148749009Y-83101351D01*
X148719116Y-83087213D01*
X148690753Y-83070213D01*
X148664193Y-83050515D01*
X148639692Y-83028308D01*
X148617485Y-83003807D01*
X148597787Y-82977247D01*
X148580787Y-82948884D01*
X148566649Y-82918991D01*
X148555509Y-82887857D01*
X148547475Y-82855781D01*
X148542623Y-82823071D01*
X148541000Y-82790044D01*
X148541000Y-81913956D01*
X148542623Y-81880929D01*
X148547475Y-81848219D01*
X148555509Y-81816143D01*
X148566649Y-81785009D01*
X148580787Y-81755116D01*
X148597787Y-81726753D01*
X148617485Y-81700193D01*
X148639692Y-81675692D01*
X148664193Y-81653485D01*
X148690753Y-81633787D01*
X148719116Y-81616787D01*
X148749009Y-81602649D01*
X148780143Y-81591509D01*
X148812219Y-81583475D01*
X148844929Y-81578623D01*
X148877956Y-81577000D01*
X150004044Y-81577000D01*
X150037071Y-81578623D01*
X150037071Y-81578623D01*
G37*
D20*
X149441000Y-82352000D03*
D10*
G36*
X150037071Y-79528623D02*
X150069781Y-79533475D01*
X150101857Y-79541509D01*
X150132991Y-79552649D01*
X150162884Y-79566787D01*
X150191247Y-79583787D01*
X150217807Y-79603485D01*
X150242308Y-79625692D01*
X150264515Y-79650193D01*
X150284213Y-79676753D01*
X150301213Y-79705116D01*
X150315351Y-79735009D01*
X150326491Y-79766143D01*
X150334525Y-79798219D01*
X150339377Y-79830929D01*
X150341000Y-79863956D01*
X150341000Y-80740044D01*
X150339377Y-80773071D01*
X150334525Y-80805781D01*
X150326491Y-80837857D01*
X150315351Y-80868991D01*
X150301213Y-80898884D01*
X150284213Y-80927247D01*
X150264515Y-80953807D01*
X150242308Y-80978308D01*
X150217807Y-81000515D01*
X150191247Y-81020213D01*
X150162884Y-81037213D01*
X150132991Y-81051351D01*
X150101857Y-81062491D01*
X150069781Y-81070525D01*
X150037071Y-81075377D01*
X150004044Y-81077000D01*
X148877956Y-81077000D01*
X148844929Y-81075377D01*
X148812219Y-81070525D01*
X148780143Y-81062491D01*
X148749009Y-81051351D01*
X148719116Y-81037213D01*
X148690753Y-81020213D01*
X148664193Y-81000515D01*
X148639692Y-80978308D01*
X148617485Y-80953807D01*
X148597787Y-80927247D01*
X148580787Y-80898884D01*
X148566649Y-80868991D01*
X148555509Y-80837857D01*
X148547475Y-80805781D01*
X148542623Y-80773071D01*
X148541000Y-80740044D01*
X148541000Y-79863956D01*
X148542623Y-79830929D01*
X148547475Y-79798219D01*
X148555509Y-79766143D01*
X148566649Y-79735009D01*
X148580787Y-79705116D01*
X148597787Y-79676753D01*
X148617485Y-79650193D01*
X148639692Y-79625692D01*
X148664193Y-79603485D01*
X148690753Y-79583787D01*
X148719116Y-79566787D01*
X148749009Y-79552649D01*
X148780143Y-79541509D01*
X148812219Y-79533475D01*
X148844929Y-79528623D01*
X148877956Y-79527000D01*
X150004044Y-79527000D01*
X150037071Y-79528623D01*
X150037071Y-79528623D01*
G37*
D20*
X149441000Y-80302000D03*
G04 #@! TD*
D10*
G04 #@! TO.C,C7*
G36*
X170956071Y-119126623D02*
X170988781Y-119131475D01*
X171020857Y-119139509D01*
X171051991Y-119150649D01*
X171081884Y-119164787D01*
X171110247Y-119181787D01*
X171136807Y-119201485D01*
X171161308Y-119223692D01*
X171183515Y-119248193D01*
X171203213Y-119274753D01*
X171220213Y-119303116D01*
X171234351Y-119333009D01*
X171245491Y-119364143D01*
X171253525Y-119396219D01*
X171258377Y-119428929D01*
X171260000Y-119461956D01*
X171260000Y-120338044D01*
X171258377Y-120371071D01*
X171253525Y-120403781D01*
X171245491Y-120435857D01*
X171234351Y-120466991D01*
X171220213Y-120496884D01*
X171203213Y-120525247D01*
X171183515Y-120551807D01*
X171161308Y-120576308D01*
X171136807Y-120598515D01*
X171110247Y-120618213D01*
X171081884Y-120635213D01*
X171051991Y-120649351D01*
X171020857Y-120660491D01*
X170988781Y-120668525D01*
X170956071Y-120673377D01*
X170923044Y-120675000D01*
X169796956Y-120675000D01*
X169763929Y-120673377D01*
X169731219Y-120668525D01*
X169699143Y-120660491D01*
X169668009Y-120649351D01*
X169638116Y-120635213D01*
X169609753Y-120618213D01*
X169583193Y-120598515D01*
X169558692Y-120576308D01*
X169536485Y-120551807D01*
X169516787Y-120525247D01*
X169499787Y-120496884D01*
X169485649Y-120466991D01*
X169474509Y-120435857D01*
X169466475Y-120403781D01*
X169461623Y-120371071D01*
X169460000Y-120338044D01*
X169460000Y-119461956D01*
X169461623Y-119428929D01*
X169466475Y-119396219D01*
X169474509Y-119364143D01*
X169485649Y-119333009D01*
X169499787Y-119303116D01*
X169516787Y-119274753D01*
X169536485Y-119248193D01*
X169558692Y-119223692D01*
X169583193Y-119201485D01*
X169609753Y-119181787D01*
X169638116Y-119164787D01*
X169668009Y-119150649D01*
X169699143Y-119139509D01*
X169731219Y-119131475D01*
X169763929Y-119126623D01*
X169796956Y-119125000D01*
X170923044Y-119125000D01*
X170956071Y-119126623D01*
X170956071Y-119126623D01*
G37*
D20*
X170360000Y-119900000D03*
D10*
G36*
X170956071Y-121176623D02*
X170988781Y-121181475D01*
X171020857Y-121189509D01*
X171051991Y-121200649D01*
X171081884Y-121214787D01*
X171110247Y-121231787D01*
X171136807Y-121251485D01*
X171161308Y-121273692D01*
X171183515Y-121298193D01*
X171203213Y-121324753D01*
X171220213Y-121353116D01*
X171234351Y-121383009D01*
X171245491Y-121414143D01*
X171253525Y-121446219D01*
X171258377Y-121478929D01*
X171260000Y-121511956D01*
X171260000Y-122388044D01*
X171258377Y-122421071D01*
X171253525Y-122453781D01*
X171245491Y-122485857D01*
X171234351Y-122516991D01*
X171220213Y-122546884D01*
X171203213Y-122575247D01*
X171183515Y-122601807D01*
X171161308Y-122626308D01*
X171136807Y-122648515D01*
X171110247Y-122668213D01*
X171081884Y-122685213D01*
X171051991Y-122699351D01*
X171020857Y-122710491D01*
X170988781Y-122718525D01*
X170956071Y-122723377D01*
X170923044Y-122725000D01*
X169796956Y-122725000D01*
X169763929Y-122723377D01*
X169731219Y-122718525D01*
X169699143Y-122710491D01*
X169668009Y-122699351D01*
X169638116Y-122685213D01*
X169609753Y-122668213D01*
X169583193Y-122648515D01*
X169558692Y-122626308D01*
X169536485Y-122601807D01*
X169516787Y-122575247D01*
X169499787Y-122546884D01*
X169485649Y-122516991D01*
X169474509Y-122485857D01*
X169466475Y-122453781D01*
X169461623Y-122421071D01*
X169460000Y-122388044D01*
X169460000Y-121511956D01*
X169461623Y-121478929D01*
X169466475Y-121446219D01*
X169474509Y-121414143D01*
X169485649Y-121383009D01*
X169499787Y-121353116D01*
X169516787Y-121324753D01*
X169536485Y-121298193D01*
X169558692Y-121273692D01*
X169583193Y-121251485D01*
X169609753Y-121231787D01*
X169638116Y-121214787D01*
X169668009Y-121200649D01*
X169699143Y-121189509D01*
X169731219Y-121181475D01*
X169763929Y-121176623D01*
X169796956Y-121175000D01*
X170923044Y-121175000D01*
X170956071Y-121176623D01*
X170956071Y-121176623D01*
G37*
D20*
X170360000Y-121950000D03*
G04 #@! TD*
D10*
G04 #@! TO.C,C8*
G36*
X140004071Y-119170623D02*
X140036781Y-119175475D01*
X140068857Y-119183509D01*
X140099991Y-119194649D01*
X140129884Y-119208787D01*
X140158247Y-119225787D01*
X140184807Y-119245485D01*
X140209308Y-119267692D01*
X140231515Y-119292193D01*
X140251213Y-119318753D01*
X140268213Y-119347116D01*
X140282351Y-119377009D01*
X140293491Y-119408143D01*
X140301525Y-119440219D01*
X140306377Y-119472929D01*
X140308000Y-119505956D01*
X140308000Y-120382044D01*
X140306377Y-120415071D01*
X140301525Y-120447781D01*
X140293491Y-120479857D01*
X140282351Y-120510991D01*
X140268213Y-120540884D01*
X140251213Y-120569247D01*
X140231515Y-120595807D01*
X140209308Y-120620308D01*
X140184807Y-120642515D01*
X140158247Y-120662213D01*
X140129884Y-120679213D01*
X140099991Y-120693351D01*
X140068857Y-120704491D01*
X140036781Y-120712525D01*
X140004071Y-120717377D01*
X139971044Y-120719000D01*
X138844956Y-120719000D01*
X138811929Y-120717377D01*
X138779219Y-120712525D01*
X138747143Y-120704491D01*
X138716009Y-120693351D01*
X138686116Y-120679213D01*
X138657753Y-120662213D01*
X138631193Y-120642515D01*
X138606692Y-120620308D01*
X138584485Y-120595807D01*
X138564787Y-120569247D01*
X138547787Y-120540884D01*
X138533649Y-120510991D01*
X138522509Y-120479857D01*
X138514475Y-120447781D01*
X138509623Y-120415071D01*
X138508000Y-120382044D01*
X138508000Y-119505956D01*
X138509623Y-119472929D01*
X138514475Y-119440219D01*
X138522509Y-119408143D01*
X138533649Y-119377009D01*
X138547787Y-119347116D01*
X138564787Y-119318753D01*
X138584485Y-119292193D01*
X138606692Y-119267692D01*
X138631193Y-119245485D01*
X138657753Y-119225787D01*
X138686116Y-119208787D01*
X138716009Y-119194649D01*
X138747143Y-119183509D01*
X138779219Y-119175475D01*
X138811929Y-119170623D01*
X138844956Y-119169000D01*
X139971044Y-119169000D01*
X140004071Y-119170623D01*
X140004071Y-119170623D01*
G37*
D20*
X139408000Y-119944000D03*
D10*
G36*
X140004071Y-121220623D02*
X140036781Y-121225475D01*
X140068857Y-121233509D01*
X140099991Y-121244649D01*
X140129884Y-121258787D01*
X140158247Y-121275787D01*
X140184807Y-121295485D01*
X140209308Y-121317692D01*
X140231515Y-121342193D01*
X140251213Y-121368753D01*
X140268213Y-121397116D01*
X140282351Y-121427009D01*
X140293491Y-121458143D01*
X140301525Y-121490219D01*
X140306377Y-121522929D01*
X140308000Y-121555956D01*
X140308000Y-122432044D01*
X140306377Y-122465071D01*
X140301525Y-122497781D01*
X140293491Y-122529857D01*
X140282351Y-122560991D01*
X140268213Y-122590884D01*
X140251213Y-122619247D01*
X140231515Y-122645807D01*
X140209308Y-122670308D01*
X140184807Y-122692515D01*
X140158247Y-122712213D01*
X140129884Y-122729213D01*
X140099991Y-122743351D01*
X140068857Y-122754491D01*
X140036781Y-122762525D01*
X140004071Y-122767377D01*
X139971044Y-122769000D01*
X138844956Y-122769000D01*
X138811929Y-122767377D01*
X138779219Y-122762525D01*
X138747143Y-122754491D01*
X138716009Y-122743351D01*
X138686116Y-122729213D01*
X138657753Y-122712213D01*
X138631193Y-122692515D01*
X138606692Y-122670308D01*
X138584485Y-122645807D01*
X138564787Y-122619247D01*
X138547787Y-122590884D01*
X138533649Y-122560991D01*
X138522509Y-122529857D01*
X138514475Y-122497781D01*
X138509623Y-122465071D01*
X138508000Y-122432044D01*
X138508000Y-121555956D01*
X138509623Y-121522929D01*
X138514475Y-121490219D01*
X138522509Y-121458143D01*
X138533649Y-121427009D01*
X138547787Y-121397116D01*
X138564787Y-121368753D01*
X138584485Y-121342193D01*
X138606692Y-121317692D01*
X138631193Y-121295485D01*
X138657753Y-121275787D01*
X138686116Y-121258787D01*
X138716009Y-121244649D01*
X138747143Y-121233509D01*
X138779219Y-121225475D01*
X138811929Y-121220623D01*
X138844956Y-121219000D01*
X139971044Y-121219000D01*
X140004071Y-121220623D01*
X140004071Y-121220623D01*
G37*
D20*
X139408000Y-121994000D03*
G04 #@! TD*
D10*
G04 #@! TO.C,C9*
G36*
X140004071Y-79165623D02*
X140036781Y-79170475D01*
X140068857Y-79178509D01*
X140099991Y-79189649D01*
X140129884Y-79203787D01*
X140158247Y-79220787D01*
X140184807Y-79240485D01*
X140209308Y-79262692D01*
X140231515Y-79287193D01*
X140251213Y-79313753D01*
X140268213Y-79342116D01*
X140282351Y-79372009D01*
X140293491Y-79403143D01*
X140301525Y-79435219D01*
X140306377Y-79467929D01*
X140308000Y-79500956D01*
X140308000Y-80377044D01*
X140306377Y-80410071D01*
X140301525Y-80442781D01*
X140293491Y-80474857D01*
X140282351Y-80505991D01*
X140268213Y-80535884D01*
X140251213Y-80564247D01*
X140231515Y-80590807D01*
X140209308Y-80615308D01*
X140184807Y-80637515D01*
X140158247Y-80657213D01*
X140129884Y-80674213D01*
X140099991Y-80688351D01*
X140068857Y-80699491D01*
X140036781Y-80707525D01*
X140004071Y-80712377D01*
X139971044Y-80714000D01*
X138844956Y-80714000D01*
X138811929Y-80712377D01*
X138779219Y-80707525D01*
X138747143Y-80699491D01*
X138716009Y-80688351D01*
X138686116Y-80674213D01*
X138657753Y-80657213D01*
X138631193Y-80637515D01*
X138606692Y-80615308D01*
X138584485Y-80590807D01*
X138564787Y-80564247D01*
X138547787Y-80535884D01*
X138533649Y-80505991D01*
X138522509Y-80474857D01*
X138514475Y-80442781D01*
X138509623Y-80410071D01*
X138508000Y-80377044D01*
X138508000Y-79500956D01*
X138509623Y-79467929D01*
X138514475Y-79435219D01*
X138522509Y-79403143D01*
X138533649Y-79372009D01*
X138547787Y-79342116D01*
X138564787Y-79313753D01*
X138584485Y-79287193D01*
X138606692Y-79262692D01*
X138631193Y-79240485D01*
X138657753Y-79220787D01*
X138686116Y-79203787D01*
X138716009Y-79189649D01*
X138747143Y-79178509D01*
X138779219Y-79170475D01*
X138811929Y-79165623D01*
X138844956Y-79164000D01*
X139971044Y-79164000D01*
X140004071Y-79165623D01*
X140004071Y-79165623D01*
G37*
D20*
X139408000Y-79939000D03*
D10*
G36*
X140004071Y-77115623D02*
X140036781Y-77120475D01*
X140068857Y-77128509D01*
X140099991Y-77139649D01*
X140129884Y-77153787D01*
X140158247Y-77170787D01*
X140184807Y-77190485D01*
X140209308Y-77212692D01*
X140231515Y-77237193D01*
X140251213Y-77263753D01*
X140268213Y-77292116D01*
X140282351Y-77322009D01*
X140293491Y-77353143D01*
X140301525Y-77385219D01*
X140306377Y-77417929D01*
X140308000Y-77450956D01*
X140308000Y-78327044D01*
X140306377Y-78360071D01*
X140301525Y-78392781D01*
X140293491Y-78424857D01*
X140282351Y-78455991D01*
X140268213Y-78485884D01*
X140251213Y-78514247D01*
X140231515Y-78540807D01*
X140209308Y-78565308D01*
X140184807Y-78587515D01*
X140158247Y-78607213D01*
X140129884Y-78624213D01*
X140099991Y-78638351D01*
X140068857Y-78649491D01*
X140036781Y-78657525D01*
X140004071Y-78662377D01*
X139971044Y-78664000D01*
X138844956Y-78664000D01*
X138811929Y-78662377D01*
X138779219Y-78657525D01*
X138747143Y-78649491D01*
X138716009Y-78638351D01*
X138686116Y-78624213D01*
X138657753Y-78607213D01*
X138631193Y-78587515D01*
X138606692Y-78565308D01*
X138584485Y-78540807D01*
X138564787Y-78514247D01*
X138547787Y-78485884D01*
X138533649Y-78455991D01*
X138522509Y-78424857D01*
X138514475Y-78392781D01*
X138509623Y-78360071D01*
X138508000Y-78327044D01*
X138508000Y-77450956D01*
X138509623Y-77417929D01*
X138514475Y-77385219D01*
X138522509Y-77353143D01*
X138533649Y-77322009D01*
X138547787Y-77292116D01*
X138564787Y-77263753D01*
X138584485Y-77237193D01*
X138606692Y-77212692D01*
X138631193Y-77190485D01*
X138657753Y-77170787D01*
X138686116Y-77153787D01*
X138716009Y-77139649D01*
X138747143Y-77128509D01*
X138779219Y-77120475D01*
X138811929Y-77115623D01*
X138844956Y-77114000D01*
X139971044Y-77114000D01*
X140004071Y-77115623D01*
X140004071Y-77115623D01*
G37*
D20*
X139408000Y-77889000D03*
G04 #@! TD*
D10*
G04 #@! TO.C,C10*
G36*
X171119071Y-77668623D02*
X171151781Y-77673475D01*
X171183857Y-77681509D01*
X171214991Y-77692649D01*
X171244884Y-77706787D01*
X171273247Y-77723787D01*
X171299807Y-77743485D01*
X171324308Y-77765692D01*
X171346515Y-77790193D01*
X171366213Y-77816753D01*
X171383213Y-77845116D01*
X171397351Y-77875009D01*
X171408491Y-77906143D01*
X171416525Y-77938219D01*
X171421377Y-77970929D01*
X171423000Y-78003956D01*
X171423000Y-78880044D01*
X171421377Y-78913071D01*
X171416525Y-78945781D01*
X171408491Y-78977857D01*
X171397351Y-79008991D01*
X171383213Y-79038884D01*
X171366213Y-79067247D01*
X171346515Y-79093807D01*
X171324308Y-79118308D01*
X171299807Y-79140515D01*
X171273247Y-79160213D01*
X171244884Y-79177213D01*
X171214991Y-79191351D01*
X171183857Y-79202491D01*
X171151781Y-79210525D01*
X171119071Y-79215377D01*
X171086044Y-79217000D01*
X169959956Y-79217000D01*
X169926929Y-79215377D01*
X169894219Y-79210525D01*
X169862143Y-79202491D01*
X169831009Y-79191351D01*
X169801116Y-79177213D01*
X169772753Y-79160213D01*
X169746193Y-79140515D01*
X169721692Y-79118308D01*
X169699485Y-79093807D01*
X169679787Y-79067247D01*
X169662787Y-79038884D01*
X169648649Y-79008991D01*
X169637509Y-78977857D01*
X169629475Y-78945781D01*
X169624623Y-78913071D01*
X169623000Y-78880044D01*
X169623000Y-78003956D01*
X169624623Y-77970929D01*
X169629475Y-77938219D01*
X169637509Y-77906143D01*
X169648649Y-77875009D01*
X169662787Y-77845116D01*
X169679787Y-77816753D01*
X169699485Y-77790193D01*
X169721692Y-77765692D01*
X169746193Y-77743485D01*
X169772753Y-77723787D01*
X169801116Y-77706787D01*
X169831009Y-77692649D01*
X169862143Y-77681509D01*
X169894219Y-77673475D01*
X169926929Y-77668623D01*
X169959956Y-77667000D01*
X171086044Y-77667000D01*
X171119071Y-77668623D01*
X171119071Y-77668623D01*
G37*
D20*
X170523000Y-78442000D03*
D10*
G36*
X171119071Y-75618623D02*
X171151781Y-75623475D01*
X171183857Y-75631509D01*
X171214991Y-75642649D01*
X171244884Y-75656787D01*
X171273247Y-75673787D01*
X171299807Y-75693485D01*
X171324308Y-75715692D01*
X171346515Y-75740193D01*
X171366213Y-75766753D01*
X171383213Y-75795116D01*
X171397351Y-75825009D01*
X171408491Y-75856143D01*
X171416525Y-75888219D01*
X171421377Y-75920929D01*
X171423000Y-75953956D01*
X171423000Y-76830044D01*
X171421377Y-76863071D01*
X171416525Y-76895781D01*
X171408491Y-76927857D01*
X171397351Y-76958991D01*
X171383213Y-76988884D01*
X171366213Y-77017247D01*
X171346515Y-77043807D01*
X171324308Y-77068308D01*
X171299807Y-77090515D01*
X171273247Y-77110213D01*
X171244884Y-77127213D01*
X171214991Y-77141351D01*
X171183857Y-77152491D01*
X171151781Y-77160525D01*
X171119071Y-77165377D01*
X171086044Y-77167000D01*
X169959956Y-77167000D01*
X169926929Y-77165377D01*
X169894219Y-77160525D01*
X169862143Y-77152491D01*
X169831009Y-77141351D01*
X169801116Y-77127213D01*
X169772753Y-77110213D01*
X169746193Y-77090515D01*
X169721692Y-77068308D01*
X169699485Y-77043807D01*
X169679787Y-77017247D01*
X169662787Y-76988884D01*
X169648649Y-76958991D01*
X169637509Y-76927857D01*
X169629475Y-76895781D01*
X169624623Y-76863071D01*
X169623000Y-76830044D01*
X169623000Y-75953956D01*
X169624623Y-75920929D01*
X169629475Y-75888219D01*
X169637509Y-75856143D01*
X169648649Y-75825009D01*
X169662787Y-75795116D01*
X169679787Y-75766753D01*
X169699485Y-75740193D01*
X169721692Y-75715692D01*
X169746193Y-75693485D01*
X169772753Y-75673787D01*
X169801116Y-75656787D01*
X169831009Y-75642649D01*
X169862143Y-75631509D01*
X169894219Y-75623475D01*
X169926929Y-75618623D01*
X169959956Y-75617000D01*
X171086044Y-75617000D01*
X171119071Y-75618623D01*
X171119071Y-75618623D01*
G37*
D20*
X170523000Y-76392000D03*
G04 #@! TD*
D22*
G04 #@! TO.C,MH1*
X176590990Y-118409010D03*
X175000000Y-117750000D03*
X173409010Y-118409010D03*
X172750000Y-120000000D03*
X173409010Y-121590990D03*
X175000000Y-122250000D03*
X176590990Y-121590990D03*
X177250000Y-120000000D03*
D23*
X175000000Y-120000000D03*
G04 #@! TD*
G04 #@! TO.C,MH2*
X135000000Y-120000000D03*
D22*
X137250000Y-120000000D03*
X136590990Y-121590990D03*
X135000000Y-122250000D03*
X133409010Y-121590990D03*
X132750000Y-120000000D03*
X133409010Y-118409010D03*
X135000000Y-117750000D03*
X136590990Y-118409010D03*
G04 #@! TD*
G04 #@! TO.C,MH3*
X136590990Y-78409010D03*
X135000000Y-77750000D03*
X133409010Y-78409010D03*
X132750000Y-80000000D03*
X133409010Y-81590990D03*
X135000000Y-82250000D03*
X136590990Y-81590990D03*
X137250000Y-80000000D03*
D23*
X135000000Y-80000000D03*
G04 #@! TD*
G04 #@! TO.C,MH4*
X175000000Y-80000000D03*
D22*
X177250000Y-80000000D03*
X176590990Y-81590990D03*
X175000000Y-82250000D03*
X173409010Y-81590990D03*
X172750000Y-80000000D03*
X173409010Y-78409010D03*
X175000000Y-77750000D03*
X176590990Y-78409010D03*
G04 #@! TD*
D24*
G04 #@! TO.C,U1*
X158460000Y-110410000D03*
X158460000Y-109140000D03*
X158460000Y-107870000D03*
X158460000Y-106600000D03*
X158460000Y-105330000D03*
X158460000Y-104060000D03*
X158460000Y-102790000D03*
X158460000Y-101520000D03*
X158460000Y-100250000D03*
X158460000Y-98980000D03*
X149060000Y-98980000D03*
X149060000Y-100250000D03*
X149060000Y-101520000D03*
X149060000Y-102790000D03*
X149060000Y-104060000D03*
X149060000Y-105330000D03*
X149060000Y-106600000D03*
X149060000Y-107870000D03*
X149060000Y-109140000D03*
X149060000Y-110410000D03*
G04 #@! TD*
D25*
G04 #@! TO.C,U2*
X163632000Y-100504000D03*
X163632000Y-101774000D03*
X163632000Y-103044000D03*
X163632000Y-104314000D03*
X163632000Y-105584000D03*
X163632000Y-106854000D03*
X163632000Y-108124000D03*
X169032000Y-108124000D03*
X169032000Y-106854000D03*
X169032000Y-105584000D03*
X169032000Y-104314000D03*
X169032000Y-103044000D03*
X169032000Y-101774000D03*
X169032000Y-100504000D03*
G04 #@! TD*
D26*
G04 #@! TO.C,U5*
X151375000Y-82125000D03*
X152645000Y-82125000D03*
X153915000Y-82125000D03*
X155185000Y-82125000D03*
X156455000Y-82125000D03*
X157725000Y-82125000D03*
X158995000Y-82125000D03*
X160265000Y-82125000D03*
X160265000Y-76725000D03*
X158995000Y-76725000D03*
X157725000Y-76725000D03*
X156455000Y-76725000D03*
X155185000Y-76725000D03*
X153915000Y-76725000D03*
X152645000Y-76725000D03*
X151375000Y-76725000D03*
G04 #@! TD*
M02*
