%FSLAX45Y45*%
G04 Gerber Fmt 4.5, Leading zero omitted, Abs format (unit mm)*
G04 Created by KiCad (PCBNEW 5.0.0) date Sun Oct 21 13:39:20 2018*
%MOMM*%
%LPD*%
G01*
G04 APERTURE LIST*
%ADD10C,0.150000*%
%ADD11C,0.200000*%
%ADD12C,0.300000*%
G04 APERTURE END LIST*
D10*
X18000000Y-12500000D02*
X18000000Y-7500000D01*
X13000000Y-12500000D02*
X18000000Y-12500000D01*
X13000000Y-7500000D02*
X13000000Y-12500000D01*
X18000000Y-7500000D02*
X13000000Y-7500000D01*
D11*
X13880000Y-11732500D02*
X13920000Y-11772500D01*
X13920000Y-11732500D02*
X13880000Y-11772500D01*
X13885000Y-11340000D02*
X13925000Y-11380000D01*
X13925000Y-11340000D02*
X13885000Y-11380000D01*
X13920800Y-7768900D02*
X13960800Y-7808900D01*
X13960800Y-7768900D02*
X13920800Y-7808900D01*
X13920800Y-12179400D02*
X13960800Y-12219400D01*
X13960800Y-12179400D02*
X13920800Y-12219400D01*
X13932000Y-8583500D02*
X13972000Y-8623500D01*
X13972000Y-8583500D02*
X13932000Y-8623500D01*
X13933500Y-10005000D02*
X13973500Y-10045000D01*
X13973500Y-10005000D02*
X13933500Y-10045000D01*
X14080000Y-11732500D02*
X14120000Y-11772500D01*
X14120000Y-11732500D02*
X14080000Y-11772500D01*
X14090000Y-11340000D02*
X14130000Y-11380000D01*
X14130000Y-11340000D02*
X14090000Y-11380000D01*
X14124000Y-10322500D02*
X14164000Y-10362500D01*
X14164000Y-10322500D02*
X14124000Y-10362500D01*
X14135200Y-8583500D02*
X14175200Y-8623500D01*
X14175200Y-8583500D02*
X14135200Y-8623500D01*
X14267500Y-11340000D02*
X14307500Y-11380000D01*
X14307500Y-11340000D02*
X14267500Y-11380000D01*
X14280000Y-11730000D02*
X14320000Y-11770000D01*
X14320000Y-11730000D02*
X14280000Y-11770000D01*
X14287500Y-10720000D02*
X14327500Y-10760000D01*
X14327500Y-10720000D02*
X14287500Y-10760000D01*
X14338400Y-8583500D02*
X14378400Y-8623500D01*
X14378400Y-8583500D02*
X14338400Y-8623500D01*
X14365300Y-9217000D02*
X14405300Y-9257000D01*
X14405300Y-9217000D02*
X14365300Y-9257000D01*
X14365300Y-9777000D02*
X14405300Y-9817000D01*
X14405300Y-9777000D02*
X14365300Y-9817000D01*
X14453300Y-10386000D02*
X14493300Y-10426000D01*
X14493300Y-10386000D02*
X14453300Y-10426000D01*
X14472500Y-11340000D02*
X14512500Y-11380000D01*
X14512500Y-11340000D02*
X14472500Y-11380000D01*
X14480000Y-11730000D02*
X14520000Y-11770000D01*
X14520000Y-11730000D02*
X14480000Y-11770000D01*
X14492500Y-10720000D02*
X14532500Y-10760000D01*
X14532500Y-10720000D02*
X14492500Y-10760000D01*
X14541600Y-8583500D02*
X14581600Y-8623500D01*
X14581600Y-8583500D02*
X14541600Y-8623500D01*
X14655002Y-10659833D02*
X14695002Y-10699833D01*
X14695002Y-10659833D02*
X14655002Y-10699833D01*
X14658300Y-10386000D02*
X14698300Y-10426000D01*
X14698300Y-10386000D02*
X14658300Y-10426000D01*
X14682800Y-10792400D02*
X14722800Y-10832400D01*
X14722800Y-10792400D02*
X14682800Y-10832400D01*
X14771700Y-8862900D02*
X14811700Y-8902900D01*
X14811700Y-8862900D02*
X14771700Y-8902900D01*
X14883660Y-10502999D02*
X14923660Y-10542999D01*
X14923660Y-10502999D02*
X14883660Y-10542999D01*
X14886000Y-9814500D02*
X14926000Y-9854500D01*
X14926000Y-9814500D02*
X14886000Y-9854500D01*
X14886000Y-11428300D02*
X14926000Y-11468300D01*
X14926000Y-11428300D02*
X14886000Y-11468300D01*
X14888340Y-10396001D02*
X14928340Y-10436001D01*
X14928340Y-10396001D02*
X14888340Y-10436001D01*
X14924100Y-8010200D02*
X14964100Y-8050200D01*
X14964100Y-8010200D02*
X14924100Y-8050200D01*
X15000501Y-8452500D02*
X15040501Y-8492500D01*
X15040501Y-8452500D02*
X15000501Y-8492500D01*
X15076500Y-9687500D02*
X15116500Y-9727500D01*
X15116500Y-9687500D02*
X15076500Y-9727500D01*
X15114600Y-11428300D02*
X15154600Y-11468300D01*
X15154600Y-11428300D02*
X15114600Y-11468300D01*
X15117500Y-8192500D02*
X15157500Y-8232500D01*
X15157500Y-8192500D02*
X15117500Y-8232500D01*
X15244500Y-8452500D02*
X15284500Y-8492500D01*
X15284500Y-8452500D02*
X15244500Y-8492500D01*
X15244500Y-9392500D02*
X15284500Y-9432500D01*
X15284500Y-9392500D02*
X15244500Y-9432500D01*
X15371500Y-8452500D02*
X15411500Y-8492500D01*
X15411500Y-8452500D02*
X15371500Y-8492500D01*
X15482900Y-11210600D02*
X15522900Y-11250600D01*
X15522900Y-11210600D02*
X15482900Y-11250600D01*
X15490499Y-8192500D02*
X15530499Y-8232500D01*
X15530499Y-8192500D02*
X15490499Y-8232500D01*
X15498500Y-8452500D02*
X15538500Y-8492500D01*
X15538500Y-8452500D02*
X15498500Y-8492500D01*
X15507400Y-9649400D02*
X15547400Y-9689400D01*
X15547400Y-9649400D02*
X15507400Y-9689400D01*
X15508766Y-9348765D02*
X15548766Y-9388765D01*
X15548766Y-9348765D02*
X15508766Y-9388765D01*
X15596734Y-9421266D02*
X15636734Y-9461266D01*
X15636734Y-9421266D02*
X15596734Y-9461266D01*
X15625500Y-8452500D02*
X15665500Y-8492500D01*
X15665500Y-8452500D02*
X15625500Y-8492500D01*
X15635501Y-8192500D02*
X15675501Y-8232500D01*
X15675501Y-8192500D02*
X15635501Y-8232500D01*
X15752500Y-8452500D02*
X15792500Y-8492500D01*
X15792500Y-8452500D02*
X15752500Y-8492500D01*
X15775000Y-9116000D02*
X15815000Y-9156000D01*
X15815000Y-9116000D02*
X15775000Y-9156000D01*
X15883429Y-9392922D02*
X15923429Y-9432922D01*
X15923429Y-9392922D02*
X15883429Y-9432922D01*
X15897282Y-10527658D02*
X15937282Y-10567658D01*
X15937282Y-10527658D02*
X15897282Y-10567658D01*
X15997756Y-10511027D02*
X16037756Y-10551027D01*
X16037756Y-10511027D02*
X15997756Y-10551027D01*
X16006500Y-8192500D02*
X16046500Y-8232500D01*
X16046500Y-8192500D02*
X16006500Y-8232500D01*
X16006500Y-8452500D02*
X16046500Y-8492500D01*
X16046500Y-8452500D02*
X16006500Y-8492500D01*
X16006500Y-9392500D02*
X16046500Y-9432500D01*
X16046500Y-9392500D02*
X16006500Y-9432500D01*
X16009632Y-10356078D02*
X16049632Y-10396078D01*
X16049632Y-10356078D02*
X16009632Y-10396078D01*
X16130600Y-9673900D02*
X16170600Y-9713900D01*
X16170600Y-9673900D02*
X16130600Y-9713900D01*
X16133500Y-9392500D02*
X16173500Y-9432500D01*
X16173500Y-9392500D02*
X16133500Y-9432500D01*
X16142757Y-10496426D02*
X16182757Y-10536426D01*
X16182757Y-10496426D02*
X16142757Y-10536426D01*
X16333800Y-9673900D02*
X16373800Y-9713900D01*
X16373800Y-9673900D02*
X16333800Y-9713900D01*
X16343200Y-10030400D02*
X16383200Y-10070400D01*
X16383200Y-10030400D02*
X16343200Y-10070400D01*
X16370400Y-8280500D02*
X16410400Y-8320500D01*
X16410400Y-8280500D02*
X16370400Y-8320500D01*
X16370400Y-8686900D02*
X16410400Y-8726900D01*
X16410400Y-8686900D02*
X16370400Y-8726900D01*
X16511600Y-11377500D02*
X16551600Y-11417500D01*
X16551600Y-11377500D02*
X16511600Y-11417500D01*
X16522800Y-8533600D02*
X16562800Y-8573600D01*
X16562800Y-8533600D02*
X16522800Y-8573600D01*
X16714800Y-11377500D02*
X16754800Y-11417500D01*
X16754800Y-11377500D02*
X16714800Y-11417500D01*
X16747331Y-10416266D02*
X16787331Y-10456266D01*
X16787331Y-10416266D02*
X16747331Y-10456266D01*
X16776800Y-8481900D02*
X16816800Y-8521900D01*
X16816800Y-8481900D02*
X16776800Y-8521900D01*
X16860942Y-10179790D02*
X16900942Y-10219790D01*
X16900942Y-10179790D02*
X16860942Y-10219790D01*
X16883200Y-10030400D02*
X16923200Y-10070400D01*
X16923200Y-10030400D02*
X16883200Y-10070400D01*
X16980000Y-8075500D02*
X17020000Y-8115500D01*
X17020000Y-8075500D02*
X16980000Y-8115500D01*
X16980000Y-8481900D02*
X17020000Y-8521900D01*
X17020000Y-8481900D02*
X16980000Y-8521900D01*
X17016000Y-12175000D02*
X17056000Y-12215000D01*
X17056000Y-12175000D02*
X17016000Y-12215000D01*
X17030800Y-7619200D02*
X17070800Y-7659200D01*
X17070800Y-7619200D02*
X17030800Y-7659200D01*
X17300000Y-8000000D02*
G75*
G03X17300000Y-8000000I-25000J0D01*
G01*
X17365901Y-7840901D02*
G75*
G03X17365901Y-7840901I-25000J0D01*
G01*
X17365901Y-8159099D02*
G75*
G03X17365901Y-8159099I-25000J0D01*
G01*
X17525000Y-7775000D02*
G75*
G03X17525000Y-7775000I-25000J0D01*
G01*
X17525000Y-8225000D02*
G75*
G03X17525000Y-8225000I-25000J0D01*
G01*
X17684099Y-7840901D02*
G75*
G03X17684099Y-7840901I-25000J0D01*
G01*
X17684099Y-8159099D02*
G75*
G03X17684099Y-8159099I-25000J0D01*
G01*
X17750000Y-8000000D02*
G75*
G03X17750000Y-8000000I-25000J0D01*
G01*
X13300000Y-8000000D02*
G75*
G03X13300000Y-8000000I-25000J0D01*
G01*
X13365901Y-7840901D02*
G75*
G03X13365901Y-7840901I-25000J0D01*
G01*
X13365901Y-8159099D02*
G75*
G03X13365901Y-8159099I-25000J0D01*
G01*
X13525000Y-7775000D02*
G75*
G03X13525000Y-7775000I-25000J0D01*
G01*
X13525000Y-8225000D02*
G75*
G03X13525000Y-8225000I-25000J0D01*
G01*
X13684099Y-7840901D02*
G75*
G03X13684099Y-7840901I-25000J0D01*
G01*
X13684099Y-8159099D02*
G75*
G03X13684099Y-8159099I-25000J0D01*
G01*
X13750000Y-8000000D02*
G75*
G03X13750000Y-8000000I-25000J0D01*
G01*
X17300000Y-12000000D02*
G75*
G03X17300000Y-12000000I-25000J0D01*
G01*
X17365901Y-11840901D02*
G75*
G03X17365901Y-11840901I-25000J0D01*
G01*
X17365901Y-12159099D02*
G75*
G03X17365901Y-12159099I-25000J0D01*
G01*
X17525000Y-11775000D02*
G75*
G03X17525000Y-11775000I-25000J0D01*
G01*
X17525000Y-12225000D02*
G75*
G03X17525000Y-12225000I-25000J0D01*
G01*
X17684099Y-11840901D02*
G75*
G03X17684099Y-11840901I-25000J0D01*
G01*
X17684099Y-12159099D02*
G75*
G03X17684099Y-12159099I-25000J0D01*
G01*
X17750000Y-12000000D02*
G75*
G03X17750000Y-12000000I-25000J0D01*
G01*
X13300000Y-12000000D02*
G75*
G03X13300000Y-12000000I-25000J0D01*
G01*
X13365901Y-11840901D02*
G75*
G03X13365901Y-11840901I-25000J0D01*
G01*
X13365901Y-12159099D02*
G75*
G03X13365901Y-12159099I-25000J0D01*
G01*
X13525000Y-11775000D02*
G75*
G03X13525000Y-11775000I-25000J0D01*
G01*
X13525000Y-12225000D02*
G75*
G03X13525000Y-12225000I-25000J0D01*
G01*
X13684099Y-11840901D02*
G75*
G03X13684099Y-11840901I-25000J0D01*
G01*
X13684099Y-12159099D02*
G75*
G03X13684099Y-12159099I-25000J0D01*
G01*
X13750000Y-12000000D02*
G75*
G03X13750000Y-12000000I-25000J0D01*
G01*
X14484000Y-11950000D02*
X14484000Y-12050000D01*
X14434000Y-12000000D02*
X14534000Y-12000000D01*
X14484000Y-12204000D02*
X14484000Y-12304000D01*
X14434000Y-12254000D02*
X14534000Y-12254000D01*
X14738000Y-11950000D02*
X14738000Y-12050000D01*
X14688000Y-12000000D02*
X14788000Y-12000000D01*
X14738000Y-12204000D02*
X14738000Y-12304000D01*
X14688000Y-12254000D02*
X14788000Y-12254000D01*
X14992000Y-11950000D02*
X14992000Y-12050000D01*
X14942000Y-12000000D02*
X15042000Y-12000000D01*
X14992000Y-12204000D02*
X14992000Y-12304000D01*
X14942000Y-12254000D02*
X15042000Y-12254000D01*
X15246000Y-11950000D02*
X15246000Y-12050000D01*
X15196000Y-12000000D02*
X15296000Y-12000000D01*
X15246000Y-12204000D02*
X15246000Y-12304000D01*
X15196000Y-12254000D02*
X15296000Y-12254000D01*
X15500000Y-11950000D02*
X15500000Y-12050000D01*
X15450000Y-12000000D02*
X15550000Y-12000000D01*
X15500000Y-12204000D02*
X15500000Y-12304000D01*
X15450000Y-12254000D02*
X15550000Y-12254000D01*
X15754000Y-11950000D02*
X15754000Y-12050000D01*
X15704000Y-12000000D02*
X15804000Y-12000000D01*
X15754000Y-12204000D02*
X15754000Y-12304000D01*
X15704000Y-12254000D02*
X15804000Y-12254000D01*
X16008000Y-11950000D02*
X16008000Y-12050000D01*
X15958000Y-12000000D02*
X16058000Y-12000000D01*
X16008000Y-12204000D02*
X16008000Y-12304000D01*
X15958000Y-12254000D02*
X16058000Y-12254000D01*
X16262000Y-11950000D02*
X16262000Y-12050000D01*
X16212000Y-12000000D02*
X16312000Y-12000000D01*
X16262000Y-12204000D02*
X16262000Y-12304000D01*
X16212000Y-12254000D02*
X16312000Y-12254000D01*
X16516000Y-11950000D02*
X16516000Y-12050000D01*
X16466000Y-12000000D02*
X16566000Y-12000000D01*
X16516000Y-12204000D02*
X16516000Y-12304000D01*
X16466000Y-12254000D02*
X16566000Y-12254000D01*
X16788427Y-9002427D02*
X16788427Y-8917573D01*
X16703573Y-8917573D01*
X16703573Y-9002427D01*
X16788427Y-9002427D01*
X16788427Y-9256427D02*
X16788427Y-9171573D01*
X16703573Y-9171573D01*
X16703573Y-9256427D01*
X16788427Y-9256427D01*
X16788427Y-9510427D02*
X16788427Y-9425573D01*
X16703573Y-9425573D01*
X16703573Y-9510427D01*
X16788427Y-9510427D01*
X16788427Y-9764427D02*
X16788427Y-9679573D01*
X16703573Y-9679573D01*
X16703573Y-9764427D01*
X16788427Y-9764427D01*
X13542427Y-8542427D02*
X13542427Y-8457573D01*
X13457573Y-8457573D01*
X13457573Y-8542427D01*
X13542427Y-8542427D01*
X13542427Y-8796427D02*
X13542427Y-8711573D01*
X13457573Y-8711573D01*
X13457573Y-8796427D01*
X13542427Y-8796427D01*
X13542427Y-9050427D02*
X13542427Y-8965573D01*
X13457573Y-8965573D01*
X13457573Y-9050427D01*
X13542427Y-9050427D01*
X13542427Y-9304427D02*
X13542427Y-9219573D01*
X13457573Y-9219573D01*
X13457573Y-9304427D01*
X13542427Y-9304427D01*
X13542427Y-9558427D02*
X13542427Y-9473573D01*
X13457573Y-9473573D01*
X13457573Y-9558427D01*
X13542427Y-9558427D01*
X13542427Y-9812427D02*
X13542427Y-9727573D01*
X13457573Y-9727573D01*
X13457573Y-9812427D01*
X13542427Y-9812427D01*
X13542427Y-10272427D02*
X13542427Y-10187573D01*
X13457573Y-10187573D01*
X13457573Y-10272427D01*
X13542427Y-10272427D01*
X13542427Y-10526427D02*
X13542427Y-10441573D01*
X13457573Y-10441573D01*
X13457573Y-10526427D01*
X13542427Y-10526427D01*
X13542427Y-10780427D02*
X13542427Y-10695573D01*
X13457573Y-10695573D01*
X13457573Y-10780427D01*
X13542427Y-10780427D01*
X13542427Y-11034427D02*
X13542427Y-10949573D01*
X13457573Y-10949573D01*
X13457573Y-11034427D01*
X13542427Y-11034427D01*
X13542427Y-11288427D02*
X13542427Y-11203573D01*
X13457573Y-11203573D01*
X13457573Y-11288427D01*
X13542427Y-11288427D01*
X13542427Y-11542427D02*
X13542427Y-11457573D01*
X13457573Y-11457573D01*
X13457573Y-11542427D01*
X13542427Y-11542427D01*
X17542427Y-8522427D02*
X17542427Y-8437573D01*
X17457573Y-8437573D01*
X17457573Y-8522427D01*
X17542427Y-8522427D01*
X17542427Y-8776427D02*
X17542427Y-8691573D01*
X17457573Y-8691573D01*
X17457573Y-8776427D01*
X17542427Y-8776427D01*
X17542427Y-9030427D02*
X17542427Y-8945573D01*
X17457573Y-8945573D01*
X17457573Y-9030427D01*
X17542427Y-9030427D01*
X17542427Y-9284427D02*
X17542427Y-9199573D01*
X17457573Y-9199573D01*
X17457573Y-9284427D01*
X17542427Y-9284427D01*
X17542427Y-9538427D02*
X17542427Y-9453573D01*
X17457573Y-9453573D01*
X17457573Y-9538427D01*
X17542427Y-9538427D01*
X17542427Y-9792427D02*
X17542427Y-9707573D01*
X17457573Y-9707573D01*
X17457573Y-9792427D01*
X17542427Y-9792427D01*
X17542427Y-10272427D02*
X17542427Y-10187573D01*
X17457573Y-10187573D01*
X17457573Y-10272427D01*
X17542427Y-10272427D01*
X17542427Y-10526427D02*
X17542427Y-10441573D01*
X17457573Y-10441573D01*
X17457573Y-10526427D01*
X17542427Y-10526427D01*
X17542427Y-10780427D02*
X17542427Y-10695573D01*
X17457573Y-10695573D01*
X17457573Y-10780427D01*
X17542427Y-10780427D01*
X17542427Y-11034427D02*
X17542427Y-10949573D01*
X17457573Y-10949573D01*
X17457573Y-11034427D01*
X17542427Y-11034427D01*
X17542427Y-11288427D02*
X17542427Y-11203573D01*
X17457573Y-11203573D01*
X17457573Y-11288427D01*
X17542427Y-11288427D01*
X17542427Y-11542427D02*
X17542427Y-11457573D01*
X17457573Y-11457573D01*
X17457573Y-11542427D01*
X17542427Y-11542427D01*
X17500000Y-8150000D02*
X17650000Y-8000000D01*
X17500000Y-7850000D01*
X17350000Y-8000000D01*
X17500000Y-8150000D01*
X13500000Y-8150000D02*
X13650000Y-8000000D01*
X13500000Y-7850000D01*
X13350000Y-8000000D01*
X13500000Y-8150000D01*
X17500000Y-12150000D02*
X17650000Y-12000000D01*
X17500000Y-11850000D01*
X17350000Y-12000000D01*
X17500000Y-12150000D01*
X13500000Y-12150000D02*
X13650000Y-12000000D01*
X13500000Y-11850000D01*
X13350000Y-12000000D01*
X13500000Y-12150000D01*
D12*
X13278928Y-12973214D02*
X13278928Y-12673214D01*
X13350357Y-12673214D01*
X13393214Y-12687500D01*
X13421786Y-12716071D01*
X13436071Y-12744643D01*
X13450357Y-12801786D01*
X13450357Y-12844643D01*
X13436071Y-12901786D01*
X13421786Y-12930357D01*
X13393214Y-12958929D01*
X13350357Y-12973214D01*
X13278928Y-12973214D01*
X13578928Y-12973214D02*
X13578928Y-12773214D01*
X13578928Y-12830357D02*
X13593214Y-12801786D01*
X13607500Y-12787500D01*
X13636071Y-12773214D01*
X13664643Y-12773214D01*
X13764643Y-12973214D02*
X13764643Y-12773214D01*
X13764643Y-12673214D02*
X13750357Y-12687500D01*
X13764643Y-12701786D01*
X13778928Y-12687500D01*
X13764643Y-12673214D01*
X13764643Y-12701786D01*
X13950357Y-12973214D02*
X13921786Y-12958929D01*
X13907500Y-12930357D01*
X13907500Y-12673214D01*
X14107500Y-12973214D02*
X14078928Y-12958929D01*
X14064643Y-12930357D01*
X14064643Y-12673214D01*
X14450357Y-12973214D02*
X14450357Y-12673214D01*
X14550357Y-12887500D01*
X14650357Y-12673214D01*
X14650357Y-12973214D01*
X14921786Y-12973214D02*
X14921786Y-12816071D01*
X14907500Y-12787500D01*
X14878928Y-12773214D01*
X14821786Y-12773214D01*
X14793214Y-12787500D01*
X14921786Y-12958929D02*
X14893214Y-12973214D01*
X14821786Y-12973214D01*
X14793214Y-12958929D01*
X14778928Y-12930357D01*
X14778928Y-12901786D01*
X14793214Y-12873214D01*
X14821786Y-12858929D01*
X14893214Y-12858929D01*
X14921786Y-12844643D01*
X15064643Y-12773214D02*
X15064643Y-13073214D01*
X15064643Y-12787500D02*
X15093214Y-12773214D01*
X15150357Y-12773214D01*
X15178928Y-12787500D01*
X15193214Y-12801786D01*
X15207500Y-12830357D01*
X15207500Y-12916071D01*
X15193214Y-12944643D01*
X15178928Y-12958929D01*
X15150357Y-12973214D01*
X15093214Y-12973214D01*
X15064643Y-12958929D01*
X15336071Y-12944643D02*
X15350357Y-12958929D01*
X15336071Y-12973214D01*
X15321786Y-12958929D01*
X15336071Y-12944643D01*
X15336071Y-12973214D01*
X15336071Y-12787500D02*
X15350357Y-12801786D01*
X15336071Y-12816071D01*
X15321786Y-12801786D01*
X15336071Y-12787500D01*
X15336071Y-12816071D01*
X12952500Y-13447500D02*
X12992500Y-13487500D01*
X12992500Y-13447500D02*
X12952500Y-13487500D01*
X13336071Y-13303214D02*
X13364643Y-13303214D01*
X13393214Y-13317500D01*
X13407500Y-13331786D01*
X13421786Y-13360357D01*
X13436071Y-13417500D01*
X13436071Y-13488929D01*
X13421786Y-13546071D01*
X13407500Y-13574643D01*
X13393214Y-13588929D01*
X13364643Y-13603214D01*
X13336071Y-13603214D01*
X13307500Y-13588929D01*
X13293214Y-13574643D01*
X13278928Y-13546071D01*
X13264643Y-13488929D01*
X13264643Y-13417500D01*
X13278928Y-13360357D01*
X13293214Y-13331786D01*
X13307500Y-13317500D01*
X13336071Y-13303214D01*
X13564643Y-13574643D02*
X13578928Y-13588929D01*
X13564643Y-13603214D01*
X13550357Y-13588929D01*
X13564643Y-13574643D01*
X13564643Y-13603214D01*
X13836071Y-13403214D02*
X13836071Y-13603214D01*
X13764643Y-13288929D02*
X13693214Y-13503214D01*
X13878928Y-13503214D01*
X14050357Y-13303214D02*
X14078928Y-13303214D01*
X14107500Y-13317500D01*
X14121786Y-13331786D01*
X14136071Y-13360357D01*
X14150357Y-13417500D01*
X14150357Y-13488929D01*
X14136071Y-13546071D01*
X14121786Y-13574643D01*
X14107500Y-13588929D01*
X14078928Y-13603214D01*
X14050357Y-13603214D01*
X14021786Y-13588929D01*
X14007500Y-13574643D01*
X13993214Y-13546071D01*
X13978928Y-13488929D01*
X13978928Y-13417500D01*
X13993214Y-13360357D01*
X14007500Y-13331786D01*
X14021786Y-13317500D01*
X14050357Y-13303214D01*
X14278928Y-13603214D02*
X14278928Y-13403214D01*
X14278928Y-13431786D02*
X14293214Y-13417500D01*
X14321786Y-13403214D01*
X14364643Y-13403214D01*
X14393214Y-13417500D01*
X14407500Y-13446071D01*
X14407500Y-13603214D01*
X14407500Y-13446071D02*
X14421786Y-13417500D01*
X14450357Y-13403214D01*
X14493214Y-13403214D01*
X14521786Y-13417500D01*
X14536071Y-13446071D01*
X14536071Y-13603214D01*
X14678928Y-13603214D02*
X14678928Y-13403214D01*
X14678928Y-13431786D02*
X14693214Y-13417500D01*
X14721786Y-13403214D01*
X14764643Y-13403214D01*
X14793214Y-13417500D01*
X14807500Y-13446071D01*
X14807500Y-13603214D01*
X14807500Y-13446071D02*
X14821786Y-13417500D01*
X14850357Y-13403214D01*
X14893214Y-13403214D01*
X14921786Y-13417500D01*
X14936071Y-13446071D01*
X14936071Y-13603214D01*
X15521786Y-13288929D02*
X15264643Y-13674643D01*
X15907500Y-13303214D02*
X15936071Y-13303214D01*
X15964643Y-13317500D01*
X15978928Y-13331786D01*
X15993214Y-13360357D01*
X16007500Y-13417500D01*
X16007500Y-13488929D01*
X15993214Y-13546071D01*
X15978928Y-13574643D01*
X15964643Y-13588929D01*
X15936071Y-13603214D01*
X15907500Y-13603214D01*
X15878928Y-13588929D01*
X15864643Y-13574643D01*
X15850357Y-13546071D01*
X15836071Y-13488929D01*
X15836071Y-13417500D01*
X15850357Y-13360357D01*
X15864643Y-13331786D01*
X15878928Y-13317500D01*
X15907500Y-13303214D01*
X16136071Y-13574643D02*
X16150357Y-13588929D01*
X16136071Y-13603214D01*
X16121786Y-13588929D01*
X16136071Y-13574643D01*
X16136071Y-13603214D01*
X16336071Y-13303214D02*
X16364643Y-13303214D01*
X16393214Y-13317500D01*
X16407500Y-13331786D01*
X16421786Y-13360357D01*
X16436071Y-13417500D01*
X16436071Y-13488929D01*
X16421786Y-13546071D01*
X16407500Y-13574643D01*
X16393214Y-13588929D01*
X16364643Y-13603214D01*
X16336071Y-13603214D01*
X16307500Y-13588929D01*
X16293214Y-13574643D01*
X16278928Y-13546071D01*
X16264643Y-13488929D01*
X16264643Y-13417500D01*
X16278928Y-13360357D01*
X16293214Y-13331786D01*
X16307500Y-13317500D01*
X16336071Y-13303214D01*
X16721786Y-13603214D02*
X16550357Y-13603214D01*
X16636071Y-13603214D02*
X16636071Y-13303214D01*
X16607500Y-13346071D01*
X16578928Y-13374643D01*
X16550357Y-13388929D01*
X16978928Y-13303214D02*
X16921786Y-13303214D01*
X16893214Y-13317500D01*
X16878928Y-13331786D01*
X16850357Y-13374643D01*
X16836071Y-13431786D01*
X16836071Y-13546071D01*
X16850357Y-13574643D01*
X16864643Y-13588929D01*
X16893214Y-13603214D01*
X16950357Y-13603214D01*
X16978928Y-13588929D01*
X16993214Y-13574643D01*
X17007500Y-13546071D01*
X17007500Y-13474643D01*
X16993214Y-13446071D01*
X16978928Y-13431786D01*
X16950357Y-13417500D01*
X16893214Y-13417500D01*
X16864643Y-13431786D01*
X16850357Y-13446071D01*
X16836071Y-13474643D01*
X17121786Y-13303214D02*
X17121786Y-13360357D01*
X17236071Y-13303214D02*
X17236071Y-13360357D01*
X17678928Y-13717500D02*
X17664643Y-13703214D01*
X17636071Y-13660357D01*
X17621786Y-13631786D01*
X17607500Y-13588929D01*
X17593214Y-13517500D01*
X17593214Y-13460357D01*
X17607500Y-13388929D01*
X17621786Y-13346071D01*
X17636071Y-13317500D01*
X17664643Y-13274643D01*
X17678928Y-13260357D01*
X17764643Y-13303214D02*
X17964643Y-13303214D01*
X17836071Y-13603214D01*
X18064643Y-13331786D02*
X18078928Y-13317500D01*
X18107500Y-13303214D01*
X18178928Y-13303214D01*
X18207500Y-13317500D01*
X18221786Y-13331786D01*
X18236071Y-13360357D01*
X18236071Y-13388929D01*
X18221786Y-13431786D01*
X18050357Y-13603214D01*
X18236071Y-13603214D01*
X18593214Y-13603214D02*
X18593214Y-13303214D01*
X18721786Y-13603214D02*
X18721786Y-13446071D01*
X18707500Y-13417500D01*
X18678928Y-13403214D01*
X18636071Y-13403214D01*
X18607500Y-13417500D01*
X18593214Y-13431786D01*
X18907500Y-13603214D02*
X18878928Y-13588929D01*
X18864643Y-13574643D01*
X18850357Y-13546071D01*
X18850357Y-13460357D01*
X18864643Y-13431786D01*
X18878928Y-13417500D01*
X18907500Y-13403214D01*
X18950357Y-13403214D01*
X18978928Y-13417500D01*
X18993214Y-13431786D01*
X19007500Y-13460357D01*
X19007500Y-13546071D01*
X18993214Y-13574643D01*
X18978928Y-13588929D01*
X18950357Y-13603214D01*
X18907500Y-13603214D01*
X19178928Y-13603214D02*
X19150357Y-13588929D01*
X19136071Y-13560357D01*
X19136071Y-13303214D01*
X19407500Y-13588929D02*
X19378928Y-13603214D01*
X19321786Y-13603214D01*
X19293214Y-13588929D01*
X19278928Y-13560357D01*
X19278928Y-13446071D01*
X19293214Y-13417500D01*
X19321786Y-13403214D01*
X19378928Y-13403214D01*
X19407500Y-13417500D01*
X19421786Y-13446071D01*
X19421786Y-13474643D01*
X19278928Y-13503214D01*
X19536071Y-13588929D02*
X19564643Y-13603214D01*
X19621786Y-13603214D01*
X19650357Y-13588929D01*
X19664643Y-13560357D01*
X19664643Y-13546071D01*
X19650357Y-13517500D01*
X19621786Y-13503214D01*
X19578928Y-13503214D01*
X19550357Y-13488929D01*
X19536071Y-13460357D01*
X19536071Y-13446071D01*
X19550357Y-13417500D01*
X19578928Y-13403214D01*
X19621786Y-13403214D01*
X19650357Y-13417500D01*
X19764643Y-13717500D02*
X19778928Y-13703214D01*
X19807500Y-13660357D01*
X19821786Y-13631786D01*
X19836071Y-13588929D01*
X19850357Y-13517500D01*
X19850357Y-13460357D01*
X19836071Y-13388929D01*
X19821786Y-13346071D01*
X19807500Y-13317500D01*
X19778928Y-13274643D01*
X19764643Y-13260357D01*
X12992500Y-13863500D02*
G75*
G03X12992500Y-13863500I-25000J0D01*
G01*
X13336071Y-13699214D02*
X13364643Y-13699214D01*
X13393214Y-13713500D01*
X13407500Y-13727786D01*
X13421786Y-13756357D01*
X13436071Y-13813500D01*
X13436071Y-13884929D01*
X13421786Y-13942071D01*
X13407500Y-13970643D01*
X13393214Y-13984929D01*
X13364643Y-13999214D01*
X13336071Y-13999214D01*
X13307500Y-13984929D01*
X13293214Y-13970643D01*
X13278928Y-13942071D01*
X13264643Y-13884929D01*
X13264643Y-13813500D01*
X13278928Y-13756357D01*
X13293214Y-13727786D01*
X13307500Y-13713500D01*
X13336071Y-13699214D01*
X13564643Y-13970643D02*
X13578928Y-13984929D01*
X13564643Y-13999214D01*
X13550357Y-13984929D01*
X13564643Y-13970643D01*
X13564643Y-13999214D01*
X13850357Y-13699214D02*
X13707500Y-13699214D01*
X13693214Y-13842071D01*
X13707500Y-13827786D01*
X13736071Y-13813500D01*
X13807500Y-13813500D01*
X13836071Y-13827786D01*
X13850357Y-13842071D01*
X13864643Y-13870643D01*
X13864643Y-13942071D01*
X13850357Y-13970643D01*
X13836071Y-13984929D01*
X13807500Y-13999214D01*
X13736071Y-13999214D01*
X13707500Y-13984929D01*
X13693214Y-13970643D01*
X14050357Y-13699214D02*
X14078928Y-13699214D01*
X14107500Y-13713500D01*
X14121786Y-13727786D01*
X14136071Y-13756357D01*
X14150357Y-13813500D01*
X14150357Y-13884929D01*
X14136071Y-13942071D01*
X14121786Y-13970643D01*
X14107500Y-13984929D01*
X14078928Y-13999214D01*
X14050357Y-13999214D01*
X14021786Y-13984929D01*
X14007500Y-13970643D01*
X13993214Y-13942071D01*
X13978928Y-13884929D01*
X13978928Y-13813500D01*
X13993214Y-13756357D01*
X14007500Y-13727786D01*
X14021786Y-13713500D01*
X14050357Y-13699214D01*
X14278928Y-13999214D02*
X14278928Y-13799214D01*
X14278928Y-13827786D02*
X14293214Y-13813500D01*
X14321786Y-13799214D01*
X14364643Y-13799214D01*
X14393214Y-13813500D01*
X14407500Y-13842071D01*
X14407500Y-13999214D01*
X14407500Y-13842071D02*
X14421786Y-13813500D01*
X14450357Y-13799214D01*
X14493214Y-13799214D01*
X14521786Y-13813500D01*
X14536071Y-13842071D01*
X14536071Y-13999214D01*
X14678928Y-13999214D02*
X14678928Y-13799214D01*
X14678928Y-13827786D02*
X14693214Y-13813500D01*
X14721786Y-13799214D01*
X14764643Y-13799214D01*
X14793214Y-13813500D01*
X14807500Y-13842071D01*
X14807500Y-13999214D01*
X14807500Y-13842071D02*
X14821786Y-13813500D01*
X14850357Y-13799214D01*
X14893214Y-13799214D01*
X14921786Y-13813500D01*
X14936071Y-13842071D01*
X14936071Y-13999214D01*
X15521786Y-13684929D02*
X15264643Y-14070643D01*
X15907500Y-13699214D02*
X15936071Y-13699214D01*
X15964643Y-13713500D01*
X15978928Y-13727786D01*
X15993214Y-13756357D01*
X16007500Y-13813500D01*
X16007500Y-13884929D01*
X15993214Y-13942071D01*
X15978928Y-13970643D01*
X15964643Y-13984929D01*
X15936071Y-13999214D01*
X15907500Y-13999214D01*
X15878928Y-13984929D01*
X15864643Y-13970643D01*
X15850357Y-13942071D01*
X15836071Y-13884929D01*
X15836071Y-13813500D01*
X15850357Y-13756357D01*
X15864643Y-13727786D01*
X15878928Y-13713500D01*
X15907500Y-13699214D01*
X16136071Y-13970643D02*
X16150357Y-13984929D01*
X16136071Y-13999214D01*
X16121786Y-13984929D01*
X16136071Y-13970643D01*
X16136071Y-13999214D01*
X16336071Y-13699214D02*
X16364643Y-13699214D01*
X16393214Y-13713500D01*
X16407500Y-13727786D01*
X16421786Y-13756357D01*
X16436071Y-13813500D01*
X16436071Y-13884929D01*
X16421786Y-13942071D01*
X16407500Y-13970643D01*
X16393214Y-13984929D01*
X16364643Y-13999214D01*
X16336071Y-13999214D01*
X16307500Y-13984929D01*
X16293214Y-13970643D01*
X16278928Y-13942071D01*
X16264643Y-13884929D01*
X16264643Y-13813500D01*
X16278928Y-13756357D01*
X16293214Y-13727786D01*
X16307500Y-13713500D01*
X16336071Y-13699214D01*
X16550357Y-13727786D02*
X16564643Y-13713500D01*
X16593214Y-13699214D01*
X16664643Y-13699214D01*
X16693214Y-13713500D01*
X16707500Y-13727786D01*
X16721786Y-13756357D01*
X16721786Y-13784929D01*
X16707500Y-13827786D01*
X16536071Y-13999214D01*
X16721786Y-13999214D01*
X16907500Y-13699214D02*
X16936071Y-13699214D01*
X16964643Y-13713500D01*
X16978928Y-13727786D01*
X16993214Y-13756357D01*
X17007500Y-13813500D01*
X17007500Y-13884929D01*
X16993214Y-13942071D01*
X16978928Y-13970643D01*
X16964643Y-13984929D01*
X16936071Y-13999214D01*
X16907500Y-13999214D01*
X16878928Y-13984929D01*
X16864643Y-13970643D01*
X16850357Y-13942071D01*
X16836071Y-13884929D01*
X16836071Y-13813500D01*
X16850357Y-13756357D01*
X16864643Y-13727786D01*
X16878928Y-13713500D01*
X16907500Y-13699214D01*
X17121786Y-13699214D02*
X17121786Y-13756357D01*
X17236071Y-13699214D02*
X17236071Y-13756357D01*
X17678928Y-14113500D02*
X17664643Y-14099214D01*
X17636071Y-14056357D01*
X17621786Y-14027786D01*
X17607500Y-13984929D01*
X17593214Y-13913500D01*
X17593214Y-13856357D01*
X17607500Y-13784929D01*
X17621786Y-13742071D01*
X17636071Y-13713500D01*
X17664643Y-13670643D01*
X17678928Y-13656357D01*
X17764643Y-13699214D02*
X17950357Y-13699214D01*
X17850357Y-13813500D01*
X17893214Y-13813500D01*
X17921786Y-13827786D01*
X17936071Y-13842071D01*
X17950357Y-13870643D01*
X17950357Y-13942071D01*
X17936071Y-13970643D01*
X17921786Y-13984929D01*
X17893214Y-13999214D01*
X17807500Y-13999214D01*
X17778928Y-13984929D01*
X17764643Y-13970643D01*
X18064643Y-13727786D02*
X18078928Y-13713500D01*
X18107500Y-13699214D01*
X18178928Y-13699214D01*
X18207500Y-13713500D01*
X18221786Y-13727786D01*
X18236071Y-13756357D01*
X18236071Y-13784929D01*
X18221786Y-13827786D01*
X18050357Y-13999214D01*
X18236071Y-13999214D01*
X18593214Y-13999214D02*
X18593214Y-13699214D01*
X18721786Y-13999214D02*
X18721786Y-13842071D01*
X18707500Y-13813500D01*
X18678928Y-13799214D01*
X18636071Y-13799214D01*
X18607500Y-13813500D01*
X18593214Y-13827786D01*
X18907500Y-13999214D02*
X18878928Y-13984929D01*
X18864643Y-13970643D01*
X18850357Y-13942071D01*
X18850357Y-13856357D01*
X18864643Y-13827786D01*
X18878928Y-13813500D01*
X18907500Y-13799214D01*
X18950357Y-13799214D01*
X18978928Y-13813500D01*
X18993214Y-13827786D01*
X19007500Y-13856357D01*
X19007500Y-13942071D01*
X18993214Y-13970643D01*
X18978928Y-13984929D01*
X18950357Y-13999214D01*
X18907500Y-13999214D01*
X19178928Y-13999214D02*
X19150357Y-13984929D01*
X19136071Y-13956357D01*
X19136071Y-13699214D01*
X19407500Y-13984929D02*
X19378928Y-13999214D01*
X19321786Y-13999214D01*
X19293214Y-13984929D01*
X19278928Y-13956357D01*
X19278928Y-13842071D01*
X19293214Y-13813500D01*
X19321786Y-13799214D01*
X19378928Y-13799214D01*
X19407500Y-13813500D01*
X19421786Y-13842071D01*
X19421786Y-13870643D01*
X19278928Y-13899214D01*
X19536071Y-13984929D02*
X19564643Y-13999214D01*
X19621786Y-13999214D01*
X19650357Y-13984929D01*
X19664643Y-13956357D01*
X19664643Y-13942071D01*
X19650357Y-13913500D01*
X19621786Y-13899214D01*
X19578928Y-13899214D01*
X19550357Y-13884929D01*
X19536071Y-13856357D01*
X19536071Y-13842071D01*
X19550357Y-13813500D01*
X19578928Y-13799214D01*
X19621786Y-13799214D01*
X19650357Y-13813500D01*
X19764643Y-14113500D02*
X19778928Y-14099214D01*
X19807500Y-14056357D01*
X19821786Y-14027786D01*
X19836071Y-13984929D01*
X19850357Y-13913500D01*
X19850357Y-13856357D01*
X19836071Y-13784929D01*
X19821786Y-13742071D01*
X19807500Y-13713500D01*
X19778928Y-13670643D01*
X19764643Y-13656357D01*
X12942500Y-14209500D02*
X12942500Y-14309500D01*
X12892500Y-14259500D02*
X12992500Y-14259500D01*
X13436071Y-14395214D02*
X13264643Y-14395214D01*
X13350357Y-14395214D02*
X13350357Y-14095214D01*
X13321786Y-14138071D01*
X13293214Y-14166643D01*
X13264643Y-14180929D01*
X13564643Y-14366643D02*
X13578928Y-14380929D01*
X13564643Y-14395214D01*
X13550357Y-14380929D01*
X13564643Y-14366643D01*
X13564643Y-14395214D01*
X13764643Y-14095214D02*
X13793214Y-14095214D01*
X13821786Y-14109500D01*
X13836071Y-14123786D01*
X13850357Y-14152357D01*
X13864643Y-14209500D01*
X13864643Y-14280929D01*
X13850357Y-14338071D01*
X13836071Y-14366643D01*
X13821786Y-14380929D01*
X13793214Y-14395214D01*
X13764643Y-14395214D01*
X13736071Y-14380929D01*
X13721786Y-14366643D01*
X13707500Y-14338071D01*
X13693214Y-14280929D01*
X13693214Y-14209500D01*
X13707500Y-14152357D01*
X13721786Y-14123786D01*
X13736071Y-14109500D01*
X13764643Y-14095214D01*
X14050357Y-14095214D02*
X14078928Y-14095214D01*
X14107500Y-14109500D01*
X14121786Y-14123786D01*
X14136071Y-14152357D01*
X14150357Y-14209500D01*
X14150357Y-14280929D01*
X14136071Y-14338071D01*
X14121786Y-14366643D01*
X14107500Y-14380929D01*
X14078928Y-14395214D01*
X14050357Y-14395214D01*
X14021786Y-14380929D01*
X14007500Y-14366643D01*
X13993214Y-14338071D01*
X13978928Y-14280929D01*
X13978928Y-14209500D01*
X13993214Y-14152357D01*
X14007500Y-14123786D01*
X14021786Y-14109500D01*
X14050357Y-14095214D01*
X14278928Y-14395214D02*
X14278928Y-14195214D01*
X14278928Y-14223786D02*
X14293214Y-14209500D01*
X14321786Y-14195214D01*
X14364643Y-14195214D01*
X14393214Y-14209500D01*
X14407500Y-14238071D01*
X14407500Y-14395214D01*
X14407500Y-14238071D02*
X14421786Y-14209500D01*
X14450357Y-14195214D01*
X14493214Y-14195214D01*
X14521786Y-14209500D01*
X14536071Y-14238071D01*
X14536071Y-14395214D01*
X14678928Y-14395214D02*
X14678928Y-14195214D01*
X14678928Y-14223786D02*
X14693214Y-14209500D01*
X14721786Y-14195214D01*
X14764643Y-14195214D01*
X14793214Y-14209500D01*
X14807500Y-14238071D01*
X14807500Y-14395214D01*
X14807500Y-14238071D02*
X14821786Y-14209500D01*
X14850357Y-14195214D01*
X14893214Y-14195214D01*
X14921786Y-14209500D01*
X14936071Y-14238071D01*
X14936071Y-14395214D01*
X15521786Y-14080929D02*
X15264643Y-14466643D01*
X15907500Y-14095214D02*
X15936071Y-14095214D01*
X15964643Y-14109500D01*
X15978928Y-14123786D01*
X15993214Y-14152357D01*
X16007500Y-14209500D01*
X16007500Y-14280929D01*
X15993214Y-14338071D01*
X15978928Y-14366643D01*
X15964643Y-14380929D01*
X15936071Y-14395214D01*
X15907500Y-14395214D01*
X15878928Y-14380929D01*
X15864643Y-14366643D01*
X15850357Y-14338071D01*
X15836071Y-14280929D01*
X15836071Y-14209500D01*
X15850357Y-14152357D01*
X15864643Y-14123786D01*
X15878928Y-14109500D01*
X15907500Y-14095214D01*
X16136071Y-14366643D02*
X16150357Y-14380929D01*
X16136071Y-14395214D01*
X16121786Y-14380929D01*
X16136071Y-14366643D01*
X16136071Y-14395214D01*
X16336071Y-14095214D02*
X16364643Y-14095214D01*
X16393214Y-14109500D01*
X16407500Y-14123786D01*
X16421786Y-14152357D01*
X16436071Y-14209500D01*
X16436071Y-14280929D01*
X16421786Y-14338071D01*
X16407500Y-14366643D01*
X16393214Y-14380929D01*
X16364643Y-14395214D01*
X16336071Y-14395214D01*
X16307500Y-14380929D01*
X16293214Y-14366643D01*
X16278928Y-14338071D01*
X16264643Y-14280929D01*
X16264643Y-14209500D01*
X16278928Y-14152357D01*
X16293214Y-14123786D01*
X16307500Y-14109500D01*
X16336071Y-14095214D01*
X16536071Y-14095214D02*
X16721786Y-14095214D01*
X16621786Y-14209500D01*
X16664643Y-14209500D01*
X16693214Y-14223786D01*
X16707500Y-14238071D01*
X16721786Y-14266643D01*
X16721786Y-14338071D01*
X16707500Y-14366643D01*
X16693214Y-14380929D01*
X16664643Y-14395214D01*
X16578928Y-14395214D01*
X16550357Y-14380929D01*
X16536071Y-14366643D01*
X16864643Y-14395214D02*
X16921786Y-14395214D01*
X16950357Y-14380929D01*
X16964643Y-14366643D01*
X16993214Y-14323786D01*
X17007500Y-14266643D01*
X17007500Y-14152357D01*
X16993214Y-14123786D01*
X16978928Y-14109500D01*
X16950357Y-14095214D01*
X16893214Y-14095214D01*
X16864643Y-14109500D01*
X16850357Y-14123786D01*
X16836071Y-14152357D01*
X16836071Y-14223786D01*
X16850357Y-14252357D01*
X16864643Y-14266643D01*
X16893214Y-14280929D01*
X16950357Y-14280929D01*
X16978928Y-14266643D01*
X16993214Y-14252357D01*
X17007500Y-14223786D01*
X17121786Y-14095214D02*
X17121786Y-14152357D01*
X17236071Y-14095214D02*
X17236071Y-14152357D01*
X17678928Y-14509500D02*
X17664643Y-14495214D01*
X17636071Y-14452357D01*
X17621786Y-14423786D01*
X17607500Y-14380929D01*
X17593214Y-14309500D01*
X17593214Y-14252357D01*
X17607500Y-14180929D01*
X17621786Y-14138071D01*
X17636071Y-14109500D01*
X17664643Y-14066643D01*
X17678928Y-14052357D01*
X17950357Y-14395214D02*
X17778928Y-14395214D01*
X17864643Y-14395214D02*
X17864643Y-14095214D01*
X17836071Y-14138071D01*
X17807500Y-14166643D01*
X17778928Y-14180929D01*
X18121786Y-14223786D02*
X18093214Y-14209500D01*
X18078928Y-14195214D01*
X18064643Y-14166643D01*
X18064643Y-14152357D01*
X18078928Y-14123786D01*
X18093214Y-14109500D01*
X18121786Y-14095214D01*
X18178928Y-14095214D01*
X18207500Y-14109500D01*
X18221786Y-14123786D01*
X18236071Y-14152357D01*
X18236071Y-14166643D01*
X18221786Y-14195214D01*
X18207500Y-14209500D01*
X18178928Y-14223786D01*
X18121786Y-14223786D01*
X18093214Y-14238071D01*
X18078928Y-14252357D01*
X18064643Y-14280929D01*
X18064643Y-14338071D01*
X18078928Y-14366643D01*
X18093214Y-14380929D01*
X18121786Y-14395214D01*
X18178928Y-14395214D01*
X18207500Y-14380929D01*
X18221786Y-14366643D01*
X18236071Y-14338071D01*
X18236071Y-14280929D01*
X18221786Y-14252357D01*
X18207500Y-14238071D01*
X18178928Y-14223786D01*
X18593214Y-14395214D02*
X18593214Y-14095214D01*
X18721786Y-14395214D02*
X18721786Y-14238071D01*
X18707500Y-14209500D01*
X18678928Y-14195214D01*
X18636071Y-14195214D01*
X18607500Y-14209500D01*
X18593214Y-14223786D01*
X18907500Y-14395214D02*
X18878928Y-14380929D01*
X18864643Y-14366643D01*
X18850357Y-14338071D01*
X18850357Y-14252357D01*
X18864643Y-14223786D01*
X18878928Y-14209500D01*
X18907500Y-14195214D01*
X18950357Y-14195214D01*
X18978928Y-14209500D01*
X18993214Y-14223786D01*
X19007500Y-14252357D01*
X19007500Y-14338071D01*
X18993214Y-14366643D01*
X18978928Y-14380929D01*
X18950357Y-14395214D01*
X18907500Y-14395214D01*
X19178928Y-14395214D02*
X19150357Y-14380929D01*
X19136071Y-14352357D01*
X19136071Y-14095214D01*
X19407500Y-14380929D02*
X19378928Y-14395214D01*
X19321786Y-14395214D01*
X19293214Y-14380929D01*
X19278928Y-14352357D01*
X19278928Y-14238071D01*
X19293214Y-14209500D01*
X19321786Y-14195214D01*
X19378928Y-14195214D01*
X19407500Y-14209500D01*
X19421786Y-14238071D01*
X19421786Y-14266643D01*
X19278928Y-14295214D01*
X19536071Y-14380929D02*
X19564643Y-14395214D01*
X19621786Y-14395214D01*
X19650357Y-14380929D01*
X19664643Y-14352357D01*
X19664643Y-14338071D01*
X19650357Y-14309500D01*
X19621786Y-14295214D01*
X19578928Y-14295214D01*
X19550357Y-14280929D01*
X19536071Y-14252357D01*
X19536071Y-14238071D01*
X19550357Y-14209500D01*
X19578928Y-14195214D01*
X19621786Y-14195214D01*
X19650357Y-14209500D01*
X19764643Y-14509500D02*
X19778928Y-14495214D01*
X19807500Y-14452357D01*
X19821786Y-14423786D01*
X19836071Y-14380929D01*
X19850357Y-14309500D01*
X19850357Y-14252357D01*
X19836071Y-14180929D01*
X19821786Y-14138071D01*
X19807500Y-14109500D01*
X19778928Y-14066643D01*
X19764643Y-14052357D01*
X12974927Y-14697927D02*
X12974927Y-14613073D01*
X12890073Y-14613073D01*
X12890073Y-14697927D01*
X12974927Y-14697927D01*
X13436071Y-14791214D02*
X13264643Y-14791214D01*
X13350357Y-14791214D02*
X13350357Y-14491214D01*
X13321786Y-14534071D01*
X13293214Y-14562643D01*
X13264643Y-14576929D01*
X13564643Y-14762643D02*
X13578928Y-14776929D01*
X13564643Y-14791214D01*
X13550357Y-14776929D01*
X13564643Y-14762643D01*
X13564643Y-14791214D01*
X13693214Y-14519786D02*
X13707500Y-14505500D01*
X13736071Y-14491214D01*
X13807500Y-14491214D01*
X13836071Y-14505500D01*
X13850357Y-14519786D01*
X13864643Y-14548357D01*
X13864643Y-14576929D01*
X13850357Y-14619786D01*
X13678928Y-14791214D01*
X13864643Y-14791214D01*
X14050357Y-14491214D02*
X14078928Y-14491214D01*
X14107500Y-14505500D01*
X14121786Y-14519786D01*
X14136071Y-14548357D01*
X14150357Y-14605500D01*
X14150357Y-14676929D01*
X14136071Y-14734071D01*
X14121786Y-14762643D01*
X14107500Y-14776929D01*
X14078928Y-14791214D01*
X14050357Y-14791214D01*
X14021786Y-14776929D01*
X14007500Y-14762643D01*
X13993214Y-14734071D01*
X13978928Y-14676929D01*
X13978928Y-14605500D01*
X13993214Y-14548357D01*
X14007500Y-14519786D01*
X14021786Y-14505500D01*
X14050357Y-14491214D01*
X14278928Y-14791214D02*
X14278928Y-14591214D01*
X14278928Y-14619786D02*
X14293214Y-14605500D01*
X14321786Y-14591214D01*
X14364643Y-14591214D01*
X14393214Y-14605500D01*
X14407500Y-14634071D01*
X14407500Y-14791214D01*
X14407500Y-14634071D02*
X14421786Y-14605500D01*
X14450357Y-14591214D01*
X14493214Y-14591214D01*
X14521786Y-14605500D01*
X14536071Y-14634071D01*
X14536071Y-14791214D01*
X14678928Y-14791214D02*
X14678928Y-14591214D01*
X14678928Y-14619786D02*
X14693214Y-14605500D01*
X14721786Y-14591214D01*
X14764643Y-14591214D01*
X14793214Y-14605500D01*
X14807500Y-14634071D01*
X14807500Y-14791214D01*
X14807500Y-14634071D02*
X14821786Y-14605500D01*
X14850357Y-14591214D01*
X14893214Y-14591214D01*
X14921786Y-14605500D01*
X14936071Y-14634071D01*
X14936071Y-14791214D01*
X15521786Y-14476929D02*
X15264643Y-14862643D01*
X15907500Y-14491214D02*
X15936071Y-14491214D01*
X15964643Y-14505500D01*
X15978928Y-14519786D01*
X15993214Y-14548357D01*
X16007500Y-14605500D01*
X16007500Y-14676929D01*
X15993214Y-14734071D01*
X15978928Y-14762643D01*
X15964643Y-14776929D01*
X15936071Y-14791214D01*
X15907500Y-14791214D01*
X15878928Y-14776929D01*
X15864643Y-14762643D01*
X15850357Y-14734071D01*
X15836071Y-14676929D01*
X15836071Y-14605500D01*
X15850357Y-14548357D01*
X15864643Y-14519786D01*
X15878928Y-14505500D01*
X15907500Y-14491214D01*
X16136071Y-14762643D02*
X16150357Y-14776929D01*
X16136071Y-14791214D01*
X16121786Y-14776929D01*
X16136071Y-14762643D01*
X16136071Y-14791214D01*
X16336071Y-14491214D02*
X16364643Y-14491214D01*
X16393214Y-14505500D01*
X16407500Y-14519786D01*
X16421786Y-14548357D01*
X16436071Y-14605500D01*
X16436071Y-14676929D01*
X16421786Y-14734071D01*
X16407500Y-14762643D01*
X16393214Y-14776929D01*
X16364643Y-14791214D01*
X16336071Y-14791214D01*
X16307500Y-14776929D01*
X16293214Y-14762643D01*
X16278928Y-14734071D01*
X16264643Y-14676929D01*
X16264643Y-14605500D01*
X16278928Y-14548357D01*
X16293214Y-14519786D01*
X16307500Y-14505500D01*
X16336071Y-14491214D01*
X16693214Y-14591214D02*
X16693214Y-14791214D01*
X16621786Y-14476929D02*
X16550357Y-14691214D01*
X16736071Y-14691214D01*
X16821786Y-14491214D02*
X17021786Y-14491214D01*
X16893214Y-14791214D01*
X17121786Y-14491214D02*
X17121786Y-14548357D01*
X17236071Y-14491214D02*
X17236071Y-14548357D01*
X17678928Y-14905500D02*
X17664643Y-14891214D01*
X17636071Y-14848357D01*
X17621786Y-14819786D01*
X17607500Y-14776929D01*
X17593214Y-14705500D01*
X17593214Y-14648357D01*
X17607500Y-14576929D01*
X17621786Y-14534071D01*
X17636071Y-14505500D01*
X17664643Y-14462643D01*
X17678928Y-14448357D01*
X17778928Y-14519786D02*
X17793214Y-14505500D01*
X17821786Y-14491214D01*
X17893214Y-14491214D01*
X17921786Y-14505500D01*
X17936071Y-14519786D01*
X17950357Y-14548357D01*
X17950357Y-14576929D01*
X17936071Y-14619786D01*
X17764643Y-14791214D01*
X17950357Y-14791214D01*
X18121786Y-14619786D02*
X18093214Y-14605500D01*
X18078928Y-14591214D01*
X18064643Y-14562643D01*
X18064643Y-14548357D01*
X18078928Y-14519786D01*
X18093214Y-14505500D01*
X18121786Y-14491214D01*
X18178928Y-14491214D01*
X18207500Y-14505500D01*
X18221786Y-14519786D01*
X18236071Y-14548357D01*
X18236071Y-14562643D01*
X18221786Y-14591214D01*
X18207500Y-14605500D01*
X18178928Y-14619786D01*
X18121786Y-14619786D01*
X18093214Y-14634071D01*
X18078928Y-14648357D01*
X18064643Y-14676929D01*
X18064643Y-14734071D01*
X18078928Y-14762643D01*
X18093214Y-14776929D01*
X18121786Y-14791214D01*
X18178928Y-14791214D01*
X18207500Y-14776929D01*
X18221786Y-14762643D01*
X18236071Y-14734071D01*
X18236071Y-14676929D01*
X18221786Y-14648357D01*
X18207500Y-14634071D01*
X18178928Y-14619786D01*
X18593214Y-14791214D02*
X18593214Y-14491214D01*
X18721786Y-14791214D02*
X18721786Y-14634071D01*
X18707500Y-14605500D01*
X18678928Y-14591214D01*
X18636071Y-14591214D01*
X18607500Y-14605500D01*
X18593214Y-14619786D01*
X18907500Y-14791214D02*
X18878928Y-14776929D01*
X18864643Y-14762643D01*
X18850357Y-14734071D01*
X18850357Y-14648357D01*
X18864643Y-14619786D01*
X18878928Y-14605500D01*
X18907500Y-14591214D01*
X18950357Y-14591214D01*
X18978928Y-14605500D01*
X18993214Y-14619786D01*
X19007500Y-14648357D01*
X19007500Y-14734071D01*
X18993214Y-14762643D01*
X18978928Y-14776929D01*
X18950357Y-14791214D01*
X18907500Y-14791214D01*
X19178928Y-14791214D02*
X19150357Y-14776929D01*
X19136071Y-14748357D01*
X19136071Y-14491214D01*
X19407500Y-14776929D02*
X19378928Y-14791214D01*
X19321786Y-14791214D01*
X19293214Y-14776929D01*
X19278928Y-14748357D01*
X19278928Y-14634071D01*
X19293214Y-14605500D01*
X19321786Y-14591214D01*
X19378928Y-14591214D01*
X19407500Y-14605500D01*
X19421786Y-14634071D01*
X19421786Y-14662643D01*
X19278928Y-14691214D01*
X19536071Y-14776929D02*
X19564643Y-14791214D01*
X19621786Y-14791214D01*
X19650357Y-14776929D01*
X19664643Y-14748357D01*
X19664643Y-14734071D01*
X19650357Y-14705500D01*
X19621786Y-14691214D01*
X19578928Y-14691214D01*
X19550357Y-14676929D01*
X19536071Y-14648357D01*
X19536071Y-14634071D01*
X19550357Y-14605500D01*
X19578928Y-14591214D01*
X19621786Y-14591214D01*
X19650357Y-14605500D01*
X19764643Y-14905500D02*
X19778928Y-14891214D01*
X19807500Y-14848357D01*
X19821786Y-14819786D01*
X19836071Y-14776929D01*
X19850357Y-14705500D01*
X19850357Y-14648357D01*
X19836071Y-14576929D01*
X19821786Y-14534071D01*
X19807500Y-14505500D01*
X19778928Y-14462643D01*
X19764643Y-14448357D01*
X12842500Y-15201500D02*
X12992500Y-15051500D01*
X12842500Y-14901500D01*
X12692500Y-15051500D01*
X12842500Y-15201500D01*
X13250357Y-14887214D02*
X13436071Y-14887214D01*
X13336071Y-15001500D01*
X13378928Y-15001500D01*
X13407500Y-15015786D01*
X13421786Y-15030071D01*
X13436071Y-15058643D01*
X13436071Y-15130071D01*
X13421786Y-15158643D01*
X13407500Y-15172929D01*
X13378928Y-15187214D01*
X13293214Y-15187214D01*
X13264643Y-15172929D01*
X13250357Y-15158643D01*
X13564643Y-15158643D02*
X13578928Y-15172929D01*
X13564643Y-15187214D01*
X13550357Y-15172929D01*
X13564643Y-15158643D01*
X13564643Y-15187214D01*
X13764643Y-14887214D02*
X13793214Y-14887214D01*
X13821786Y-14901500D01*
X13836071Y-14915786D01*
X13850357Y-14944357D01*
X13864643Y-15001500D01*
X13864643Y-15072929D01*
X13850357Y-15130071D01*
X13836071Y-15158643D01*
X13821786Y-15172929D01*
X13793214Y-15187214D01*
X13764643Y-15187214D01*
X13736071Y-15172929D01*
X13721786Y-15158643D01*
X13707500Y-15130071D01*
X13693214Y-15072929D01*
X13693214Y-15001500D01*
X13707500Y-14944357D01*
X13721786Y-14915786D01*
X13736071Y-14901500D01*
X13764643Y-14887214D01*
X14050357Y-14887214D02*
X14078928Y-14887214D01*
X14107500Y-14901500D01*
X14121786Y-14915786D01*
X14136071Y-14944357D01*
X14150357Y-15001500D01*
X14150357Y-15072929D01*
X14136071Y-15130071D01*
X14121786Y-15158643D01*
X14107500Y-15172929D01*
X14078928Y-15187214D01*
X14050357Y-15187214D01*
X14021786Y-15172929D01*
X14007500Y-15158643D01*
X13993214Y-15130071D01*
X13978928Y-15072929D01*
X13978928Y-15001500D01*
X13993214Y-14944357D01*
X14007500Y-14915786D01*
X14021786Y-14901500D01*
X14050357Y-14887214D01*
X14278928Y-15187214D02*
X14278928Y-14987214D01*
X14278928Y-15015786D02*
X14293214Y-15001500D01*
X14321786Y-14987214D01*
X14364643Y-14987214D01*
X14393214Y-15001500D01*
X14407500Y-15030071D01*
X14407500Y-15187214D01*
X14407500Y-15030071D02*
X14421786Y-15001500D01*
X14450357Y-14987214D01*
X14493214Y-14987214D01*
X14521786Y-15001500D01*
X14536071Y-15030071D01*
X14536071Y-15187214D01*
X14678928Y-15187214D02*
X14678928Y-14987214D01*
X14678928Y-15015786D02*
X14693214Y-15001500D01*
X14721786Y-14987214D01*
X14764643Y-14987214D01*
X14793214Y-15001500D01*
X14807500Y-15030071D01*
X14807500Y-15187214D01*
X14807500Y-15030071D02*
X14821786Y-15001500D01*
X14850357Y-14987214D01*
X14893214Y-14987214D01*
X14921786Y-15001500D01*
X14936071Y-15030071D01*
X14936071Y-15187214D01*
X15521786Y-14872929D02*
X15264643Y-15258643D01*
X15907500Y-14887214D02*
X15936071Y-14887214D01*
X15964643Y-14901500D01*
X15978928Y-14915786D01*
X15993214Y-14944357D01*
X16007500Y-15001500D01*
X16007500Y-15072929D01*
X15993214Y-15130071D01*
X15978928Y-15158643D01*
X15964643Y-15172929D01*
X15936071Y-15187214D01*
X15907500Y-15187214D01*
X15878928Y-15172929D01*
X15864643Y-15158643D01*
X15850357Y-15130071D01*
X15836071Y-15072929D01*
X15836071Y-15001500D01*
X15850357Y-14944357D01*
X15864643Y-14915786D01*
X15878928Y-14901500D01*
X15907500Y-14887214D01*
X16136071Y-15158643D02*
X16150357Y-15172929D01*
X16136071Y-15187214D01*
X16121786Y-15172929D01*
X16136071Y-15158643D01*
X16136071Y-15187214D01*
X16436071Y-15187214D02*
X16264643Y-15187214D01*
X16350357Y-15187214D02*
X16350357Y-14887214D01*
X16321786Y-14930071D01*
X16293214Y-14958643D01*
X16264643Y-14972929D01*
X16721786Y-15187214D02*
X16550357Y-15187214D01*
X16636071Y-15187214D02*
X16636071Y-14887214D01*
X16607500Y-14930071D01*
X16578928Y-14958643D01*
X16550357Y-14972929D01*
X16893214Y-15015786D02*
X16864643Y-15001500D01*
X16850357Y-14987214D01*
X16836071Y-14958643D01*
X16836071Y-14944357D01*
X16850357Y-14915786D01*
X16864643Y-14901500D01*
X16893214Y-14887214D01*
X16950357Y-14887214D01*
X16978928Y-14901500D01*
X16993214Y-14915786D01*
X17007500Y-14944357D01*
X17007500Y-14958643D01*
X16993214Y-14987214D01*
X16978928Y-15001500D01*
X16950357Y-15015786D01*
X16893214Y-15015786D01*
X16864643Y-15030071D01*
X16850357Y-15044357D01*
X16836071Y-15072929D01*
X16836071Y-15130071D01*
X16850357Y-15158643D01*
X16864643Y-15172929D01*
X16893214Y-15187214D01*
X16950357Y-15187214D01*
X16978928Y-15172929D01*
X16993214Y-15158643D01*
X17007500Y-15130071D01*
X17007500Y-15072929D01*
X16993214Y-15044357D01*
X16978928Y-15030071D01*
X16950357Y-15015786D01*
X17121786Y-14887214D02*
X17121786Y-14944357D01*
X17236071Y-14887214D02*
X17236071Y-14944357D01*
X17678928Y-15301500D02*
X17664643Y-15287214D01*
X17636071Y-15244357D01*
X17621786Y-15215786D01*
X17607500Y-15172929D01*
X17593214Y-15101500D01*
X17593214Y-15044357D01*
X17607500Y-14972929D01*
X17621786Y-14930071D01*
X17636071Y-14901500D01*
X17664643Y-14858643D01*
X17678928Y-14844357D01*
X17921786Y-14987214D02*
X17921786Y-15187214D01*
X17850357Y-14872929D02*
X17778928Y-15087214D01*
X17964643Y-15087214D01*
X18307500Y-15187214D02*
X18307500Y-14887214D01*
X18436071Y-15187214D02*
X18436071Y-15030071D01*
X18421786Y-15001500D01*
X18393214Y-14987214D01*
X18350357Y-14987214D01*
X18321786Y-15001500D01*
X18307500Y-15015786D01*
X18621786Y-15187214D02*
X18593214Y-15172929D01*
X18578928Y-15158643D01*
X18564643Y-15130071D01*
X18564643Y-15044357D01*
X18578928Y-15015786D01*
X18593214Y-15001500D01*
X18621786Y-14987214D01*
X18664643Y-14987214D01*
X18693214Y-15001500D01*
X18707500Y-15015786D01*
X18721786Y-15044357D01*
X18721786Y-15130071D01*
X18707500Y-15158643D01*
X18693214Y-15172929D01*
X18664643Y-15187214D01*
X18621786Y-15187214D01*
X18893214Y-15187214D02*
X18864643Y-15172929D01*
X18850357Y-15144357D01*
X18850357Y-14887214D01*
X19121786Y-15172929D02*
X19093214Y-15187214D01*
X19036071Y-15187214D01*
X19007500Y-15172929D01*
X18993214Y-15144357D01*
X18993214Y-15030071D01*
X19007500Y-15001500D01*
X19036071Y-14987214D01*
X19093214Y-14987214D01*
X19121786Y-15001500D01*
X19136071Y-15030071D01*
X19136071Y-15058643D01*
X18993214Y-15087214D01*
X19250357Y-15172929D02*
X19278928Y-15187214D01*
X19336071Y-15187214D01*
X19364643Y-15172929D01*
X19378928Y-15144357D01*
X19378928Y-15130071D01*
X19364643Y-15101500D01*
X19336071Y-15087214D01*
X19293214Y-15087214D01*
X19264643Y-15072929D01*
X19250357Y-15044357D01*
X19250357Y-15030071D01*
X19264643Y-15001500D01*
X19293214Y-14987214D01*
X19336071Y-14987214D01*
X19364643Y-15001500D01*
X19478928Y-15301500D02*
X19493214Y-15287214D01*
X19521786Y-15244357D01*
X19536071Y-15215786D01*
X19550357Y-15172929D01*
X19564643Y-15101500D01*
X19564643Y-15044357D01*
X19550357Y-14972929D01*
X19536071Y-14930071D01*
X19521786Y-14901500D01*
X19493214Y-14858643D01*
X19478928Y-14844357D01*
M02*
