%FSLAX45Y45*%
G04 Gerber Fmt 4.5, Leading zero omitted, Abs format (unit mm)*
G04 Created by KiCad (PCBNEW 5.0.0) date Sun Oct 21 13:39:20 2018*
%MOMM*%
%LPD*%
G01*
G04 APERTURE LIST*
%ADD10C,0.150000*%
%ADD11C,0.200000*%
%ADD12C,0.300000*%
G04 APERTURE END LIST*
D10*
X18000000Y-12500000D02*
X18000000Y-7500000D01*
X13000000Y-12500000D02*
X18000000Y-12500000D01*
X13000000Y-7500000D02*
X13000000Y-12500000D01*
X18000000Y-7500000D02*
X13000000Y-7500000D01*
D11*
D12*
X13278928Y-12973214D02*
X13278928Y-12673214D01*
X13350357Y-12673214D01*
X13393214Y-12687500D01*
X13421786Y-12716071D01*
X13436071Y-12744643D01*
X13450357Y-12801786D01*
X13450357Y-12844643D01*
X13436071Y-12901786D01*
X13421786Y-12930357D01*
X13393214Y-12958929D01*
X13350357Y-12973214D01*
X13278928Y-12973214D01*
X13578928Y-12973214D02*
X13578928Y-12773214D01*
X13578928Y-12830357D02*
X13593214Y-12801786D01*
X13607500Y-12787500D01*
X13636071Y-12773214D01*
X13664643Y-12773214D01*
X13764643Y-12973214D02*
X13764643Y-12773214D01*
X13764643Y-12673214D02*
X13750357Y-12687500D01*
X13764643Y-12701786D01*
X13778928Y-12687500D01*
X13764643Y-12673214D01*
X13764643Y-12701786D01*
X13950357Y-12973214D02*
X13921786Y-12958929D01*
X13907500Y-12930357D01*
X13907500Y-12673214D01*
X14107500Y-12973214D02*
X14078928Y-12958929D01*
X14064643Y-12930357D01*
X14064643Y-12673214D01*
X14450357Y-12973214D02*
X14450357Y-12673214D01*
X14550357Y-12887500D01*
X14650357Y-12673214D01*
X14650357Y-12973214D01*
X14921786Y-12973214D02*
X14921786Y-12816071D01*
X14907500Y-12787500D01*
X14878928Y-12773214D01*
X14821786Y-12773214D01*
X14793214Y-12787500D01*
X14921786Y-12958929D02*
X14893214Y-12973214D01*
X14821786Y-12973214D01*
X14793214Y-12958929D01*
X14778928Y-12930357D01*
X14778928Y-12901786D01*
X14793214Y-12873214D01*
X14821786Y-12858929D01*
X14893214Y-12858929D01*
X14921786Y-12844643D01*
X15064643Y-12773214D02*
X15064643Y-13073214D01*
X15064643Y-12787500D02*
X15093214Y-12773214D01*
X15150357Y-12773214D01*
X15178928Y-12787500D01*
X15193214Y-12801786D01*
X15207500Y-12830357D01*
X15207500Y-12916071D01*
X15193214Y-12944643D01*
X15178928Y-12958929D01*
X15150357Y-12973214D01*
X15093214Y-12973214D01*
X15064643Y-12958929D01*
X15336071Y-12944643D02*
X15350357Y-12958929D01*
X15336071Y-12973214D01*
X15321786Y-12958929D01*
X15336071Y-12944643D01*
X15336071Y-12973214D01*
X15336071Y-12787500D02*
X15350357Y-12801786D01*
X15336071Y-12816071D01*
X15321786Y-12801786D01*
X15336071Y-12787500D01*
X15336071Y-12816071D01*
M02*
