G04 #@! TF.GenerationSoftware,KiCad,Pcbnew,5.0.0*
G04 #@! TF.CreationDate,2018-10-21T13:39:10+10:00*
G04 #@! TF.ProjectId,controller,636F6E74726F6C6C65722E6B69636164,rev?*
G04 #@! TF.SameCoordinates,Original*
G04 #@! TF.FileFunction,Copper,L2,Inr,Signal*
G04 #@! TF.FilePolarity,Positive*
%FSLAX46Y46*%
G04 Gerber Fmt 4.6, Leading zero omitted, Abs format (unit mm)*
G04 Created by KiCad (PCBNEW 5.0.0) date Sun Oct 21 13:39:10 2018*
%MOMM*%
%LPD*%
G01*
G04 APERTURE LIST*
%ADD10C,0.100000*%
%ADD11C,0.150000*%
%ADD12C,0.300000*%
%ADD13C,0.400000*%
G04 #@! TA.AperFunction,ViaPad*
%ADD14R,2.200000X1.740000*%
G04 #@! TD*
G04 #@! TA.AperFunction,ViaPad*
%ADD15O,2.200000X1.740000*%
G04 #@! TD*
G04 #@! TA.AperFunction,ViaPad*
%ADD16R,1.700000X1.700000*%
G04 #@! TD*
G04 #@! TA.AperFunction,ViaPad*
%ADD17O,1.700000X1.700000*%
G04 #@! TD*
G04 #@! TA.AperFunction,ViaPad*
%ADD18C,0.800000*%
G04 #@! TD*
G04 #@! TA.AperFunction,ViaPad*
%ADD19C,6.000000*%
G04 #@! TD*
G04 #@! TA.AperFunction,Conductor*
%ADD20C,0.254000*%
G04 #@! TD*
G04 APERTURE END LIST*
D10*
D11*
X177002200Y-166007200D02*
X177002200Y-198007200D01*
X285002200Y-198007200D01*
X285002200Y-166007200D01*
X177002200Y-166007200D01*
D10*
D11*
X10000000Y-10000000D02*
X10000000Y-200007200D01*
X287002200Y-200007200D01*
X287002200Y-10000000D01*
X10000000Y-10000000D01*
D10*
D11*
X12000000Y-12000000D02*
X12000000Y-198007200D01*
X285002200Y-198007200D01*
X285002200Y-12000000D01*
X12000000Y-12000000D01*
D10*
D11*
X60000000Y-12000000D02*
X60000000Y-10000000D01*
D10*
D11*
X110000000Y-12000000D02*
X110000000Y-10000000D01*
D10*
D11*
X160000000Y-12000000D02*
X160000000Y-10000000D01*
D10*
D11*
X210000000Y-12000000D02*
X210000000Y-10000000D01*
D10*
D11*
X260000000Y-12000000D02*
X260000000Y-10000000D01*
D10*
D11*
X36065476Y-11588095D02*
X35322619Y-11588095D01*
X35694047Y-11588095D02*
X35694047Y-10288095D01*
X35570238Y-10473809D01*
X35446428Y-10597619D01*
X35322619Y-10659523D01*
D10*
D11*
X85322619Y-10411904D02*
X85384523Y-10350000D01*
X85508333Y-10288095D01*
X85817857Y-10288095D01*
X85941666Y-10350000D01*
X86003571Y-10411904D01*
X86065476Y-10535714D01*
X86065476Y-10659523D01*
X86003571Y-10845238D01*
X85260714Y-11588095D01*
X86065476Y-11588095D01*
D10*
D11*
X135260714Y-10288095D02*
X136065476Y-10288095D01*
X135632142Y-10783333D01*
X135817857Y-10783333D01*
X135941666Y-10845238D01*
X136003571Y-10907142D01*
X136065476Y-11030952D01*
X136065476Y-11340476D01*
X136003571Y-11464285D01*
X135941666Y-11526190D01*
X135817857Y-11588095D01*
X135446428Y-11588095D01*
X135322619Y-11526190D01*
X135260714Y-11464285D01*
D10*
D11*
X185941666Y-10721428D02*
X185941666Y-11588095D01*
X185632142Y-10226190D02*
X185322619Y-11154761D01*
X186127380Y-11154761D01*
D10*
D11*
X236003571Y-10288095D02*
X235384523Y-10288095D01*
X235322619Y-10907142D01*
X235384523Y-10845238D01*
X235508333Y-10783333D01*
X235817857Y-10783333D01*
X235941666Y-10845238D01*
X236003571Y-10907142D01*
X236065476Y-11030952D01*
X236065476Y-11340476D01*
X236003571Y-11464285D01*
X235941666Y-11526190D01*
X235817857Y-11588095D01*
X235508333Y-11588095D01*
X235384523Y-11526190D01*
X235322619Y-11464285D01*
D10*
D11*
X285941666Y-10288095D02*
X285694047Y-10288095D01*
X285570238Y-10350000D01*
X285508333Y-10411904D01*
X285384523Y-10597619D01*
X285322619Y-10845238D01*
X285322619Y-11340476D01*
X285384523Y-11464285D01*
X285446428Y-11526190D01*
X285570238Y-11588095D01*
X285817857Y-11588095D01*
X285941666Y-11526190D01*
X286003571Y-11464285D01*
X286065476Y-11340476D01*
X286065476Y-11030952D01*
X286003571Y-10907142D01*
X285941666Y-10845238D01*
X285817857Y-10783333D01*
X285570238Y-10783333D01*
X285446428Y-10845238D01*
X285384523Y-10907142D01*
X285322619Y-11030952D01*
D10*
D11*
X60000000Y-198007200D02*
X60000000Y-200007200D01*
D10*
D11*
X110000000Y-198007200D02*
X110000000Y-200007200D01*
D10*
D11*
X160000000Y-198007200D02*
X160000000Y-200007200D01*
D10*
D11*
X210000000Y-198007200D02*
X210000000Y-200007200D01*
D10*
D11*
X260000000Y-198007200D02*
X260000000Y-200007200D01*
D10*
D11*
X36065476Y-199595295D02*
X35322619Y-199595295D01*
X35694047Y-199595295D02*
X35694047Y-198295295D01*
X35570238Y-198481009D01*
X35446428Y-198604819D01*
X35322619Y-198666723D01*
D10*
D11*
X85322619Y-198419104D02*
X85384523Y-198357200D01*
X85508333Y-198295295D01*
X85817857Y-198295295D01*
X85941666Y-198357200D01*
X86003571Y-198419104D01*
X86065476Y-198542914D01*
X86065476Y-198666723D01*
X86003571Y-198852438D01*
X85260714Y-199595295D01*
X86065476Y-199595295D01*
D10*
D11*
X135260714Y-198295295D02*
X136065476Y-198295295D01*
X135632142Y-198790533D01*
X135817857Y-198790533D01*
X135941666Y-198852438D01*
X136003571Y-198914342D01*
X136065476Y-199038152D01*
X136065476Y-199347676D01*
X136003571Y-199471485D01*
X135941666Y-199533390D01*
X135817857Y-199595295D01*
X135446428Y-199595295D01*
X135322619Y-199533390D01*
X135260714Y-199471485D01*
D10*
D11*
X185941666Y-198728628D02*
X185941666Y-199595295D01*
X185632142Y-198233390D02*
X185322619Y-199161961D01*
X186127380Y-199161961D01*
D10*
D11*
X236003571Y-198295295D02*
X235384523Y-198295295D01*
X235322619Y-198914342D01*
X235384523Y-198852438D01*
X235508333Y-198790533D01*
X235817857Y-198790533D01*
X235941666Y-198852438D01*
X236003571Y-198914342D01*
X236065476Y-199038152D01*
X236065476Y-199347676D01*
X236003571Y-199471485D01*
X235941666Y-199533390D01*
X235817857Y-199595295D01*
X235508333Y-199595295D01*
X235384523Y-199533390D01*
X235322619Y-199471485D01*
D10*
D11*
X285941666Y-198295295D02*
X285694047Y-198295295D01*
X285570238Y-198357200D01*
X285508333Y-198419104D01*
X285384523Y-198604819D01*
X285322619Y-198852438D01*
X285322619Y-199347676D01*
X285384523Y-199471485D01*
X285446428Y-199533390D01*
X285570238Y-199595295D01*
X285817857Y-199595295D01*
X285941666Y-199533390D01*
X286003571Y-199471485D01*
X286065476Y-199347676D01*
X286065476Y-199038152D01*
X286003571Y-198914342D01*
X285941666Y-198852438D01*
X285817857Y-198790533D01*
X285570238Y-198790533D01*
X285446428Y-198852438D01*
X285384523Y-198914342D01*
X285322619Y-199038152D01*
D10*
D11*
X10000000Y-60000000D02*
X12000000Y-60000000D01*
D10*
D11*
X10000000Y-110000000D02*
X12000000Y-110000000D01*
D10*
D11*
X10000000Y-160000000D02*
X12000000Y-160000000D01*
D10*
D11*
X10690476Y-35216666D02*
X11309523Y-35216666D01*
X10566666Y-35588095D02*
X11000000Y-34288095D01*
X11433333Y-35588095D01*
D10*
D11*
X11092857Y-84907142D02*
X11278571Y-84969047D01*
X11340476Y-85030952D01*
X11402380Y-85154761D01*
X11402380Y-85340476D01*
X11340476Y-85464285D01*
X11278571Y-85526190D01*
X11154761Y-85588095D01*
X10659523Y-85588095D01*
X10659523Y-84288095D01*
X11092857Y-84288095D01*
X11216666Y-84350000D01*
X11278571Y-84411904D01*
X11340476Y-84535714D01*
X11340476Y-84659523D01*
X11278571Y-84783333D01*
X11216666Y-84845238D01*
X11092857Y-84907142D01*
X10659523Y-84907142D01*
D10*
D11*
X11402380Y-135464285D02*
X11340476Y-135526190D01*
X11154761Y-135588095D01*
X11030952Y-135588095D01*
X10845238Y-135526190D01*
X10721428Y-135402380D01*
X10659523Y-135278571D01*
X10597619Y-135030952D01*
X10597619Y-134845238D01*
X10659523Y-134597619D01*
X10721428Y-134473809D01*
X10845238Y-134350000D01*
X11030952Y-134288095D01*
X11154761Y-134288095D01*
X11340476Y-134350000D01*
X11402380Y-134411904D01*
D10*
D11*
X10659523Y-185588095D02*
X10659523Y-184288095D01*
X10969047Y-184288095D01*
X11154761Y-184350000D01*
X11278571Y-184473809D01*
X11340476Y-184597619D01*
X11402380Y-184845238D01*
X11402380Y-185030952D01*
X11340476Y-185278571D01*
X11278571Y-185402380D01*
X11154761Y-185526190D01*
X10969047Y-185588095D01*
X10659523Y-185588095D01*
D10*
D11*
X287002200Y-60000000D02*
X285002200Y-60000000D01*
D10*
D11*
X287002200Y-110000000D02*
X285002200Y-110000000D01*
D10*
D11*
X287002200Y-160000000D02*
X285002200Y-160000000D01*
D10*
D11*
X285692676Y-35216666D02*
X286311723Y-35216666D01*
X285568866Y-35588095D02*
X286002200Y-34288095D01*
X286435533Y-35588095D01*
D10*
D11*
X286095057Y-84907142D02*
X286280771Y-84969047D01*
X286342676Y-85030952D01*
X286404580Y-85154761D01*
X286404580Y-85340476D01*
X286342676Y-85464285D01*
X286280771Y-85526190D01*
X286156961Y-85588095D01*
X285661723Y-85588095D01*
X285661723Y-84288095D01*
X286095057Y-84288095D01*
X286218866Y-84350000D01*
X286280771Y-84411904D01*
X286342676Y-84535714D01*
X286342676Y-84659523D01*
X286280771Y-84783333D01*
X286218866Y-84845238D01*
X286095057Y-84907142D01*
X285661723Y-84907142D01*
D10*
D11*
X286404580Y-135464285D02*
X286342676Y-135526190D01*
X286156961Y-135588095D01*
X286033152Y-135588095D01*
X285847438Y-135526190D01*
X285723628Y-135402380D01*
X285661723Y-135278571D01*
X285599819Y-135030952D01*
X285599819Y-134845238D01*
X285661723Y-134597619D01*
X285723628Y-134473809D01*
X285847438Y-134350000D01*
X286033152Y-134288095D01*
X286156961Y-134288095D01*
X286342676Y-134350000D01*
X286404580Y-134411904D01*
D10*
D11*
X285661723Y-185588095D02*
X285661723Y-184288095D01*
X285971247Y-184288095D01*
X286156961Y-184350000D01*
X286280771Y-184473809D01*
X286342676Y-184597619D01*
X286404580Y-184845238D01*
X286404580Y-185030952D01*
X286342676Y-185278571D01*
X286280771Y-185402380D01*
X286156961Y-185526190D01*
X285971247Y-185588095D01*
X285661723Y-185588095D01*
D10*
D11*
X200434342Y-193785771D02*
X200434342Y-192285771D01*
X200791485Y-192285771D01*
X201005771Y-192357200D01*
X201148628Y-192500057D01*
X201220057Y-192642914D01*
X201291485Y-192928628D01*
X201291485Y-193142914D01*
X201220057Y-193428628D01*
X201148628Y-193571485D01*
X201005771Y-193714342D01*
X200791485Y-193785771D01*
X200434342Y-193785771D01*
X202577200Y-193785771D02*
X202577200Y-193000057D01*
X202505771Y-192857200D01*
X202362914Y-192785771D01*
X202077200Y-192785771D01*
X201934342Y-192857200D01*
X202577200Y-193714342D02*
X202434342Y-193785771D01*
X202077200Y-193785771D01*
X201934342Y-193714342D01*
X201862914Y-193571485D01*
X201862914Y-193428628D01*
X201934342Y-193285771D01*
X202077200Y-193214342D01*
X202434342Y-193214342D01*
X202577200Y-193142914D01*
X203077200Y-192785771D02*
X203648628Y-192785771D01*
X203291485Y-192285771D02*
X203291485Y-193571485D01*
X203362914Y-193714342D01*
X203505771Y-193785771D01*
X203648628Y-193785771D01*
X204720057Y-193714342D02*
X204577200Y-193785771D01*
X204291485Y-193785771D01*
X204148628Y-193714342D01*
X204077200Y-193571485D01*
X204077200Y-193000057D01*
X204148628Y-192857200D01*
X204291485Y-192785771D01*
X204577200Y-192785771D01*
X204720057Y-192857200D01*
X204791485Y-193000057D01*
X204791485Y-193142914D01*
X204077200Y-193285771D01*
X205434342Y-193642914D02*
X205505771Y-193714342D01*
X205434342Y-193785771D01*
X205362914Y-193714342D01*
X205434342Y-193642914D01*
X205434342Y-193785771D01*
X205434342Y-192857200D02*
X205505771Y-192928628D01*
X205434342Y-193000057D01*
X205362914Y-192928628D01*
X205434342Y-192857200D01*
X205434342Y-193000057D01*
D10*
D11*
X177002200Y-194507200D02*
X285002200Y-194507200D01*
D10*
D11*
X178434342Y-196585771D02*
X178434342Y-195085771D01*
X179291485Y-196585771D02*
X178648628Y-195728628D01*
X179291485Y-195085771D02*
X178434342Y-195942914D01*
X179934342Y-196585771D02*
X179934342Y-195585771D01*
X179934342Y-195085771D02*
X179862914Y-195157200D01*
X179934342Y-195228628D01*
X180005771Y-195157200D01*
X179934342Y-195085771D01*
X179934342Y-195228628D01*
X181505771Y-196442914D02*
X181434342Y-196514342D01*
X181220057Y-196585771D01*
X181077200Y-196585771D01*
X180862914Y-196514342D01*
X180720057Y-196371485D01*
X180648628Y-196228628D01*
X180577200Y-195942914D01*
X180577200Y-195728628D01*
X180648628Y-195442914D01*
X180720057Y-195300057D01*
X180862914Y-195157200D01*
X181077200Y-195085771D01*
X181220057Y-195085771D01*
X181434342Y-195157200D01*
X181505771Y-195228628D01*
X182791485Y-196585771D02*
X182791485Y-195800057D01*
X182720057Y-195657200D01*
X182577200Y-195585771D01*
X182291485Y-195585771D01*
X182148628Y-195657200D01*
X182791485Y-196514342D02*
X182648628Y-196585771D01*
X182291485Y-196585771D01*
X182148628Y-196514342D01*
X182077200Y-196371485D01*
X182077200Y-196228628D01*
X182148628Y-196085771D01*
X182291485Y-196014342D01*
X182648628Y-196014342D01*
X182791485Y-195942914D01*
X184148628Y-196585771D02*
X184148628Y-195085771D01*
X184148628Y-196514342D02*
X184005771Y-196585771D01*
X183720057Y-196585771D01*
X183577200Y-196514342D01*
X183505771Y-196442914D01*
X183434342Y-196300057D01*
X183434342Y-195871485D01*
X183505771Y-195728628D01*
X183577200Y-195657200D01*
X183720057Y-195585771D01*
X184005771Y-195585771D01*
X184148628Y-195657200D01*
X186005771Y-195800057D02*
X186505771Y-195800057D01*
X186720057Y-196585771D02*
X186005771Y-196585771D01*
X186005771Y-195085771D01*
X186720057Y-195085771D01*
X187362914Y-196442914D02*
X187434342Y-196514342D01*
X187362914Y-196585771D01*
X187291485Y-196514342D01*
X187362914Y-196442914D01*
X187362914Y-196585771D01*
X188077200Y-196585771D02*
X188077200Y-195085771D01*
X188434342Y-195085771D01*
X188648628Y-195157200D01*
X188791485Y-195300057D01*
X188862914Y-195442914D01*
X188934342Y-195728628D01*
X188934342Y-195942914D01*
X188862914Y-196228628D01*
X188791485Y-196371485D01*
X188648628Y-196514342D01*
X188434342Y-196585771D01*
X188077200Y-196585771D01*
X189577200Y-196442914D02*
X189648628Y-196514342D01*
X189577200Y-196585771D01*
X189505771Y-196514342D01*
X189577200Y-196442914D01*
X189577200Y-196585771D01*
X190220057Y-196157200D02*
X190934342Y-196157200D01*
X190077200Y-196585771D02*
X190577200Y-195085771D01*
X191077200Y-196585771D01*
X191577200Y-196442914D02*
X191648628Y-196514342D01*
X191577200Y-196585771D01*
X191505771Y-196514342D01*
X191577200Y-196442914D01*
X191577200Y-196585771D01*
X194577200Y-196585771D02*
X194577200Y-195085771D01*
X194720057Y-196014342D02*
X195148628Y-196585771D01*
X195148628Y-195585771D02*
X194577200Y-196157200D01*
X195791485Y-196585771D02*
X195791485Y-195585771D01*
X195791485Y-195085771D02*
X195720057Y-195157200D01*
X195791485Y-195228628D01*
X195862914Y-195157200D01*
X195791485Y-195085771D01*
X195791485Y-195228628D01*
X197148628Y-196514342D02*
X197005771Y-196585771D01*
X196720057Y-196585771D01*
X196577200Y-196514342D01*
X196505771Y-196442914D01*
X196434342Y-196300057D01*
X196434342Y-195871485D01*
X196505771Y-195728628D01*
X196577200Y-195657200D01*
X196720057Y-195585771D01*
X197005771Y-195585771D01*
X197148628Y-195657200D01*
X198434342Y-196585771D02*
X198434342Y-195800057D01*
X198362914Y-195657200D01*
X198220057Y-195585771D01*
X197934342Y-195585771D01*
X197791485Y-195657200D01*
X198434342Y-196514342D02*
X198291485Y-196585771D01*
X197934342Y-196585771D01*
X197791485Y-196514342D01*
X197720057Y-196371485D01*
X197720057Y-196228628D01*
X197791485Y-196085771D01*
X197934342Y-196014342D01*
X198291485Y-196014342D01*
X198434342Y-195942914D01*
X199791485Y-196585771D02*
X199791485Y-195085771D01*
X199791485Y-196514342D02*
X199648628Y-196585771D01*
X199362914Y-196585771D01*
X199220057Y-196514342D01*
X199148628Y-196442914D01*
X199077200Y-196300057D01*
X199077200Y-195871485D01*
X199148628Y-195728628D01*
X199220057Y-195657200D01*
X199362914Y-195585771D01*
X199648628Y-195585771D01*
X199791485Y-195657200D01*
X202362914Y-195085771D02*
X201648628Y-195085771D01*
X201577200Y-195800057D01*
X201648628Y-195728628D01*
X201791485Y-195657200D01*
X202148628Y-195657200D01*
X202291485Y-195728628D01*
X202362914Y-195800057D01*
X202434342Y-195942914D01*
X202434342Y-196300057D01*
X202362914Y-196442914D01*
X202291485Y-196514342D01*
X202148628Y-196585771D01*
X201791485Y-196585771D01*
X201648628Y-196514342D01*
X201577200Y-196442914D01*
X203077200Y-196442914D02*
X203148628Y-196514342D01*
X203077200Y-196585771D01*
X203005771Y-196514342D01*
X203077200Y-196442914D01*
X203077200Y-196585771D01*
X204077200Y-195085771D02*
X204220057Y-195085771D01*
X204362914Y-195157200D01*
X204434342Y-195228628D01*
X204505771Y-195371485D01*
X204577200Y-195657200D01*
X204577200Y-196014342D01*
X204505771Y-196300057D01*
X204434342Y-196442914D01*
X204362914Y-196514342D01*
X204220057Y-196585771D01*
X204077200Y-196585771D01*
X203934342Y-196514342D01*
X203862914Y-196442914D01*
X203791485Y-196300057D01*
X203720057Y-196014342D01*
X203720057Y-195657200D01*
X203791485Y-195371485D01*
X203862914Y-195228628D01*
X203934342Y-195157200D01*
X204077200Y-195085771D01*
X205220057Y-196442914D02*
X205291485Y-196514342D01*
X205220057Y-196585771D01*
X205148628Y-196514342D01*
X205220057Y-196442914D01*
X205220057Y-196585771D01*
X206220057Y-195085771D02*
X206362914Y-195085771D01*
X206505771Y-195157200D01*
X206577200Y-195228628D01*
X206648628Y-195371485D01*
X206720057Y-195657200D01*
X206720057Y-196014342D01*
X206648628Y-196300057D01*
X206577200Y-196442914D01*
X206505771Y-196514342D01*
X206362914Y-196585771D01*
X206220057Y-196585771D01*
X206077200Y-196514342D01*
X206005771Y-196442914D01*
X205934342Y-196300057D01*
X205862914Y-196014342D01*
X205862914Y-195657200D01*
X205934342Y-195371485D01*
X206005771Y-195228628D01*
X206077200Y-195157200D01*
X206220057Y-195085771D01*
D10*
D11*
X177002200Y-191507200D02*
X285002200Y-191507200D01*
D10*
D12*
X264411485Y-193785771D02*
X263911485Y-193071485D01*
X263554342Y-193785771D02*
X263554342Y-192285771D01*
X264125771Y-192285771D01*
X264268628Y-192357200D01*
X264340057Y-192428628D01*
X264411485Y-192571485D01*
X264411485Y-192785771D01*
X264340057Y-192928628D01*
X264268628Y-193000057D01*
X264125771Y-193071485D01*
X263554342Y-193071485D01*
X265625771Y-193714342D02*
X265482914Y-193785771D01*
X265197200Y-193785771D01*
X265054342Y-193714342D01*
X264982914Y-193571485D01*
X264982914Y-193000057D01*
X265054342Y-192857200D01*
X265197200Y-192785771D01*
X265482914Y-192785771D01*
X265625771Y-192857200D01*
X265697200Y-193000057D01*
X265697200Y-193142914D01*
X264982914Y-193285771D01*
X266197200Y-192785771D02*
X266554342Y-193785771D01*
X266911485Y-192785771D01*
X267482914Y-193642914D02*
X267554342Y-193714342D01*
X267482914Y-193785771D01*
X267411485Y-193714342D01*
X267482914Y-193642914D01*
X267482914Y-193785771D01*
X267482914Y-192857200D02*
X267554342Y-192928628D01*
X267482914Y-193000057D01*
X267411485Y-192928628D01*
X267482914Y-192857200D01*
X267482914Y-193000057D01*
D10*
D11*
X178362914Y-193714342D02*
X178577200Y-193785771D01*
X178934342Y-193785771D01*
X179077200Y-193714342D01*
X179148628Y-193642914D01*
X179220057Y-193500057D01*
X179220057Y-193357200D01*
X179148628Y-193214342D01*
X179077200Y-193142914D01*
X178934342Y-193071485D01*
X178648628Y-193000057D01*
X178505771Y-192928628D01*
X178434342Y-192857200D01*
X178362914Y-192714342D01*
X178362914Y-192571485D01*
X178434342Y-192428628D01*
X178505771Y-192357200D01*
X178648628Y-192285771D01*
X179005771Y-192285771D01*
X179220057Y-192357200D01*
X179862914Y-193785771D02*
X179862914Y-192785771D01*
X179862914Y-192285771D02*
X179791485Y-192357200D01*
X179862914Y-192428628D01*
X179934342Y-192357200D01*
X179862914Y-192285771D01*
X179862914Y-192428628D01*
X180434342Y-192785771D02*
X181220057Y-192785771D01*
X180434342Y-193785771D01*
X181220057Y-193785771D01*
X182362914Y-193714342D02*
X182220057Y-193785771D01*
X181934342Y-193785771D01*
X181791485Y-193714342D01*
X181720057Y-193571485D01*
X181720057Y-193000057D01*
X181791485Y-192857200D01*
X181934342Y-192785771D01*
X182220057Y-192785771D01*
X182362914Y-192857200D01*
X182434342Y-193000057D01*
X182434342Y-193142914D01*
X181720057Y-193285771D01*
X183077200Y-193642914D02*
X183148628Y-193714342D01*
X183077200Y-193785771D01*
X183005771Y-193714342D01*
X183077200Y-193642914D01*
X183077200Y-193785771D01*
X183077200Y-192857200D02*
X183148628Y-192928628D01*
X183077200Y-193000057D01*
X183005771Y-192928628D01*
X183077200Y-192857200D01*
X183077200Y-193000057D01*
X184862914Y-193357200D02*
X185577200Y-193357200D01*
X184720057Y-193785771D02*
X185220057Y-192285771D01*
X185720057Y-193785771D01*
X186862914Y-192785771D02*
X186862914Y-193785771D01*
X186505771Y-192214342D02*
X186148628Y-193285771D01*
X187077200Y-193285771D01*
D10*
D11*
X263434342Y-196585771D02*
X263434342Y-195085771D01*
X264791485Y-196585771D02*
X264791485Y-195085771D01*
X264791485Y-196514342D02*
X264648628Y-196585771D01*
X264362914Y-196585771D01*
X264220057Y-196514342D01*
X264148628Y-196442914D01*
X264077200Y-196300057D01*
X264077200Y-195871485D01*
X264148628Y-195728628D01*
X264220057Y-195657200D01*
X264362914Y-195585771D01*
X264648628Y-195585771D01*
X264791485Y-195657200D01*
X265505771Y-196442914D02*
X265577200Y-196514342D01*
X265505771Y-196585771D01*
X265434342Y-196514342D01*
X265505771Y-196442914D01*
X265505771Y-196585771D01*
X265505771Y-195657200D02*
X265577200Y-195728628D01*
X265505771Y-195800057D01*
X265434342Y-195728628D01*
X265505771Y-195657200D01*
X265505771Y-195800057D01*
X268148628Y-196585771D02*
X267291485Y-196585771D01*
X267720057Y-196585771D02*
X267720057Y-195085771D01*
X267577200Y-195300057D01*
X267434342Y-195442914D01*
X267291485Y-195514342D01*
X269862914Y-195014342D02*
X268577200Y-196942914D01*
X271148628Y-196585771D02*
X270291485Y-196585771D01*
X270720057Y-196585771D02*
X270720057Y-195085771D01*
X270577200Y-195300057D01*
X270434342Y-195442914D01*
X270291485Y-195514342D01*
D10*
D11*
X177002200Y-187507200D02*
X285002200Y-187507200D01*
D10*
D13*
X178714580Y-188211961D02*
X179857438Y-188211961D01*
X179036009Y-190211961D02*
X179286009Y-188211961D01*
X180274104Y-190211961D02*
X180440771Y-188878628D01*
X180524104Y-188211961D02*
X180416961Y-188307200D01*
X180500295Y-188402438D01*
X180607438Y-188307200D01*
X180524104Y-188211961D01*
X180500295Y-188402438D01*
X181107438Y-188878628D02*
X181869342Y-188878628D01*
X181476485Y-188211961D02*
X181262200Y-189926247D01*
X181333628Y-190116723D01*
X181512200Y-190211961D01*
X181702676Y-190211961D01*
X182655057Y-190211961D02*
X182476485Y-190116723D01*
X182405057Y-189926247D01*
X182619342Y-188211961D01*
X184190771Y-190116723D02*
X183988390Y-190211961D01*
X183607438Y-190211961D01*
X183428866Y-190116723D01*
X183357438Y-189926247D01*
X183452676Y-189164342D01*
X183571723Y-188973866D01*
X183774104Y-188878628D01*
X184155057Y-188878628D01*
X184333628Y-188973866D01*
X184405057Y-189164342D01*
X184381247Y-189354819D01*
X183405057Y-189545295D01*
X185155057Y-190021485D02*
X185238390Y-190116723D01*
X185131247Y-190211961D01*
X185047914Y-190116723D01*
X185155057Y-190021485D01*
X185131247Y-190211961D01*
X185286009Y-188973866D02*
X185369342Y-189069104D01*
X185262200Y-189164342D01*
X185178866Y-189069104D01*
X185286009Y-188973866D01*
X185262200Y-189164342D01*
D10*
D11*
X178934342Y-185600057D02*
X178434342Y-185600057D01*
X178434342Y-186385771D02*
X178434342Y-184885771D01*
X179148628Y-184885771D01*
X179720057Y-186385771D02*
X179720057Y-185385771D01*
X179720057Y-184885771D02*
X179648628Y-184957200D01*
X179720057Y-185028628D01*
X179791485Y-184957200D01*
X179720057Y-184885771D01*
X179720057Y-185028628D01*
X180648628Y-186385771D02*
X180505771Y-186314342D01*
X180434342Y-186171485D01*
X180434342Y-184885771D01*
X181791485Y-186314342D02*
X181648628Y-186385771D01*
X181362914Y-186385771D01*
X181220057Y-186314342D01*
X181148628Y-186171485D01*
X181148628Y-185600057D01*
X181220057Y-185457200D01*
X181362914Y-185385771D01*
X181648628Y-185385771D01*
X181791485Y-185457200D01*
X181862914Y-185600057D01*
X181862914Y-185742914D01*
X181148628Y-185885771D01*
X182505771Y-186242914D02*
X182577200Y-186314342D01*
X182505771Y-186385771D01*
X182434342Y-186314342D01*
X182505771Y-186242914D01*
X182505771Y-186385771D01*
X182505771Y-185457200D02*
X182577200Y-185528628D01*
X182505771Y-185600057D01*
X182434342Y-185528628D01*
X182505771Y-185457200D01*
X182505771Y-185600057D01*
X185005771Y-186314342D02*
X184862914Y-186385771D01*
X184577200Y-186385771D01*
X184434342Y-186314342D01*
X184362914Y-186242914D01*
X184291485Y-186100057D01*
X184291485Y-185671485D01*
X184362914Y-185528628D01*
X184434342Y-185457200D01*
X184577200Y-185385771D01*
X184862914Y-185385771D01*
X185005771Y-185457200D01*
X185862914Y-186385771D02*
X185720057Y-186314342D01*
X185648628Y-186242914D01*
X185577200Y-186100057D01*
X185577200Y-185671485D01*
X185648628Y-185528628D01*
X185720057Y-185457200D01*
X185862914Y-185385771D01*
X186077200Y-185385771D01*
X186220057Y-185457200D01*
X186291485Y-185528628D01*
X186362914Y-185671485D01*
X186362914Y-186100057D01*
X186291485Y-186242914D01*
X186220057Y-186314342D01*
X186077200Y-186385771D01*
X185862914Y-186385771D01*
X187005771Y-185385771D02*
X187005771Y-186385771D01*
X187005771Y-185528628D02*
X187077200Y-185457200D01*
X187220057Y-185385771D01*
X187434342Y-185385771D01*
X187577200Y-185457200D01*
X187648628Y-185600057D01*
X187648628Y-186385771D01*
X188148628Y-185385771D02*
X188720057Y-185385771D01*
X188362914Y-184885771D02*
X188362914Y-186171485D01*
X188434342Y-186314342D01*
X188577200Y-186385771D01*
X188720057Y-186385771D01*
X189220057Y-186385771D02*
X189220057Y-185385771D01*
X189220057Y-185671485D02*
X189291485Y-185528628D01*
X189362914Y-185457200D01*
X189505771Y-185385771D01*
X189648628Y-185385771D01*
X190362914Y-186385771D02*
X190220057Y-186314342D01*
X190148628Y-186242914D01*
X190077200Y-186100057D01*
X190077200Y-185671485D01*
X190148628Y-185528628D01*
X190220057Y-185457200D01*
X190362914Y-185385771D01*
X190577200Y-185385771D01*
X190720057Y-185457200D01*
X190791485Y-185528628D01*
X190862914Y-185671485D01*
X190862914Y-186100057D01*
X190791485Y-186242914D01*
X190720057Y-186314342D01*
X190577200Y-186385771D01*
X190362914Y-186385771D01*
X191720057Y-186385771D02*
X191577200Y-186314342D01*
X191505771Y-186171485D01*
X191505771Y-184885771D01*
X192505771Y-186385771D02*
X192362914Y-186314342D01*
X192291485Y-186171485D01*
X192291485Y-184885771D01*
X193648628Y-186314342D02*
X193505771Y-186385771D01*
X193220057Y-186385771D01*
X193077200Y-186314342D01*
X193005771Y-186171485D01*
X193005771Y-185600057D01*
X193077200Y-185457200D01*
X193220057Y-185385771D01*
X193505771Y-185385771D01*
X193648628Y-185457200D01*
X193720057Y-185600057D01*
X193720057Y-185742914D01*
X193005771Y-185885771D01*
X194362914Y-186385771D02*
X194362914Y-185385771D01*
X194362914Y-185671485D02*
X194434342Y-185528628D01*
X194505771Y-185457200D01*
X194648628Y-185385771D01*
X194791485Y-185385771D01*
X195291485Y-186242914D02*
X195362914Y-186314342D01*
X195291485Y-186385771D01*
X195220057Y-186314342D01*
X195291485Y-186242914D01*
X195291485Y-186385771D01*
X196005771Y-186385771D02*
X196005771Y-184885771D01*
X196148628Y-185814342D02*
X196577200Y-186385771D01*
X196577200Y-185385771D02*
X196005771Y-185957200D01*
X197220057Y-186385771D02*
X197220057Y-185385771D01*
X197220057Y-184885771D02*
X197148628Y-184957200D01*
X197220057Y-185028628D01*
X197291485Y-184957200D01*
X197220057Y-184885771D01*
X197220057Y-185028628D01*
X198577200Y-186314342D02*
X198434342Y-186385771D01*
X198148628Y-186385771D01*
X198005771Y-186314342D01*
X197934342Y-186242914D01*
X197862914Y-186100057D01*
X197862914Y-185671485D01*
X197934342Y-185528628D01*
X198005771Y-185457200D01*
X198148628Y-185385771D01*
X198434342Y-185385771D01*
X198577200Y-185457200D01*
X199862914Y-186385771D02*
X199862914Y-185600057D01*
X199791485Y-185457200D01*
X199648628Y-185385771D01*
X199362914Y-185385771D01*
X199220057Y-185457200D01*
X199862914Y-186314342D02*
X199720057Y-186385771D01*
X199362914Y-186385771D01*
X199220057Y-186314342D01*
X199148628Y-186171485D01*
X199148628Y-186028628D01*
X199220057Y-185885771D01*
X199362914Y-185814342D01*
X199720057Y-185814342D01*
X199862914Y-185742914D01*
X201220057Y-186385771D02*
X201220057Y-184885771D01*
X201220057Y-186314342D02*
X201077200Y-186385771D01*
X200791485Y-186385771D01*
X200648628Y-186314342D01*
X200577200Y-186242914D01*
X200505771Y-186100057D01*
X200505771Y-185671485D01*
X200577200Y-185528628D01*
X200648628Y-185457200D01*
X200791485Y-185385771D01*
X201077200Y-185385771D01*
X201220057Y-185457200D01*
X201577200Y-186528628D02*
X202720057Y-186528628D01*
X203077200Y-185385771D02*
X203077200Y-186885771D01*
X203077200Y-185457200D02*
X203220057Y-185385771D01*
X203505771Y-185385771D01*
X203648628Y-185457200D01*
X203720057Y-185528628D01*
X203791485Y-185671485D01*
X203791485Y-186100057D01*
X203720057Y-186242914D01*
X203648628Y-186314342D01*
X203505771Y-186385771D01*
X203220057Y-186385771D01*
X203077200Y-186314342D01*
X205077200Y-186314342D02*
X204934342Y-186385771D01*
X204648628Y-186385771D01*
X204505771Y-186314342D01*
X204434342Y-186242914D01*
X204362914Y-186100057D01*
X204362914Y-185671485D01*
X204434342Y-185528628D01*
X204505771Y-185457200D01*
X204648628Y-185385771D01*
X204934342Y-185385771D01*
X205077200Y-185457200D01*
X205720057Y-186385771D02*
X205720057Y-184885771D01*
X205720057Y-185457200D02*
X205862914Y-185385771D01*
X206148628Y-185385771D01*
X206291485Y-185457200D01*
X206362914Y-185528628D01*
X206434342Y-185671485D01*
X206434342Y-186100057D01*
X206362914Y-186242914D01*
X206291485Y-186314342D01*
X206148628Y-186385771D01*
X205862914Y-186385771D01*
X205720057Y-186314342D01*
D10*
D11*
X177002200Y-181507200D02*
X285002200Y-181507200D01*
D10*
D11*
X178362914Y-183614342D02*
X178577200Y-183685771D01*
X178934342Y-183685771D01*
X179077200Y-183614342D01*
X179148628Y-183542914D01*
X179220057Y-183400057D01*
X179220057Y-183257200D01*
X179148628Y-183114342D01*
X179077200Y-183042914D01*
X178934342Y-182971485D01*
X178648628Y-182900057D01*
X178505771Y-182828628D01*
X178434342Y-182757200D01*
X178362914Y-182614342D01*
X178362914Y-182471485D01*
X178434342Y-182328628D01*
X178505771Y-182257200D01*
X178648628Y-182185771D01*
X179005771Y-182185771D01*
X179220057Y-182257200D01*
X179862914Y-183685771D02*
X179862914Y-182185771D01*
X180505771Y-183685771D02*
X180505771Y-182900057D01*
X180434342Y-182757200D01*
X180291485Y-182685771D01*
X180077200Y-182685771D01*
X179934342Y-182757200D01*
X179862914Y-182828628D01*
X181791485Y-183614342D02*
X181648628Y-183685771D01*
X181362914Y-183685771D01*
X181220057Y-183614342D01*
X181148628Y-183471485D01*
X181148628Y-182900057D01*
X181220057Y-182757200D01*
X181362914Y-182685771D01*
X181648628Y-182685771D01*
X181791485Y-182757200D01*
X181862914Y-182900057D01*
X181862914Y-183042914D01*
X181148628Y-183185771D01*
X183077200Y-183614342D02*
X182934342Y-183685771D01*
X182648628Y-183685771D01*
X182505771Y-183614342D01*
X182434342Y-183471485D01*
X182434342Y-182900057D01*
X182505771Y-182757200D01*
X182648628Y-182685771D01*
X182934342Y-182685771D01*
X183077200Y-182757200D01*
X183148628Y-182900057D01*
X183148628Y-183042914D01*
X182434342Y-183185771D01*
X183577200Y-182685771D02*
X184148628Y-182685771D01*
X183791485Y-182185771D02*
X183791485Y-183471485D01*
X183862914Y-183614342D01*
X184005771Y-183685771D01*
X184148628Y-183685771D01*
X184648628Y-183542914D02*
X184720057Y-183614342D01*
X184648628Y-183685771D01*
X184577200Y-183614342D01*
X184648628Y-183542914D01*
X184648628Y-183685771D01*
X184648628Y-182757200D02*
X184720057Y-182828628D01*
X184648628Y-182900057D01*
X184577200Y-182828628D01*
X184648628Y-182757200D01*
X184648628Y-182900057D01*
D10*
D11*
X197002200Y-191507200D02*
X197002200Y-194507200D01*
D10*
D11*
X261002200Y-191507200D02*
X261002200Y-198007200D01*
D14*
G04 #@! TO.N,VCC*
G04 #@! TO.C,J2*
X167460000Y-89600000D03*
D15*
G04 #@! TO.N,/T24_IO*
X167460000Y-92140000D03*
G04 #@! TO.N,/T24_PWM*
X167460000Y-94680000D03*
G04 #@! TO.N,GND*
X167460000Y-97220000D03*
G04 #@! TD*
D16*
G04 #@! TO.N,VCC*
G04 #@! TO.C,J1*
X165160000Y-120000000D03*
D17*
G04 #@! TO.N,GND*
X165160000Y-122540000D03*
G04 #@! TO.N,/MOSI*
X162620000Y-120000000D03*
G04 #@! TO.N,GND*
X162620000Y-122540000D03*
G04 #@! TO.N,/MISO*
X160080000Y-120000000D03*
G04 #@! TO.N,GND*
X160080000Y-122540000D03*
G04 #@! TO.N,/SCK*
X157540000Y-120000000D03*
G04 #@! TO.N,GND*
X157540000Y-122540000D03*
G04 #@! TO.N,/~CS~*
X155000000Y-120000000D03*
G04 #@! TO.N,GND*
X155000000Y-122540000D03*
G04 #@! TO.N,/~INT~*
X152460000Y-120000000D03*
G04 #@! TO.N,GND*
X152460000Y-122540000D03*
G04 #@! TO.N,/~RESET~*
X149920000Y-120000000D03*
G04 #@! TO.N,GND*
X149920000Y-122540000D03*
G04 #@! TO.N,/GPIO1*
X147380000Y-120000000D03*
G04 #@! TO.N,GND*
X147380000Y-122540000D03*
G04 #@! TO.N,/GPIO0*
X144840000Y-120000000D03*
G04 #@! TO.N,GND*
X144840000Y-122540000D03*
G04 #@! TD*
D15*
G04 #@! TO.N,/SCL-*
G04 #@! TO.C,J3*
X135000000Y-115000000D03*
G04 #@! TO.N,/SCL+*
X135000000Y-112460000D03*
G04 #@! TO.N,/SDA-*
X135000000Y-109920000D03*
G04 #@! TO.N,/SDA+*
X135000000Y-107380000D03*
G04 #@! TO.N,GND*
X135000000Y-104840000D03*
D14*
G04 #@! TO.N,VCC*
X135000000Y-102300000D03*
G04 #@! TD*
G04 #@! TO.N,VCC*
G04 #@! TO.C,J4*
X175000000Y-115000000D03*
D15*
G04 #@! TO.N,GND*
X175000000Y-112460000D03*
G04 #@! TO.N,/SDA+*
X175000000Y-109920000D03*
G04 #@! TO.N,/SDA-*
X175000000Y-107380000D03*
G04 #@! TO.N,/SCL+*
X175000000Y-104840000D03*
G04 #@! TO.N,/SCL-*
X175000000Y-102300000D03*
G04 #@! TD*
G04 #@! TO.N,/BUCK_LO-*
G04 #@! TO.C,J5*
X135000000Y-97700000D03*
G04 #@! TO.N,/BUCK_LO+*
X135000000Y-95160000D03*
G04 #@! TO.N,/BUCK_HI-*
X135000000Y-92620000D03*
G04 #@! TO.N,/BUCK_HI+*
X135000000Y-90080000D03*
G04 #@! TO.N,GND*
X135000000Y-87540000D03*
D14*
G04 #@! TO.N,VCC*
X135000000Y-85000000D03*
G04 #@! TD*
G04 #@! TO.N,VCC*
G04 #@! TO.C,J6*
X175000000Y-97500000D03*
D15*
G04 #@! TO.N,GND*
X175000000Y-94960000D03*
G04 #@! TO.N,/BOOST_HI+*
X175000000Y-92420000D03*
G04 #@! TO.N,/BOOST_HI-*
X175000000Y-89880000D03*
G04 #@! TO.N,/BOOST_LO+*
X175000000Y-87340000D03*
G04 #@! TO.N,/BOOST_LO-*
X175000000Y-84800000D03*
G04 #@! TD*
D18*
G04 #@! TO.N,Net-(C7-Pad1)*
G04 #@! TO.C,MH1*
X176590990Y-118409010D03*
X175000000Y-117750000D03*
X173409010Y-118409010D03*
X172750000Y-120000000D03*
X173409010Y-121590990D03*
X175000000Y-122250000D03*
X176590990Y-121590990D03*
X177250000Y-120000000D03*
D19*
X175000000Y-120000000D03*
G04 #@! TD*
G04 #@! TO.N,Net-(C8-Pad1)*
G04 #@! TO.C,MH2*
X135000000Y-120000000D03*
D18*
X137250000Y-120000000D03*
X136590990Y-121590990D03*
X135000000Y-122250000D03*
X133409010Y-121590990D03*
X132750000Y-120000000D03*
X133409010Y-118409010D03*
X135000000Y-117750000D03*
X136590990Y-118409010D03*
G04 #@! TD*
G04 #@! TO.N,Net-(C9-Pad1)*
G04 #@! TO.C,MH3*
X136590990Y-78409010D03*
X135000000Y-77750000D03*
X133409010Y-78409010D03*
X132750000Y-80000000D03*
X133409010Y-81590990D03*
X135000000Y-82250000D03*
X136590990Y-81590990D03*
X137250000Y-80000000D03*
D19*
X135000000Y-80000000D03*
G04 #@! TD*
G04 #@! TO.N,Net-(C10-Pad1)*
G04 #@! TO.C,MH4*
X175000000Y-80000000D03*
D18*
X177250000Y-80000000D03*
X176590990Y-81590990D03*
X175000000Y-82250000D03*
X173409010Y-81590990D03*
X172750000Y-80000000D03*
X173409010Y-78409010D03*
X175000000Y-77750000D03*
X176590990Y-78409010D03*
G04 #@! TD*
G04 #@! TO.N,GND*
X161535000Y-94125000D03*
X156555009Y-82125000D03*
X139535000Y-100250000D03*
X149036598Y-105229991D03*
X143853000Y-92370000D03*
X144733000Y-104060000D03*
X163538000Y-96939000D03*
X147917000Y-88829000D03*
X149441000Y-80302000D03*
X139408000Y-77889000D03*
X170508000Y-76392000D03*
X160265000Y-82125000D03*
X145125000Y-107400000D03*
X139408000Y-121994000D03*
X170360000Y-121950000D03*
X145000000Y-117500000D03*
X143000000Y-117500000D03*
X141000000Y-117525000D03*
X139000000Y-117525000D03*
X160296318Y-103760783D03*
X169032000Y-100504000D03*
X163904000Y-87069000D03*
G04 #@! TO.N,VCC*
X151375000Y-82125000D03*
X155104989Y-82125000D03*
X150205011Y-84725000D03*
X141440000Y-103425000D03*
X149083402Y-104160009D03*
X163632000Y-100504000D03*
X159172824Y-105476580D03*
X143853000Y-97970000D03*
X146783000Y-104060000D03*
X149060000Y-114483000D03*
X151346000Y-114483000D03*
X165316000Y-113975000D03*
X155029000Y-112306000D03*
X161506000Y-96939000D03*
X155274000Y-96694000D03*
X167348000Y-113975000D03*
X143075000Y-107400000D03*
X170000000Y-80955000D03*
G04 #@! TO.N,/~CS~*
X161627574Y-105164261D03*
X160177562Y-105310272D03*
G04 #@! TO.N,/BUCK_LO-*
X145616000Y-86035000D03*
G04 #@! TO.N,/BUCK_LO+*
X143584000Y-86035000D03*
G04 #@! TO.N,/BUCK_HI-*
X141552000Y-86035000D03*
G04 #@! TO.N,/BUCK_HI+*
X139520000Y-86035000D03*
G04 #@! TO.N,/BOOST_HI+*
X163904000Y-83005000D03*
G04 #@! TO.N,/BOOST_HI-*
X165428000Y-85536000D03*
G04 #@! TO.N,/BOOST_LO+*
X167968000Y-85019000D03*
G04 #@! TO.N,/BOOST_LO-*
X170000000Y-85019000D03*
G04 #@! TO.N,/SDA*
X147028000Y-108124000D03*
X168809423Y-101997904D03*
G04 #@! TO.N,/SCL*
X146750020Y-106798331D03*
X167673306Y-104362658D03*
G04 #@! TO.N,/LO_DRV*
X156455000Y-84725000D03*
X159034293Y-94129224D03*
X149060000Y-98345000D03*
G04 #@! TO.N,/HI_DRV*
X153915000Y-84725000D03*
X156167340Y-94412660D03*
X150965000Y-97075000D03*
G04 #@! TO.N,/BUCK_HI*
X152645000Y-84725000D03*
X152645000Y-94125000D03*
G04 #@! TO.N,/BUCK_LO*
X155185000Y-84725000D03*
X155287660Y-93687650D03*
G04 #@! TO.N,/BOOST_HI*
X157725000Y-84725000D03*
X157950000Y-91360000D03*
G04 #@! TO.N,/BOOST_LO*
X160265000Y-94125000D03*
X160265000Y-84725000D03*
G04 #@! TO.N,/SDA+*
X141100000Y-113600000D03*
G04 #@! TO.N,/SDA-*
X139050000Y-113600000D03*
G04 #@! TO.N,/SCL+*
X142875000Y-113600000D03*
G04 #@! TO.N,/SCL-*
X144925000Y-113600000D03*
G04 #@! TD*
D20*
G04 #@! TO.N,VCC*
G36*
X169473000Y-76186126D02*
X169473000Y-76597874D01*
X169630569Y-76978280D01*
X169921720Y-77269431D01*
X170302126Y-77427000D01*
X170713874Y-77427000D01*
X171094280Y-77269431D01*
X171385431Y-76978280D01*
X171543000Y-76597874D01*
X171543000Y-76186126D01*
X171518509Y-76127000D01*
X178873000Y-76127000D01*
X178873000Y-123873000D01*
X165837953Y-123873000D01*
X166230625Y-123610625D01*
X166558839Y-123119418D01*
X166674092Y-122540000D01*
X166558839Y-121960582D01*
X166414208Y-121744126D01*
X169325000Y-121744126D01*
X169325000Y-122155874D01*
X169482569Y-122536280D01*
X169773720Y-122827431D01*
X170154126Y-122985000D01*
X170565874Y-122985000D01*
X170946280Y-122827431D01*
X171237431Y-122536280D01*
X171395000Y-122155874D01*
X171395000Y-121744126D01*
X171237431Y-121363720D01*
X170946280Y-121072569D01*
X170565874Y-120915000D01*
X170154126Y-120915000D01*
X169773720Y-121072569D01*
X169482569Y-121363720D01*
X169325000Y-121744126D01*
X166414208Y-121744126D01*
X166230625Y-121469375D01*
X166208968Y-121454904D01*
X166369699Y-121388327D01*
X166548327Y-121209698D01*
X166645000Y-120976309D01*
X166645000Y-120285750D01*
X166486250Y-120127000D01*
X165287000Y-120127000D01*
X165287000Y-120147000D01*
X165033000Y-120147000D01*
X165033000Y-120127000D01*
X165013000Y-120127000D01*
X165013000Y-119873000D01*
X165033000Y-119873000D01*
X165033000Y-118673750D01*
X165287000Y-118673750D01*
X165287000Y-119873000D01*
X166486250Y-119873000D01*
X166645000Y-119714250D01*
X166645000Y-119276954D01*
X171365000Y-119276954D01*
X171365000Y-120723046D01*
X171918396Y-122059062D01*
X172940938Y-123081604D01*
X174276954Y-123635000D01*
X175723046Y-123635000D01*
X177059062Y-123081604D01*
X178081604Y-122059062D01*
X178635000Y-120723046D01*
X178635000Y-119276954D01*
X178081604Y-117940938D01*
X177059062Y-116918396D01*
X176061036Y-116505000D01*
X176226310Y-116505000D01*
X176459699Y-116408327D01*
X176638327Y-116229698D01*
X176735000Y-115996309D01*
X176735000Y-115285750D01*
X176576250Y-115127000D01*
X175127000Y-115127000D01*
X175127000Y-115147000D01*
X174873000Y-115147000D01*
X174873000Y-115127000D01*
X173423750Y-115127000D01*
X173265000Y-115285750D01*
X173265000Y-115996309D01*
X173361673Y-116229698D01*
X173540301Y-116408327D01*
X173773690Y-116505000D01*
X173938964Y-116505000D01*
X172940938Y-116918396D01*
X171918396Y-117940938D01*
X171365000Y-119276954D01*
X166645000Y-119276954D01*
X166645000Y-119023691D01*
X166548327Y-118790302D01*
X166369699Y-118611673D01*
X166136310Y-118515000D01*
X165445750Y-118515000D01*
X165287000Y-118673750D01*
X165033000Y-118673750D01*
X164874250Y-118515000D01*
X164183690Y-118515000D01*
X163950301Y-118611673D01*
X163771673Y-118790302D01*
X163705096Y-118951033D01*
X163690625Y-118929375D01*
X163199418Y-118601161D01*
X162766256Y-118515000D01*
X162473744Y-118515000D01*
X162040582Y-118601161D01*
X161549375Y-118929375D01*
X161350000Y-119227761D01*
X161150625Y-118929375D01*
X160659418Y-118601161D01*
X160226256Y-118515000D01*
X159933744Y-118515000D01*
X159500582Y-118601161D01*
X159009375Y-118929375D01*
X158810000Y-119227761D01*
X158610625Y-118929375D01*
X158119418Y-118601161D01*
X157686256Y-118515000D01*
X157393744Y-118515000D01*
X156960582Y-118601161D01*
X156469375Y-118929375D01*
X156270000Y-119227761D01*
X156070625Y-118929375D01*
X155579418Y-118601161D01*
X155146256Y-118515000D01*
X154853744Y-118515000D01*
X154420582Y-118601161D01*
X153929375Y-118929375D01*
X153730000Y-119227761D01*
X153530625Y-118929375D01*
X153039418Y-118601161D01*
X152606256Y-118515000D01*
X152313744Y-118515000D01*
X151880582Y-118601161D01*
X151389375Y-118929375D01*
X151190000Y-119227761D01*
X150990625Y-118929375D01*
X150499418Y-118601161D01*
X150066256Y-118515000D01*
X149773744Y-118515000D01*
X149340582Y-118601161D01*
X148849375Y-118929375D01*
X148650000Y-119227761D01*
X148450625Y-118929375D01*
X147959418Y-118601161D01*
X147526256Y-118515000D01*
X147233744Y-118515000D01*
X146800582Y-118601161D01*
X146309375Y-118929375D01*
X146110000Y-119227761D01*
X145910625Y-118929375D01*
X145419418Y-118601161D01*
X145086803Y-118535000D01*
X145205874Y-118535000D01*
X145586280Y-118377431D01*
X145877431Y-118086280D01*
X146035000Y-117705874D01*
X146035000Y-117294126D01*
X145877431Y-116913720D01*
X145586280Y-116622569D01*
X145205874Y-116465000D01*
X144794126Y-116465000D01*
X144413720Y-116622569D01*
X144122569Y-116913720D01*
X144000000Y-117209628D01*
X143877431Y-116913720D01*
X143586280Y-116622569D01*
X143205874Y-116465000D01*
X142794126Y-116465000D01*
X142413720Y-116622569D01*
X142122569Y-116913720D01*
X141994822Y-117222128D01*
X141877431Y-116938720D01*
X141586280Y-116647569D01*
X141205874Y-116490000D01*
X140794126Y-116490000D01*
X140413720Y-116647569D01*
X140122569Y-116938720D01*
X140000000Y-117234628D01*
X139877431Y-116938720D01*
X139586280Y-116647569D01*
X139205874Y-116490000D01*
X138794126Y-116490000D01*
X138413720Y-116647569D01*
X138122569Y-116938720D01*
X137965000Y-117319126D01*
X137965000Y-117730874D01*
X138031086Y-117890420D01*
X137059062Y-116918396D01*
X135829851Y-116409240D01*
X136315044Y-116085044D01*
X136647678Y-115587222D01*
X136764484Y-115000000D01*
X136647678Y-114412778D01*
X136315044Y-113914956D01*
X136038238Y-113730000D01*
X136315044Y-113545044D01*
X136415884Y-113394126D01*
X138015000Y-113394126D01*
X138015000Y-113805874D01*
X138172569Y-114186280D01*
X138463720Y-114477431D01*
X138844126Y-114635000D01*
X139255874Y-114635000D01*
X139636280Y-114477431D01*
X139927431Y-114186280D01*
X140075000Y-113830016D01*
X140222569Y-114186280D01*
X140513720Y-114477431D01*
X140894126Y-114635000D01*
X141305874Y-114635000D01*
X141686280Y-114477431D01*
X141977431Y-114186280D01*
X141987500Y-114161971D01*
X141997569Y-114186280D01*
X142288720Y-114477431D01*
X142669126Y-114635000D01*
X143080874Y-114635000D01*
X143461280Y-114477431D01*
X143752431Y-114186280D01*
X143900000Y-113830016D01*
X144047569Y-114186280D01*
X144338720Y-114477431D01*
X144719126Y-114635000D01*
X145130874Y-114635000D01*
X145511280Y-114477431D01*
X145802431Y-114186280D01*
X145960000Y-113805874D01*
X145960000Y-113394126D01*
X145802431Y-113013720D01*
X145511280Y-112722569D01*
X145130874Y-112565000D01*
X144719126Y-112565000D01*
X144338720Y-112722569D01*
X144047569Y-113013720D01*
X143900000Y-113369984D01*
X143752431Y-113013720D01*
X143461280Y-112722569D01*
X143080874Y-112565000D01*
X142669126Y-112565000D01*
X142288720Y-112722569D01*
X141997569Y-113013720D01*
X141987500Y-113038029D01*
X141977431Y-113013720D01*
X141686280Y-112722569D01*
X141305874Y-112565000D01*
X140894126Y-112565000D01*
X140513720Y-112722569D01*
X140222569Y-113013720D01*
X140075000Y-113369984D01*
X139927431Y-113013720D01*
X139636280Y-112722569D01*
X139255874Y-112565000D01*
X138844126Y-112565000D01*
X138463720Y-112722569D01*
X138172569Y-113013720D01*
X138015000Y-113394126D01*
X136415884Y-113394126D01*
X136647678Y-113047222D01*
X136764484Y-112460000D01*
X136647678Y-111872778D01*
X136315044Y-111374956D01*
X136038238Y-111190000D01*
X136315044Y-111005044D01*
X136647678Y-110507222D01*
X136764484Y-109920000D01*
X136647678Y-109332778D01*
X136315044Y-108834956D01*
X136038238Y-108650000D01*
X136315044Y-108465044D01*
X136647678Y-107967222D01*
X136764484Y-107380000D01*
X136727512Y-107194126D01*
X144090000Y-107194126D01*
X144090000Y-107605874D01*
X144247569Y-107986280D01*
X144538720Y-108277431D01*
X144919126Y-108435000D01*
X145330874Y-108435000D01*
X145711280Y-108277431D01*
X145993000Y-107995711D01*
X145993000Y-108329874D01*
X146150569Y-108710280D01*
X146441720Y-109001431D01*
X146822126Y-109159000D01*
X147233874Y-109159000D01*
X147614280Y-109001431D01*
X147905431Y-108710280D01*
X148063000Y-108329874D01*
X148063000Y-107918126D01*
X147905431Y-107537720D01*
X147664025Y-107296314D01*
X147785020Y-107004205D01*
X147785020Y-106592457D01*
X147627451Y-106212051D01*
X147336300Y-105920900D01*
X146955894Y-105763331D01*
X146544146Y-105763331D01*
X146163740Y-105920900D01*
X145872589Y-106212051D01*
X145734394Y-106545683D01*
X145711280Y-106522569D01*
X145330874Y-106365000D01*
X144919126Y-106365000D01*
X144538720Y-106522569D01*
X144247569Y-106813720D01*
X144090000Y-107194126D01*
X136727512Y-107194126D01*
X136647678Y-106792778D01*
X136315044Y-106294956D01*
X136038238Y-106110000D01*
X136315044Y-105925044D01*
X136647678Y-105427222D01*
X136764484Y-104840000D01*
X136647678Y-104252778D01*
X136381308Y-103854126D01*
X143698000Y-103854126D01*
X143698000Y-104265874D01*
X143855569Y-104646280D01*
X144146720Y-104937431D01*
X144527126Y-105095000D01*
X144938874Y-105095000D01*
X145110001Y-105024117D01*
X148001598Y-105024117D01*
X148001598Y-105435865D01*
X148159167Y-105816271D01*
X148450318Y-106107422D01*
X148830724Y-106264991D01*
X149242472Y-106264991D01*
X149622878Y-106107422D01*
X149914029Y-105816271D01*
X150071598Y-105435865D01*
X150071598Y-105104398D01*
X159142562Y-105104398D01*
X159142562Y-105516146D01*
X159300131Y-105896552D01*
X159591282Y-106187703D01*
X159971688Y-106345272D01*
X160383436Y-106345272D01*
X160763842Y-106187703D01*
X160975574Y-105975972D01*
X161041294Y-106041692D01*
X161421700Y-106199261D01*
X161833448Y-106199261D01*
X162213854Y-106041692D01*
X162505005Y-105750541D01*
X162662574Y-105370135D01*
X162662574Y-104958387D01*
X162505005Y-104577981D01*
X162213854Y-104286830D01*
X161899895Y-104156784D01*
X166638306Y-104156784D01*
X166638306Y-104568532D01*
X166795875Y-104948938D01*
X167087026Y-105240089D01*
X167467432Y-105397658D01*
X167879180Y-105397658D01*
X168259586Y-105240089D01*
X168550737Y-104948938D01*
X168708306Y-104568532D01*
X168708306Y-104156784D01*
X168550737Y-103776378D01*
X168259586Y-103485227D01*
X167879180Y-103327658D01*
X167467432Y-103327658D01*
X167087026Y-103485227D01*
X166795875Y-103776378D01*
X166638306Y-104156784D01*
X161899895Y-104156784D01*
X161833448Y-104129261D01*
X161421700Y-104129261D01*
X161231298Y-104208128D01*
X161331318Y-103966657D01*
X161331318Y-103554909D01*
X161173749Y-103174503D01*
X160882598Y-102883352D01*
X160502192Y-102725783D01*
X160090444Y-102725783D01*
X159710038Y-102883352D01*
X159418887Y-103174503D01*
X159261318Y-103554909D01*
X159261318Y-103966657D01*
X159418887Y-104347063D01*
X159547974Y-104476150D01*
X159300131Y-104723992D01*
X159142562Y-105104398D01*
X150071598Y-105104398D01*
X150071598Y-105024117D01*
X149914029Y-104643711D01*
X149622878Y-104352560D01*
X149242472Y-104194991D01*
X148830724Y-104194991D01*
X148450318Y-104352560D01*
X148159167Y-104643711D01*
X148001598Y-105024117D01*
X145110001Y-105024117D01*
X145319280Y-104937431D01*
X145610431Y-104646280D01*
X145768000Y-104265874D01*
X145768000Y-103854126D01*
X145610431Y-103473720D01*
X145319280Y-103182569D01*
X144938874Y-103025000D01*
X144527126Y-103025000D01*
X144146720Y-103182569D01*
X143855569Y-103473720D01*
X143698000Y-103854126D01*
X136381308Y-103854126D01*
X136321999Y-103765364D01*
X136459699Y-103708327D01*
X136638327Y-103529698D01*
X136735000Y-103296309D01*
X136735000Y-102585750D01*
X136576250Y-102427000D01*
X135127000Y-102427000D01*
X135127000Y-102447000D01*
X134873000Y-102447000D01*
X134873000Y-102427000D01*
X133423750Y-102427000D01*
X133265000Y-102585750D01*
X133265000Y-103296309D01*
X133361673Y-103529698D01*
X133540301Y-103708327D01*
X133678001Y-103765364D01*
X133352322Y-104252778D01*
X133235516Y-104840000D01*
X133352322Y-105427222D01*
X133684956Y-105925044D01*
X133961762Y-106110000D01*
X133684956Y-106294956D01*
X133352322Y-106792778D01*
X133235516Y-107380000D01*
X133352322Y-107967222D01*
X133684956Y-108465044D01*
X133961762Y-108650000D01*
X133684956Y-108834956D01*
X133352322Y-109332778D01*
X133235516Y-109920000D01*
X133352322Y-110507222D01*
X133684956Y-111005044D01*
X133961762Y-111190000D01*
X133684956Y-111374956D01*
X133352322Y-111872778D01*
X133235516Y-112460000D01*
X133352322Y-113047222D01*
X133684956Y-113545044D01*
X133961762Y-113730000D01*
X133684956Y-113914956D01*
X133352322Y-114412778D01*
X133235516Y-115000000D01*
X133352322Y-115587222D01*
X133684956Y-116085044D01*
X134170149Y-116409240D01*
X132940938Y-116918396D01*
X131918396Y-117940938D01*
X131365000Y-119276954D01*
X131365000Y-120723046D01*
X131918396Y-122059062D01*
X132940938Y-123081604D01*
X134276954Y-123635000D01*
X135723046Y-123635000D01*
X137059062Y-123081604D01*
X138081604Y-122059062D01*
X138193829Y-121788126D01*
X138373000Y-121788126D01*
X138373000Y-122199874D01*
X138530569Y-122580280D01*
X138821720Y-122871431D01*
X139202126Y-123029000D01*
X139613874Y-123029000D01*
X139994280Y-122871431D01*
X140285431Y-122580280D01*
X140443000Y-122199874D01*
X140443000Y-121788126D01*
X140285431Y-121407720D01*
X139994280Y-121116569D01*
X139613874Y-120959000D01*
X139202126Y-120959000D01*
X138821720Y-121116569D01*
X138530569Y-121407720D01*
X138373000Y-121788126D01*
X138193829Y-121788126D01*
X138635000Y-120723046D01*
X138635000Y-119276954D01*
X138173087Y-118161798D01*
X138413720Y-118402431D01*
X138794126Y-118560000D01*
X139205874Y-118560000D01*
X139586280Y-118402431D01*
X139877431Y-118111280D01*
X140000000Y-117815372D01*
X140122569Y-118111280D01*
X140413720Y-118402431D01*
X140794126Y-118560000D01*
X141205874Y-118560000D01*
X141586280Y-118402431D01*
X141877431Y-118111280D01*
X142005178Y-117802872D01*
X142122569Y-118086280D01*
X142413720Y-118377431D01*
X142794126Y-118535000D01*
X143205874Y-118535000D01*
X143586280Y-118377431D01*
X143877431Y-118086280D01*
X144000000Y-117790372D01*
X144122569Y-118086280D01*
X144413720Y-118377431D01*
X144745842Y-118515000D01*
X144693744Y-118515000D01*
X144260582Y-118601161D01*
X143769375Y-118929375D01*
X143441161Y-119420582D01*
X143325908Y-120000000D01*
X143441161Y-120579418D01*
X143769375Y-121070625D01*
X144067761Y-121270000D01*
X143769375Y-121469375D01*
X143441161Y-121960582D01*
X143325908Y-122540000D01*
X143441161Y-123119418D01*
X143769375Y-123610625D01*
X144162047Y-123873000D01*
X131127000Y-123873000D01*
X131127000Y-101303691D01*
X133265000Y-101303691D01*
X133265000Y-102014250D01*
X133423750Y-102173000D01*
X134873000Y-102173000D01*
X134873000Y-100953750D01*
X135127000Y-100953750D01*
X135127000Y-102173000D01*
X136576250Y-102173000D01*
X136735000Y-102014250D01*
X136735000Y-101792030D01*
X167774423Y-101792030D01*
X167774423Y-102203778D01*
X167931992Y-102584184D01*
X168223143Y-102875335D01*
X168603549Y-103032904D01*
X169015297Y-103032904D01*
X169395703Y-102875335D01*
X169686854Y-102584184D01*
X169804566Y-102300000D01*
X173235516Y-102300000D01*
X173352322Y-102887222D01*
X173684956Y-103385044D01*
X173961762Y-103570000D01*
X173684956Y-103754956D01*
X173352322Y-104252778D01*
X173235516Y-104840000D01*
X173352322Y-105427222D01*
X173684956Y-105925044D01*
X173961762Y-106110000D01*
X173684956Y-106294956D01*
X173352322Y-106792778D01*
X173235516Y-107380000D01*
X173352322Y-107967222D01*
X173684956Y-108465044D01*
X173961762Y-108650000D01*
X173684956Y-108834956D01*
X173352322Y-109332778D01*
X173235516Y-109920000D01*
X173352322Y-110507222D01*
X173684956Y-111005044D01*
X173961762Y-111190000D01*
X173684956Y-111374956D01*
X173352322Y-111872778D01*
X173235516Y-112460000D01*
X173352322Y-113047222D01*
X173678001Y-113534636D01*
X173540301Y-113591673D01*
X173361673Y-113770302D01*
X173265000Y-114003691D01*
X173265000Y-114714250D01*
X173423750Y-114873000D01*
X174873000Y-114873000D01*
X174873000Y-114853000D01*
X175127000Y-114853000D01*
X175127000Y-114873000D01*
X176576250Y-114873000D01*
X176735000Y-114714250D01*
X176735000Y-114003691D01*
X176638327Y-113770302D01*
X176459699Y-113591673D01*
X176321999Y-113534636D01*
X176647678Y-113047222D01*
X176764484Y-112460000D01*
X176647678Y-111872778D01*
X176315044Y-111374956D01*
X176038238Y-111190000D01*
X176315044Y-111005044D01*
X176647678Y-110507222D01*
X176764484Y-109920000D01*
X176647678Y-109332778D01*
X176315044Y-108834956D01*
X176038238Y-108650000D01*
X176315044Y-108465044D01*
X176647678Y-107967222D01*
X176764484Y-107380000D01*
X176647678Y-106792778D01*
X176315044Y-106294956D01*
X176038238Y-106110000D01*
X176315044Y-105925044D01*
X176647678Y-105427222D01*
X176764484Y-104840000D01*
X176647678Y-104252778D01*
X176315044Y-103754956D01*
X176038238Y-103570000D01*
X176315044Y-103385044D01*
X176647678Y-102887222D01*
X176764484Y-102300000D01*
X176647678Y-101712778D01*
X176315044Y-101214956D01*
X175817222Y-100882322D01*
X175378226Y-100795000D01*
X174621774Y-100795000D01*
X174182778Y-100882322D01*
X173684956Y-101214956D01*
X173352322Y-101712778D01*
X173235516Y-102300000D01*
X169804566Y-102300000D01*
X169844423Y-102203778D01*
X169844423Y-101792030D01*
X169686854Y-101411624D01*
X169637471Y-101362241D01*
X169909431Y-101090280D01*
X170067000Y-100709874D01*
X170067000Y-100298126D01*
X169909431Y-99917720D01*
X169618280Y-99626569D01*
X169237874Y-99469000D01*
X168826126Y-99469000D01*
X168445720Y-99626569D01*
X168154569Y-99917720D01*
X167997000Y-100298126D01*
X167997000Y-100709874D01*
X168154569Y-101090280D01*
X168203953Y-101139664D01*
X167931992Y-101411624D01*
X167774423Y-101792030D01*
X136735000Y-101792030D01*
X136735000Y-101303691D01*
X136638327Y-101070302D01*
X136459699Y-100891673D01*
X136226310Y-100795000D01*
X135285750Y-100795000D01*
X135127000Y-100953750D01*
X134873000Y-100953750D01*
X134714250Y-100795000D01*
X133773690Y-100795000D01*
X133540301Y-100891673D01*
X133361673Y-101070302D01*
X133265000Y-101303691D01*
X131127000Y-101303691D01*
X131127000Y-100044126D01*
X138500000Y-100044126D01*
X138500000Y-100455874D01*
X138657569Y-100836280D01*
X138948720Y-101127431D01*
X139329126Y-101285000D01*
X139740874Y-101285000D01*
X140121280Y-101127431D01*
X140412431Y-100836280D01*
X140570000Y-100455874D01*
X140570000Y-100044126D01*
X140412431Y-99663720D01*
X140121280Y-99372569D01*
X139740874Y-99215000D01*
X139329126Y-99215000D01*
X138948720Y-99372569D01*
X138657569Y-99663720D01*
X138500000Y-100044126D01*
X131127000Y-100044126D01*
X131127000Y-87540000D01*
X133235516Y-87540000D01*
X133352322Y-88127222D01*
X133684956Y-88625044D01*
X133961762Y-88810000D01*
X133684956Y-88994956D01*
X133352322Y-89492778D01*
X133235516Y-90080000D01*
X133352322Y-90667222D01*
X133684956Y-91165044D01*
X133961762Y-91350000D01*
X133684956Y-91534956D01*
X133352322Y-92032778D01*
X133235516Y-92620000D01*
X133352322Y-93207222D01*
X133684956Y-93705044D01*
X133961762Y-93890000D01*
X133684956Y-94074956D01*
X133352322Y-94572778D01*
X133235516Y-95160000D01*
X133352322Y-95747222D01*
X133684956Y-96245044D01*
X133961762Y-96430000D01*
X133684956Y-96614956D01*
X133352322Y-97112778D01*
X133235516Y-97700000D01*
X133352322Y-98287222D01*
X133684956Y-98785044D01*
X134182778Y-99117678D01*
X134621774Y-99205000D01*
X135378226Y-99205000D01*
X135817222Y-99117678D01*
X136315044Y-98785044D01*
X136647678Y-98287222D01*
X136677136Y-98139126D01*
X148025000Y-98139126D01*
X148025000Y-98550874D01*
X148182569Y-98931280D01*
X148473720Y-99222431D01*
X148854126Y-99380000D01*
X149265874Y-99380000D01*
X149646280Y-99222431D01*
X149937431Y-98931280D01*
X150095000Y-98550874D01*
X150095000Y-98139126D01*
X149937431Y-97758720D01*
X149646280Y-97467569D01*
X149265874Y-97310000D01*
X148854126Y-97310000D01*
X148473720Y-97467569D01*
X148182569Y-97758720D01*
X148025000Y-98139126D01*
X136677136Y-98139126D01*
X136764484Y-97700000D01*
X136647678Y-97112778D01*
X136484875Y-96869126D01*
X149930000Y-96869126D01*
X149930000Y-97280874D01*
X150087569Y-97661280D01*
X150378720Y-97952431D01*
X150759126Y-98110000D01*
X151170874Y-98110000D01*
X151551280Y-97952431D01*
X151842431Y-97661280D01*
X152000000Y-97280874D01*
X152000000Y-96869126D01*
X151943668Y-96733126D01*
X162503000Y-96733126D01*
X162503000Y-97144874D01*
X162660569Y-97525280D01*
X162951720Y-97816431D01*
X163332126Y-97974000D01*
X163743874Y-97974000D01*
X164124280Y-97816431D01*
X164415431Y-97525280D01*
X164573000Y-97144874D01*
X164573000Y-96733126D01*
X164415431Y-96352720D01*
X164124280Y-96061569D01*
X163743874Y-95904000D01*
X163332126Y-95904000D01*
X162951720Y-96061569D01*
X162660569Y-96352720D01*
X162503000Y-96733126D01*
X151943668Y-96733126D01*
X151842431Y-96488720D01*
X151551280Y-96197569D01*
X151170874Y-96040000D01*
X150759126Y-96040000D01*
X150378720Y-96197569D01*
X150087569Y-96488720D01*
X149930000Y-96869126D01*
X136484875Y-96869126D01*
X136315044Y-96614956D01*
X136038238Y-96430000D01*
X136315044Y-96245044D01*
X136647678Y-95747222D01*
X136764484Y-95160000D01*
X136647678Y-94572778D01*
X136315044Y-94074956D01*
X136081829Y-93919126D01*
X151610000Y-93919126D01*
X151610000Y-94330874D01*
X151767569Y-94711280D01*
X152058720Y-95002431D01*
X152439126Y-95160000D01*
X152850874Y-95160000D01*
X153231280Y-95002431D01*
X153522431Y-94711280D01*
X153680000Y-94330874D01*
X153680000Y-93919126D01*
X153522431Y-93538720D01*
X153465487Y-93481776D01*
X154252660Y-93481776D01*
X154252660Y-93893524D01*
X154410229Y-94273930D01*
X154701380Y-94565081D01*
X155081786Y-94722650D01*
X155175466Y-94722650D01*
X155289909Y-94998940D01*
X155581060Y-95290091D01*
X155961466Y-95447660D01*
X156373214Y-95447660D01*
X156753620Y-95290091D01*
X157044771Y-94998940D01*
X157202340Y-94618534D01*
X157202340Y-94206786D01*
X157084938Y-93923350D01*
X157999293Y-93923350D01*
X157999293Y-94335098D01*
X158156862Y-94715504D01*
X158448013Y-95006655D01*
X158828419Y-95164224D01*
X159240167Y-95164224D01*
X159620573Y-95006655D01*
X159651759Y-94975470D01*
X159678720Y-95002431D01*
X160059126Y-95160000D01*
X160470874Y-95160000D01*
X160851280Y-95002431D01*
X160900000Y-94953711D01*
X160948720Y-95002431D01*
X161329126Y-95160000D01*
X161740874Y-95160000D01*
X162121280Y-95002431D01*
X162412431Y-94711280D01*
X162570000Y-94330874D01*
X162570000Y-93919126D01*
X162412431Y-93538720D01*
X162121280Y-93247569D01*
X161740874Y-93090000D01*
X161329126Y-93090000D01*
X160948720Y-93247569D01*
X160900000Y-93296289D01*
X160851280Y-93247569D01*
X160470874Y-93090000D01*
X160059126Y-93090000D01*
X159678720Y-93247569D01*
X159647535Y-93278755D01*
X159620573Y-93251793D01*
X159240167Y-93094224D01*
X158828419Y-93094224D01*
X158448013Y-93251793D01*
X158156862Y-93542944D01*
X157999293Y-93923350D01*
X157084938Y-93923350D01*
X157044771Y-93826380D01*
X156753620Y-93535229D01*
X156373214Y-93377660D01*
X156279534Y-93377660D01*
X156165091Y-93101370D01*
X155873940Y-92810219D01*
X155493534Y-92652650D01*
X155081786Y-92652650D01*
X154701380Y-92810219D01*
X154410229Y-93101370D01*
X154252660Y-93481776D01*
X153465487Y-93481776D01*
X153231280Y-93247569D01*
X152850874Y-93090000D01*
X152439126Y-93090000D01*
X152058720Y-93247569D01*
X151767569Y-93538720D01*
X151610000Y-93919126D01*
X136081829Y-93919126D01*
X136038238Y-93890000D01*
X136315044Y-93705044D01*
X136647678Y-93207222D01*
X136764484Y-92620000D01*
X136673805Y-92164126D01*
X142818000Y-92164126D01*
X142818000Y-92575874D01*
X142975569Y-92956280D01*
X143266720Y-93247431D01*
X143647126Y-93405000D01*
X144058874Y-93405000D01*
X144439280Y-93247431D01*
X144730431Y-92956280D01*
X144888000Y-92575874D01*
X144888000Y-92164126D01*
X144730431Y-91783720D01*
X144439280Y-91492569D01*
X144058874Y-91335000D01*
X143647126Y-91335000D01*
X143266720Y-91492569D01*
X142975569Y-91783720D01*
X142818000Y-92164126D01*
X136673805Y-92164126D01*
X136647678Y-92032778D01*
X136315044Y-91534956D01*
X136038238Y-91350000D01*
X136315044Y-91165044D01*
X136322339Y-91154126D01*
X156915000Y-91154126D01*
X156915000Y-91565874D01*
X157072569Y-91946280D01*
X157363720Y-92237431D01*
X157744126Y-92395000D01*
X158155874Y-92395000D01*
X158536280Y-92237431D01*
X158633711Y-92140000D01*
X165695516Y-92140000D01*
X165812322Y-92727222D01*
X166144956Y-93225044D01*
X166421762Y-93410000D01*
X166144956Y-93594956D01*
X165812322Y-94092778D01*
X165695516Y-94680000D01*
X165812322Y-95267222D01*
X166144956Y-95765044D01*
X166421762Y-95950000D01*
X166144956Y-96134956D01*
X165812322Y-96632778D01*
X165695516Y-97220000D01*
X165812322Y-97807222D01*
X166144956Y-98305044D01*
X166642778Y-98637678D01*
X167081774Y-98725000D01*
X167838226Y-98725000D01*
X168277222Y-98637678D01*
X168775044Y-98305044D01*
X169107678Y-97807222D01*
X169111949Y-97785750D01*
X173265000Y-97785750D01*
X173265000Y-98496309D01*
X173361673Y-98729698D01*
X173540301Y-98908327D01*
X173773690Y-99005000D01*
X174714250Y-99005000D01*
X174873000Y-98846250D01*
X174873000Y-97627000D01*
X175127000Y-97627000D01*
X175127000Y-98846250D01*
X175285750Y-99005000D01*
X176226310Y-99005000D01*
X176459699Y-98908327D01*
X176638327Y-98729698D01*
X176735000Y-98496309D01*
X176735000Y-97785750D01*
X176576250Y-97627000D01*
X175127000Y-97627000D01*
X174873000Y-97627000D01*
X173423750Y-97627000D01*
X173265000Y-97785750D01*
X169111949Y-97785750D01*
X169224484Y-97220000D01*
X169107678Y-96632778D01*
X168775044Y-96134956D01*
X168498238Y-95950000D01*
X168775044Y-95765044D01*
X169107678Y-95267222D01*
X169224484Y-94680000D01*
X169107678Y-94092778D01*
X168775044Y-93594956D01*
X168498238Y-93410000D01*
X168775044Y-93225044D01*
X169107678Y-92727222D01*
X169224484Y-92140000D01*
X169107678Y-91552778D01*
X168781999Y-91065364D01*
X168919699Y-91008327D01*
X169098327Y-90829698D01*
X169195000Y-90596309D01*
X169195000Y-89885750D01*
X169036250Y-89727000D01*
X167587000Y-89727000D01*
X167587000Y-89747000D01*
X167333000Y-89747000D01*
X167333000Y-89727000D01*
X165883750Y-89727000D01*
X165725000Y-89885750D01*
X165725000Y-90596309D01*
X165821673Y-90829698D01*
X166000301Y-91008327D01*
X166138001Y-91065364D01*
X165812322Y-91552778D01*
X165695516Y-92140000D01*
X158633711Y-92140000D01*
X158827431Y-91946280D01*
X158985000Y-91565874D01*
X158985000Y-91154126D01*
X158827431Y-90773720D01*
X158536280Y-90482569D01*
X158155874Y-90325000D01*
X157744126Y-90325000D01*
X157363720Y-90482569D01*
X157072569Y-90773720D01*
X156915000Y-91154126D01*
X136322339Y-91154126D01*
X136647678Y-90667222D01*
X136764484Y-90080000D01*
X136647678Y-89492778D01*
X136315044Y-88994956D01*
X136038238Y-88810000D01*
X136315044Y-88625044D01*
X136316325Y-88623126D01*
X146882000Y-88623126D01*
X146882000Y-89034874D01*
X147039569Y-89415280D01*
X147330720Y-89706431D01*
X147711126Y-89864000D01*
X148122874Y-89864000D01*
X148503280Y-89706431D01*
X148794431Y-89415280D01*
X148952000Y-89034874D01*
X148952000Y-88623126D01*
X148943950Y-88603691D01*
X165725000Y-88603691D01*
X165725000Y-89314250D01*
X165883750Y-89473000D01*
X167333000Y-89473000D01*
X167333000Y-88253750D01*
X167587000Y-88253750D01*
X167587000Y-89473000D01*
X169036250Y-89473000D01*
X169195000Y-89314250D01*
X169195000Y-88603691D01*
X169098327Y-88370302D01*
X168919699Y-88191673D01*
X168686310Y-88095000D01*
X167745750Y-88095000D01*
X167587000Y-88253750D01*
X167333000Y-88253750D01*
X167174250Y-88095000D01*
X166233690Y-88095000D01*
X166000301Y-88191673D01*
X165821673Y-88370302D01*
X165725000Y-88603691D01*
X148943950Y-88603691D01*
X148794431Y-88242720D01*
X148503280Y-87951569D01*
X148122874Y-87794000D01*
X147711126Y-87794000D01*
X147330720Y-87951569D01*
X147039569Y-88242720D01*
X146882000Y-88623126D01*
X136316325Y-88623126D01*
X136647678Y-88127222D01*
X136764484Y-87540000D01*
X136647678Y-86952778D01*
X136321999Y-86465364D01*
X136459699Y-86408327D01*
X136638327Y-86229698D01*
X136735000Y-85996309D01*
X136735000Y-85829126D01*
X138485000Y-85829126D01*
X138485000Y-86240874D01*
X138642569Y-86621280D01*
X138933720Y-86912431D01*
X139314126Y-87070000D01*
X139725874Y-87070000D01*
X140106280Y-86912431D01*
X140397431Y-86621280D01*
X140536000Y-86286744D01*
X140674569Y-86621280D01*
X140965720Y-86912431D01*
X141346126Y-87070000D01*
X141757874Y-87070000D01*
X142138280Y-86912431D01*
X142429431Y-86621280D01*
X142568000Y-86286744D01*
X142706569Y-86621280D01*
X142997720Y-86912431D01*
X143378126Y-87070000D01*
X143789874Y-87070000D01*
X144170280Y-86912431D01*
X144461431Y-86621280D01*
X144600000Y-86286744D01*
X144738569Y-86621280D01*
X145029720Y-86912431D01*
X145410126Y-87070000D01*
X145821874Y-87070000D01*
X146202280Y-86912431D01*
X146251585Y-86863126D01*
X162869000Y-86863126D01*
X162869000Y-87274874D01*
X163026569Y-87655280D01*
X163317720Y-87946431D01*
X163698126Y-88104000D01*
X164109874Y-88104000D01*
X164490280Y-87946431D01*
X164781431Y-87655280D01*
X164939000Y-87274874D01*
X164939000Y-86863126D01*
X164781431Y-86482720D01*
X164490280Y-86191569D01*
X164109874Y-86034000D01*
X163698126Y-86034000D01*
X163317720Y-86191569D01*
X163026569Y-86482720D01*
X162869000Y-86863126D01*
X146251585Y-86863126D01*
X146493431Y-86621280D01*
X146651000Y-86240874D01*
X146651000Y-85829126D01*
X146493431Y-85448720D01*
X146202280Y-85157569D01*
X145821874Y-85000000D01*
X145410126Y-85000000D01*
X145029720Y-85157569D01*
X144738569Y-85448720D01*
X144600000Y-85783256D01*
X144461431Y-85448720D01*
X144170280Y-85157569D01*
X143789874Y-85000000D01*
X143378126Y-85000000D01*
X142997720Y-85157569D01*
X142706569Y-85448720D01*
X142568000Y-85783256D01*
X142429431Y-85448720D01*
X142138280Y-85157569D01*
X141757874Y-85000000D01*
X141346126Y-85000000D01*
X140965720Y-85157569D01*
X140674569Y-85448720D01*
X140536000Y-85783256D01*
X140397431Y-85448720D01*
X140106280Y-85157569D01*
X139725874Y-85000000D01*
X139314126Y-85000000D01*
X138933720Y-85157569D01*
X138642569Y-85448720D01*
X138485000Y-85829126D01*
X136735000Y-85829126D01*
X136735000Y-85285750D01*
X136576250Y-85127000D01*
X135127000Y-85127000D01*
X135127000Y-85147000D01*
X134873000Y-85147000D01*
X134873000Y-85127000D01*
X133423750Y-85127000D01*
X133265000Y-85285750D01*
X133265000Y-85996309D01*
X133361673Y-86229698D01*
X133540301Y-86408327D01*
X133678001Y-86465364D01*
X133352322Y-86952778D01*
X133235516Y-87540000D01*
X131127000Y-87540000D01*
X131127000Y-79276954D01*
X131365000Y-79276954D01*
X131365000Y-80723046D01*
X131918396Y-82059062D01*
X132940938Y-83081604D01*
X133938964Y-83495000D01*
X133773690Y-83495000D01*
X133540301Y-83591673D01*
X133361673Y-83770302D01*
X133265000Y-84003691D01*
X133265000Y-84714250D01*
X133423750Y-84873000D01*
X134873000Y-84873000D01*
X134873000Y-84853000D01*
X135127000Y-84853000D01*
X135127000Y-84873000D01*
X136576250Y-84873000D01*
X136735000Y-84714250D01*
X136735000Y-84519126D01*
X151610000Y-84519126D01*
X151610000Y-84930874D01*
X151767569Y-85311280D01*
X152058720Y-85602431D01*
X152439126Y-85760000D01*
X152850874Y-85760000D01*
X153231280Y-85602431D01*
X153280000Y-85553711D01*
X153328720Y-85602431D01*
X153709126Y-85760000D01*
X154120874Y-85760000D01*
X154501280Y-85602431D01*
X154550000Y-85553711D01*
X154598720Y-85602431D01*
X154979126Y-85760000D01*
X155390874Y-85760000D01*
X155771280Y-85602431D01*
X155820000Y-85553711D01*
X155868720Y-85602431D01*
X156249126Y-85760000D01*
X156660874Y-85760000D01*
X157041280Y-85602431D01*
X157090000Y-85553711D01*
X157138720Y-85602431D01*
X157519126Y-85760000D01*
X157930874Y-85760000D01*
X158311280Y-85602431D01*
X158602431Y-85311280D01*
X158760000Y-84930874D01*
X158760000Y-84519126D01*
X159230000Y-84519126D01*
X159230000Y-84930874D01*
X159387569Y-85311280D01*
X159678720Y-85602431D01*
X160059126Y-85760000D01*
X160470874Y-85760000D01*
X160851280Y-85602431D01*
X161123585Y-85330126D01*
X164393000Y-85330126D01*
X164393000Y-85741874D01*
X164550569Y-86122280D01*
X164841720Y-86413431D01*
X165222126Y-86571000D01*
X165633874Y-86571000D01*
X166014280Y-86413431D01*
X166305431Y-86122280D01*
X166463000Y-85741874D01*
X166463000Y-85330126D01*
X166305431Y-84949720D01*
X166168837Y-84813126D01*
X166933000Y-84813126D01*
X166933000Y-85224874D01*
X167090569Y-85605280D01*
X167381720Y-85896431D01*
X167762126Y-86054000D01*
X168173874Y-86054000D01*
X168554280Y-85896431D01*
X168845431Y-85605280D01*
X168984000Y-85270744D01*
X169122569Y-85605280D01*
X169413720Y-85896431D01*
X169794126Y-86054000D01*
X170205874Y-86054000D01*
X170586280Y-85896431D01*
X170877431Y-85605280D01*
X171035000Y-85224874D01*
X171035000Y-84813126D01*
X170877431Y-84432720D01*
X170586280Y-84141569D01*
X170205874Y-83984000D01*
X169794126Y-83984000D01*
X169413720Y-84141569D01*
X169122569Y-84432720D01*
X168984000Y-84767256D01*
X168845431Y-84432720D01*
X168554280Y-84141569D01*
X168173874Y-83984000D01*
X167762126Y-83984000D01*
X167381720Y-84141569D01*
X167090569Y-84432720D01*
X166933000Y-84813126D01*
X166168837Y-84813126D01*
X166014280Y-84658569D01*
X165633874Y-84501000D01*
X165222126Y-84501000D01*
X164841720Y-84658569D01*
X164550569Y-84949720D01*
X164393000Y-85330126D01*
X161123585Y-85330126D01*
X161142431Y-85311280D01*
X161300000Y-84930874D01*
X161300000Y-84519126D01*
X161142431Y-84138720D01*
X160851280Y-83847569D01*
X160470874Y-83690000D01*
X160059126Y-83690000D01*
X159678720Y-83847569D01*
X159387569Y-84138720D01*
X159230000Y-84519126D01*
X158760000Y-84519126D01*
X158602431Y-84138720D01*
X158311280Y-83847569D01*
X157930874Y-83690000D01*
X157519126Y-83690000D01*
X157138720Y-83847569D01*
X157090000Y-83896289D01*
X157041280Y-83847569D01*
X156660874Y-83690000D01*
X156249126Y-83690000D01*
X155868720Y-83847569D01*
X155820000Y-83896289D01*
X155771280Y-83847569D01*
X155390874Y-83690000D01*
X154979126Y-83690000D01*
X154598720Y-83847569D01*
X154550000Y-83896289D01*
X154501280Y-83847569D01*
X154120874Y-83690000D01*
X153709126Y-83690000D01*
X153328720Y-83847569D01*
X153280000Y-83896289D01*
X153231280Y-83847569D01*
X152850874Y-83690000D01*
X152439126Y-83690000D01*
X152058720Y-83847569D01*
X151767569Y-84138720D01*
X151610000Y-84519126D01*
X136735000Y-84519126D01*
X136735000Y-84003691D01*
X136638327Y-83770302D01*
X136459699Y-83591673D01*
X136226310Y-83495000D01*
X136061036Y-83495000D01*
X137059062Y-83081604D01*
X138081604Y-82059062D01*
X138139567Y-81919126D01*
X155520009Y-81919126D01*
X155520009Y-82330874D01*
X155677578Y-82711280D01*
X155968729Y-83002431D01*
X156349135Y-83160000D01*
X156760883Y-83160000D01*
X157141289Y-83002431D01*
X157432440Y-82711280D01*
X157590009Y-82330874D01*
X157590009Y-81919126D01*
X159230000Y-81919126D01*
X159230000Y-82330874D01*
X159387569Y-82711280D01*
X159678720Y-83002431D01*
X160059126Y-83160000D01*
X160470874Y-83160000D01*
X160851280Y-83002431D01*
X161054585Y-82799126D01*
X162869000Y-82799126D01*
X162869000Y-83210874D01*
X163026569Y-83591280D01*
X163317720Y-83882431D01*
X163698126Y-84040000D01*
X164109874Y-84040000D01*
X164490280Y-83882431D01*
X164781431Y-83591280D01*
X164939000Y-83210874D01*
X164939000Y-82799126D01*
X164781431Y-82418720D01*
X164490280Y-82127569D01*
X164109874Y-81970000D01*
X163698126Y-81970000D01*
X163317720Y-82127569D01*
X163026569Y-82418720D01*
X162869000Y-82799126D01*
X161054585Y-82799126D01*
X161142431Y-82711280D01*
X161300000Y-82330874D01*
X161300000Y-81919126D01*
X161142431Y-81538720D01*
X160851280Y-81247569D01*
X160470874Y-81090000D01*
X160059126Y-81090000D01*
X159678720Y-81247569D01*
X159387569Y-81538720D01*
X159230000Y-81919126D01*
X157590009Y-81919126D01*
X157432440Y-81538720D01*
X157141289Y-81247569D01*
X156760883Y-81090000D01*
X156349135Y-81090000D01*
X155968729Y-81247569D01*
X155677578Y-81538720D01*
X155520009Y-81919126D01*
X138139567Y-81919126D01*
X138635000Y-80723046D01*
X138635000Y-80096126D01*
X148406000Y-80096126D01*
X148406000Y-80507874D01*
X148563569Y-80888280D01*
X148854720Y-81179431D01*
X149235126Y-81337000D01*
X149646874Y-81337000D01*
X150027280Y-81179431D01*
X150318431Y-80888280D01*
X150476000Y-80507874D01*
X150476000Y-80096126D01*
X150318431Y-79715720D01*
X150027280Y-79424569D01*
X149670906Y-79276954D01*
X171365000Y-79276954D01*
X171365000Y-80723046D01*
X171918396Y-82059062D01*
X172940938Y-83081604D01*
X173985374Y-83514223D01*
X173684956Y-83714956D01*
X173352322Y-84212778D01*
X173235516Y-84800000D01*
X173352322Y-85387222D01*
X173684956Y-85885044D01*
X173961762Y-86070000D01*
X173684956Y-86254956D01*
X173352322Y-86752778D01*
X173235516Y-87340000D01*
X173352322Y-87927222D01*
X173684956Y-88425044D01*
X173961762Y-88610000D01*
X173684956Y-88794956D01*
X173352322Y-89292778D01*
X173235516Y-89880000D01*
X173352322Y-90467222D01*
X173684956Y-90965044D01*
X173961762Y-91150000D01*
X173684956Y-91334956D01*
X173352322Y-91832778D01*
X173235516Y-92420000D01*
X173352322Y-93007222D01*
X173684956Y-93505044D01*
X173961762Y-93690000D01*
X173684956Y-93874956D01*
X173352322Y-94372778D01*
X173235516Y-94960000D01*
X173352322Y-95547222D01*
X173678001Y-96034636D01*
X173540301Y-96091673D01*
X173361673Y-96270302D01*
X173265000Y-96503691D01*
X173265000Y-97214250D01*
X173423750Y-97373000D01*
X174873000Y-97373000D01*
X174873000Y-97353000D01*
X175127000Y-97353000D01*
X175127000Y-97373000D01*
X176576250Y-97373000D01*
X176735000Y-97214250D01*
X176735000Y-96503691D01*
X176638327Y-96270302D01*
X176459699Y-96091673D01*
X176321999Y-96034636D01*
X176647678Y-95547222D01*
X176764484Y-94960000D01*
X176647678Y-94372778D01*
X176315044Y-93874956D01*
X176038238Y-93690000D01*
X176315044Y-93505044D01*
X176647678Y-93007222D01*
X176764484Y-92420000D01*
X176647678Y-91832778D01*
X176315044Y-91334956D01*
X176038238Y-91150000D01*
X176315044Y-90965044D01*
X176647678Y-90467222D01*
X176764484Y-89880000D01*
X176647678Y-89292778D01*
X176315044Y-88794956D01*
X176038238Y-88610000D01*
X176315044Y-88425044D01*
X176647678Y-87927222D01*
X176764484Y-87340000D01*
X176647678Y-86752778D01*
X176315044Y-86254956D01*
X176038238Y-86070000D01*
X176315044Y-85885044D01*
X176647678Y-85387222D01*
X176764484Y-84800000D01*
X176647678Y-84212778D01*
X176315044Y-83714956D01*
X176014626Y-83514223D01*
X177059062Y-83081604D01*
X178081604Y-82059062D01*
X178635000Y-80723046D01*
X178635000Y-79276954D01*
X178081604Y-77940938D01*
X177059062Y-76918396D01*
X175723046Y-76365000D01*
X174276954Y-76365000D01*
X172940938Y-76918396D01*
X171918396Y-77940938D01*
X171365000Y-79276954D01*
X149670906Y-79276954D01*
X149646874Y-79267000D01*
X149235126Y-79267000D01*
X148854720Y-79424569D01*
X148563569Y-79715720D01*
X148406000Y-80096126D01*
X138635000Y-80096126D01*
X138635000Y-79276954D01*
X138081604Y-77940938D01*
X137823792Y-77683126D01*
X138373000Y-77683126D01*
X138373000Y-78094874D01*
X138530569Y-78475280D01*
X138821720Y-78766431D01*
X139202126Y-78924000D01*
X139613874Y-78924000D01*
X139994280Y-78766431D01*
X140285431Y-78475280D01*
X140443000Y-78094874D01*
X140443000Y-77683126D01*
X140285431Y-77302720D01*
X139994280Y-77011569D01*
X139613874Y-76854000D01*
X139202126Y-76854000D01*
X138821720Y-77011569D01*
X138530569Y-77302720D01*
X138373000Y-77683126D01*
X137823792Y-77683126D01*
X137059062Y-76918396D01*
X135723046Y-76365000D01*
X134276954Y-76365000D01*
X132940938Y-76918396D01*
X131918396Y-77940938D01*
X131365000Y-79276954D01*
X131127000Y-79276954D01*
X131127000Y-76127000D01*
X169497491Y-76127000D01*
X169473000Y-76186126D01*
X169473000Y-76186126D01*
G37*
X169473000Y-76186126D02*
X169473000Y-76597874D01*
X169630569Y-76978280D01*
X169921720Y-77269431D01*
X170302126Y-77427000D01*
X170713874Y-77427000D01*
X171094280Y-77269431D01*
X171385431Y-76978280D01*
X171543000Y-76597874D01*
X171543000Y-76186126D01*
X171518509Y-76127000D01*
X178873000Y-76127000D01*
X178873000Y-123873000D01*
X165837953Y-123873000D01*
X166230625Y-123610625D01*
X166558839Y-123119418D01*
X166674092Y-122540000D01*
X166558839Y-121960582D01*
X166414208Y-121744126D01*
X169325000Y-121744126D01*
X169325000Y-122155874D01*
X169482569Y-122536280D01*
X169773720Y-122827431D01*
X170154126Y-122985000D01*
X170565874Y-122985000D01*
X170946280Y-122827431D01*
X171237431Y-122536280D01*
X171395000Y-122155874D01*
X171395000Y-121744126D01*
X171237431Y-121363720D01*
X170946280Y-121072569D01*
X170565874Y-120915000D01*
X170154126Y-120915000D01*
X169773720Y-121072569D01*
X169482569Y-121363720D01*
X169325000Y-121744126D01*
X166414208Y-121744126D01*
X166230625Y-121469375D01*
X166208968Y-121454904D01*
X166369699Y-121388327D01*
X166548327Y-121209698D01*
X166645000Y-120976309D01*
X166645000Y-120285750D01*
X166486250Y-120127000D01*
X165287000Y-120127000D01*
X165287000Y-120147000D01*
X165033000Y-120147000D01*
X165033000Y-120127000D01*
X165013000Y-120127000D01*
X165013000Y-119873000D01*
X165033000Y-119873000D01*
X165033000Y-118673750D01*
X165287000Y-118673750D01*
X165287000Y-119873000D01*
X166486250Y-119873000D01*
X166645000Y-119714250D01*
X166645000Y-119276954D01*
X171365000Y-119276954D01*
X171365000Y-120723046D01*
X171918396Y-122059062D01*
X172940938Y-123081604D01*
X174276954Y-123635000D01*
X175723046Y-123635000D01*
X177059062Y-123081604D01*
X178081604Y-122059062D01*
X178635000Y-120723046D01*
X178635000Y-119276954D01*
X178081604Y-117940938D01*
X177059062Y-116918396D01*
X176061036Y-116505000D01*
X176226310Y-116505000D01*
X176459699Y-116408327D01*
X176638327Y-116229698D01*
X176735000Y-115996309D01*
X176735000Y-115285750D01*
X176576250Y-115127000D01*
X175127000Y-115127000D01*
X175127000Y-115147000D01*
X174873000Y-115147000D01*
X174873000Y-115127000D01*
X173423750Y-115127000D01*
X173265000Y-115285750D01*
X173265000Y-115996309D01*
X173361673Y-116229698D01*
X173540301Y-116408327D01*
X173773690Y-116505000D01*
X173938964Y-116505000D01*
X172940938Y-116918396D01*
X171918396Y-117940938D01*
X171365000Y-119276954D01*
X166645000Y-119276954D01*
X166645000Y-119023691D01*
X166548327Y-118790302D01*
X166369699Y-118611673D01*
X166136310Y-118515000D01*
X165445750Y-118515000D01*
X165287000Y-118673750D01*
X165033000Y-118673750D01*
X164874250Y-118515000D01*
X164183690Y-118515000D01*
X163950301Y-118611673D01*
X163771673Y-118790302D01*
X163705096Y-118951033D01*
X163690625Y-118929375D01*
X163199418Y-118601161D01*
X162766256Y-118515000D01*
X162473744Y-118515000D01*
X162040582Y-118601161D01*
X161549375Y-118929375D01*
X161350000Y-119227761D01*
X161150625Y-118929375D01*
X160659418Y-118601161D01*
X160226256Y-118515000D01*
X159933744Y-118515000D01*
X159500582Y-118601161D01*
X159009375Y-118929375D01*
X158810000Y-119227761D01*
X158610625Y-118929375D01*
X158119418Y-118601161D01*
X157686256Y-118515000D01*
X157393744Y-118515000D01*
X156960582Y-118601161D01*
X156469375Y-118929375D01*
X156270000Y-119227761D01*
X156070625Y-118929375D01*
X155579418Y-118601161D01*
X155146256Y-118515000D01*
X154853744Y-118515000D01*
X154420582Y-118601161D01*
X153929375Y-118929375D01*
X153730000Y-119227761D01*
X153530625Y-118929375D01*
X153039418Y-118601161D01*
X152606256Y-118515000D01*
X152313744Y-118515000D01*
X151880582Y-118601161D01*
X151389375Y-118929375D01*
X151190000Y-119227761D01*
X150990625Y-118929375D01*
X150499418Y-118601161D01*
X150066256Y-118515000D01*
X149773744Y-118515000D01*
X149340582Y-118601161D01*
X148849375Y-118929375D01*
X148650000Y-119227761D01*
X148450625Y-118929375D01*
X147959418Y-118601161D01*
X147526256Y-118515000D01*
X147233744Y-118515000D01*
X146800582Y-118601161D01*
X146309375Y-118929375D01*
X146110000Y-119227761D01*
X145910625Y-118929375D01*
X145419418Y-118601161D01*
X145086803Y-118535000D01*
X145205874Y-118535000D01*
X145586280Y-118377431D01*
X145877431Y-118086280D01*
X146035000Y-117705874D01*
X146035000Y-117294126D01*
X145877431Y-116913720D01*
X145586280Y-116622569D01*
X145205874Y-116465000D01*
X144794126Y-116465000D01*
X144413720Y-116622569D01*
X144122569Y-116913720D01*
X144000000Y-117209628D01*
X143877431Y-116913720D01*
X143586280Y-116622569D01*
X143205874Y-116465000D01*
X142794126Y-116465000D01*
X142413720Y-116622569D01*
X142122569Y-116913720D01*
X141994822Y-117222128D01*
X141877431Y-116938720D01*
X141586280Y-116647569D01*
X141205874Y-116490000D01*
X140794126Y-116490000D01*
X140413720Y-116647569D01*
X140122569Y-116938720D01*
X140000000Y-117234628D01*
X139877431Y-116938720D01*
X139586280Y-116647569D01*
X139205874Y-116490000D01*
X138794126Y-116490000D01*
X138413720Y-116647569D01*
X138122569Y-116938720D01*
X137965000Y-117319126D01*
X137965000Y-117730874D01*
X138031086Y-117890420D01*
X137059062Y-116918396D01*
X135829851Y-116409240D01*
X136315044Y-116085044D01*
X136647678Y-115587222D01*
X136764484Y-115000000D01*
X136647678Y-114412778D01*
X136315044Y-113914956D01*
X136038238Y-113730000D01*
X136315044Y-113545044D01*
X136415884Y-113394126D01*
X138015000Y-113394126D01*
X138015000Y-113805874D01*
X138172569Y-114186280D01*
X138463720Y-114477431D01*
X138844126Y-114635000D01*
X139255874Y-114635000D01*
X139636280Y-114477431D01*
X139927431Y-114186280D01*
X140075000Y-113830016D01*
X140222569Y-114186280D01*
X140513720Y-114477431D01*
X140894126Y-114635000D01*
X141305874Y-114635000D01*
X141686280Y-114477431D01*
X141977431Y-114186280D01*
X141987500Y-114161971D01*
X141997569Y-114186280D01*
X142288720Y-114477431D01*
X142669126Y-114635000D01*
X143080874Y-114635000D01*
X143461280Y-114477431D01*
X143752431Y-114186280D01*
X143900000Y-113830016D01*
X144047569Y-114186280D01*
X144338720Y-114477431D01*
X144719126Y-114635000D01*
X145130874Y-114635000D01*
X145511280Y-114477431D01*
X145802431Y-114186280D01*
X145960000Y-113805874D01*
X145960000Y-113394126D01*
X145802431Y-113013720D01*
X145511280Y-112722569D01*
X145130874Y-112565000D01*
X144719126Y-112565000D01*
X144338720Y-112722569D01*
X144047569Y-113013720D01*
X143900000Y-113369984D01*
X143752431Y-113013720D01*
X143461280Y-112722569D01*
X143080874Y-112565000D01*
X142669126Y-112565000D01*
X142288720Y-112722569D01*
X141997569Y-113013720D01*
X141987500Y-113038029D01*
X141977431Y-113013720D01*
X141686280Y-112722569D01*
X141305874Y-112565000D01*
X140894126Y-112565000D01*
X140513720Y-112722569D01*
X140222569Y-113013720D01*
X140075000Y-113369984D01*
X139927431Y-113013720D01*
X139636280Y-112722569D01*
X139255874Y-112565000D01*
X138844126Y-112565000D01*
X138463720Y-112722569D01*
X138172569Y-113013720D01*
X138015000Y-113394126D01*
X136415884Y-113394126D01*
X136647678Y-113047222D01*
X136764484Y-112460000D01*
X136647678Y-111872778D01*
X136315044Y-111374956D01*
X136038238Y-111190000D01*
X136315044Y-111005044D01*
X136647678Y-110507222D01*
X136764484Y-109920000D01*
X136647678Y-109332778D01*
X136315044Y-108834956D01*
X136038238Y-108650000D01*
X136315044Y-108465044D01*
X136647678Y-107967222D01*
X136764484Y-107380000D01*
X136727512Y-107194126D01*
X144090000Y-107194126D01*
X144090000Y-107605874D01*
X144247569Y-107986280D01*
X144538720Y-108277431D01*
X144919126Y-108435000D01*
X145330874Y-108435000D01*
X145711280Y-108277431D01*
X145993000Y-107995711D01*
X145993000Y-108329874D01*
X146150569Y-108710280D01*
X146441720Y-109001431D01*
X146822126Y-109159000D01*
X147233874Y-109159000D01*
X147614280Y-109001431D01*
X147905431Y-108710280D01*
X148063000Y-108329874D01*
X148063000Y-107918126D01*
X147905431Y-107537720D01*
X147664025Y-107296314D01*
X147785020Y-107004205D01*
X147785020Y-106592457D01*
X147627451Y-106212051D01*
X147336300Y-105920900D01*
X146955894Y-105763331D01*
X146544146Y-105763331D01*
X146163740Y-105920900D01*
X145872589Y-106212051D01*
X145734394Y-106545683D01*
X145711280Y-106522569D01*
X145330874Y-106365000D01*
X144919126Y-106365000D01*
X144538720Y-106522569D01*
X144247569Y-106813720D01*
X144090000Y-107194126D01*
X136727512Y-107194126D01*
X136647678Y-106792778D01*
X136315044Y-106294956D01*
X136038238Y-106110000D01*
X136315044Y-105925044D01*
X136647678Y-105427222D01*
X136764484Y-104840000D01*
X136647678Y-104252778D01*
X136381308Y-103854126D01*
X143698000Y-103854126D01*
X143698000Y-104265874D01*
X143855569Y-104646280D01*
X144146720Y-104937431D01*
X144527126Y-105095000D01*
X144938874Y-105095000D01*
X145110001Y-105024117D01*
X148001598Y-105024117D01*
X148001598Y-105435865D01*
X148159167Y-105816271D01*
X148450318Y-106107422D01*
X148830724Y-106264991D01*
X149242472Y-106264991D01*
X149622878Y-106107422D01*
X149914029Y-105816271D01*
X150071598Y-105435865D01*
X150071598Y-105104398D01*
X159142562Y-105104398D01*
X159142562Y-105516146D01*
X159300131Y-105896552D01*
X159591282Y-106187703D01*
X159971688Y-106345272D01*
X160383436Y-106345272D01*
X160763842Y-106187703D01*
X160975574Y-105975972D01*
X161041294Y-106041692D01*
X161421700Y-106199261D01*
X161833448Y-106199261D01*
X162213854Y-106041692D01*
X162505005Y-105750541D01*
X162662574Y-105370135D01*
X162662574Y-104958387D01*
X162505005Y-104577981D01*
X162213854Y-104286830D01*
X161899895Y-104156784D01*
X166638306Y-104156784D01*
X166638306Y-104568532D01*
X166795875Y-104948938D01*
X167087026Y-105240089D01*
X167467432Y-105397658D01*
X167879180Y-105397658D01*
X168259586Y-105240089D01*
X168550737Y-104948938D01*
X168708306Y-104568532D01*
X168708306Y-104156784D01*
X168550737Y-103776378D01*
X168259586Y-103485227D01*
X167879180Y-103327658D01*
X167467432Y-103327658D01*
X167087026Y-103485227D01*
X166795875Y-103776378D01*
X166638306Y-104156784D01*
X161899895Y-104156784D01*
X161833448Y-104129261D01*
X161421700Y-104129261D01*
X161231298Y-104208128D01*
X161331318Y-103966657D01*
X161331318Y-103554909D01*
X161173749Y-103174503D01*
X160882598Y-102883352D01*
X160502192Y-102725783D01*
X160090444Y-102725783D01*
X159710038Y-102883352D01*
X159418887Y-103174503D01*
X159261318Y-103554909D01*
X159261318Y-103966657D01*
X159418887Y-104347063D01*
X159547974Y-104476150D01*
X159300131Y-104723992D01*
X159142562Y-105104398D01*
X150071598Y-105104398D01*
X150071598Y-105024117D01*
X149914029Y-104643711D01*
X149622878Y-104352560D01*
X149242472Y-104194991D01*
X148830724Y-104194991D01*
X148450318Y-104352560D01*
X148159167Y-104643711D01*
X148001598Y-105024117D01*
X145110001Y-105024117D01*
X145319280Y-104937431D01*
X145610431Y-104646280D01*
X145768000Y-104265874D01*
X145768000Y-103854126D01*
X145610431Y-103473720D01*
X145319280Y-103182569D01*
X144938874Y-103025000D01*
X144527126Y-103025000D01*
X144146720Y-103182569D01*
X143855569Y-103473720D01*
X143698000Y-103854126D01*
X136381308Y-103854126D01*
X136321999Y-103765364D01*
X136459699Y-103708327D01*
X136638327Y-103529698D01*
X136735000Y-103296309D01*
X136735000Y-102585750D01*
X136576250Y-102427000D01*
X135127000Y-102427000D01*
X135127000Y-102447000D01*
X134873000Y-102447000D01*
X134873000Y-102427000D01*
X133423750Y-102427000D01*
X133265000Y-102585750D01*
X133265000Y-103296309D01*
X133361673Y-103529698D01*
X133540301Y-103708327D01*
X133678001Y-103765364D01*
X133352322Y-104252778D01*
X133235516Y-104840000D01*
X133352322Y-105427222D01*
X133684956Y-105925044D01*
X133961762Y-106110000D01*
X133684956Y-106294956D01*
X133352322Y-106792778D01*
X133235516Y-107380000D01*
X133352322Y-107967222D01*
X133684956Y-108465044D01*
X133961762Y-108650000D01*
X133684956Y-108834956D01*
X133352322Y-109332778D01*
X133235516Y-109920000D01*
X133352322Y-110507222D01*
X133684956Y-111005044D01*
X133961762Y-111190000D01*
X133684956Y-111374956D01*
X133352322Y-111872778D01*
X133235516Y-112460000D01*
X133352322Y-113047222D01*
X133684956Y-113545044D01*
X133961762Y-113730000D01*
X133684956Y-113914956D01*
X133352322Y-114412778D01*
X133235516Y-115000000D01*
X133352322Y-115587222D01*
X133684956Y-116085044D01*
X134170149Y-116409240D01*
X132940938Y-116918396D01*
X131918396Y-117940938D01*
X131365000Y-119276954D01*
X131365000Y-120723046D01*
X131918396Y-122059062D01*
X132940938Y-123081604D01*
X134276954Y-123635000D01*
X135723046Y-123635000D01*
X137059062Y-123081604D01*
X138081604Y-122059062D01*
X138193829Y-121788126D01*
X138373000Y-121788126D01*
X138373000Y-122199874D01*
X138530569Y-122580280D01*
X138821720Y-122871431D01*
X139202126Y-123029000D01*
X139613874Y-123029000D01*
X139994280Y-122871431D01*
X140285431Y-122580280D01*
X140443000Y-122199874D01*
X140443000Y-121788126D01*
X140285431Y-121407720D01*
X139994280Y-121116569D01*
X139613874Y-120959000D01*
X139202126Y-120959000D01*
X138821720Y-121116569D01*
X138530569Y-121407720D01*
X138373000Y-121788126D01*
X138193829Y-121788126D01*
X138635000Y-120723046D01*
X138635000Y-119276954D01*
X138173087Y-118161798D01*
X138413720Y-118402431D01*
X138794126Y-118560000D01*
X139205874Y-118560000D01*
X139586280Y-118402431D01*
X139877431Y-118111280D01*
X140000000Y-117815372D01*
X140122569Y-118111280D01*
X140413720Y-118402431D01*
X140794126Y-118560000D01*
X141205874Y-118560000D01*
X141586280Y-118402431D01*
X141877431Y-118111280D01*
X142005178Y-117802872D01*
X142122569Y-118086280D01*
X142413720Y-118377431D01*
X142794126Y-118535000D01*
X143205874Y-118535000D01*
X143586280Y-118377431D01*
X143877431Y-118086280D01*
X144000000Y-117790372D01*
X144122569Y-118086280D01*
X144413720Y-118377431D01*
X144745842Y-118515000D01*
X144693744Y-118515000D01*
X144260582Y-118601161D01*
X143769375Y-118929375D01*
X143441161Y-119420582D01*
X143325908Y-120000000D01*
X143441161Y-120579418D01*
X143769375Y-121070625D01*
X144067761Y-121270000D01*
X143769375Y-121469375D01*
X143441161Y-121960582D01*
X143325908Y-122540000D01*
X143441161Y-123119418D01*
X143769375Y-123610625D01*
X144162047Y-123873000D01*
X131127000Y-123873000D01*
X131127000Y-101303691D01*
X133265000Y-101303691D01*
X133265000Y-102014250D01*
X133423750Y-102173000D01*
X134873000Y-102173000D01*
X134873000Y-100953750D01*
X135127000Y-100953750D01*
X135127000Y-102173000D01*
X136576250Y-102173000D01*
X136735000Y-102014250D01*
X136735000Y-101792030D01*
X167774423Y-101792030D01*
X167774423Y-102203778D01*
X167931992Y-102584184D01*
X168223143Y-102875335D01*
X168603549Y-103032904D01*
X169015297Y-103032904D01*
X169395703Y-102875335D01*
X169686854Y-102584184D01*
X169804566Y-102300000D01*
X173235516Y-102300000D01*
X173352322Y-102887222D01*
X173684956Y-103385044D01*
X173961762Y-103570000D01*
X173684956Y-103754956D01*
X173352322Y-104252778D01*
X173235516Y-104840000D01*
X173352322Y-105427222D01*
X173684956Y-105925044D01*
X173961762Y-106110000D01*
X173684956Y-106294956D01*
X173352322Y-106792778D01*
X173235516Y-107380000D01*
X173352322Y-107967222D01*
X173684956Y-108465044D01*
X173961762Y-108650000D01*
X173684956Y-108834956D01*
X173352322Y-109332778D01*
X173235516Y-109920000D01*
X173352322Y-110507222D01*
X173684956Y-111005044D01*
X173961762Y-111190000D01*
X173684956Y-111374956D01*
X173352322Y-111872778D01*
X173235516Y-112460000D01*
X173352322Y-113047222D01*
X173678001Y-113534636D01*
X173540301Y-113591673D01*
X173361673Y-113770302D01*
X173265000Y-114003691D01*
X173265000Y-114714250D01*
X173423750Y-114873000D01*
X174873000Y-114873000D01*
X174873000Y-114853000D01*
X175127000Y-114853000D01*
X175127000Y-114873000D01*
X176576250Y-114873000D01*
X176735000Y-114714250D01*
X176735000Y-114003691D01*
X176638327Y-113770302D01*
X176459699Y-113591673D01*
X176321999Y-113534636D01*
X176647678Y-113047222D01*
X176764484Y-112460000D01*
X176647678Y-111872778D01*
X176315044Y-111374956D01*
X176038238Y-111190000D01*
X176315044Y-111005044D01*
X176647678Y-110507222D01*
X176764484Y-109920000D01*
X176647678Y-109332778D01*
X176315044Y-108834956D01*
X176038238Y-108650000D01*
X176315044Y-108465044D01*
X176647678Y-107967222D01*
X176764484Y-107380000D01*
X176647678Y-106792778D01*
X176315044Y-106294956D01*
X176038238Y-106110000D01*
X176315044Y-105925044D01*
X176647678Y-105427222D01*
X176764484Y-104840000D01*
X176647678Y-104252778D01*
X176315044Y-103754956D01*
X176038238Y-103570000D01*
X176315044Y-103385044D01*
X176647678Y-102887222D01*
X176764484Y-102300000D01*
X176647678Y-101712778D01*
X176315044Y-101214956D01*
X175817222Y-100882322D01*
X175378226Y-100795000D01*
X174621774Y-100795000D01*
X174182778Y-100882322D01*
X173684956Y-101214956D01*
X173352322Y-101712778D01*
X173235516Y-102300000D01*
X169804566Y-102300000D01*
X169844423Y-102203778D01*
X169844423Y-101792030D01*
X169686854Y-101411624D01*
X169637471Y-101362241D01*
X169909431Y-101090280D01*
X170067000Y-100709874D01*
X170067000Y-100298126D01*
X169909431Y-99917720D01*
X169618280Y-99626569D01*
X169237874Y-99469000D01*
X168826126Y-99469000D01*
X168445720Y-99626569D01*
X168154569Y-99917720D01*
X167997000Y-100298126D01*
X167997000Y-100709874D01*
X168154569Y-101090280D01*
X168203953Y-101139664D01*
X167931992Y-101411624D01*
X167774423Y-101792030D01*
X136735000Y-101792030D01*
X136735000Y-101303691D01*
X136638327Y-101070302D01*
X136459699Y-100891673D01*
X136226310Y-100795000D01*
X135285750Y-100795000D01*
X135127000Y-100953750D01*
X134873000Y-100953750D01*
X134714250Y-100795000D01*
X133773690Y-100795000D01*
X133540301Y-100891673D01*
X133361673Y-101070302D01*
X133265000Y-101303691D01*
X131127000Y-101303691D01*
X131127000Y-100044126D01*
X138500000Y-100044126D01*
X138500000Y-100455874D01*
X138657569Y-100836280D01*
X138948720Y-101127431D01*
X139329126Y-101285000D01*
X139740874Y-101285000D01*
X140121280Y-101127431D01*
X140412431Y-100836280D01*
X140570000Y-100455874D01*
X140570000Y-100044126D01*
X140412431Y-99663720D01*
X140121280Y-99372569D01*
X139740874Y-99215000D01*
X139329126Y-99215000D01*
X138948720Y-99372569D01*
X138657569Y-99663720D01*
X138500000Y-100044126D01*
X131127000Y-100044126D01*
X131127000Y-87540000D01*
X133235516Y-87540000D01*
X133352322Y-88127222D01*
X133684956Y-88625044D01*
X133961762Y-88810000D01*
X133684956Y-88994956D01*
X133352322Y-89492778D01*
X133235516Y-90080000D01*
X133352322Y-90667222D01*
X133684956Y-91165044D01*
X133961762Y-91350000D01*
X133684956Y-91534956D01*
X133352322Y-92032778D01*
X133235516Y-92620000D01*
X133352322Y-93207222D01*
X133684956Y-93705044D01*
X133961762Y-93890000D01*
X133684956Y-94074956D01*
X133352322Y-94572778D01*
X133235516Y-95160000D01*
X133352322Y-95747222D01*
X133684956Y-96245044D01*
X133961762Y-96430000D01*
X133684956Y-96614956D01*
X133352322Y-97112778D01*
X133235516Y-97700000D01*
X133352322Y-98287222D01*
X133684956Y-98785044D01*
X134182778Y-99117678D01*
X134621774Y-99205000D01*
X135378226Y-99205000D01*
X135817222Y-99117678D01*
X136315044Y-98785044D01*
X136647678Y-98287222D01*
X136677136Y-98139126D01*
X148025000Y-98139126D01*
X148025000Y-98550874D01*
X148182569Y-98931280D01*
X148473720Y-99222431D01*
X148854126Y-99380000D01*
X149265874Y-99380000D01*
X149646280Y-99222431D01*
X149937431Y-98931280D01*
X150095000Y-98550874D01*
X150095000Y-98139126D01*
X149937431Y-97758720D01*
X149646280Y-97467569D01*
X149265874Y-97310000D01*
X148854126Y-97310000D01*
X148473720Y-97467569D01*
X148182569Y-97758720D01*
X148025000Y-98139126D01*
X136677136Y-98139126D01*
X136764484Y-97700000D01*
X136647678Y-97112778D01*
X136484875Y-96869126D01*
X149930000Y-96869126D01*
X149930000Y-97280874D01*
X150087569Y-97661280D01*
X150378720Y-97952431D01*
X150759126Y-98110000D01*
X151170874Y-98110000D01*
X151551280Y-97952431D01*
X151842431Y-97661280D01*
X152000000Y-97280874D01*
X152000000Y-96869126D01*
X151943668Y-96733126D01*
X162503000Y-96733126D01*
X162503000Y-97144874D01*
X162660569Y-97525280D01*
X162951720Y-97816431D01*
X163332126Y-97974000D01*
X163743874Y-97974000D01*
X164124280Y-97816431D01*
X164415431Y-97525280D01*
X164573000Y-97144874D01*
X164573000Y-96733126D01*
X164415431Y-96352720D01*
X164124280Y-96061569D01*
X163743874Y-95904000D01*
X163332126Y-95904000D01*
X162951720Y-96061569D01*
X162660569Y-96352720D01*
X162503000Y-96733126D01*
X151943668Y-96733126D01*
X151842431Y-96488720D01*
X151551280Y-96197569D01*
X151170874Y-96040000D01*
X150759126Y-96040000D01*
X150378720Y-96197569D01*
X150087569Y-96488720D01*
X149930000Y-96869126D01*
X136484875Y-96869126D01*
X136315044Y-96614956D01*
X136038238Y-96430000D01*
X136315044Y-96245044D01*
X136647678Y-95747222D01*
X136764484Y-95160000D01*
X136647678Y-94572778D01*
X136315044Y-94074956D01*
X136081829Y-93919126D01*
X151610000Y-93919126D01*
X151610000Y-94330874D01*
X151767569Y-94711280D01*
X152058720Y-95002431D01*
X152439126Y-95160000D01*
X152850874Y-95160000D01*
X153231280Y-95002431D01*
X153522431Y-94711280D01*
X153680000Y-94330874D01*
X153680000Y-93919126D01*
X153522431Y-93538720D01*
X153465487Y-93481776D01*
X154252660Y-93481776D01*
X154252660Y-93893524D01*
X154410229Y-94273930D01*
X154701380Y-94565081D01*
X155081786Y-94722650D01*
X155175466Y-94722650D01*
X155289909Y-94998940D01*
X155581060Y-95290091D01*
X155961466Y-95447660D01*
X156373214Y-95447660D01*
X156753620Y-95290091D01*
X157044771Y-94998940D01*
X157202340Y-94618534D01*
X157202340Y-94206786D01*
X157084938Y-93923350D01*
X157999293Y-93923350D01*
X157999293Y-94335098D01*
X158156862Y-94715504D01*
X158448013Y-95006655D01*
X158828419Y-95164224D01*
X159240167Y-95164224D01*
X159620573Y-95006655D01*
X159651759Y-94975470D01*
X159678720Y-95002431D01*
X160059126Y-95160000D01*
X160470874Y-95160000D01*
X160851280Y-95002431D01*
X160900000Y-94953711D01*
X160948720Y-95002431D01*
X161329126Y-95160000D01*
X161740874Y-95160000D01*
X162121280Y-95002431D01*
X162412431Y-94711280D01*
X162570000Y-94330874D01*
X162570000Y-93919126D01*
X162412431Y-93538720D01*
X162121280Y-93247569D01*
X161740874Y-93090000D01*
X161329126Y-93090000D01*
X160948720Y-93247569D01*
X160900000Y-93296289D01*
X160851280Y-93247569D01*
X160470874Y-93090000D01*
X160059126Y-93090000D01*
X159678720Y-93247569D01*
X159647535Y-93278755D01*
X159620573Y-93251793D01*
X159240167Y-93094224D01*
X158828419Y-93094224D01*
X158448013Y-93251793D01*
X158156862Y-93542944D01*
X157999293Y-93923350D01*
X157084938Y-93923350D01*
X157044771Y-93826380D01*
X156753620Y-93535229D01*
X156373214Y-93377660D01*
X156279534Y-93377660D01*
X156165091Y-93101370D01*
X155873940Y-92810219D01*
X155493534Y-92652650D01*
X155081786Y-92652650D01*
X154701380Y-92810219D01*
X154410229Y-93101370D01*
X154252660Y-93481776D01*
X153465487Y-93481776D01*
X153231280Y-93247569D01*
X152850874Y-93090000D01*
X152439126Y-93090000D01*
X152058720Y-93247569D01*
X151767569Y-93538720D01*
X151610000Y-93919126D01*
X136081829Y-93919126D01*
X136038238Y-93890000D01*
X136315044Y-93705044D01*
X136647678Y-93207222D01*
X136764484Y-92620000D01*
X136673805Y-92164126D01*
X142818000Y-92164126D01*
X142818000Y-92575874D01*
X142975569Y-92956280D01*
X143266720Y-93247431D01*
X143647126Y-93405000D01*
X144058874Y-93405000D01*
X144439280Y-93247431D01*
X144730431Y-92956280D01*
X144888000Y-92575874D01*
X144888000Y-92164126D01*
X144730431Y-91783720D01*
X144439280Y-91492569D01*
X144058874Y-91335000D01*
X143647126Y-91335000D01*
X143266720Y-91492569D01*
X142975569Y-91783720D01*
X142818000Y-92164126D01*
X136673805Y-92164126D01*
X136647678Y-92032778D01*
X136315044Y-91534956D01*
X136038238Y-91350000D01*
X136315044Y-91165044D01*
X136322339Y-91154126D01*
X156915000Y-91154126D01*
X156915000Y-91565874D01*
X157072569Y-91946280D01*
X157363720Y-92237431D01*
X157744126Y-92395000D01*
X158155874Y-92395000D01*
X158536280Y-92237431D01*
X158633711Y-92140000D01*
X165695516Y-92140000D01*
X165812322Y-92727222D01*
X166144956Y-93225044D01*
X166421762Y-93410000D01*
X166144956Y-93594956D01*
X165812322Y-94092778D01*
X165695516Y-94680000D01*
X165812322Y-95267222D01*
X166144956Y-95765044D01*
X166421762Y-95950000D01*
X166144956Y-96134956D01*
X165812322Y-96632778D01*
X165695516Y-97220000D01*
X165812322Y-97807222D01*
X166144956Y-98305044D01*
X166642778Y-98637678D01*
X167081774Y-98725000D01*
X167838226Y-98725000D01*
X168277222Y-98637678D01*
X168775044Y-98305044D01*
X169107678Y-97807222D01*
X169111949Y-97785750D01*
X173265000Y-97785750D01*
X173265000Y-98496309D01*
X173361673Y-98729698D01*
X173540301Y-98908327D01*
X173773690Y-99005000D01*
X174714250Y-99005000D01*
X174873000Y-98846250D01*
X174873000Y-97627000D01*
X175127000Y-97627000D01*
X175127000Y-98846250D01*
X175285750Y-99005000D01*
X176226310Y-99005000D01*
X176459699Y-98908327D01*
X176638327Y-98729698D01*
X176735000Y-98496309D01*
X176735000Y-97785750D01*
X176576250Y-97627000D01*
X175127000Y-97627000D01*
X174873000Y-97627000D01*
X173423750Y-97627000D01*
X173265000Y-97785750D01*
X169111949Y-97785750D01*
X169224484Y-97220000D01*
X169107678Y-96632778D01*
X168775044Y-96134956D01*
X168498238Y-95950000D01*
X168775044Y-95765044D01*
X169107678Y-95267222D01*
X169224484Y-94680000D01*
X169107678Y-94092778D01*
X168775044Y-93594956D01*
X168498238Y-93410000D01*
X168775044Y-93225044D01*
X169107678Y-92727222D01*
X169224484Y-92140000D01*
X169107678Y-91552778D01*
X168781999Y-91065364D01*
X168919699Y-91008327D01*
X169098327Y-90829698D01*
X169195000Y-90596309D01*
X169195000Y-89885750D01*
X169036250Y-89727000D01*
X167587000Y-89727000D01*
X167587000Y-89747000D01*
X167333000Y-89747000D01*
X167333000Y-89727000D01*
X165883750Y-89727000D01*
X165725000Y-89885750D01*
X165725000Y-90596309D01*
X165821673Y-90829698D01*
X166000301Y-91008327D01*
X166138001Y-91065364D01*
X165812322Y-91552778D01*
X165695516Y-92140000D01*
X158633711Y-92140000D01*
X158827431Y-91946280D01*
X158985000Y-91565874D01*
X158985000Y-91154126D01*
X158827431Y-90773720D01*
X158536280Y-90482569D01*
X158155874Y-90325000D01*
X157744126Y-90325000D01*
X157363720Y-90482569D01*
X157072569Y-90773720D01*
X156915000Y-91154126D01*
X136322339Y-91154126D01*
X136647678Y-90667222D01*
X136764484Y-90080000D01*
X136647678Y-89492778D01*
X136315044Y-88994956D01*
X136038238Y-88810000D01*
X136315044Y-88625044D01*
X136316325Y-88623126D01*
X146882000Y-88623126D01*
X146882000Y-89034874D01*
X147039569Y-89415280D01*
X147330720Y-89706431D01*
X147711126Y-89864000D01*
X148122874Y-89864000D01*
X148503280Y-89706431D01*
X148794431Y-89415280D01*
X148952000Y-89034874D01*
X148952000Y-88623126D01*
X148943950Y-88603691D01*
X165725000Y-88603691D01*
X165725000Y-89314250D01*
X165883750Y-89473000D01*
X167333000Y-89473000D01*
X167333000Y-88253750D01*
X167587000Y-88253750D01*
X167587000Y-89473000D01*
X169036250Y-89473000D01*
X169195000Y-89314250D01*
X169195000Y-88603691D01*
X169098327Y-88370302D01*
X168919699Y-88191673D01*
X168686310Y-88095000D01*
X167745750Y-88095000D01*
X167587000Y-88253750D01*
X167333000Y-88253750D01*
X167174250Y-88095000D01*
X166233690Y-88095000D01*
X166000301Y-88191673D01*
X165821673Y-88370302D01*
X165725000Y-88603691D01*
X148943950Y-88603691D01*
X148794431Y-88242720D01*
X148503280Y-87951569D01*
X148122874Y-87794000D01*
X147711126Y-87794000D01*
X147330720Y-87951569D01*
X147039569Y-88242720D01*
X146882000Y-88623126D01*
X136316325Y-88623126D01*
X136647678Y-88127222D01*
X136764484Y-87540000D01*
X136647678Y-86952778D01*
X136321999Y-86465364D01*
X136459699Y-86408327D01*
X136638327Y-86229698D01*
X136735000Y-85996309D01*
X136735000Y-85829126D01*
X138485000Y-85829126D01*
X138485000Y-86240874D01*
X138642569Y-86621280D01*
X138933720Y-86912431D01*
X139314126Y-87070000D01*
X139725874Y-87070000D01*
X140106280Y-86912431D01*
X140397431Y-86621280D01*
X140536000Y-86286744D01*
X140674569Y-86621280D01*
X140965720Y-86912431D01*
X141346126Y-87070000D01*
X141757874Y-87070000D01*
X142138280Y-86912431D01*
X142429431Y-86621280D01*
X142568000Y-86286744D01*
X142706569Y-86621280D01*
X142997720Y-86912431D01*
X143378126Y-87070000D01*
X143789874Y-87070000D01*
X144170280Y-86912431D01*
X144461431Y-86621280D01*
X144600000Y-86286744D01*
X144738569Y-86621280D01*
X145029720Y-86912431D01*
X145410126Y-87070000D01*
X145821874Y-87070000D01*
X146202280Y-86912431D01*
X146251585Y-86863126D01*
X162869000Y-86863126D01*
X162869000Y-87274874D01*
X163026569Y-87655280D01*
X163317720Y-87946431D01*
X163698126Y-88104000D01*
X164109874Y-88104000D01*
X164490280Y-87946431D01*
X164781431Y-87655280D01*
X164939000Y-87274874D01*
X164939000Y-86863126D01*
X164781431Y-86482720D01*
X164490280Y-86191569D01*
X164109874Y-86034000D01*
X163698126Y-86034000D01*
X163317720Y-86191569D01*
X163026569Y-86482720D01*
X162869000Y-86863126D01*
X146251585Y-86863126D01*
X146493431Y-86621280D01*
X146651000Y-86240874D01*
X146651000Y-85829126D01*
X146493431Y-85448720D01*
X146202280Y-85157569D01*
X145821874Y-85000000D01*
X145410126Y-85000000D01*
X145029720Y-85157569D01*
X144738569Y-85448720D01*
X144600000Y-85783256D01*
X144461431Y-85448720D01*
X144170280Y-85157569D01*
X143789874Y-85000000D01*
X143378126Y-85000000D01*
X142997720Y-85157569D01*
X142706569Y-85448720D01*
X142568000Y-85783256D01*
X142429431Y-85448720D01*
X142138280Y-85157569D01*
X141757874Y-85000000D01*
X141346126Y-85000000D01*
X140965720Y-85157569D01*
X140674569Y-85448720D01*
X140536000Y-85783256D01*
X140397431Y-85448720D01*
X140106280Y-85157569D01*
X139725874Y-85000000D01*
X139314126Y-85000000D01*
X138933720Y-85157569D01*
X138642569Y-85448720D01*
X138485000Y-85829126D01*
X136735000Y-85829126D01*
X136735000Y-85285750D01*
X136576250Y-85127000D01*
X135127000Y-85127000D01*
X135127000Y-85147000D01*
X134873000Y-85147000D01*
X134873000Y-85127000D01*
X133423750Y-85127000D01*
X133265000Y-85285750D01*
X133265000Y-85996309D01*
X133361673Y-86229698D01*
X133540301Y-86408327D01*
X133678001Y-86465364D01*
X133352322Y-86952778D01*
X133235516Y-87540000D01*
X131127000Y-87540000D01*
X131127000Y-79276954D01*
X131365000Y-79276954D01*
X131365000Y-80723046D01*
X131918396Y-82059062D01*
X132940938Y-83081604D01*
X133938964Y-83495000D01*
X133773690Y-83495000D01*
X133540301Y-83591673D01*
X133361673Y-83770302D01*
X133265000Y-84003691D01*
X133265000Y-84714250D01*
X133423750Y-84873000D01*
X134873000Y-84873000D01*
X134873000Y-84853000D01*
X135127000Y-84853000D01*
X135127000Y-84873000D01*
X136576250Y-84873000D01*
X136735000Y-84714250D01*
X136735000Y-84519126D01*
X151610000Y-84519126D01*
X151610000Y-84930874D01*
X151767569Y-85311280D01*
X152058720Y-85602431D01*
X152439126Y-85760000D01*
X152850874Y-85760000D01*
X153231280Y-85602431D01*
X153280000Y-85553711D01*
X153328720Y-85602431D01*
X153709126Y-85760000D01*
X154120874Y-85760000D01*
X154501280Y-85602431D01*
X154550000Y-85553711D01*
X154598720Y-85602431D01*
X154979126Y-85760000D01*
X155390874Y-85760000D01*
X155771280Y-85602431D01*
X155820000Y-85553711D01*
X155868720Y-85602431D01*
X156249126Y-85760000D01*
X156660874Y-85760000D01*
X157041280Y-85602431D01*
X157090000Y-85553711D01*
X157138720Y-85602431D01*
X157519126Y-85760000D01*
X157930874Y-85760000D01*
X158311280Y-85602431D01*
X158602431Y-85311280D01*
X158760000Y-84930874D01*
X158760000Y-84519126D01*
X159230000Y-84519126D01*
X159230000Y-84930874D01*
X159387569Y-85311280D01*
X159678720Y-85602431D01*
X160059126Y-85760000D01*
X160470874Y-85760000D01*
X160851280Y-85602431D01*
X161123585Y-85330126D01*
X164393000Y-85330126D01*
X164393000Y-85741874D01*
X164550569Y-86122280D01*
X164841720Y-86413431D01*
X165222126Y-86571000D01*
X165633874Y-86571000D01*
X166014280Y-86413431D01*
X166305431Y-86122280D01*
X166463000Y-85741874D01*
X166463000Y-85330126D01*
X166305431Y-84949720D01*
X166168837Y-84813126D01*
X166933000Y-84813126D01*
X166933000Y-85224874D01*
X167090569Y-85605280D01*
X167381720Y-85896431D01*
X167762126Y-86054000D01*
X168173874Y-86054000D01*
X168554280Y-85896431D01*
X168845431Y-85605280D01*
X168984000Y-85270744D01*
X169122569Y-85605280D01*
X169413720Y-85896431D01*
X169794126Y-86054000D01*
X170205874Y-86054000D01*
X170586280Y-85896431D01*
X170877431Y-85605280D01*
X171035000Y-85224874D01*
X171035000Y-84813126D01*
X170877431Y-84432720D01*
X170586280Y-84141569D01*
X170205874Y-83984000D01*
X169794126Y-83984000D01*
X169413720Y-84141569D01*
X169122569Y-84432720D01*
X168984000Y-84767256D01*
X168845431Y-84432720D01*
X168554280Y-84141569D01*
X168173874Y-83984000D01*
X167762126Y-83984000D01*
X167381720Y-84141569D01*
X167090569Y-84432720D01*
X166933000Y-84813126D01*
X166168837Y-84813126D01*
X166014280Y-84658569D01*
X165633874Y-84501000D01*
X165222126Y-84501000D01*
X164841720Y-84658569D01*
X164550569Y-84949720D01*
X164393000Y-85330126D01*
X161123585Y-85330126D01*
X161142431Y-85311280D01*
X161300000Y-84930874D01*
X161300000Y-84519126D01*
X161142431Y-84138720D01*
X160851280Y-83847569D01*
X160470874Y-83690000D01*
X160059126Y-83690000D01*
X159678720Y-83847569D01*
X159387569Y-84138720D01*
X159230000Y-84519126D01*
X158760000Y-84519126D01*
X158602431Y-84138720D01*
X158311280Y-83847569D01*
X157930874Y-83690000D01*
X157519126Y-83690000D01*
X157138720Y-83847569D01*
X157090000Y-83896289D01*
X157041280Y-83847569D01*
X156660874Y-83690000D01*
X156249126Y-83690000D01*
X155868720Y-83847569D01*
X155820000Y-83896289D01*
X155771280Y-83847569D01*
X155390874Y-83690000D01*
X154979126Y-83690000D01*
X154598720Y-83847569D01*
X154550000Y-83896289D01*
X154501280Y-83847569D01*
X154120874Y-83690000D01*
X153709126Y-83690000D01*
X153328720Y-83847569D01*
X153280000Y-83896289D01*
X153231280Y-83847569D01*
X152850874Y-83690000D01*
X152439126Y-83690000D01*
X152058720Y-83847569D01*
X151767569Y-84138720D01*
X151610000Y-84519126D01*
X136735000Y-84519126D01*
X136735000Y-84003691D01*
X136638327Y-83770302D01*
X136459699Y-83591673D01*
X136226310Y-83495000D01*
X136061036Y-83495000D01*
X137059062Y-83081604D01*
X138081604Y-82059062D01*
X138139567Y-81919126D01*
X155520009Y-81919126D01*
X155520009Y-82330874D01*
X155677578Y-82711280D01*
X155968729Y-83002431D01*
X156349135Y-83160000D01*
X156760883Y-83160000D01*
X157141289Y-83002431D01*
X157432440Y-82711280D01*
X157590009Y-82330874D01*
X157590009Y-81919126D01*
X159230000Y-81919126D01*
X159230000Y-82330874D01*
X159387569Y-82711280D01*
X159678720Y-83002431D01*
X160059126Y-83160000D01*
X160470874Y-83160000D01*
X160851280Y-83002431D01*
X161054585Y-82799126D01*
X162869000Y-82799126D01*
X162869000Y-83210874D01*
X163026569Y-83591280D01*
X163317720Y-83882431D01*
X163698126Y-84040000D01*
X164109874Y-84040000D01*
X164490280Y-83882431D01*
X164781431Y-83591280D01*
X164939000Y-83210874D01*
X164939000Y-82799126D01*
X164781431Y-82418720D01*
X164490280Y-82127569D01*
X164109874Y-81970000D01*
X163698126Y-81970000D01*
X163317720Y-82127569D01*
X163026569Y-82418720D01*
X162869000Y-82799126D01*
X161054585Y-82799126D01*
X161142431Y-82711280D01*
X161300000Y-82330874D01*
X161300000Y-81919126D01*
X161142431Y-81538720D01*
X160851280Y-81247569D01*
X160470874Y-81090000D01*
X160059126Y-81090000D01*
X159678720Y-81247569D01*
X159387569Y-81538720D01*
X159230000Y-81919126D01*
X157590009Y-81919126D01*
X157432440Y-81538720D01*
X157141289Y-81247569D01*
X156760883Y-81090000D01*
X156349135Y-81090000D01*
X155968729Y-81247569D01*
X155677578Y-81538720D01*
X155520009Y-81919126D01*
X138139567Y-81919126D01*
X138635000Y-80723046D01*
X138635000Y-80096126D01*
X148406000Y-80096126D01*
X148406000Y-80507874D01*
X148563569Y-80888280D01*
X148854720Y-81179431D01*
X149235126Y-81337000D01*
X149646874Y-81337000D01*
X150027280Y-81179431D01*
X150318431Y-80888280D01*
X150476000Y-80507874D01*
X150476000Y-80096126D01*
X150318431Y-79715720D01*
X150027280Y-79424569D01*
X149670906Y-79276954D01*
X171365000Y-79276954D01*
X171365000Y-80723046D01*
X171918396Y-82059062D01*
X172940938Y-83081604D01*
X173985374Y-83514223D01*
X173684956Y-83714956D01*
X173352322Y-84212778D01*
X173235516Y-84800000D01*
X173352322Y-85387222D01*
X173684956Y-85885044D01*
X173961762Y-86070000D01*
X173684956Y-86254956D01*
X173352322Y-86752778D01*
X173235516Y-87340000D01*
X173352322Y-87927222D01*
X173684956Y-88425044D01*
X173961762Y-88610000D01*
X173684956Y-88794956D01*
X173352322Y-89292778D01*
X173235516Y-89880000D01*
X173352322Y-90467222D01*
X173684956Y-90965044D01*
X173961762Y-91150000D01*
X173684956Y-91334956D01*
X173352322Y-91832778D01*
X173235516Y-92420000D01*
X173352322Y-93007222D01*
X173684956Y-93505044D01*
X173961762Y-93690000D01*
X173684956Y-93874956D01*
X173352322Y-94372778D01*
X173235516Y-94960000D01*
X173352322Y-95547222D01*
X173678001Y-96034636D01*
X173540301Y-96091673D01*
X173361673Y-96270302D01*
X173265000Y-96503691D01*
X173265000Y-97214250D01*
X173423750Y-97373000D01*
X174873000Y-97373000D01*
X174873000Y-97353000D01*
X175127000Y-97353000D01*
X175127000Y-97373000D01*
X176576250Y-97373000D01*
X176735000Y-97214250D01*
X176735000Y-96503691D01*
X176638327Y-96270302D01*
X176459699Y-96091673D01*
X176321999Y-96034636D01*
X176647678Y-95547222D01*
X176764484Y-94960000D01*
X176647678Y-94372778D01*
X176315044Y-93874956D01*
X176038238Y-93690000D01*
X176315044Y-93505044D01*
X176647678Y-93007222D01*
X176764484Y-92420000D01*
X176647678Y-91832778D01*
X176315044Y-91334956D01*
X176038238Y-91150000D01*
X176315044Y-90965044D01*
X176647678Y-90467222D01*
X176764484Y-89880000D01*
X176647678Y-89292778D01*
X176315044Y-88794956D01*
X176038238Y-88610000D01*
X176315044Y-88425044D01*
X176647678Y-87927222D01*
X176764484Y-87340000D01*
X176647678Y-86752778D01*
X176315044Y-86254956D01*
X176038238Y-86070000D01*
X176315044Y-85885044D01*
X176647678Y-85387222D01*
X176764484Y-84800000D01*
X176647678Y-84212778D01*
X176315044Y-83714956D01*
X176014626Y-83514223D01*
X177059062Y-83081604D01*
X178081604Y-82059062D01*
X178635000Y-80723046D01*
X178635000Y-79276954D01*
X178081604Y-77940938D01*
X177059062Y-76918396D01*
X175723046Y-76365000D01*
X174276954Y-76365000D01*
X172940938Y-76918396D01*
X171918396Y-77940938D01*
X171365000Y-79276954D01*
X149670906Y-79276954D01*
X149646874Y-79267000D01*
X149235126Y-79267000D01*
X148854720Y-79424569D01*
X148563569Y-79715720D01*
X148406000Y-80096126D01*
X138635000Y-80096126D01*
X138635000Y-79276954D01*
X138081604Y-77940938D01*
X137823792Y-77683126D01*
X138373000Y-77683126D01*
X138373000Y-78094874D01*
X138530569Y-78475280D01*
X138821720Y-78766431D01*
X139202126Y-78924000D01*
X139613874Y-78924000D01*
X139994280Y-78766431D01*
X140285431Y-78475280D01*
X140443000Y-78094874D01*
X140443000Y-77683126D01*
X140285431Y-77302720D01*
X139994280Y-77011569D01*
X139613874Y-76854000D01*
X139202126Y-76854000D01*
X138821720Y-77011569D01*
X138530569Y-77302720D01*
X138373000Y-77683126D01*
X137823792Y-77683126D01*
X137059062Y-76918396D01*
X135723046Y-76365000D01*
X134276954Y-76365000D01*
X132940938Y-76918396D01*
X131918396Y-77940938D01*
X131365000Y-79276954D01*
X131127000Y-79276954D01*
X131127000Y-76127000D01*
X169497491Y-76127000D01*
X169473000Y-76186126D01*
G04 #@! TD*
M02*
